0
SECTION
2
ENTITIES
0
POLYLINE
8
ama back
62
94
66
1
0
VERTEX
8
ama back
10
0.1999
20
-1.8918
0
VERTEX
8
ama back
10
0.0
20
-1.8734
0
VERTEX
8
ama back
10
0.0001
20
-1.8421
0
VERTEX
8
ama back
10
0.0003
20
-1.8109
0
VERTEX
8
ama back
10
0.0004
20
-1.7796
0
VERTEX
8
ama back
10
0.0005
20
-1.7483
0
VERTEX
8
ama back
10
0.0007
20
-1.7171
0
VERTEX
8
ama back
10
0.0008
20
-1.6858
0
VERTEX
8
ama back
10
0.0009
20
-1.6545
0
VERTEX
8
ama back
10
0.0011
20
-1.6233
0
VERTEX
8
ama back
10
0.2011
20
-1.6066
0
VERTEX
8
ama back
10
0.4012
20
-1.59
0
VERTEX
8
ama back
10
0.6013
20
-1.5733
0
VERTEX
8
ama back
10
0.8014
20
-1.5567
0
VERTEX
8
ama back
10
0.8012
20
-1.6054
0
VERTEX
8
ama back
10
0.8009
20
-1.6542
0
VERTEX
8
ama back
10
0.8007
20
-1.703
0
VERTEX
8
ama back
10
0.8005
20
-1.7518
0
VERTEX
8
ama back
10
0.8003
20
-1.8005
0
VERTEX
8
ama back
10
0.8001
20
-1.8493
0
VERTEX
8
ama back
10
0.7999
20
-1.8981
0
VERTEX
8
ama back
10
0.7997
20
-1.9468
0
VERTEX
8
ama back
10
0.5998
20
-1.9285
0
VERTEX
8
ama back
10
0.3998
20
-1.9101
0
VERTEX
8
ama back
10
0.1999
20
-1.8918
0
SEQEND
0
POLYLINE
8
ama back
62
94
66
1
0
VERTEX
8
ama back
10
0.1999
20
1.8918
0
VERTEX
8
ama back
10
0.0
20
1.8734
0
VERTEX
8
ama back
10
0.0001
20
1.8421
0
VERTEX
8
ama back
10
0.0003
20
1.8109
0
VERTEX
8
ama back
10
0.0004
20
1.7796
0
VERTEX
8
ama back
10
0.0005
20
1.7483
0
VERTEX
8
ama back
10
0.0007
20
1.7171
0
VERTEX
8
ama back
10
0.0008
20
1.6858
0
VERTEX
8
ama back
10
0.0009
20
1.6545
0
VERTEX
8
ama back
10
0.0011
20
1.6233
0
VERTEX
8
ama back
10
0.2011
20
1.6066
0
VERTEX
8
ama back
10
0.4012
20
1.59
0
VERTEX
8
ama back
10
0.6013
20
1.5733
0
VERTEX
8
ama back
10
0.8014
20
1.5567
0
VERTEX
8
ama back
10
0.8012
20
1.6054
0
VERTEX
8
ama back
10
0.8009
20
1.6542
0
VERTEX
8
ama back
10
0.8007
20
1.703
0
VERTEX
8
ama back
10
0.8005
20
1.7518
0
VERTEX
8
ama back
10
0.8003
20
1.8005
0
VERTEX
8
ama back
10
0.8001
20
1.8493
0
VERTEX
8
ama back
10
0.7999
20
1.8981
0
VERTEX
8
ama back
10
0.7997
20
1.9468
0
VERTEX
8
ama back
10
0.5998
20
1.9285
0
VERTEX
8
ama back
10
0.3998
20
1.9101
0
VERTEX
8
ama back
10
0.1999
20
1.8918
0
SEQEND
0
POLYLINE
8
ama top
62
94
66
1
0
VERTEX
8
ama top
10
6.0335
20
2.5378
0
VERTEX
8
ama top
10
5.9178
20
2.5407
0
VERTEX
8
ama top
10
5.7799
20
2.5445
0
VERTEX
8
ama top
10
5.6157
20
2.5488
0
VERTEX
8
ama top
10
5.4215
20
2.5533
0
VERTEX
8
ama top
10
5.1933
20
2.5579
0
VERTEX
8
ama top
10
4.9273
20
2.5622
0
VERTEX
8
ama top
10
4.6396
20
2.5658
0
VERTEX
8
ama top
10
4.3461
20
2.5682
0
VERTEX
8
ama top
10
4.0629
20
2.569
0
VERTEX
8
ama top
10
3.8061
20
2.5677
0
VERTEX
8
ama top
10
3.573
20
2.5645
0
VERTEX
8
ama top
10
3.3608
20
2.5596
0
VERTEX
8
ama top
10
3.1669
20
2.5534
0
VERTEX
8
ama top
10
2.9885
20
2.5461
0
VERTEX
8
ama top
10
2.8219
20
2.5379
0
VERTEX
8
ama top
10
2.663
20
2.5291
0
VERTEX
8
ama top
10
2.508
20
2.52
0
VERTEX
8
ama top
10
2.353
20
2.511
0
VERTEX
8
ama top
10
2.1782
20
2.5002
0
VERTEX
8
ama top
10
1.9638
20
2.4859
0
VERTEX
8
ama top
10
1.6899
20
2.4665
0
VERTEX
8
ama top
10
1.3368
20
2.4401
0
VERTEX
8
ama top
10
0.9242
20
2.4086
0
VERTEX
8
ama top
10
0.472
20
2.3736
0
VERTEX
8
ama top
10
0.0
20
2.3369
0
VERTEX
8
ama top
10
0.472
20
2.3002
0
VERTEX
8
ama top
10
0.9242
20
2.2652
0
VERTEX
8
ama top
10
1.3368
20
2.2337
0
VERTEX
8
ama top
10
1.6899
20
2.2073
0
VERTEX
8
ama top
10
1.9638
20
2.1879
0
VERTEX
8
ama top
10
2.1782
20
2.1736
0
VERTEX
8
ama top
10
2.353
20
2.1628
0
VERTEX
8
ama top
10
2.508
20
2.1538
0
VERTEX
8
ama top
10
2.663
20
2.1447
0
VERTEX
8
ama top
10
2.8219
20
2.1359
0
VERTEX
8
ama top
10
2.9885
20
2.1277
0
VERTEX
8
ama top
10
3.1669
20
2.1204
0
VERTEX
8
ama top
10
3.3608
20
2.1142
0
VERTEX
8
ama top
10
3.573
20
2.1094
0
VERTEX
8
ama top
10
3.8061
20
2.1062
0
VERTEX
8
ama top
10
4.0629
20
2.1048
0
VERTEX
8
ama top
10
4.3461
20
2.1056
0
VERTEX
8
ama top
10
4.6396
20
2.108
0
VERTEX
8
ama top
10
4.9273
20
2.1116
0
VERTEX
8
ama top
10
5.1933
20
2.1159
0
VERTEX
8
ama top
10
5.4215
20
2.1205
0
VERTEX
8
ama top
10
5.6157
20
2.125
0
VERTEX
8
ama top
10
5.7799
20
2.1293
0
VERTEX
8
ama top
10
5.9178
20
2.1331
0
VERTEX
8
ama top
10
6.0335
20
2.136
0
VERTEX
8
ama top
10
6.1324
20
2.1383
0
VERTEX
8
ama top
10
6.2201
20
2.1402
0
VERTEX
8
ama top
10
6.3022
20
2.1418
0
VERTEX
8
ama top
10
6.3022
20
2.1906
0
VERTEX
8
ama top
10
6.3022
20
2.2394
0
VERTEX
8
ama top
10
6.3022
20
2.2881
0
VERTEX
8
ama top
10
6.3022
20
2.3369
0
VERTEX
8
ama top
10
6.3022
20
2.3857
0
VERTEX
8
ama top
10
6.3022
20
2.4344
0
VERTEX
8
ama top
10
6.3022
20
2.4832
0
VERTEX
8
ama top
10
6.3022
20
2.532
0
VERTEX
8
ama top
10
6.2201
20
2.5337
0
VERTEX
8
ama top
10
6.1324
20
2.5355
0
VERTEX
8
ama top
10
6.0335
20
2.5378
0
SEQEND
0
POLYLINE
8
ama bottom
62
94
66
1
0
VERTEX
8
ama bottom
10
6.1341
20
0.3544
0
VERTEX
8
ama bottom
10
6.2217
20
0.3533
0
VERTEX
8
ama bottom
10
6.3038
20
0.3523
0
VERTEX
8
ama bottom
10
6.3038
20
0.3211
0
VERTEX
8
ama bottom
10
6.3038
20
0.2898
0
VERTEX
8
ama bottom
10
6.3038
20
0.2585
0
VERTEX
8
ama bottom
10
6.3038
20
0.2273
0
VERTEX
8
ama bottom
10
6.3039
20
0.196
0
VERTEX
8
ama bottom
10
6.3039
20
0.1647
0
VERTEX
8
ama bottom
10
6.3039
20
0.1335
0
VERTEX
8
ama bottom
10
6.3039
20
0.1022
0
VERTEX
8
ama bottom
10
6.2219
20
0.1011
0
VERTEX
8
ama bottom
10
6.1343
20
0.0999
0
VERTEX
8
ama bottom
10
6.0355
20
0.0984
0
VERTEX
8
ama bottom
10
5.9201
20
0.0966
0
VERTEX
8
ama bottom
10
5.7824
20
0.0942
0
VERTEX
8
ama bottom
10
5.6185
20
0.0914
0
VERTEX
8
ama bottom
10
5.4246
20
0.0885
0
VERTEX
8
ama bottom
10
5.1968
20
0.0856
0
VERTEX
8
ama bottom
10
4.9312
20
0.0828
0
VERTEX
8
ama bottom
10
4.6439
20
0.0806
0
VERTEX
8
ama bottom
10
4.3509
20
0.0792
0
VERTEX
8
ama bottom
10
4.0682
20
0.0789
0
VERTEX
8
ama bottom
10
3.812
20
0.08
0
VERTEX
8
ama bottom
10
3.5794
20
0.0824
0
VERTEX
8
ama bottom
10
3.3677
20
0.0859
0
VERTEX
8
ama bottom
10
3.1741
20
0.0903
0
VERTEX
8
ama bottom
10
2.9959
20
0.0953
0
VERTEX
8
ama bottom
10
2.8292
20
0.1008
0
VERTEX
8
ama bottom
10
2.6702
20
0.1067
0
VERTEX
8
ama bottom
10
2.5151
20
0.1127
0
VERTEX
8
ama bottom
10
2.3599
20
0.1187
0
VERTEX
8
ama bottom
10
2.1849
20
0.1257
0
VERTEX
8
ama bottom
10
1.9701
20
0.1347
0
VERTEX
8
ama bottom
10
1.6956
20
0.1467
0
VERTEX
8
ama bottom
10
1.3414
20
0.1626
0
VERTEX
8
ama bottom
10
0.9275
20
0.1814
0
VERTEX
8
ama bottom
10
0.4737
20
0.2022
0
VERTEX
8
ama bottom
10
0.0
20
0.224
0
VERTEX
8
ama bottom
10
0.4737
20
0.2463
0
VERTEX
8
ama bottom
10
0.9274
20
0.2675
0
VERTEX
8
ama bottom
10
1.3413
20
0.2868
0
VERTEX
8
ama bottom
10
1.6955
20
0.303
0
VERTEX
8
ama bottom
10
1.97
20
0.3153
0
VERTEX
8
ama bottom
10
2.1848
20
0.3245
0
VERTEX
8
ama bottom
10
2.3598
20
0.3317
0
VERTEX
8
ama bottom
10
2.5149
20
0.3379
0
VERTEX
8
ama bottom
10
2.6701
20
0.3441
0
VERTEX
8
ama bottom
10
2.8291
20
0.3501
0
VERTEX
8
ama bottom
10
2.9957
20
0.3558
0
VERTEX
8
ama bottom
10
3.1739
20
0.361
0
VERTEX
8
ama bottom
10
3.3675
20
0.3655
0
VERTEX
8
ama bottom
10
3.5792
20
0.3692
0
VERTEX
8
ama bottom
10
3.8118
20
0.3719
0
VERTEX
8
ama bottom
10
4.0681
20
0.3733
0
VERTEX
8
ama bottom
10
4.3507
20
0.3733
0
VERTEX
8
ama bottom
10
4.6437
20
0.3722
0
VERTEX
8
ama bottom
10
4.9311
20
0.3703
0
VERTEX
8
ama bottom
10
5.1967
20
0.3678
0
VERTEX
8
ama bottom
10
5.4245
20
0.3651
0
VERTEX
8
ama bottom
10
5.6184
20
0.3624
0
VERTEX
8
ama bottom
10
5.7822
20
0.3598
0
VERTEX
8
ama bottom
10
5.9199
20
0.3576
0
VERTEX
8
ama bottom
10
6.0354
20
0.3558
0
VERTEX
8
ama bottom
10
6.1341
20
0.3544
0
SEQEND
0
POLYLINE
8
ama side
62
94
66
1
0
VERTEX
8
ama side
10
12.5342
20
0.7223
0
VERTEX
8
ama side
10
12.4465
20
0.7227
0
VERTEX
8
ama side
10
12.3478
20
0.723
0
VERTEX
8
ama side
10
12.2323
20
0.7235
0
VERTEX
8
ama side
10
12.0946
20
0.724
0
VERTEX
8
ama side
10
11.9307
20
0.7246
0
VERTEX
8
ama side
10
11.7368
20
0.7254
0
VERTEX
8
ama side
10
11.509
20
0.7262
0
VERTEX
8
ama side
10
11.2434
20
0.727
0
VERTEX
8
ama side
10
10.9561
20
0.7279
0
VERTEX
8
ama side
10
10.663
20
0.7286
0
VERTEX
8
ama side
10
10.3804
20
0.7293
0
VERTEX
8
ama side
10
10.1241
20
0.7297
0
VERTEX
8
ama side
10
9.8915
20
0.73
0
VERTEX
8
ama side
10
9.6798
20
0.7301
0
VERTEX
8
ama side
10
9.4862
20
0.73
0
VERTEX
8
ama side
10
9.3079
20
0.7299
0
VERTEX
8
ama side
10
9.1411
20
0.7297
0
VERTEX
8
ama side
10
8.982
20
0.7294
0
VERTEX
8
ama side
10
8.8267
20
0.7291
0
VERTEX
8
ama side
10
8.6715
20
0.7288
0
VERTEX
8
ama side
10
8.4963
20
0.7301
0
VERTEX
8
ama side
10
8.2814
20
0.7343
0
VERTEX
8
ama side
10
8.0067
20
0.743
0
VERTEX
8
ama side
10
7.6525
20
0.7578
0
VERTEX
8
ama side
10
7.2386
20
0.777
0
VERTEX
8
ama side
10
6.7849
20
0.7993
0
VERTEX
8
ama side
10
6.3113
20
0.823
0
VERTEX
8
ama side
10
5.8378
20
0.7969
0
VERTEX
8
ama side
10
5.3842
20
0.7723
0
VERTEX
8
ama side
10
4.9704
20
0.7509
0
VERTEX
8
ama side
10
4.6163
20
0.7343
0
VERTEX
8
ama side
10
4.3417
20
0.7242
0
VERTEX
8
ama side
10
4.1268
20
0.7189
0
VERTEX
8
ama side
10
3.9516
20
0.7167
0
VERTEX
8
ama side
10
3.7964
20
0.7162
0
VERTEX
8
ama side
10
3.6411
20
0.7157
0
VERTEX
8
ama side
10
3.482
20
0.7151
0
VERTEX
8
ama side
10
3.3152
20
0.7145
0
VERTEX
8
ama side
10
3.137
20
0.7137
0
VERTEX
8
ama side
10
2.9433
20
0.7127
0
VERTEX
8
ama side
10
2.7316
20
0.7115
0
VERTEX
8
ama side
10
2.499
20
0.7101
0
VERTEX
8
ama side
10
2.2428
20
0.7083
0
VERTEX
8
ama side
10
1.9601
20
0.7062
0
VERTEX
8
ama side
10
1.6671
20
0.7039
0
VERTEX
8
ama side
10
1.3797
20
0.7016
0
VERTEX
8
ama side
10
1.1142
20
0.6994
0
VERTEX
8
ama side
10
0.8863
20
0.6974
0
VERTEX
8
ama side
10
0.6924
20
0.6957
0
VERTEX
8
ama side
10
0.5286
20
0.6942
0
VERTEX
8
ama side
10
0.3908
20
0.6929
0
VERTEX
8
ama side
10
0.2754
20
0.6919
0
VERTEX
8
ama side
10
0.1766
20
0.691
0
VERTEX
8
ama side
10
0.089
20
0.6903
0
VERTEX
8
ama side
10
0.007
20
0.6895
0
VERTEX
8
ama side
10
0.0052
20
0.8903
0
VERTEX
8
ama side
10
0.0035
20
1.0911
0
VERTEX
8
ama side
10
0.0017
20
1.2918
0
VERTEX
8
ama side
10
0.0
20
1.4926
0
VERTEX
8
ama side
10
0.0822
20
1.4933
0
VERTEX
8
ama side
10
0.1699
20
1.4942
0
VERTEX
8
ama side
10
0.2688
20
1.4951
0
VERTEX
8
ama side
10
0.3845
20
1.4963
0
VERTEX
8
ama side
10
0.5225
20
1.4977
0
VERTEX
8
ama side
10
0.6867
20
1.4993
0
VERTEX
8
ama side
10
0.881
20
1.5012
0
VERTEX
8
ama side
10
1.1092
20
1.5033
0
VERTEX
8
ama side
10
1.3752
20
1.5057
0
VERTEX
8
ama side
10
1.663
20
1.5082
0
VERTEX
8
ama side
10
1.9565
20
1.5107
0
VERTEX
8
ama side
10
2.2396
20
1.5128
0
VERTEX
8
ama side
10
2.4964
20
1.5146
0
VERTEX
8
ama side
10
2.7296
20
1.516
0
VERTEX
8
ama side
10
2.9418
20
1.517
0
VERTEX
8
ama side
10
3.1358
20
1.5178
0
VERTEX
8
ama side
10
3.3143
20
1.5184
0
VERTEX
8
ama side
10
3.4812
20
1.5188
0
VERTEX
8
ama side
10
3.6403
20
1.5191
0
VERTEX
8
ama side
10
3.7955
20
1.5193
0
VERTEX
8
ama side
10
3.9508
20
1.5196
0
VERTEX
8
ama side
10
4.1259
20
1.5199
0
VERTEX
8
ama side
10
4.3408
20
1.5201
0
VERTEX
8
ama side
10
4.6154
20
1.5204
0
VERTEX
8
ama side
10
4.9695
20
1.5208
0
VERTEX
8
ama side
10
5.3833
20
1.5213
0
VERTEX
8
ama side
10
5.8368
20
1.522
0
VERTEX
8
ama side
10
6.3103
20
1.523
0
VERTEX
8
ama side
10
6.7837
20
1.5244
0
VERTEX
8
ama side
10
7.2373
20
1.526
0
VERTEX
8
ama side
10
7.651
20
1.5276
0
VERTEX
8
ama side
10
8.0051
20
1.5291
0
VERTEX
8
ama side
10
8.2797
20
1.5302
0
VERTEX
8
ama side
10
8.4946
20
1.5311
0
VERTEX
8
ama side
10
8.6697
20
1.5317
0
VERTEX
8
ama side
10
8.825
20
1.5322
0
VERTEX
8
ama side
10
8.9802
20
1.5328
0
VERTEX
8
ama side
10
9.1393
20
1.5333
0
VERTEX
8
ama side
10
9.3062
20
1.5338
0
VERTEX
8
ama side
10
9.4847
20
1.5341
0
VERTEX
8
ama side
10
9.6787
20
1.5343
0
VERTEX
8
ama side
10
9.8909
20
1.5344
0
VERTEX
8
ama side
10
10.1241
20
1.5342
0
VERTEX
8
ama side
10
10.3809
20
1.5338
0
VERTEX
8
ama side
10
10.6641
20
1.5331
0
VERTEX
8
ama side
10
10.9576
20
1.5322
0
VERTEX
8
ama side
10
11.2454
20
1.5312
0
VERTEX
8
ama side
10
11.5114
20
1.5301
0
VERTEX
8
ama side
10
11.7396
20
1.5292
0
VERTEX
8
ama side
10
11.9339
20
1.5283
0
VERTEX
8
ama side
10
12.0981
20
1.5275
0
VERTEX
8
ama side
10
12.2361
20
1.5268
0
VERTEX
8
ama side
10
12.3518
20
1.5263
0
VERTEX
8
ama side
10
12.4507
20
1.5258
0
VERTEX
8
ama side
10
12.5384
20
1.5254
0
VERTEX
8
ama side
10
12.6206
20
1.5251
0
VERTEX
8
ama side
10
12.6191
20
1.3243
0
VERTEX
8
ama side
10
12.6179
20
1.1236
0
VERTEX
8
ama side
10
12.6169
20
0.9228
0
VERTEX
8
ama side
10
12.6162
20
0.722
0
VERTEX
8
ama side
10
12.5342
20
0.7223
0
SEQEND
0
POLYLINE
8
ama side
62
94
66
1
0
VERTEX
8
ama side
10
12.5342
20
-0.7223
0
VERTEX
8
ama side
10
12.4465
20
-0.7227
0
VERTEX
8
ama side
10
12.3478
20
-0.723
0
VERTEX
8
ama side
10
12.2323
20
-0.7235
0
VERTEX
8
ama side
10
12.0946
20
-0.724
0
VERTEX
8
ama side
10
11.9307
20
-0.7246
0
VERTEX
8
ama side
10
11.7368
20
-0.7254
0
VERTEX
8
ama side
10
11.509
20
-0.7262
0
VERTEX
8
ama side
10
11.2434
20
-0.727
0
VERTEX
8
ama side
10
10.9561
20
-0.7279
0
VERTEX
8
ama side
10
10.663
20
-0.7286
0
VERTEX
8
ama side
10
10.3804
20
-0.7293
0
VERTEX
8
ama side
10
10.1241
20
-0.7297
0
VERTEX
8
ama side
10
9.8915
20
-0.73
0
VERTEX
8
ama side
10
9.6798
20
-0.7301
0
VERTEX
8
ama side
10
9.4862
20
-0.73
0
VERTEX
8
ama side
10
9.3079
20
-0.7299
0
VERTEX
8
ama side
10
9.1411
20
-0.7297
0
VERTEX
8
ama side
10
8.982
20
-0.7294
0
VERTEX
8
ama side
10
8.8267
20
-0.7291
0
VERTEX
8
ama side
10
8.6715
20
-0.7288
0
VERTEX
8
ama side
10
8.4963
20
-0.7301
0
VERTEX
8
ama side
10
8.2814
20
-0.7343
0
VERTEX
8
ama side
10
8.0067
20
-0.743
0
VERTEX
8
ama side
10
7.6525
20
-0.7578
0
VERTEX
8
ama side
10
7.2386
20
-0.777
0
VERTEX
8
ama side
10
6.7849
20
-0.7993
0
VERTEX
8
ama side
10
6.3113
20
-0.823
0
VERTEX
8
ama side
10
5.8378
20
-0.7969
0
VERTEX
8
ama side
10
5.3842
20
-0.7723
0
VERTEX
8
ama side
10
4.9704
20
-0.7509
0
VERTEX
8
ama side
10
4.6163
20
-0.7343
0
VERTEX
8
ama side
10
4.3417
20
-0.7242
0
VERTEX
8
ama side
10
4.1268
20
-0.7189
0
VERTEX
8
ama side
10
3.9516
20
-0.7167
0
VERTEX
8
ama side
10
3.7964
20
-0.7162
0
VERTEX
8
ama side
10
3.6411
20
-0.7157
0
VERTEX
8
ama side
10
3.482
20
-0.7151
0
VERTEX
8
ama side
10
3.3152
20
-0.7145
0
VERTEX
8
ama side
10
3.137
20
-0.7137
0
VERTEX
8
ama side
10
2.9433
20
-0.7127
0
VERTEX
8
ama side
10
2.7316
20
-0.7115
0
VERTEX
8
ama side
10
2.499
20
-0.7101
0
VERTEX
8
ama side
10
2.2428
20
-0.7083
0
VERTEX
8
ama side
10
1.9601
20
-0.7062
0
VERTEX
8
ama side
10
1.6671
20
-0.7039
0
VERTEX
8
ama side
10
1.3797
20
-0.7016
0
VERTEX
8
ama side
10
1.1142
20
-0.6994
0
VERTEX
8
ama side
10
0.8863
20
-0.6974
0
VERTEX
8
ama side
10
0.6924
20
-0.6957
0
VERTEX
8
ama side
10
0.5286
20
-0.6942
0
VERTEX
8
ama side
10
0.3908
20
-0.6929
0
VERTEX
8
ama side
10
0.2754
20
-0.6919
0
VERTEX
8
ama side
10
0.1766
20
-0.691
0
VERTEX
8
ama side
10
0.089
20
-0.6903
0
VERTEX
8
ama side
10
0.007
20
-0.6895
0
VERTEX
8
ama side
10
0.0052
20
-0.8903
0
VERTEX
8
ama side
10
0.0035
20
-1.0911
0
VERTEX
8
ama side
10
0.0017
20
-1.2918
0
VERTEX
8
ama side
10
0.0
20
-1.4926
0
VERTEX
8
ama side
10
0.0822
20
-1.4933
0
VERTEX
8
ama side
10
0.1699
20
-1.4942
0
VERTEX
8
ama side
10
0.2688
20
-1.4951
0
VERTEX
8
ama side
10
0.3845
20
-1.4963
0
VERTEX
8
ama side
10
0.5225
20
-1.4977
0
VERTEX
8
ama side
10
0.6867
20
-1.4993
0
VERTEX
8
ama side
10
0.881
20
-1.5012
0
VERTEX
8
ama side
10
1.1092
20
-1.5033
0
VERTEX
8
ama side
10
1.3752
20
-1.5057
0
VERTEX
8
ama side
10
1.663
20
-1.5082
0
VERTEX
8
ama side
10
1.9565
20
-1.5107
0
VERTEX
8
ama side
10
2.2396
20
-1.5128
0
VERTEX
8
ama side
10
2.4964
20
-1.5146
0
VERTEX
8
ama side
10
2.7296
20
-1.516
0
VERTEX
8
ama side
10
2.9418
20
-1.517
0
VERTEX
8
ama side
10
3.1358
20
-1.5178
0
VERTEX
8
ama side
10
3.3143
20
-1.5184
0
VERTEX
8
ama side
10
3.4812
20
-1.5188
0
VERTEX
8
ama side
10
3.6403
20
-1.5191
0
VERTEX
8
ama side
10
3.7955
20
-1.5193
0
VERTEX
8
ama side
10
3.9508
20
-1.5196
0
VERTEX
8
ama side
10
4.1259
20
-1.5199
0
VERTEX
8
ama side
10
4.3408
20
-1.5201
0
VERTEX
8
ama side
10
4.6154
20
-1.5204
0
VERTEX
8
ama side
10
4.9695
20
-1.5208
0
VERTEX
8
ama side
10
5.3833
20
-1.5213
0
VERTEX
8
ama side
10
5.8368
20
-1.522
0
VERTEX
8
ama side
10
6.3103
20
-1.523
0
VERTEX
8
ama side
10
6.7837
20
-1.5244
0
VERTEX
8
ama side
10
7.2373
20
-1.526
0
VERTEX
8
ama side
10
7.651
20
-1.5276
0
VERTEX
8
ama side
10
8.0051
20
-1.5291
0
VERTEX
8
ama side
10
8.2797
20
-1.5302
0
VERTEX
8
ama side
10
8.4946
20
-1.5311
0
VERTEX
8
ama side
10
8.6697
20
-1.5317
0
VERTEX
8
ama side
10
8.825
20
-1.5322
0
VERTEX
8
ama side
10
8.9802
20
-1.5328
0
VERTEX
8
ama side
10
9.1393
20
-1.5333
0
VERTEX
8
ama side
10
9.3062
20
-1.5338
0
VERTEX
8
ama side
10
9.4847
20
-1.5341
0
VERTEX
8
ama side
10
9.6787
20
-1.5343
0
VERTEX
8
ama side
10
9.8909
20
-1.5344
0
VERTEX
8
ama side
10
10.1241
20
-1.5342
0
VERTEX
8
ama side
10
10.3809
20
-1.5338
0
VERTEX
8
ama side
10
10.6641
20
-1.5331
0
VERTEX
8
ama side
10
10.9576
20
-1.5322
0
VERTEX
8
ama side
10
11.2454
20
-1.5312
0
VERTEX
8
ama side
10
11.5114
20
-1.5301
0
VERTEX
8
ama side
10
11.7396
20
-1.5292
0
VERTEX
8
ama side
10
11.9339
20
-1.5283
0
VERTEX
8
ama side
10
12.0981
20
-1.5275
0
VERTEX
8
ama side
10
12.2361
20
-1.5268
0
VERTEX
8
ama side
10
12.3518
20
-1.5263
0
VERTEX
8
ama side
10
12.4507
20
-1.5258
0
VERTEX
8
ama side
10
12.5384
20
-1.5254
0
VERTEX
8
ama side
10
12.6206
20
-1.5251
0
VERTEX
8
ama side
10
12.6191
20
-1.3243
0
VERTEX
8
ama side
10
12.6179
20
-1.1236
0
VERTEX
8
ama side
10
12.6169
20
-0.9228
0
VERTEX
8
ama side
10
12.6162
20
-0.722
0
VERTEX
8
ama side
10
12.5342
20
-0.7223
0
SEQEND
0
POLYLINE
8
ama bottom
62
94
66
1
0
VERTEX
8
ama bottom
10
6.1341
20
-0.3544
0
VERTEX
8
ama bottom
10
6.2217
20
-0.3533
0
VERTEX
8
ama bottom
10
6.3038
20
-0.3523
0
VERTEX
8
ama bottom
10
6.3038
20
-0.3211
0
VERTEX
8
ama bottom
10
6.3038
20
-0.2898
0
VERTEX
8
ama bottom
10
6.3038
20
-0.2585
0
VERTEX
8
ama bottom
10
6.3038
20
-0.2273
0
VERTEX
8
ama bottom
10
6.3039
20
-0.196
0
VERTEX
8
ama bottom
10
6.3039
20
-0.1647
0
VERTEX
8
ama bottom
10
6.3039
20
-0.1335
0
VERTEX
8
ama bottom
10
6.3039
20
-0.1022
0
VERTEX
8
ama bottom
10
6.2219
20
-0.1011
0
VERTEX
8
ama bottom
10
6.1343
20
-0.0999
0
VERTEX
8
ama bottom
10
6.0355
20
-0.0984
0
VERTEX
8
ama bottom
10
5.9201
20
-0.0966
0
VERTEX
8
ama bottom
10
5.7824
20
-0.0942
0
VERTEX
8
ama bottom
10
5.6185
20
-0.0914
0
VERTEX
8
ama bottom
10
5.4246
20
-0.0885
0
VERTEX
8
ama bottom
10
5.1968
20
-0.0856
0
VERTEX
8
ama bottom
10
4.9312
20
-0.0828
0
VERTEX
8
ama bottom
10
4.6439
20
-0.0806
0
VERTEX
8
ama bottom
10
4.3509
20
-0.0792
0
VERTEX
8
ama bottom
10
4.0682
20
-0.0789
0
VERTEX
8
ama bottom
10
3.812
20
-0.08
0
VERTEX
8
ama bottom
10
3.5794
20
-0.0824
0
VERTEX
8
ama bottom
10
3.3677
20
-0.0859
0
VERTEX
8
ama bottom
10
3.1741
20
-0.0903
0
VERTEX
8
ama bottom
10
2.9959
20
-0.0953
0
VERTEX
8
ama bottom
10
2.8292
20
-0.1008
0
VERTEX
8
ama bottom
10
2.6702
20
-0.1067
0
VERTEX
8
ama bottom
10
2.5151
20
-0.1127
0
VERTEX
8
ama bottom
10
2.3599
20
-0.1187
0
VERTEX
8
ama bottom
10
2.1849
20
-0.1257
0
VERTEX
8
ama bottom
10
1.9701
20
-0.1347
0
VERTEX
8
ama bottom
10
1.6956
20
-0.1467
0
VERTEX
8
ama bottom
10
1.3414
20
-0.1626
0
VERTEX
8
ama bottom
10
0.9275
20
-0.1814
0
VERTEX
8
ama bottom
10
0.4737
20
-0.2022
0
VERTEX
8
ama bottom
10
0.0
20
-0.224
0
VERTEX
8
ama bottom
10
0.4737
20
-0.2463
0
VERTEX
8
ama bottom
10
0.9274
20
-0.2675
0
VERTEX
8
ama bottom
10
1.3413
20
-0.2868
0
VERTEX
8
ama bottom
10
1.6955
20
-0.303
0
VERTEX
8
ama bottom
10
1.97
20
-0.3153
0
VERTEX
8
ama bottom
10
2.1848
20
-0.3245
0
VERTEX
8
ama bottom
10
2.3598
20
-0.3317
0
VERTEX
8
ama bottom
10
2.5149
20
-0.3379
0
VERTEX
8
ama bottom
10
2.6701
20
-0.3441
0
VERTEX
8
ama bottom
10
2.8291
20
-0.3501
0
VERTEX
8
ama bottom
10
2.9957
20
-0.3558
0
VERTEX
8
ama bottom
10
3.1739
20
-0.361
0
VERTEX
8
ama bottom
10
3.3675
20
-0.3655
0
VERTEX
8
ama bottom
10
3.5792
20
-0.3692
0
VERTEX
8
ama bottom
10
3.8118
20
-0.3719
0
VERTEX
8
ama bottom
10
4.0681
20
-0.3733
0
VERTEX
8
ama bottom
10
4.3507
20
-0.3733
0
VERTEX
8
ama bottom
10
4.6437
20
-0.3722
0
VERTEX
8
ama bottom
10
4.9311
20
-0.3703
0
VERTEX
8
ama bottom
10
5.1967
20
-0.3678
0
VERTEX
8
ama bottom
10
5.4245
20
-0.3651
0
VERTEX
8
ama bottom
10
5.6184
20
-0.3624
0
VERTEX
8
ama bottom
10
5.7822
20
-0.3598
0
VERTEX
8
ama bottom
10
5.9199
20
-0.3576
0
VERTEX
8
ama bottom
10
6.0354
20
-0.3558
0
VERTEX
8
ama bottom
10
6.1341
20
-0.3544
0
SEQEND
0
POLYLINE
8
ama top
62
94
66
1
0
VERTEX
8
ama top
10
6.0335
20
-2.5378
0
VERTEX
8
ama top
10
5.9178
20
-2.5407
0
VERTEX
8
ama top
10
5.7799
20
-2.5445
0
VERTEX
8
ama top
10
5.6157
20
-2.5488
0
VERTEX
8
ama top
10
5.4215
20
-2.5533
0
VERTEX
8
ama top
10
5.1933
20
-2.5579
0
VERTEX
8
ama top
10
4.9273
20
-2.5622
0
VERTEX
8
ama top
10
4.6396
20
-2.5658
0
VERTEX
8
ama top
10
4.3461
20
-2.5682
0
VERTEX
8
ama top
10
4.0629
20
-2.569
0
VERTEX
8
ama top
10
3.8061
20
-2.5677
0
VERTEX
8
ama top
10
3.573
20
-2.5645
0
VERTEX
8
ama top
10
3.3608
20
-2.5596
0
VERTEX
8
ama top
10
3.1669
20
-2.5534
0
VERTEX
8
ama top
10
2.9885
20
-2.5461
0
VERTEX
8
ama top
10
2.8219
20
-2.5379
0
VERTEX
8
ama top
10
2.663
20
-2.5291
0
VERTEX
8
ama top
10
2.508
20
-2.52
0
VERTEX
8
ama top
10
2.353
20
-2.511
0
VERTEX
8
ama top
10
2.1782
20
-2.5002
0
VERTEX
8
ama top
10
1.9638
20
-2.4859
0
VERTEX
8
ama top
10
1.6899
20
-2.4665
0
VERTEX
8
ama top
10
1.3368
20
-2.4401
0
VERTEX
8
ama top
10
0.9242
20
-2.4086
0
VERTEX
8
ama top
10
0.472
20
-2.3736
0
VERTEX
8
ama top
10
0.0
20
-2.3369
0
VERTEX
8
ama top
10
0.472
20
-2.3002
0
VERTEX
8
ama top
10
0.9242
20
-2.2652
0
VERTEX
8
ama top
10
1.3368
20
-2.2337
0
VERTEX
8
ama top
10
1.6899
20
-2.2073
0
VERTEX
8
ama top
10
1.9638
20
-2.1879
0
VERTEX
8
ama top
10
2.1782
20
-2.1736
0
VERTEX
8
ama top
10
2.353
20
-2.1628
0
VERTEX
8
ama top
10
2.508
20
-2.1538
0
VERTEX
8
ama top
10
2.663
20
-2.1447
0
VERTEX
8
ama top
10
2.8219
20
-2.1359
0
VERTEX
8
ama top
10
2.9885
20
-2.1277
0
VERTEX
8
ama top
10
3.1669
20
-2.1204
0
VERTEX
8
ama top
10
3.3608
20
-2.1142
0
VERTEX
8
ama top
10
3.573
20
-2.1094
0
VERTEX
8
ama top
10
3.8061
20
-2.1062
0
VERTEX
8
ama top
10
4.0629
20
-2.1048
0
VERTEX
8
ama top
10
4.3461
20
-2.1056
0
VERTEX
8
ama top
10
4.6396
20
-2.108
0
VERTEX
8
ama top
10
4.9273
20
-2.1116
0
VERTEX
8
ama top
10
5.1933
20
-2.1159
0
VERTEX
8
ama top
10
5.4215
20
-2.1205
0
VERTEX
8
ama top
10
5.6157
20
-2.125
0
VERTEX
8
ama top
10
5.7799
20
-2.1293
0
VERTEX
8
ama top
10
5.9178
20
-2.1331
0
VERTEX
8
ama top
10
6.0335
20
-2.136
0
VERTEX
8
ama top
10
6.1324
20
-2.1383
0
VERTEX
8
ama top
10
6.2201
20
-2.1402
0
VERTEX
8
ama top
10
6.3022
20
-2.1418
0
VERTEX
8
ama top
10
6.3022
20
-2.1906
0
VERTEX
8
ama top
10
6.3022
20
-2.2394
0
VERTEX
8
ama top
10
6.3022
20
-2.2881
0
VERTEX
8
ama top
10
6.3022
20
-2.3369
0
VERTEX
8
ama top
10
6.3022
20
-2.3857
0
VERTEX
8
ama top
10
6.3022
20
-2.4344
0
VERTEX
8
ama top
10
6.3022
20
-2.4832
0
VERTEX
8
ama top
10
6.3022
20
-2.532
0
VERTEX
8
ama top
10
6.2201
20
-2.5337
0
VERTEX
8
ama top
10
6.1324
20
-2.5355
0
VERTEX
8
ama top
10
6.0335
20
-2.5378
0
SEQEND
0
ENDSEC
0
EOF
