0
SECTION
2
ENTITIES
0
POLYLINE
8
deck main
62
94
66
1
0
VERTEX
8
deck main
10
5.085
20
0.2899
0
VERTEX
8
deck main
10
4.7703
20
0.2519
0
VERTEX
8
deck main
10
4.4513
20
0.2187
0
VERTEX
8
deck main
10
4.1331
20
0.1924
0
VERTEX
8
deck main
10
3.8254
20
0.173
0
VERTEX
8
deck main
10
3.538
20
0.1609
0
VERTEX
8
deck main
10
3.2809
20
0.156
0
VERTEX
8
deck main
10
3.0638
20
0.1587
0
VERTEX
8
deck main
10
2.8767
20
0.1671
0
VERTEX
8
deck main
10
2.7097
20
0.1793
0
VERTEX
8
deck main
10
2.5526
20
0.1933
0
VERTEX
8
deck main
10
2.3956
20
0.2073
0
VERTEX
8
deck main
10
2.2183
20
0.2249
0
VERTEX
8
deck main
10
2.0005
20
0.2498
0
VERTEX
8
deck main
10
1.7219
20
0.2854
0
VERTEX
8
deck main
10
1.3623
20
0.3355
0
VERTEX
8
deck main
10
0.942
20
0.3964
0
VERTEX
8
deck main
10
0.4811
20
0.4645
0
VERTEX
8
deck main
10
0.0
20
0.5362
0
VERTEX
8
deck main
10
0.548
20
0.589
0
VERTEX
8
deck main
10
1.0961
20
0.6417
0
VERTEX
8
deck main
10
1.6441
20
0.6945
0
VERTEX
8
deck main
10
2.1921
20
0.7473
0
VERTEX
8
deck main
10
2.352
20
0.6514
0
VERTEX
8
deck main
10
2.5071
20
0.5611
0
VERTEX
8
deck main
10
2.6525
20
0.482
0
VERTEX
8
deck main
10
2.7834
20
0.4196
0
VERTEX
8
deck main
10
2.8949
20
0.3795
0
VERTEX
8
deck main
10
3.0065
20
0.358
0
VERTEX
8
deck main
10
3.1376
20
0.3514
0
VERTEX
8
deck main
10
3.3078
20
0.356
0
VERTEX
8
deck main
10
3.5366
20
0.368
0
VERTEX
8
deck main
10
3.8092
20
0.3857
0
VERTEX
8
deck main
10
4.111
20
0.4071
0
VERTEX
8
deck main
10
4.4275
20
0.4304
0
VERTEX
8
deck main
10
4.9921
20
0.5058
0
VERTEX
8
deck main
10
5.5566
20
0.5813
0
VERTEX
8
deck main
10
6.1211
20
0.6568
0
VERTEX
8
deck main
10
6.6856
20
0.7323
0
VERTEX
8
deck main
10
6.6904
20
0.6825
0
VERTEX
8
deck main
10
6.6952
20
0.6328
0
VERTEX
8
deck main
10
6.70
20
0.583
0
VERTEX
8
deck main
10
6.7048
20
0.5333
0
VERTEX
8
deck main
10
6.461
20
0.4937
0
VERTEX
8
deck main
10
6.2125
20
0.454
0
VERTEX
8
deck main
10
5.9544
20
0.4137
0
VERTEX
8
deck main
10
5.682
20
0.3728
0
VERTEX
8
deck main
10
5.3906
20
0.3308
0
VERTEX
8
deck main
10
5.085
20
0.2899
0
SEQEND
0
POLYLINE
8
deck main
62
94
66
1
0
VERTEX
8
deck main
10
4.9446
20
1.7483
0
VERTEX
8
deck main
10
4.6284
20
1.7255
0
VERTEX
8
deck main
10
4.309
20
1.6972
0
VERTEX
8
deck main
10
3.9915
20
1.6624
0
VERTEX
8
deck main
10
3.6858
20
1.6226
0
VERTEX
8
deck main
10
3.4014
20
1.5798
0
VERTEX
8
deck main
10
3.1481
20
1.5354
0
VERTEX
8
deck main
10
2.9355
20
1.4913
0
VERTEX
8
deck main
10
2.7534
20
1.4474
0
VERTEX
8
deck main
10
2.5918
20
1.4036
0
VERTEX
8
deck main
10
2.4403
20
1.3599
0
VERTEX
8
deck main
10
2.2888
20
1.3162
0
VERTEX
8
deck main
10
2.1181
20
1.265
0
VERTEX
8
deck main
10
1.909
20
1.1991
0
VERTEX
8
deck main
10
1.6424
20
1.1109
0
VERTEX
8
deck main
10
1.299
20
0.9932
0
VERTEX
8
deck main
10
0.898
20
0.8532
0
VERTEX
8
deck main
10
0.4586
20
0.6984
0
VERTEX
8
deck main
10
0.0
20
0.5362
0
VERTEX
8
deck main
10
0.548
20
0.589
0
VERTEX
8
deck main
10
1.0961
20
0.6417
0
VERTEX
8
deck main
10
1.6441
20
0.6945
0
VERTEX
8
deck main
10
2.1921
20
0.7473
0
VERTEX
8
deck main
10
2.3308
20
0.8719
0
VERTEX
8
deck main
10
2.4658
20
0.9901
0
VERTEX
8
deck main
10
2.5934
20
1.0955
0
VERTEX
8
deck main
10
2.71
20
1.1818
0
VERTEX
8
deck main
10
2.8118
20
1.2424
0
VERTEX
8
deck main
10
2.9172
20
1.2848
0
VERTEX
8
deck main
10
3.0447
20
1.3163
0
VERTEX
8
deck main
10
3.2127
20
1.3443
0
VERTEX
8
deck main
10
3.4395
20
1.3761
0
VERTEX
8
deck main
10
3.7105
20
1.4108
0
VERTEX
8
deck main
10
4.0109
20
1.4474
0
VERTEX
8
deck main
10
4.326
20
1.4849
0
VERTEX
8
deck main
10
4.8945
20
1.5186
0
VERTEX
8
deck main
10
5.4631
20
1.5522
0
VERTEX
8
deck main
10
6.0317
20
1.5858
0
VERTEX
8
deck main
10
6.6002
20
1.6194
0
VERTEX
8
deck main
10
6.5954
20
1.6692
0
VERTEX
8
deck main
10
6.5906
20
1.7189
0
VERTEX
8
deck main
10
6.5858
20
1.7687
0
VERTEX
8
deck main
10
6.581
20
1.8185
0
VERTEX
8
deck main
10
6.3342
20
1.8107
0
VERTEX
8
deck main
10
6.0826
20
1.8023
0
VERTEX
8
deck main
10
5.8216
20
1.7926
0
VERTEX
8
deck main
10
5.5464
20
1.7808
0
VERTEX
8
deck main
10
5.2523
20
1.7664
0
VERTEX
8
deck main
10
4.9446
20
1.7483
0
SEQEND
0
POLYLINE
8
Aft
62
94
66
1
0
VERTEX
8
Aft
10
0.7003
20
-0.3853
0
VERTEX
8
Aft
10
0.6007
20
-0.3853
0
VERTEX
8
Aft
10
0.501
20
-0.3853
0
VERTEX
8
Aft
10
0.4014
20
-0.3853
0
VERTEX
8
Aft
10
0.3442
20
-0.4484
0
VERTEX
8
Aft
10
0.2871
20
-0.5115
0
VERTEX
8
Aft
10
0.2299
20
-0.5746
0
VERTEX
8
Aft
10
0.1728
20
-0.6376
0
VERTEX
8
Aft
10
0.1296
20
-0.6806
0
VERTEX
8
Aft
10
0.0864
20
-0.7236
0
VERTEX
8
Aft
10
0.0432
20
-0.7665
0
VERTEX
8
Aft
10
0.0
20
-0.8095
0
VERTEX
8
Aft
10
0.0
20
-0.8595
0
VERTEX
8
Aft
10
0.0
20
-0.9095
0
VERTEX
8
Aft
10
0.0
20
-0.9595
0
VERTEX
8
Aft
10
0.0
20
-1.0096
0
VERTEX
8
Aft
10
0.0432
20
-1.0096
0
VERTEX
8
Aft
10
0.0864
20
-1.0096
0
VERTEX
8
Aft
10
0.1296
20
-1.0096
0
VERTEX
8
Aft
10
0.1728
20
-1.0096
0
VERTEX
8
Aft
10
0.3296
20
-1.0096
0
VERTEX
8
Aft
10
0.4864
20
-1.0096
0
VERTEX
8
Aft
10
0.6432
20
-1.0096
0
VERTEX
8
Aft
10
0.80
20
-1.0096
0
VERTEX
8
Aft
10
0.80
20
-0.8535
0
VERTEX
8
Aft
10
0.80
20
-0.6974
0
VERTEX
8
Aft
10
0.80
20
-0.5414
0
VERTEX
8
Aft
10
0.80
20
-0.3853
0
VERTEX
8
Aft
10
0.7003
20
-0.3853
0
SEQEND
0
POLYLINE
8
Aft
62
94
66
1
0
VERTEX
8
Aft
10
0.7003
20
-1.6338
0
VERTEX
8
Aft
10
0.6007
20
-1.6338
0
VERTEX
8
Aft
10
0.501
20
-1.6338
0
VERTEX
8
Aft
10
0.4014
20
-1.6338
0
VERTEX
8
Aft
10
0.3442
20
-1.5708
0
VERTEX
8
Aft
10
0.2871
20
-1.5077
0
VERTEX
8
Aft
10
0.2299
20
-1.4446
0
VERTEX
8
Aft
10
0.1728
20
-1.3815
0
VERTEX
8
Aft
10
0.1296
20
-1.3386
0
VERTEX
8
Aft
10
0.0864
20
-1.2956
0
VERTEX
8
Aft
10
0.0432
20
-1.2526
0
VERTEX
8
Aft
10
0.0
20
-1.2097
0
VERTEX
8
Aft
10
0.0
20
-1.1597
0
VERTEX
8
Aft
10
0.0
20
-1.1096
0
VERTEX
8
Aft
10
0.0
20
-1.0596
0
VERTEX
8
Aft
10
0.0
20
-1.0096
0
VERTEX
8
Aft
10
0.0432
20
-1.0096
0
VERTEX
8
Aft
10
0.0864
20
-1.0096
0
VERTEX
8
Aft
10
0.1296
20
-1.0096
0
VERTEX
8
Aft
10
0.1728
20
-1.0096
0
VERTEX
8
Aft
10
0.3296
20
-1.0096
0
VERTEX
8
Aft
10
0.4864
20
-1.0096
0
VERTEX
8
Aft
10
0.6432
20
-1.0096
0
VERTEX
8
Aft
10
0.80
20
-1.0096
0
VERTEX
8
Aft
10
0.80
20
-1.1656
0
VERTEX
8
Aft
10
0.80
20
-1.3217
0
VERTEX
8
Aft
10
0.80
20
-1.4778
0
VERTEX
8
Aft
10
0.80
20
-1.6338
0
VERTEX
8
Aft
10
0.7003
20
-1.6338
0
SEQEND
0
POLYLINE
8
cabin top
62
94
66
1
0
VERTEX
8
cabin top
10
0.7673
20
1.9026
0
VERTEX
8
cabin top
10
0.9962
20
1.8927
0
VERTEX
8
cabin top
10
1.2692
20
1.8842
0
VERTEX
8
cabin top
10
1.5717
20
1.8765
0
VERTEX
8
cabin top
10
1.889
20
1.8694
0
VERTEX
8
cabin top
10
1.889
20
1.9643
0
VERTEX
8
cabin top
10
1.889
20
2.0592
0
VERTEX
8
cabin top
10
1.889
20
2.1542
0
VERTEX
8
cabin top
10
1.889
20
2.2491
0
VERTEX
8
cabin top
10
1.5717
20
2.2491
0
VERTEX
8
cabin top
10
1.2646
20
2.2491
0
VERTEX
8
cabin top
10
0.9778
20
2.2491
0
VERTEX
8
cabin top
10
0.7214
20
2.2491
0
VERTEX
8
cabin top
10
0.5055
20
2.2491
0
VERTEX
8
cabin top
10
0.3201
20
2.2491
0
VERTEX
8
cabin top
10
0.155
20
2.2491
0
VERTEX
8
cabin top
10
0.0
20
2.2491
0
VERTEX
8
cabin top
10
0.0736
20
2.1758
0
VERTEX
8
cabin top
10
0.1476
20
2.1063
0
VERTEX
8
cabin top
10
0.2226
20
2.044
0
VERTEX
8
cabin top
10
0.2992
20
1.9928
0
VERTEX
8
cabin top
10
0.3776
20
1.9563
0
VERTEX
8
cabin top
10
0.4723
20
1.9312
0
VERTEX
8
cabin top
10
0.5975
20
1.9144
0
VERTEX
8
cabin top
10
0.7673
20
1.9026
0
SEQEND
0
POLYLINE
8
cabin top
62
94
66
1
0
VERTEX
8
cabin top
10
0.7673
20
2.5955
0
VERTEX
8
cabin top
10
0.9962
20
2.6055
0
VERTEX
8
cabin top
10
1.2692
20
2.614
0
VERTEX
8
cabin top
10
1.5717
20
2.6216
0
VERTEX
8
cabin top
10
1.889
20
2.6288
0
VERTEX
8
cabin top
10
1.889
20
2.5339
0
VERTEX
8
cabin top
10
1.889
20
2.439
0
VERTEX
8
cabin top
10
1.889
20
2.344
0
VERTEX
8
cabin top
10
1.889
20
2.2491
0
VERTEX
8
cabin top
10
1.5717
20
2.2491
0
VERTEX
8
cabin top
10
1.2646
20
2.2491
0
VERTEX
8
cabin top
10
0.9778
20
2.2491
0
VERTEX
8
cabin top
10
0.7214
20
2.2491
0
VERTEX
8
cabin top
10
0.5055
20
2.2491
0
VERTEX
8
cabin top
10
0.3201
20
2.2491
0
VERTEX
8
cabin top
10
0.155
20
2.2491
0
VERTEX
8
cabin top
10
0.0
20
2.2491
0
VERTEX
8
cabin top
10
0.0736
20
2.3223
0
VERTEX
8
cabin top
10
0.1476
20
2.3919
0
VERTEX
8
cabin top
10
0.2226
20
2.4542
0
VERTEX
8
cabin top
10
0.2992
20
2.5054
0
VERTEX
8
cabin top
10
0.3776
20
2.5419
0
VERTEX
8
cabin top
10
0.4723
20
2.567
0
VERTEX
8
cabin top
10
0.5975
20
2.5838
0
VERTEX
8
cabin top
10
0.7673
20
2.5955
0
SEQEND
0
POLYLINE
8
Bottom
62
94
66
1
0
VERTEX
8
Bottom
10
7.0037
20
-1.9881
0
VERTEX
8
Bottom
10
7.0038
20
-2.0381
0
VERTEX
8
Bottom
10
6.6757
20
-2.039
0
VERTEX
8
Bottom
10
6.3479
20
-2.0399
0
VERTEX
8
Bottom
10
6.0208
20
-2.0408
0
VERTEX
8
Bottom
10
5.6949
20
-2.0417
0
VERTEX
8
Bottom
10
5.3704
20
-2.0426
0
VERTEX
8
Bottom
10
5.0474
20
-2.0435
0
VERTEX
8
Bottom
10
4.7258
20
-2.0444
0
VERTEX
8
Bottom
10
4.4056
20
-2.0453
0
VERTEX
8
Bottom
10
4.0869
20
-2.0461
0
VERTEX
8
Bottom
10
3.7793
20
-2.047
0
VERTEX
8
Bottom
10
3.4926
20
-2.0478
0
VERTEX
8
Bottom
10
3.2365
20
-2.0485
0
VERTEX
8
Bottom
10
3.0208
20
-2.0491
0
VERTEX
8
Bottom
10
2.8354
20
-2.0496
0
VERTEX
8
Bottom
10
2.6701
20
-2.05
0
VERTEX
8
Bottom
10
2.515
20
-2.0505
0
VERTEX
8
Bottom
10
2.3599
20
-2.0509
0
VERTEX
8
Bottom
10
2.1848
20
-2.0514
0
VERTEX
8
Bottom
10
1.97
20
-2.052
0
VERTEX
8
Bottom
10
1.6955
20
-2.0527
0
VERTEX
8
Bottom
10
1.3414
20
-2.0537
0
VERTEX
8
Bottom
10
0.9274
20
-2.0548
0
VERTEX
8
Bottom
10
0.4737
20
-2.0561
0
VERTEX
8
Bottom
10
0.0
20
-2.0574
0
VERTEX
8
Bottom
10
0.0
20
-2.0574
0
VERTEX
8
Bottom
10
0.0
20
-2.0574
0
VERTEX
8
Bottom
10
0.0
20
-2.0574
0
VERTEX
8
Bottom
10
0.0
20
-2.0574
0
VERTEX
8
Bottom
10
0.4736
20
-2.0208
0
VERTEX
8
Bottom
10
0.9273
20
-1.9859
0
VERTEX
8
Bottom
10
1.3411
20
-1.9543
0
VERTEX
8
Bottom
10
1.6952
20
-1.9276
0
VERTEX
8
Bottom
10
1.9696
20
-1.9075
0
VERTEX
8
Bottom
10
2.1844
20
-1.8924
0
VERTEX
8
Bottom
10
2.3594
20
-1.8805
0
VERTEX
8
Bottom
10
2.5145
20
-1.8703
0
VERTEX
8
Bottom
10
2.6696
20
-1.8601
0
VERTEX
8
Bottom
10
2.8348
20
-1.8501
0
VERTEX
8
Bottom
10
3.0202
20
-1.8406
0
VERTEX
8
Bottom
10
3.2359
20
-1.8319
0
VERTEX
8
Bottom
10
3.492
20
-1.8241
0
VERTEX
8
Bottom
10
3.7786
20
-1.8175
0
VERTEX
8
Bottom
10
4.0862
20
-1.8127
0
VERTEX
8
Bottom
10
4.405
20
-1.8097
0
VERTEX
8
Bottom
10
4.7251
20
-1.8091
0
VERTEX
8
Bottom
10
5.0416
20
-1.8102
0
VERTEX
8
Bottom
10
5.3493
20
-1.8127
0
VERTEX
8
Bottom
10
5.643
20
-1.816
0
VERTEX
8
Bottom
10
5.9177
20
-1.8198
0
VERTEX
8
Bottom
10
6.1678
20
-1.8236
0
VERTEX
8
Bottom
10
6.3879
20
-1.8273
0
VERTEX
8
Bottom
10
6.5725
20
-1.8305
0
VERTEX
8
Bottom
10
6.7161
20
-1.833
0
VERTEX
8
Bottom
10
6.8289
20
-1.8349
0
VERTEX
8
Bottom
10
6.9212
20
-1.8366
0
VERTEX
8
Bottom
10
7.0033
20
-1.838
0
VERTEX
8
Bottom
10
7.0034
20
-1.888
0
VERTEX
8
Bottom
10
7.0035
20
-1.938
0
VERTEX
8
Bottom
10
7.0037
20
-1.9881
0
SEQEND
0
POLYLINE
8
Bottom
62
94
66
1
0
VERTEX
8
Bottom
10
7.0037
20
2.983
0
VERTEX
8
Bottom
10
7.0038
20
3.0331
0
VERTEX
8
Bottom
10
6.6757
20
3.034
0
VERTEX
8
Bottom
10
6.3479
20
3.0349
0
VERTEX
8
Bottom
10
6.0208
20
3.0358
0
VERTEX
8
Bottom
10
5.6949
20
3.0367
0
VERTEX
8
Bottom
10
5.3704
20
3.0376
0
VERTEX
8
Bottom
10
5.0474
20
3.0385
0
VERTEX
8
Bottom
10
4.7258
20
3.0393
0
VERTEX
8
Bottom
10
4.4056
20
3.0402
0
VERTEX
8
Bottom
10
4.0869
20
3.0411
0
VERTEX
8
Bottom
10
3.7793
20
3.0419
0
VERTEX
8
Bottom
10
3.4926
20
3.0427
0
VERTEX
8
Bottom
10
3.2365
20
3.0434
0
VERTEX
8
Bottom
10
3.0208
20
3.044
0
VERTEX
8
Bottom
10
2.8354
20
3.0446
0
VERTEX
8
Bottom
10
2.6701
20
3.045
0
VERTEX
8
Bottom
10
2.515
20
3.0454
0
VERTEX
8
Bottom
10
2.3599
20
3.0459
0
VERTEX
8
Bottom
10
2.1848
20
3.0463
0
VERTEX
8
Bottom
10
1.97
20
3.0469
0
VERTEX
8
Bottom
10
1.6955
20
3.0477
0
VERTEX
8
Bottom
10
1.3414
20
3.0487
0
VERTEX
8
Bottom
10
0.9274
20
3.0498
0
VERTEX
8
Bottom
10
0.4737
20
3.051
0
VERTEX
8
Bottom
10
0.0
20
3.0524
0
VERTEX
8
Bottom
10
0.0
20
3.0524
0
VERTEX
8
Bottom
10
0.0
20
3.0524
0
VERTEX
8
Bottom
10
0.0
20
3.0524
0
VERTEX
8
Bottom
10
0.0
20
3.0524
0
VERTEX
8
Bottom
10
0.4736
20
3.0158
0
VERTEX
8
Bottom
10
0.9273
20
2.9809
0
VERTEX
8
Bottom
10
1.3411
20
2.9493
0
VERTEX
8
Bottom
10
1.6952
20
2.9226
0
VERTEX
8
Bottom
10
1.9696
20
2.9025
0
VERTEX
8
Bottom
10
2.1844
20
2.8874
0
VERTEX
8
Bottom
10
2.3594
20
2.8755
0
VERTEX
8
Bottom
10
2.5145
20
2.8653
0
VERTEX
8
Bottom
10
2.6696
20
2.8551
0
VERTEX
8
Bottom
10
2.8348
20
2.8451
0
VERTEX
8
Bottom
10
3.0202
20
2.8356
0
VERTEX
8
Bottom
10
3.2359
20
2.8268
0
VERTEX
8
Bottom
10
3.492
20
2.819
0
VERTEX
8
Bottom
10
3.7786
20
2.8125
0
VERTEX
8
Bottom
10
4.0862
20
2.8076
0
VERTEX
8
Bottom
10
4.405
20
2.8047
0
VERTEX
8
Bottom
10
4.7251
20
2.804
0
VERTEX
8
Bottom
10
5.0416
20
2.8052
0
VERTEX
8
Bottom
10
5.3493
20
2.8077
0
VERTEX
8
Bottom
10
5.643
20
2.811
0
VERTEX
8
Bottom
10
5.9177
20
2.8147
0
VERTEX
8
Bottom
10
6.1678
20
2.8186
0
VERTEX
8
Bottom
10
6.3879
20
2.8222
0
VERTEX
8
Bottom
10
6.5725
20
2.8254
0
VERTEX
8
Bottom
10
6.7161
20
2.8279
0
VERTEX
8
Bottom
10
6.8289
20
2.8299
0
VERTEX
8
Bottom
10
6.9212
20
2.8315
0
VERTEX
8
Bottom
10
7.0033
20
2.833
0
VERTEX
8
Bottom
10
7.0034
20
2.883
0
VERTEX
8
Bottom
10
7.0035
20
2.933
0
VERTEX
8
Bottom
10
7.0037
20
2.983
0
SEQEND
0
POLYLINE
8
side
62
94
66
1
0
VERTEX
8
side
10
4.761
20
-2.2408
0
VERTEX
8
side
10
5.0779
20
-2.2494
0
VERTEX
8
side
10
5.386
20
-2.2612
0
VERTEX
8
side
10
5.6801
20
-2.2749
0
VERTEX
8
side
10
5.9552
20
-2.2892
0
VERTEX
8
side
10
6.216
20
-2.3025
0
VERTEX
8
side
10
6.4675
20
-2.313
0
VERTEX
8
side
10
6.7144
20
-2.3194
0
VERTEX
8
side
10
6.8102
20
-2.3333
0
VERTEX
8
side
10
6.9081
20
-2.3426
0
VERTEX
8
side
10
7.0038
20
-2.3483
0
VERTEX
8
side
10
7.0896
20
-2.3534
0
VERTEX
8
side
10
7.0831
20
-2.4528
0
VERTEX
8
side
10
7.0768
20
-2.5523
0
VERTEX
8
side
10
7.0705
20
-2.6517
0
VERTEX
8
side
10
7.0644
20
-2.7512
0
VERTEX
8
side
10
7.0636
20
-2.8363
0
VERTEX
8
side
10
7.0628
20
-2.9214
0
VERTEX
8
side
10
7.062
20
-3.0066
0
VERTEX
8
side
10
7.0612
20
-3.0917
0
VERTEX
8
side
10
7.0604
20
-3.1526
0
VERTEX
8
side
10
7.0596
20
-3.2135
0
VERTEX
8
side
10
7.0588
20
-3.2744
0
VERTEX
8
side
10
7.0579
20
-3.3353
0
VERTEX
8
side
10
6.9759
20
-3.3334
0
VERTEX
8
side
10
6.8836
20
-3.3311
0
VERTEX
8
side
10
6.7708
20
-3.3284
0
VERTEX
8
side
10
6.6273
20
-3.3249
0
VERTEX
8
side
10
6.4427
20
-3.3204
0
VERTEX
8
side
10
6.2226
20
-3.3152
0
VERTEX
8
side
10
5.9725
20
-3.3096
0
VERTEX
8
side
10
5.6978
20
-3.3037
0
VERTEX
8
side
10
5.4042
20
-3.2979
0
VERTEX
8
side
10
5.0965
20
-3.2925
0
VERTEX
8
side
10
4.7801
20
-3.2881
0
VERTEX
8
side
10
4.46
20
-3.2849
0
VERTEX
8
side
10
4.1412
20
-3.2834
0
VERTEX
8
side
10
3.8336
20
-3.2835
0
VERTEX
8
side
10
3.5468
20
-3.2849
0
VERTEX
8
side
10
3.2907
20
-3.2876
0
VERTEX
8
side
10
3.0748
20
-3.2914
0
VERTEX
8
side
10
2.8893
20
-3.296
0
VERTEX
8
side
10
2.7238
20
-3.3011
0
VERTEX
8
side
10
2.5685
20
-3.3065
0
VERTEX
8
side
10
2.4131
20
-3.3119
0
VERTEX
8
side
10
2.2378
20
-3.3169
0
VERTEX
8
side
10
2.0225
20
-3.3214
0
VERTEX
8
side
10
1.7474
20
-3.3249
0
VERTEX
8
side
10
1.3923
20
-3.3272
0
VERTEX
8
side
10
0.9773
20
-3.3287
0
VERTEX
8
side
10
0.5222
20
-3.3301
0
VERTEX
8
side
10
0.0472
20
-3.3321
0
VERTEX
8
side
10
0.044
20
-3.2746
0
VERTEX
8
side
10
0.0405
20
-3.2172
0
VERTEX
8
side
10
0.0369
20
-3.1597
0
VERTEX
8
side
10
0.0332
20
-3.1023
0
VERTEX
8
side
10
0.0293
20
-3.0453
0
VERTEX
8
side
10
0.0254
20
-2.9883
0
VERTEX
8
side
10
0.0214
20
-2.9313
0
VERTEX
8
side
10
0.0173
20
-2.8743
0
VERTEX
8
side
10
0.013
20
-2.8141
0
VERTEX
8
side
10
0.0087
20
-2.754
0
VERTEX
8
side
10
0.0043
20
-2.6938
0
VERTEX
8
side
10
0.0
20
-2.6337
0
VERTEX
8
side
10
0.4852
20
-2.5988
0
VERTEX
8
side
10
0.9488
20
-2.5538
0
VERTEX
8
side
10
1.3707
20
-2.5045
0
VERTEX
8
side
10
1.7307
20
-2.4578
0
VERTEX
8
side
10
2.0091
20
-2.4205
0
VERTEX
8
side
10
2.2264
20
-2.3917
0
VERTEX
8
side
10
2.4031
20
-2.3688
0
VERTEX
8
side
10
2.5595
20
-2.3489
0
VERTEX
8
side
10
2.7113
20
-2.3282
0
VERTEX
8
side
10
2.8739
20
-2.3078
0
VERTEX
8
side
10
3.0584
20
-2.2883
0
VERTEX
8
side
10
3.2687
20
-2.271
0
VERTEX
8
side
10
3.5254
20
-2.2562
0
VERTEX
8
side
10
3.8128
20
-2.2451
0
VERTEX
8
side
10
4.121
20
-2.2384
0
VERTEX
8
side
10
4.4404
20
-2.2368
0
VERTEX
8
side
10
4.761
20
-2.2408
0
SEQEND
0
POLYLINE
8
side
62
94
66
1
0
VERTEX
8
side
10
4.761
20
3.2358
0
VERTEX
8
side
10
5.0779
20
3.2444
0
VERTEX
8
side
10
5.386
20
3.2562
0
VERTEX
8
side
10
5.6801
20
3.2699
0
VERTEX
8
side
10
5.9552
20
3.2842
0
VERTEX
8
side
10
6.216
20
3.2974
0
VERTEX
8
side
10
6.4675
20
3.308
0
VERTEX
8
side
10
6.7144
20
3.3143
0
VERTEX
8
side
10
6.8102
20
3.3283
0
VERTEX
8
side
10
6.9081
20
3.3376
0
VERTEX
8
side
10
7.0038
20
3.3433
0
VERTEX
8
side
10
7.0896
20
3.3484
0
VERTEX
8
side
10
7.0831
20
3.4478
0
VERTEX
8
side
10
7.0768
20
3.5472
0
VERTEX
8
side
10
7.0705
20
3.6467
0
VERTEX
8
side
10
7.0644
20
3.7462
0
VERTEX
8
side
10
7.0636
20
3.8313
0
VERTEX
8
side
10
7.0628
20
3.9164
0
VERTEX
8
side
10
7.062
20
4.0015
0
VERTEX
8
side
10
7.0612
20
4.0866
0
VERTEX
8
side
10
7.0604
20
4.1476
0
VERTEX
8
side
10
7.0596
20
4.2085
0
VERTEX
8
side
10
7.0588
20
4.2694
0
VERTEX
8
side
10
7.0579
20
4.3303
0
VERTEX
8
side
10
6.9759
20
4.3283
0
VERTEX
8
side
10
6.8836
20
4.3261
0
VERTEX
8
side
10
6.7708
20
4.3234
0
VERTEX
8
side
10
6.6273
20
4.3199
0
VERTEX
8
side
10
6.4427
20
4.3154
0
VERTEX
8
side
10
6.2226
20
4.3102
0
VERTEX
8
side
10
5.9725
20
4.3045
0
VERTEX
8
side
10
5.6978
20
4.2986
0
VERTEX
8
side
10
5.4042
20
4.2928
0
VERTEX
8
side
10
5.0965
20
4.2875
0
VERTEX
8
side
10
4.7801
20
4.283
0
VERTEX
8
side
10
4.46
20
4.2799
0
VERTEX
8
side
10
4.1412
20
4.2784
0
VERTEX
8
side
10
3.8336
20
4.2784
0
VERTEX
8
side
10
3.5468
20
4.2799
0
VERTEX
8
side
10
3.2907
20
4.2826
0
VERTEX
8
side
10
3.0748
20
4.2864
0
VERTEX
8
side
10
2.8893
20
4.291
0
VERTEX
8
side
10
2.7238
20
4.2961
0
VERTEX
8
side
10
2.5685
20
4.3015
0
VERTEX
8
side
10
2.4131
20
4.3068
0
VERTEX
8
side
10
2.2378
20
4.3119
0
VERTEX
8
side
10
2.0225
20
4.3164
0
VERTEX
8
side
10
1.7474
20
4.3199
0
VERTEX
8
side
10
1.3923
20
4.3221
0
VERTEX
8
side
10
0.9773
20
4.3236
0
VERTEX
8
side
10
0.5222
20
4.3251
0
VERTEX
8
side
10
0.0472
20
4.3271
0
VERTEX
8
side
10
0.044
20
4.2696
0
VERTEX
8
side
10
0.0405
20
4.2122
0
VERTEX
8
side
10
0.0369
20
4.1547
0
VERTEX
8
side
10
0.0332
20
4.0973
0
VERTEX
8
side
10
0.0293
20
4.0403
0
VERTEX
8
side
10
0.0254
20
3.9833
0
VERTEX
8
side
10
0.0214
20
3.9262
0
VERTEX
8
side
10
0.0173
20
3.8692
0
VERTEX
8
side
10
0.013
20
3.8091
0
VERTEX
8
side
10
0.0087
20
3.749
0
VERTEX
8
side
10
0.0043
20
3.6888
0
VERTEX
8
side
10
0.0
20
3.6287
0
VERTEX
8
side
10
0.4852
20
3.5938
0
VERTEX
8
side
10
0.9488
20
3.5488
0
VERTEX
8
side
10
1.3707
20
3.4995
0
VERTEX
8
side
10
1.7307
20
3.4528
0
VERTEX
8
side
10
2.0091
20
3.4155
0
VERTEX
8
side
10
2.2264
20
3.3866
0
VERTEX
8
side
10
2.4031
20
3.3638
0
VERTEX
8
side
10
2.5595
20
3.3438
0
VERTEX
8
side
10
2.7113
20
3.3232
0
VERTEX
8
side
10
2.8739
20
3.3027
0
VERTEX
8
side
10
3.0584
20
3.2833
0
VERTEX
8
side
10
3.2687
20
3.266
0
VERTEX
8
side
10
3.5254
20
3.2512
0
VERTEX
8
side
10
3.8128
20
3.2401
0
VERTEX
8
side
10
4.121
20
3.2334
0
VERTEX
8
side
10
4.4404
20
3.2317
0
VERTEX
8
side
10
4.761
20
3.2358
0
SEQEND
0
POLYLINE
8
cabin side
62
94
66
1
0
VERTEX
8
cabin side
10
0.1546
20
-3.6445
0
VERTEX
8
cabin side
10
0.0773
20
-3.7689
0
VERTEX
8
cabin side
10
0.0
20
-3.8934
0
VERTEX
8
cabin side
10
0.185
20
-3.9163
0
VERTEX
8
cabin side
10
0.3632
20
-3.9376
0
VERTEX
8
cabin side
10
0.5277
20
-3.956
0
VERTEX
8
cabin side
10
0.672
20
-3.9701
0
VERTEX
8
cabin side
10
0.7902
20
-3.9785
0
VERTEX
8
cabin side
10
0.9038
20
-3.9819
0
VERTEX
8
cabin side
10
1.0351
20
-3.9807
0
VERTEX
8
cabin side
10
1.2053
20
-3.9755
0
VERTEX
8
cabin side
10
1.4342
20
-3.9667
0
VERTEX
8
cabin side
10
1.7071
20
-3.9552
0
VERTEX
8
cabin side
10
2.0095
20
-3.942
0
VERTEX
8
cabin side
10
2.3265
20
-3.928
0
VERTEX
8
cabin side
10
2.3199
20
-3.7976
0
VERTEX
8
cabin side
10
2.3134
20
-3.6673
0
VERTEX
8
cabin side
10
2.3072
20
-3.5369
0
VERTEX
8
cabin side
10
2.3015
20
-3.4065
0
VERTEX
8
cabin side
10
1.9844
20
-3.4206
0
VERTEX
8
cabin side
10
1.6821
20
-3.4338
0
VERTEX
8
cabin side
10
1.4092
20
-3.4452
0
VERTEX
8
cabin side
10
1.1803
20
-3.454
0
VERTEX
8
cabin side
10
1.0101
20
-3.4593
0
VERTEX
8
cabin side
10
0.8838
20
-3.4609
0
VERTEX
8
cabin side
10
0.7859
20
-3.4588
0
VERTEX
8
cabin side
10
0.6996
20
-3.4528
0
VERTEX
8
cabin side
10
0.608
20
-3.4429
0
VERTEX
8
cabin side
10
0.5115
20
-3.4295
0
VERTEX
8
cabin side
10
0.4111
20
-3.4134
0
VERTEX
8
cabin side
10
0.3089
20
-3.3953
0
VERTEX
8
cabin side
10
0.2318
20
-3.5199
0
VERTEX
8
cabin side
10
0.1546
20
-3.6445
0
SEQEND
0
POLYLINE
8
deck aft
62
94
66
1
0
VERTEX
8
deck aft
10
1.113
20
-0.017
0
VERTEX
8
deck aft
10
1.2691
20
-0.0167
0
VERTEX
8
deck aft
10
1.2746
20
-0.0988
0
VERTEX
8
deck aft
10
1.2801
20
-0.1809
0
VERTEX
8
deck aft
10
1.2856
20
-0.2631
0
VERTEX
8
deck aft
10
1.2911
20
-0.3452
0
VERTEX
8
deck aft
10
1.2411
20
-0.3453
0
VERTEX
8
deck aft
10
1.1912
20
-0.3454
0
VERTEX
8
deck aft
10
1.1412
20
-0.3456
0
VERTEX
8
deck aft
10
1.0912
20
-0.3457
0
VERTEX
8
deck aft
10
0.9798
20
-0.3459
0
VERTEX
8
deck aft
10
0.8684
20
-0.3462
0
VERTEX
8
deck aft
10
0.757
20
-0.3465
0
VERTEX
8
deck aft
10
0.6456
20
-0.3467
0
VERTEX
8
deck aft
10
0.6454
20
-0.2646
0
VERTEX
8
deck aft
10
0.6452
20
-0.1824
0
VERTEX
8
deck aft
10
0.645
20
-0.1003
0
VERTEX
8
deck aft
10
0.6448
20
-0.0181
0
VERTEX
8
deck aft
10
0.8009
20
-0.0178
0
VERTEX
8
deck aft
10
0.9569
20
-0.0174
0
VERTEX
8
deck aft
10
1.113
20
-0.017
0
SEQEND
0
POLYLINE
8
deck aft
62
94
66
1
0
VERTEX
8
deck aft
10
0.1766
20
-0.0192
0
VERTEX
8
deck aft
10
0.0205
20
-0.0196
0
VERTEX
8
deck aft
10
0.0154
20
-0.1017
0
VERTEX
8
deck aft
10
0.0103
20
-0.1839
0
VERTEX
8
deck aft
10
0.0051
20
-0.2661
0
VERTEX
8
deck aft
10
0.0
20
-0.3482
0
VERTEX
8
deck aft
10
0.05
20
-0.3481
0
VERTEX
8
deck aft
10
0.10
20
-0.348
0
VERTEX
8
deck aft
10
0.15
20
-0.3479
0
VERTEX
8
deck aft
10
0.20
20
-0.3478
0
VERTEX
8
deck aft
10
0.3114
20
-0.3475
0
VERTEX
8
deck aft
10
0.4228
20
-0.3472
0
VERTEX
8
deck aft
10
0.5342
20
-0.347
0
VERTEX
8
deck aft
10
0.6456
20
-0.3467
0
VERTEX
8
deck aft
10
0.6454
20
-0.2646
0
VERTEX
8
deck aft
10
0.6452
20
-0.1824
0
VERTEX
8
deck aft
10
0.645
20
-0.1003
0
VERTEX
8
deck aft
10
0.6448
20
-0.0181
0
VERTEX
8
deck aft
10
0.4887
20
-0.0185
0
VERTEX
8
deck aft
10
0.3327
20
-0.0188
0
VERTEX
8
deck aft
10
0.1766
20
-0.0192
0
SEQEND
0
POLYLINE
8
cabin side
62
94
66
1
0
VERTEX
8
cabin side
10
0.1546
20
4.6394
0
VERTEX
8
cabin side
10
0.0773
20
4.7639
0
VERTEX
8
cabin side
10
0.0
20
4.8883
0
VERTEX
8
cabin side
10
0.185
20
4.9113
0
VERTEX
8
cabin side
10
0.3632
20
4.9326
0
VERTEX
8
cabin side
10
0.5277
20
4.951
0
VERTEX
8
cabin side
10
0.672
20
4.965
0
VERTEX
8
cabin side
10
0.7902
20
4.9735
0
VERTEX
8
cabin side
10
0.9038
20
4.9769
0
VERTEX
8
cabin side
10
1.0351
20
4.9757
0
VERTEX
8
cabin side
10
1.2053
20
4.9704
0
VERTEX
8
cabin side
10
1.4342
20
4.9616
0
VERTEX
8
cabin side
10
1.7071
20
4.9502
0
VERTEX
8
cabin side
10
2.0095
20
4.937
0
VERTEX
8
cabin side
10
2.3265
20
4.9229
0
VERTEX
8
cabin side
10
2.3199
20
4.7926
0
VERTEX
8
cabin side
10
2.3134
20
4.6622
0
VERTEX
8
cabin side
10
2.3072
20
4.5319
0
VERTEX
8
cabin side
10
2.3015
20
4.4015
0
VERTEX
8
cabin side
10
1.9844
20
4.4156
0
VERTEX
8
cabin side
10
1.6821
20
4.4288
0
VERTEX
8
cabin side
10
1.4092
20
4.4402
0
VERTEX
8
cabin side
10
1.1803
20
4.449
0
VERTEX
8
cabin side
10
1.0101
20
4.4543
0
VERTEX
8
cabin side
10
0.8838
20
4.4559
0
VERTEX
8
cabin side
10
0.7859
20
4.4537
0
VERTEX
8
cabin side
10
0.6996
20
4.4478
0
VERTEX
8
cabin side
10
0.608
20
4.4378
0
VERTEX
8
cabin side
10
0.5115
20
4.4245
0
VERTEX
8
cabin side
10
0.4111
20
4.4084
0
VERTEX
8
cabin side
10
0.3089
20
4.3903
0
VERTEX
8
cabin side
10
0.2318
20
4.5149
0
VERTEX
8
cabin side
10
0.1546
20
4.6394
0
SEQEND
0
ENDSEC
0
EOF
