0
SECTION
2
ENTITIES
0
POLYLINE
8
cabin top
62
94
66
1
0
VERTEX
8
cabin top
10
0.3185
20
0.338
0
VERTEX
8
cabin top
10
0.4993
20
0.338
0
VERTEX
8
cabin top
10
0.7057
20
0.338
0
VERTEX
8
cabin top
10
0.9465
20
0.338
0
VERTEX
8
cabin top
10
1.213
20
0.338
0
VERTEX
8
cabin top
10
1.4967
20
0.338
0
VERTEX
8
cabin top
10
1.789
20
0.338
0
VERTEX
8
cabin top
10
1.789
20
0.2431
0
VERTEX
8
cabin top
10
1.789
20
0.1482
0
VERTEX
8
cabin top
10
1.789
20
0.0532
0
VERTEX
8
cabin top
10
1.789
20
-0.0417
0
VERTEX
8
cabin top
10
1.4967
20
-0.0345
0
VERTEX
8
cabin top
10
1.2176
20
-0.0269
0
VERTEX
8
cabin top
10
0.9649
20
-0.0183
0
VERTEX
8
cabin top
10
0.7517
20
-0.0084
0
VERTEX
8
cabin top
10
0.5912
20
0.0033
0
VERTEX
8
cabin top
10
0.4708
20
0.0201
0
VERTEX
8
cabin top
10
0.3776
20
0.0452
0
VERTEX
8
cabin top
10
0.2992
20
0.0817
0
VERTEX
8
cabin top
10
0.2226
20
0.133
0
VERTEX
8
cabin top
10
0.1476
20
0.1952
0
VERTEX
8
cabin top
10
0.0736
20
0.2648
0
VERTEX
8
cabin top
10
0.0
20
0.338
0
VERTEX
8
cabin top
10
0.155
20
0.338
0
VERTEX
8
cabin top
10
0.3185
20
0.338
0
SEQEND
0
POLYLINE
8
cabin top
62
94
66
1
0
VERTEX
8
cabin top
10
0.3185
20
0.338
0
VERTEX
8
cabin top
10
0.4993
20
0.338
0
VERTEX
8
cabin top
10
0.7057
20
0.338
0
VERTEX
8
cabin top
10
0.9465
20
0.338
0
VERTEX
8
cabin top
10
1.213
20
0.338
0
VERTEX
8
cabin top
10
1.4967
20
0.338
0
VERTEX
8
cabin top
10
1.789
20
0.338
0
VERTEX
8
cabin top
10
1.789
20
0.433
0
VERTEX
8
cabin top
10
1.789
20
0.5279
0
VERTEX
8
cabin top
10
1.789
20
0.6228
0
VERTEX
8
cabin top
10
1.789
20
0.7178
0
VERTEX
8
cabin top
10
1.4967
20
0.7106
0
VERTEX
8
cabin top
10
1.2176
20
0.7029
0
VERTEX
8
cabin top
10
0.9649
20
0.6944
0
VERTEX
8
cabin top
10
0.7517
20
0.6845
0
VERTEX
8
cabin top
10
0.5912
20
0.6727
0
VERTEX
8
cabin top
10
0.4708
20
0.6559
0
VERTEX
8
cabin top
10
0.3776
20
0.6308
0
VERTEX
8
cabin top
10
0.2992
20
0.5943
0
VERTEX
8
cabin top
10
0.2226
20
0.5431
0
VERTEX
8
cabin top
10
0.1476
20
0.4809
0
VERTEX
8
cabin top
10
0.0736
20
0.4113
0
VERTEX
8
cabin top
10
0.0
20
0.338
0
VERTEX
8
cabin top
10
0.155
20
0.338
0
VERTEX
8
cabin top
10
0.3185
20
0.338
0
SEQEND
0
POLYLINE
8
Bottom
62
94
66
1
0
VERTEX
8
Bottom
10
1.3414
20
-2.1699
0
VERTEX
8
Bottom
10
1.6955
20
-2.169
0
VERTEX
8
Bottom
10
1.97
20
-2.1682
0
VERTEX
8
Bottom
10
2.1848
20
-2.1676
0
VERTEX
8
Bottom
10
2.3599
20
-2.1671
0
VERTEX
8
Bottom
10
2.515
20
-2.1667
0
VERTEX
8
Bottom
10
2.6701
20
-2.1663
0
VERTEX
8
Bottom
10
2.8354
20
-2.1658
0
VERTEX
8
Bottom
10
3.0208
20
-2.1653
0
VERTEX
8
Bottom
10
3.2365
20
-2.1647
0
VERTEX
8
Bottom
10
3.4926
20
-2.164
0
VERTEX
8
Bottom
10
3.7793
20
-2.1633
0
VERTEX
8
Bottom
10
4.0869
20
-2.1624
0
VERTEX
8
Bottom
10
4.4056
20
-2.1615
0
VERTEX
8
Bottom
10
4.7258
20
-2.1607
0
VERTEX
8
Bottom
10
5.0474
20
-2.1598
0
VERTEX
8
Bottom
10
5.3705
20
-2.1589
0
VERTEX
8
Bottom
10
5.695
20
-2.158
0
VERTEX
8
Bottom
10
6.0211
20
-2.1571
0
VERTEX
8
Bottom
10
6.3483
20
-2.1562
0
VERTEX
8
Bottom
10
6.6763
20
-2.1553
0
VERTEX
8
Bottom
10
7.0047
20
-2.1544
0
VERTEX
8
Bottom
10
7.0045
20
-2.1044
0
VERTEX
8
Bottom
10
7.0044
20
-2.0544
0
VERTEX
8
Bottom
10
7.0043
20
-2.0043
0
VERTEX
8
Bottom
10
7.0041
20
-1.9543
0
VERTEX
8
Bottom
10
6.9219
20
-1.9529
0
VERTEX
8
Bottom
10
6.8294
20
-1.9513
0
VERTEX
8
Bottom
10
6.7164
20
-1.9493
0
VERTEX
8
Bottom
10
6.5727
20
-1.9468
0
VERTEX
8
Bottom
10
6.388
20
-1.9436
0
VERTEX
8
Bottom
10
6.1678
20
-1.9399
0
VERTEX
8
Bottom
10
5.9177
20
-1.9361
0
VERTEX
8
Bottom
10
5.643
20
-1.9323
0
VERTEX
8
Bottom
10
5.3493
20
-1.929
0
VERTEX
8
Bottom
10
5.0416
20
-1.9265
0
VERTEX
8
Bottom
10
4.7251
20
-1.9253
0
VERTEX
8
Bottom
10
4.405
20
-1.926
0
VERTEX
8
Bottom
10
4.0862
20
-1.9289
0
VERTEX
8
Bottom
10
3.7786
20
-1.9338
0
VERTEX
8
Bottom
10
3.492
20
-1.9403
0
VERTEX
8
Bottom
10
3.2359
20
-1.9481
0
VERTEX
8
Bottom
10
3.0202
20
-1.9569
0
VERTEX
8
Bottom
10
2.8348
20
-1.9664
0
VERTEX
8
Bottom
10
2.6696
20
-1.9764
0
VERTEX
8
Bottom
10
2.5145
20
-1.9866
0
VERTEX
8
Bottom
10
2.3594
20
-1.9968
0
VERTEX
8
Bottom
10
2.1844
20
-2.0086
0
VERTEX
8
Bottom
10
1.9696
20
-2.0238
0
VERTEX
8
Bottom
10
1.6952
20
-2.0439
0
VERTEX
8
Bottom
10
1.3411
20
-2.0705
0
VERTEX
8
Bottom
10
0.9273
20
-2.1021
0
VERTEX
8
Bottom
10
0.4736
20
-2.137
0
VERTEX
8
Bottom
10
0.0
20
-2.1736
0
VERTEX
8
Bottom
10
0.0
20
-2.1736
0
VERTEX
8
Bottom
10
0.0
20
-2.1736
0
VERTEX
8
Bottom
10
0.0
20
-2.1736
0
VERTEX
8
Bottom
10
0.0
20
-2.1736
0
VERTEX
8
Bottom
10
0.4737
20
-2.1723
0
VERTEX
8
Bottom
10
0.9274
20
-2.171
0
VERTEX
8
Bottom
10
1.3414
20
-2.1699
0
SEQEND
0
POLYLINE
8
Bottom
62
94
66
1
0
VERTEX
8
Bottom
10
1.3414
20
-2.1699
0
VERTEX
8
Bottom
10
1.6955
20
-2.1689
0
VERTEX
8
Bottom
10
1.97
20
-2.1682
0
VERTEX
8
Bottom
10
2.1848
20
-2.1676
0
VERTEX
8
Bottom
10
2.3599
20
-2.1671
0
VERTEX
8
Bottom
10
2.515
20
-2.1667
0
VERTEX
8
Bottom
10
2.6701
20
-2.1662
0
VERTEX
8
Bottom
10
2.8354
20
-2.1658
0
VERTEX
8
Bottom
10
3.0208
20
-2.1653
0
VERTEX
8
Bottom
10
3.2365
20
-2.1647
0
VERTEX
8
Bottom
10
3.4926
20
-2.164
0
VERTEX
8
Bottom
10
3.7793
20
-2.1632
0
VERTEX
8
Bottom
10
4.0869
20
-2.1624
0
VERTEX
8
Bottom
10
4.4056
20
-2.1615
0
VERTEX
8
Bottom
10
4.7258
20
-2.1606
0
VERTEX
8
Bottom
10
5.0474
20
-2.1597
0
VERTEX
8
Bottom
10
5.3705
20
-2.1589
0
VERTEX
8
Bottom
10
5.695
20
-2.158
0
VERTEX
8
Bottom
10
6.0211
20
-2.1571
0
VERTEX
8
Bottom
10
6.3483
20
-2.1562
0
VERTEX
8
Bottom
10
6.6763
20
-2.1553
0
VERTEX
8
Bottom
10
7.0047
20
-2.1544
0
VERTEX
8
Bottom
10
7.0048
20
-2.2044
0
VERTEX
8
Bottom
10
7.005
20
-2.2545
0
VERTEX
8
Bottom
10
7.0051
20
-2.3045
0
VERTEX
8
Bottom
10
7.0052
20
-2.3545
0
VERTEX
8
Bottom
10
6.923
20
-2.3564
0
VERTEX
8
Bottom
10
6.8305
20
-2.3585
0
VERTEX
8
Bottom
10
6.7175
20
-2.3611
0
VERTEX
8
Bottom
10
6.5738
20
-2.3644
0
VERTEX
8
Bottom
10
6.3892
20
-2.3686
0
VERTEX
8
Bottom
10
6.169
20
-2.3735
0
VERTEX
8
Bottom
10
5.9189
20
-2.3787
0
VERTEX
8
Bottom
10
5.6442
20
-2.3839
0
VERTEX
8
Bottom
10
5.3505
20
-2.3889
0
VERTEX
8
Bottom
10
5.0429
20
-2.3931
0
VERTEX
8
Bottom
10
4.7264
20
-2.3959
0
VERTEX
8
Bottom
10
4.4063
20
-2.397
0
VERTEX
8
Bottom
10
4.0875
20
-2.3958
0
VERTEX
8
Bottom
10
3.7799
20
-2.3926
0
VERTEX
8
Bottom
10
3.4932
20
-2.3877
0
VERTEX
8
Bottom
10
3.2371
20
-2.3813
0
VERTEX
8
Bottom
10
3.0214
20
-2.3737
0
VERTEX
8
Bottom
10
2.8359
20
-2.3652
0
VERTEX
8
Bottom
10
2.6707
20
-2.3562
0
VERTEX
8
Bottom
10
2.5155
20
-2.3468
0
VERTEX
8
Bottom
10
2.3603
20
-2.3374
0
VERTEX
8
Bottom
10
2.1853
20
-2.3266
0
VERTEX
8
Bottom
10
1.9704
20
-2.3126
0
VERTEX
8
Bottom
10
1.6959
20
-2.294
0
VERTEX
8
Bottom
10
1.3416
20
-2.2693
0
VERTEX
8
Bottom
10
0.9276
20
-2.2399
0
VERTEX
8
Bottom
10
0.4738
20
-2.2075
0
VERTEX
8
Bottom
10
0.0
20
-2.1736
0
VERTEX
8
Bottom
10
0.0
20
-2.1736
0
VERTEX
8
Bottom
10
0.0
20
-2.1736
0
VERTEX
8
Bottom
10
0.0
20
-2.1736
0
VERTEX
8
Bottom
10
0.0
20
-2.1736
0
VERTEX
8
Bottom
10
0.4737
20
-2.1723
0
VERTEX
8
Bottom
10
0.9274
20
-2.171
0
VERTEX
8
Bottom
10
1.3414
20
-2.1699
0
SEQEND
0
POLYLINE
8
stations
62
135
66
1
0
VERTEX
8
stations
10
4.5195
20
-2.1612
0
VERTEX
8
stations
10
4.5195
20
-2.1589
0
VERTEX
8
stations
10
4.5195
20
-2.1565
0
VERTEX
8
stations
10
4.5195
20
-2.1542
0
VERTEX
8
stations
10
4.5195
20
-2.1518
0
VERTEX
8
stations
10
4.5195
20
-2.1495
0
VERTEX
8
stations
10
4.5194
20
-2.1471
0
VERTEX
8
stations
10
4.5194
20
-2.1447
0
VERTEX
8
stations
10
4.5194
20
-2.1424
0
VERTEX
8
stations
10
4.5194
20
-2.14
0
VERTEX
8
stations
10
4.5194
20
-2.1377
0
VERTEX
8
stations
10
4.5194
20
-2.1353
0
VERTEX
8
stations
10
4.5194
20
-2.133
0
VERTEX
8
stations
10
4.5194
20
-2.1306
0
VERTEX
8
stations
10
4.5194
20
-2.1283
0
VERTEX
8
stations
10
4.5194
20
-2.1259
0
VERTEX
8
stations
10
4.5194
20
-2.1235
0
VERTEX
8
stations
10
4.5194
20
-2.1212
0
VERTEX
8
stations
10
4.5194
20
-2.1188
0
VERTEX
8
stations
10
4.5194
20
-2.1165
0
VERTEX
8
stations
10
4.5194
20
-2.1141
0
VERTEX
8
stations
10
4.5194
20
-2.1118
0
VERTEX
8
stations
10
4.5193
20
-2.1094
0
VERTEX
8
stations
10
4.5193
20
-2.1071
0
VERTEX
8
stations
10
4.5193
20
-2.1047
0
VERTEX
8
stations
10
4.5193
20
-2.1024
0
VERTEX
8
stations
10
4.5193
20
-2.1
0
VERTEX
8
stations
10
4.5193
20
-2.0976
0
VERTEX
8
stations
10
4.5193
20
-2.0953
0
VERTEX
8
stations
10
4.5193
20
-2.0929
0
VERTEX
8
stations
10
4.5193
20
-2.0906
0
VERTEX
8
stations
10
4.5193
20
-2.0882
0
VERTEX
8
stations
10
4.5193
20
-2.0859
0
VERTEX
8
stations
10
4.5193
20
-2.0835
0
VERTEX
8
stations
10
4.5193
20
-2.0812
0
VERTEX
8
stations
10
4.5193
20
-2.0788
0
VERTEX
8
stations
10
4.5193
20
-2.0765
0
VERTEX
8
stations
10
4.5192
20
-2.0741
0
VERTEX
8
stations
10
4.5192
20
-2.0717
0
VERTEX
8
stations
10
4.5192
20
-2.0694
0
VERTEX
8
stations
10
4.5192
20
-2.067
0
VERTEX
8
stations
10
4.5192
20
-2.0647
0
VERTEX
8
stations
10
4.5192
20
-2.0623
0
VERTEX
8
stations
10
4.5192
20
-2.06
0
VERTEX
8
stations
10
4.5192
20
-2.0576
0
VERTEX
8
stations
10
4.5192
20
-2.0553
0
VERTEX
8
stations
10
4.5192
20
-2.0529
0
VERTEX
8
stations
10
4.5192
20
-2.0506
0
VERTEX
8
stations
10
4.5192
20
-2.0482
0
VERTEX
8
stations
10
4.5192
20
-2.0458
0
VERTEX
8
stations
10
4.5192
20
-2.0435
0
VERTEX
8
stations
10
4.5192
20
-2.0411
0
VERTEX
8
stations
10
4.5192
20
-2.0388
0
VERTEX
8
stations
10
4.5191
20
-2.0364
0
VERTEX
8
stations
10
4.5191
20
-2.0341
0
VERTEX
8
stations
10
4.5191
20
-2.0317
0
VERTEX
8
stations
10
4.5191
20
-2.0294
0
VERTEX
8
stations
10
4.5191
20
-2.027
0
VERTEX
8
stations
10
4.5191
20
-2.0247
0
VERTEX
8
stations
10
4.5191
20
-2.0223
0
VERTEX
8
stations
10
4.5191
20
-2.0199
0
VERTEX
8
stations
10
4.5191
20
-2.0176
0
VERTEX
8
stations
10
4.5191
20
-2.0152
0
VERTEX
8
stations
10
4.5191
20
-2.0129
0
VERTEX
8
stations
10
4.5191
20
-2.0105
0
VERTEX
8
stations
10
4.5191
20
-2.0082
0
VERTEX
8
stations
10
4.5191
20
-2.0058
0
VERTEX
8
stations
10
4.5191
20
-2.0035
0
VERTEX
8
stations
10
4.519
20
-2.0011
0
VERTEX
8
stations
10
4.519
20
-1.9988
0
VERTEX
8
stations
10
4.519
20
-1.9964
0
VERTEX
8
stations
10
4.519
20
-1.994
0
VERTEX
8
stations
10
4.519
20
-1.9917
0
VERTEX
8
stations
10
4.519
20
-1.9893
0
VERTEX
8
stations
10
4.519
20
-1.987
0
VERTEX
8
stations
10
4.519
20
-1.9846
0
VERTEX
8
stations
10
4.519
20
-1.9823
0
VERTEX
8
stations
10
4.519
20
-1.9799
0
VERTEX
8
stations
10
4.519
20
-1.9776
0
VERTEX
8
stations
10
4.519
20
-1.9752
0
VERTEX
8
stations
10
4.519
20
-1.9729
0
VERTEX
8
stations
10
4.519
20
-1.9705
0
VERTEX
8
stations
10
4.519
20
-1.9681
0
VERTEX
8
stations
10
4.519
20
-1.9658
0
VERTEX
8
stations
10
4.5189
20
-1.9634
0
VERTEX
8
stations
10
4.5189
20
-1.9611
0
VERTEX
8
stations
10
4.5189
20
-1.9587
0
VERTEX
8
stations
10
4.5189
20
-1.9564
0
VERTEX
8
stations
10
4.5189
20
-1.954
0
VERTEX
8
stations
10
4.5189
20
-1.9517
0
VERTEX
8
stations
10
4.5189
20
-1.9493
0
VERTEX
8
stations
10
4.5189
20
-1.947
0
VERTEX
8
stations
10
4.5189
20
-1.9446
0
VERTEX
8
stations
10
4.5189
20
-1.9422
0
VERTEX
8
stations
10
4.5189
20
-1.9399
0
VERTEX
8
stations
10
4.5189
20
-1.9375
0
VERTEX
8
stations
10
4.5189
20
-1.9352
0
VERTEX
8
stations
10
4.5189
20
-1.9328
0
VERTEX
8
stations
10
4.5189
20
-1.9305
0
VERTEX
8
stations
10
4.5188
20
-1.9281
0
VERTEX
8
stations
10
4.5188
20
-1.9258
0
SEQEND
0
POLYLINE
8
stations
62
135
66
1
0
VERTEX
8
stations
10
4.5195
20
-2.1612
0
VERTEX
8
stations
10
4.5195
20
-2.1635
0
VERTEX
8
stations
10
4.5195
20
-2.1659
0
VERTEX
8
stations
10
4.5195
20
-2.1683
0
VERTEX
8
stations
10
4.5195
20
-2.1706
0
VERTEX
8
stations
10
4.5195
20
-2.173
0
VERTEX
8
stations
10
4.5195
20
-2.1753
0
VERTEX
8
stations
10
4.5195
20
-2.1777
0
VERTEX
8
stations
10
4.5195
20
-2.18
0
VERTEX
8
stations
10
4.5195
20
-2.1824
0
VERTEX
8
stations
10
4.5196
20
-2.1847
0
VERTEX
8
stations
10
4.5196
20
-2.1871
0
VERTEX
8
stations
10
4.5196
20
-2.1894
0
VERTEX
8
stations
10
4.5196
20
-2.1918
0
VERTEX
8
stations
10
4.5196
20
-2.1942
0
VERTEX
8
stations
10
4.5196
20
-2.1965
0
VERTEX
8
stations
10
4.5196
20
-2.1989
0
VERTEX
8
stations
10
4.5196
20
-2.2012
0
VERTEX
8
stations
10
4.5196
20
-2.2036
0
VERTEX
8
stations
10
4.5196
20
-2.2059
0
VERTEX
8
stations
10
4.5196
20
-2.2083
0
VERTEX
8
stations
10
4.5196
20
-2.2106
0
VERTEX
8
stations
10
4.5196
20
-2.213
0
VERTEX
8
stations
10
4.5196
20
-2.2153
0
VERTEX
8
stations
10
4.5196
20
-2.2177
0
VERTEX
8
stations
10
4.5196
20
-2.2201
0
VERTEX
8
stations
10
4.5197
20
-2.2224
0
VERTEX
8
stations
10
4.5197
20
-2.2248
0
VERTEX
8
stations
10
4.5197
20
-2.2271
0
VERTEX
8
stations
10
4.5197
20
-2.2295
0
VERTEX
8
stations
10
4.5197
20
-2.2318
0
VERTEX
8
stations
10
4.5197
20
-2.2342
0
VERTEX
8
stations
10
4.5197
20
-2.2365
0
VERTEX
8
stations
10
4.5197
20
-2.2389
0
VERTEX
8
stations
10
4.5197
20
-2.2412
0
VERTEX
8
stations
10
4.5197
20
-2.2436
0
VERTEX
8
stations
10
4.5197
20
-2.246
0
VERTEX
8
stations
10
4.5197
20
-2.2483
0
VERTEX
8
stations
10
4.5197
20
-2.2507
0
VERTEX
8
stations
10
4.5197
20
-2.253
0
VERTEX
8
stations
10
4.5197
20
-2.2554
0
VERTEX
8
stations
10
4.5198
20
-2.2577
0
VERTEX
8
stations
10
4.5198
20
-2.2601
0
VERTEX
8
stations
10
4.5198
20
-2.2624
0
VERTEX
8
stations
10
4.5198
20
-2.2648
0
VERTEX
8
stations
10
4.5198
20
-2.2671
0
VERTEX
8
stations
10
4.5198
20
-2.2695
0
VERTEX
8
stations
10
4.5198
20
-2.2719
0
VERTEX
8
stations
10
4.5198
20
-2.2742
0
VERTEX
8
stations
10
4.5198
20
-2.2766
0
VERTEX
8
stations
10
4.5198
20
-2.2789
0
VERTEX
8
stations
10
4.5198
20
-2.2813
0
VERTEX
8
stations
10
4.5198
20
-2.2836
0
VERTEX
8
stations
10
4.5198
20
-2.286
0
VERTEX
8
stations
10
4.5198
20
-2.2883
0
VERTEX
8
stations
10
4.5198
20
-2.2907
0
VERTEX
8
stations
10
4.5198
20
-2.293
0
VERTEX
8
stations
10
4.5199
20
-2.2954
0
VERTEX
8
stations
10
4.5199
20
-2.2978
0
VERTEX
8
stations
10
4.5199
20
-2.3001
0
VERTEX
8
stations
10
4.5199
20
-2.3025
0
VERTEX
8
stations
10
4.5199
20
-2.3048
0
VERTEX
8
stations
10
4.5199
20
-2.3072
0
VERTEX
8
stations
10
4.5199
20
-2.3095
0
VERTEX
8
stations
10
4.5199
20
-2.3119
0
VERTEX
8
stations
10
4.5199
20
-2.3142
0
VERTEX
8
stations
10
4.5199
20
-2.3166
0
VERTEX
8
stations
10
4.5199
20
-2.3189
0
VERTEX
8
stations
10
4.5199
20
-2.3213
0
VERTEX
8
stations
10
4.5199
20
-2.3237
0
VERTEX
8
stations
10
4.5199
20
-2.326
0
VERTEX
8
stations
10
4.5199
20
-2.3284
0
VERTEX
8
stations
10
4.52
20
-2.3307
0
VERTEX
8
stations
10
4.52
20
-2.3331
0
VERTEX
8
stations
10
4.52
20
-2.3354
0
VERTEX
8
stations
10
4.52
20
-2.3378
0
VERTEX
8
stations
10
4.52
20
-2.3401
0
VERTEX
8
stations
10
4.52
20
-2.3425
0
VERTEX
8
stations
10
4.52
20
-2.3448
0
VERTEX
8
stations
10
4.52
20
-2.3472
0
VERTEX
8
stations
10
4.52
20
-2.3496
0
VERTEX
8
stations
10
4.52
20
-2.3519
0
VERTEX
8
stations
10
4.52
20
-2.3543
0
VERTEX
8
stations
10
4.52
20
-2.3566
0
VERTEX
8
stations
10
4.52
20
-2.359
0
VERTEX
8
stations
10
4.52
20
-2.3613
0
VERTEX
8
stations
10
4.52
20
-2.3637
0
VERTEX
8
stations
10
4.52
20
-2.366
0
VERTEX
8
stations
10
4.5201
20
-2.3684
0
VERTEX
8
stations
10
4.5201
20
-2.3707
0
VERTEX
8
stations
10
4.5201
20
-2.3731
0
VERTEX
8
stations
10
4.5201
20
-2.3755
0
VERTEX
8
stations
10
4.5201
20
-2.3778
0
VERTEX
8
stations
10
4.5201
20
-2.3802
0
VERTEX
8
stations
10
4.5201
20
-2.3825
0
VERTEX
8
stations
10
4.5201
20
-2.3849
0
VERTEX
8
stations
10
4.5201
20
-2.3872
0
VERTEX
8
stations
10
4.5201
20
-2.3896
0
VERTEX
8
stations
10
4.5201
20
-2.3919
0
VERTEX
8
stations
10
4.5201
20
-2.3943
0
VERTEX
8
stations
10
4.5201
20
-2.3966
0
SEQEND
0
POLYLINE
8
side
62
94
66
1
0
VERTEX
8
side
10
3.5462
20
1.9414
0
VERTEX
8
side
10
3.8024
20
1.9429
0
VERTEX
8
side
10
4.0182
20
1.9458
0
VERTEX
8
side
10
4.2038
20
1.9496
0
VERTEX
8
side
10
4.3693
20
1.9541
0
VERTEX
8
side
10
4.5247
20
1.959
0
VERTEX
8
side
10
4.6799
20
1.9639
0
VERTEX
8
side
10
4.8551
20
1.9685
0
VERTEX
8
side
10
5.0702
20
1.9726
0
VERTEX
8
side
10
5.3452
20
1.9761
0
VERTEX
8
side
10
5.7003
20
1.9795
0
VERTEX
8
side
10
6.1153
20
1.985
0
VERTEX
8
side
10
6.5702
20
1.9949
0
VERTEX
8
side
10
7.0449
20
2.0113
0
VERTEX
8
side
10
7.0479
20
1.9538
0
VERTEX
8
side
10
7.0517
20
1.8964
0
VERTEX
8
side
10
7.0563
20
1.8391
0
VERTEX
8
side
10
7.0617
20
1.7818
0
VERTEX
8
side
10
7.0693
20
1.7251
0
VERTEX
8
side
10
7.0782
20
1.6687
0
VERTEX
8
side
10
7.0882
20
1.6124
0
VERTEX
8
side
10
7.0995
20
1.5564
0
VERTEX
8
side
10
7.0883
20
1.4971
0
VERTEX
8
side
10
7.0772
20
1.4378
0
VERTEX
8
side
10
7.066
20
1.3786
0
VERTEX
8
side
10
7.0548
20
1.3193
0
VERTEX
8
side
10
6.571
20
1.2684
0
VERTEX
8
side
10
6.1084
20
1.2135
0
VERTEX
8
side
10
5.6872
20
1.1591
0
VERTEX
8
side
10
5.3274
20
1.1104
0
VERTEX
8
side
10
5.0491
20
1.0725
0
VERTEX
8
side
10
4.8318
20
1.0436
0
VERTEX
8
side
10
4.6551
20
1.021
0
VERTEX
8
side
10
4.4986
20
1.0013
0
VERTEX
8
side
10
4.3423
20
0.9811
0
VERTEX
8
side
10
4.176
20
0.9612
0
VERTEX
8
side
10
3.9896
20
0.9425
0
VERTEX
8
side
10
3.7731
20
0.9259
0
VERTEX
8
side
10
3.5163
20
0.9124
0
VERTEX
8
side
10
3.2289
20
0.9027
0
VERTEX
8
side
10
2.9206
20
0.8975
0
VERTEX
8
side
10
2.6013
20
0.8974
0
VERTEX
8
side
10
2.2807
20
0.9031
0
VERTEX
8
side
10
1.9638
20
0.9132
0
VERTEX
8
side
10
1.6558
20
0.9266
0
VERTEX
8
side
10
1.3618
20
0.9417
0
VERTEX
8
side
10
1.0868
20
0.9574
0
VERTEX
8
side
10
0.8363
20
0.9727
0
VERTEX
8
side
10
0.616
20
0.9869
0
VERTEX
8
side
10
0.4311
20
0.9991
0
VERTEX
8
side
10
0.2874
20
1.0085
0
VERTEX
8
side
10
0.1744
20
1.0159
0
VERTEX
8
side
10
0.0821
20
1.0219
0
VERTEX
8
side
10
0.0
20
1.0273
0
VERTEX
8
side
10
0.0065
20
1.1267
0
VERTEX
8
side
10
0.0131
20
1.2261
0
VERTEX
8
side
10
0.0196
20
1.3256
0
VERTEX
8
side
10
0.0261
20
1.425
0
VERTEX
8
side
10
0.0273
20
1.5101
0
VERTEX
8
side
10
0.0285
20
1.5952
0
VERTEX
8
side
10
0.0297
20
1.6804
0
VERTEX
8
side
10
0.0309
20
1.7655
0
VERTEX
8
side
10
0.0318
20
1.8264
0
VERTEX
8
side
10
0.0327
20
1.8873
0
VERTEX
8
side
10
0.0336
20
1.9482
0
VERTEX
8
side
10
0.0346
20
2.0091
0
VERTEX
8
side
10
0.1168
20
2.0067
0
VERTEX
8
side
10
0.2093
20
2.004
0
VERTEX
8
side
10
0.3222
20
2.0007
0
VERTEX
8
side
10
0.4659
20
1.9965
0
VERTEX
8
side
10
0.6505
20
1.9911
0
VERTEX
8
side
10
0.8706
20
1.9848
0
VERTEX
8
side
10
1.1207
20
1.9779
0
VERTEX
8
side
10
1.3953
20
1.9706
0
VERTEX
8
side
10
1.689
20
1.9634
0
VERTEX
8
side
10
1.9966
20
1.9565
0
VERTEX
8
side
10
2.313
20
1.9505
0
VERTEX
8
side
10
2.6331
20
1.9457
0
VERTEX
8
side
10
2.9519
20
1.9427
0
VERTEX
8
side
10
3.2595
20
1.9413
0
VERTEX
8
side
10
3.5462
20
1.9414
0
SEQEND
0
POLYLINE
8
stations
62
135
66
1
0
VERTEX
8
stations
10
2.5193
20
1.9474
0
VERTEX
8
stations
10
2.5191
20
1.9387
0
VERTEX
8
stations
10
2.519
20
1.93
0
VERTEX
8
stations
10
2.5189
20
1.9213
0
VERTEX
8
stations
10
2.5188
20
1.9126
0
VERTEX
8
stations
10
2.5186
20
1.9039
0
VERTEX
8
stations
10
2.5185
20
1.8953
0
VERTEX
8
stations
10
2.5184
20
1.8866
0
VERTEX
8
stations
10
2.5183
20
1.8779
0
VERTEX
8
stations
10
2.5181
20
1.8692
0
VERTEX
8
stations
10
2.518
20
1.8605
0
VERTEX
8
stations
10
2.5179
20
1.8518
0
VERTEX
8
stations
10
2.5178
20
1.8431
0
VERTEX
8
stations
10
2.5176
20
1.8344
0
VERTEX
8
stations
10
2.5175
20
1.8257
0
VERTEX
8
stations
10
2.5174
20
1.817
0
VERTEX
8
stations
10
2.5173
20
1.8083
0
VERTEX
8
stations
10
2.5171
20
1.7996
0
VERTEX
8
stations
10
2.517
20
1.7909
0
VERTEX
8
stations
10
2.5169
20
1.7822
0
VERTEX
8
stations
10
2.5168
20
1.7735
0
VERTEX
8
stations
10
2.5166
20
1.7649
0
VERTEX
8
stations
10
2.5165
20
1.7562
0
VERTEX
8
stations
10
2.5164
20
1.7475
0
VERTEX
8
stations
10
2.5163
20
1.7388
0
VERTEX
8
stations
10
2.5161
20
1.7301
0
VERTEX
8
stations
10
2.516
20
1.7214
0
VERTEX
8
stations
10
2.5159
20
1.7127
0
VERTEX
8
stations
10
2.5158
20
1.704
0
VERTEX
8
stations
10
2.5156
20
1.6928
0
VERTEX
8
stations
10
2.5155
20
1.6817
0
VERTEX
8
stations
10
2.5154
20
1.6705
0
VERTEX
8
stations
10
2.5152
20
1.6594
0
VERTEX
8
stations
10
2.5151
20
1.6482
0
VERTEX
8
stations
10
2.515
20
1.6371
0
VERTEX
8
stations
10
2.5148
20
1.6259
0
VERTEX
8
stations
10
2.5147
20
1.6148
0
VERTEX
8
stations
10
2.5146
20
1.6036
0
VERTEX
8
stations
10
2.5144
20
1.5925
0
VERTEX
8
stations
10
2.5143
20
1.5813
0
VERTEX
8
stations
10
2.5142
20
1.5702
0
VERTEX
8
stations
10
2.5141
20
1.559
0
VERTEX
8
stations
10
2.5139
20
1.5479
0
VERTEX
8
stations
10
2.5138
20
1.5367
0
VERTEX
8
stations
10
2.5137
20
1.5256
0
VERTEX
8
stations
10
2.5136
20
1.5144
0
VERTEX
8
stations
10
2.5134
20
1.5033
0
VERTEX
8
stations
10
2.5133
20
1.4921
0
VERTEX
8
stations
10
2.5132
20
1.481
0
VERTEX
8
stations
10
2.5131
20
1.4698
0
VERTEX
8
stations
10
2.513
20
1.4587
0
VERTEX
8
stations
10
2.5128
20
1.4475
0
VERTEX
8
stations
10
2.5127
20
1.4364
0
VERTEX
8
stations
10
2.5126
20
1.4252
0
VERTEX
8
stations
10
2.5125
20
1.4141
0
VERTEX
8
stations
10
2.5124
20
1.4029
0
VERTEX
8
stations
10
2.5122
20
1.3918
0
VERTEX
8
stations
10
2.5121
20
1.3806
0
VERTEX
8
stations
10
2.512
20
1.3695
0
VERTEX
8
stations
10
2.5119
20
1.3583
0
VERTEX
8
stations
10
2.5118
20
1.3472
0
VERTEX
8
stations
10
2.5117
20
1.336
0
VERTEX
8
stations
10
2.5115
20
1.3249
0
VERTEX
8
stations
10
2.5114
20
1.3137
0
VERTEX
8
stations
10
2.5112
20
1.3026
0
VERTEX
8
stations
10
2.5105
20
1.2914
0
VERTEX
8
stations
10
2.5098
20
1.2802
0
VERTEX
8
stations
10
2.509
20
1.269
0
VERTEX
8
stations
10
2.5083
20
1.2578
0
VERTEX
8
stations
10
2.5076
20
1.2466
0
VERTEX
8
stations
10
2.5068
20
1.2354
0
VERTEX
8
stations
10
2.5061
20
1.2242
0
VERTEX
8
stations
10
2.5053
20
1.213
0
VERTEX
8
stations
10
2.5046
20
1.2018
0
VERTEX
8
stations
10
2.5039
20
1.1906
0
VERTEX
8
stations
10
2.5031
20
1.1794
0
VERTEX
8
stations
10
2.5024
20
1.1682
0
VERTEX
8
stations
10
2.5016
20
1.157
0
VERTEX
8
stations
10
2.5009
20
1.1458
0
VERTEX
8
stations
10
2.5002
20
1.1346
0
VERTEX
8
stations
10
2.4994
20
1.1234
0
VERTEX
8
stations
10
2.4987
20
1.1122
0
VERTEX
8
stations
10
2.498
20
1.101
0
VERTEX
8
stations
10
2.4972
20
1.0898
0
VERTEX
8
stations
10
2.4965
20
1.0786
0
VERTEX
8
stations
10
2.4957
20
1.0674
0
VERTEX
8
stations
10
2.495
20
1.0562
0
VERTEX
8
stations
10
2.4943
20
1.045
0
VERTEX
8
stations
10
2.4935
20
1.0338
0
VERTEX
8
stations
10
2.4928
20
1.0226
0
VERTEX
8
stations
10
2.492
20
1.0115
0
VERTEX
8
stations
10
2.4913
20
1.0003
0
VERTEX
8
stations
10
2.4906
20
0.9891
0
VERTEX
8
stations
10
2.4898
20
0.9779
0
VERTEX
8
stations
10
2.4891
20
0.9667
0
VERTEX
8
stations
10
2.4884
20
0.9555
0
VERTEX
8
stations
10
2.4876
20
0.9443
0
VERTEX
8
stations
10
2.4869
20
0.9331
0
VERTEX
8
stations
10
2.4861
20
0.9219
0
VERTEX
8
stations
10
2.4854
20
0.9107
0
VERTEX
8
stations
10
2.4847
20
0.8995
0
SEQEND
0
POLYLINE
8
waterlines
62
135
66
1
0
VERTEX
8
waterlines
10
0.0309
20
1.7694
0
VERTEX
8
waterlines
10
0.0721
20
1.7679
0
VERTEX
8
waterlines
10
0.1131
20
1.7663
0
VERTEX
8
waterlines
10
0.1544
20
1.7648
0
VERTEX
8
waterlines
10
0.1995
20
1.7631
0
VERTEX
8
waterlines
10
0.2507
20
1.7612
0
VERTEX
8
waterlines
10
0.2997
20
1.7594
0
VERTEX
8
waterlines
10
0.3352
20
1.7581
0
VERTEX
8
waterlines
10
0.3636
20
1.757
0
VERTEX
8
waterlines
10
0.4085
20
1.7553
0
VERTEX
8
waterlines
10
0.4577
20
1.7534
0
VERTEX
8
waterlines
10
0.5141
20
1.7512
0
VERTEX
8
waterlines
10
0.5762
20
1.7488
0
VERTEX
8
waterlines
10
0.6414
20
1.7462
0
VERTEX
8
waterlines
10
0.7076
20
1.7437
0
VERTEX
8
waterlines
10
0.7745
20
1.7411
0
VERTEX
8
waterlines
10
0.8425
20
1.7386
0
VERTEX
8
waterlines
10
0.912
20
1.736
0
VERTEX
8
waterlines
10
0.983
20
1.7335
0
VERTEX
8
waterlines
10
1.0553
20
1.7309
0
VERTEX
8
waterlines
10
1.1286
20
1.7283
0
VERTEX
8
waterlines
10
1.2029
20
1.7258
0
VERTEX
8
waterlines
10
1.2779
20
1.7233
0
VERTEX
8
waterlines
10
1.3537
20
1.7209
0
VERTEX
8
waterlines
10
1.4302
20
1.7185
0
VERTEX
8
waterlines
10
1.5073
20
1.7162
0
VERTEX
8
waterlines
10
1.5851
20
1.7139
0
VERTEX
8
waterlines
10
1.6635
20
1.7118
0
VERTEX
8
waterlines
10
1.7424
20
1.7097
0
VERTEX
8
waterlines
10
1.8219
20
1.7078
0
VERTEX
8
waterlines
10
1.9015
20
1.7059
0
VERTEX
8
waterlines
10
1.9814
20
1.7042
0
VERTEX
8
waterlines
10
2.0612
20
1.7027
0
VERTEX
8
waterlines
10
2.1413
20
1.7013
0
VERTEX
8
waterlines
10
2.222
20
1.70
0
VERTEX
8
waterlines
10
2.3038
20
1.6989
0
VERTEX
8
waterlines
10
2.3867
20
1.6979
0
VERTEX
8
waterlines
10
2.4695
20
1.6972
0
VERTEX
8
waterlines
10
2.5508
20
1.6966
0
VERTEX
8
waterlines
10
2.6288
20
1.6963
0
VERTEX
8
waterlines
10
2.7025
20
1.6963
0
VERTEX
8
waterlines
10
2.7727
20
1.6965
0
VERTEX
8
waterlines
10
2.8408
20
1.6968
0
VERTEX
8
waterlines
10
2.8901
20
1.6969
0
VERTEX
8
waterlines
10
2.9298
20
1.6968
0
VERTEX
8
waterlines
10
2.9864
20
1.6969
0
VERTEX
8
waterlines
10
3.0609
20
1.6973
0
VERTEX
8
waterlines
10
3.1458
20
1.6978
0
VERTEX
8
waterlines
10
3.2337
20
1.6985
0
VERTEX
8
waterlines
10
3.3174
20
1.6993
0
VERTEX
8
waterlines
10
3.3957
20
1.7002
0
VERTEX
8
waterlines
10
3.4705
20
1.7013
0
VERTEX
8
waterlines
10
3.5439
20
1.7025
0
VERTEX
8
waterlines
10
3.6173
20
1.7038
0
VERTEX
8
waterlines
10
3.6906
20
1.7052
0
VERTEX
8
waterlines
10
3.7627
20
1.7068
0
VERTEX
8
waterlines
10
3.8329
20
1.7085
0
VERTEX
8
waterlines
10
3.9008
20
1.7104
0
VERTEX
8
waterlines
10
3.9667
20
1.7124
0
VERTEX
8
waterlines
10
4.031
20
1.7146
0
VERTEX
8
waterlines
10
4.0939
20
1.7169
0
VERTEX
8
waterlines
10
4.1554
20
1.7194
0
VERTEX
8
waterlines
10
4.2155
20
1.7219
0
VERTEX
8
waterlines
10
4.2741
20
1.7245
0
VERTEX
8
waterlines
10
4.3321
20
1.7272
0
VERTEX
8
waterlines
10
4.39
20
1.7301
0
VERTEX
8
waterlines
10
4.4476
20
1.733
0
VERTEX
8
waterlines
10
4.5035
20
1.7359
0
VERTEX
8
waterlines
10
4.5564
20
1.7384
0
VERTEX
8
waterlines
10
4.6096
20
1.7409
0
VERTEX
8
waterlines
10
4.6699
20
1.744
0
VERTEX
8
waterlines
10
4.7416
20
1.748
0
VERTEX
8
waterlines
10
4.8104
20
1.752
0
VERTEX
8
waterlines
10
4.8547
20
1.7548
0
VERTEX
8
waterlines
10
4.8718
20
1.756
0
VERTEX
8
waterlines
10
4.9192
20
1.7593
0
VERTEX
8
waterlines
10
4.9928
20
1.7644
0
VERTEX
8
waterlines
10
5.0756
20
1.7704
0
VERTEX
8
waterlines
10
5.1546
20
1.7765
0
VERTEX
8
waterlines
10
5.2293
20
1.7825
0
VERTEX
8
waterlines
10
5.3021
20
1.7886
0
VERTEX
8
waterlines
10
5.3755
20
1.7948
0
VERTEX
8
waterlines
10
5.4518
20
1.8014
0
VERTEX
8
waterlines
10
5.5339
20
1.8085
0
VERTEX
8
waterlines
10
5.6241
20
1.8163
0
VERTEX
8
waterlines
10
5.7252
20
1.825
0
VERTEX
8
waterlines
10
5.8355
20
1.8344
0
VERTEX
8
waterlines
10
5.9439
20
1.8438
0
VERTEX
8
waterlines
10
6.0381
20
1.8519
0
VERTEX
8
waterlines
10
6.1059
20
1.8577
0
VERTEX
8
waterlines
10
6.139
20
1.8607
0
VERTEX
8
waterlines
10
6.1719
20
1.8635
0
VERTEX
8
waterlines
10
6.2385
20
1.8693
0
VERTEX
8
waterlines
10
6.3315
20
1.8772
0
VERTEX
8
waterlines
10
6.4401
20
1.8866
0
VERTEX
8
waterlines
10
6.5537
20
1.8965
0
VERTEX
8
waterlines
10
6.6625
20
1.9061
0
VERTEX
8
waterlines
10
6.7648
20
1.9153
0
VERTEX
8
waterlines
10
6.8622
20
1.9242
0
VERTEX
8
waterlines
10
6.9563
20
1.9329
0
VERTEX
8
waterlines
10
7.0487
20
1.9414
0
SEQEND
0
POLYLINE
8
side
62
94
66
1
0
VERTEX
8
side
10
3.5462
20
-3.6207
0
VERTEX
8
side
10
3.8024
20
-3.6222
0
VERTEX
8
side
10
4.0182
20
-3.6251
0
VERTEX
8
side
10
4.2038
20
-3.6289
0
VERTEX
8
side
10
4.3693
20
-3.6334
0
VERTEX
8
side
10
4.5247
20
-3.6383
0
VERTEX
8
side
10
4.6799
20
-3.6432
0
VERTEX
8
side
10
4.8551
20
-3.6478
0
VERTEX
8
side
10
5.0702
20
-3.6519
0
VERTEX
8
side
10
5.3452
20
-3.6554
0
VERTEX
8
side
10
5.7003
20
-3.6588
0
VERTEX
8
side
10
6.1153
20
-3.6643
0
VERTEX
8
side
10
6.5702
20
-3.6742
0
VERTEX
8
side
10
7.0449
20
-3.6906
0
VERTEX
8
side
10
7.0479
20
-3.6331
0
VERTEX
8
side
10
7.0517
20
-3.5757
0
VERTEX
8
side
10
7.0563
20
-3.5183
0
VERTEX
8
side
10
7.0617
20
-3.461
0
VERTEX
8
side
10
7.0693
20
-3.4044
0
VERTEX
8
side
10
7.0782
20
-3.3479
0
VERTEX
8
side
10
7.0882
20
-3.2917
0
VERTEX
8
side
10
7.0995
20
-3.2356
0
VERTEX
8
side
10
7.0883
20
-3.1764
0
VERTEX
8
side
10
7.0772
20
-3.1171
0
VERTEX
8
side
10
7.066
20
-3.0579
0
VERTEX
8
side
10
7.0548
20
-2.9986
0
VERTEX
8
side
10
6.571
20
-2.9476
0
VERTEX
8
side
10
6.1084
20
-2.8927
0
VERTEX
8
side
10
5.6872
20
-2.8384
0
VERTEX
8
side
10
5.3274
20
-2.7896
0
VERTEX
8
side
10
5.0491
20
-2.7518
0
VERTEX
8
side
10
4.8318
20
-2.7229
0
VERTEX
8
side
10
4.6551
20
-2.7003
0
VERTEX
8
side
10
4.4986
20
-2.6806
0
VERTEX
8
side
10
4.3423
20
-2.6604
0
VERTEX
8
side
10
4.176
20
-2.6405
0
VERTEX
8
side
10
3.9896
20
-2.6218
0
VERTEX
8
side
10
3.7731
20
-2.6052
0
VERTEX
8
side
10
3.5163
20
-2.5917
0
VERTEX
8
side
10
3.2289
20
-2.582
0
VERTEX
8
side
10
2.9206
20
-2.5768
0
VERTEX
8
side
10
2.6013
20
-2.5767
0
VERTEX
8
side
10
2.2807
20
-2.5824
0
VERTEX
8
side
10
1.9638
20
-2.5925
0
VERTEX
8
side
10
1.6558
20
-2.6058
0
VERTEX
8
side
10
1.3618
20
-2.621
0
VERTEX
8
side
10
1.0868
20
-2.6367
0
VERTEX
8
side
10
0.8363
20
-2.652
0
VERTEX
8
side
10
0.616
20
-2.6662
0
VERTEX
8
side
10
0.4311
20
-2.6784
0
VERTEX
8
side
10
0.2874
20
-2.6878
0
VERTEX
8
side
10
0.1744
20
-2.6952
0
VERTEX
8
side
10
0.0821
20
-2.7012
0
VERTEX
8
side
10
0.0
20
-2.7065
0
VERTEX
8
side
10
0.0065
20
-2.806
0
VERTEX
8
side
10
0.0131
20
-2.9054
0
VERTEX
8
side
10
0.0196
20
-3.0049
0
VERTEX
8
side
10
0.0261
20
-3.1043
0
VERTEX
8
side
10
0.0273
20
-3.1894
0
VERTEX
8
side
10
0.0285
20
-3.2745
0
VERTEX
8
side
10
0.0297
20
-3.3596
0
VERTEX
8
side
10
0.0309
20
-3.4448
0
VERTEX
8
side
10
0.0318
20
-3.5057
0
VERTEX
8
side
10
0.0327
20
-3.5666
0
VERTEX
8
side
10
0.0336
20
-3.6275
0
VERTEX
8
side
10
0.0346
20
-3.6884
0
VERTEX
8
side
10
0.1168
20
-3.686
0
VERTEX
8
side
10
0.2093
20
-3.6833
0
VERTEX
8
side
10
0.3222
20
-3.68
0
VERTEX
8
side
10
0.4659
20
-3.6758
0
VERTEX
8
side
10
0.6505
20
-3.6704
0
VERTEX
8
side
10
0.8706
20
-3.6641
0
VERTEX
8
side
10
1.1207
20
-3.6571
0
VERTEX
8
side
10
1.3953
20
-3.6499
0
VERTEX
8
side
10
1.689
20
-3.6426
0
VERTEX
8
side
10
1.9966
20
-3.6358
0
VERTEX
8
side
10
2.313
20
-3.6298
0
VERTEX
8
side
10
2.6331
20
-3.625
0
VERTEX
8
side
10
2.9519
20
-3.622
0
VERTEX
8
side
10
3.2595
20
-3.6205
0
VERTEX
8
side
10
3.5462
20
-3.6207
0
SEQEND
0
POLYLINE
8
stations
62
135
66
1
0
VERTEX
8
stations
10
2.5193
20
-3.6267
0
VERTEX
8
stations
10
2.5191
20
-3.618
0
VERTEX
8
stations
10
2.519
20
-3.6093
0
VERTEX
8
stations
10
2.5189
20
-3.6006
0
VERTEX
8
stations
10
2.5188
20
-3.5919
0
VERTEX
8
stations
10
2.5186
20
-3.5832
0
VERTEX
8
stations
10
2.5185
20
-3.5745
0
VERTEX
8
stations
10
2.5184
20
-3.5658
0
VERTEX
8
stations
10
2.5183
20
-3.5572
0
VERTEX
8
stations
10
2.5181
20
-3.5485
0
VERTEX
8
stations
10
2.518
20
-3.5398
0
VERTEX
8
stations
10
2.5179
20
-3.5311
0
VERTEX
8
stations
10
2.5178
20
-3.5224
0
VERTEX
8
stations
10
2.5176
20
-3.5137
0
VERTEX
8
stations
10
2.5175
20
-3.505
0
VERTEX
8
stations
10
2.5174
20
-3.4963
0
VERTEX
8
stations
10
2.5173
20
-3.4876
0
VERTEX
8
stations
10
2.5171
20
-3.4789
0
VERTEX
8
stations
10
2.517
20
-3.4702
0
VERTEX
8
stations
10
2.5169
20
-3.4615
0
VERTEX
8
stations
10
2.5168
20
-3.4528
0
VERTEX
8
stations
10
2.5166
20
-3.4441
0
VERTEX
8
stations
10
2.5165
20
-3.4354
0
VERTEX
8
stations
10
2.5164
20
-3.4268
0
VERTEX
8
stations
10
2.5163
20
-3.4181
0
VERTEX
8
stations
10
2.5161
20
-3.4094
0
VERTEX
8
stations
10
2.516
20
-3.4007
0
VERTEX
8
stations
10
2.5159
20
-3.392
0
VERTEX
8
stations
10
2.5158
20
-3.3833
0
VERTEX
8
stations
10
2.5156
20
-3.3721
0
VERTEX
8
stations
10
2.5155
20
-3.361
0
VERTEX
8
stations
10
2.5154
20
-3.3498
0
VERTEX
8
stations
10
2.5152
20
-3.3387
0
VERTEX
8
stations
10
2.5151
20
-3.3275
0
VERTEX
8
stations
10
2.515
20
-3.3164
0
VERTEX
8
stations
10
2.5148
20
-3.3052
0
VERTEX
8
stations
10
2.5147
20
-3.2941
0
VERTEX
8
stations
10
2.5146
20
-3.2829
0
VERTEX
8
stations
10
2.5144
20
-3.2718
0
VERTEX
8
stations
10
2.5143
20
-3.2606
0
VERTEX
8
stations
10
2.5142
20
-3.2495
0
VERTEX
8
stations
10
2.5141
20
-3.2383
0
VERTEX
8
stations
10
2.5139
20
-3.2272
0
VERTEX
8
stations
10
2.5138
20
-3.216
0
VERTEX
8
stations
10
2.5137
20
-3.2049
0
VERTEX
8
stations
10
2.5136
20
-3.1937
0
VERTEX
8
stations
10
2.5134
20
-3.1826
0
VERTEX
8
stations
10
2.5133
20
-3.1714
0
VERTEX
8
stations
10
2.5132
20
-3.1603
0
VERTEX
8
stations
10
2.5131
20
-3.1491
0
VERTEX
8
stations
10
2.513
20
-3.138
0
VERTEX
8
stations
10
2.5128
20
-3.1268
0
VERTEX
8
stations
10
2.5127
20
-3.1157
0
VERTEX
8
stations
10
2.5126
20
-3.1045
0
VERTEX
8
stations
10
2.5125
20
-3.0934
0
VERTEX
8
stations
10
2.5124
20
-3.0822
0
VERTEX
8
stations
10
2.5122
20
-3.0711
0
VERTEX
8
stations
10
2.5121
20
-3.0599
0
VERTEX
8
stations
10
2.512
20
-3.0488
0
VERTEX
8
stations
10
2.5119
20
-3.0376
0
VERTEX
8
stations
10
2.5118
20
-3.0265
0
VERTEX
8
stations
10
2.5117
20
-3.0153
0
VERTEX
8
stations
10
2.5115
20
-3.0042
0
VERTEX
8
stations
10
2.5114
20
-2.993
0
VERTEX
8
stations
10
2.5112
20
-2.9819
0
VERTEX
8
stations
10
2.5105
20
-2.9707
0
VERTEX
8
stations
10
2.5098
20
-2.9595
0
VERTEX
8
stations
10
2.509
20
-2.9483
0
VERTEX
8
stations
10
2.5083
20
-2.9371
0
VERTEX
8
stations
10
2.5076
20
-2.9259
0
VERTEX
8
stations
10
2.5068
20
-2.9147
0
VERTEX
8
stations
10
2.5061
20
-2.9035
0
VERTEX
8
stations
10
2.5053
20
-2.8923
0
VERTEX
8
stations
10
2.5046
20
-2.8811
0
VERTEX
8
stations
10
2.5039
20
-2.8699
0
VERTEX
8
stations
10
2.5031
20
-2.8587
0
VERTEX
8
stations
10
2.5024
20
-2.8475
0
VERTEX
8
stations
10
2.5016
20
-2.8363
0
VERTEX
8
stations
10
2.5009
20
-2.8251
0
VERTEX
8
stations
10
2.5002
20
-2.8139
0
VERTEX
8
stations
10
2.4994
20
-2.8027
0
VERTEX
8
stations
10
2.4987
20
-2.7915
0
VERTEX
8
stations
10
2.498
20
-2.7803
0
VERTEX
8
stations
10
2.4972
20
-2.7691
0
VERTEX
8
stations
10
2.4965
20
-2.7579
0
VERTEX
8
stations
10
2.4957
20
-2.7467
0
VERTEX
8
stations
10
2.495
20
-2.7355
0
VERTEX
8
stations
10
2.4943
20
-2.7243
0
VERTEX
8
stations
10
2.4935
20
-2.7131
0
VERTEX
8
stations
10
2.4928
20
-2.7019
0
VERTEX
8
stations
10
2.492
20
-2.6907
0
VERTEX
8
stations
10
2.4913
20
-2.6795
0
VERTEX
8
stations
10
2.4906
20
-2.6683
0
VERTEX
8
stations
10
2.4898
20
-2.6571
0
VERTEX
8
stations
10
2.4891
20
-2.6459
0
VERTEX
8
stations
10
2.4884
20
-2.6348
0
VERTEX
8
stations
10
2.4876
20
-2.6236
0
VERTEX
8
stations
10
2.4869
20
-2.6124
0
VERTEX
8
stations
10
2.4861
20
-2.6012
0
VERTEX
8
stations
10
2.4854
20
-2.59
0
VERTEX
8
stations
10
2.4847
20
-2.5788
0
SEQEND
0
POLYLINE
8
waterlines
62
135
66
1
0
VERTEX
8
waterlines
10
0.0309
20
-3.4487
0
VERTEX
8
waterlines
10
0.0721
20
-3.4472
0
VERTEX
8
waterlines
10
0.1131
20
-3.4456
0
VERTEX
8
waterlines
10
0.1544
20
-3.4441
0
VERTEX
8
waterlines
10
0.1995
20
-3.4424
0
VERTEX
8
waterlines
10
0.2507
20
-3.4405
0
VERTEX
8
waterlines
10
0.2997
20
-3.4387
0
VERTEX
8
waterlines
10
0.3352
20
-3.4373
0
VERTEX
8
waterlines
10
0.3636
20
-3.4363
0
VERTEX
8
waterlines
10
0.4085
20
-3.4346
0
VERTEX
8
waterlines
10
0.4577
20
-3.4327
0
VERTEX
8
waterlines
10
0.5141
20
-3.4305
0
VERTEX
8
waterlines
10
0.5762
20
-3.428
0
VERTEX
8
waterlines
10
0.6414
20
-3.4255
0
VERTEX
8
waterlines
10
0.7076
20
-3.423
0
VERTEX
8
waterlines
10
0.7745
20
-3.4204
0
VERTEX
8
waterlines
10
0.8425
20
-3.4179
0
VERTEX
8
waterlines
10
0.912
20
-3.4153
0
VERTEX
8
waterlines
10
0.983
20
-3.4127
0
VERTEX
8
waterlines
10
1.0553
20
-3.4102
0
VERTEX
8
waterlines
10
1.1286
20
-3.4076
0
VERTEX
8
waterlines
10
1.2029
20
-3.4051
0
VERTEX
8
waterlines
10
1.2779
20
-3.4026
0
VERTEX
8
waterlines
10
1.3537
20
-3.4002
0
VERTEX
8
waterlines
10
1.4302
20
-3.3978
0
VERTEX
8
waterlines
10
1.5073
20
-3.3955
0
VERTEX
8
waterlines
10
1.5851
20
-3.3932
0
VERTEX
8
waterlines
10
1.6635
20
-3.3911
0
VERTEX
8
waterlines
10
1.7424
20
-3.389
0
VERTEX
8
waterlines
10
1.8219
20
-3.3871
0
VERTEX
8
waterlines
10
1.9015
20
-3.3852
0
VERTEX
8
waterlines
10
1.9814
20
-3.3835
0
VERTEX
8
waterlines
10
2.0612
20
-3.382
0
VERTEX
8
waterlines
10
2.1413
20
-3.3805
0
VERTEX
8
waterlines
10
2.222
20
-3.3793
0
VERTEX
8
waterlines
10
2.3038
20
-3.3782
0
VERTEX
8
waterlines
10
2.3867
20
-3.3772
0
VERTEX
8
waterlines
10
2.4695
20
-3.3765
0
VERTEX
8
waterlines
10
2.5508
20
-3.3759
0
VERTEX
8
waterlines
10
2.6288
20
-3.3756
0
VERTEX
8
waterlines
10
2.7025
20
-3.3756
0
VERTEX
8
waterlines
10
2.7727
20
-3.3758
0
VERTEX
8
waterlines
10
2.8408
20
-3.3761
0
VERTEX
8
waterlines
10
2.8901
20
-3.3761
0
VERTEX
8
waterlines
10
2.9298
20
-3.3761
0
VERTEX
8
waterlines
10
2.9864
20
-3.3762
0
VERTEX
8
waterlines
10
3.0609
20
-3.3765
0
VERTEX
8
waterlines
10
3.1458
20
-3.3771
0
VERTEX
8
waterlines
10
3.2337
20
-3.3778
0
VERTEX
8
waterlines
10
3.3174
20
-3.3786
0
VERTEX
8
waterlines
10
3.3957
20
-3.3795
0
VERTEX
8
waterlines
10
3.4705
20
-3.3806
0
VERTEX
8
waterlines
10
3.5439
20
-3.3817
0
VERTEX
8
waterlines
10
3.6173
20
-3.383
0
VERTEX
8
waterlines
10
3.6906
20
-3.3845
0
VERTEX
8
waterlines
10
3.7627
20
-3.3861
0
VERTEX
8
waterlines
10
3.8329
20
-3.3878
0
VERTEX
8
waterlines
10
3.9008
20
-3.3897
0
VERTEX
8
waterlines
10
3.9667
20
-3.3917
0
VERTEX
8
waterlines
10
4.031
20
-3.3939
0
VERTEX
8
waterlines
10
4.0939
20
-3.3962
0
VERTEX
8
waterlines
10
4.1554
20
-3.3986
0
VERTEX
8
waterlines
10
4.2155
20
-3.4012
0
VERTEX
8
waterlines
10
4.2741
20
-3.4038
0
VERTEX
8
waterlines
10
4.3321
20
-3.4065
0
VERTEX
8
waterlines
10
4.39
20
-3.4094
0
VERTEX
8
waterlines
10
4.4476
20
-3.4123
0
VERTEX
8
waterlines
10
4.5035
20
-3.4151
0
VERTEX
8
waterlines
10
4.5564
20
-3.4177
0
VERTEX
8
waterlines
10
4.6096
20
-3.4202
0
VERTEX
8
waterlines
10
4.6699
20
-3.4233
0
VERTEX
8
waterlines
10
4.7416
20
-3.4273
0
VERTEX
8
waterlines
10
4.8104
20
-3.4313
0
VERTEX
8
waterlines
10
4.8547
20
-3.434
0
VERTEX
8
waterlines
10
4.8718
20
-3.4353
0
VERTEX
8
waterlines
10
4.9192
20
-3.4386
0
VERTEX
8
waterlines
10
4.9928
20
-3.4437
0
VERTEX
8
waterlines
10
5.0756
20
-3.4497
0
VERTEX
8
waterlines
10
5.1546
20
-3.4558
0
VERTEX
8
waterlines
10
5.2293
20
-3.4618
0
VERTEX
8
waterlines
10
5.3021
20
-3.4679
0
VERTEX
8
waterlines
10
5.3755
20
-3.4741
0
VERTEX
8
waterlines
10
5.4518
20
-3.4807
0
VERTEX
8
waterlines
10
5.5339
20
-3.4878
0
VERTEX
8
waterlines
10
5.6241
20
-3.4955
0
VERTEX
8
waterlines
10
5.7252
20
-3.5042
0
VERTEX
8
waterlines
10
5.8355
20
-3.5137
0
VERTEX
8
waterlines
10
5.9439
20
-3.523
0
VERTEX
8
waterlines
10
6.0381
20
-3.5312
0
VERTEX
8
waterlines
10
6.1059
20
-3.537
0
VERTEX
8
waterlines
10
6.139
20
-3.5399
0
VERTEX
8
waterlines
10
6.1719
20
-3.5428
0
VERTEX
8
waterlines
10
6.2385
20
-3.5485
0
VERTEX
8
waterlines
10
6.3315
20
-3.5565
0
VERTEX
8
waterlines
10
6.4401
20
-3.5659
0
VERTEX
8
waterlines
10
6.5537
20
-3.5758
0
VERTEX
8
waterlines
10
6.6625
20
-3.5854
0
VERTEX
8
waterlines
10
6.7648
20
-3.5946
0
VERTEX
8
waterlines
10
6.8622
20
-3.6035
0
VERTEX
8
waterlines
10
6.9563
20
-3.6121
0
VERTEX
8
waterlines
10
7.0487
20
-3.6207
0
SEQEND
0
POLYLINE
8
cabin side
62
94
66
1
0
VERTEX
8
cabin side
10
0.892
20
2.634
0
VERTEX
8
cabin side
10
1.1208
20
2.6447
0
VERTEX
8
cabin side
10
1.2909
20
2.6514
0
VERTEX
8
cabin side
10
1.4222
20
2.6537
0
VERTEX
8
cabin side
10
1.5358
20
2.6512
0
VERTEX
8
cabin side
10
1.6541
20
2.6437
0
VERTEX
8
cabin side
10
1.7985
20
2.6309
0
VERTEX
8
cabin side
10
1.9632
20
2.6139
0
VERTEX
8
cabin side
10
2.1415
20
2.5941
0
VERTEX
8
cabin side
10
2.3267
20
2.5727
0
VERTEX
8
cabin side
10
2.2505
20
2.4477
0
VERTEX
8
cabin side
10
2.1744
20
2.3224
0
VERTEX
8
cabin side
10
2.0986
20
2.197
0
VERTEX
8
cabin side
10
2.0234
20
2.0713
0
VERTEX
8
cabin side
10
1.9211
20
2.0887
0
VERTEX
8
cabin side
10
1.8206
20
2.1042
0
VERTEX
8
cabin side
10
1.724
20
2.1169
0
VERTEX
8
cabin side
10
1.6324
20
2.1262
0
VERTEX
8
cabin side
10
1.546
20
2.1315
0
VERTEX
8
cabin side
10
1.4496
20
2.133
0
VERTEX
8
cabin side
10
1.3279
20
2.1306
0
VERTEX
8
cabin side
10
1.1671
20
2.1245
0
VERTEX
8
cabin side
10
0.9539
20
2.1148
0
VERTEX
8
cabin side
10
0.7014
20
2.1023
0
VERTEX
8
cabin side
10
0.4225
20
2.088
0
VERTEX
8
cabin side
10
0.1306
20
2.0729
0
VERTEX
8
cabin side
10
0.0979
20
2.2017
0
VERTEX
8
cabin side
10
0.0653
20
2.3305
0
VERTEX
8
cabin side
10
0.0326
20
2.4593
0
VERTEX
8
cabin side
10
0.0
20
2.5881
0
VERTEX
8
cabin side
10
0.3169
20
2.6047
0
VERTEX
8
cabin side
10
0.6191
20
2.6204
0
VERTEX
8
cabin side
10
0.892
20
2.634
0
SEQEND
0
POLYLINE
8
cabin side
62
94
66
1
0
VERTEX
8
cabin side
10
0.892
20
-4.3133
0
VERTEX
8
cabin side
10
1.1208
20
-4.324
0
VERTEX
8
cabin side
10
1.2909
20
-4.3307
0
VERTEX
8
cabin side
10
1.4222
20
-4.3329
0
VERTEX
8
cabin side
10
1.5358
20
-4.3305
0
VERTEX
8
cabin side
10
1.6541
20
-4.323
0
VERTEX
8
cabin side
10
1.7985
20
-4.3102
0
VERTEX
8
cabin side
10
1.9632
20
-4.2932
0
VERTEX
8
cabin side
10
2.1415
20
-4.2733
0
VERTEX
8
cabin side
10
2.3267
20
-4.252
0
VERTEX
8
cabin side
10
2.2505
20
-4.1269
0
VERTEX
8
cabin side
10
2.1744
20
-4.0017
0
VERTEX
8
cabin side
10
2.0986
20
-3.8763
0
VERTEX
8
cabin side
10
2.0234
20
-3.7506
0
VERTEX
8
cabin side
10
1.9211
20
-3.768
0
VERTEX
8
cabin side
10
1.8206
20
-3.7835
0
VERTEX
8
cabin side
10
1.724
20
-3.7962
0
VERTEX
8
cabin side
10
1.6324
20
-3.8055
0
VERTEX
8
cabin side
10
1.546
20
-3.8108
0
VERTEX
8
cabin side
10
1.4496
20
-3.8123
0
VERTEX
8
cabin side
10
1.3279
20
-3.8099
0
VERTEX
8
cabin side
10
1.1671
20
-3.8038
0
VERTEX
8
cabin side
10
0.9539
20
-3.7941
0
VERTEX
8
cabin side
10
0.7014
20
-3.7816
0
VERTEX
8
cabin side
10
0.4225
20
-3.7673
0
VERTEX
8
cabin side
10
0.1306
20
-3.7521
0
VERTEX
8
cabin side
10
0.0979
20
-3.881
0
VERTEX
8
cabin side
10
0.0653
20
-4.0098
0
VERTEX
8
cabin side
10
0.0326
20
-4.1386
0
VERTEX
8
cabin side
10
0.0
20
-4.2674
0
VERTEX
8
cabin side
10
0.3169
20
-4.284
0
VERTEX
8
cabin side
10
0.6191
20
-4.2997
0
VERTEX
8
cabin side
10
0.892
20
-4.3133
0
SEQEND
0
POLYLINE
8
cabin entry
62
94
66
1
0
VERTEX
8
cabin entry
10
0.8425
20
3.2227
0
VERTEX
8
cabin entry
10
1.123
20
3.2236
0
VERTEX
8
cabin entry
10
1.1227
20
3.3186
0
VERTEX
8
cabin entry
10
1.1224
20
3.4135
0
VERTEX
8
cabin entry
10
1.1221
20
3.5084
0
VERTEX
8
cabin entry
10
1.1218
20
3.6033
0
VERTEX
8
cabin entry
10
0.9942
20
3.6404
0
VERTEX
8
cabin entry
10
0.8666
20
3.6775
0
VERTEX
8
cabin entry
10
0.739
20
3.7146
0
VERTEX
8
cabin entry
10
0.6114
20
3.7517
0
VERTEX
8
cabin entry
10
0.4586
20
3.7137
0
VERTEX
8
cabin entry
10
0.3057
20
3.6757
0
VERTEX
8
cabin entry
10
0.1529
20
3.6378
0
VERTEX
8
cabin entry
10
0.0
20
3.5998
0
VERTEX
8
cabin entry
10
0.0003
20
3.5048
0
VERTEX
8
cabin entry
10
0.0006
20
3.4099
0
VERTEX
8
cabin entry
10
0.0009
20
3.315
0
VERTEX
8
cabin entry
10
0.0012
20
3.22
0
VERTEX
8
cabin entry
10
0.2816
20
3.2209
0
VERTEX
8
cabin entry
10
0.5621
20
3.2218
0
VERTEX
8
cabin entry
10
0.8425
20
3.2227
0
SEQEND
0
POLYLINE
8
cabin entry
62
94
66
1
0
VERTEX
8
cabin entry
10
0.8425
20
3.2227
0
VERTEX
8
cabin entry
10
1.123
20
3.2236
0
VERTEX
8
cabin entry
10
1.1233
20
3.1287
0
VERTEX
8
cabin entry
10
1.1236
20
3.0338
0
VERTEX
8
cabin entry
10
1.1239
20
2.9388
0
VERTEX
8
cabin entry
10
1.1242
20
2.8439
0
VERTEX
8
cabin entry
10
0.9968
20
2.806
0
VERTEX
8
cabin entry
10
0.8695
20
2.7681
0
VERTEX
8
cabin entry
10
0.7421
20
2.7302
0
VERTEX
8
cabin entry
10
0.6148
20
2.6923
0
VERTEX
8
cabin entry
10
0.4617
20
2.7293
0
VERTEX
8
cabin entry
10
0.3086
20
2.7663
0
VERTEX
8
cabin entry
10
0.1555
20
2.8033
0
VERTEX
8
cabin entry
10
0.0024
20
2.8403
0
VERTEX
8
cabin entry
10
0.0021
20
2.9353
0
VERTEX
8
cabin entry
10
0.0018
20
3.0302
0
VERTEX
8
cabin entry
10
0.0015
20
3.1251
0
VERTEX
8
cabin entry
10
0.0012
20
3.22
0
VERTEX
8
cabin entry
10
0.2816
20
3.2209
0
VERTEX
8
cabin entry
10
0.5621
20
3.2218
0
VERTEX
8
cabin entry
10
0.8425
20
3.2227
0
SEQEND
0
POLYLINE
8
cockpit wall
62
94
66
1
0
VERTEX
8
cockpit wall
10
0.0
20
-5.0469
0
VERTEX
8
cockpit wall
10
0.6516
20
-5.0469
0
VERTEX
8
cockpit wall
10
1.3033
20
-5.0469
0
VERTEX
8
cockpit wall
10
1.9549
20
-5.0468
0
VERTEX
8
cockpit wall
10
2.6066
20
-5.0468
0
VERTEX
8
cockpit wall
10
2.6078
20
-4.8851
0
VERTEX
8
cockpit wall
10
2.6089
20
-4.7235
0
VERTEX
8
cockpit wall
10
2.6101
20
-4.5618
0
VERTEX
8
cockpit wall
10
2.6113
20
-4.4002
0
VERTEX
8
cockpit wall
10
1.9896
20
-4.4075
0
VERTEX
8
cockpit wall
10
1.368
20
-4.4148
0
VERTEX
8
cockpit wall
10
0.7464
20
-4.4221
0
VERTEX
8
cockpit wall
10
0.1247
20
-4.4294
0
VERTEX
8
cockpit wall
10
0.0935
20
-4.5838
0
VERTEX
8
cockpit wall
10
0.0624
20
-4.7382
0
VERTEX
8
cockpit wall
10
0.0312
20
-4.8926
0
VERTEX
8
cockpit wall
10
0.0
20
-5.0469
0
SEQEND
0
POLYLINE
8
stations
62
135
66
1
0
VERTEX
8
stations
10
0.1201
20
-5.0469
0
VERTEX
8
stations
10
0.1201
20
-5.0408
0
VERTEX
8
stations
10
0.1202
20
-5.0346
0
VERTEX
8
stations
10
0.1202
20
-5.0284
0
VERTEX
8
stations
10
0.1203
20
-5.0222
0
VERTEX
8
stations
10
0.1203
20
-5.016
0
VERTEX
8
stations
10
0.1204
20
-5.0099
0
VERTEX
8
stations
10
0.1204
20
-5.0037
0
VERTEX
8
stations
10
0.1205
20
-4.9975
0
VERTEX
8
stations
10
0.1205
20
-4.9913
0
VERTEX
8
stations
10
0.1206
20
-4.9851
0
VERTEX
8
stations
10
0.1206
20
-4.9789
0
VERTEX
8
stations
10
0.1207
20
-4.9728
0
VERTEX
8
stations
10
0.1207
20
-4.9666
0
VERTEX
8
stations
10
0.1208
20
-4.9604
0
VERTEX
8
stations
10
0.1208
20
-4.9542
0
VERTEX
8
stations
10
0.1208
20
-4.948
0
VERTEX
8
stations
10
0.1209
20
-4.9419
0
VERTEX
8
stations
10
0.1209
20
-4.9357
0
VERTEX
8
stations
10
0.121
20
-4.9295
0
VERTEX
8
stations
10
0.121
20
-4.9233
0
VERTEX
8
stations
10
0.1211
20
-4.9171
0
VERTEX
8
stations
10
0.1211
20
-4.911
0
VERTEX
8
stations
10
0.1212
20
-4.9048
0
VERTEX
8
stations
10
0.1212
20
-4.8986
0
VERTEX
8
stations
10
0.1213
20
-4.8924
0
VERTEX
8
stations
10
0.1213
20
-4.8863
0
VERTEX
8
stations
10
0.1214
20
-4.8801
0
VERTEX
8
stations
10
0.1214
20
-4.8739
0
VERTEX
8
stations
10
0.1215
20
-4.8677
0
VERTEX
8
stations
10
0.1215
20
-4.8615
0
VERTEX
8
stations
10
0.1215
20
-4.8554
0
VERTEX
8
stations
10
0.1216
20
-4.8492
0
VERTEX
8
stations
10
0.1216
20
-4.843
0
VERTEX
8
stations
10
0.1217
20
-4.8368
0
VERTEX
8
stations
10
0.1217
20
-4.8306
0
VERTEX
8
stations
10
0.1218
20
-4.8245
0
VERTEX
8
stations
10
0.1218
20
-4.8183
0
VERTEX
8
stations
10
0.1219
20
-4.8121
0
VERTEX
8
stations
10
0.1219
20
-4.8059
0
VERTEX
8
stations
10
0.122
20
-4.7998
0
VERTEX
8
stations
10
0.122
20
-4.7936
0
VERTEX
8
stations
10
0.1221
20
-4.7874
0
VERTEX
8
stations
10
0.1221
20
-4.7812
0
VERTEX
8
stations
10
0.1222
20
-4.7751
0
VERTEX
8
stations
10
0.1222
20
-4.7689
0
VERTEX
8
stations
10
0.1222
20
-4.7627
0
VERTEX
8
stations
10
0.1223
20
-4.7565
0
VERTEX
8
stations
10
0.1223
20
-4.7504
0
VERTEX
8
stations
10
0.1224
20
-4.7442
0
VERTEX
8
stations
10
0.1224
20
-4.738
0
VERTEX
8
stations
10
0.1225
20
-4.7318
0
VERTEX
8
stations
10
0.1225
20
-4.7257
0
VERTEX
8
stations
10
0.1226
20
-4.7195
0
VERTEX
8
stations
10
0.1226
20
-4.7133
0
VERTEX
8
stations
10
0.1227
20
-4.7071
0
VERTEX
8
stations
10
0.1227
20
-4.701
0
VERTEX
8
stations
10
0.1228
20
-4.6948
0
VERTEX
8
stations
10
0.1228
20
-4.6886
0
VERTEX
8
stations
10
0.1229
20
-4.6824
0
VERTEX
8
stations
10
0.1229
20
-4.6763
0
VERTEX
8
stations
10
0.1229
20
-4.6701
0
VERTEX
8
stations
10
0.123
20
-4.6639
0
VERTEX
8
stations
10
0.123
20
-4.6577
0
VERTEX
8
stations
10
0.1231
20
-4.6516
0
VERTEX
8
stations
10
0.1231
20
-4.6454
0
VERTEX
8
stations
10
0.1232
20
-4.6392
0
VERTEX
8
stations
10
0.1232
20
-4.633
0
VERTEX
8
stations
10
0.1233
20
-4.6269
0
VERTEX
8
stations
10
0.1233
20
-4.6207
0
VERTEX
8
stations
10
0.1234
20
-4.6145
0
VERTEX
8
stations
10
0.1234
20
-4.6084
0
VERTEX
8
stations
10
0.1235
20
-4.6022
0
VERTEX
8
stations
10
0.1235
20
-4.596
0
VERTEX
8
stations
10
0.1236
20
-4.5898
0
VERTEX
8
stations
10
0.1236
20
-4.5837
0
VERTEX
8
stations
10
0.1237
20
-4.5775
0
VERTEX
8
stations
10
0.1237
20
-4.5713
0
VERTEX
8
stations
10
0.1237
20
-4.5652
0
VERTEX
8
stations
10
0.1238
20
-4.559
0
VERTEX
8
stations
10
0.1238
20
-4.5528
0
VERTEX
8
stations
10
0.1239
20
-4.5466
0
VERTEX
8
stations
10
0.1239
20
-4.5405
0
VERTEX
8
stations
10
0.124
20
-4.5343
0
VERTEX
8
stations
10
0.124
20
-4.5281
0
VERTEX
8
stations
10
0.1241
20
-4.522
0
VERTEX
8
stations
10
0.1241
20
-4.5158
0
VERTEX
8
stations
10
0.1242
20
-4.5096
0
VERTEX
8
stations
10
0.1242
20
-4.5034
0
VERTEX
8
stations
10
0.1243
20
-4.4973
0
VERTEX
8
stations
10
0.1243
20
-4.4911
0
VERTEX
8
stations
10
0.1244
20
-4.4849
0
VERTEX
8
stations
10
0.1244
20
-4.4788
0
VERTEX
8
stations
10
0.1244
20
-4.4726
0
VERTEX
8
stations
10
0.1245
20
-4.4664
0
VERTEX
8
stations
10
0.1245
20
-4.4603
0
VERTEX
8
stations
10
0.1246
20
-4.4541
0
VERTEX
8
stations
10
0.1246
20
-4.4479
0
VERTEX
8
stations
10
0.1247
20
-4.4418
0
VERTEX
8
stations
10
0.1247
20
-4.4356
0
VERTEX
8
stations
10
0.1248
20
-4.4294
0
SEQEND
0
POLYLINE
8
cockpit wall
62
94
66
1
0
VERTEX
8
cockpit wall
10
0.0
20
4.4657
0
VERTEX
8
cockpit wall
10
0.6516
20
4.4657
0
VERTEX
8
cockpit wall
10
1.3033
20
4.4656
0
VERTEX
8
cockpit wall
10
1.9549
20
4.4656
0
VERTEX
8
cockpit wall
10
2.6066
20
4.4656
0
VERTEX
8
cockpit wall
10
2.6078
20
4.3039
0
VERTEX
8
cockpit wall
10
2.6089
20
4.1423
0
VERTEX
8
cockpit wall
10
2.6101
20
3.9806
0
VERTEX
8
cockpit wall
10
2.6113
20
3.819
0
VERTEX
8
cockpit wall
10
1.9896
20
3.8263
0
VERTEX
8
cockpit wall
10
1.368
20
3.8336
0
VERTEX
8
cockpit wall
10
0.7464
20
3.8409
0
VERTEX
8
cockpit wall
10
0.1247
20
3.8482
0
VERTEX
8
cockpit wall
10
0.0935
20
4.0026
0
VERTEX
8
cockpit wall
10
0.0624
20
4.157
0
VERTEX
8
cockpit wall
10
0.0312
20
4.3113
0
VERTEX
8
cockpit wall
10
0.0
20
4.4657
0
SEQEND
0
POLYLINE
8
stations
62
135
66
1
0
VERTEX
8
stations
10
0.1201
20
4.4657
0
VERTEX
8
stations
10
0.1201
20
4.4595
0
VERTEX
8
stations
10
0.1202
20
4.4534
0
VERTEX
8
stations
10
0.1202
20
4.4472
0
VERTEX
8
stations
10
0.1203
20
4.441
0
VERTEX
8
stations
10
0.1203
20
4.4348
0
VERTEX
8
stations
10
0.1204
20
4.4286
0
VERTEX
8
stations
10
0.1204
20
4.4225
0
VERTEX
8
stations
10
0.1205
20
4.4163
0
VERTEX
8
stations
10
0.1205
20
4.4101
0
VERTEX
8
stations
10
0.1206
20
4.4039
0
VERTEX
8
stations
10
0.1206
20
4.3977
0
VERTEX
8
stations
10
0.1207
20
4.3916
0
VERTEX
8
stations
10
0.1207
20
4.3854
0
VERTEX
8
stations
10
0.1208
20
4.3792
0
VERTEX
8
stations
10
0.1208
20
4.373
0
VERTEX
8
stations
10
0.1208
20
4.3668
0
VERTEX
8
stations
10
0.1209
20
4.3607
0
VERTEX
8
stations
10
0.1209
20
4.3545
0
VERTEX
8
stations
10
0.121
20
4.3483
0
VERTEX
8
stations
10
0.121
20
4.3421
0
VERTEX
8
stations
10
0.1211
20
4.3359
0
VERTEX
8
stations
10
0.1211
20
4.3298
0
VERTEX
8
stations
10
0.1212
20
4.3236
0
VERTEX
8
stations
10
0.1212
20
4.3174
0
VERTEX
8
stations
10
0.1213
20
4.3112
0
VERTEX
8
stations
10
0.1213
20
4.305
0
VERTEX
8
stations
10
0.1214
20
4.2989
0
VERTEX
8
stations
10
0.1214
20
4.2927
0
VERTEX
8
stations
10
0.1215
20
4.2865
0
VERTEX
8
stations
10
0.1215
20
4.2803
0
VERTEX
8
stations
10
0.1215
20
4.2741
0
VERTEX
8
stations
10
0.1216
20
4.268
0
VERTEX
8
stations
10
0.1216
20
4.2618
0
VERTEX
8
stations
10
0.1217
20
4.2556
0
VERTEX
8
stations
10
0.1217
20
4.2494
0
VERTEX
8
stations
10
0.1218
20
4.2433
0
VERTEX
8
stations
10
0.1218
20
4.2371
0
VERTEX
8
stations
10
0.1219
20
4.2309
0
VERTEX
8
stations
10
0.1219
20
4.2247
0
VERTEX
8
stations
10
0.122
20
4.2185
0
VERTEX
8
stations
10
0.122
20
4.2124
0
VERTEX
8
stations
10
0.1221
20
4.2062
0
VERTEX
8
stations
10
0.1221
20
4.20
0
VERTEX
8
stations
10
0.1222
20
4.1938
0
VERTEX
8
stations
10
0.1222
20
4.1877
0
VERTEX
8
stations
10
0.1222
20
4.1815
0
VERTEX
8
stations
10
0.1223
20
4.1753
0
VERTEX
8
stations
10
0.1223
20
4.1691
0
VERTEX
8
stations
10
0.1224
20
4.163
0
VERTEX
8
stations
10
0.1224
20
4.1568
0
VERTEX
8
stations
10
0.1225
20
4.1506
0
VERTEX
8
stations
10
0.1225
20
4.1444
0
VERTEX
8
stations
10
0.1226
20
4.1383
0
VERTEX
8
stations
10
0.1226
20
4.1321
0
VERTEX
8
stations
10
0.1227
20
4.1259
0
VERTEX
8
stations
10
0.1227
20
4.1197
0
VERTEX
8
stations
10
0.1228
20
4.1136
0
VERTEX
8
stations
10
0.1228
20
4.1074
0
VERTEX
8
stations
10
0.1229
20
4.1012
0
VERTEX
8
stations
10
0.1229
20
4.095
0
VERTEX
8
stations
10
0.1229
20
4.0889
0
VERTEX
8
stations
10
0.123
20
4.0827
0
VERTEX
8
stations
10
0.123
20
4.0765
0
VERTEX
8
stations
10
0.1231
20
4.0703
0
VERTEX
8
stations
10
0.1231
20
4.0642
0
VERTEX
8
stations
10
0.1232
20
4.058
0
VERTEX
8
stations
10
0.1232
20
4.0518
0
VERTEX
8
stations
10
0.1233
20
4.0457
0
VERTEX
8
stations
10
0.1233
20
4.0395
0
VERTEX
8
stations
10
0.1234
20
4.0333
0
VERTEX
8
stations
10
0.1234
20
4.0271
0
VERTEX
8
stations
10
0.1235
20
4.021
0
VERTEX
8
stations
10
0.1235
20
4.0148
0
VERTEX
8
stations
10
0.1236
20
4.0086
0
VERTEX
8
stations
10
0.1236
20
4.0025
0
VERTEX
8
stations
10
0.1237
20
3.9963
0
VERTEX
8
stations
10
0.1237
20
3.9901
0
VERTEX
8
stations
10
0.1237
20
3.9839
0
VERTEX
8
stations
10
0.1238
20
3.9778
0
VERTEX
8
stations
10
0.1238
20
3.9716
0
VERTEX
8
stations
10
0.1239
20
3.9654
0
VERTEX
8
stations
10
0.1239
20
3.9593
0
VERTEX
8
stations
10
0.124
20
3.9531
0
VERTEX
8
stations
10
0.124
20
3.9469
0
VERTEX
8
stations
10
0.1241
20
3.9407
0
VERTEX
8
stations
10
0.1241
20
3.9346
0
VERTEX
8
stations
10
0.1242
20
3.9284
0
VERTEX
8
stations
10
0.1242
20
3.9222
0
VERTEX
8
stations
10
0.1243
20
3.9161
0
VERTEX
8
stations
10
0.1243
20
3.9099
0
VERTEX
8
stations
10
0.1244
20
3.9037
0
VERTEX
8
stations
10
0.1244
20
3.8976
0
VERTEX
8
stations
10
0.1244
20
3.8914
0
VERTEX
8
stations
10
0.1245
20
3.8852
0
VERTEX
8
stations
10
0.1245
20
3.879
0
VERTEX
8
stations
10
0.1246
20
3.8729
0
VERTEX
8
stations
10
0.1246
20
3.8667
0
VERTEX
8
stations
10
0.1247
20
3.8605
0
VERTEX
8
stations
10
0.1247
20
3.8544
0
VERTEX
8
stations
10
0.1248
20
3.8482
0
SEQEND
0
POLYLINE
8
cockpit deck
62
94
66
1
0
VERTEX
8
cockpit deck
10
1.2427
20
-5.4918
0
VERTEX
8
cockpit deck
10
0.6214
20
-5.4918
0
VERTEX
8
cockpit deck
10
0.0
20
-5.4919
0
VERTEX
8
cockpit deck
10
0.0
20
-5.4169
0
VERTEX
8
cockpit deck
10
0.0
20
-5.3419
0
VERTEX
8
cockpit deck
10
0.0
20
-5.2669
0
VERTEX
8
cockpit deck
10
0.0
20
-5.1919
0
VERTEX
8
cockpit deck
10
0.6214
20
-5.1719
0
VERTEX
8
cockpit deck
10
1.2427
20
-5.1519
0
VERTEX
8
cockpit deck
10
1.8641
20
-5.1319
0
VERTEX
8
cockpit deck
10
2.4854
20
-5.1119
0
VERTEX
8
cockpit deck
10
2.4854
20
-5.2069
0
VERTEX
8
cockpit deck
10
2.4854
20
-5.3018
0
VERTEX
8
cockpit deck
10
2.4854
20
-5.3967
0
VERTEX
8
cockpit deck
10
2.4854
20
-5.4916
0
VERTEX
8
cockpit deck
10
1.8641
20
-5.4917
0
VERTEX
8
cockpit deck
10
1.2427
20
-5.4918
0
SEQEND
0
POLYLINE
8
cockpit deck
62
94
66
1
0
VERTEX
8
cockpit deck
10
1.2427
20
-5.4918
0
VERTEX
8
cockpit deck
10
0.6214
20
-5.4918
0
VERTEX
8
cockpit deck
10
0.0
20
-5.4919
0
VERTEX
8
cockpit deck
10
0.0
20
-5.5669
0
VERTEX
8
cockpit deck
10
0.0
20
-5.6419
0
VERTEX
8
cockpit deck
10
0.0001
20
-5.7169
0
VERTEX
8
cockpit deck
10
0.0001
20
-5.7919
0
VERTEX
8
cockpit deck
10
0.6214
20
-5.8118
0
VERTEX
8
cockpit deck
10
1.2428
20
-5.8316
0
VERTEX
8
cockpit deck
10
1.8641
20
-5.8515
0
VERTEX
8
cockpit deck
10
2.4855
20
-5.8714
0
VERTEX
8
cockpit deck
10
2.4855
20
-5.7764
0
VERTEX
8
cockpit deck
10
2.4855
20
-5.6815
0
VERTEX
8
cockpit deck
10
2.4854
20
-5.5866
0
VERTEX
8
cockpit deck
10
2.4854
20
-5.4916
0
VERTEX
8
cockpit deck
10
1.8641
20
-5.4917
0
VERTEX
8
cockpit deck
10
1.2427
20
-5.4918
0
SEQEND
0
POLYLINE
8
stations
62
135
66
1
0
VERTEX
8
stations
10
2.4854
20
-5.4916
0
VERTEX
8
stations
10
2.4854
20
-5.4878
0
VERTEX
8
stations
10
2.4854
20
-5.4841
0
VERTEX
8
stations
10
2.4854
20
-5.4803
0
VERTEX
8
stations
10
2.4854
20
-5.4765
0
VERTEX
8
stations
10
2.4854
20
-5.4727
0
VERTEX
8
stations
10
2.4854
20
-5.4689
0
VERTEX
8
stations
10
2.4854
20
-5.4651
0
VERTEX
8
stations
10
2.4854
20
-5.4613
0
VERTEX
8
stations
10
2.4854
20
-5.4575
0
VERTEX
8
stations
10
2.4854
20
-5.4537
0
VERTEX
8
stations
10
2.4854
20
-5.4499
0
VERTEX
8
stations
10
2.4854
20
-5.4461
0
VERTEX
8
stations
10
2.4854
20
-5.4423
0
VERTEX
8
stations
10
2.4854
20
-5.4385
0
VERTEX
8
stations
10
2.4854
20
-5.4347
0
VERTEX
8
stations
10
2.4854
20
-5.4309
0
VERTEX
8
stations
10
2.4854
20
-5.4271
0
VERTEX
8
stations
10
2.4854
20
-5.4233
0
VERTEX
8
stations
10
2.4854
20
-5.4195
0
VERTEX
8
stations
10
2.4854
20
-5.4157
0
VERTEX
8
stations
10
2.4854
20
-5.4119
0
VERTEX
8
stations
10
2.4854
20
-5.4081
0
VERTEX
8
stations
10
2.4854
20
-5.4043
0
VERTEX
8
stations
10
2.4854
20
-5.4005
0
VERTEX
8
stations
10
2.4854
20
-5.3967
0
VERTEX
8
stations
10
2.4854
20
-5.3929
0
VERTEX
8
stations
10
2.4854
20
-5.3891
0
VERTEX
8
stations
10
2.4854
20
-5.3853
0
VERTEX
8
stations
10
2.4854
20
-5.3815
0
VERTEX
8
stations
10
2.4854
20
-5.3777
0
VERTEX
8
stations
10
2.4854
20
-5.3739
0
VERTEX
8
stations
10
2.4854
20
-5.3701
0
VERTEX
8
stations
10
2.4854
20
-5.3663
0
VERTEX
8
stations
10
2.4854
20
-5.3625
0
VERTEX
8
stations
10
2.4854
20
-5.3587
0
VERTEX
8
stations
10
2.4854
20
-5.3549
0
VERTEX
8
stations
10
2.4854
20
-5.3511
0
VERTEX
8
stations
10
2.4854
20
-5.3474
0
VERTEX
8
stations
10
2.4854
20
-5.3436
0
VERTEX
8
stations
10
2.4854
20
-5.3398
0
VERTEX
8
stations
10
2.4854
20
-5.336
0
VERTEX
8
stations
10
2.4854
20
-5.3322
0
VERTEX
8
stations
10
2.4854
20
-5.3284
0
VERTEX
8
stations
10
2.4854
20
-5.3246
0
VERTEX
8
stations
10
2.4854
20
-5.3208
0
VERTEX
8
stations
10
2.4854
20
-5.317
0
VERTEX
8
stations
10
2.4854
20
-5.3132
0
VERTEX
8
stations
10
2.4854
20
-5.3094
0
VERTEX
8
stations
10
2.4854
20
-5.3056
0
VERTEX
8
stations
10
2.4854
20
-5.3018
0
VERTEX
8
stations
10
2.4854
20
-5.298
0
VERTEX
8
stations
10
2.4854
20
-5.2942
0
VERTEX
8
stations
10
2.4854
20
-5.2904
0
VERTEX
8
stations
10
2.4854
20
-5.2866
0
VERTEX
8
stations
10
2.4854
20
-5.2828
0
VERTEX
8
stations
10
2.4854
20
-5.279
0
VERTEX
8
stations
10
2.4854
20
-5.2752
0
VERTEX
8
stations
10
2.4854
20
-5.2714
0
VERTEX
8
stations
10
2.4854
20
-5.2676
0
VERTEX
8
stations
10
2.4854
20
-5.2638
0
VERTEX
8
stations
10
2.4854
20
-5.26
0
VERTEX
8
stations
10
2.4854
20
-5.2562
0
VERTEX
8
stations
10
2.4854
20
-5.2524
0
VERTEX
8
stations
10
2.4854
20
-5.2486
0
VERTEX
8
stations
10
2.4854
20
-5.2448
0
VERTEX
8
stations
10
2.4854
20
-5.241
0
VERTEX
8
stations
10
2.4854
20
-5.2372
0
VERTEX
8
stations
10
2.4854
20
-5.2334
0
VERTEX
8
stations
10
2.4854
20
-5.2296
0
VERTEX
8
stations
10
2.4854
20
-5.2258
0
VERTEX
8
stations
10
2.4854
20
-5.222
0
VERTEX
8
stations
10
2.4854
20
-5.2182
0
VERTEX
8
stations
10
2.4854
20
-5.2144
0
VERTEX
8
stations
10
2.4854
20
-5.2106
0
VERTEX
8
stations
10
2.4854
20
-5.2069
0
VERTEX
8
stations
10
2.4854
20
-5.2031
0
VERTEX
8
stations
10
2.4854
20
-5.1993
0
VERTEX
8
stations
10
2.4854
20
-5.1955
0
VERTEX
8
stations
10
2.4854
20
-5.1917
0
VERTEX
8
stations
10
2.4854
20
-5.1879
0
VERTEX
8
stations
10
2.4854
20
-5.1841
0
VERTEX
8
stations
10
2.4854
20
-5.1803
0
VERTEX
8
stations
10
2.4854
20
-5.1765
0
VERTEX
8
stations
10
2.4854
20
-5.1727
0
VERTEX
8
stations
10
2.4854
20
-5.1689
0
VERTEX
8
stations
10
2.4854
20
-5.1651
0
VERTEX
8
stations
10
2.4854
20
-5.1613
0
VERTEX
8
stations
10
2.4854
20
-5.1575
0
VERTEX
8
stations
10
2.4854
20
-5.1537
0
VERTEX
8
stations
10
2.4854
20
-5.1499
0
VERTEX
8
stations
10
2.4854
20
-5.1461
0
VERTEX
8
stations
10
2.4854
20
-5.1423
0
VERTEX
8
stations
10
2.4854
20
-5.1385
0
VERTEX
8
stations
10
2.4854
20
-5.1347
0
VERTEX
8
stations
10
2.4854
20
-5.1309
0
VERTEX
8
stations
10
2.4854
20
-5.1271
0
VERTEX
8
stations
10
2.4854
20
-5.1233
0
VERTEX
8
stations
10
2.4854
20
-5.1195
0
VERTEX
8
stations
10
2.4854
20
-5.1157
0
VERTEX
8
stations
10
2.4854
20
-5.1119
0
SEQEND
0
POLYLINE
8
stations
62
135
66
1
0
VERTEX
8
stations
10
2.4854
20
-5.4916
0
VERTEX
8
stations
10
2.4854
20
-5.4954
0
VERTEX
8
stations
10
2.4854
20
-5.4992
0
VERTEX
8
stations
10
2.4854
20
-5.503
0
VERTEX
8
stations
10
2.4854
20
-5.5068
0
VERTEX
8
stations
10
2.4854
20
-5.5106
0
VERTEX
8
stations
10
2.4854
20
-5.5144
0
VERTEX
8
stations
10
2.4854
20
-5.5182
0
VERTEX
8
stations
10
2.4854
20
-5.522
0
VERTEX
8
stations
10
2.4854
20
-5.5258
0
VERTEX
8
stations
10
2.4854
20
-5.5296
0
VERTEX
8
stations
10
2.4854
20
-5.5334
0
VERTEX
8
stations
10
2.4854
20
-5.5372
0
VERTEX
8
stations
10
2.4854
20
-5.541
0
VERTEX
8
stations
10
2.4854
20
-5.5448
0
VERTEX
8
stations
10
2.4854
20
-5.5486
0
VERTEX
8
stations
10
2.4854
20
-5.5524
0
VERTEX
8
stations
10
2.4854
20
-5.5562
0
VERTEX
8
stations
10
2.4854
20
-5.56
0
VERTEX
8
stations
10
2.4854
20
-5.5638
0
VERTEX
8
stations
10
2.4854
20
-5.5676
0
VERTEX
8
stations
10
2.4854
20
-5.5714
0
VERTEX
8
stations
10
2.4854
20
-5.5752
0
VERTEX
8
stations
10
2.4854
20
-5.579
0
VERTEX
8
stations
10
2.4854
20
-5.5828
0
VERTEX
8
stations
10
2.4854
20
-5.5866
0
VERTEX
8
stations
10
2.4854
20
-5.5904
0
VERTEX
8
stations
10
2.4854
20
-5.5942
0
VERTEX
8
stations
10
2.4854
20
-5.598
0
VERTEX
8
stations
10
2.4854
20
-5.6018
0
VERTEX
8
stations
10
2.4854
20
-5.6056
0
VERTEX
8
stations
10
2.4854
20
-5.6094
0
VERTEX
8
stations
10
2.4854
20
-5.6132
0
VERTEX
8
stations
10
2.4854
20
-5.617
0
VERTEX
8
stations
10
2.4854
20
-5.6208
0
VERTEX
8
stations
10
2.4854
20
-5.6246
0
VERTEX
8
stations
10
2.4854
20
-5.6283
0
VERTEX
8
stations
10
2.4854
20
-5.6321
0
VERTEX
8
stations
10
2.4854
20
-5.6359
0
VERTEX
8
stations
10
2.4854
20
-5.6397
0
VERTEX
8
stations
10
2.4854
20
-5.6435
0
VERTEX
8
stations
10
2.4854
20
-5.6473
0
VERTEX
8
stations
10
2.4854
20
-5.6511
0
VERTEX
8
stations
10
2.4854
20
-5.6549
0
VERTEX
8
stations
10
2.4854
20
-5.6587
0
VERTEX
8
stations
10
2.4854
20
-5.6625
0
VERTEX
8
stations
10
2.4854
20
-5.6663
0
VERTEX
8
stations
10
2.4854
20
-5.6701
0
VERTEX
8
stations
10
2.4854
20
-5.6739
0
VERTEX
8
stations
10
2.4854
20
-5.6777
0
VERTEX
8
stations
10
2.4854
20
-5.6815
0
VERTEX
8
stations
10
2.4854
20
-5.6853
0
VERTEX
8
stations
10
2.4854
20
-5.6891
0
VERTEX
8
stations
10
2.4854
20
-5.6929
0
VERTEX
8
stations
10
2.4854
20
-5.6967
0
VERTEX
8
stations
10
2.4854
20
-5.7005
0
VERTEX
8
stations
10
2.4854
20
-5.7043
0
VERTEX
8
stations
10
2.4854
20
-5.7081
0
VERTEX
8
stations
10
2.4854
20
-5.7119
0
VERTEX
8
stations
10
2.4854
20
-5.7157
0
VERTEX
8
stations
10
2.4854
20
-5.7195
0
VERTEX
8
stations
10
2.4854
20
-5.7233
0
VERTEX
8
stations
10
2.4854
20
-5.7271
0
VERTEX
8
stations
10
2.4854
20
-5.7309
0
VERTEX
8
stations
10
2.4854
20
-5.7347
0
VERTEX
8
stations
10
2.4854
20
-5.7385
0
VERTEX
8
stations
10
2.4854
20
-5.7423
0
VERTEX
8
stations
10
2.4854
20
-5.7461
0
VERTEX
8
stations
10
2.4854
20
-5.7499
0
VERTEX
8
stations
10
2.4854
20
-5.7537
0
VERTEX
8
stations
10
2.4854
20
-5.7575
0
VERTEX
8
stations
10
2.4854
20
-5.7613
0
VERTEX
8
stations
10
2.4854
20
-5.765
0
VERTEX
8
stations
10
2.4854
20
-5.7688
0
VERTEX
8
stations
10
2.4854
20
-5.7726
0
VERTEX
8
stations
10
2.4854
20
-5.7764
0
VERTEX
8
stations
10
2.4854
20
-5.7802
0
VERTEX
8
stations
10
2.4854
20
-5.784
0
VERTEX
8
stations
10
2.4854
20
-5.7878
0
VERTEX
8
stations
10
2.4854
20
-5.7916
0
VERTEX
8
stations
10
2.4854
20
-5.7954
0
VERTEX
8
stations
10
2.4854
20
-5.7992
0
VERTEX
8
stations
10
2.4854
20
-5.803
0
VERTEX
8
stations
10
2.4854
20
-5.8068
0
VERTEX
8
stations
10
2.4854
20
-5.8106
0
VERTEX
8
stations
10
2.4854
20
-5.8144
0
VERTEX
8
stations
10
2.4854
20
-5.8182
0
VERTEX
8
stations
10
2.4854
20
-5.822
0
VERTEX
8
stations
10
2.4854
20
-5.8258
0
VERTEX
8
stations
10
2.4854
20
-5.8296
0
VERTEX
8
stations
10
2.4854
20
-5.8334
0
VERTEX
8
stations
10
2.4854
20
-5.8372
0
VERTEX
8
stations
10
2.4854
20
-5.841
0
VERTEX
8
stations
10
2.4855
20
-5.8448
0
VERTEX
8
stations
10
2.4855
20
-5.8486
0
VERTEX
8
stations
10
2.4855
20
-5.8524
0
VERTEX
8
stations
10
2.4855
20
-5.8562
0
VERTEX
8
stations
10
2.4855
20
-5.86
0
VERTEX
8
stations
10
2.4855
20
-5.8638
0
VERTEX
8
stations
10
2.4855
20
-5.8676
0
VERTEX
8
stations
10
2.4855
20
-5.8714
0
SEQEND
0
POLYLINE
8
aft
62
94
66
1
0
VERTEX
8
aft
10
1.0781
20
5.4516
0
VERTEX
8
aft
10
1.1041
20
5.4879
0
VERTEX
8
aft
10
1.13
20
5.5243
0
VERTEX
8
aft
10
1.0489
20
5.5822
0
VERTEX
8
aft
10
0.9678
20
5.64
0
VERTEX
8
aft
10
0.8866
20
5.6979
0
VERTEX
8
aft
10
0.8055
20
5.7558
0
VERTEX
8
aft
10
0.7223
20
5.7376
0
VERTEX
8
aft
10
0.6392
20
5.7194
0
VERTEX
8
aft
10
0.556
20
5.7012
0
VERTEX
8
aft
10
0.4729
20
5.6831
0
VERTEX
8
aft
10
0.4127
20
5.6732
0
VERTEX
8
aft
10
0.3526
20
5.6633
0
VERTEX
8
aft
10
0.2925
20
5.6534
0
VERTEX
8
aft
10
0.2324
20
5.6435
0
VERTEX
8
aft
10
0.2034
20
5.6028
0
VERTEX
8
aft
10
0.1743
20
5.5621
0
VERTEX
8
aft
10
0.1453
20
5.5213
0
VERTEX
8
aft
10
0.1162
20
5.4806
0
VERTEX
8
aft
10
0.1508
20
5.4559
0
VERTEX
8
aft
10
0.1854
20
5.4313
0
VERTEX
8
aft
10
0.22
20
5.4066
0
VERTEX
8
aft
10
0.2546
20
5.3819
0
VERTEX
8
aft
10
0.2982
20
5.443
0
VERTEX
8
aft
10
0.3417
20
5.504
0
VERTEX
8
aft
10
0.3853
20
5.5651
0
VERTEX
8
aft
10
0.4288
20
5.6261
0
VERTEX
8
aft
10
0.5782
20
5.5643
0
VERTEX
8
aft
10
0.7275
20
5.5025
0
VERTEX
8
aft
10
0.8769
20
5.4406
0
VERTEX
8
aft
10
1.0263
20
5.3788
0
VERTEX
8
aft
10
1.0522
20
5.4152
0
VERTEX
8
aft
10
1.0781
20
5.4516
0
SEQEND
0
POLYLINE
8
aft
62
94
66
1
0
VERTEX
8
aft
10
0.4569
20
4.5805
0
VERTEX
8
aft
10
0.4309
20
4.5442
0
VERTEX
8
aft
10
0.405
20
4.5078
0
VERTEX
8
aft
10
0.3238
20
4.5657
0
VERTEX
8
aft
10
0.2427
20
4.6236
0
VERTEX
8
aft
10
0.1616
20
4.6814
0
VERTEX
8
aft
10
0.0805
20
4.7393
0
VERTEX
8
aft
10
0.0706
20
4.8238
0
VERTEX
8
aft
10
0.0607
20
4.9084
0
VERTEX
8
aft
10
0.0508
20
4.9929
0
VERTEX
8
aft
10
0.0409
20
5.0775
0
VERTEX
8
aft
10
0.0307
20
5.1375
0
VERTEX
8
aft
10
0.0204
20
5.1976
0
VERTEX
8
aft
10
0.0102
20
5.2576
0
VERTEX
8
aft
10
0.0
20
5.3177
0
VERTEX
8
aft
10
0.0291
20
5.3584
0
VERTEX
8
aft
10
0.0581
20
5.3992
0
VERTEX
8
aft
10
0.0872
20
5.4399
0
VERTEX
8
aft
10
0.1162
20
5.4806
0
VERTEX
8
aft
10
0.1508
20
5.4559
0
VERTEX
8
aft
10
0.1854
20
5.4313
0
VERTEX
8
aft
10
0.22
20
5.4066
0
VERTEX
8
aft
10
0.2546
20
5.3819
0
VERTEX
8
aft
10
0.211
20
5.3208
0
VERTEX
8
aft
10
0.1675
20
5.2598
0
VERTEX
8
aft
10
0.1239
20
5.1987
0
VERTEX
8
aft
10
0.0804
20
5.1377
0
VERTEX
8
aft
10
0.1875
20
5.0166
0
VERTEX
8
aft
10
0.2946
20
4.8955
0
VERTEX
8
aft
10
0.4016
20
4.7744
0
VERTEX
8
aft
10
0.5087
20
4.6533
0
VERTEX
8
aft
10
0.4828
20
4.6169
0
VERTEX
8
aft
10
0.4569
20
4.5805
0
SEQEND
0
POLYLINE
8
waterlines
62
135
66
1
0
VERTEX
8
waterlines
10
0.469
20
5.6824
0
VERTEX
8
waterlines
10
0.4684
20
5.6817
0
VERTEX
8
waterlines
10
0.4679
20
5.6809
0
VERTEX
8
waterlines
10
0.4673
20
5.6801
0
VERTEX
8
waterlines
10
0.4668
20
5.6793
0
VERTEX
8
waterlines
10
0.4662
20
5.6786
0
VERTEX
8
waterlines
10
0.4657
20
5.6778
0
VERTEX
8
waterlines
10
0.4651
20
5.677
0
VERTEX
8
waterlines
10
0.4646
20
5.6763
0
VERTEX
8
waterlines
10
0.464
20
5.6755
0
VERTEX
8
waterlines
10
0.4635
20
5.6747
0
VERTEX
8
waterlines
10
0.4629
20
5.6739
0
VERTEX
8
waterlines
10
0.4623
20
5.6731
0
VERTEX
8
waterlines
10
0.4618
20
5.6724
0
VERTEX
8
waterlines
10
0.4612
20
5.6716
0
VERTEX
8
waterlines
10
0.4607
20
5.6708
0
VERTEX
8
waterlines
10
0.4601
20
5.67
0
VERTEX
8
waterlines
10
0.4595
20
5.6692
0
VERTEX
8
waterlines
10
0.459
20
5.6684
0
VERTEX
8
waterlines
10
0.4584
20
5.6676
0
VERTEX
8
waterlines
10
0.4578
20
5.6668
0
VERTEX
8
waterlines
10
0.4573
20
5.666
0
VERTEX
8
waterlines
10
0.4567
20
5.6652
0
VERTEX
8
waterlines
10
0.4561
20
5.6644
0
VERTEX
8
waterlines
10
0.4556
20
5.6636
0
VERTEX
8
waterlines
10
0.455
20
5.6628
0
VERTEX
8
waterlines
10
0.4544
20
5.662
0
VERTEX
8
waterlines
10
0.4539
20
5.6613
0
VERTEX
8
waterlines
10
0.4533
20
5.6605
0
VERTEX
8
waterlines
10
0.4527
20
5.6597
0
VERTEX
8
waterlines
10
0.4522
20
5.6589
0
VERTEX
8
waterlines
10
0.4516
20
5.6581
0
VERTEX
8
waterlines
10
0.4511
20
5.6574
0
VERTEX
8
waterlines
10
0.4506
20
5.6566
0
VERTEX
8
waterlines
10
0.45
20
5.6559
0
VERTEX
8
waterlines
10
0.4495
20
5.6551
0
VERTEX
8
waterlines
10
0.449
20
5.6544
0
VERTEX
8
waterlines
10
0.4485
20
5.6537
0
VERTEX
8
waterlines
10
0.448
20
5.653
0
VERTEX
8
waterlines
10
0.4475
20
5.6523
0
VERTEX
8
waterlines
10
0.447
20
5.6516
0
VERTEX
8
waterlines
10
0.4465
20
5.6509
0
VERTEX
8
waterlines
10
0.446
20
5.6503
0
VERTEX
8
waterlines
10
0.4456
20
5.6496
0
VERTEX
8
waterlines
10
0.4451
20
5.6489
0
VERTEX
8
waterlines
10
0.4446
20
5.6483
0
VERTEX
8
waterlines
10
0.4441
20
5.6476
0
VERTEX
8
waterlines
10
0.4436
20
5.6469
0
VERTEX
8
waterlines
10
0.4431
20
5.6462
0
VERTEX
8
waterlines
10
0.4426
20
5.6454
0
VERTEX
8
waterlines
10
0.4421
20
5.6447
0
VERTEX
8
waterlines
10
0.4415
20
5.6439
0
VERTEX
8
waterlines
10
0.4409
20
5.6431
0
VERTEX
8
waterlines
10
0.4403
20
5.6423
0
VERTEX
8
waterlines
10
0.4397
20
5.6414
0
VERTEX
8
waterlines
10
0.4391
20
5.6405
0
VERTEX
8
waterlines
10
0.4384
20
5.6396
0
VERTEX
8
waterlines
10
0.4377
20
5.6386
0
VERTEX
8
waterlines
10
0.437
20
5.6376
0
VERTEX
8
waterlines
10
0.4362
20
5.6365
0
VERTEX
8
waterlines
10
0.4354
20
5.6354
0
VERTEX
8
waterlines
10
0.4346
20
5.6342
0
VERTEX
8
waterlines
10
0.4337
20
5.633
0
VERTEX
8
waterlines
10
0.4328
20
5.6317
0
VERTEX
8
waterlines
10
0.4319
20
5.6304
0
VERTEX
8
waterlines
10
0.4309
20
5.6291
0
VERTEX
8
waterlines
10
0.4299
20
5.6277
0
VERTEX
8
waterlines
10
0.4289
20
5.6263
0
VERTEX
8
waterlines
10
0.4279
20
5.6248
0
VERTEX
8
waterlines
10
0.4268
20
5.6233
0
VERTEX
8
waterlines
10
0.4257
20
5.6218
0
VERTEX
8
waterlines
10
0.4246
20
5.6202
0
VERTEX
8
waterlines
10
0.4234
20
5.6186
0
VERTEX
8
waterlines
10
0.4223
20
5.617
0
VERTEX
8
waterlines
10
0.4211
20
5.6153
0
VERTEX
8
waterlines
10
0.4199
20
5.6136
0
VERTEX
8
waterlines
10
0.4187
20
5.6119
0
VERTEX
8
waterlines
10
0.4174
20
5.6102
0
VERTEX
8
waterlines
10
0.4162
20
5.6084
0
VERTEX
8
waterlines
10
0.4149
20
5.6066
0
VERTEX
8
waterlines
10
0.4136
20
5.6048
0
VERTEX
8
waterlines
10
0.4123
20
5.6029
0
VERTEX
8
waterlines
10
0.4109
20
5.6011
0
VERTEX
8
waterlines
10
0.4096
20
5.5992
0
VERTEX
8
waterlines
10
0.4082
20
5.5973
0
VERTEX
8
waterlines
10
0.4068
20
5.5953
0
VERTEX
8
waterlines
10
0.4055
20
5.5934
0
VERTEX
8
waterlines
10
0.4041
20
5.5914
0
VERTEX
8
waterlines
10
0.4027
20
5.5895
0
VERTEX
8
waterlines
10
0.4012
20
5.5875
0
VERTEX
8
waterlines
10
0.3998
20
5.5855
0
VERTEX
8
waterlines
10
0.3984
20
5.5835
0
VERTEX
8
waterlines
10
0.3969
20
5.5815
0
VERTEX
8
waterlines
10
0.3955
20
5.5794
0
VERTEX
8
waterlines
10
0.394
20
5.5774
0
VERTEX
8
waterlines
10
0.3926
20
5.5753
0
VERTEX
8
waterlines
10
0.3911
20
5.5733
0
VERTEX
8
waterlines
10
0.3897
20
5.5712
0
VERTEX
8
waterlines
10
0.3882
20
5.5692
0
VERTEX
8
waterlines
10
0.3867
20
5.5671
0
VERTEX
8
waterlines
10
0.3853
20
5.5651
0
SEQEND
0
POLYLINE
8
waterlines
62
135
66
1
0
VERTEX
8
waterlines
10
0.0402
20
5.0813
0
VERTEX
8
waterlines
10
0.0408
20
5.0821
0
VERTEX
8
waterlines
10
0.0413
20
5.0829
0
VERTEX
8
waterlines
10
0.0419
20
5.0837
0
VERTEX
8
waterlines
10
0.0424
20
5.0844
0
VERTEX
8
waterlines
10
0.043
20
5.0852
0
VERTEX
8
waterlines
10
0.0435
20
5.086
0
VERTEX
8
waterlines
10
0.0441
20
5.0868
0
VERTEX
8
waterlines
10
0.0446
20
5.0875
0
VERTEX
8
waterlines
10
0.0452
20
5.0883
0
VERTEX
8
waterlines
10
0.0457
20
5.0891
0
VERTEX
8
waterlines
10
0.0463
20
5.0899
0
VERTEX
8
waterlines
10
0.0469
20
5.0907
0
VERTEX
8
waterlines
10
0.0474
20
5.0914
0
VERTEX
8
waterlines
10
0.048
20
5.0922
0
VERTEX
8
waterlines
10
0.0485
20
5.093
0
VERTEX
8
waterlines
10
0.0491
20
5.0938
0
VERTEX
8
waterlines
10
0.0497
20
5.0946
0
VERTEX
8
waterlines
10
0.0502
20
5.0954
0
VERTEX
8
waterlines
10
0.0508
20
5.0962
0
VERTEX
8
waterlines
10
0.0514
20
5.097
0
VERTEX
8
waterlines
10
0.0519
20
5.0978
0
VERTEX
8
waterlines
10
0.0525
20
5.0986
0
VERTEX
8
waterlines
10
0.0531
20
5.0993
0
VERTEX
8
waterlines
10
0.0536
20
5.1001
0
VERTEX
8
waterlines
10
0.0542
20
5.1009
0
VERTEX
8
waterlines
10
0.0548
20
5.1017
0
VERTEX
8
waterlines
10
0.0553
20
5.1025
0
VERTEX
8
waterlines
10
0.0559
20
5.1033
0
VERTEX
8
waterlines
10
0.0565
20
5.1041
0
VERTEX
8
waterlines
10
0.057
20
5.1049
0
VERTEX
8
waterlines
10
0.0576
20
5.1056
0
VERTEX
8
waterlines
10
0.0581
20
5.1064
0
VERTEX
8
waterlines
10
0.0586
20
5.1072
0
VERTEX
8
waterlines
10
0.0592
20
5.1079
0
VERTEX
8
waterlines
10
0.0597
20
5.1087
0
VERTEX
8
waterlines
10
0.0602
20
5.1094
0
VERTEX
8
waterlines
10
0.0607
20
5.1101
0
VERTEX
8
waterlines
10
0.0612
20
5.1108
0
VERTEX
8
waterlines
10
0.0617
20
5.1115
0
VERTEX
8
waterlines
10
0.0622
20
5.1122
0
VERTEX
8
waterlines
10
0.0627
20
5.1129
0
VERTEX
8
waterlines
10
0.0632
20
5.1135
0
VERTEX
8
waterlines
10
0.0636
20
5.1142
0
VERTEX
8
waterlines
10
0.0641
20
5.1149
0
VERTEX
8
waterlines
10
0.0646
20
5.1155
0
VERTEX
8
waterlines
10
0.0651
20
5.1162
0
VERTEX
8
waterlines
10
0.0656
20
5.1169
0
VERTEX
8
waterlines
10
0.0661
20
5.1176
0
VERTEX
8
waterlines
10
0.0666
20
5.1183
0
VERTEX
8
waterlines
10
0.0671
20
5.1191
0
VERTEX
8
waterlines
10
0.0677
20
5.1199
0
VERTEX
8
waterlines
10
0.0683
20
5.1207
0
VERTEX
8
waterlines
10
0.0689
20
5.1215
0
VERTEX
8
waterlines
10
0.0695
20
5.1224
0
VERTEX
8
waterlines
10
0.0701
20
5.1233
0
VERTEX
8
waterlines
10
0.0708
20
5.1242
0
VERTEX
8
waterlines
10
0.0715
20
5.1252
0
VERTEX
8
waterlines
10
0.0722
20
5.1262
0
VERTEX
8
waterlines
10
0.073
20
5.1273
0
VERTEX
8
waterlines
10
0.0738
20
5.1284
0
VERTEX
8
waterlines
10
0.0746
20
5.1296
0
VERTEX
8
waterlines
10
0.0755
20
5.1308
0
VERTEX
8
waterlines
10
0.0764
20
5.1321
0
VERTEX
8
waterlines
10
0.0773
20
5.1334
0
VERTEX
8
waterlines
10
0.0783
20
5.1347
0
VERTEX
8
waterlines
10
0.0793
20
5.1361
0
VERTEX
8
waterlines
10
0.0803
20
5.1375
0
VERTEX
8
waterlines
10
0.0813
20
5.139
0
VERTEX
8
waterlines
10
0.0824
20
5.1405
0
VERTEX
8
waterlines
10
0.0835
20
5.142
0
VERTEX
8
waterlines
10
0.0846
20
5.1436
0
VERTEX
8
waterlines
10
0.0858
20
5.1452
0
VERTEX
8
waterlines
10
0.0869
20
5.1468
0
VERTEX
8
waterlines
10
0.0881
20
5.1485
0
VERTEX
8
waterlines
10
0.0893
20
5.1502
0
VERTEX
8
waterlines
10
0.0905
20
5.1519
0
VERTEX
8
waterlines
10
0.0918
20
5.1536
0
VERTEX
8
waterlines
10
0.093
20
5.1554
0
VERTEX
8
waterlines
10
0.0943
20
5.1572
0
VERTEX
8
waterlines
10
0.0956
20
5.159
0
VERTEX
8
waterlines
10
0.0969
20
5.1609
0
VERTEX
8
waterlines
10
0.0983
20
5.1627
0
VERTEX
8
waterlines
10
0.0996
20
5.1646
0
VERTEX
8
waterlines
10
0.101
20
5.1665
0
VERTEX
8
waterlines
10
0.1024
20
5.1684
0
VERTEX
8
waterlines
10
0.1037
20
5.1704
0
VERTEX
8
waterlines
10
0.1051
20
5.1723
0
VERTEX
8
waterlines
10
0.1065
20
5.1743
0
VERTEX
8
waterlines
10
0.108
20
5.1763
0
VERTEX
8
waterlines
10
0.1094
20
5.1783
0
VERTEX
8
waterlines
10
0.1108
20
5.1803
0
VERTEX
8
waterlines
10
0.1123
20
5.1823
0
VERTEX
8
waterlines
10
0.1137
20
5.1844
0
VERTEX
8
waterlines
10
0.1152
20
5.1864
0
VERTEX
8
waterlines
10
0.1166
20
5.1884
0
VERTEX
8
waterlines
10
0.1181
20
5.1905
0
VERTEX
8
waterlines
10
0.1195
20
5.1925
0
VERTEX
8
waterlines
10
0.121
20
5.1946
0
VERTEX
8
waterlines
10
0.1225
20
5.1967
0
VERTEX
8
waterlines
10
0.1239
20
5.1987
0
SEQEND
0
POLYLINE
8
cocpit box fore
62
94
66
1
0
VERTEX
8
cocpit box fore
10
0.2041
20
-6.1935
0
VERTEX
8
cocpit box fore
10
0.0497
20
-6.1927
0
VERTEX
8
cocpit box fore
10
0.0372
20
-6.14
0
VERTEX
8
cocpit box fore
10
0.0248
20
-6.0874
0
VERTEX
8
cocpit box fore
10
0.0124
20
-6.0347
0
VERTEX
8
cocpit box fore
10
0.0
20
-5.9821
0
VERTEX
8
cocpit box fore
10
0.0984
20
-5.959
0
VERTEX
8
cocpit box fore
10
0.1969
20
-5.9359
0
VERTEX
8
cocpit box fore
10
0.2953
20
-5.9128
0
VERTEX
8
cocpit box fore
10
0.3938
20
-5.8897
0
VERTEX
8
cocpit box fore
10
0.4574
20
-5.946
0
VERTEX
8
cocpit box fore
10
0.5209
20
-6.0023
0
VERTEX
8
cocpit box fore
10
0.5845
20
-6.0586
0
VERTEX
8
cocpit box fore
10
0.6481
20
-6.1149
0
VERTEX
8
cocpit box fore
10
0.6529
20
-6.1352
0
VERTEX
8
cocpit box fore
10
0.6578
20
-6.1555
0
VERTEX
8
cocpit box fore
10
0.6626
20
-6.1757
0
VERTEX
8
cocpit box fore
10
0.6674
20
-6.196
0
VERTEX
8
cocpit box fore
10
0.513
20
-6.1952
0
VERTEX
8
cocpit box fore
10
0.3585
20
-6.1943
0
VERTEX
8
cocpit box fore
10
0.2041
20
-6.1935
0
SEQEND
0
POLYLINE
8
cocpit box fore
62
94
66
1
0
VERTEX
8
cocpit box fore
10
0.2041
20
6.0779
0
VERTEX
8
cocpit box fore
10
0.0497
20
6.0771
0
VERTEX
8
cocpit box fore
10
0.0372
20
6.0244
0
VERTEX
8
cocpit box fore
10
0.0248
20
5.9718
0
VERTEX
8
cocpit box fore
10
0.0124
20
5.9191
0
VERTEX
8
cocpit box fore
10
0.0
20
5.8665
0
VERTEX
8
cocpit box fore
10
0.0984
20
5.8434
0
VERTEX
8
cocpit box fore
10
0.1969
20
5.8203
0
VERTEX
8
cocpit box fore
10
0.2953
20
5.7972
0
VERTEX
8
cocpit box fore
10
0.3938
20
5.7741
0
VERTEX
8
cocpit box fore
10
0.4574
20
5.8304
0
VERTEX
8
cocpit box fore
10
0.5209
20
5.8867
0
VERTEX
8
cocpit box fore
10
0.5845
20
5.943
0
VERTEX
8
cocpit box fore
10
0.6481
20
5.9993
0
VERTEX
8
cocpit box fore
10
0.6529
20
6.0196
0
VERTEX
8
cocpit box fore
10
0.6578
20
6.0398
0
VERTEX
8
cocpit box fore
10
0.6626
20
6.0601
0
VERTEX
8
cocpit box fore
10
0.6674
20
6.0804
0
VERTEX
8
cocpit box fore
10
0.513
20
6.0795
0
VERTEX
8
cocpit box fore
10
0.3585
20
6.0787
0
VERTEX
8
cocpit box fore
10
0.2041
20
6.0779
0
SEQEND
0
POLYLINE
8
cockpit box bottom
62
94
66
1
0
VERTEX
8
cockpit box bottom
10
2.1022
20
-6.3478
0
VERTEX
8
cockpit box bottom
10
2.0243
20
-6.3484
0
VERTEX
8
cockpit box bottom
10
1.9464
20
-6.3491
0
VERTEX
8
cockpit box bottom
10
1.8686
20
-6.3498
0
VERTEX
8
cockpit box bottom
10
1.7131
20
-6.3491
0
VERTEX
8
cockpit box bottom
10
1.5576
20
-6.3485
0
VERTEX
8
cockpit box bottom
10
1.4022
20
-6.3478
0
VERTEX
8
cockpit box bottom
10
1.2467
20
-6.3471
0
VERTEX
8
cockpit box bottom
10
0.9352
20
-6.3426
0
VERTEX
8
cockpit box bottom
10
0.6237
20
-6.338
0
VERTEX
8
cockpit box bottom
10
0.3122
20
-6.3334
0
VERTEX
8
cockpit box bottom
10
0.0007
20
-6.3288
0
VERTEX
8
cockpit box bottom
10
0.0005
20
-6.3116
0
VERTEX
8
cockpit box bottom
10
0.0004
20
-6.2945
0
VERTEX
8
cockpit box bottom
10
0.0002
20
-6.2774
0
VERTEX
8
cockpit box bottom
10
0.0
20
-6.2602
0
VERTEX
8
cockpit box bottom
10
0.6217
20
-6.2597
0
VERTEX
8
cockpit box bottom
10
1.2433
20
-6.2592
0
VERTEX
8
cockpit box bottom
10
1.865
20
-6.2588
0
VERTEX
8
cockpit box bottom
10
2.4867
20
-6.2583
0
VERTEX
8
cockpit box bottom
10
2.4874
20
-6.2791
0
VERTEX
8
cockpit box bottom
10
2.488
20
-6.2999
0
VERTEX
8
cockpit box bottom
10
2.4887
20
-6.3207
0
VERTEX
8
cockpit box bottom
10
2.4894
20
-6.3415
0
VERTEX
8
cockpit box bottom
10
2.4121
20
-6.3429
0
VERTEX
8
cockpit box bottom
10
2.3347
20
-6.3443
0
VERTEX
8
cockpit box bottom
10
2.2574
20
-6.3457
0
VERTEX
8
cockpit box bottom
10
2.1801
20
-6.3471
0
VERTEX
8
cockpit box bottom
10
2.1022
20
-6.3478
0
SEQEND
0
POLYLINE
8
stations
62
135
66
1
0
VERTEX
8
stations
10
2.4867
20
-6.2583
0
VERTEX
8
stations
10
2.4867
20
-6.2591
0
VERTEX
8
stations
10
2.4867
20
-6.2599
0
VERTEX
8
stations
10
2.4867
20
-6.2608
0
VERTEX
8
stations
10
2.4868
20
-6.2616
0
VERTEX
8
stations
10
2.4868
20
-6.2624
0
VERTEX
8
stations
10
2.4868
20
-6.2633
0
VERTEX
8
stations
10
2.4869
20
-6.2641
0
VERTEX
8
stations
10
2.4869
20
-6.2649
0
VERTEX
8
stations
10
2.4869
20
-6.2658
0
VERTEX
8
stations
10
2.4869
20
-6.2666
0
VERTEX
8
stations
10
2.487
20
-6.2674
0
VERTEX
8
stations
10
2.487
20
-6.2682
0
VERTEX
8
stations
10
2.487
20
-6.2691
0
VERTEX
8
stations
10
2.487
20
-6.2699
0
VERTEX
8
stations
10
2.4871
20
-6.2707
0
VERTEX
8
stations
10
2.4871
20
-6.2716
0
VERTEX
8
stations
10
2.4871
20
-6.2724
0
VERTEX
8
stations
10
2.4872
20
-6.2732
0
VERTEX
8
stations
10
2.4872
20
-6.2741
0
VERTEX
8
stations
10
2.4872
20
-6.2749
0
VERTEX
8
stations
10
2.4872
20
-6.2757
0
VERTEX
8
stations
10
2.4873
20
-6.2766
0
VERTEX
8
stations
10
2.4873
20
-6.2774
0
VERTEX
8
stations
10
2.4873
20
-6.2782
0
VERTEX
8
stations
10
2.4873
20
-6.2791
0
VERTEX
8
stations
10
2.4874
20
-6.2799
0
VERTEX
8
stations
10
2.4874
20
-6.2807
0
VERTEX
8
stations
10
2.4874
20
-6.2816
0
VERTEX
8
stations
10
2.4875
20
-6.2824
0
VERTEX
8
stations
10
2.4875
20
-6.2832
0
VERTEX
8
stations
10
2.4875
20
-6.2841
0
VERTEX
8
stations
10
2.4875
20
-6.2849
0
VERTEX
8
stations
10
2.4876
20
-6.2857
0
VERTEX
8
stations
10
2.4876
20
-6.2866
0
VERTEX
8
stations
10
2.4876
20
-6.2874
0
VERTEX
8
stations
10
2.4876
20
-6.2882
0
VERTEX
8
stations
10
2.4877
20
-6.2891
0
VERTEX
8
stations
10
2.4877
20
-6.2899
0
VERTEX
8
stations
10
2.4877
20
-6.2907
0
VERTEX
8
stations
10
2.4878
20
-6.2916
0
VERTEX
8
stations
10
2.4878
20
-6.2924
0
VERTEX
8
stations
10
2.4878
20
-6.2932
0
VERTEX
8
stations
10
2.4878
20
-6.2941
0
VERTEX
8
stations
10
2.4879
20
-6.2949
0
VERTEX
8
stations
10
2.4879
20
-6.2957
0
VERTEX
8
stations
10
2.4879
20
-6.2966
0
VERTEX
8
stations
10
2.4879
20
-6.2974
0
VERTEX
8
stations
10
2.488
20
-6.2982
0
VERTEX
8
stations
10
2.488
20
-6.2991
0
VERTEX
8
stations
10
2.488
20
-6.2999
0
VERTEX
8
stations
10
2.4881
20
-6.3007
0
VERTEX
8
stations
10
2.4881
20
-6.3016
0
VERTEX
8
stations
10
2.4881
20
-6.3024
0
VERTEX
8
stations
10
2.4881
20
-6.3032
0
VERTEX
8
stations
10
2.4882
20
-6.3041
0
VERTEX
8
stations
10
2.4882
20
-6.3049
0
VERTEX
8
stations
10
2.4882
20
-6.3057
0
VERTEX
8
stations
10
2.4882
20
-6.3066
0
VERTEX
8
stations
10
2.4883
20
-6.3074
0
VERTEX
8
stations
10
2.4883
20
-6.3082
0
VERTEX
8
stations
10
2.4883
20
-6.3091
0
VERTEX
8
stations
10
2.4884
20
-6.3099
0
VERTEX
8
stations
10
2.4884
20
-6.3107
0
VERTEX
8
stations
10
2.4884
20
-6.3116
0
VERTEX
8
stations
10
2.4884
20
-6.3124
0
VERTEX
8
stations
10
2.4885
20
-6.3132
0
VERTEX
8
stations
10
2.4885
20
-6.314
0
VERTEX
8
stations
10
2.4885
20
-6.3149
0
VERTEX
8
stations
10
2.4885
20
-6.3157
0
VERTEX
8
stations
10
2.4886
20
-6.3165
0
VERTEX
8
stations
10
2.4886
20
-6.3174
0
VERTEX
8
stations
10
2.4886
20
-6.3182
0
VERTEX
8
stations
10
2.4887
20
-6.319
0
VERTEX
8
stations
10
2.4887
20
-6.3199
0
VERTEX
8
stations
10
2.4887
20
-6.3207
0
VERTEX
8
stations
10
2.4887
20
-6.3215
0
VERTEX
8
stations
10
2.4888
20
-6.3224
0
VERTEX
8
stations
10
2.4888
20
-6.3232
0
VERTEX
8
stations
10
2.4888
20
-6.324
0
VERTEX
8
stations
10
2.4888
20
-6.3249
0
VERTEX
8
stations
10
2.4889
20
-6.3257
0
VERTEX
8
stations
10
2.4889
20
-6.3265
0
VERTEX
8
stations
10
2.4889
20
-6.3274
0
VERTEX
8
stations
10
2.489
20
-6.3282
0
VERTEX
8
stations
10
2.489
20
-6.329
0
VERTEX
8
stations
10
2.489
20
-6.3299
0
VERTEX
8
stations
10
2.489
20
-6.3307
0
VERTEX
8
stations
10
2.4891
20
-6.3315
0
VERTEX
8
stations
10
2.4891
20
-6.3324
0
VERTEX
8
stations
10
2.4891
20
-6.3332
0
VERTEX
8
stations
10
2.4892
20
-6.334
0
VERTEX
8
stations
10
2.4892
20
-6.3349
0
VERTEX
8
stations
10
2.4892
20
-6.3357
0
VERTEX
8
stations
10
2.4892
20
-6.3365
0
VERTEX
8
stations
10
2.4893
20
-6.3374
0
VERTEX
8
stations
10
2.4893
20
-6.3382
0
VERTEX
8
stations
10
2.4893
20
-6.339
0
VERTEX
8
stations
10
2.4893
20
-6.3399
0
VERTEX
8
stations
10
2.4894
20
-6.3407
0
VERTEX
8
stations
10
2.4894
20
-6.3415
0
SEQEND
0
POLYLINE
8
waterlines
62
135
66
1
0
VERTEX
8
waterlines
10
0.0004
20
-6.2945
0
VERTEX
8
waterlines
10
0.0004
20
-6.2949
0
VERTEX
8
waterlines
10
0.0004
20
-6.2952
0
VERTEX
8
waterlines
10
0.0004
20
-6.2955
0
VERTEX
8
waterlines
10
0.0005
20
-6.2959
0
VERTEX
8
waterlines
10
0.0005
20
-6.2962
0
VERTEX
8
waterlines
10
0.0005
20
-6.2966
0
VERTEX
8
waterlines
10
0.0006
20
-6.2969
0
VERTEX
8
waterlines
10
0.0006
20
-6.2973
0
VERTEX
8
waterlines
10
0.0006
20
-6.2976
0
VERTEX
8
waterlines
10
0.0007
20
-6.2979
0
VERTEX
8
waterlines
10
0.0007
20
-6.2983
0
VERTEX
8
waterlines
10
0.0007
20
-6.2986
0
VERTEX
8
waterlines
10
0.0008
20
-6.299
0
VERTEX
8
waterlines
10
0.0008
20
-6.2993
0
VERTEX
8
waterlines
10
0.0008
20
-6.2997
0
VERTEX
8
waterlines
10
0.0008
20
-6.3
0
VERTEX
8
waterlines
10
0.0009
20
-6.3003
0
VERTEX
8
waterlines
10
0.0009
20
-6.3007
0
VERTEX
8
waterlines
10
0.0009
20
-6.301
0
VERTEX
8
waterlines
10
0.001
20
-6.3014
0
VERTEX
8
waterlines
10
0.001
20
-6.3017
0
VERTEX
8
waterlines
10
0.001
20
-6.3021
0
VERTEX
8
waterlines
10
0.001
20
-6.3024
0
VERTEX
8
waterlines
10
0.0011
20
-6.3027
0
VERTEX
8
waterlines
10
0.0011
20
-6.3031
0
VERTEX
8
waterlines
10
0.0011
20
-6.3034
0
VERTEX
8
waterlines
10
0.0011
20
-6.3038
0
VERTEX
8
waterlines
10
0.0012
20
-6.3041
0
VERTEX
8
waterlines
10
0.0012
20
-6.3045
0
VERTEX
8
waterlines
10
0.0012
20
-6.3048
0
VERTEX
8
waterlines
10
0.0013
20
-6.3051
0
VERTEX
8
waterlines
10
0.0013
20
-6.3055
0
VERTEX
8
waterlines
10
0.0013
20
-6.3058
0
VERTEX
8
waterlines
10
0.0013
20
-6.3062
0
VERTEX
8
waterlines
10
0.0014
20
-6.3065
0
VERTEX
8
waterlines
10
0.0014
20
-6.3069
0
VERTEX
8
waterlines
10
0.0014
20
-6.3072
0
VERTEX
8
waterlines
10
0.0014
20
-6.3075
0
VERTEX
8
waterlines
10
0.0015
20
-6.3079
0
VERTEX
8
waterlines
10
0.0015
20
-6.3082
0
VERTEX
8
waterlines
10
0.0015
20
-6.3086
0
VERTEX
8
waterlines
10
0.0015
20
-6.3089
0
VERTEX
8
waterlines
10
0.0015
20
-6.3093
0
VERTEX
8
waterlines
10
0.0016
20
-6.3096
0
VERTEX
8
waterlines
10
0.0016
20
-6.3099
0
VERTEX
8
waterlines
10
0.0016
20
-6.3103
0
VERTEX
8
waterlines
10
0.0016
20
-6.3106
0
VERTEX
8
waterlines
10
0.0016
20
-6.311
0
VERTEX
8
waterlines
10
0.0017
20
-6.3113
0
VERTEX
8
waterlines
10
0.0017
20
-6.3117
0
VERTEX
8
waterlines
10
0.0017
20
-6.312
0
VERTEX
8
waterlines
10
0.0017
20
-6.3123
0
VERTEX
8
waterlines
10
0.0017
20
-6.3127
0
VERTEX
8
waterlines
10
0.0018
20
-6.313
0
VERTEX
8
waterlines
10
0.0018
20
-6.3134
0
VERTEX
8
waterlines
10
0.0018
20
-6.3137
0
VERTEX
8
waterlines
10
0.0018
20
-6.3141
0
VERTEX
8
waterlines
10
0.0018
20
-6.3144
0
VERTEX
8
waterlines
10
0.0018
20
-6.3147
0
VERTEX
8
waterlines
10
0.0019
20
-6.3151
0
VERTEX
8
waterlines
10
0.0019
20
-6.3154
0
VERTEX
8
waterlines
10
0.0019
20
-6.3158
0
VERTEX
8
waterlines
10
0.0019
20
-6.3161
0
VERTEX
8
waterlines
10
0.0019
20
-6.3165
0
VERTEX
8
waterlines
10
0.0019
20
-6.3168
0
VERTEX
8
waterlines
10
0.0019
20
-6.3171
0
VERTEX
8
waterlines
10
0.002
20
-6.3175
0
VERTEX
8
waterlines
10
0.002
20
-6.3178
0
VERTEX
8
waterlines
10
0.002
20
-6.3182
0
VERTEX
8
waterlines
10
0.002
20
-6.3185
0
VERTEX
8
waterlines
10
0.002
20
-6.3189
0
VERTEX
8
waterlines
10
0.002
20
-6.3192
0
VERTEX
8
waterlines
10
0.002
20
-6.3195
0
VERTEX
8
waterlines
10
0.002
20
-6.3199
0
VERTEX
8
waterlines
10
0.002
20
-6.3202
0
VERTEX
8
waterlines
10
0.0021
20
-6.3206
0
VERTEX
8
waterlines
10
0.0021
20
-6.3209
0
VERTEX
8
waterlines
10
0.0021
20
-6.3213
0
VERTEX
8
waterlines
10
0.0021
20
-6.3216
0
VERTEX
8
waterlines
10
0.0021
20
-6.3219
0
VERTEX
8
waterlines
10
0.0021
20
-6.3223
0
VERTEX
8
waterlines
10
0.0021
20
-6.3226
0
VERTEX
8
waterlines
10
0.0021
20
-6.323
0
VERTEX
8
waterlines
10
0.0021
20
-6.3233
0
VERTEX
8
waterlines
10
0.0021
20
-6.3237
0
VERTEX
8
waterlines
10
0.0021
20
-6.324
0
VERTEX
8
waterlines
10
0.0022
20
-6.3243
0
VERTEX
8
waterlines
10
0.0022
20
-6.3247
0
VERTEX
8
waterlines
10
0.0022
20
-6.325
0
VERTEX
8
waterlines
10
0.0022
20
-6.3254
0
VERTEX
8
waterlines
10
0.0022
20
-6.3257
0
VERTEX
8
waterlines
10
0.0022
20
-6.3261
0
VERTEX
8
waterlines
10
0.0022
20
-6.3264
0
VERTEX
8
waterlines
10
0.0022
20
-6.3267
0
VERTEX
8
waterlines
10
0.0022
20
-6.3271
0
VERTEX
8
waterlines
10
0.0022
20
-6.3274
0
VERTEX
8
waterlines
10
0.0022
20
-6.3278
0
VERTEX
8
waterlines
10
0.0022
20
-6.3281
0
VERTEX
8
waterlines
10
0.0022
20
-6.3285
0
VERTEX
8
waterlines
10
0.0023
20
-6.3288
0
SEQEND
0
POLYLINE
8
cockpit box bottom
62
94
66
1
0
VERTEX
8
cockpit box bottom
10
2.1022
20
6.2321
0
VERTEX
8
cockpit box bottom
10
2.0243
20
6.2328
0
VERTEX
8
cockpit box bottom
10
1.9464
20
6.2335
0
VERTEX
8
cockpit box bottom
10
1.8686
20
6.2342
0
VERTEX
8
cockpit box bottom
10
1.7131
20
6.2335
0
VERTEX
8
cockpit box bottom
10
1.5576
20
6.2329
0
VERTEX
8
cockpit box bottom
10
1.4022
20
6.2322
0
VERTEX
8
cockpit box bottom
10
1.2467
20
6.2315
0
VERTEX
8
cockpit box bottom
10
0.9352
20
6.2269
0
VERTEX
8
cockpit box bottom
10
0.6237
20
6.2224
0
VERTEX
8
cockpit box bottom
10
0.3122
20
6.2178
0
VERTEX
8
cockpit box bottom
10
0.0007
20
6.2132
0
VERTEX
8
cockpit box bottom
10
0.0005
20
6.196
0
VERTEX
8
cockpit box bottom
10
0.0004
20
6.1789
0
VERTEX
8
cockpit box bottom
10
0.0002
20
6.1618
0
VERTEX
8
cockpit box bottom
10
0.0
20
6.1446
0
VERTEX
8
cockpit box bottom
10
0.6217
20
6.1441
0
VERTEX
8
cockpit box bottom
10
1.2433
20
6.1436
0
VERTEX
8
cockpit box bottom
10
1.865
20
6.1431
0
VERTEX
8
cockpit box bottom
10
2.4867
20
6.1426
0
VERTEX
8
cockpit box bottom
10
2.4874
20
6.1635
0
VERTEX
8
cockpit box bottom
10
2.488
20
6.1843
0
VERTEX
8
cockpit box bottom
10
2.4887
20
6.2051
0
VERTEX
8
cockpit box bottom
10
2.4894
20
6.2259
0
VERTEX
8
cockpit box bottom
10
2.4121
20
6.2273
0
VERTEX
8
cockpit box bottom
10
2.3347
20
6.2287
0
VERTEX
8
cockpit box bottom
10
2.2574
20
6.2301
0
VERTEX
8
cockpit box bottom
10
2.1801
20
6.2315
0
VERTEX
8
cockpit box bottom
10
2.1022
20
6.2321
0
SEQEND
0
POLYLINE
8
stations
62
135
66
1
0
VERTEX
8
stations
10
2.4867
20
6.1426
0
VERTEX
8
stations
10
2.4867
20
6.1435
0
VERTEX
8
stations
10
2.4867
20
6.1443
0
VERTEX
8
stations
10
2.4867
20
6.1451
0
VERTEX
8
stations
10
2.4868
20
6.146
0
VERTEX
8
stations
10
2.4868
20
6.1468
0
VERTEX
8
stations
10
2.4868
20
6.1476
0
VERTEX
8
stations
10
2.4869
20
6.1485
0
VERTEX
8
stations
10
2.4869
20
6.1493
0
VERTEX
8
stations
10
2.4869
20
6.1501
0
VERTEX
8
stations
10
2.4869
20
6.151
0
VERTEX
8
stations
10
2.487
20
6.1518
0
VERTEX
8
stations
10
2.487
20
6.1526
0
VERTEX
8
stations
10
2.487
20
6.1535
0
VERTEX
8
stations
10
2.487
20
6.1543
0
VERTEX
8
stations
10
2.4871
20
6.1551
0
VERTEX
8
stations
10
2.4871
20
6.156
0
VERTEX
8
stations
10
2.4871
20
6.1568
0
VERTEX
8
stations
10
2.4872
20
6.1576
0
VERTEX
8
stations
10
2.4872
20
6.1585
0
VERTEX
8
stations
10
2.4872
20
6.1593
0
VERTEX
8
stations
10
2.4872
20
6.1601
0
VERTEX
8
stations
10
2.4873
20
6.161
0
VERTEX
8
stations
10
2.4873
20
6.1618
0
VERTEX
8
stations
10
2.4873
20
6.1626
0
VERTEX
8
stations
10
2.4873
20
6.1635
0
VERTEX
8
stations
10
2.4874
20
6.1643
0
VERTEX
8
stations
10
2.4874
20
6.1651
0
VERTEX
8
stations
10
2.4874
20
6.166
0
VERTEX
8
stations
10
2.4875
20
6.1668
0
VERTEX
8
stations
10
2.4875
20
6.1676
0
VERTEX
8
stations
10
2.4875
20
6.1685
0
VERTEX
8
stations
10
2.4875
20
6.1693
0
VERTEX
8
stations
10
2.4876
20
6.1701
0
VERTEX
8
stations
10
2.4876
20
6.171
0
VERTEX
8
stations
10
2.4876
20
6.1718
0
VERTEX
8
stations
10
2.4876
20
6.1726
0
VERTEX
8
stations
10
2.4877
20
6.1735
0
VERTEX
8
stations
10
2.4877
20
6.1743
0
VERTEX
8
stations
10
2.4877
20
6.1751
0
VERTEX
8
stations
10
2.4878
20
6.176
0
VERTEX
8
stations
10
2.4878
20
6.1768
0
VERTEX
8
stations
10
2.4878
20
6.1776
0
VERTEX
8
stations
10
2.4878
20
6.1785
0
VERTEX
8
stations
10
2.4879
20
6.1793
0
VERTEX
8
stations
10
2.4879
20
6.1801
0
VERTEX
8
stations
10
2.4879
20
6.181
0
VERTEX
8
stations
10
2.4879
20
6.1818
0
VERTEX
8
stations
10
2.488
20
6.1826
0
VERTEX
8
stations
10
2.488
20
6.1834
0
VERTEX
8
stations
10
2.488
20
6.1843
0
VERTEX
8
stations
10
2.4881
20
6.1851
0
VERTEX
8
stations
10
2.4881
20
6.1859
0
VERTEX
8
stations
10
2.4881
20
6.1868
0
VERTEX
8
stations
10
2.4881
20
6.1876
0
VERTEX
8
stations
10
2.4882
20
6.1884
0
VERTEX
8
stations
10
2.4882
20
6.1893
0
VERTEX
8
stations
10
2.4882
20
6.1901
0
VERTEX
8
stations
10
2.4882
20
6.1909
0
VERTEX
8
stations
10
2.4883
20
6.1918
0
VERTEX
8
stations
10
2.4883
20
6.1926
0
VERTEX
8
stations
10
2.4883
20
6.1934
0
VERTEX
8
stations
10
2.4884
20
6.1943
0
VERTEX
8
stations
10
2.4884
20
6.1951
0
VERTEX
8
stations
10
2.4884
20
6.1959
0
VERTEX
8
stations
10
2.4884
20
6.1968
0
VERTEX
8
stations
10
2.4885
20
6.1976
0
VERTEX
8
stations
10
2.4885
20
6.1984
0
VERTEX
8
stations
10
2.4885
20
6.1993
0
VERTEX
8
stations
10
2.4885
20
6.2001
0
VERTEX
8
stations
10
2.4886
20
6.2009
0
VERTEX
8
stations
10
2.4886
20
6.2018
0
VERTEX
8
stations
10
2.4886
20
6.2026
0
VERTEX
8
stations
10
2.4887
20
6.2034
0
VERTEX
8
stations
10
2.4887
20
6.2043
0
VERTEX
8
stations
10
2.4887
20
6.2051
0
VERTEX
8
stations
10
2.4887
20
6.2059
0
VERTEX
8
stations
10
2.4888
20
6.2068
0
VERTEX
8
stations
10
2.4888
20
6.2076
0
VERTEX
8
stations
10
2.4888
20
6.2084
0
VERTEX
8
stations
10
2.4888
20
6.2093
0
VERTEX
8
stations
10
2.4889
20
6.2101
0
VERTEX
8
stations
10
2.4889
20
6.2109
0
VERTEX
8
stations
10
2.4889
20
6.2118
0
VERTEX
8
stations
10
2.489
20
6.2126
0
VERTEX
8
stations
10
2.489
20
6.2134
0
VERTEX
8
stations
10
2.489
20
6.2143
0
VERTEX
8
stations
10
2.489
20
6.2151
0
VERTEX
8
stations
10
2.4891
20
6.2159
0
VERTEX
8
stations
10
2.4891
20
6.2168
0
VERTEX
8
stations
10
2.4891
20
6.2176
0
VERTEX
8
stations
10
2.4892
20
6.2184
0
VERTEX
8
stations
10
2.4892
20
6.2193
0
VERTEX
8
stations
10
2.4892
20
6.2201
0
VERTEX
8
stations
10
2.4892
20
6.2209
0
VERTEX
8
stations
10
2.4893
20
6.2218
0
VERTEX
8
stations
10
2.4893
20
6.2226
0
VERTEX
8
stations
10
2.4893
20
6.2234
0
VERTEX
8
stations
10
2.4893
20
6.2243
0
VERTEX
8
stations
10
2.4894
20
6.2251
0
VERTEX
8
stations
10
2.4894
20
6.2259
0
SEQEND
0
POLYLINE
8
waterlines
62
135
66
1
0
VERTEX
8
waterlines
10
0.0004
20
6.1789
0
VERTEX
8
waterlines
10
0.0004
20
6.1792
0
VERTEX
8
waterlines
10
0.0004
20
6.1796
0
VERTEX
8
waterlines
10
0.0004
20
6.1799
0
VERTEX
8
waterlines
10
0.0005
20
6.1803
0
VERTEX
8
waterlines
10
0.0005
20
6.1806
0
VERTEX
8
waterlines
10
0.0005
20
6.181
0
VERTEX
8
waterlines
10
0.0006
20
6.1813
0
VERTEX
8
waterlines
10
0.0006
20
6.1816
0
VERTEX
8
waterlines
10
0.0006
20
6.182
0
VERTEX
8
waterlines
10
0.0007
20
6.1823
0
VERTEX
8
waterlines
10
0.0007
20
6.1827
0
VERTEX
8
waterlines
10
0.0007
20
6.183
0
VERTEX
8
waterlines
10
0.0008
20
6.1834
0
VERTEX
8
waterlines
10
0.0008
20
6.1837
0
VERTEX
8
waterlines
10
0.0008
20
6.184
0
VERTEX
8
waterlines
10
0.0008
20
6.1844
0
VERTEX
8
waterlines
10
0.0009
20
6.1847
0
VERTEX
8
waterlines
10
0.0009
20
6.1851
0
VERTEX
8
waterlines
10
0.0009
20
6.1854
0
VERTEX
8
waterlines
10
0.001
20
6.1858
0
VERTEX
8
waterlines
10
0.001
20
6.1861
0
VERTEX
8
waterlines
10
0.001
20
6.1864
0
VERTEX
8
waterlines
10
0.001
20
6.1868
0
VERTEX
8
waterlines
10
0.0011
20
6.1871
0
VERTEX
8
waterlines
10
0.0011
20
6.1875
0
VERTEX
8
waterlines
10
0.0011
20
6.1878
0
VERTEX
8
waterlines
10
0.0011
20
6.1882
0
VERTEX
8
waterlines
10
0.0012
20
6.1885
0
VERTEX
8
waterlines
10
0.0012
20
6.1888
0
VERTEX
8
waterlines
10
0.0012
20
6.1892
0
VERTEX
8
waterlines
10
0.0013
20
6.1895
0
VERTEX
8
waterlines
10
0.0013
20
6.1899
0
VERTEX
8
waterlines
10
0.0013
20
6.1902
0
VERTEX
8
waterlines
10
0.0013
20
6.1906
0
VERTEX
8
waterlines
10
0.0014
20
6.1909
0
VERTEX
8
waterlines
10
0.0014
20
6.1912
0
VERTEX
8
waterlines
10
0.0014
20
6.1916
0
VERTEX
8
waterlines
10
0.0014
20
6.1919
0
VERTEX
8
waterlines
10
0.0015
20
6.1923
0
VERTEX
8
waterlines
10
0.0015
20
6.1926
0
VERTEX
8
waterlines
10
0.0015
20
6.193
0
VERTEX
8
waterlines
10
0.0015
20
6.1933
0
VERTEX
8
waterlines
10
0.0015
20
6.1936
0
VERTEX
8
waterlines
10
0.0016
20
6.194
0
VERTEX
8
waterlines
10
0.0016
20
6.1943
0
VERTEX
8
waterlines
10
0.0016
20
6.1947
0
VERTEX
8
waterlines
10
0.0016
20
6.195
0
VERTEX
8
waterlines
10
0.0016
20
6.1954
0
VERTEX
8
waterlines
10
0.0017
20
6.1957
0
VERTEX
8
waterlines
10
0.0017
20
6.196
0
VERTEX
8
waterlines
10
0.0017
20
6.1964
0
VERTEX
8
waterlines
10
0.0017
20
6.1967
0
VERTEX
8
waterlines
10
0.0017
20
6.1971
0
VERTEX
8
waterlines
10
0.0018
20
6.1974
0
VERTEX
8
waterlines
10
0.0018
20
6.1978
0
VERTEX
8
waterlines
10
0.0018
20
6.1981
0
VERTEX
8
waterlines
10
0.0018
20
6.1984
0
VERTEX
8
waterlines
10
0.0018
20
6.1988
0
VERTEX
8
waterlines
10
0.0018
20
6.1991
0
VERTEX
8
waterlines
10
0.0019
20
6.1995
0
VERTEX
8
waterlines
10
0.0019
20
6.1998
0
VERTEX
8
waterlines
10
0.0019
20
6.2002
0
VERTEX
8
waterlines
10
0.0019
20
6.2005
0
VERTEX
8
waterlines
10
0.0019
20
6.2008
0
VERTEX
8
waterlines
10
0.0019
20
6.2012
0
VERTEX
8
waterlines
10
0.0019
20
6.2015
0
VERTEX
8
waterlines
10
0.002
20
6.2019
0
VERTEX
8
waterlines
10
0.002
20
6.2022
0
VERTEX
8
waterlines
10
0.002
20
6.2026
0
VERTEX
8
waterlines
10
0.002
20
6.2029
0
VERTEX
8
waterlines
10
0.002
20
6.2032
0
VERTEX
8
waterlines
10
0.002
20
6.2036
0
VERTEX
8
waterlines
10
0.002
20
6.2039
0
VERTEX
8
waterlines
10
0.002
20
6.2043
0
VERTEX
8
waterlines
10
0.002
20
6.2046
0
VERTEX
8
waterlines
10
0.0021
20
6.205
0
VERTEX
8
waterlines
10
0.0021
20
6.2053
0
VERTEX
8
waterlines
10
0.0021
20
6.2056
0
VERTEX
8
waterlines
10
0.0021
20
6.206
0
VERTEX
8
waterlines
10
0.0021
20
6.2063
0
VERTEX
8
waterlines
10
0.0021
20
6.2067
0
VERTEX
8
waterlines
10
0.0021
20
6.207
0
VERTEX
8
waterlines
10
0.0021
20
6.2074
0
VERTEX
8
waterlines
10
0.0021
20
6.2077
0
VERTEX
8
waterlines
10
0.0021
20
6.208
0
VERTEX
8
waterlines
10
0.0021
20
6.2084
0
VERTEX
8
waterlines
10
0.0022
20
6.2087
0
VERTEX
8
waterlines
10
0.0022
20
6.2091
0
VERTEX
8
waterlines
10
0.0022
20
6.2094
0
VERTEX
8
waterlines
10
0.0022
20
6.2098
0
VERTEX
8
waterlines
10
0.0022
20
6.2101
0
VERTEX
8
waterlines
10
0.0022
20
6.2105
0
VERTEX
8
waterlines
10
0.0022
20
6.2108
0
VERTEX
8
waterlines
10
0.0022
20
6.2111
0
VERTEX
8
waterlines
10
0.0022
20
6.2115
0
VERTEX
8
waterlines
10
0.0022
20
6.2118
0
VERTEX
8
waterlines
10
0.0022
20
6.2122
0
VERTEX
8
waterlines
10
0.0022
20
6.2125
0
VERTEX
8
waterlines
10
0.0022
20
6.2129
0
VERTEX
8
waterlines
10
0.0023
20
6.2132
0
SEQEND
0
POLYLINE
8
deck main
62
94
66
1
0
VERTEX
8
deck main
10
7.0259
20
-1.289
0
VERTEX
8
deck main
10
7.0217
20
-1.2446
0
VERTEX
8
deck main
10
7.0176
20
-1.2001
0
VERTEX
8
deck main
10
7.0135
20
-1.1556
0
VERTEX
8
deck main
10
6.3669
20
-1.2366
0
VERTEX
8
deck main
10
5.7203
20
-1.3176
0
VERTEX
8
deck main
10
5.0737
20
-1.3986
0
VERTEX
8
deck main
10
4.4271
20
-1.4797
0
VERTEX
8
deck main
10
4.1105
20
-1.5018
0
VERTEX
8
deck main
10
3.8086
20
-1.5221
0
VERTEX
8
deck main
10
3.5359
20
-1.5387
0
VERTEX
8
deck main
10
3.3072
20
-1.55
0
VERTEX
8
deck main
10
3.1369
20
-1.5539
0
VERTEX
8
deck main
10
3.0058
20
-1.5468
0
VERTEX
8
deck main
10
2.8943
20
-1.5249
0
VERTEX
8
deck main
10
2.7829
20
-1.4844
0
VERTEX
8
deck main
10
2.6523
20
-1.4216
0
VERTEX
8
deck main
10
2.5072
20
-1.3419
0
VERTEX
8
deck main
10
2.3524
20
-1.2511
0
VERTEX
8
deck main
10
2.1929
20
-1.1546
0
VERTEX
8
deck main
10
1.6446
20
-1.2054
0
VERTEX
8
deck main
10
1.0964
20
-1.2562
0
VERTEX
8
deck main
10
0.5482
20
-1.3069
0
VERTEX
8
deck main
10
0.0
20
-1.3577
0
VERTEX
8
deck main
10
0.4808
20
-1.4312
0
VERTEX
8
deck main
10
0.9414
20
-1.501
0
VERTEX
8
deck main
10
1.3616
20
-1.5634
0
VERTEX
8
deck main
10
1.721
20
-1.6148
0
VERTEX
8
deck main
10
1.9994
20
-1.6514
0
VERTEX
8
deck main
10
2.2171
20
-1.6771
0
VERTEX
8
deck main
10
2.3944
20
-1.6953
0
VERTEX
8
deck main
10
2.5514
20
-1.7099
0
VERTEX
8
deck main
10
2.7084
20
-1.7245
0
VERTEX
8
deck main
10
2.8754
20
-1.7373
0
VERTEX
8
deck main
10
3.0624
20
-1.7463
0
VERTEX
8
deck main
10
3.2795
20
-1.7498
0
VERTEX
8
deck main
10
3.5367
20
-1.7459
0
VERTEX
8
deck main
10
3.824
20
-1.7348
0
VERTEX
8
deck main
10
4.1318
20
-1.7166
0
VERTEX
8
deck main
10
4.4501
20
-1.6914
0
VERTEX
8
deck main
10
4.7692
20
-1.6594
0
VERTEX
8
deck main
10
5.0841
20
-1.6225
0
VERTEX
8
deck main
10
5.3898
20
-1.5827
0
VERTEX
8
deck main
10
5.6814
20
-1.5418
0
VERTEX
8
deck main
10
5.9539
20
-1.5018
0
VERTEX
8
deck main
10
6.202
20
-1.4641
0
VERTEX
8
deck main
10
6.4202
20
-1.4301
0
VERTEX
8
deck main
10
6.6031
20
-1.4011
0
VERTEX
8
deck main
10
6.7454
20
-1.3786
0
VERTEX
8
deck main
10
6.8572
20
-1.3609
0
VERTEX
8
deck main
10
6.9487
20
-1.3464
0
VERTEX
8
deck main
10
7.03
20
-1.3335
0
VERTEX
8
deck main
10
7.0259
20
-1.289
0
SEQEND
0
POLYLINE
8
deck main
62
94
66
1
0
VERTEX
8
deck main
10
6.9189
20
-0.1348
0
VERTEX
8
deck main
10
6.9231
20
-0.1792
0
VERTEX
8
deck main
10
6.9272
20
-0.2237
0
VERTEX
8
deck main
10
6.9313
20
-0.2682
0
VERTEX
8
deck main
10
6.2808
20
-0.3073
0
VERTEX
8
deck main
10
5.6304
20
-0.3465
0
VERTEX
8
deck main
10
4.9799
20
-0.3856
0
VERTEX
8
deck main
10
4.3294
20
-0.4247
0
VERTEX
8
deck main
10
4.0142
20
-0.4611
0
VERTEX
8
deck main
10
3.7136
20
-0.4966
0
VERTEX
8
deck main
10
3.4425
20
-0.5303
0
VERTEX
8
deck main
10
3.2156
20
-0.5613
0
VERTEX
8
deck main
10
3.0475
20
-0.5887
0
VERTEX
8
deck main
10
2.9199
20
-0.6197
0
VERTEX
8
deck main
10
2.8143
20
-0.6617
0
VERTEX
8
deck main
10
2.7123
20
-0.722
0
VERTEX
8
deck main
10
2.5954
20
-0.8078
0
VERTEX
8
deck main
10
2.4674
20
-0.9128
0
VERTEX
8
deck main
10
2.332
20
-1.0305
0
VERTEX
8
deck main
10
2.1929
20
-1.1546
0
VERTEX
8
deck main
10
1.6446
20
-1.2054
0
VERTEX
8
deck main
10
1.0964
20
-1.2562
0
VERTEX
8
deck main
10
0.5482
20
-1.307
0
VERTEX
8
deck main
10
0.0
20
-1.3577
0
VERTEX
8
deck main
10
0.4592
20
-1.1972
0
VERTEX
8
deck main
10
0.8991
20
-1.044
0
VERTEX
8
deck main
10
1.3006
20
-0.9055
0
VERTEX
8
deck main
10
1.6445
20
-0.789
0
VERTEX
8
deck main
10
1.9114
20
-0.7018
0
VERTEX
8
deck main
10
2.1207
20
-0.6366
0
VERTEX
8
deck main
10
2.2916
20
-0.5861
0
VERTEX
8
deck main
10
2.4433
20
-0.5429
0
VERTEX
8
deck main
10
2.5949
20
-0.4997
0
VERTEX
8
deck main
10
2.7567
20
-0.4565
0
VERTEX
8
deck main
10
2.9389
20
-0.4133
0
VERTEX
8
deck main
10
3.1517
20
-0.3699
0
VERTEX
8
deck main
10
3.4052
20
-0.3265
0
VERTEX
8
deck main
10
3.6897
20
-0.2847
0
VERTEX
8
deck main
10
3.9956
20
-0.2461
0
VERTEX
8
deck main
10
4.3132
20
-0.2124
0
VERTEX
8
deck main
10
4.6327
20
-0.1852
0
VERTEX
8
deck main
10
4.949
20
-0.1636
0
VERTEX
8
deck main
10
5.2568
20
-0.1466
0
VERTEX
8
deck main
10
5.5509
20
-0.1333
0
VERTEX
8
deck main
10
5.8261
20
-0.1225
0
VERTEX
8
deck main
10
6.0769
20
-0.114
0
VERTEX
8
deck main
10
6.2976
20
-0.1074
0
VERTEX
8
deck main
10
6.4828
20
-0.1022
0
VERTEX
8
deck main
10
6.6268
20
-0.0983
0
VERTEX
8
deck main
10
6.74
20
-0.0951
0
VERTEX
8
deck main
10
6.8325
20
-0.0926
0
VERTEX
8
deck main
10
6.9148
20
-0.0903
0
VERTEX
8
deck main
10
6.9189
20
-0.1348
0
SEQEND
0
POLYLINE
8
stations
62
135
66
1
0
VERTEX
8
stations
10
4.5463
20
-1.4647
0
VERTEX
8
stations
10
4.5465
20
-1.4674
0
VERTEX
8
stations
10
4.5468
20
-1.4701
0
VERTEX
8
stations
10
4.547
20
-1.4727
0
VERTEX
8
stations
10
4.5473
20
-1.4754
0
VERTEX
8
stations
10
4.5475
20
-1.478
0
VERTEX
8
stations
10
4.5478
20
-1.4805
0
VERTEX
8
stations
10
4.548
20
-1.483
0
VERTEX
8
stations
10
4.5482
20
-1.4855
0
VERTEX
8
stations
10
4.5484
20
-1.4878
0
VERTEX
8
stations
10
4.5486
20
-1.4901
0
VERTEX
8
stations
10
4.5488
20
-1.4924
0
VERTEX
8
stations
10
4.549
20
-1.4945
0
VERTEX
8
stations
10
4.5492
20
-1.4965
0
VERTEX
8
stations
10
4.5494
20
-1.4984
0
VERTEX
8
stations
10
4.5496
20
-1.5002
0
VERTEX
8
stations
10
4.5497
20
-1.5019
0
VERTEX
8
stations
10
4.5499
20
-1.5034
0
VERTEX
8
stations
10
4.55
20
-1.5048
0
VERTEX
8
stations
10
4.5501
20
-1.5061
0
VERTEX
8
stations
10
4.5502
20
-1.5072
0
VERTEX
8
stations
10
4.5503
20
-1.5082
0
VERTEX
8
stations
10
4.5504
20
-1.5091
0
VERTEX
8
stations
10
4.5505
20
-1.51
0
VERTEX
8
stations
10
4.5506
20
-1.5108
0
VERTEX
8
stations
10
4.5506
20
-1.5118
0
VERTEX
8
stations
10
4.5507
20
-1.5128
0
VERTEX
8
stations
10
4.5509
20
-1.514
0
VERTEX
8
stations
10
4.551
20
-1.5153
0
VERTEX
8
stations
10
4.5511
20
-1.5168
0
VERTEX
8
stations
10
4.5513
20
-1.5184
0
VERTEX
8
stations
10
4.5514
20
-1.5202
0
VERTEX
8
stations
10
4.5516
20
-1.5222
0
VERTEX
8
stations
10
4.5518
20
-1.5243
0
VERTEX
8
stations
10
4.552
20
-1.5265
0
VERTEX
8
stations
10
4.5522
20
-1.5289
0
VERTEX
8
stations
10
4.5525
20
-1.5313
0
VERTEX
8
stations
10
4.5527
20
-1.5339
0
VERTEX
8
stations
10
4.5529
20
-1.5365
0
VERTEX
8
stations
10
4.5532
20
-1.5392
0
VERTEX
8
stations
10
4.5534
20
-1.542
0
VERTEX
8
stations
10
4.5537
20
-1.5448
0
VERTEX
8
stations
10
4.554
20
-1.5477
0
VERTEX
8
stations
10
4.5543
20
-1.5507
0
VERTEX
8
stations
10
4.5545
20
-1.5536
0
VERTEX
8
stations
10
4.5548
20
-1.5566
0
VERTEX
8
stations
10
4.5551
20
-1.5596
0
VERTEX
8
stations
10
4.5554
20
-1.5626
0
VERTEX
8
stations
10
4.5556
20
-1.5655
0
VERTEX
8
stations
10
4.5559
20
-1.5685
0
VERTEX
8
stations
10
4.5562
20
-1.5714
0
VERTEX
8
stations
10
4.5564
20
-1.5743
0
VERTEX
8
stations
10
4.5567
20
-1.5772
0
VERTEX
8
stations
10
4.557
20
-1.58
0
VERTEX
8
stations
10
4.5572
20
-1.5827
0
VERTEX
8
stations
10
4.5575
20
-1.5854
0
VERTEX
8
stations
10
4.5577
20
-1.588
0
VERTEX
8
stations
10
4.558
20
-1.5906
0
VERTEX
8
stations
10
4.5582
20
-1.5931
0
VERTEX
8
stations
10
4.5584
20
-1.5955
0
VERTEX
8
stations
10
4.5586
20
-1.5978
0
VERTEX
8
stations
10
4.5588
20
-1.6001
0
VERTEX
8
stations
10
4.559
20
-1.6022
0
VERTEX
8
stations
10
4.5592
20
-1.6042
0
VERTEX
8
stations
10
4.5594
20
-1.6062
0
VERTEX
8
stations
10
4.5596
20
-1.608
0
VERTEX
8
stations
10
4.5597
20
-1.6097
0
VERTEX
8
stations
10
4.5599
20
-1.6113
0
VERTEX
8
stations
10
4.56
20
-1.6127
0
VERTEX
8
stations
10
4.5601
20
-1.614
0
VERTEX
8
stations
10
4.5602
20
-1.6152
0
VERTEX
8
stations
10
4.5603
20
-1.6163
0
VERTEX
8
stations
10
4.5604
20
-1.6173
0
VERTEX
8
stations
10
4.5605
20
-1.6183
0
VERTEX
8
stations
10
4.5606
20
-1.6193
0
VERTEX
8
stations
10
4.5607
20
-1.6203
0
VERTEX
8
stations
10
4.5608
20
-1.6214
0
VERTEX
8
stations
10
4.5609
20
-1.6226
0
VERTEX
8
stations
10
4.561
20
-1.6239
0
VERTEX
8
stations
10
4.5612
20
-1.6253
0
VERTEX
8
stations
10
4.5613
20
-1.6269
0
VERTEX
8
stations
10
4.5615
20
-1.6286
0
VERTEX
8
stations
10
4.5616
20
-1.6305
0
VERTEX
8
stations
10
4.5618
20
-1.6325
0
VERTEX
8
stations
10
4.562
20
-1.6347
0
VERTEX
8
stations
10
4.5622
20
-1.6369
0
VERTEX
8
stations
10
4.5625
20
-1.6393
0
VERTEX
8
stations
10
4.5627
20
-1.6418
0
VERTEX
8
stations
10
4.5629
20
-1.6443
0
VERTEX
8
stations
10
4.5632
20
-1.647
0
VERTEX
8
stations
10
4.5634
20
-1.6497
0
VERTEX
8
stations
10
4.5637
20
-1.6525
0
VERTEX
8
stations
10
4.5639
20
-1.6554
0
VERTEX
8
stations
10
4.5642
20
-1.6583
0
VERTEX
8
stations
10
4.5645
20
-1.6612
0
VERTEX
8
stations
10
4.5648
20
-1.6643
0
VERTEX
8
stations
10
4.5651
20
-1.6673
0
VERTEX
8
stations
10
4.5653
20
-1.6704
0
VERTEX
8
stations
10
4.5656
20
-1.6735
0
VERTEX
8
stations
10
4.5659
20
-1.6766
0
VERTEX
8
stations
10
4.5662
20
-1.6797
0
SEQEND
0
POLYLINE
8
stations
62
135
66
1
0
VERTEX
8
stations
10
4.4493
20
-0.4175
0
VERTEX
8
stations
10
4.449
20
-0.4148
0
VERTEX
8
stations
10
4.4488
20
-0.4122
0
VERTEX
8
stations
10
4.4485
20
-0.4095
0
VERTEX
8
stations
10
4.4483
20
-0.4069
0
VERTEX
8
stations
10
4.4481
20
-0.4043
0
VERTEX
8
stations
10
4.4478
20
-0.4017
0
VERTEX
8
stations
10
4.4476
20
-0.3992
0
VERTEX
8
stations
10
4.4474
20
-0.3968
0
VERTEX
8
stations
10
4.4472
20
-0.3944
0
VERTEX
8
stations
10
4.4469
20
-0.3921
0
VERTEX
8
stations
10
4.4467
20
-0.3899
0
VERTEX
8
stations
10
4.4465
20
-0.3878
0
VERTEX
8
stations
10
4.4463
20
-0.3857
0
VERTEX
8
stations
10
4.4462
20
-0.3838
0
VERTEX
8
stations
10
4.446
20
-0.382
0
VERTEX
8
stations
10
4.4458
20
-0.3803
0
VERTEX
8
stations
10
4.4457
20
-0.3788
0
VERTEX
8
stations
10
4.4456
20
-0.3774
0
VERTEX
8
stations
10
4.4455
20
-0.3762
0
VERTEX
8
stations
10
4.4454
20
-0.3751
0
VERTEX
8
stations
10
4.4453
20
-0.3741
0
VERTEX
8
stations
10
4.4452
20
-0.3732
0
VERTEX
8
stations
10
4.4451
20
-0.3723
0
VERTEX
8
stations
10
4.445
20
-0.3714
0
VERTEX
8
stations
10
4.4449
20
-0.3705
0
VERTEX
8
stations
10
4.4448
20
-0.3694
0
VERTEX
8
stations
10
4.4447
20
-0.3683
0
VERTEX
8
stations
10
4.4446
20
-0.367
0
VERTEX
8
stations
10
4.4445
20
-0.3655
0
VERTEX
8
stations
10
4.4443
20
-0.3638
0
VERTEX
8
stations
10
4.4441
20
-0.362
0
VERTEX
8
stations
10
4.444
20
-0.36
0
VERTEX
8
stations
10
4.4438
20
-0.3579
0
VERTEX
8
stations
10
4.4436
20
-0.3557
0
VERTEX
8
stations
10
4.4433
20
-0.3534
0
VERTEX
8
stations
10
4.4431
20
-0.3509
0
VERTEX
8
stations
10
4.4429
20
-0.3484
0
VERTEX
8
stations
10
4.4426
20
-0.3457
0
VERTEX
8
stations
10
4.4424
20
-0.343
0
VERTEX
8
stations
10
4.4421
20
-0.3402
0
VERTEX
8
stations
10
4.4419
20
-0.3374
0
VERTEX
8
stations
10
4.4416
20
-0.3345
0
VERTEX
8
stations
10
4.4413
20
-0.3316
0
VERTEX
8
stations
10
4.4411
20
-0.3286
0
VERTEX
8
stations
10
4.4408
20
-0.3256
0
VERTEX
8
stations
10
4.4405
20
-0.3227
0
VERTEX
8
stations
10
4.4402
20
-0.3197
0
VERTEX
8
stations
10
4.44
20
-0.3167
0
VERTEX
8
stations
10
4.4397
20
-0.3137
0
VERTEX
8
stations
10
4.4394
20
-0.3108
0
VERTEX
8
stations
10
4.4391
20
-0.3079
0
VERTEX
8
stations
10
4.4389
20
-0.3051
0
VERTEX
8
stations
10
4.4386
20
-0.3023
0
VERTEX
8
stations
10
4.4384
20
-0.2995
0
VERTEX
8
stations
10
4.4381
20
-0.2968
0
VERTEX
8
stations
10
4.4379
20
-0.2942
0
VERTEX
8
stations
10
4.4376
20
-0.2916
0
VERTEX
8
stations
10
4.4374
20
-0.2891
0
VERTEX
8
stations
10
4.4372
20
-0.2867
0
VERTEX
8
stations
10
4.437
20
-0.2844
0
VERTEX
8
stations
10
4.4368
20
-0.2822
0
VERTEX
8
stations
10
4.4366
20
-0.28
0
VERTEX
8
stations
10
4.4364
20
-0.278
0
VERTEX
8
stations
10
4.4362
20
-0.2761
0
VERTEX
8
stations
10
4.436
20
-0.2742
0
VERTEX
8
stations
10
4.4359
20
-0.2725
0
VERTEX
8
stations
10
4.4357
20
-0.271
0
VERTEX
8
stations
10
4.4356
20
-0.2695
0
VERTEX
8
stations
10
4.4355
20
-0.2682
0
VERTEX
8
stations
10
4.4354
20
-0.267
0
VERTEX
8
stations
10
4.4353
20
-0.2659
0
VERTEX
8
stations
10
4.4352
20
-0.2649
0
VERTEX
8
stations
10
4.4351
20
-0.2639
0
VERTEX
8
stations
10
4.435
20
-0.2629
0
VERTEX
8
stations
10
4.4349
20
-0.2619
0
VERTEX
8
stations
10
4.4348
20
-0.2609
0
VERTEX
8
stations
10
4.4347
20
-0.2597
0
VERTEX
8
stations
10
4.4346
20
-0.2584
0
VERTEX
8
stations
10
4.4344
20
-0.2569
0
VERTEX
8
stations
10
4.4343
20
-0.2553
0
VERTEX
8
stations
10
4.4341
20
-0.2536
0
VERTEX
8
stations
10
4.4339
20
-0.2517
0
VERTEX
8
stations
10
4.4337
20
-0.2497
0
VERTEX
8
stations
10
4.4335
20
-0.2476
0
VERTEX
8
stations
10
4.4333
20
-0.2453
0
VERTEX
8
stations
10
4.4331
20
-0.2429
0
VERTEX
8
stations
10
4.4329
20
-0.2405
0
VERTEX
8
stations
10
4.4327
20
-0.2379
0
VERTEX
8
stations
10
4.4324
20
-0.2353
0
VERTEX
8
stations
10
4.4322
20
-0.2326
0
VERTEX
8
stations
10
4.4319
20
-0.2298
0
VERTEX
8
stations
10
4.4316
20
-0.2269
0
VERTEX
8
stations
10
4.4314
20
-0.224
0
VERTEX
8
stations
10
4.4311
20
-0.221
0
VERTEX
8
stations
10
4.4308
20
-0.218
0
VERTEX
8
stations
10
4.4305
20
-0.2149
0
VERTEX
8
stations
10
4.4302
20
-0.2118
0
VERTEX
8
stations
10
4.43
20
-0.2087
0
VERTEX
8
stations
10
4.4297
20
-0.2056
0
VERTEX
8
stations
10
4.4294
20
-0.2025
0
SEQEND
0
ENDSEC
0
EOF
