0
SECTION
2
ENTITIES
0
POLYLINE
8
front aka
62
94
66
1
0
VERTEX
8
front aka
10
0.0017
20
0.12
0
VERTEX
8
front aka
10
0.0018
20
0.097
0
VERTEX
8
front aka
10
0.0019
20
0.0744
0
VERTEX
8
front aka
10
0.0019
20
0.0518
0
VERTEX
8
front aka
10
0.002
20
0.0292
0
VERTEX
8
front aka
10
0.0
20
0.5717
0
VERTEX
8
front aka
10
0.0001
20
0.5491
0
VERTEX
8
front aka
10
0.0002
20
0.5265
0
VERTEX
8
front aka
10
0.0003
20
0.504
0
VERTEX
8
front aka
10
0.0003
20
0.4814
0
VERTEX
8
front aka
10
0.0004
20
0.4564
0
VERTEX
8
front aka
10
0.0005
20
0.4314
0
VERTEX
8
front aka
10
0.0006
20
0.4063
0
VERTEX
8
front aka
10
0.0007
20
0.3813
0
VERTEX
8
front aka
10
0.0008
20
0.3563
0
VERTEX
8
front aka
10
0.0009
20
0.3313
0
VERTEX
8
front aka
10
0.001
20
0.3063
0
VERTEX
8
front aka
10
0.0011
20
0.2813
0
VERTEX
8
front aka
10
0.0012
20
0.2582
0
VERTEX
8
front aka
10
0.0013
20
0.2352
0
VERTEX
8
front aka
10
0.0013
20
0.2122
0
VERTEX
8
front aka
10
0.0014
20
0.1891
0
VERTEX
8
front aka
10
0.0015
20
0.1661
0
VERTEX
8
front aka
10
0.0016
20
0.143
0
VERTEX
8
front aka
10
0.0017
20
0.12
0
SEQEND
0
POLYLINE
8
back aka
62
94
66
1
0
VERTEX
8
back aka
10
2.4028
20
-1.0245
0
VERTEX
8
back aka
10
2.4028
20
-1.0475
0
VERTEX
8
back aka
10
2.4028
20
-1.0705
0
VERTEX
8
back aka
10
2.4028
20
-1.0936
0
VERTEX
8
back aka
10
2.4028
20
-1.1161
0
VERTEX
8
back aka
10
2.4028
20
-1.1387
0
VERTEX
8
back aka
10
2.4028
20
-1.1613
0
VERTEX
8
back aka
10
2.4028
20
-1.1839
0
VERTEX
8
back aka
10
2.4028
20
-0.6414
0
VERTEX
8
back aka
10
2.4028
20
-0.664
0
VERTEX
8
back aka
10
2.4028
20
-0.6866
0
VERTEX
8
back aka
10
2.4028
20
-0.7092
0
VERTEX
8
back aka
10
2.4028
20
-0.7342
0
VERTEX
8
back aka
10
2.4028
20
-0.7592
0
VERTEX
8
back aka
10
2.4028
20
-0.7842
0
VERTEX
8
back aka
10
2.4028
20
-0.8092
0
VERTEX
8
back aka
10
2.4028
20
-0.8342
0
VERTEX
8
back aka
10
2.4028
20
-0.8592
0
VERTEX
8
back aka
10
2.4028
20
-0.8843
0
VERTEX
8
back aka
10
2.4028
20
-0.9093
0
VERTEX
8
back aka
10
2.4028
20
-0.9323
0
VERTEX
8
back aka
10
2.4028
20
-0.9553
0
VERTEX
8
back aka
10
2.4028
20
-0.9784
0
VERTEX
8
back aka
10
2.4028
20
-1.0014
0
VERTEX
8
back aka
10
2.4028
20
-1.0245
0
SEQEND
0
POLYLINE
8
back aka
62
94
66
1
0
VERTEX
8
back aka
10
2.4028
20
1.0245
0
VERTEX
8
back aka
10
2.4028
20
1.0475
0
VERTEX
8
back aka
10
2.4028
20
1.0705
0
VERTEX
8
back aka
10
2.4028
20
1.0936
0
VERTEX
8
back aka
10
2.4028
20
1.1161
0
VERTEX
8
back aka
10
2.4028
20
1.1387
0
VERTEX
8
back aka
10
2.4028
20
1.1613
0
VERTEX
8
back aka
10
2.4028
20
1.1839
0
VERTEX
8
back aka
10
2.4028
20
0.6414
0
VERTEX
8
back aka
10
2.4028
20
0.664
0
VERTEX
8
back aka
10
2.4028
20
0.6866
0
VERTEX
8
back aka
10
2.4028
20
0.7092
0
VERTEX
8
back aka
10
2.4028
20
0.7342
0
VERTEX
8
back aka
10
2.4028
20
0.7592
0
VERTEX
8
back aka
10
2.4028
20
0.7842
0
VERTEX
8
back aka
10
2.4028
20
0.8092
0
VERTEX
8
back aka
10
2.4028
20
0.8342
0
VERTEX
8
back aka
10
2.4028
20
0.8592
0
VERTEX
8
back aka
10
2.4028
20
0.8843
0
VERTEX
8
back aka
10
2.4028
20
0.9093
0
VERTEX
8
back aka
10
2.4028
20
0.9323
0
VERTEX
8
back aka
10
2.4028
20
0.9553
0
VERTEX
8
back aka
10
2.4028
20
0.9784
0
VERTEX
8
back aka
10
2.4028
20
1.0014
0
VERTEX
8
back aka
10
2.4028
20
1.0245
0
SEQEND
0
POLYLINE
8
ama side
62
94
66
1
0
VERTEX
8
ama side
10
3.6406
20
-1.5263
0
VERTEX
8
ama side
10
3.5615
20
-1.526
0
VERTEX
8
ama side
10
3.481
20
-1.5257
0
VERTEX
8
ama side
10
3.3986
20
-1.5254
0
VERTEX
8
ama side
10
3.3138
20
-1.525
0
VERTEX
8
ama side
10
3.2261
20
-1.5247
0
VERTEX
8
ama side
10
3.135
20
-1.5243
0
VERTEX
8
ama side
10
3.0401
20
-1.5238
0
VERTEX
8
ama side
10
2.9411
20
-1.5233
0
VERTEX
8
ama side
10
2.8375
20
-1.5227
0
VERTEX
8
ama side
10
2.729
20
-1.5221
0
VERTEX
8
ama side
10
2.6153
20
-1.5214
0
VERTEX
8
ama side
10
2.496
20
-1.5206
0
VERTEX
8
ama side
10
2.3709
20
-1.5198
0
VERTEX
8
ama side
10
2.2395
20
-1.5189
0
VERTEX
8
ama side
10
2.1014
20
-1.5179
0
VERTEX
8
ama side
10
1.9588
20
-1.5168
0
VERTEX
8
ama side
10
1.8136
20
-1.5157
0
VERTEX
8
ama side
10
1.6678
20
-1.5145
0
VERTEX
8
ama side
10
1.5234
20
-1.5133
0
VERTEX
8
ama side
10
1.3825
20
-1.5122
0
VERTEX
8
ama side
10
1.2469
20
-1.511
0
VERTEX
8
ama side
10
1.1189
20
-1.51
0
VERTEX
8
ama side
10
1.0002
20
-1.5089
0
VERTEX
8
ama side
10
0.8906
20
-1.508
0
VERTEX
8
ama side
10
0.7894
20
-1.5071
0
VERTEX
8
ama side
10
0.6962
20
-1.5063
0
VERTEX
8
ama side
10
0.6105
20
-1.5055
0
VERTEX
8
ama side
10
0.5318
20
-1.5048
0
VERTEX
8
ama side
10
0.4597
20
-1.5041
0
VERTEX
8
ama side
10
0.3936
20
-1.5035
0
VERTEX
8
ama side
10
0.3331
20
-1.503
0
VERTEX
8
ama side
10
0.2775
20
-1.5025
0
VERTEX
8
ama side
10
0.226
20
-1.502
0
VERTEX
8
ama side
10
0.178
20
-1.5016
0
VERTEX
8
ama side
10
0.1328
20
-1.5012
0
VERTEX
8
ama side
10
0.0897
20
-1.5008
0
VERTEX
8
ama side
10
0.048
20
-1.5005
0
VERTEX
8
ama side
10
0.007
20
-1.5001
0
VERTEX
8
ama side
10
0.0061
20
-1.6005
0
VERTEX
8
ama side
10
0.0052
20
-1.7009
0
VERTEX
8
ama side
10
0.0044
20
-1.8012
0
VERTEX
8
ama side
10
0.0035
20
-1.9016
0
VERTEX
8
ama side
10
0.0026
20
-2.002
0
VERTEX
8
ama side
10
0.0017
20
-2.1024
0
VERTEX
8
ama side
10
0.0009
20
-2.2027
0
VERTEX
8
ama side
10
0.0
20
-2.3031
0
VERTEX
8
ama side
10
0.0411
20
-2.3035
0
VERTEX
8
ama side
10
0.0829
20
-2.3039
0
VERTEX
8
ama side
10
0.126
20
-2.3043
0
VERTEX
8
ama side
10
0.1713
20
-2.3047
0
VERTEX
8
ama side
10
0.2194
20
-2.3052
0
VERTEX
8
ama side
10
0.2709
20
-2.3057
0
VERTEX
8
ama side
10
0.3267
20
-2.3063
0
VERTEX
8
ama side
10
0.3873
20
-2.3069
0
VERTEX
8
ama side
10
0.4535
20
-2.3075
0
VERTEX
8
ama side
10
0.5258
20
-2.3082
0
VERTEX
8
ama side
10
0.6046
20
-2.309
0
VERTEX
8
ama side
10
0.6905
20
-2.3099
0
VERTEX
8
ama side
10
0.7838
20
-2.3108
0
VERTEX
8
ama side
10
0.8852
20
-2.3118
0
VERTEX
8
ama side
10
0.9951
20
-2.3128
0
VERTEX
8
ama side
10
1.1139
20
-2.3139
0
VERTEX
8
ama side
10
1.2422
20
-2.3151
0
VERTEX
8
ama side
10
1.3779
20
-2.3163
0
VERTEX
8
ama side
10
1.5191
20
-2.3176
0
VERTEX
8
ama side
10
1.6637
20
-2.3188
0
VERTEX
8
ama side
10
1.8097
20
-2.32
0
VERTEX
8
ama side
10
1.9552
20
-2.3212
0
VERTEX
8
ama side
10
2.098
20
-2.3223
0
VERTEX
8
ama side
10
2.2363
20
-2.3233
0
VERTEX
8
ama side
10
2.368
20
-2.3243
0
VERTEX
8
ama side
10
2.4935
20
-2.3251
0
VERTEX
8
ama side
10
2.613
20
-2.3258
0
VERTEX
8
ama side
10
2.727
20
-2.3265
0
VERTEX
8
ama side
10
2.8357
20
-2.3271
0
VERTEX
8
ama side
10
2.9395
20
-2.3276
0
VERTEX
8
ama side
10
3.0388
20
-2.328
0
VERTEX
8
ama side
10
3.1339
20
-2.3284
0
VERTEX
8
ama side
10
3.2251
20
-2.3287
0
VERTEX
8
ama side
10
3.3129
20
-2.3289
0
VERTEX
8
ama side
10
3.3977
20
-2.3292
0
VERTEX
8
ama side
10
3.4802
20
-2.3294
0
VERTEX
8
ama side
10
3.5607
20
-2.3295
0
VERTEX
8
ama side
10
3.6398
20
-2.3297
0
VERTEX
8
ama side
10
3.7179
20
-2.3298
0
VERTEX
8
ama side
10
3.7955
20
-2.3299
0
VERTEX
8
ama side
10
3.8732
20
-2.3301
0
VERTEX
8
ama side
10
3.9533
20
-2.3302
0
VERTEX
8
ama side
10
4.0384
20
-2.3303
0
VERTEX
8
ama side
10
4.1309
20
-2.3305
0
VERTEX
8
ama side
10
4.2334
20
-2.3306
0
VERTEX
8
ama side
10
4.3483
20
-2.3307
0
VERTEX
8
ama side
10
4.4781
20
-2.3309
0
VERTEX
8
ama side
10
4.6253
20
-2.331
0
VERTEX
8
ama side
10
4.7924
20
-2.3312
0
VERTEX
8
ama side
10
4.9769
20
-2.3314
0
VERTEX
8
ama side
10
5.1764
20
-2.3317
0
VERTEX
8
ama side
10
5.3882
20
-2.332
0
VERTEX
8
ama side
10
5.61
20
-2.3323
0
VERTEX
8
ama side
10
5.8393
20
-2.3328
0
VERTEX
8
ama side
10
6.0735
20
-2.3333
0
VERTEX
8
ama side
10
6.3103
20
-2.3338
0
VERTEX
8
ama side
10
6.547
20
-2.3346
0
VERTEX
8
ama side
10
6.7812
20
-2.3354
0
VERTEX
8
ama side
10
7.0105
20
-2.3362
0
VERTEX
8
ama side
10
7.2323
20
-2.3371
0
VERTEX
8
ama side
10
7.4441
20
-2.3379
0
VERTEX
8
ama side
10
7.6436
20
-2.3388
0
VERTEX
8
ama side
10
7.8281
20
-2.3396
0
VERTEX
8
ama side
10
7.9952
20
-2.3403
0
VERTEX
8
ama side
10
8.1424
20
-2.341
0
VERTEX
8
ama side
10
8.2722
20
-2.3416
0
VERTEX
8
ama side
10
8.3871
20
-2.3421
0
VERTEX
8
ama side
10
8.4896
20
-2.3425
0
VERTEX
8
ama side
10
8.5821
20
-2.3429
0
VERTEX
8
ama side
10
8.6672
20
-2.3432
0
VERTEX
8
ama side
10
8.7473
20
-2.3435
0
VERTEX
8
ama side
10
8.825
20
-2.3438
0
VERTEX
8
ama side
10
8.9026
20
-2.3441
0
VERTEX
8
ama side
10
8.9807
20
-2.3444
0
VERTEX
8
ama side
10
9.0598
20
-2.3447
0
VERTEX
8
ama side
10
9.1403
20
-2.345
0
VERTEX
8
ama side
10
9.2228
20
-2.3452
0
VERTEX
8
ama side
10
9.3076
20
-2.3455
0
VERTEX
8
ama side
10
9.3954
20
-2.3457
0
VERTEX
8
ama side
10
9.4866
20
-2.3459
0
VERTEX
8
ama side
10
9.5817
20
-2.3461
0
VERTEX
8
ama side
10
9.681
20
-2.3462
0
VERTEX
8
ama side
10
9.7848
20
-2.3463
0
VERTEX
8
ama side
10
9.8935
20
-2.3463
0
VERTEX
8
ama side
10
10.0075
20
-2.3463
0
VERTEX
8
ama side
10
10.127
20
-2.3462
0
VERTEX
8
ama side
10
10.2525
20
-2.346
0
VERTEX
8
ama side
10
10.3842
20
-2.3458
0
VERTEX
8
ama side
10
10.5225
20
-2.3456
0
VERTEX
8
ama side
10
10.6653
20
-2.3452
0
VERTEX
8
ama side
10
10.8108
20
-2.3449
0
VERTEX
8
ama side
10
10.9568
20
-2.3444
0
VERTEX
8
ama side
10
11.1014
20
-2.344
0
VERTEX
8
ama side
10
11.2426
20
-2.3435
0
VERTEX
8
ama side
10
11.3783
20
-2.3431
0
VERTEX
8
ama side
10
11.5066
20
-2.3426
0
VERTEX
8
ama side
10
11.6255
20
-2.3421
0
VERTEX
8
ama side
10
11.7353
20
-2.3417
0
VERTEX
8
ama side
10
11.8367
20
-2.3413
0
VERTEX
8
ama side
10
11.9301
20
-2.3409
0
VERTEX
8
ama side
10
12.016
20
-2.3405
0
VERTEX
8
ama side
10
12.0948
20
-2.3402
0
VERTEX
8
ama side
10
12.1671
20
-2.3398
0
VERTEX
8
ama side
10
12.2333
20
-2.3395
0
VERTEX
8
ama side
10
12.2939
20
-2.3393
0
VERTEX
8
ama side
10
12.3497
20
-2.339
0
VERTEX
8
ama side
10
12.4012
20
-2.3388
0
VERTEX
8
ama side
10
12.4493
20
-2.3386
0
VERTEX
8
ama side
10
12.4945
20
-2.3384
0
VERTEX
8
ama side
10
12.5377
20
-2.3383
0
VERTEX
8
ama side
10
12.5795
20
-2.3381
0
VERTEX
8
ama side
10
12.6206
20
-2.3379
0
VERTEX
8
ama side
10
12.6198
20
-2.2376
0
VERTEX
8
ama side
10
12.6191
20
-2.1372
0
VERTEX
8
ama side
10
12.6185
20
-2.0368
0
VERTEX
8
ama side
10
12.6179
20
-1.9364
0
VERTEX
8
ama side
10
12.6174
20
-1.836
0
VERTEX
8
ama side
10
12.6169
20
-1.7356
0
VERTEX
8
ama side
10
12.6165
20
-1.6353
0
VERTEX
8
ama side
10
12.6162
20
-1.5349
0
VERTEX
8
ama side
10
12.5752
20
-1.535
0
VERTEX
8
ama side
10
12.5335
20
-1.5352
0
VERTEX
8
ama side
10
12.4904
20
-1.5353
0
VERTEX
8
ama side
10
12.4452
20
-1.5354
0
VERTEX
8
ama side
10
12.3972
20
-1.5356
0
VERTEX
8
ama side
10
12.3457
20
-1.5358
0
VERTEX
8
ama side
10
12.2901
20
-1.536
0
VERTEX
8
ama side
10
12.2296
20
-1.5362
0
VERTEX
8
ama side
10
12.1635
20
-1.5364
0
VERTEX
8
ama side
10
12.0913
20
-1.5367
0
VERTEX
8
ama side
10
12.0127
20
-1.537
0
VERTEX
8
ama side
10
11.927
20
-1.5373
0
VERTEX
8
ama side
10
11.8338
20
-1.5376
0
VERTEX
8
ama side
10
11.7326
20
-1.5379
0
VERTEX
8
ama side
10
11.6229
20
-1.5383
0
VERTEX
8
ama side
10
11.5043
20
-1.5386
0
VERTEX
8
ama side
10
11.3762
20
-1.539
0
VERTEX
8
ama side
10
11.2407
20
-1.5394
0
VERTEX
8
ama side
10
11.0997
20
-1.5398
0
VERTEX
8
ama side
10
10.9553
20
-1.5401
0
VERTEX
8
ama side
10
10.8095
20
-1.5405
0
VERTEX
8
ama side
10
10.6643
20
-1.5408
0
VERTEX
8
ama side
10
10.5217
20
-1.5411
0
VERTEX
8
ama side
10
10.3837
20
-1.5413
0
VERTEX
8
ama side
10
10.2522
20
-1.5415
0
VERTEX
8
ama side
10
10.1271
20
-1.5417
0
VERTEX
8
ama side
10
10.0078
20
-1.5418
0
VERTEX
8
ama side
10
9.8941
20
-1.5419
0
VERTEX
8
ama side
10
9.7856
20
-1.5419
0
VERTEX
8
ama side
10
9.682
20
-1.5419
0
VERTEX
8
ama side
10
9.583
20
-1.5419
0
VERTEX
8
ama side
10
9.4881
20
-1.5418
0
VERTEX
8
ama side
10
9.397
20
-1.5417
0
VERTEX
8
ama side
10
9.3093
20
-1.5416
0
VERTEX
8
ama side
10
9.2245
20
-1.5415
0
VERTEX
8
ama side
10
9.1421
20
-1.5413
0
VERTEX
8
ama side
10
9.0616
20
-1.5412
0
VERTEX
8
ama side
10
8.9825
20
-1.541
0
VERTEX
8
ama side
10
8.9044
20
-1.5409
0
VERTEX
8
ama side
10
8.8268
20
-1.5407
0
VERTEX
8
ama side
10
8.7491
20
-1.5405
0
VERTEX
8
ama side
10
8.669
20
-1.5405
0
VERTEX
8
ama side
10
8.5839
20
-1.5409
0
VERTEX
8
ama side
10
8.4914
20
-1.5419
0
VERTEX
8
ama side
10
8.3889
20
-1.5436
0
VERTEX
8
ama side
10
8.2739
20
-1.5462
0
VERTEX
8
ama side
10
8.1441
20
-1.55
0
VERTEX
8
ama side
10
7.9968
20
-1.5551
0
VERTEX
8
ama side
10
7.8296
20
-1.5616
0
VERTEX
8
ama side
10
7.6451
20
-1.5695
0
VERTEX
8
ama side
10
7.4456
20
-1.5785
0
VERTEX
8
ama side
10
7.2336
20
-1.5885
0
VERTEX
8
ama side
10
7.0117
20
-1.5992
0
VERTEX
8
ama side
10
6.7824
20
-1.6104
0
VERTEX
8
ama side
10
6.5481
20
-1.622
0
VERTEX
8
ama side
10
6.3113
20
-1.6339
0
VERTEX
8
ama side
10
6.0745
20
-1.6207
0
VERTEX
8
ama side
10
5.8403
20
-1.6078
0
VERTEX
8
ama side
10
5.611
20
-1.5953
0
VERTEX
8
ama side
10
5.3892
20
-1.5834
0
VERTEX
8
ama side
10
5.1773
20
-1.5723
0
VERTEX
8
ama side
10
4.9779
20
-1.5622
0
VERTEX
8
ama side
10
4.7933
20
-1.5533
0
VERTEX
8
ama side
10
4.6262
20
-1.5458
0
VERTEX
8
ama side
10
4.479
20
-1.5399
0
VERTEX
8
ama side
10
4.3491
20
-1.5354
0
VERTEX
8
ama side
10
4.2342
20
-1.5321
0
VERTEX
8
ama side
10
4.1317
20
-1.5299
0
VERTEX
8
ama side
10
4.0392
20
-1.5284
0
VERTEX
8
ama side
10
3.9541
20
-1.5275
0
VERTEX
8
ama side
10
3.874
20
-1.5271
0
VERTEX
8
ama side
10
3.7964
20
-1.5268
0
VERTEX
8
ama side
10
3.7187
20
-1.5265
0
VERTEX
8
ama side
10
3.6406
20
-1.5263
0
SEQEND
0
POLYLINE
8
ama side
62
94
66
1
0
VERTEX
8
ama side
10
3.6406
20
1.5263
0
VERTEX
8
ama side
10
3.5615
20
1.526
0
VERTEX
8
ama side
10
3.481
20
1.5257
0
VERTEX
8
ama side
10
3.3986
20
1.5254
0
VERTEX
8
ama side
10
3.3138
20
1.525
0
VERTEX
8
ama side
10
3.2261
20
1.5247
0
VERTEX
8
ama side
10
3.135
20
1.5243
0
VERTEX
8
ama side
10
3.0401
20
1.5238
0
VERTEX
8
ama side
10
2.9411
20
1.5233
0
VERTEX
8
ama side
10
2.8375
20
1.5227
0
VERTEX
8
ama side
10
2.729
20
1.5221
0
VERTEX
8
ama side
10
2.6153
20
1.5214
0
VERTEX
8
ama side
10
2.496
20
1.5206
0
VERTEX
8
ama side
10
2.3709
20
1.5198
0
VERTEX
8
ama side
10
2.2395
20
1.5189
0
VERTEX
8
ama side
10
2.1014
20
1.5179
0
VERTEX
8
ama side
10
1.9588
20
1.5168
0
VERTEX
8
ama side
10
1.8136
20
1.5157
0
VERTEX
8
ama side
10
1.6678
20
1.5145
0
VERTEX
8
ama side
10
1.5234
20
1.5133
0
VERTEX
8
ama side
10
1.3825
20
1.5122
0
VERTEX
8
ama side
10
1.2469
20
1.511
0
VERTEX
8
ama side
10
1.1189
20
1.51
0
VERTEX
8
ama side
10
1.0002
20
1.5089
0
VERTEX
8
ama side
10
0.8906
20
1.508
0
VERTEX
8
ama side
10
0.7894
20
1.5071
0
VERTEX
8
ama side
10
0.6962
20
1.5063
0
VERTEX
8
ama side
10
0.6105
20
1.5055
0
VERTEX
8
ama side
10
0.5318
20
1.5048
0
VERTEX
8
ama side
10
0.4597
20
1.5041
0
VERTEX
8
ama side
10
0.3936
20
1.5035
0
VERTEX
8
ama side
10
0.3331
20
1.503
0
VERTEX
8
ama side
10
0.2775
20
1.5025
0
VERTEX
8
ama side
10
0.226
20
1.502
0
VERTEX
8
ama side
10
0.178
20
1.5016
0
VERTEX
8
ama side
10
0.1328
20
1.5012
0
VERTEX
8
ama side
10
0.0897
20
1.5008
0
VERTEX
8
ama side
10
0.048
20
1.5005
0
VERTEX
8
ama side
10
0.007
20
1.5001
0
VERTEX
8
ama side
10
0.0061
20
1.6005
0
VERTEX
8
ama side
10
0.0052
20
1.7009
0
VERTEX
8
ama side
10
0.0044
20
1.8012
0
VERTEX
8
ama side
10
0.0035
20
1.9016
0
VERTEX
8
ama side
10
0.0026
20
2.002
0
VERTEX
8
ama side
10
0.0017
20
2.1024
0
VERTEX
8
ama side
10
0.0009
20
2.2027
0
VERTEX
8
ama side
10
0.0
20
2.3031
0
VERTEX
8
ama side
10
0.0411
20
2.3035
0
VERTEX
8
ama side
10
0.0829
20
2.3039
0
VERTEX
8
ama side
10
0.126
20
2.3043
0
VERTEX
8
ama side
10
0.1713
20
2.3047
0
VERTEX
8
ama side
10
0.2194
20
2.3052
0
VERTEX
8
ama side
10
0.2709
20
2.3057
0
VERTEX
8
ama side
10
0.3267
20
2.3063
0
VERTEX
8
ama side
10
0.3873
20
2.3069
0
VERTEX
8
ama side
10
0.4535
20
2.3075
0
VERTEX
8
ama side
10
0.5258
20
2.3082
0
VERTEX
8
ama side
10
0.6046
20
2.309
0
VERTEX
8
ama side
10
0.6905
20
2.3099
0
VERTEX
8
ama side
10
0.7838
20
2.3108
0
VERTEX
8
ama side
10
0.8852
20
2.3118
0
VERTEX
8
ama side
10
0.9951
20
2.3128
0
VERTEX
8
ama side
10
1.1139
20
2.3139
0
VERTEX
8
ama side
10
1.2422
20
2.3151
0
VERTEX
8
ama side
10
1.3779
20
2.3163
0
VERTEX
8
ama side
10
1.5191
20
2.3176
0
VERTEX
8
ama side
10
1.6637
20
2.3188
0
VERTEX
8
ama side
10
1.8097
20
2.32
0
VERTEX
8
ama side
10
1.9552
20
2.3212
0
VERTEX
8
ama side
10
2.098
20
2.3223
0
VERTEX
8
ama side
10
2.2363
20
2.3233
0
VERTEX
8
ama side
10
2.368
20
2.3243
0
VERTEX
8
ama side
10
2.4935
20
2.3251
0
VERTEX
8
ama side
10
2.613
20
2.3258
0
VERTEX
8
ama side
10
2.727
20
2.3265
0
VERTEX
8
ama side
10
2.8357
20
2.3271
0
VERTEX
8
ama side
10
2.9395
20
2.3276
0
VERTEX
8
ama side
10
3.0388
20
2.328
0
VERTEX
8
ama side
10
3.1339
20
2.3284
0
VERTEX
8
ama side
10
3.2251
20
2.3287
0
VERTEX
8
ama side
10
3.3129
20
2.3289
0
VERTEX
8
ama side
10
3.3977
20
2.3292
0
VERTEX
8
ama side
10
3.4802
20
2.3294
0
VERTEX
8
ama side
10
3.5607
20
2.3295
0
VERTEX
8
ama side
10
3.6398
20
2.3297
0
VERTEX
8
ama side
10
3.7179
20
2.3298
0
VERTEX
8
ama side
10
3.7955
20
2.3299
0
VERTEX
8
ama side
10
3.8732
20
2.3301
0
VERTEX
8
ama side
10
3.9533
20
2.3302
0
VERTEX
8
ama side
10
4.0384
20
2.3303
0
VERTEX
8
ama side
10
4.1309
20
2.3305
0
VERTEX
8
ama side
10
4.2334
20
2.3306
0
VERTEX
8
ama side
10
4.3483
20
2.3307
0
VERTEX
8
ama side
10
4.4781
20
2.3309
0
VERTEX
8
ama side
10
4.6253
20
2.331
0
VERTEX
8
ama side
10
4.7924
20
2.3312
0
VERTEX
8
ama side
10
4.9769
20
2.3314
0
VERTEX
8
ama side
10
5.1764
20
2.3317
0
VERTEX
8
ama side
10
5.3882
20
2.332
0
VERTEX
8
ama side
10
5.61
20
2.3323
0
VERTEX
8
ama side
10
5.8393
20
2.3328
0
VERTEX
8
ama side
10
6.0735
20
2.3333
0
VERTEX
8
ama side
10
6.3103
20
2.3338
0
VERTEX
8
ama side
10
6.547
20
2.3346
0
VERTEX
8
ama side
10
6.7812
20
2.3354
0
VERTEX
8
ama side
10
7.0105
20
2.3362
0
VERTEX
8
ama side
10
7.2323
20
2.3371
0
VERTEX
8
ama side
10
7.4441
20
2.3379
0
VERTEX
8
ama side
10
7.6436
20
2.3388
0
VERTEX
8
ama side
10
7.8281
20
2.3396
0
VERTEX
8
ama side
10
7.9952
20
2.3403
0
VERTEX
8
ama side
10
8.1424
20
2.341
0
VERTEX
8
ama side
10
8.2722
20
2.3416
0
VERTEX
8
ama side
10
8.3871
20
2.3421
0
VERTEX
8
ama side
10
8.4896
20
2.3425
0
VERTEX
8
ama side
10
8.5821
20
2.3429
0
VERTEX
8
ama side
10
8.6672
20
2.3432
0
VERTEX
8
ama side
10
8.7473
20
2.3435
0
VERTEX
8
ama side
10
8.825
20
2.3438
0
VERTEX
8
ama side
10
8.9026
20
2.3441
0
VERTEX
8
ama side
10
8.9807
20
2.3444
0
VERTEX
8
ama side
10
9.0598
20
2.3447
0
VERTEX
8
ama side
10
9.1403
20
2.345
0
VERTEX
8
ama side
10
9.2228
20
2.3452
0
VERTEX
8
ama side
10
9.3076
20
2.3455
0
VERTEX
8
ama side
10
9.3954
20
2.3457
0
VERTEX
8
ama side
10
9.4866
20
2.3459
0
VERTEX
8
ama side
10
9.5817
20
2.3461
0
VERTEX
8
ama side
10
9.681
20
2.3462
0
VERTEX
8
ama side
10
9.7848
20
2.3463
0
VERTEX
8
ama side
10
9.8935
20
2.3463
0
VERTEX
8
ama side
10
10.0075
20
2.3463
0
VERTEX
8
ama side
10
10.127
20
2.3462
0
VERTEX
8
ama side
10
10.2525
20
2.346
0
VERTEX
8
ama side
10
10.3842
20
2.3458
0
VERTEX
8
ama side
10
10.5225
20
2.3456
0
VERTEX
8
ama side
10
10.6653
20
2.3452
0
VERTEX
8
ama side
10
10.8108
20
2.3449
0
VERTEX
8
ama side
10
10.9568
20
2.3444
0
VERTEX
8
ama side
10
11.1014
20
2.344
0
VERTEX
8
ama side
10
11.2426
20
2.3435
0
VERTEX
8
ama side
10
11.3783
20
2.3431
0
VERTEX
8
ama side
10
11.5066
20
2.3426
0
VERTEX
8
ama side
10
11.6255
20
2.3421
0
VERTEX
8
ama side
10
11.7353
20
2.3417
0
VERTEX
8
ama side
10
11.8367
20
2.3413
0
VERTEX
8
ama side
10
11.9301
20
2.3409
0
VERTEX
8
ama side
10
12.016
20
2.3405
0
VERTEX
8
ama side
10
12.0948
20
2.3402
0
VERTEX
8
ama side
10
12.1671
20
2.3398
0
VERTEX
8
ama side
10
12.2333
20
2.3395
0
VERTEX
8
ama side
10
12.2939
20
2.3393
0
VERTEX
8
ama side
10
12.3497
20
2.339
0
VERTEX
8
ama side
10
12.4012
20
2.3388
0
VERTEX
8
ama side
10
12.4493
20
2.3386
0
VERTEX
8
ama side
10
12.4945
20
2.3384
0
VERTEX
8
ama side
10
12.5377
20
2.3383
0
VERTEX
8
ama side
10
12.5795
20
2.3381
0
VERTEX
8
ama side
10
12.6206
20
2.3379
0
VERTEX
8
ama side
10
12.6198
20
2.2376
0
VERTEX
8
ama side
10
12.6191
20
2.1372
0
VERTEX
8
ama side
10
12.6185
20
2.0368
0
VERTEX
8
ama side
10
12.6179
20
1.9364
0
VERTEX
8
ama side
10
12.6174
20
1.836
0
VERTEX
8
ama side
10
12.6169
20
1.7356
0
VERTEX
8
ama side
10
12.6165
20
1.6353
0
VERTEX
8
ama side
10
12.6162
20
1.5349
0
VERTEX
8
ama side
10
12.5752
20
1.535
0
VERTEX
8
ama side
10
12.5335
20
1.5352
0
VERTEX
8
ama side
10
12.4904
20
1.5353
0
VERTEX
8
ama side
10
12.4452
20
1.5354
0
VERTEX
8
ama side
10
12.3972
20
1.5356
0
VERTEX
8
ama side
10
12.3457
20
1.5358
0
VERTEX
8
ama side
10
12.2901
20
1.536
0
VERTEX
8
ama side
10
12.2296
20
1.5362
0
VERTEX
8
ama side
10
12.1635
20
1.5364
0
VERTEX
8
ama side
10
12.0913
20
1.5367
0
VERTEX
8
ama side
10
12.0127
20
1.537
0
VERTEX
8
ama side
10
11.927
20
1.5373
0
VERTEX
8
ama side
10
11.8338
20
1.5376
0
VERTEX
8
ama side
10
11.7326
20
1.5379
0
VERTEX
8
ama side
10
11.6229
20
1.5383
0
VERTEX
8
ama side
10
11.5043
20
1.5386
0
VERTEX
8
ama side
10
11.3762
20
1.539
0
VERTEX
8
ama side
10
11.2407
20
1.5394
0
VERTEX
8
ama side
10
11.0997
20
1.5398
0
VERTEX
8
ama side
10
10.9553
20
1.5401
0
VERTEX
8
ama side
10
10.8095
20
1.5405
0
VERTEX
8
ama side
10
10.6643
20
1.5408
0
VERTEX
8
ama side
10
10.5217
20
1.5411
0
VERTEX
8
ama side
10
10.3837
20
1.5413
0
VERTEX
8
ama side
10
10.2522
20
1.5415
0
VERTEX
8
ama side
10
10.1271
20
1.5417
0
VERTEX
8
ama side
10
10.0078
20
1.5418
0
VERTEX
8
ama side
10
9.8941
20
1.5419
0
VERTEX
8
ama side
10
9.7856
20
1.5419
0
VERTEX
8
ama side
10
9.682
20
1.5419
0
VERTEX
8
ama side
10
9.583
20
1.5419
0
VERTEX
8
ama side
10
9.4881
20
1.5418
0
VERTEX
8
ama side
10
9.397
20
1.5417
0
VERTEX
8
ama side
10
9.3093
20
1.5416
0
VERTEX
8
ama side
10
9.2245
20
1.5415
0
VERTEX
8
ama side
10
9.1421
20
1.5413
0
VERTEX
8
ama side
10
9.0616
20
1.5412
0
VERTEX
8
ama side
10
8.9825
20
1.541
0
VERTEX
8
ama side
10
8.9044
20
1.5409
0
VERTEX
8
ama side
10
8.8268
20
1.5407
0
VERTEX
8
ama side
10
8.7491
20
1.5405
0
VERTEX
8
ama side
10
8.669
20
1.5405
0
VERTEX
8
ama side
10
8.5839
20
1.5409
0
VERTEX
8
ama side
10
8.4914
20
1.5419
0
VERTEX
8
ama side
10
8.3889
20
1.5436
0
VERTEX
8
ama side
10
8.2739
20
1.5462
0
VERTEX
8
ama side
10
8.1441
20
1.55
0
VERTEX
8
ama side
10
7.9968
20
1.5551
0
VERTEX
8
ama side
10
7.8296
20
1.5616
0
VERTEX
8
ama side
10
7.6451
20
1.5695
0
VERTEX
8
ama side
10
7.4456
20
1.5785
0
VERTEX
8
ama side
10
7.2336
20
1.5885
0
VERTEX
8
ama side
10
7.0117
20
1.5992
0
VERTEX
8
ama side
10
6.7824
20
1.6104
0
VERTEX
8
ama side
10
6.5481
20
1.622
0
VERTEX
8
ama side
10
6.3113
20
1.6339
0
VERTEX
8
ama side
10
6.0745
20
1.6207
0
VERTEX
8
ama side
10
5.8403
20
1.6078
0
VERTEX
8
ama side
10
5.611
20
1.5953
0
VERTEX
8
ama side
10
5.3892
20
1.5834
0
VERTEX
8
ama side
10
5.1773
20
1.5723
0
VERTEX
8
ama side
10
4.9779
20
1.5622
0
VERTEX
8
ama side
10
4.7933
20
1.5533
0
VERTEX
8
ama side
10
4.6262
20
1.5458
0
VERTEX
8
ama side
10
4.479
20
1.5399
0
VERTEX
8
ama side
10
4.3491
20
1.5354
0
VERTEX
8
ama side
10
4.2342
20
1.5321
0
VERTEX
8
ama side
10
4.1317
20
1.5299
0
VERTEX
8
ama side
10
4.0392
20
1.5284
0
VERTEX
8
ama side
10
3.9541
20
1.5275
0
VERTEX
8
ama side
10
3.874
20
1.5271
0
VERTEX
8
ama side
10
3.7964
20
1.5268
0
VERTEX
8
ama side
10
3.7187
20
1.5265
0
VERTEX
8
ama side
10
3.6406
20
1.5263
0
SEQEND
0
POLYLINE
8
ama back
62
94
66
1
0
VERTEX
8
ama back
10
0.8005
20
-2.4417
0
VERTEX
8
ama back
10
0.8005
20
-2.4661
0
VERTEX
8
ama back
10
0.8004
20
-2.4905
0
VERTEX
8
ama back
10
0.8004
20
-2.5149
0
VERTEX
8
ama back
10
0.8003
20
-2.5393
0
VERTEX
8
ama back
10
0.8003
20
-2.5636
0
VERTEX
8
ama back
10
0.8002
20
-2.588
0
VERTEX
8
ama back
10
0.8002
20
-2.6124
0
VERTEX
8
ama back
10
0.8001
20
-2.6368
0
VERTEX
8
ama back
10
0.8001
20
-2.6612
0
VERTEX
8
ama back
10
0.80
20
-2.6856
0
VERTEX
8
ama back
10
0.80
20
-2.71
0
VERTEX
8
ama back
10
0.7999
20
-2.7343
0
VERTEX
8
ama back
10
0.7999
20
-2.7587
0
VERTEX
8
ama back
10
0.6999
20
-2.7498
0
VERTEX
8
ama back
10
0.5999
20
-2.7408
0
VERTEX
8
ama back
10
0.4999
20
-2.7318
0
VERTEX
8
ama back
10
0.3999
20
-2.7229
0
VERTEX
8
ama back
10
0.2999
20
-2.7139
0
VERTEX
8
ama back
10
0.20
20
-2.705
0
VERTEX
8
ama back
10
0.10
20
-2.696
0
VERTEX
8
ama back
10
0.0
20
-2.687
0
VERTEX
8
ama back
10
0.0
20
-2.6714
0
VERTEX
8
ama back
10
0.0001
20
-2.6558
0
VERTEX
8
ama back
10
0.0001
20
-2.6401
0
VERTEX
8
ama back
10
0.0001
20
-2.6245
0
VERTEX
8
ama back
10
0.0002
20
-2.6089
0
VERTEX
8
ama back
10
0.0002
20
-2.5932
0
VERTEX
8
ama back
10
0.0002
20
-2.5776
0
VERTEX
8
ama back
10
0.0003
20
-2.562
0
VERTEX
8
ama back
10
0.0003
20
-2.5463
0
VERTEX
8
ama back
10
0.0003
20
-2.5307
0
VERTEX
8
ama back
10
0.0004
20
-2.5151
0
VERTEX
8
ama back
10
0.0004
20
-2.4994
0
VERTEX
8
ama back
10
0.0004
20
-2.4838
0
VERTEX
8
ama back
10
0.0005
20
-2.4682
0
VERTEX
8
ama back
10
0.0005
20
-2.4525
0
VERTEX
8
ama back
10
0.0005
20
-2.4369
0
VERTEX
8
ama back
10
0.1005
20
-2.4284
0
VERTEX
8
ama back
10
0.2006
20
-2.4198
0
VERTEX
8
ama back
10
0.3006
20
-2.4113
0
VERTEX
8
ama back
10
0.4006
20
-2.4027
0
VERTEX
8
ama back
10
0.5006
20
-2.3942
0
VERTEX
8
ama back
10
0.6006
20
-2.3856
0
VERTEX
8
ama back
10
0.7007
20
-2.3771
0
VERTEX
8
ama back
10
0.8007
20
-2.3686
0
VERTEX
8
ama back
10
0.8006
20
-2.3929
0
VERTEX
8
ama back
10
0.8006
20
-2.4173
0
VERTEX
8
ama back
10
0.8005
20
-2.4417
0
SEQEND
0
POLYLINE
8
ama back
62
94
66
1
0
VERTEX
8
ama back
10
0.8005
20
2.4417
0
VERTEX
8
ama back
10
0.8005
20
2.4661
0
VERTEX
8
ama back
10
0.8004
20
2.4905
0
VERTEX
8
ama back
10
0.8004
20
2.5149
0
VERTEX
8
ama back
10
0.8003
20
2.5393
0
VERTEX
8
ama back
10
0.8003
20
2.5636
0
VERTEX
8
ama back
10
0.8002
20
2.588
0
VERTEX
8
ama back
10
0.8002
20
2.6124
0
VERTEX
8
ama back
10
0.8001
20
2.6368
0
VERTEX
8
ama back
10
0.8001
20
2.6612
0
VERTEX
8
ama back
10
0.80
20
2.6856
0
VERTEX
8
ama back
10
0.80
20
2.71
0
VERTEX
8
ama back
10
0.7999
20
2.7343
0
VERTEX
8
ama back
10
0.7999
20
2.7587
0
VERTEX
8
ama back
10
0.6999
20
2.7498
0
VERTEX
8
ama back
10
0.5999
20
2.7408
0
VERTEX
8
ama back
10
0.4999
20
2.7318
0
VERTEX
8
ama back
10
0.3999
20
2.7229
0
VERTEX
8
ama back
10
0.2999
20
2.7139
0
VERTEX
8
ama back
10
0.20
20
2.705
0
VERTEX
8
ama back
10
0.10
20
2.696
0
VERTEX
8
ama back
10
0.0
20
2.687
0
VERTEX
8
ama back
10
0.0
20
2.6714
0
VERTEX
8
ama back
10
0.0001
20
2.6558
0
VERTEX
8
ama back
10
0.0001
20
2.6401
0
VERTEX
8
ama back
10
0.0001
20
2.6245
0
VERTEX
8
ama back
10
0.0002
20
2.6089
0
VERTEX
8
ama back
10
0.0002
20
2.5932
0
VERTEX
8
ama back
10
0.0002
20
2.5776
0
VERTEX
8
ama back
10
0.0003
20
2.562
0
VERTEX
8
ama back
10
0.0003
20
2.5463
0
VERTEX
8
ama back
10
0.0003
20
2.5307
0
VERTEX
8
ama back
10
0.0004
20
2.5151
0
VERTEX
8
ama back
10
0.0004
20
2.4994
0
VERTEX
8
ama back
10
0.0004
20
2.4838
0
VERTEX
8
ama back
10
0.0005
20
2.4682
0
VERTEX
8
ama back
10
0.0005
20
2.4525
0
VERTEX
8
ama back
10
0.0005
20
2.4369
0
VERTEX
8
ama back
10
0.1005
20
2.4284
0
VERTEX
8
ama back
10
0.2006
20
2.4198
0
VERTEX
8
ama back
10
0.3006
20
2.4113
0
VERTEX
8
ama back
10
0.4006
20
2.4027
0
VERTEX
8
ama back
10
0.5006
20
2.3942
0
VERTEX
8
ama back
10
0.6006
20
2.3856
0
VERTEX
8
ama back
10
0.7007
20
2.3771
0
VERTEX
8
ama back
10
0.8007
20
2.3686
0
VERTEX
8
ama back
10
0.8006
20
2.3929
0
VERTEX
8
ama back
10
0.8006
20
2.4173
0
VERTEX
8
ama back
10
0.8005
20
2.4417
0
SEQEND
0
POLYLINE
8
ama bottom
62
94
66
1
0
VERTEX
8
ama bottom
10
2.6711
20
-2.9394
0
VERTEX
8
ama bottom
10
2.7501
20
-2.9367
0
VERTEX
8
ama bottom
10
2.8306
20
-2.9341
0
VERTEX
8
ama bottom
10
2.9129
20
-2.9316
0
VERTEX
8
ama bottom
10
2.9977
20
-2.9292
0
VERTEX
8
ama bottom
10
3.0854
20
-2.9269
0
VERTEX
8
ama bottom
10
3.1764
20
-2.9248
0
VERTEX
8
ama bottom
10
3.2713
20
-2.9229
0
VERTEX
8
ama bottom
10
3.3704
20
-2.9211
0
VERTEX
8
ama bottom
10
3.4739
20
-2.9196
0
VERTEX
8
ama bottom
10
3.5824
20
-2.9184
0
VERTEX
8
ama bottom
10
3.6961
20
-2.9175
0
VERTEX
8
ama bottom
10
3.8154
20
-2.9168
0
VERTEX
8
ama bottom
10
3.9405
20
-2.9165
0
VERTEX
8
ama bottom
10
4.072
20
-2.9166
0
VERTEX
8
ama bottom
10
4.21
20
-2.917
0
VERTEX
8
ama bottom
10
4.3526
20
-2.9178
0
VERTEX
8
ama bottom
10
4.4978
20
-2.9188
0
VERTEX
8
ama bottom
10
4.6436
20
-2.9201
0
VERTEX
8
ama bottom
10
4.788
20
-2.9216
0
VERTEX
8
ama bottom
10
4.9289
20
-2.9233
0
VERTEX
8
ama bottom
10
5.0645
20
-2.925
0
VERTEX
8
ama bottom
10
5.1925
20
-2.9269
0
VERTEX
8
ama bottom
10
5.3111
20
-2.9287
0
VERTEX
8
ama bottom
10
5.4208
20
-2.9305
0
VERTEX
8
ama bottom
10
5.522
20
-2.9323
0
VERTEX
8
ama bottom
10
5.6152
20
-2.9341
0
VERTEX
8
ama bottom
10
5.7008
20
-2.9358
0
VERTEX
8
ama bottom
10
5.7795
20
-2.9374
0
VERTEX
8
ama bottom
10
5.8516
20
-2.9389
0
VERTEX
8
ama bottom
10
5.9177
20
-2.9401
0
VERTEX
8
ama bottom
10
5.9782
20
-2.9414
0
VERTEX
8
ama bottom
10
6.0338
20
-2.9425
0
VERTEX
8
ama bottom
10
6.0853
20
-2.9435
0
VERTEX
8
ama bottom
10
6.1332
20
-2.9444
0
VERTEX
8
ama bottom
10
6.1784
20
-2.9451
0
VERTEX
8
ama bottom
10
6.2215
20
-2.9459
0
VERTEX
8
ama bottom
10
6.2632
20
-2.9466
0
VERTEX
8
ama bottom
10
6.3043
20
-2.9473
0
VERTEX
8
ama bottom
10
6.3042
20
-2.9629
0
VERTEX
8
ama bottom
10
6.3041
20
-2.9785
0
VERTEX
8
ama bottom
10
6.3041
20
-2.9942
0
VERTEX
8
ama bottom
10
6.304
20
-3.0098
0
VERTEX
8
ama bottom
10
6.304
20
-3.0254
0
VERTEX
8
ama bottom
10
6.3039
20
-3.0411
0
VERTEX
8
ama bottom
10
6.3038
20
-3.0567
0
VERTEX
8
ama bottom
10
6.3038
20
-3.0723
0
VERTEX
8
ama bottom
10
6.3037
20
-3.088
0
VERTEX
8
ama bottom
10
6.3037
20
-3.1036
0
VERTEX
8
ama bottom
10
6.3036
20
-3.1192
0
VERTEX
8
ama bottom
10
6.3035
20
-3.1348
0
VERTEX
8
ama bottom
10
6.3035
20
-3.1505
0
VERTEX
8
ama bottom
10
6.3034
20
-3.1661
0
VERTEX
8
ama bottom
10
6.3034
20
-3.1817
0
VERTEX
8
ama bottom
10
6.3033
20
-3.1974
0
VERTEX
8
ama bottom
10
6.2623
20
-3.1977
0
VERTEX
8
ama bottom
10
6.2206
20
-3.1981
0
VERTEX
8
ama bottom
10
6.1774
20
-3.1985
0
VERTEX
8
ama bottom
10
6.1322
20
-3.1989
0
VERTEX
8
ama bottom
10
6.0843
20
-3.1994
0
VERTEX
8
ama bottom
10
6.0328
20
-3.2
0
VERTEX
8
ama bottom
10
5.9772
20
-3.2006
0
VERTEX
8
ama bottom
10
5.9167
20
-3.2014
0
VERTEX
8
ama bottom
10
5.8506
20
-3.2022
0
VERTEX
8
ama bottom
10
5.7785
20
-3.2031
0
VERTEX
8
ama bottom
10
5.6998
20
-3.2041
0
VERTEX
8
ama bottom
10
5.6141
20
-3.2052
0
VERTEX
8
ama bottom
10
5.5209
20
-3.2062
0
VERTEX
8
ama bottom
10
5.4197
20
-3.2072
0
VERTEX
8
ama bottom
10
5.3101
20
-3.2082
0
VERTEX
8
ama bottom
10
5.1914
20
-3.2091
0
VERTEX
8
ama bottom
10
5.0633
20
-3.2099
0
VERTEX
8
ama bottom
10
4.9278
20
-3.2106
0
VERTEX
8
ama bottom
10
4.7869
20
-3.2112
0
VERTEX
8
ama bottom
10
4.6425
20
-3.2115
0
VERTEX
8
ama bottom
10
4.4967
20
-3.2117
0
VERTEX
8
ama bottom
10
4.3515
20
-3.2116
0
VERTEX
8
ama bottom
10
4.2088
20
-3.2113
0
VERTEX
8
ama bottom
10
4.0708
20
-3.2106
0
VERTEX
8
ama bottom
10
3.9394
20
-3.2096
0
VERTEX
8
ama bottom
10
3.8142
20
-3.2083
0
VERTEX
8
ama bottom
10
3.695
20
-3.2068
0
VERTEX
8
ama bottom
10
3.5813
20
-3.2049
0
VERTEX
8
ama bottom
10
3.4728
20
-3.2028
0
VERTEX
8
ama bottom
10
3.3693
20
-3.2005
0
VERTEX
8
ama bottom
10
3.2702
20
-3.198
0
VERTEX
8
ama bottom
10
3.1754
20
-3.1954
0
VERTEX
8
ama bottom
10
3.0844
20
-3.1925
0
VERTEX
8
ama bottom
10
2.9967
20
-3.1896
0
VERTEX
8
ama bottom
10
2.9119
20
-3.1865
0
VERTEX
8
ama bottom
10
2.8296
20
-3.1833
0
VERTEX
8
ama bottom
10
2.7491
20
-3.1801
0
VERTEX
8
ama bottom
10
2.6701
20
-3.1768
0
VERTEX
8
ama bottom
10
2.5921
20
-3.1734
0
VERTEX
8
ama bottom
10
2.5145
20
-3.1701
0
VERTEX
8
ama bottom
10
2.437
20
-3.1667
0
VERTEX
8
ama bottom
10
2.3569
20
-3.1632
0
VERTEX
8
ama bottom
10
2.2719
20
-3.1595
0
VERTEX
8
ama bottom
10
2.1795
20
-3.1553
0
VERTEX
8
ama bottom
10
2.0771
20
-3.1506
0
VERTEX
8
ama bottom
10
1.9622
20
-3.1452
0
VERTEX
8
ama bottom
10
1.8324
20
-3.1391
0
VERTEX
8
ama bottom
10
1.6853
20
-3.1319
0
VERTEX
8
ama bottom
10
1.5182
20
-3.1238
0
VERTEX
8
ama bottom
10
1.3337
20
-3.1146
0
VERTEX
8
ama bottom
10
1.1342
20
-3.1047
0
VERTEX
8
ama bottom
10
0.9223
20
-3.0941
0
VERTEX
8
ama bottom
10
0.7004
20
-3.083
0
VERTEX
8
ama bottom
10
0.4711
20
-3.0714
0
VERTEX
8
ama bottom
10
0.2368
20
-3.0596
0
VERTEX
8
ama bottom
10
0.0
20
-3.0477
0
VERTEX
8
ama bottom
10
0.2369
20
-3.0376
0
VERTEX
8
ama bottom
10
0.4713
20
-3.0276
0
VERTEX
8
ama bottom
10
0.7007
20
-3.0179
0
VERTEX
8
ama bottom
10
0.9226
20
-3.0084
0
VERTEX
8
ama bottom
10
1.1346
20
-2.9995
0
VERTEX
8
ama bottom
10
1.3341
20
-2.9911
0
VERTEX
8
ama bottom
10
1.5187
20
-2.9835
0
VERTEX
8
ama bottom
10
1.6859
20
-2.9766
0
VERTEX
8
ama bottom
10
1.8331
20
-2.9706
0
VERTEX
8
ama bottom
10
1.9629
20
-2.9654
0
VERTEX
8
ama bottom
10
2.0778
20
-2.961
0
VERTEX
8
ama bottom
10
2.1802
20
-2.9571
0
VERTEX
8
ama bottom
10
2.2727
20
-2.9536
0
VERTEX
8
ama bottom
10
2.3578
20
-2.9505
0
VERTEX
8
ama bottom
10
2.4378
20
-2.9477
0
VERTEX
8
ama bottom
10
2.5154
20
-2.9449
0
VERTEX
8
ama bottom
10
2.593
20
-2.9422
0
VERTEX
8
ama bottom
10
2.6711
20
-2.9394
0
SEQEND
0
POLYLINE
8
ama bottom
62
94
66
1
0
VERTEX
8
ama bottom
10
2.6711
20
2.9394
0
VERTEX
8
ama bottom
10
2.7501
20
2.9367
0
VERTEX
8
ama bottom
10
2.8306
20
2.9341
0
VERTEX
8
ama bottom
10
2.9129
20
2.9316
0
VERTEX
8
ama bottom
10
2.9977
20
2.9292
0
VERTEX
8
ama bottom
10
3.0854
20
2.9269
0
VERTEX
8
ama bottom
10
3.1764
20
2.9248
0
VERTEX
8
ama bottom
10
3.2713
20
2.9229
0
VERTEX
8
ama bottom
10
3.3704
20
2.9211
0
VERTEX
8
ama bottom
10
3.4739
20
2.9196
0
VERTEX
8
ama bottom
10
3.5824
20
2.9184
0
VERTEX
8
ama bottom
10
3.6961
20
2.9175
0
VERTEX
8
ama bottom
10
3.8154
20
2.9168
0
VERTEX
8
ama bottom
10
3.9405
20
2.9165
0
VERTEX
8
ama bottom
10
4.072
20
2.9166
0
VERTEX
8
ama bottom
10
4.21
20
2.917
0
VERTEX
8
ama bottom
10
4.3526
20
2.9178
0
VERTEX
8
ama bottom
10
4.4978
20
2.9188
0
VERTEX
8
ama bottom
10
4.6436
20
2.9201
0
VERTEX
8
ama bottom
10
4.788
20
2.9216
0
VERTEX
8
ama bottom
10
4.9289
20
2.9233
0
VERTEX
8
ama bottom
10
5.0645
20
2.925
0
VERTEX
8
ama bottom
10
5.1925
20
2.9269
0
VERTEX
8
ama bottom
10
5.3111
20
2.9287
0
VERTEX
8
ama bottom
10
5.4208
20
2.9305
0
VERTEX
8
ama bottom
10
5.522
20
2.9323
0
VERTEX
8
ama bottom
10
5.6152
20
2.9341
0
VERTEX
8
ama bottom
10
5.7008
20
2.9358
0
VERTEX
8
ama bottom
10
5.7795
20
2.9374
0
VERTEX
8
ama bottom
10
5.8516
20
2.9389
0
VERTEX
8
ama bottom
10
5.9177
20
2.9401
0
VERTEX
8
ama bottom
10
5.9782
20
2.9414
0
VERTEX
8
ama bottom
10
6.0338
20
2.9425
0
VERTEX
8
ama bottom
10
6.0853
20
2.9435
0
VERTEX
8
ama bottom
10
6.1332
20
2.9444
0
VERTEX
8
ama bottom
10
6.1784
20
2.9451
0
VERTEX
8
ama bottom
10
6.2215
20
2.9459
0
VERTEX
8
ama bottom
10
6.2632
20
2.9466
0
VERTEX
8
ama bottom
10
6.3043
20
2.9473
0
VERTEX
8
ama bottom
10
6.3042
20
2.9629
0
VERTEX
8
ama bottom
10
6.3041
20
2.9785
0
VERTEX
8
ama bottom
10
6.3041
20
2.9942
0
VERTEX
8
ama bottom
10
6.304
20
3.0098
0
VERTEX
8
ama bottom
10
6.304
20
3.0254
0
VERTEX
8
ama bottom
10
6.3039
20
3.0411
0
VERTEX
8
ama bottom
10
6.3038
20
3.0567
0
VERTEX
8
ama bottom
10
6.3038
20
3.0723
0
VERTEX
8
ama bottom
10
6.3037
20
3.088
0
VERTEX
8
ama bottom
10
6.3037
20
3.1036
0
VERTEX
8
ama bottom
10
6.3036
20
3.1192
0
VERTEX
8
ama bottom
10
6.3035
20
3.1348
0
VERTEX
8
ama bottom
10
6.3035
20
3.1505
0
VERTEX
8
ama bottom
10
6.3034
20
3.1661
0
VERTEX
8
ama bottom
10
6.3034
20
3.1817
0
VERTEX
8
ama bottom
10
6.3033
20
3.1974
0
VERTEX
8
ama bottom
10
6.2623
20
3.1977
0
VERTEX
8
ama bottom
10
6.2206
20
3.1981
0
VERTEX
8
ama bottom
10
6.1774
20
3.1985
0
VERTEX
8
ama bottom
10
6.1322
20
3.1989
0
VERTEX
8
ama bottom
10
6.0843
20
3.1994
0
VERTEX
8
ama bottom
10
6.0328
20
3.20
0
VERTEX
8
ama bottom
10
5.9772
20
3.2006
0
VERTEX
8
ama bottom
10
5.9167
20
3.2014
0
VERTEX
8
ama bottom
10
5.8506
20
3.2022
0
VERTEX
8
ama bottom
10
5.7785
20
3.2031
0
VERTEX
8
ama bottom
10
5.6998
20
3.2041
0
VERTEX
8
ama bottom
10
5.6141
20
3.2052
0
VERTEX
8
ama bottom
10
5.5209
20
3.2062
0
VERTEX
8
ama bottom
10
5.4197
20
3.2072
0
VERTEX
8
ama bottom
10
5.3101
20
3.2082
0
VERTEX
8
ama bottom
10
5.1914
20
3.2091
0
VERTEX
8
ama bottom
10
5.0633
20
3.2099
0
VERTEX
8
ama bottom
10
4.9278
20
3.2106
0
VERTEX
8
ama bottom
10
4.7869
20
3.2112
0
VERTEX
8
ama bottom
10
4.6425
20
3.2115
0
VERTEX
8
ama bottom
10
4.4967
20
3.2117
0
VERTEX
8
ama bottom
10
4.3515
20
3.2116
0
VERTEX
8
ama bottom
10
4.2088
20
3.2113
0
VERTEX
8
ama bottom
10
4.0708
20
3.2106
0
VERTEX
8
ama bottom
10
3.9394
20
3.2096
0
VERTEX
8
ama bottom
10
3.8142
20
3.2083
0
VERTEX
8
ama bottom
10
3.695
20
3.2068
0
VERTEX
8
ama bottom
10
3.5813
20
3.2049
0
VERTEX
8
ama bottom
10
3.4728
20
3.2028
0
VERTEX
8
ama bottom
10
3.3693
20
3.2005
0
VERTEX
8
ama bottom
10
3.2702
20
3.198
0
VERTEX
8
ama bottom
10
3.1754
20
3.1954
0
VERTEX
8
ama bottom
10
3.0844
20
3.1925
0
VERTEX
8
ama bottom
10
2.9967
20
3.1896
0
VERTEX
8
ama bottom
10
2.9119
20
3.1865
0
VERTEX
8
ama bottom
10
2.8296
20
3.1833
0
VERTEX
8
ama bottom
10
2.7491
20
3.1801
0
VERTEX
8
ama bottom
10
2.6701
20
3.1768
0
VERTEX
8
ama bottom
10
2.5921
20
3.1734
0
VERTEX
8
ama bottom
10
2.5145
20
3.1701
0
VERTEX
8
ama bottom
10
2.437
20
3.1667
0
VERTEX
8
ama bottom
10
2.3569
20
3.1632
0
VERTEX
8
ama bottom
10
2.2719
20
3.1595
0
VERTEX
8
ama bottom
10
2.1795
20
3.1553
0
VERTEX
8
ama bottom
10
2.0771
20
3.1506
0
VERTEX
8
ama bottom
10
1.9622
20
3.1452
0
VERTEX
8
ama bottom
10
1.8324
20
3.1391
0
VERTEX
8
ama bottom
10
1.6853
20
3.1319
0
VERTEX
8
ama bottom
10
1.5182
20
3.1238
0
VERTEX
8
ama bottom
10
1.3337
20
3.1146
0
VERTEX
8
ama bottom
10
1.1342
20
3.1047
0
VERTEX
8
ama bottom
10
0.9223
20
3.0941
0
VERTEX
8
ama bottom
10
0.7004
20
3.083
0
VERTEX
8
ama bottom
10
0.4711
20
3.0714
0
VERTEX
8
ama bottom
10
0.2368
20
3.0596
0
VERTEX
8
ama bottom
10
0.0
20
3.0477
0
VERTEX
8
ama bottom
10
0.2369
20
3.0376
0
VERTEX
8
ama bottom
10
0.4713
20
3.0276
0
VERTEX
8
ama bottom
10
0.7007
20
3.0179
0
VERTEX
8
ama bottom
10
0.9226
20
3.0084
0
VERTEX
8
ama bottom
10
1.1346
20
2.9995
0
VERTEX
8
ama bottom
10
1.3341
20
2.9911
0
VERTEX
8
ama bottom
10
1.5187
20
2.9835
0
VERTEX
8
ama bottom
10
1.6859
20
2.9766
0
VERTEX
8
ama bottom
10
1.8331
20
2.9706
0
VERTEX
8
ama bottom
10
1.9629
20
2.9654
0
VERTEX
8
ama bottom
10
2.0778
20
2.961
0
VERTEX
8
ama bottom
10
2.1802
20
2.9571
0
VERTEX
8
ama bottom
10
2.2727
20
2.9536
0
VERTEX
8
ama bottom
10
2.3578
20
2.9505
0
VERTEX
8
ama bottom
10
2.4378
20
2.9477
0
VERTEX
8
ama bottom
10
2.5154
20
2.9449
0
VERTEX
8
ama bottom
10
2.593
20
2.9422
0
VERTEX
8
ama bottom
10
2.6711
20
2.9394
0
SEQEND
0
POLYLINE
8
ama top
62
94
66
1
0
VERTEX
8
ama top
10
2.3505
20
-3.4276
0
VERTEX
8
ama top
10
2.2656
20
-3.4328
0
VERTEX
8
ama top
10
2.1733
20
-3.4387
0
VERTEX
8
ama top
10
2.071
20
-3.4454
0
VERTEX
8
ama top
10
1.9564
20
-3.4531
0
VERTEX
8
ama top
10
1.8269
20
-3.4622
0
VERTEX
8
ama top
10
1.68
20
-3.4728
0
VERTEX
8
ama top
10
1.5134
20
-3.4851
0
VERTEX
8
ama top
10
1.3294
20
-3.4989
0
VERTEX
8
ama top
10
1.1305
20
-3.514
0
VERTEX
8
ama top
10
0.9193
20
-3.5302
0
VERTEX
8
ama top
10
0.6981
20
-3.5473
0
VERTEX
8
ama top
10
0.4695
20
-3.565
0
VERTEX
8
ama top
10
0.236
20
-3.5831
0
VERTEX
8
ama top
10
0.0
20
-3.6015
0
VERTEX
8
ama top
10
0.236
20
-3.6199
0
VERTEX
8
ama top
10
0.4695
20
-3.638
0
VERTEX
8
ama top
10
0.6981
20
-3.6557
0
VERTEX
8
ama top
10
0.9193
20
-3.6728
0
VERTEX
8
ama top
10
1.1305
20
-3.689
0
VERTEX
8
ama top
10
1.3294
20
-3.7041
0
VERTEX
8
ama top
10
1.5134
20
-3.7179
0
VERTEX
8
ama top
10
1.68
20
-3.7302
0
VERTEX
8
ama top
10
1.8269
20
-3.7408
0
VERTEX
8
ama top
10
1.9564
20
-3.7499
0
VERTEX
8
ama top
10
2.071
20
-3.7576
0
VERTEX
8
ama top
10
2.1733
20
-3.7643
0
VERTEX
8
ama top
10
2.2656
20
-3.7702
0
VERTEX
8
ama top
10
2.3505
20
-3.7753
0
VERTEX
8
ama top
10
2.4305
20
-3.7801
0
VERTEX
8
ama top
10
2.508
20
-3.7846
0
VERTEX
8
ama top
10
2.5855
20
-3.7892
0
VERTEX
8
ama top
10
2.6635
20
-3.7937
0
VERTEX
8
ama top
10
2.7424
20
-3.7981
0
VERTEX
8
ama top
10
2.8228
20
-3.8024
0
VERTEX
8
ama top
10
2.9052
20
-3.8066
0
VERTEX
8
ama top
10
2.99
20
-3.8106
0
VERTEX
8
ama top
10
3.0777
20
-3.8143
0
VERTEX
8
ama top
10
3.1688
20
-3.8179
0
VERTEX
8
ama top
10
3.2638
20
-3.8211
0
VERTEX
8
ama top
10
3.3631
20
-3.8241
0
VERTEX
8
ama top
10
3.4669
20
-3.8266
0
VERTEX
8
ama top
10
3.5756
20
-3.8288
0
VERTEX
8
ama top
10
3.6895
20
-3.8306
0
VERTEX
8
ama top
10
3.8091
20
-3.832
0
VERTEX
8
ama top
10
3.9345
20
-3.8329
0
VERTEX
8
ama top
10
4.0662
20
-3.8333
0
VERTEX
8
ama top
10
4.2045
20
-3.8332
0
VERTEX
8
ama top
10
4.3474
20
-3.8326
0
VERTEX
8
ama top
10
4.4928
20
-3.8316
0
VERTEX
8
ama top
10
4.6388
20
-3.8303
0
VERTEX
8
ama top
10
4.7834
20
-3.8286
0
VERTEX
8
ama top
10
4.9246
20
-3.8267
0
VERTEX
8
ama top
10
5.0603
20
-3.8247
0
VERTEX
8
ama top
10
5.1886
20
-3.8225
0
VERTEX
8
ama top
10
5.3074
20
-3.8202
0
VERTEX
8
ama top
10
5.4172
20
-3.8179
0
VERTEX
8
ama top
10
5.5186
20
-3.8156
0
VERTEX
8
ama top
10
5.6119
20
-3.8134
0
VERTEX
8
ama top
10
5.6978
20
-3.8112
0
VERTEX
8
ama top
10
5.7766
20
-3.8091
0
VERTEX
8
ama top
10
5.8488
20
-3.8072
0
VERTEX
8
ama top
10
5.915
20
-3.8054
0
VERTEX
8
ama top
10
5.9756
20
-3.8039
0
VERTEX
8
ama top
10
6.0314
20
-3.8025
0
VERTEX
8
ama top
10
6.0829
20
-3.8013
0
VERTEX
8
ama top
10
6.131
20
-3.8002
0
VERTEX
8
ama top
10
6.1762
20
-3.7992
0
VERTEX
8
ama top
10
6.2194
20
-3.7983
0
VERTEX
8
ama top
10
6.2612
20
-3.7974
0
VERTEX
8
ama top
10
6.3022
20
-3.7966
0
VERTEX
8
ama top
10
6.3022
20
-3.7722
0
VERTEX
8
ama top
10
6.3022
20
-3.7478
0
VERTEX
8
ama top
10
6.3022
20
-3.7234
0
VERTEX
8
ama top
10
6.3022
20
-3.699
0
VERTEX
8
ama top
10
6.3022
20
-3.6747
0
VERTEX
8
ama top
10
6.3022
20
-3.6503
0
VERTEX
8
ama top
10
6.3022
20
-3.6259
0
VERTEX
8
ama top
10
6.3022
20
-3.6015
0
VERTEX
8
ama top
10
6.3022
20
-3.5771
0
VERTEX
8
ama top
10
6.3022
20
-3.5527
0
VERTEX
8
ama top
10
6.3022
20
-3.5283
0
VERTEX
8
ama top
10
6.3022
20
-3.504
0
VERTEX
8
ama top
10
6.3022
20
-3.4796
0
VERTEX
8
ama top
10
6.3022
20
-3.4552
0
VERTEX
8
ama top
10
6.3022
20
-3.4308
0
VERTEX
8
ama top
10
6.3022
20
-3.4064
0
VERTEX
8
ama top
10
6.2612
20
-3.4056
0
VERTEX
8
ama top
10
6.2194
20
-3.4047
0
VERTEX
8
ama top
10
6.1762
20
-3.4038
0
VERTEX
8
ama top
10
6.131
20
-3.4028
0
VERTEX
8
ama top
10
6.0829
20
-3.4017
0
VERTEX
8
ama top
10
6.0314
20
-3.4005
0
VERTEX
8
ama top
10
5.9757
20
-3.3991
0
VERTEX
8
ama top
10
5.915
20
-3.3976
0
VERTEX
8
ama top
10
5.8488
20
-3.3958
0
VERTEX
8
ama top
10
5.7766
20
-3.3939
0
VERTEX
8
ama top
10
5.6978
20
-3.3918
0
VERTEX
8
ama top
10
5.6119
20
-3.3896
0
VERTEX
8
ama top
10
5.5186
20
-3.3873
0
VERTEX
8
ama top
10
5.4172
20
-3.3851
0
VERTEX
8
ama top
10
5.3074
20
-3.3828
0
VERTEX
8
ama top
10
5.1886
20
-3.3805
0
VERTEX
8
ama top
10
5.0603
20
-3.3783
0
VERTEX
8
ama top
10
4.9246
20
-3.3762
0
VERTEX
8
ama top
10
4.7834
20
-3.3744
0
VERTEX
8
ama top
10
4.6388
20
-3.3727
0
VERTEX
8
ama top
10
4.4928
20
-3.3714
0
VERTEX
8
ama top
10
4.3474
20
-3.3704
0
VERTEX
8
ama top
10
4.2045
20
-3.3698
0
VERTEX
8
ama top
10
4.0662
20
-3.3697
0
VERTEX
8
ama top
10
3.9345
20
-3.3701
0
VERTEX
8
ama top
10
3.8091
20
-3.371
0
VERTEX
8
ama top
10
3.6895
20
-3.3723
0
VERTEX
8
ama top
10
3.5756
20
-3.3742
0
VERTEX
8
ama top
10
3.4669
20
-3.3764
0
VERTEX
8
ama top
10
3.3631
20
-3.3789
0
VERTEX
8
ama top
10
3.2638
20
-3.3819
0
VERTEX
8
ama top
10
3.1688
20
-3.3851
0
VERTEX
8
ama top
10
3.0777
20
-3.3886
0
VERTEX
8
ama top
10
2.99
20
-3.3924
0
VERTEX
8
ama top
10
2.9052
20
-3.3964
0
VERTEX
8
ama top
10
2.8228
20
-3.4006
0
VERTEX
8
ama top
10
2.7424
20
-3.4049
0
VERTEX
8
ama top
10
2.6635
20
-3.4093
0
VERTEX
8
ama top
10
2.5855
20
-3.4138
0
VERTEX
8
ama top
10
2.508
20
-3.4184
0
VERTEX
8
ama top
10
2.4305
20
-3.4229
0
VERTEX
8
ama top
10
2.3505
20
-3.4276
0
SEQEND
0
POLYLINE
8
ama top
62
94
66
1
0
VERTEX
8
ama top
10
2.3505
20
3.4276
0
VERTEX
8
ama top
10
2.2656
20
3.4328
0
VERTEX
8
ama top
10
2.1733
20
3.4387
0
VERTEX
8
ama top
10
2.071
20
3.4454
0
VERTEX
8
ama top
10
1.9564
20
3.4531
0
VERTEX
8
ama top
10
1.8269
20
3.4622
0
VERTEX
8
ama top
10
1.68
20
3.4728
0
VERTEX
8
ama top
10
1.5134
20
3.4851
0
VERTEX
8
ama top
10
1.3294
20
3.4989
0
VERTEX
8
ama top
10
1.1305
20
3.514
0
VERTEX
8
ama top
10
0.9193
20
3.5302
0
VERTEX
8
ama top
10
0.6981
20
3.5473
0
VERTEX
8
ama top
10
0.4695
20
3.565
0
VERTEX
8
ama top
10
0.236
20
3.5831
0
VERTEX
8
ama top
10
0.0
20
3.6015
0
VERTEX
8
ama top
10
0.236
20
3.6199
0
VERTEX
8
ama top
10
0.4695
20
3.638
0
VERTEX
8
ama top
10
0.6981
20
3.6557
0
VERTEX
8
ama top
10
0.9193
20
3.6728
0
VERTEX
8
ama top
10
1.1305
20
3.689
0
VERTEX
8
ama top
10
1.3294
20
3.7041
0
VERTEX
8
ama top
10
1.5134
20
3.7179
0
VERTEX
8
ama top
10
1.68
20
3.7302
0
VERTEX
8
ama top
10
1.8269
20
3.7408
0
VERTEX
8
ama top
10
1.9564
20
3.7499
0
VERTEX
8
ama top
10
2.071
20
3.7576
0
VERTEX
8
ama top
10
2.1733
20
3.7643
0
VERTEX
8
ama top
10
2.2656
20
3.7702
0
VERTEX
8
ama top
10
2.3505
20
3.7753
0
VERTEX
8
ama top
10
2.4305
20
3.7801
0
VERTEX
8
ama top
10
2.508
20
3.7846
0
VERTEX
8
ama top
10
2.5855
20
3.7892
0
VERTEX
8
ama top
10
2.6635
20
3.7937
0
VERTEX
8
ama top
10
2.7424
20
3.7981
0
VERTEX
8
ama top
10
2.8228
20
3.8024
0
VERTEX
8
ama top
10
2.9052
20
3.8066
0
VERTEX
8
ama top
10
2.99
20
3.8106
0
VERTEX
8
ama top
10
3.0777
20
3.8143
0
VERTEX
8
ama top
10
3.1688
20
3.8179
0
VERTEX
8
ama top
10
3.2638
20
3.8211
0
VERTEX
8
ama top
10
3.3631
20
3.8241
0
VERTEX
8
ama top
10
3.4669
20
3.8266
0
VERTEX
8
ama top
10
3.5756
20
3.8288
0
VERTEX
8
ama top
10
3.6895
20
3.8306
0
VERTEX
8
ama top
10
3.8091
20
3.832
0
VERTEX
8
ama top
10
3.9345
20
3.8329
0
VERTEX
8
ama top
10
4.0662
20
3.8333
0
VERTEX
8
ama top
10
4.2045
20
3.8332
0
VERTEX
8
ama top
10
4.3474
20
3.8326
0
VERTEX
8
ama top
10
4.4928
20
3.8316
0
VERTEX
8
ama top
10
4.6388
20
3.8303
0
VERTEX
8
ama top
10
4.7834
20
3.8286
0
VERTEX
8
ama top
10
4.9246
20
3.8267
0
VERTEX
8
ama top
10
5.0603
20
3.8247
0
VERTEX
8
ama top
10
5.1886
20
3.8225
0
VERTEX
8
ama top
10
5.3074
20
3.8202
0
VERTEX
8
ama top
10
5.4172
20
3.8179
0
VERTEX
8
ama top
10
5.5186
20
3.8156
0
VERTEX
8
ama top
10
5.6119
20
3.8134
0
VERTEX
8
ama top
10
5.6978
20
3.8112
0
VERTEX
8
ama top
10
5.7766
20
3.8091
0
VERTEX
8
ama top
10
5.8488
20
3.8072
0
VERTEX
8
ama top
10
5.915
20
3.8054
0
VERTEX
8
ama top
10
5.9756
20
3.8039
0
VERTEX
8
ama top
10
6.0314
20
3.8025
0
VERTEX
8
ama top
10
6.0829
20
3.8013
0
VERTEX
8
ama top
10
6.131
20
3.8002
0
VERTEX
8
ama top
10
6.1762
20
3.7992
0
VERTEX
8
ama top
10
6.2194
20
3.7983
0
VERTEX
8
ama top
10
6.2612
20
3.7974
0
VERTEX
8
ama top
10
6.3022
20
3.7966
0
VERTEX
8
ama top
10
6.3022
20
3.7722
0
VERTEX
8
ama top
10
6.3022
20
3.7478
0
VERTEX
8
ama top
10
6.3022
20
3.7234
0
VERTEX
8
ama top
10
6.3022
20
3.699
0
VERTEX
8
ama top
10
6.3022
20
3.6747
0
VERTEX
8
ama top
10
6.3022
20
3.6503
0
VERTEX
8
ama top
10
6.3022
20
3.6259
0
VERTEX
8
ama top
10
6.3022
20
3.6015
0
VERTEX
8
ama top
10
6.3022
20
3.5771
0
VERTEX
8
ama top
10
6.3022
20
3.5527
0
VERTEX
8
ama top
10
6.3022
20
3.5283
0
VERTEX
8
ama top
10
6.3022
20
3.504
0
VERTEX
8
ama top
10
6.3022
20
3.4796
0
VERTEX
8
ama top
10
6.3022
20
3.4552
0
VERTEX
8
ama top
10
6.3022
20
3.4308
0
VERTEX
8
ama top
10
6.3022
20
3.4064
0
VERTEX
8
ama top
10
6.2612
20
3.4056
0
VERTEX
8
ama top
10
6.2194
20
3.4047
0
VERTEX
8
ama top
10
6.1762
20
3.4038
0
VERTEX
8
ama top
10
6.131
20
3.4028
0
VERTEX
8
ama top
10
6.0829
20
3.4017
0
VERTEX
8
ama top
10
6.0314
20
3.4005
0
VERTEX
8
ama top
10
5.9757
20
3.3991
0
VERTEX
8
ama top
10
5.915
20
3.3976
0
VERTEX
8
ama top
10
5.8488
20
3.3958
0
VERTEX
8
ama top
10
5.7766
20
3.3939
0
VERTEX
8
ama top
10
5.6978
20
3.3918
0
VERTEX
8
ama top
10
5.6119
20
3.3896
0
VERTEX
8
ama top
10
5.5186
20
3.3873
0
VERTEX
8
ama top
10
5.4172
20
3.3851
0
VERTEX
8
ama top
10
5.3074
20
3.3828
0
VERTEX
8
ama top
10
5.1886
20
3.3805
0
VERTEX
8
ama top
10
5.0603
20
3.3783
0
VERTEX
8
ama top
10
4.9246
20
3.3762
0
VERTEX
8
ama top
10
4.7834
20
3.3744
0
VERTEX
8
ama top
10
4.6388
20
3.3727
0
VERTEX
8
ama top
10
4.4928
20
3.3714
0
VERTEX
8
ama top
10
4.3474
20
3.3704
0
VERTEX
8
ama top
10
4.2045
20
3.3698
0
VERTEX
8
ama top
10
4.0662
20
3.3697
0
VERTEX
8
ama top
10
3.9345
20
3.3701
0
VERTEX
8
ama top
10
3.8091
20
3.371
0
VERTEX
8
ama top
10
3.6895
20
3.3723
0
VERTEX
8
ama top
10
3.5756
20
3.3742
0
VERTEX
8
ama top
10
3.4669
20
3.3764
0
VERTEX
8
ama top
10
3.3631
20
3.3789
0
VERTEX
8
ama top
10
3.2638
20
3.3819
0
VERTEX
8
ama top
10
3.1688
20
3.3851
0
VERTEX
8
ama top
10
3.0777
20
3.3886
0
VERTEX
8
ama top
10
2.99
20
3.3924
0
VERTEX
8
ama top
10
2.9052
20
3.3964
0
VERTEX
8
ama top
10
2.8228
20
3.4006
0
VERTEX
8
ama top
10
2.7424
20
3.4049
0
VERTEX
8
ama top
10
2.6635
20
3.4093
0
VERTEX
8
ama top
10
2.5855
20
3.4138
0
VERTEX
8
ama top
10
2.508
20
3.4184
0
VERTEX
8
ama top
10
2.4305
20
3.4229
0
VERTEX
8
ama top
10
2.3505
20
3.4276
0
SEQEND
0
POLYLINE
8
Aft
62
94
66
1
0
VERTEX
8
Aft
10
0.7502
20
-3.8704
0
VERTEX
8
Aft
10
0.7003
20
-3.8704
0
VERTEX
8
Aft
10
0.6505
20
-3.8704
0
VERTEX
8
Aft
10
0.6007
20
-3.8704
0
VERTEX
8
Aft
10
0.5509
20
-3.8704
0
VERTEX
8
Aft
10
0.501
20
-3.8704
0
VERTEX
8
Aft
10
0.4512
20
-3.8704
0
VERTEX
8
Aft
10
0.4014
20
-3.8704
0
VERTEX
8
Aft
10
0.3728
20
-3.9019
0
VERTEX
8
Aft
10
0.3442
20
-3.9335
0
VERTEX
8
Aft
10
0.3157
20
-3.965
0
VERTEX
8
Aft
10
0.2871
20
-3.9966
0
VERTEX
8
Aft
10
0.2585
20
-4.0281
0
VERTEX
8
Aft
10
0.2299
20
-4.0596
0
VERTEX
8
Aft
10
0.2014
20
-4.0912
0
VERTEX
8
Aft
10
0.1728
20
-4.1227
0
VERTEX
8
Aft
10
0.1512
20
-4.1442
0
VERTEX
8
Aft
10
0.1296
20
-4.1657
0
VERTEX
8
Aft
10
0.108
20
-4.1872
0
VERTEX
8
Aft
10
0.0864
20
-4.2086
0
VERTEX
8
Aft
10
0.0648
20
-4.2301
0
VERTEX
8
Aft
10
0.0432
20
-4.2516
0
VERTEX
8
Aft
10
0.0216
20
-4.2731
0
VERTEX
8
Aft
10
0.0
20
-4.2946
0
VERTEX
8
Aft
10
0.0
20
-4.3196
0
VERTEX
8
Aft
10
0.0
20
-4.3446
0
VERTEX
8
Aft
10
0.0
20
-4.3696
0
VERTEX
8
Aft
10
0.0
20
-4.3946
0
VERTEX
8
Aft
10
0.0
20
-4.4196
0
VERTEX
8
Aft
10
0.0
20
-4.4446
0
VERTEX
8
Aft
10
0.0
20
-4.4697
0
VERTEX
8
Aft
10
0.0
20
-4.4947
0
VERTEX
8
Aft
10
0.0216
20
-4.4947
0
VERTEX
8
Aft
10
0.0432
20
-4.4947
0
VERTEX
8
Aft
10
0.0648
20
-4.4947
0
VERTEX
8
Aft
10
0.0864
20
-4.4947
0
VERTEX
8
Aft
10
0.108
20
-4.4947
0
VERTEX
8
Aft
10
0.1296
20
-4.4947
0
VERTEX
8
Aft
10
0.1512
20
-4.4947
0
VERTEX
8
Aft
10
0.1728
20
-4.4947
0
VERTEX
8
Aft
10
0.2512
20
-4.4947
0
VERTEX
8
Aft
10
0.3296
20
-4.4947
0
VERTEX
8
Aft
10
0.408
20
-4.4947
0
VERTEX
8
Aft
10
0.4864
20
-4.4947
0
VERTEX
8
Aft
10
0.5648
20
-4.4947
0
VERTEX
8
Aft
10
0.6432
20
-4.4947
0
VERTEX
8
Aft
10
0.7216
20
-4.4947
0
VERTEX
8
Aft
10
0.80
20
-4.4947
0
VERTEX
8
Aft
10
0.80
20
-4.4166
0
VERTEX
8
Aft
10
0.80
20
-4.3386
0
VERTEX
8
Aft
10
0.80
20
-4.2606
0
VERTEX
8
Aft
10
0.80
20
-4.1825
0
VERTEX
8
Aft
10
0.80
20
-4.1045
0
VERTEX
8
Aft
10
0.80
20
-4.0265
0
VERTEX
8
Aft
10
0.80
20
-3.9484
0
VERTEX
8
Aft
10
0.80
20
-3.8704
0
VERTEX
8
Aft
10
0.7502
20
-3.8704
0
SEQEND
0
POLYLINE
8
Aft
62
94
66
1
0
VERTEX
8
Aft
10
0.7502
20
-5.1189
0
VERTEX
8
Aft
10
0.7003
20
-5.1189
0
VERTEX
8
Aft
10
0.6505
20
-5.1189
0
VERTEX
8
Aft
10
0.6007
20
-5.1189
0
VERTEX
8
Aft
10
0.5509
20
-5.1189
0
VERTEX
8
Aft
10
0.501
20
-5.1189
0
VERTEX
8
Aft
10
0.4512
20
-5.1189
0
VERTEX
8
Aft
10
0.4014
20
-5.1189
0
VERTEX
8
Aft
10
0.3728
20
-5.0874
0
VERTEX
8
Aft
10
0.3442
20
-5.0559
0
VERTEX
8
Aft
10
0.3157
20
-5.0243
0
VERTEX
8
Aft
10
0.2871
20
-4.9928
0
VERTEX
8
Aft
10
0.2585
20
-4.9612
0
VERTEX
8
Aft
10
0.2299
20
-4.9297
0
VERTEX
8
Aft
10
0.2014
20
-4.8981
0
VERTEX
8
Aft
10
0.1728
20
-4.8666
0
VERTEX
8
Aft
10
0.1512
20
-4.8451
0
VERTEX
8
Aft
10
0.1296
20
-4.8236
0
VERTEX
8
Aft
10
0.108
20
-4.8022
0
VERTEX
8
Aft
10
0.0864
20
-4.7807
0
VERTEX
8
Aft
10
0.0648
20
-4.7592
0
VERTEX
8
Aft
10
0.0432
20
-4.7377
0
VERTEX
8
Aft
10
0.0216
20
-4.7162
0
VERTEX
8
Aft
10
0.0
20
-4.6948
0
VERTEX
8
Aft
10
0.0
20
-4.6698
0
VERTEX
8
Aft
10
0.0
20
-4.6447
0
VERTEX
8
Aft
10
0.0
20
-4.6197
0
VERTEX
8
Aft
10
0.0
20
-4.5947
0
VERTEX
8
Aft
10
0.0
20
-4.5697
0
VERTEX
8
Aft
10
0.0
20
-4.5447
0
VERTEX
8
Aft
10
0.0
20
-4.5197
0
VERTEX
8
Aft
10
0.0
20
-4.4947
0
VERTEX
8
Aft
10
0.0216
20
-4.4947
0
VERTEX
8
Aft
10
0.0432
20
-4.4947
0
VERTEX
8
Aft
10
0.0648
20
-4.4947
0
VERTEX
8
Aft
10
0.0864
20
-4.4947
0
VERTEX
8
Aft
10
0.108
20
-4.4947
0
VERTEX
8
Aft
10
0.1296
20
-4.4947
0
VERTEX
8
Aft
10
0.1512
20
-4.4947
0
VERTEX
8
Aft
10
0.1728
20
-4.4947
0
VERTEX
8
Aft
10
0.2512
20
-4.4947
0
VERTEX
8
Aft
10
0.3296
20
-4.4947
0
VERTEX
8
Aft
10
0.408
20
-4.4947
0
VERTEX
8
Aft
10
0.4864
20
-4.4947
0
VERTEX
8
Aft
10
0.5648
20
-4.4947
0
VERTEX
8
Aft
10
0.6432
20
-4.4947
0
VERTEX
8
Aft
10
0.7216
20
-4.4947
0
VERTEX
8
Aft
10
0.80
20
-4.4947
0
VERTEX
8
Aft
10
0.80
20
-4.5727
0
VERTEX
8
Aft
10
0.80
20
-4.6507
0
VERTEX
8
Aft
10
0.80
20
-4.7288
0
VERTEX
8
Aft
10
0.80
20
-4.8068
0
VERTEX
8
Aft
10
0.80
20
-4.8848
0
VERTEX
8
Aft
10
0.80
20
-4.9629
0
VERTEX
8
Aft
10
0.80
20
-5.0409
0
VERTEX
8
Aft
10
0.80
20
-5.1189
0
VERTEX
8
Aft
10
0.7502
20
-5.1189
0
SEQEND
0
POLYLINE
8
cabin top
62
94
66
1
0
VERTEX
8
cabin top
10
1.2671
20
4.2639
0
VERTEX
8
cabin top
10
1.4182
20
4.2639
0
VERTEX
8
cabin top
10
1.573
20
4.2639
0
VERTEX
8
cabin top
10
1.7304
20
4.2639
0
VERTEX
8
cabin top
10
1.889
20
4.2639
0
VERTEX
8
cabin top
10
1.889
20
4.2165
0
VERTEX
8
cabin top
10
1.889
20
4.169
0
VERTEX
8
cabin top
10
1.889
20
4.1215
0
VERTEX
8
cabin top
10
1.889
20
4.0741
0
VERTEX
8
cabin top
10
1.889
20
4.0266
0
VERTEX
8
cabin top
10
1.889
20
3.9792
0
VERTEX
8
cabin top
10
1.889
20
3.9317
0
VERTEX
8
cabin top
10
1.889
20
3.8842
0
VERTEX
8
cabin top
10
1.7304
20
3.8878
0
VERTEX
8
cabin top
10
1.5736
20
3.8915
0
VERTEX
8
cabin top
10
1.4205
20
3.8952
0
VERTEX
8
cabin top
10
1.2729
20
3.8991
0
VERTEX
8
cabin top
10
1.1327
20
3.9033
0
VERTEX
8
cabin top
10
1.0017
20
3.9078
0
VERTEX
8
cabin top
10
0.8818
20
3.9125
0
VERTEX
8
cabin top
10
0.7747
20
3.9177
0
VERTEX
8
cabin top
10
0.6824
20
3.9234
0
VERTEX
8
cabin top
10
0.6031
20
3.9299
0
VERTEX
8
cabin top
10
0.5349
20
3.9377
0
VERTEX
8
cabin top
10
0.4761
20
3.9471
0
VERTEX
8
cabin top
10
0.425
20
3.9586
0
VERTEX
8
cabin top
10
0.3797
20
3.9726
0
VERTEX
8
cabin top
10
0.3384
20
3.9894
0
VERTEX
8
cabin top
10
0.2994
20
4.0095
0
VERTEX
8
cabin top
10
0.2609
20
4.0333
0
VERTEX
8
cabin top
10
0.2228
20
4.0603
0
VERTEX
8
cabin top
10
0.1851
20
4.09
0
VERTEX
8
cabin top
10
0.1477
20
4.122
0
VERTEX
8
cabin top
10
0.1106
20
4.1559
0
VERTEX
8
cabin top
10
0.0736
20
4.1912
0
VERTEX
8
cabin top
10
0.0368
20
4.2273
0
VERTEX
8
cabin top
10
0.0
20
4.2639
0
VERTEX
8
cabin top
10
0.0775
20
4.2639
0
VERTEX
8
cabin top
10
0.1563
20
4.2639
0
VERTEX
8
cabin top
10
0.2375
20
4.2639
0
VERTEX
8
cabin top
10
0.3226
20
4.2639
0
VERTEX
8
cabin top
10
0.4128
20
4.2639
0
VERTEX
8
cabin top
10
0.5093
20
4.2639
0
VERTEX
8
cabin top
10
0.6134
20
4.2639
0
VERTEX
8
cabin top
10
0.7264
20
4.2639
0
VERTEX
8
cabin top
10
0.8496
20
4.2639
0
VERTEX
8
cabin top
10
0.9816
20
4.2639
0
VERTEX
8
cabin top
10
1.1212
20
4.2639
0
VERTEX
8
cabin top
10
1.2671
20
4.2639
0
SEQEND
0
POLYLINE
8
cabin top
62
94
66
1
0
VERTEX
8
cabin top
10
1.2671
20
4.2639
0
VERTEX
8
cabin top
10
1.4182
20
4.2639
0
VERTEX
8
cabin top
10
1.573
20
4.2639
0
VERTEX
8
cabin top
10
1.7304
20
4.2639
0
VERTEX
8
cabin top
10
1.889
20
4.2639
0
VERTEX
8
cabin top
10
1.889
20
4.3114
0
VERTEX
8
cabin top
10
1.889
20
4.3589
0
VERTEX
8
cabin top
10
1.889
20
4.4063
0
VERTEX
8
cabin top
10
1.889
20
4.4538
0
VERTEX
8
cabin top
10
1.889
20
4.5013
0
VERTEX
8
cabin top
10
1.889
20
4.5487
0
VERTEX
8
cabin top
10
1.889
20
4.5962
0
VERTEX
8
cabin top
10
1.889
20
4.6437
0
VERTEX
8
cabin top
10
1.7304
20
4.6401
0
VERTEX
8
cabin top
10
1.5736
20
4.6364
0
VERTEX
8
cabin top
10
1.4205
20
4.6327
0
VERTEX
8
cabin top
10
1.2729
20
4.6287
0
VERTEX
8
cabin top
10
1.1327
20
4.6246
0
VERTEX
8
cabin top
10
1.0017
20
4.6201
0
VERTEX
8
cabin top
10
0.8818
20
4.6154
0
VERTEX
8
cabin top
10
0.7747
20
4.6102
0
VERTEX
8
cabin top
10
0.6824
20
4.6045
0
VERTEX
8
cabin top
10
0.6031
20
4.598
0
VERTEX
8
cabin top
10
0.5349
20
4.5902
0
VERTEX
8
cabin top
10
0.4761
20
4.5808
0
VERTEX
8
cabin top
10
0.425
20
4.5693
0
VERTEX
8
cabin top
10
0.3797
20
4.5553
0
VERTEX
8
cabin top
10
0.3384
20
4.5385
0
VERTEX
8
cabin top
10
0.2994
20
4.5184
0
VERTEX
8
cabin top
10
0.2609
20
4.4946
0
VERTEX
8
cabin top
10
0.2228
20
4.4676
0
VERTEX
8
cabin top
10
0.1851
20
4.4379
0
VERTEX
8
cabin top
10
0.1477
20
4.4059
0
VERTEX
8
cabin top
10
0.1106
20
4.372
0
VERTEX
8
cabin top
10
0.0736
20
4.3367
0
VERTEX
8
cabin top
10
0.0368
20
4.3006
0
VERTEX
8
cabin top
10
0.0
20
4.2639
0
VERTEX
8
cabin top
10
0.0775
20
4.2639
0
VERTEX
8
cabin top
10
0.1563
20
4.2639
0
VERTEX
8
cabin top
10
0.2375
20
4.2639
0
VERTEX
8
cabin top
10
0.3226
20
4.2639
0
VERTEX
8
cabin top
10
0.4128
20
4.2639
0
VERTEX
8
cabin top
10
0.5093
20
4.2639
0
VERTEX
8
cabin top
10
0.6134
20
4.2639
0
VERTEX
8
cabin top
10
0.7264
20
4.2639
0
VERTEX
8
cabin top
10
0.8496
20
4.2639
0
VERTEX
8
cabin top
10
0.9816
20
4.2639
0
VERTEX
8
cabin top
10
1.1212
20
4.2639
0
VERTEX
8
cabin top
10
1.2671
20
4.2639
0
SEQEND
0
POLYLINE
8
Bottom
62
94
66
1
0
VERTEX
8
Bottom
10
0.1772
20
-5.7352
0
VERTEX
8
Bottom
10
0.231
20
-5.7362
0
VERTEX
8
Bottom
10
0.2913
20
-5.7374
0
VERTEX
8
Bottom
10
0.3592
20
-5.7387
0
VERTEX
8
Bottom
10
0.4361
20
-5.7402
0
VERTEX
8
Bottom
10
0.5233
20
-5.7419
0
VERTEX
8
Bottom
10
0.62
20
-5.7438
0
VERTEX
8
Bottom
10
0.7256
20
-5.7458
0
VERTEX
8
Bottom
10
0.8394
20
-5.7479
0
VERTEX
8
Bottom
10
0.9608
20
-5.75
0
VERTEX
8
Bottom
10
1.0889
20
-5.7522
0
VERTEX
8
Bottom
10
1.2232
20
-5.7543
0
VERTEX
8
Bottom
10
1.3629
20
-5.7564
0
VERTEX
8
Bottom
10
1.5074
20
-5.7584
0
VERTEX
8
Bottom
10
1.656
20
-5.7603
0
VERTEX
8
Bottom
10
1.8081
20
-5.762
0
VERTEX
8
Bottom
10
1.963
20
-5.7634
0
VERTEX
8
Bottom
10
2.1201
20
-5.7644
0
VERTEX
8
Bottom
10
2.2788
20
-5.7651
0
VERTEX
8
Bottom
10
2.4384
20
-5.7653
0
VERTEX
8
Bottom
10
2.5983
20
-5.765
0
VERTEX
8
Bottom
10
2.7579
20
-5.7642
0
VERTEX
8
Bottom
10
2.9159
20
-5.7628
0
VERTEX
8
Bottom
10
3.0711
20
-5.7609
0
VERTEX
8
Bottom
10
3.2222
20
-5.7586
0
VERTEX
8
Bottom
10
3.3682
20
-5.7558
0
VERTEX
8
Bottom
10
3.5077
20
-5.7527
0
VERTEX
8
Bottom
10
3.6396
20
-5.7492
0
VERTEX
8
Bottom
10
3.7626
20
-5.7454
0
VERTEX
8
Bottom
10
3.8755
20
-5.7414
0
VERTEX
8
Bottom
10
3.9795
20
-5.7371
0
VERTEX
8
Bottom
10
4.076
20
-5.7327
0
VERTEX
8
Bottom
10
4.1662
20
-5.7281
0
VERTEX
8
Bottom
10
4.2514
20
-5.7233
0
VERTEX
8
Bottom
10
4.3327
20
-5.7185
0
VERTEX
8
Bottom
10
4.4115
20
-5.7136
0
VERTEX
8
Bottom
10
4.4891
20
-5.7086
0
VERTEX
8
Bottom
10
4.5667
20
-5.7037
0
VERTEX
8
Bottom
10
4.6467
20
-5.6985
0
VERTEX
8
Bottom
10
4.7317
20
-5.693
0
VERTEX
8
Bottom
10
4.8242
20
-5.6868
0
VERTEX
8
Bottom
10
4.9266
20
-5.6799
0
VERTEX
8
Bottom
10
5.0415
20
-5.6719
0
VERTEX
8
Bottom
10
5.1713
20
-5.6627
0
VERTEX
8
Bottom
10
5.3185
20
-5.6522
0
VERTEX
8
Bottom
10
5.4856
20
-5.64
0
VERTEX
8
Bottom
10
5.6701
20
-5.6264
0
VERTEX
8
Bottom
10
5.8696
20
-5.6116
0
VERTEX
8
Bottom
10
6.0815
20
-5.5958
0
VERTEX
8
Bottom
10
6.3034
20
-5.5792
0
VERTEX
8
Bottom
10
6.5328
20
-5.562
0
VERTEX
8
Bottom
10
6.7671
20
-5.5444
0
VERTEX
8
Bottom
10
7.004
20
-5.5266
0
VERTEX
8
Bottom
10
7.004
20
-5.5266
0
VERTEX
8
Bottom
10
7.004
20
-5.5266
0
VERTEX
8
Bottom
10
7.004
20
-5.5266
0
VERTEX
8
Bottom
10
7.004
20
-5.5266
0
VERTEX
8
Bottom
10
7.004
20
-5.5266
0
VERTEX
8
Bottom
10
7.004
20
-5.5266
0
VERTEX
8
Bottom
10
7.004
20
-5.5266
0
VERTEX
8
Bottom
10
7.004
20
-5.5266
0
VERTEX
8
Bottom
10
6.7671
20
-5.5268
0
VERTEX
8
Bottom
10
6.5328
20
-5.527
0
VERTEX
8
Bottom
10
6.3034
20
-5.5271
0
VERTEX
8
Bottom
10
6.0815
20
-5.5273
0
VERTEX
8
Bottom
10
5.8696
20
-5.5275
0
VERTEX
8
Bottom
10
5.6701
20
-5.5276
0
VERTEX
8
Bottom
10
5.4855
20
-5.5278
0
VERTEX
8
Bottom
10
5.3184
20
-5.5279
0
VERTEX
8
Bottom
10
5.1712
20
-5.528
0
VERTEX
8
Bottom
10
5.0414
20
-5.5281
0
VERTEX
8
Bottom
10
4.9265
20
-5.5282
0
VERTEX
8
Bottom
10
4.8241
20
-5.5282
0
VERTEX
8
Bottom
10
4.7316
20
-5.5283
0
VERTEX
8
Bottom
10
4.6466
20
-5.5284
0
VERTEX
8
Bottom
10
4.5665
20
-5.5284
0
VERTEX
8
Bottom
10
4.489
20
-5.5285
0
VERTEX
8
Bottom
10
4.4114
20
-5.5285
0
VERTEX
8
Bottom
10
4.3326
20
-5.5286
0
VERTEX
8
Bottom
10
4.2512
20
-5.5286
0
VERTEX
8
Bottom
10
4.1661
20
-5.5287
0
VERTEX
8
Bottom
10
4.0759
20
-5.5287
0
VERTEX
8
Bottom
10
3.9794
20
-5.5288
0
VERTEX
8
Bottom
10
3.8753
20
-5.5289
0
VERTEX
8
Bottom
10
3.7624
20
-5.529
0
VERTEX
8
Bottom
10
3.6394
20
-5.5291
0
VERTEX
8
Bottom
10
3.5076
20
-5.5292
0
VERTEX
8
Bottom
10
3.368
20
-5.5292
0
VERTEX
8
Bottom
10
3.2221
20
-5.5294
0
VERTEX
8
Bottom
10
3.0709
20
-5.5295
0
VERTEX
8
Bottom
10
2.9157
20
-5.5296
0
VERTEX
8
Bottom
10
2.7577
20
-5.5297
0
VERTEX
8
Bottom
10
2.5982
20
-5.5298
0
VERTEX
8
Bottom
10
2.4383
20
-5.5299
0
VERTEX
8
Bottom
10
2.278
20
-5.53
0
VERTEX
8
Bottom
10
2.1174
20
-5.5301
0
VERTEX
8
Bottom
10
1.9564
20
-5.5302
0
VERTEX
8
Bottom
10
1.7951
20
-5.5304
0
VERTEX
8
Bottom
10
1.6334
20
-5.5305
0
VERTEX
8
Bottom
10
1.4713
20
-5.5306
0
VERTEX
8
Bottom
10
1.3089
20
-5.5307
0
VERTEX
8
Bottom
10
1.1461
20
-5.5308
0
VERTEX
8
Bottom
10
0.983
20
-5.5309
0
VERTEX
8
Bottom
10
0.8196
20
-5.5311
0
VERTEX
8
Bottom
10
0.656
20
-5.5312
0
VERTEX
8
Bottom
10
0.4922
20
-5.5313
0
VERTEX
8
Bottom
10
0.3283
20
-5.5314
0
VERTEX
8
Bottom
10
0.1642
20
-5.5315
0
VERTEX
8
Bottom
10
0.0001
20
-5.5316
0
VERTEX
8
Bottom
10
0.0002
20
-5.5566
0
VERTEX
8
Bottom
10
0.0002
20
-5.5817
0
VERTEX
8
Bottom
10
0.0002
20
-5.6067
0
VERTEX
8
Bottom
10
0.0002
20
-5.6317
0
VERTEX
8
Bottom
10
0.0002
20
-5.6567
0
VERTEX
8
Bottom
10
0.0003
20
-5.6817
0
VERTEX
8
Bottom
10
0.0003
20
-5.7067
0
VERTEX
8
Bottom
10
0.0003
20
-5.7317
0
VERTEX
8
Bottom
10
0.0413
20
-5.7325
0
VERTEX
8
Bottom
10
0.0836
20
-5.7334
0
VERTEX
8
Bottom
10
0.1285
20
-5.7342
0
VERTEX
8
Bottom
10
0.1772
20
-5.7352
0
SEQEND
0
POLYLINE
8
Bottom
62
94
66
1
0
VERTEX
8
Bottom
10
0.1769
20
-5.3278
0
VERTEX
8
Bottom
10
0.2307
20
-5.3267
0
VERTEX
8
Bottom
10
0.291
20
-5.3254
0
VERTEX
8
Bottom
10
0.3589
20
-5.324
0
VERTEX
8
Bottom
10
0.4358
20
-5.3224
0
VERTEX
8
Bottom
10
0.523
20
-5.3206
0
VERTEX
8
Bottom
10
0.6197
20
-5.3186
0
VERTEX
8
Bottom
10
0.7253
20
-5.3164
0
VERTEX
8
Bottom
10
0.8391
20
-5.3142
0
VERTEX
8
Bottom
10
0.9605
20
-5.3119
0
VERTEX
8
Bottom
10
1.0886
20
-5.3095
0
VERTEX
8
Bottom
10
1.2229
20
-5.3072
0
VERTEX
8
Bottom
10
1.3626
20
-5.3049
0
VERTEX
8
Bottom
10
1.5071
20
-5.3027
0
VERTEX
8
Bottom
10
1.6557
20
-5.3006
0
VERTEX
8
Bottom
10
1.8077
20
-5.2987
0
VERTEX
8
Bottom
10
1.9627
20
-5.2971
0
VERTEX
8
Bottom
10
2.1198
20
-5.2958
0
VERTEX
8
Bottom
10
2.2785
20
-5.2949
0
VERTEX
8
Bottom
10
2.4381
20
-5.2944
0
VERTEX
8
Bottom
10
2.598
20
-5.2945
0
VERTEX
8
Bottom
10
2.7576
20
-5.2951
0
VERTEX
8
Bottom
10
2.9155
20
-5.2963
0
VERTEX
8
Bottom
10
3.0707
20
-5.298
0
VERTEX
8
Bottom
10
3.2219
20
-5.3001
0
VERTEX
8
Bottom
10
3.3679
20
-5.3026
0
VERTEX
8
Bottom
10
3.5074
20
-5.3056
0
VERTEX
8
Bottom
10
3.6393
20
-5.3088
0
VERTEX
8
Bottom
10
3.7623
20
-5.3124
0
VERTEX
8
Bottom
10
3.8752
20
-5.3163
0
VERTEX
8
Bottom
10
3.9792
20
-5.3204
0
VERTEX
8
Bottom
10
4.0757
20
-5.3247
0
VERTEX
8
Bottom
10
4.1659
20
-5.3292
0
VERTEX
8
Bottom
10
4.2511
20
-5.3339
0
VERTEX
8
Bottom
10
4.3324
20
-5.3386
0
VERTEX
8
Bottom
10
4.4113
20
-5.3434
0
VERTEX
8
Bottom
10
4.4888
20
-5.3482
0
VERTEX
8
Bottom
10
4.5664
20
-5.3531
0
VERTEX
8
Bottom
10
4.6465
20
-5.3581
0
VERTEX
8
Bottom
10
4.7315
20
-5.3635
0
VERTEX
8
Bottom
10
4.824
20
-5.3695
0
VERTEX
8
Bottom
10
4.9264
20
-5.3763
0
VERTEX
8
Bottom
10
5.0413
20
-5.3841
0
VERTEX
8
Bottom
10
5.1711
20
-5.3931
0
VERTEX
8
Bottom
10
5.3183
20
-5.4035
0
VERTEX
8
Bottom
10
5.4854
20
-5.4154
0
VERTEX
8
Bottom
10
5.67
20
-5.4287
0
VERTEX
8
Bottom
10
5.8695
20
-5.4432
0
VERTEX
8
Bottom
10
6.0815
20
-5.4587
0
VERTEX
8
Bottom
10
6.3034
20
-5.475
0
VERTEX
8
Bottom
10
6.5327
20
-5.4919
0
VERTEX
8
Bottom
10
6.7671
20
-5.5091
0
VERTEX
8
Bottom
10
7.004
20
-5.5266
0
VERTEX
8
Bottom
10
7.004
20
-5.5266
0
VERTEX
8
Bottom
10
7.004
20
-5.5266
0
VERTEX
8
Bottom
10
7.004
20
-5.5266
0
VERTEX
8
Bottom
10
7.004
20
-5.5266
0
VERTEX
8
Bottom
10
7.004
20
-5.5266
0
VERTEX
8
Bottom
10
7.004
20
-5.5266
0
VERTEX
8
Bottom
10
7.004
20
-5.5266
0
VERTEX
8
Bottom
10
7.004
20
-5.5266
0
VERTEX
8
Bottom
10
6.7671
20
-5.5268
0
VERTEX
8
Bottom
10
6.5328
20
-5.5269
0
VERTEX
8
Bottom
10
6.3034
20
-5.5271
0
VERTEX
8
Bottom
10
6.0815
20
-5.5272
0
VERTEX
8
Bottom
10
5.8696
20
-5.5274
0
VERTEX
8
Bottom
10
5.6701
20
-5.5275
0
VERTEX
8
Bottom
10
5.4855
20
-5.5276
0
VERTEX
8
Bottom
10
5.3184
20
-5.5278
0
VERTEX
8
Bottom
10
5.1712
20
-5.5279
0
VERTEX
8
Bottom
10
5.0414
20
-5.528
0
VERTEX
8
Bottom
10
4.9265
20
-5.528
0
VERTEX
8
Bottom
10
4.8241
20
-5.5281
0
VERTEX
8
Bottom
10
4.7316
20
-5.5282
0
VERTEX
8
Bottom
10
4.6466
20
-5.5283
0
VERTEX
8
Bottom
10
4.5665
20
-5.5283
0
VERTEX
8
Bottom
10
4.489
20
-5.5284
0
VERTEX
8
Bottom
10
4.4114
20
-5.5284
0
VERTEX
8
Bottom
10
4.3326
20
-5.5285
0
VERTEX
8
Bottom
10
4.2512
20
-5.5285
0
VERTEX
8
Bottom
10
4.1661
20
-5.5286
0
VERTEX
8
Bottom
10
4.0759
20
-5.5287
0
VERTEX
8
Bottom
10
3.9794
20
-5.5287
0
VERTEX
8
Bottom
10
3.8753
20
-5.5288
0
VERTEX
8
Bottom
10
3.7624
20
-5.5289
0
VERTEX
8
Bottom
10
3.6394
20
-5.529
0
VERTEX
8
Bottom
10
3.5076
20
-5.5291
0
VERTEX
8
Bottom
10
3.368
20
-5.5292
0
VERTEX
8
Bottom
10
3.2221
20
-5.5293
0
VERTEX
8
Bottom
10
3.0709
20
-5.5294
0
VERTEX
8
Bottom
10
2.9157
20
-5.5295
0
VERTEX
8
Bottom
10
2.7577
20
-5.5296
0
VERTEX
8
Bottom
10
2.5982
20
-5.5297
0
VERTEX
8
Bottom
10
2.4383
20
-5.5299
0
VERTEX
8
Bottom
10
2.278
20
-5.53
0
VERTEX
8
Bottom
10
2.1174
20
-5.5301
0
VERTEX
8
Bottom
10
1.9564
20
-5.5302
0
VERTEX
8
Bottom
10
1.7951
20
-5.5303
0
VERTEX
8
Bottom
10
1.6334
20
-5.5305
0
VERTEX
8
Bottom
10
1.4713
20
-5.5306
0
VERTEX
8
Bottom
10
1.3089
20
-5.5307
0
VERTEX
8
Bottom
10
1.1461
20
-5.5308
0
VERTEX
8
Bottom
10
0.983
20
-5.5309
0
VERTEX
8
Bottom
10
0.8196
20
-5.531
0
VERTEX
8
Bottom
10
0.656
20
-5.5312
0
VERTEX
8
Bottom
10
0.4922
20
-5.5313
0
VERTEX
8
Bottom
10
0.3283
20
-5.5314
0
VERTEX
8
Bottom
10
0.1642
20
-5.5315
0
VERTEX
8
Bottom
10
0.0001
20
-5.5316
0
VERTEX
8
Bottom
10
0.0001
20
-5.5066
0
VERTEX
8
Bottom
10
0.0001
20
-5.4816
0
VERTEX
8
Bottom
10
0.0001
20
-5.4566
0
VERTEX
8
Bottom
10
0.0001
20
-5.4316
0
VERTEX
8
Bottom
10
0.0001
20
-5.4066
0
VERTEX
8
Bottom
10
0.0
20
-5.3816
0
VERTEX
8
Bottom
10
0.0
20
-5.3565
0
VERTEX
8
Bottom
10
0.0
20
-5.3315
0
VERTEX
8
Bottom
10
0.041
20
-5.3307
0
VERTEX
8
Bottom
10
0.0833
20
-5.3298
0
VERTEX
8
Bottom
10
0.1282
20
-5.3288
0
VERTEX
8
Bottom
10
0.1769
20
-5.3278
0
SEQEND
0
POLYLINE
8
side
62
94
66
1
0
VERTEX
8
side
10
7.1104
20
4.944
0
VERTEX
8
side
10
7.1105
20
4.9741
0
VERTEX
8
side
10
7.1105
20
5.0043
0
VERTEX
8
side
10
7.1105
20
5.0344
0
VERTEX
8
side
10
7.1106
20
5.0646
0
VERTEX
8
side
10
7.1104
20
5.0931
0
VERTEX
8
side
10
7.1103
20
5.1217
0
VERTEX
8
side
10
7.1103
20
5.1503
0
VERTEX
8
side
10
7.1102
20
5.1789
0
VERTEX
8
side
10
7.1102
20
5.2074
0
VERTEX
8
side
10
7.1102
20
5.236
0
VERTEX
8
side
10
7.1104
20
5.2646
0
VERTEX
8
side
10
7.1106
20
5.2932
0
VERTEX
8
side
10
7.1011
20
5.3203
0
VERTEX
8
side
10
7.0918
20
5.3476
0
VERTEX
8
side
10
7.0829
20
5.3749
0
VERTEX
8
side
10
7.0743
20
5.4024
0
VERTEX
8
side
10
7.0659
20
5.4299
0
VERTEX
8
side
10
7.0579
20
5.4575
0
VERTEX
8
side
10
7.0502
20
5.4853
0
VERTEX
8
side
10
7.0428
20
5.5131
0
VERTEX
8
side
10
6.8058
20
5.5284
0
VERTEX
8
side
10
6.5715
20
5.5471
0
VERTEX
8
side
10
6.3425
20
5.5685
0
VERTEX
8
side
10
6.1212
20
5.5918
0
VERTEX
8
side
10
5.9101
20
5.6161
0
VERTEX
8
side
10
5.7116
20
5.6404
0
VERTEX
8
side
10
5.528
20
5.6637
0
VERTEX
8
side
10
5.3618
20
5.6851
0
VERTEX
8
side
10
5.2091
20
5.704
0
VERTEX
8
side
10
5.0737
20
5.7203
0
VERTEX
8
side
10
4.9531
20
5.7344
0
VERTEX
8
side
10
4.8449
20
5.7465
0
VERTEX
8
side
10
4.7465
20
5.7569
0
VERTEX
8
side
10
4.6556
20
5.7661
0
VERTEX
8
side
10
4.5697
20
5.7746
0
VERTEX
8
side
10
4.4862
20
5.7828
0
VERTEX
8
side
10
4.4088
20
5.7907
0
VERTEX
8
side
10
4.3302
20
5.7986
0
VERTEX
8
side
10
4.2491
20
5.8065
0
VERTEX
8
side
10
4.1642
20
5.8143
0
VERTEX
8
side
10
4.0742
20
5.822
0
VERTEX
8
side
10
3.9779
20
5.8295
0
VERTEX
8
side
10
3.874
20
5.8366
0
VERTEX
8
side
10
3.7613
20
5.8434
0
VERTEX
8
side
10
3.6384
20
5.8498
0
VERTEX
8
side
10
3.5066
20
5.8556
0
VERTEX
8
side
10
3.3672
20
5.8609
0
VERTEX
8
side
10
3.2212
20
5.8655
0
VERTEX
8
side
10
3.0701
20
5.8694
0
VERTEX
8
side
10
2.9149
20
5.8724
0
VERTEX
8
side
10
2.7569
20
5.8746
0
VERTEX
8
side
10
2.5974
20
5.8759
0
VERTEX
8
side
10
2.4375
20
5.8761
0
VERTEX
8
side
10
2.2779
20
5.8754
0
VERTEX
8
side
10
2.1192
20
5.8739
0
VERTEX
8
side
10
1.9621
20
5.8717
0
VERTEX
8
side
10
1.8072
20
5.869
0
VERTEX
8
side
10
1.6551
20
5.8658
0
VERTEX
8
side
10
1.5065
20
5.8622
0
VERTEX
8
side
10
1.3621
20
5.8583
0
VERTEX
8
side
10
1.2224
20
5.8544
0
VERTEX
8
side
10
1.0882
20
5.8503
0
VERTEX
8
side
10
0.9601
20
5.8463
0
VERTEX
8
side
10
0.8388
20
5.8423
0
VERTEX
8
side
10
0.725
20
5.8384
0
VERTEX
8
side
10
0.6195
20
5.8347
0
VERTEX
8
side
10
0.5228
20
5.8313
0
VERTEX
8
side
10
0.4357
20
5.8282
0
VERTEX
8
side
10
0.3588
20
5.8255
0
VERTEX
8
side
10
0.2909
20
5.8231
0
VERTEX
8
side
10
0.2306
20
5.821
0
VERTEX
8
side
10
0.1768
20
5.8192
0
VERTEX
8
side
10
0.1281
20
5.8175
0
VERTEX
8
side
10
0.0833
20
5.8159
0
VERTEX
8
side
10
0.041
20
5.8145
0
VERTEX
8
side
10
0.0
20
5.813
0
VERTEX
8
side
10
0.0014
20
5.7826
0
VERTEX
8
side
10
0.0027
20
5.7522
0
VERTEX
8
side
10
0.0041
20
5.7218
0
VERTEX
8
side
10
0.0055
20
5.6913
0
VERTEX
8
side
10
0.0069
20
5.6609
0
VERTEX
8
side
10
0.0082
20
5.6305
0
VERTEX
8
side
10
0.0096
20
5.60
0
VERTEX
8
side
10
0.011
20
5.5696
0
VERTEX
8
side
10
0.0131
20
5.5271
0
VERTEX
8
side
10
0.0152
20
5.4846
0
VERTEX
8
side
10
0.0173
20
5.4421
0
VERTEX
8
side
10
0.0194
20
5.3996
0
VERTEX
8
side
10
0.0216
20
5.3571
0
VERTEX
8
side
10
0.0237
20
5.3146
0
VERTEX
8
side
10
0.0258
20
5.2721
0
VERTEX
8
side
10
0.0279
20
5.2295
0
VERTEX
8
side
10
0.0278
20
5.1797
0
VERTEX
8
side
10
0.0278
20
5.1299
0
VERTEX
8
side
10
0.0277
20
5.0801
0
VERTEX
8
side
10
0.0277
20
5.0302
0
VERTEX
8
side
10
0.0276
20
4.9804
0
VERTEX
8
side
10
0.0276
20
4.9306
0
VERTEX
8
side
10
0.0275
20
4.8808
0
VERTEX
8
side
10
0.0275
20
4.8309
0
VERTEX
8
side
10
0.0686
20
4.8309
0
VERTEX
8
side
10
0.1098
20
4.8308
0
VERTEX
8
side
10
0.151
20
4.8308
0
VERTEX
8
side
10
0.1921
20
4.8308
0
VERTEX
8
side
10
0.2333
20
4.8307
0
VERTEX
8
side
10
0.2744
20
4.8307
0
VERTEX
8
side
10
0.3156
20
4.8306
0
VERTEX
8
side
10
0.3568
20
4.8306
0
VERTEX
8
side
10
0.4802
20
4.8304
0
VERTEX
8
side
10
0.6043
20
4.8303
0
VERTEX
8
side
10
0.7296
20
4.8302
0
VERTEX
8
side
10
0.8566
20
4.83
0
VERTEX
8
side
10
0.986
20
4.8299
0
VERTEX
8
side
10
1.1184
20
4.8298
0
VERTEX
8
side
10
1.2544
20
4.8296
0
VERTEX
8
side
10
1.3944
20
4.8295
0
VERTEX
8
side
10
1.5393
20
4.8293
0
VERTEX
8
side
10
1.6882
20
4.8291
0
VERTEX
8
side
10
1.8406
20
4.829
0
VERTEX
8
side
10
1.9959
20
4.8288
0
VERTEX
8
side
10
2.1533
20
4.8286
0
VERTEX
8
side
10
2.3123
20
4.8285
0
VERTEX
8
side
10
2.4721
20
4.8283
0
VERTEX
8
side
10
2.6323
20
4.8281
0
VERTEX
8
side
10
2.7921
20
4.828
0
VERTEX
8
side
10
2.9504
20
4.8278
0
VERTEX
8
side
10
3.1059
20
4.8276
0
VERTEX
8
side
10
3.2575
20
4.8275
0
VERTEX
8
side
10
3.4039
20
4.8273
0
VERTEX
8
side
10
3.5439
20
4.8271
0
VERTEX
8
side
10
3.6762
20
4.827
0
VERTEX
8
side
10
3.7998
20
4.8269
0
VERTEX
8
side
10
3.9134
20
4.8268
0
VERTEX
8
side
10
4.0182
20
4.8266
0
VERTEX
8
side
10
4.1155
20
4.8265
0
VERTEX
8
side
10
4.2067
20
4.8264
0
VERTEX
8
side
10
4.2929
20
4.8263
0
VERTEX
8
side
10
4.3754
20
4.8263
0
VERTEX
8
side
10
4.4555
20
4.8262
0
VERTEX
8
side
10
4.5343
20
4.8261
0
VERTEX
8
side
10
4.6132
20
4.826
0
VERTEX
8
side
10
4.6946
20
4.8259
0
VERTEX
8
side
10
4.7811
20
4.8258
0
VERTEX
8
side
10
4.8753
20
4.8257
0
VERTEX
8
side
10
4.9798
20
4.8256
0
VERTEX
8
side
10
5.0971
20
4.8255
0
VERTEX
8
side
10
5.2298
20
4.8254
0
VERTEX
8
side
10
5.3805
20
4.8252
0
VERTEX
8
side
10
5.5518
20
4.825
0
VERTEX
8
side
10
5.741
20
4.8248
0
VERTEX
8
side
10
5.9457
20
4.8246
0
VERTEX
8
side
10
6.1632
20
4.8244
0
VERTEX
8
side
10
6.391
20
4.8241
0
VERTEX
8
side
10
6.6265
20
4.8239
0
VERTEX
8
side
10
6.8671
20
4.8236
0
VERTEX
8
side
10
7.1103
20
4.8234
0
VERTEX
8
side
10
7.1103
20
4.8535
0
VERTEX
8
side
10
7.1104
20
4.8837
0
VERTEX
8
side
10
7.1104
20
4.9138
0
VERTEX
8
side
10
7.1104
20
4.944
0
SEQEND
0
POLYLINE
8
side
62
94
66
1
0
VERTEX
8
side
10
7.1104
20
-6.0656
0
VERTEX
8
side
10
7.1105
20
-6.0958
0
VERTEX
8
side
10
7.1105
20
-6.1259
0
VERTEX
8
side
10
7.1105
20
-6.1561
0
VERTEX
8
side
10
7.1106
20
-6.1862
0
VERTEX
8
side
10
7.1104
20
-6.2148
0
VERTEX
8
side
10
7.1103
20
-6.2434
0
VERTEX
8
side
10
7.1103
20
-6.272
0
VERTEX
8
side
10
7.1102
20
-6.3005
0
VERTEX
8
side
10
7.1102
20
-6.3291
0
VERTEX
8
side
10
7.1102
20
-6.3577
0
VERTEX
8
side
10
7.1104
20
-6.3863
0
VERTEX
8
side
10
7.1106
20
-6.4148
0
VERTEX
8
side
10
7.1011
20
-6.442
0
VERTEX
8
side
10
7.0918
20
-6.4692
0
VERTEX
8
side
10
7.0829
20
-6.4966
0
VERTEX
8
side
10
7.0743
20
-6.524
0
VERTEX
8
side
10
7.0659
20
-6.5516
0
VERTEX
8
side
10
7.0579
20
-6.5792
0
VERTEX
8
side
10
7.0502
20
-6.6069
0
VERTEX
8
side
10
7.0428
20
-6.6347
0
VERTEX
8
side
10
6.8058
20
-6.6501
0
VERTEX
8
side
10
6.5715
20
-6.6688
0
VERTEX
8
side
10
6.3425
20
-6.6902
0
VERTEX
8
side
10
6.1212
20
-6.7135
0
VERTEX
8
side
10
5.9101
20
-6.7378
0
VERTEX
8
side
10
5.7116
20
-6.762
0
VERTEX
8
side
10
5.528
20
-6.7854
0
VERTEX
8
side
10
5.3618
20
-6.8068
0
VERTEX
8
side
10
5.2091
20
-6.8256
0
VERTEX
8
side
10
5.0737
20
-6.842
0
VERTEX
8
side
10
4.9531
20
-6.8561
0
VERTEX
8
side
10
4.8449
20
-6.8681
0
VERTEX
8
side
10
4.7465
20
-6.8786
0
VERTEX
8
side
10
4.6556
20
-6.8878
0
VERTEX
8
side
10
4.5697
20
-6.8963
0
VERTEX
8
side
10
4.4862
20
-6.9045
0
VERTEX
8
side
10
4.4088
20
-6.9123
0
VERTEX
8
side
10
4.3302
20
-6.9203
0
VERTEX
8
side
10
4.2491
20
-6.9282
0
VERTEX
8
side
10
4.1642
20
-6.936
0
VERTEX
8
side
10
4.0742
20
-6.9437
0
VERTEX
8
side
10
3.9779
20
-6.9511
0
VERTEX
8
side
10
3.874
20
-6.9583
0
VERTEX
8
side
10
3.7613
20
-6.9651
0
VERTEX
8
side
10
3.6384
20
-6.9715
0
VERTEX
8
side
10
3.5066
20
-6.9773
0
VERTEX
8
side
10
3.3672
20
-6.9826
0
VERTEX
8
side
10
3.2212
20
-6.9872
0
VERTEX
8
side
10
3.0701
20
-6.991
0
VERTEX
8
side
10
2.9149
20
-6.9941
0
VERTEX
8
side
10
2.7569
20
-6.9963
0
VERTEX
8
side
10
2.5974
20
-6.9975
0
VERTEX
8
side
10
2.4375
20
-6.9977
0
VERTEX
8
side
10
2.2779
20
-6.9971
0
VERTEX
8
side
10
2.1192
20
-6.9956
0
VERTEX
8
side
10
1.9621
20
-6.9934
0
VERTEX
8
side
10
1.8072
20
-6.9907
0
VERTEX
8
side
10
1.6551
20
-6.9874
0
VERTEX
8
side
10
1.5065
20
-6.9838
0
VERTEX
8
side
10
1.3621
20
-6.98
0
VERTEX
8
side
10
1.2224
20
-6.976
0
VERTEX
8
side
10
1.0882
20
-6.972
0
VERTEX
8
side
10
0.9601
20
-6.9679
0
VERTEX
8
side
10
0.8388
20
-6.9639
0
VERTEX
8
side
10
0.725
20
-6.9601
0
VERTEX
8
side
10
0.6195
20
-6.9564
0
VERTEX
8
side
10
0.5228
20
-6.953
0
VERTEX
8
side
10
0.4357
20
-6.9499
0
VERTEX
8
side
10
0.3588
20
-6.9472
0
VERTEX
8
side
10
0.2909
20
-6.9448
0
VERTEX
8
side
10
0.2306
20
-6.9427
0
VERTEX
8
side
10
0.1768
20
-6.9408
0
VERTEX
8
side
10
0.1281
20
-6.9391
0
VERTEX
8
side
10
0.0833
20
-6.9376
0
VERTEX
8
side
10
0.041
20
-6.9361
0
VERTEX
8
side
10
0.0
20
-6.9347
0
VERTEX
8
side
10
0.0014
20
-6.9043
0
VERTEX
8
side
10
0.0027
20
-6.8738
0
VERTEX
8
side
10
0.0041
20
-6.8434
0
VERTEX
8
side
10
0.0055
20
-6.813
0
VERTEX
8
side
10
0.0069
20
-6.7826
0
VERTEX
8
side
10
0.0082
20
-6.7521
0
VERTEX
8
side
10
0.0096
20
-6.7217
0
VERTEX
8
side
10
0.011
20
-6.6913
0
VERTEX
8
side
10
0.0131
20
-6.6488
0
VERTEX
8
side
10
0.0152
20
-6.6063
0
VERTEX
8
side
10
0.0173
20
-6.5637
0
VERTEX
8
side
10
0.0194
20
-6.5212
0
VERTEX
8
side
10
0.0216
20
-6.4787
0
VERTEX
8
side
10
0.0237
20
-6.4362
0
VERTEX
8
side
10
0.0258
20
-6.3937
0
VERTEX
8
side
10
0.0279
20
-6.3512
0
VERTEX
8
side
10
0.0278
20
-6.3014
0
VERTEX
8
side
10
0.0278
20
-6.2515
0
VERTEX
8
side
10
0.0277
20
-6.2017
0
VERTEX
8
side
10
0.0277
20
-6.1519
0
VERTEX
8
side
10
0.0276
20
-6.1021
0
VERTEX
8
side
10
0.0276
20
-6.0522
0
VERTEX
8
side
10
0.0275
20
-6.0024
0
VERTEX
8
side
10
0.0275
20
-5.9526
0
VERTEX
8
side
10
0.0686
20
-5.9525
0
VERTEX
8
side
10
0.1098
20
-5.9525
0
VERTEX
8
side
10
0.151
20
-5.9525
0
VERTEX
8
side
10
0.1921
20
-5.9524
0
VERTEX
8
side
10
0.2333
20
-5.9524
0
VERTEX
8
side
10
0.2744
20
-5.9523
0
VERTEX
8
side
10
0.3156
20
-5.9523
0
VERTEX
8
side
10
0.3568
20
-5.9522
0
VERTEX
8
side
10
0.4802
20
-5.9521
0
VERTEX
8
side
10
0.6043
20
-5.952
0
VERTEX
8
side
10
0.7296
20
-5.9518
0
VERTEX
8
side
10
0.8566
20
-5.9517
0
VERTEX
8
side
10
0.986
20
-5.9516
0
VERTEX
8
side
10
1.1184
20
-5.9514
0
VERTEX
8
side
10
1.2544
20
-5.9513
0
VERTEX
8
side
10
1.3944
20
-5.9511
0
VERTEX
8
side
10
1.5393
20
-5.951
0
VERTEX
8
side
10
1.6882
20
-5.9508
0
VERTEX
8
side
10
1.8406
20
-5.9506
0
VERTEX
8
side
10
1.9959
20
-5.9505
0
VERTEX
8
side
10
2.1533
20
-5.9503
0
VERTEX
8
side
10
2.3123
20
-5.9501
0
VERTEX
8
side
10
2.4721
20
-5.95
0
VERTEX
8
side
10
2.6323
20
-5.9498
0
VERTEX
8
side
10
2.7921
20
-5.9496
0
VERTEX
8
side
10
2.9504
20
-5.9494
0
VERTEX
8
side
10
3.1059
20
-5.9493
0
VERTEX
8
side
10
3.2575
20
-5.9491
0
VERTEX
8
side
10
3.4039
20
-5.949
0
VERTEX
8
side
10
3.5439
20
-5.9488
0
VERTEX
8
side
10
3.6762
20
-5.9487
0
VERTEX
8
side
10
3.7998
20
-5.9485
0
VERTEX
8
side
10
3.9134
20
-5.9484
0
VERTEX
8
side
10
4.0182
20
-5.9483
0
VERTEX
8
side
10
4.1155
20
-5.9482
0
VERTEX
8
side
10
4.2067
20
-5.9481
0
VERTEX
8
side
10
4.2929
20
-5.948
0
VERTEX
8
side
10
4.3754
20
-5.9479
0
VERTEX
8
side
10
4.4555
20
-5.9478
0
VERTEX
8
side
10
4.5343
20
-5.9478
0
VERTEX
8
side
10
4.6132
20
-5.9477
0
VERTEX
8
side
10
4.6946
20
-5.9476
0
VERTEX
8
side
10
4.7811
20
-5.9475
0
VERTEX
8
side
10
4.8753
20
-5.9474
0
VERTEX
8
side
10
4.9798
20
-5.9473
0
VERTEX
8
side
10
5.0971
20
-5.9472
0
VERTEX
8
side
10
5.2298
20
-5.947
0
VERTEX
8
side
10
5.3805
20
-5.9469
0
VERTEX
8
side
10
5.5518
20
-5.9467
0
VERTEX
8
side
10
5.741
20
-5.9465
0
VERTEX
8
side
10
5.9457
20
-5.9463
0
VERTEX
8
side
10
6.1632
20
-5.946
0
VERTEX
8
side
10
6.391
20
-5.9458
0
VERTEX
8
side
10
6.6265
20
-5.9455
0
VERTEX
8
side
10
6.8671
20
-5.9453
0
VERTEX
8
side
10
7.1103
20
-5.945
0
VERTEX
8
side
10
7.1103
20
-5.9752
0
VERTEX
8
side
10
7.1104
20
-6.0053
0
VERTEX
8
side
10
7.1104
20
-6.0355
0
VERTEX
8
side
10
7.1104
20
-6.0656
0
SEQEND
0
POLYLINE
8
deck main
62
94
66
1
0
VERTEX
8
deck main
10
2.4741
20
6.0921
0
VERTEX
8
deck main
10
2.5526
20
6.0851
0
VERTEX
8
deck main
10
2.6311
20
6.0781
0
VERTEX
8
deck main
10
2.7109
20
6.0713
0
VERTEX
8
deck main
10
2.7932
20
6.065
0
VERTEX
8
deck main
10
2.8792
20
6.0594
0
VERTEX
8
deck main
10
2.9703
20
6.0547
0
VERTEX
8
deck main
10
3.0676
20
6.0513
0
VERTEX
8
deck main
10
3.1724
20
6.0492
0
VERTEX
8
deck main
10
3.2859
20
6.0488
0
VERTEX
8
deck main
10
3.4095
20
6.0502
0
VERTEX
8
deck main
10
3.5418
20
6.0536
0
VERTEX
8
deck main
10
3.6817
20
6.0587
0
VERTEX
8
deck main
10
3.8279
20
6.0657
0
VERTEX
8
deck main
10
3.9792
20
6.0745
0
VERTEX
8
deck main
10
4.1344
20
6.085
0
VERTEX
8
deck main
10
4.2922
20
6.0973
0
VERTEX
8
deck main
10
4.4514
20
6.1114
0
VERTEX
8
deck main
10
4.6108
20
6.1271
0
VERTEX
8
deck main
10
4.7698
20
6.1443
0
VERTEX
8
deck main
10
4.9277
20
6.1627
0
VERTEX
8
deck main
10
5.0839
20
6.1821
0
VERTEX
8
deck main
10
5.2378
20
6.2022
0
VERTEX
8
deck main
10
5.3888
20
6.2228
0
VERTEX
8
deck main
10
5.5363
20
6.2436
0
VERTEX
8
deck main
10
5.6796
20
6.2645
0
VERTEX
8
deck main
10
5.8182
20
6.285
0
VERTEX
8
deck main
10
5.9526
20
6.3054
0
VERTEX
8
deck main
10
6.0834
20
6.3257
0
VERTEX
8
deck main
10
6.2113
20
6.3457
0
VERTEX
8
deck main
10
6.3367
20
6.3657
0
VERTEX
8
deck main
10
6.4604
20
6.3855
0
VERTEX
8
deck main
10
6.5829
20
6.4053
0
VERTEX
8
deck main
10
6.7048
20
6.4251
0
VERTEX
8
deck main
10
6.7024
20
6.4499
0
VERTEX
8
deck main
10
6.70
20
6.4748
0
VERTEX
8
deck main
10
6.6976
20
6.4997
0
VERTEX
8
deck main
10
6.6952
20
6.5246
0
VERTEX
8
deck main
10
6.6928
20
6.5495
0
VERTEX
8
deck main
10
6.6904
20
6.5743
0
VERTEX
8
deck main
10
6.688
20
6.5992
0
VERTEX
8
deck main
10
6.6856
20
6.6241
0
VERTEX
8
deck main
10
6.4034
20
6.5864
0
VERTEX
8
deck main
10
6.1211
20
6.5486
0
VERTEX
8
deck main
10
5.8388
20
6.5109
0
VERTEX
8
deck main
10
5.5566
20
6.4731
0
VERTEX
8
deck main
10
5.2743
20
6.4354
0
VERTEX
8
deck main
10
4.9921
20
6.3976
0
VERTEX
8
deck main
10
4.7098
20
6.3599
0
VERTEX
8
deck main
10
4.4275
20
6.3222
0
VERTEX
8
deck main
10
4.2693
20
6.3105
0
VERTEX
8
deck main
10
4.1129
20
6.2991
0
VERTEX
8
deck main
10
3.9601
20
6.2882
0
VERTEX
8
deck main
10
3.8128
20
6.278
0
VERTEX
8
deck main
10
3.6729
20
6.2687
0
VERTEX
8
deck main
10
3.5421
20
6.2605
0
VERTEX
8
deck main
10
3.4222
20
6.2538
0
VERTEX
8
deck main
10
3.3152
20
6.2487
0
VERTEX
8
deck main
10
3.2227
20
6.2455
0
VERTEX
8
deck main
10
3.1425
20
6.2446
0
VERTEX
8
deck main
10
3.0721
20
6.2465
0
VERTEX
8
deck main
10
3.0089
20
6.2517
0
VERTEX
8
deck main
10
2.9507
20
6.2606
0
VERTEX
8
deck main
10
2.8949
20
6.2736
0
VERTEX
8
deck main
10
2.8391
20
6.2913
0
VERTEX
8
deck main
10
2.781
20
6.3142
0
VERTEX
8
deck main
10
2.7179
20
6.3426
0
VERTEX
8
deck main
10
2.6507
20
6.3759
0
VERTEX
8
deck main
10
2.5798
20
6.4134
0
VERTEX
8
deck main
10
2.5059
20
6.4543
0
VERTEX
8
deck main
10
2.4296
20
6.4981
0
VERTEX
8
deck main
10
2.3514
20
6.5439
0
VERTEX
8
deck main
10
2.2721
20
6.5912
0
VERTEX
8
deck main
10
2.1921
20
6.6391
0
VERTEX
8
deck main
10
1.9181
20
6.6127
0
VERTEX
8
deck main
10
1.6441
20
6.5863
0
VERTEX
8
deck main
10
1.3701
20
6.5599
0
VERTEX
8
deck main
10
1.0961
20
6.5335
0
VERTEX
8
deck main
10
0.822
20
6.5072
0
VERTEX
8
deck main
10
0.548
20
6.4808
0
VERTEX
8
deck main
10
0.274
20
6.4544
0
VERTEX
8
deck main
10
0.0
20
6.428
0
VERTEX
8
deck main
10
0.2406
20
6.3921
0
VERTEX
8
deck main
10
0.4786
20
6.3567
0
VERTEX
8
deck main
10
0.7115
20
6.3222
0
VERTEX
8
deck main
10
0.9369
20
6.2891
0
VERTEX
8
deck main
10
1.1521
20
6.2577
0
VERTEX
8
deck main
10
1.3547
20
6.2286
0
VERTEX
8
deck main
10
1.5421
20
6.2023
0
VERTEX
8
deck main
10
1.7118
20
6.179
0
VERTEX
8
deck main
10
1.8612
20
6.1594
0
VERTEX
8
deck main
10
1.9929
20
6.1429
0
VERTEX
8
deck main
10
2.1094
20
6.1291
0
VERTEX
8
deck main
10
2.2132
20
6.1176
0
VERTEX
8
deck main
10
2.3069
20
6.1079
0
VERTEX
8
deck main
10
2.393
20
6.0995
0
VERTEX
8
deck main
10
2.4741
20
6.0921
0
SEQEND
0
POLYLINE
8
deck main
62
94
66
1
0
VERTEX
8
deck main
10
2.3645
20
7.2298
0
VERTEX
8
deck main
10
2.4403
20
7.2517
0
VERTEX
8
deck main
10
2.516
20
7.2736
0
VERTEX
8
deck main
10
2.5931
20
7.2954
0
VERTEX
8
deck main
10
2.6726
20
7.3173
0
VERTEX
8
deck main
10
2.756
20
7.3392
0
VERTEX
8
deck main
10
2.8445
20
7.3612
0
VERTEX
8
deck main
10
2.9393
20
7.3832
0
VERTEX
8
deck main
10
3.0418
20
7.4052
0
VERTEX
8
deck main
10
3.1532
20
7.4273
0
VERTEX
8
deck main
10
3.2748
20
7.4494
0
VERTEX
8
deck main
10
3.4053
20
7.4714
0
VERTEX
8
deck main
10
3.5436
20
7.493
0
VERTEX
8
deck main
10
3.6885
20
7.514
0
VERTEX
8
deck main
10
3.8387
20
7.5343
0
VERTEX
8
deck main
10
3.993
20
7.5536
0
VERTEX
8
deck main
10
4.1503
20
7.5716
0
VERTEX
8
deck main
10
4.3092
20
7.5882
0
VERTEX
8
deck main
10
4.4687
20
7.6032
0
VERTEX
8
deck main
10
4.628
20
7.6166
0
VERTEX
8
deck main
10
4.7865
20
7.6287
0
VERTEX
8
deck main
10
4.9435
20
7.6395
0
VERTEX
8
deck main
10
5.0985
20
7.6491
0
VERTEX
8
deck main
10
5.2506
20
7.6577
0
VERTEX
8
deck main
10
5.3994
20
7.6654
0
VERTEX
8
deck main
10
5.5441
20
7.6723
0
VERTEX
8
deck main
10
5.684
20
7.6785
0
VERTEX
8
deck main
10
5.8198
20
7.6841
0
VERTEX
8
deck main
10
5.9521
20
7.6893
0
VERTEX
8
deck main
10
6.0814
20
7.694
0
VERTEX
8
deck main
10
6.2084
20
7.6983
0
VERTEX
8
deck main
10
6.3336
20
7.7024
0
VERTEX
8
deck main
10
6.4576
20
7.7064
0
VERTEX
8
deck main
10
6.581
20
7.7103
0
VERTEX
8
deck main
10
6.5834
20
7.6854
0
VERTEX
8
deck main
10
6.5858
20
7.6605
0
VERTEX
8
deck main
10
6.5882
20
7.6356
0
VERTEX
8
deck main
10
6.5906
20
7.6107
0
VERTEX
8
deck main
10
6.593
20
7.5858
0
VERTEX
8
deck main
10
6.5954
20
7.561
0
VERTEX
8
deck main
10
6.5978
20
7.5361
0
VERTEX
8
deck main
10
6.6002
20
7.5112
0
VERTEX
8
deck main
10
6.3159
20
7.4944
0
VERTEX
8
deck main
10
6.0317
20
7.4776
0
VERTEX
8
deck main
10
5.7474
20
7.4608
0
VERTEX
8
deck main
10
5.4631
20
7.444
0
VERTEX
8
deck main
10
5.1788
20
7.4272
0
VERTEX
8
deck main
10
4.8945
20
7.4104
0
VERTEX
8
deck main
10
4.6103
20
7.3935
0
VERTEX
8
deck main
10
4.326
20
7.3767
0
VERTEX
8
deck main
10
4.1684
20
7.358
0
VERTEX
8
deck main
10
4.0127
20
7.3393
0
VERTEX
8
deck main
10
3.8607
20
7.3209
0
VERTEX
8
deck main
10
3.7141
20
7.3028
0
VERTEX
8
deck main
10
3.575
20
7.2852
0
VERTEX
8
deck main
10
3.445
20
7.2683
0
VERTEX
8
deck main
10
3.3261
20
7.252
0
VERTEX
8
deck main
10
3.22
20
7.2366
0
VERTEX
8
deck main
10
3.1287
20
7.2221
0
VERTEX
8
deck main
10
3.0498
20
7.2077
0
VERTEX
8
deck main
10
2.981
20
7.1924
0
VERTEX
8
deck main
10
2.92
20
7.1752
0
VERTEX
8
deck main
10
2.8645
20
7.1554
0
VERTEX
8
deck main
10
2.8122
20
7.1319
0
VERTEX
8
deck main
10
2.7609
20
7.1039
0
VERTEX
8
deck main
10
2.7081
20
7.0704
0
VERTEX
8
deck main
10
2.6517
20
7.0305
0
VERTEX
8
deck main
10
2.592
20
6.9849
0
VERTEX
8
deck main
10
2.5296
20
6.9346
0
VERTEX
8
deck main
10
2.4649
20
6.8803
0
VERTEX
8
deck main
10
2.3983
20
6.8228
0
VERTEX
8
deck main
10
2.3303
20
6.7629
0
VERTEX
8
deck main
10
2.2615
20
6.7014
0
VERTEX
8
deck main
10
2.1921
20
6.6391
0
VERTEX
8
deck main
10
1.9181
20
6.6127
0
VERTEX
8
deck main
10
1.6441
20
6.5863
0
VERTEX
8
deck main
10
1.3701
20
6.5599
0
VERTEX
8
deck main
10
1.0961
20
6.5335
0
VERTEX
8
deck main
10
0.822
20
6.5072
0
VERTEX
8
deck main
10
0.548
20
6.4808
0
VERTEX
8
deck main
10
0.274
20
6.4544
0
VERTEX
8
deck main
10
0.0
20
6.428
0
VERTEX
8
deck main
10
0.2293
20
6.5091
0
VERTEX
8
deck main
10
0.4562
20
6.5893
0
VERTEX
8
deck main
10
0.6783
20
6.6676
0
VERTEX
8
deck main
10
0.8932
20
6.7431
0
VERTEX
8
deck main
10
1.0985
20
6.815
0
VERTEX
8
deck main
10
1.2918
20
6.8822
0
VERTEX
8
deck main
10
1.4707
20
6.9439
0
VERTEX
8
deck main
10
1.6328
20
6.999
0
VERTEX
8
deck main
10
1.7757
20
7.0468
0
VERTEX
8
deck main
10
1.9018
20
7.0881
0
VERTEX
8
deck main
10
2.0136
20
7.1239
0
VERTEX
8
deck main
10
2.1133
20
7.155
0
VERTEX
8
deck main
10
2.2035
20
7.1824
0
VERTEX
8
deck main
10
2.2864
20
7.207
0
VERTEX
8
deck main
10
2.3645
20
7.2298
0
SEQEND
0
POLYLINE
8
deck aft
62
94
66
1
0
VERTEX
8
deck aft
10
1.2661
20
-7.3597
0
VERTEX
8
deck aft
10
1.2412
20
-7.3597
0
VERTEX
8
deck aft
10
1.2162
20
-7.3597
0
VERTEX
8
deck aft
10
1.1912
20
-7.3597
0
VERTEX
8
deck aft
10
1.1662
20
-7.3597
0
VERTEX
8
deck aft
10
1.1412
20
-7.3597
0
VERTEX
8
deck aft
10
1.1162
20
-7.3597
0
VERTEX
8
deck aft
10
1.0912
20
-7.3597
0
VERTEX
8
deck aft
10
1.0355
20
-7.3597
0
VERTEX
8
deck aft
10
0.9798
20
-7.3597
0
VERTEX
8
deck aft
10
0.9241
20
-7.3597
0
VERTEX
8
deck aft
10
0.8684
20
-7.3597
0
VERTEX
8
deck aft
10
0.8127
20
-7.3597
0
VERTEX
8
deck aft
10
0.757
20
-7.3597
0
VERTEX
8
deck aft
10
0.7013
20
-7.3597
0
VERTEX
8
deck aft
10
0.6456
20
-7.3597
0
VERTEX
8
deck aft
10
0.6456
20
-7.3186
0
VERTEX
8
deck aft
10
0.6456
20
-7.2775
0
VERTEX
8
deck aft
10
0.6456
20
-7.2364
0
VERTEX
8
deck aft
10
0.6456
20
-7.1954
0
VERTEX
8
deck aft
10
0.6456
20
-7.1543
0
VERTEX
8
deck aft
10
0.6456
20
-7.1132
0
VERTEX
8
deck aft
10
0.6456
20
-7.0721
0
VERTEX
8
deck aft
10
0.6456
20
-7.0311
0
VERTEX
8
deck aft
10
0.7236
20
-7.0311
0
VERTEX
8
deck aft
10
0.8016
20
-7.0311
0
VERTEX
8
deck aft
10
0.8797
20
-7.0311
0
VERTEX
8
deck aft
10
0.9577
20
-7.0311
0
VERTEX
8
deck aft
10
1.0357
20
-7.0311
0
VERTEX
8
deck aft
10
1.1138
20
-7.0311
0
VERTEX
8
deck aft
10
1.1918
20
-7.0311
0
VERTEX
8
deck aft
10
1.2698
20
-7.0311
0
VERTEX
8
deck aft
10
1.2725
20
-7.0721
0
VERTEX
8
deck aft
10
1.2752
20
-7.1132
0
VERTEX
8
deck aft
10
1.2778
20
-7.1543
0
VERTEX
8
deck aft
10
1.2805
20
-7.1954
0
VERTEX
8
deck aft
10
1.2832
20
-7.2364
0
VERTEX
8
deck aft
10
1.2858
20
-7.2775
0
VERTEX
8
deck aft
10
1.2885
20
-7.3186
0
VERTEX
8
deck aft
10
1.2911
20
-7.3597
0
VERTEX
8
deck aft
10
1.2661
20
-7.3597
0
SEQEND
0
POLYLINE
8
deck aft
62
94
66
1
0
VERTEX
8
deck aft
10
0.025
20
-7.3597
0
VERTEX
8
deck aft
10
0.05
20
-7.3597
0
VERTEX
8
deck aft
10
0.075
20
-7.3597
0
VERTEX
8
deck aft
10
0.10
20
-7.3597
0
VERTEX
8
deck aft
10
0.125
20
-7.3597
0
VERTEX
8
deck aft
10
0.15
20
-7.3597
0
VERTEX
8
deck aft
10
0.175
20
-7.3597
0
VERTEX
8
deck aft
10
0.20
20
-7.3597
0
VERTEX
8
deck aft
10
0.2557
20
-7.3597
0
VERTEX
8
deck aft
10
0.3114
20
-7.3597
0
VERTEX
8
deck aft
10
0.3671
20
-7.3597
0
VERTEX
8
deck aft
10
0.4228
20
-7.3597
0
VERTEX
8
deck aft
10
0.4785
20
-7.3597
0
VERTEX
8
deck aft
10
0.5342
20
-7.3597
0
VERTEX
8
deck aft
10
0.5899
20
-7.3597
0
VERTEX
8
deck aft
10
0.6456
20
-7.3597
0
VERTEX
8
deck aft
10
0.6456
20
-7.3186
0
VERTEX
8
deck aft
10
0.6456
20
-7.2775
0
VERTEX
8
deck aft
10
0.6456
20
-7.2364
0
VERTEX
8
deck aft
10
0.6456
20
-7.1954
0
VERTEX
8
deck aft
10
0.6456
20
-7.1543
0
VERTEX
8
deck aft
10
0.6456
20
-7.1132
0
VERTEX
8
deck aft
10
0.6456
20
-7.0721
0
VERTEX
8
deck aft
10
0.6456
20
-7.0311
0
VERTEX
8
deck aft
10
0.5675
20
-7.0311
0
VERTEX
8
deck aft
10
0.4895
20
-7.0311
0
VERTEX
8
deck aft
10
0.4115
20
-7.0311
0
VERTEX
8
deck aft
10
0.3334
20
-7.0311
0
VERTEX
8
deck aft
10
0.2554
20
-7.0311
0
VERTEX
8
deck aft
10
0.1774
20
-7.0311
0
VERTEX
8
deck aft
10
0.0993
20
-7.0311
0
VERTEX
8
deck aft
10
0.0213
20
-7.0311
0
VERTEX
8
deck aft
10
0.0186
20
-7.0721
0
VERTEX
8
deck aft
10
0.016
20
-7.1132
0
VERTEX
8
deck aft
10
0.0133
20
-7.1543
0
VERTEX
8
deck aft
10
0.0106
20
-7.1954
0
VERTEX
8
deck aft
10
0.008
20
-7.2364
0
VERTEX
8
deck aft
10
0.0053
20
-7.2775
0
VERTEX
8
deck aft
10
0.0027
20
-7.3186
0
VERTEX
8
deck aft
10
0.0
20
-7.3597
0
VERTEX
8
deck aft
10
0.025
20
-7.3597
0
SEQEND
0
POLYLINE
8
cabin side
62
94
66
1
0
VERTEX
8
cabin side
10
0.6692
20
7.7814
0
VERTEX
8
cabin side
10
0.6003
20
7.7875
0
VERTEX
8
cabin side
10
0.5256
20
7.7947
0
VERTEX
8
cabin side
10
0.4459
20
7.803
0
VERTEX
8
cabin side
10
0.3619
20
7.812
0
VERTEX
8
cabin side
10
0.2744
20
7.8218
0
VERTEX
8
cabin side
10
0.1844
20
7.8319
0
VERTEX
8
cabin side
10
0.0926
20
7.8424
0
VERTEX
8
cabin side
10
0.0
20
7.8528
0
VERTEX
8
cabin side
10
0.038
20
7.9155
0
VERTEX
8
cabin side
10
0.076
20
7.9781
0
VERTEX
8
cabin side
10
0.114
20
8.0407
0
VERTEX
8
cabin side
10
0.152
20
8.1033
0
VERTEX
8
cabin side
10
0.19
20
8.166
0
VERTEX
8
cabin side
10
0.228
20
8.2286
0
VERTEX
8
cabin side
10
0.266
20
8.2913
0
VERTEX
8
cabin side
10
0.3039
20
8.3539
0
VERTEX
8
cabin side
10
0.3551
20
8.3454
0
VERTEX
8
cabin side
10
0.4061
20
8.337
0
VERTEX
8
cabin side
10
0.4565
20
8.329
0
VERTEX
8
cabin side
10
0.5062
20
8.3215
0
VERTEX
8
cabin side
10
0.555
20
8.3147
0
VERTEX
8
cabin side
10
0.6026
20
8.3085
0
VERTEX
8
cabin side
10
0.649
20
8.3032
0
VERTEX
8
cabin side
10
0.694
20
8.2987
0
VERTEX
8
cabin side
10
0.7377
20
8.2953
0
VERTEX
8
cabin side
10
0.7822
20
8.2929
0
VERTEX
8
cabin side
10
0.8296
20
8.2914
0
VERTEX
8
cabin side
10
0.882
20
8.2909
0
VERTEX
8
cabin side
10
0.9416
20
8.2913
0
VERTEX
8
cabin side
10
1.0102
20
8.2927
0
VERTEX
8
cabin side
10
1.0897
20
8.295
0
VERTEX
8
cabin side
10
1.1822
20
8.2983
0
VERTEX
8
cabin side
10
1.2892
20
8.3025
0
VERTEX
8
cabin side
10
1.4092
20
8.3074
0
VERTEX
8
cabin side
10
1.5401
20
8.3131
0
VERTEX
8
cabin side
10
1.6803
20
8.3193
0
VERTEX
8
cabin side
10
1.8277
20
8.3259
0
VERTEX
8
cabin side
10
1.9807
20
8.3329
0
VERTEX
8
cabin side
10
2.1374
20
8.3402
0
VERTEX
8
cabin side
10
2.2959
20
8.3475
0
VERTEX
8
cabin side
10
2.2993
20
8.2824
0
VERTEX
8
cabin side
10
2.3029
20
8.2172
0
VERTEX
8
cabin side
10
2.3066
20
8.1521
0
VERTEX
8
cabin side
10
2.3104
20
8.0869
0
VERTEX
8
cabin side
10
2.3143
20
8.0218
0
VERTEX
8
cabin side
10
2.3182
20
7.9566
0
VERTEX
8
cabin side
10
2.3222
20
7.8915
0
VERTEX
8
cabin side
10
2.3263
20
7.8264
0
VERTEX
8
cabin side
10
2.1677
20
7.819
0
VERTEX
8
cabin side
10
2.0111
20
7.8118
0
VERTEX
8
cabin side
10
1.8581
20
7.8048
0
VERTEX
8
cabin side
10
1.7106
20
7.7981
0
VERTEX
8
cabin side
10
1.5705
20
7.7919
0
VERTEX
8
cabin side
10
1.4395
20
7.7863
0
VERTEX
8
cabin side
10
1.3196
20
7.7813
0
VERTEX
8
cabin side
10
1.2125
20
7.7772
0
VERTEX
8
cabin side
10
1.1201
20
7.7739
0
VERTEX
8
cabin side
10
1.0399
20
7.7716
0
VERTEX
8
cabin side
10
0.9694
20
7.7704
0
VERTEX
8
cabin side
10
0.9061
20
7.7702
0
VERTEX
8
cabin side
10
0.8472
20
7.7712
0
VERTEX
8
cabin side
10
0.7899
20
7.7734
0
VERTEX
8
cabin side
10
0.7315
20
7.7767
0
VERTEX
8
cabin side
10
0.6692
20
7.7814
0
SEQEND
0
POLYLINE
8
cabin side
62
94
66
1
0
VERTEX
8
cabin side
10
0.6692
20
-7.4308
0
VERTEX
8
cabin side
10
0.6003
20
-7.4369
0
VERTEX
8
cabin side
10
0.5256
20
-7.4441
0
VERTEX
8
cabin side
10
0.4459
20
-7.4524
0
VERTEX
8
cabin side
10
0.3619
20
-7.4614
0
VERTEX
8
cabin side
10
0.2744
20
-7.4712
0
VERTEX
8
cabin side
10
0.1844
20
-7.4813
0
VERTEX
8
cabin side
10
0.0926
20
-7.4918
0
VERTEX
8
cabin side
10
0.0
20
-7.5022
0
VERTEX
8
cabin side
10
0.038
20
-7.5649
0
VERTEX
8
cabin side
10
0.076
20
-7.6275
0
VERTEX
8
cabin side
10
0.114
20
-7.6901
0
VERTEX
8
cabin side
10
0.152
20
-7.7527
0
VERTEX
8
cabin side
10
0.19
20
-7.8154
0
VERTEX
8
cabin side
10
0.228
20
-7.878
0
VERTEX
8
cabin side
10
0.266
20
-7.9407
0
VERTEX
8
cabin side
10
0.3039
20
-8.0034
0
VERTEX
8
cabin side
10
0.3551
20
-7.9948
0
VERTEX
8
cabin side
10
0.4061
20
-7.9864
0
VERTEX
8
cabin side
10
0.4565
20
-7.9784
0
VERTEX
8
cabin side
10
0.5062
20
-7.9709
0
VERTEX
8
cabin side
10
0.555
20
-7.9641
0
VERTEX
8
cabin side
10
0.6026
20
-7.9579
0
VERTEX
8
cabin side
10
0.649
20
-7.9526
0
VERTEX
8
cabin side
10
0.694
20
-7.9481
0
VERTEX
8
cabin side
10
0.7377
20
-7.9447
0
VERTEX
8
cabin side
10
0.7822
20
-7.9423
0
VERTEX
8
cabin side
10
0.8296
20
-7.9408
0
VERTEX
8
cabin side
10
0.882
20
-7.9403
0
VERTEX
8
cabin side
10
0.9416
20
-7.9407
0
VERTEX
8
cabin side
10
1.0102
20
-7.9421
0
VERTEX
8
cabin side
10
1.0897
20
-7.9444
0
VERTEX
8
cabin side
10
1.1822
20
-7.9477
0
VERTEX
8
cabin side
10
1.2892
20
-7.9519
0
VERTEX
8
cabin side
10
1.4092
20
-7.9568
0
VERTEX
8
cabin side
10
1.5401
20
-7.9625
0
VERTEX
8
cabin side
10
1.6803
20
-7.9687
0
VERTEX
8
cabin side
10
1.8277
20
-7.9753
0
VERTEX
8
cabin side
10
1.9807
20
-7.9823
0
VERTEX
8
cabin side
10
2.1374
20
-7.9896
0
VERTEX
8
cabin side
10
2.2959
20
-7.9969
0
VERTEX
8
cabin side
10
2.2993
20
-7.9318
0
VERTEX
8
cabin side
10
2.3029
20
-7.8666
0
VERTEX
8
cabin side
10
2.3066
20
-7.8015
0
VERTEX
8
cabin side
10
2.3104
20
-7.7363
0
VERTEX
8
cabin side
10
2.3143
20
-7.6712
0
VERTEX
8
cabin side
10
2.3182
20
-7.606
0
VERTEX
8
cabin side
10
2.3222
20
-7.5409
0
VERTEX
8
cabin side
10
2.3263
20
-7.4758
0
VERTEX
8
cabin side
10
2.1677
20
-7.4684
0
VERTEX
8
cabin side
10
2.0111
20
-7.4612
0
VERTEX
8
cabin side
10
1.8581
20
-7.4542
0
VERTEX
8
cabin side
10
1.7106
20
-7.4475
0
VERTEX
8
cabin side
10
1.5705
20
-7.4413
0
VERTEX
8
cabin side
10
1.4395
20
-7.4357
0
VERTEX
8
cabin side
10
1.3196
20
-7.4307
0
VERTEX
8
cabin side
10
1.2125
20
-7.4266
0
VERTEX
8
cabin side
10
1.1201
20
-7.4233
0
VERTEX
8
cabin side
10
1.0399
20
-7.421
0
VERTEX
8
cabin side
10
0.9694
20
-7.4198
0
VERTEX
8
cabin side
10
0.9061
20
-7.4196
0
VERTEX
8
cabin side
10
0.8472
20
-7.4206
0
VERTEX
8
cabin side
10
0.7899
20
-7.4228
0
VERTEX
8
cabin side
10
0.7315
20
-7.4261
0
VERTEX
8
cabin side
10
0.6692
20
-7.4308
0
SEQEND
0
POLYLINE
8
front aka
62
94
66
1
0
VERTEX
8
front aka
10
0.0017
20
-0.12
0
VERTEX
8
front aka
10
0.0018
20
-0.097
0
VERTEX
8
front aka
10
0.0019
20
-0.0744
0
VERTEX
8
front aka
10
0.0019
20
-0.0518
0
VERTEX
8
front aka
10
0.002
20
-0.0292
0
VERTEX
8
front aka
10
0.0
20
-0.5717
0
VERTEX
8
front aka
10
0.0001
20
-0.5491
0
VERTEX
8
front aka
10
0.0002
20
-0.5265
0
VERTEX
8
front aka
10
0.0003
20
-0.504
0
VERTEX
8
front aka
10
0.0003
20
-0.4814
0
VERTEX
8
front aka
10
0.0004
20
-0.4564
0
VERTEX
8
front aka
10
0.0005
20
-0.4314
0
VERTEX
8
front aka
10
0.0006
20
-0.4063
0
VERTEX
8
front aka
10
0.0007
20
-0.3813
0
VERTEX
8
front aka
10
0.0008
20
-0.3563
0
VERTEX
8
front aka
10
0.0009
20
-0.3313
0
VERTEX
8
front aka
10
0.001
20
-0.3063
0
VERTEX
8
front aka
10
0.0011
20
-0.2813
0
VERTEX
8
front aka
10
0.0012
20
-0.2582
0
VERTEX
8
front aka
10
0.0013
20
-0.2352
0
VERTEX
8
front aka
10
0.0013
20
-0.2122
0
VERTEX
8
front aka
10
0.0014
20
-0.1891
0
VERTEX
8
front aka
10
0.0015
20
-0.1661
0
VERTEX
8
front aka
10
0.0016
20
-0.143
0
VERTEX
8
front aka
10
0.0017
20
-0.12
0
SEQEND
0
ENDSEC
0
EOF
