999
dxfrw 0.6.3
  0
SECTION
  2
HEADER
  9
$ACADVER
  1
AC1021
  9
$DWGCODEPAGE
  3
ANSI_1252
  9
$INSBASE
 10
0
 20
0
 30
0
  9
$EXTMIN
 10
-41.42135623730965
 20
-60.00000028852299
 30
0
  9
$EXTMAX
 10
400
 20
241.4213562373097
 30
0
  9
$LIMMIN
 10
0
 20
0
  9
$LIMMAX
 10
420
 20
297
  9
$ORTHOMODE
 70
    0
  9
$REGENMODE
 70
    1
  9
$FILLMODE
 70
    1
  9
$QTEXTMODE
 70
    0
  9
$MIRRTEXT
 70
    0
  9
$LTSCALE
 40
1
  9
$ATTMODE
 70
    0
  9
$TEXTSIZE
 40
2.5
  9
$TRACEWID
 40
15.68
  9
$TEXTSTYLE
  7
STANDARD
  9
$CLAYER
  8
0
  9
$CELTYPE
  6
BYLAYER
  9
$CECOLOR
 62
  256
  9
$CELTSCALE
 40
1
  9
$DISPSILH
 70
    0
  9
$DIMSCALE
 40
1
  9
$DIMASZ
 40
5
  9
$DIMEXO
 40
0.625
  9
$DIMDLI
 40
3.75
  9
$DIMRND
 40
0
  9
$DIMDLE
 40
0
  9
$DIMEXE
 40
1.25
  9
$DIMTP
 40
0
  9
$DIMTM
 40
0
  9
$DIMTXT
 40
2.5
  9
$DIMCEN
 40
2.5
  9
$DIMTSZ
 40
0
  9
$DIMTOL
 70
    0
  9
$DIMLIM
 70
    0
  9
$DIMTIH
 70
    0
  9
$DIMTOH
 70
    0
  9
$DIMSE1
 70
    0
  9
$DIMSE2
 70
    0
  9
$DIMTAD
 70
    1
  9
$DIMZIN
 70
    1
  9
$DIMBLK
  1

  9
$DIMASO
 70
    1
  9
$DIMSHO
 70
    1
  9
$DIMPOST
  1

  9
$DIMAPOST
  1

  9
$DIMALT
 70
    0
  9
$DIMALTD
 70
    3
  9
$DIMALTF
 40
0.03937
  9
$DIMLFAC
 40
1
  9
$DIMTOFL
 70
    1
  9
$DIMTVP
 40
0
  9
$DIMTIX
 70
    0
  9
$DIMSOXD
 70
    0
  9
$DIMSAH
 70
    0
  9
$DIMBLK1
  1

  9
$DIMBLK2
  1

  9
$DIMSTYLE
  2
STANDARD
  9
$DIMCLRD
 70
    0
  9
$DIMCLRE
 70
    0
  9
$DIMCLRT
 70
    0
  9
$DIMTFAC
 40
1
  9
$DIMGAP
 40
0.625
  9
$DIMJUST
 70
    0
  9
$DIMSD1
 70
    0
  9
$DIMSD2
 70
    0
  9
$DIMTOLJ
 70
    0
  9
$DIMTZIN
 70
    8
  9
$DIMALTZ
 70
    0
  9
$DIMALTTZ
 70
    0
  9
$DIMUPT
 70
    0
  9
$DIMDEC
 70
    4
  9
$DIMTDEC
 70
    2
  9
$DIMALTU
 70
    2
  9
$DIMALTTD
 70
    3
  9
$DIMTXSTY
  7
standard
  9
$DIMAUNIT
 70
    0
  9
$DIMADEC
 70
    2
  9
$DIMALTRND
 40
0
  9
$DIMAZIN
 70
    0
  9
$DIMDSEP
 70
   44
  9
$DIMATFIT
 70
    3
  9
$DIMFRAC
 70
    0
  9
$DIMLDRBLK
  1
STANDARD
  9
$DIMLUNIT
 70
    2
  9
$DIMLWD
 70
   -2
  9
$DIMLWE
 70
   -2
  9
$DIMTMOVE
 70
    0
  9
$DIMFXL
 40
1
  9
$DIMFXLON
 70
    0
  9
$DIMJOGANG
 40
0.7854
  9
$DIMTFILL
 70
    0
  9
$DIMTFILLCLR
 70
    0
  9
$DIMARCSYM
 70
    0
  9
$DIMLTYPE
  6

  9
$DIMLTEX1
  6

  9
$DIMLTEX2
  6

  9
$LUNITS
 70
    2
  9
$LUPREC
 70
    4
  9
$SKETCHINC
 40
1
  9
$FILLETRAD
 40
0
  9
$AUNITS
 70
    0
  9
$AUPREC
 70
    2
  9
$MENU
  1
.
  9
$ELEVATION
 40
0
  9
$PELEVATION
 40
0
  9
$THICKNESS
 40
0
  9
$LIMCHECK
 70
    0
  9
$CHAMFERA
 40
0
  9
$CHAMFERB
 40
0
  9
$CHAMFERC
 40
0
  9
$CHAMFERD
 40
0
  9
$SKPOLY
 70
    0
  9
$USRTIMER
 70
    1
  9
$ANGBASE
 50
0
  9
$ANGDIR
 70
    0
  9
$PDMODE
 70
   34
  9
$PDSIZE
 40
0
  9
$PLINEWID
 40
0
  9
$SPLFRAME
 70
    0
  9
$SPLINETYPE
 70
    2
  9
$SPLINESEGS
 70
    8
  9
$HANDSEED
  5
20000
  9
$SURFTAB1
 70
    6
  9
$SURFTAB2
 70
    6
  9
$SURFTYPE
 70
    6
  9
$SURFU
 70
    6
  9
$SURFV
 70
    6
  9
$UCSBASE
  2

  9
$UCSNAME
  2

  9
$UCSORG
 10
0
 20
0
 30
0
  9
$UCSXDIR
 10
1
 20
0
 30
0
  9
$UCSYDIR
 10
0
 20
1
 30
0
  9
$UCSORTHOREF
  2

  9
$UCSORTHOVIEW
 70
    0
  9
$UCSORGTOP
 10
0
 20
0
 30
0
  9
$UCSORGBOTTOM
 10
0
 20
0
 30
0
  9
$UCSORGLEFT
 10
0
 20
0
 30
0
  9
$UCSORGRIGHT
 10
0
 20
0
 30
0
  9
$UCSORGFRONT
 10
0
 20
0
 30
0
  9
$UCSORGBACK
 10
0
 20
0
 30
0
  9
$PUCSBASE
  2

  9
$PUCSNAME
  2

  9
$PUCSORG
 10
0
 20
0
 30
0
  9
$PUCSXDIR
 10
1
 20
0
 30
0
  9
$PUCSYDIR
 10
0
 20
1
 30
0
  9
$PUCSORTHOREF
  2

  9
$PUCSORTHOVIEW
 70
    0
  9
$PUCSORGTOP
 10
0
 20
0
 30
0
  9
$PUCSORGBOTTOM
 10
0
 20
0
 30
0
  9
$PUCSORGLEFT
 10
0
 20
0
 30
0
  9
$PUCSORGRIGHT
 10
0
 20
0
 30
0
  9
$PUCSORGFRONT
 10
0
 20
0
 30
0
  9
$PUCSORGBACK
 10
0
 20
0
 30
0
  9
$USERI1
 70
    0
  9
$USERI2
 70
    0
  9
$USERI3
 70
    0
  9
$USERI4
 70
    0
  9
$USERI5
 70
    0
  9
$USERR1
 40
0
  9
$USERR2
 40
0
  9
$USERR3
 40
0
  9
$USERR4
 40
0
  9
$USERR5
 40
0
  9
$WORLDVIEW
 70
    1
  9
$SHADEDGE
 70
    3
  9
$SHADEDIF
 70
   70
  9
$TILEMODE
 70
    1
  9
$MAXACTVP
 70
   64
  9
$PINSBASE
 10
0
 20
0
 30
0
  9
$PLIMCHECK
 70
    0
  9
$PEXTMIN
 10
0
 20
0
 30
0
  9
$PEXTMAX
 10
0
 20
0
 30
0
  9
$GRIDMODE
 70
    1
  9
$GRIDUNIT
 10
0
 20
0
  9
$PLIMMIN
 10
0
 20
0
  9
$PLIMMAX
 10
297
 20
210
  9
$UNITMODE
 70
    0
  9
$VISRETAIN
 70
    1
  9
$PLINEGEN
 70
    0
  9
$PSLTSCALE
 70
    1
  9
$TREEDEPTH
 70
 3020
  9
$CMLSTYLE
  2
Standard
  9
$CMLJUST
 70
    0
  9
$CMLSCALE
 40
20
  9
$PROXYGRAPHICS
 70
    1
  9
$MEASUREMENT
 70
    1
  9
$CELWEIGHT
370
   -1
  9
$ENDCAPS
280
    0
  9
$JOINSTYLE
280
    0
  9
$LWDISPLAY
290
    0
  9
$INSUNITS
 70
    4
  9
$HYPERLINKBASE
  1

  9
$STYLESHEET
  1

  9
$XEDIT
290
    1
  9
$CEPSNTYPE
380
    0
  9
$PSTYLEMODE
290
    1
  9
$EXTNAMES
290
    1
  9
$PSVPSCALE
 40
1
  9
$OLESTARTUP
290
    0
  9
$SORTENTS
280
  127
  9
$INDEXCTL
280
    0
  9
$HIDETEXT
280
    1
  9
$XCLIPFRAME
290
    0
  9
$HALOGAP
280
    0
  9
$OBSCOLOR
 70
  257
  9
$OBSLTYPE
280
    0
  9
$INTERSECTIONDISPLAY
280
    0
  9
$INTERSECTIONCOLOR
 70
  257
  9
$DIMASSOC
280
    1
  9
$PROJECTNAME
  1

  9
$CAMERADISPLAY
290
    0
  9
$LENSLENGTH
 40
50
  9
$CAMERAHEIGHT
 40
0
  9
$STEPSPERSEC
 40
2
  9
$STEPSIZE
 40
50
  9
$3DDWFPREC
 40
2
  9
$PSOLWIDTH
 40
5
  9
$PSOLHEIGHT
 40
80
  9
$LOFTANG1
 40
1.570796326794897
  9
$LOFTANG2
 40
1.570796326794897
  9
$LOFTMAG1
 40
0
  9
$LOFTMAG2
 40
0
  9
$LOFTPARAM
 70
    7
  9
$LOFTNORMALS
280
    1
  9
$LATITUDE
 40
1
  9
$LONGITUDE
 40
1
  9
$NORTHDIRECTION
 40
0
  9
$TIMEZONE
 70
-8000
  9
$LIGHTGLYPHDISPLAY
280
    1
  9
$TILEMODELIGHTSYNCH
280
    1
  9
$SOLIDHIST
280
    1
  9
$SHOWHIST
280
    1
  9
$DWFFRAME
280
    2
  9
$DGNFRAME
280
    0
  9
$REALWORLDSCALE
290
    1
  9
$INTERFERECOLOR
 62
    1
  9
$CSHADOW
280
    0
  9
$SHADOWPLANELOCATION
 40
0
  0
ENDSEC
  0
SECTION
  2
CLASSES
  0
ENDSEC
  0
SECTION
  2
TABLES
  0
TABLE
  2
VPORT
  5
8
330
0
100
AcDbSymbolTable
 70
    1
  0
VPORT
  5
31
330
2
100
AcDbSymbolTableRecord
100
AcDbViewportTableRecord
  2
*ACTIVE
 70
    0
 10
0
 20
0
 11
1
 21
1
 12
228.7213947798085
 22
109.6544958512251
 13
0
 23
0
 14
10
 24
10
 15
10
 25
10
 16
0
 26
0
 36
1
 17
0
 27
0
 37
0
 40
292.2551155519775
 41
1.903381642512077
 42
50
 43
0
 44
0
 50
0
 51
0
 71
    0
 72
  100
 73
    1
 74
    3
 75
    0
 76
    1
 77
    0
 78
    0
281
    0
 65
    1
110
0
120
0
130
0
111
1
121
0
131
0
112
0
122
1
132
0
 79
    0
146
0
348
10020
 60
    7
 61
    5
292
1
282
    1
141
0
142
0
 63
  250
421
3358443
  0
ENDTAB
  0
TABLE
  2
LTYPE
  5
5
330
0
100
AcDbSymbolTable
 70
    4
  0
LTYPE
  5
14
330
5
100
AcDbSymbolTableRecord
100
AcDbLinetypeTableRecord
  2
ByBlock
 70
    0
  3

 72
   65
 73
    0
 40
0
  0
LTYPE
  5
15
330
5
100
AcDbSymbolTableRecord
100
AcDbLinetypeTableRecord
  2
ByLayer
 70
    0
  3

 72
   65
 73
    0
 40
0
  0
LTYPE
  5
16
330
5
100
AcDbSymbolTableRecord
100
AcDbLinetypeTableRecord
  2
Continuous
 70
    0
  3
Solid line
 72
   65
 73
    0
 40
0
  0
LTYPE
  5
32
330
5
100
AcDbSymbolTableRecord
100
AcDbLinetypeTableRecord
  2
DOT
 70
    0
  3
Dot . . . . . . . . . . . . . . . . . . . . . .
 72
   65
 73
    2
 40
6.35
 49
0
 74
    0
 49
-6.35
 74
    0
  0
LTYPE
  5
33
330
5
100
AcDbSymbolTableRecord
100
AcDbLinetypeTableRecord
  2
DOTTINY
 70
    0
  3
Dot (.15x) .....................................
 72
   65
 73
    2
 40
0.9525
 49
0
 74
    0
 49
-0.9525
 74
    0
  0
LTYPE
  5
34
330
5
100
AcDbSymbolTableRecord
100
AcDbLinetypeTableRecord
  2
DOT2
 70
    0
  3
Dot (.5x) .....................................
 72
   65
 73
    2
 40
3.175
 49
0
 74
    0
 49
-3.175
 74
    0
  0
LTYPE
  5
35
330
5
100
AcDbSymbolTableRecord
100
AcDbLinetypeTableRecord
  2
DOTX2
 70
    0
  3
Dot (2x) .  .  .  .  .  .  .  .  .  .  .  .  .
 72
   65
 73
    2
 40
12.7
 49
0
 74
    0
 49
-12.7
 74
    0
  0
LTYPE
  5
36
330
5
100
AcDbSymbolTableRecord
100
AcDbLinetypeTableRecord
  2
DASHED
 70
    0
  3
Dashed _ _ _ _ _ _ _ _ _ _ _ _ _ _ _ _ _
 72
   65
 73
    2
 40
19.05
 49
12.7
 74
    0
 49
-6.35
 74
    0
  0
LTYPE
  5
37
330
5
100
AcDbSymbolTableRecord
100
AcDbLinetypeTableRecord
  2
DASHEDTINY
 70
    0
  3
Dashed (.15x) _ _ _ _ _ _ _ _ _ _ _ _ _ _ _ _ _
 72
   65
 73
    2
 40
2.8575
 49
1.905
 74
    0
 49
-0.9525
 74
    0
  0
LTYPE
  5
38
330
5
100
AcDbSymbolTableRecord
100
AcDbLinetypeTableRecord
  2
DASHED2
 70
    0
  3
Dashed (.5x) _ _ _ _ _ _ _ _ _ _ _ _ _ _ _ _ _
 72
   65
 73
    2
 40
9.524999999999999
 49
6.35
 74
    0
 49
-3.175
 74
    0
  0
LTYPE
  5
39
330
5
100
AcDbSymbolTableRecord
100
AcDbLinetypeTableRecord
  2
DASHEDX2
 70
    0
  3
Dashed (2x) ____  ____  ____  ____  ____  ___
 72
   65
 73
    2
 40
38.09999999999999
 49
25.4
 74
    0
 49
-12.7
 74
    0
  0
LTYPE
  5
3A
330
5
100
AcDbSymbolTableRecord
100
AcDbLinetypeTableRecord
  2
DASHDOT
 70
    0
  3
Dash dot __ . __ . __ . __ . __ . __ . __ . __
 72
   65
 73
    4
 40
25.4
 49
12.7
 74
    0
 49
-6.35
 74
    0
 49
0
 74
    0
 49
-6.35
 74
    0
  0
LTYPE
  5
3B
330
5
100
AcDbSymbolTableRecord
100
AcDbLinetypeTableRecord
  2
DASHDOTTINY
 70
    0
  3
Dash dot (.15x) _._._._._._._._._._._._._._._.
 72
   65
 73
    4
 40
3.81
 49
1.905
 74
    0
 49
-0.9525
 74
    0
 49
0
 74
    0
 49
-0.9525
 74
    0
  0
LTYPE
  5
3C
330
5
100
AcDbSymbolTableRecord
100
AcDbLinetypeTableRecord
  2
DASHDOT2
 70
    0
  3
Dash dot (.5x) _._._._._._._._._._._._._._._.
 72
   65
 73
    4
 40
12.7
 49
6.35
 74
    0
 49
-3.175
 74
    0
 49
0
 74
    0
 49
-3.175
 74
    0
  0
LTYPE
  5
3D
330
5
100
AcDbSymbolTableRecord
100
AcDbLinetypeTableRecord
  2
DASHDOTX2
 70
    0
  3
Dash dot (2x) ____  .  ____  .  ____  .  ___
 72
   65
 73
    4
 40
50.8
 49
25.4
 74
    0
 49
-12.7
 74
    0
 49
0
 74
    0
 49
-12.7
 74
    0
  0
LTYPE
  5
3E
330
5
100
AcDbSymbolTableRecord
100
AcDbLinetypeTableRecord
  2
DIVIDE
 70
    0
  3
Divide ____ . . ____ . . ____ . . ____ . . ____
 72
   65
 73
    6
 40
31.75
 49
12.7
 74
    0
 49
-6.35
 74
    0
 49
0
 74
    0
 49
-6.35
 74
    0
 49
0
 74
    0
 49
-6.35
 74
    0
  0
LTYPE
  5
3F
330
5
100
AcDbSymbolTableRecord
100
AcDbLinetypeTableRecord
  2
DIVIDETINY
 70
    0
  3
Divide (.15x) __..__..__..__..__..__..__..__.._
 72
   65
 73
    6
 40
4.7625
 49
1.905
 74
    0
 49
-0.9525
 74
    0
 49
0
 74
    0
 49
-0.9525
 74
    0
 49
0
 74
    0
 49
-0.9525
 74
    0
  0
LTYPE
  5
40
330
5
100
AcDbSymbolTableRecord
100
AcDbLinetypeTableRecord
  2
DIVIDE2
 70
    0
  3
Divide (.5x) __..__..__..__..__..__..__..__.._
 72
   65
 73
    6
 40
15.875
 49
6.35
 74
    0
 49
-3.175
 74
    0
 49
0
 74
    0
 49
-3.175
 74
    0
 49
0
 74
    0
 49
-3.175
 74
    0
  0
LTYPE
  5
41
330
5
100
AcDbSymbolTableRecord
100
AcDbLinetypeTableRecord
  2
DIVIDEX2
 70
    0
  3
Divide (2x) ________  .  .  ________  .  .  _
 72
   65
 73
    6
 40
63.5
 49
25.4
 74
    0
 49
-12.7
 74
    0
 49
0
 74
    0
 49
-12.7
 74
    0
 49
0
 74
    0
 49
-12.7
 74
    0
  0
LTYPE
  5
42
330
5
100
AcDbSymbolTableRecord
100
AcDbLinetypeTableRecord
  2
BORDER
 70
    0
  3
Border __ __ . __ __ . __ __ . __ __ . __ __ .
 72
   65
 73
    6
 40
44.45
 49
12.7
 74
    0
 49
-6.35
 74
    0
 49
12.7
 74
    0
 49
-6.35
 74
    0
 49
0
 74
    0
 49
-6.35
 74
    0
  0
LTYPE
  5
43
330
5
100
AcDbSymbolTableRecord
100
AcDbLinetypeTableRecord
  2
BORDERTINY
 70
    0
  3
Border (.15x) __.__.__.__.__.__.__.__.__.__.__.
 72
   65
 73
    6
 40
6.6675
 49
1.905
 74
    0
 49
-0.9525
 74
    0
 49
1.905
 74
    0
 49
-0.9525
 74
    0
 49
0
 74
    0
 49
-0.9525
 74
    0
  0
LTYPE
  5
44
330
5
100
AcDbSymbolTableRecord
100
AcDbLinetypeTableRecord
  2
BORDER2
 70
    0
  3
Border (.5x) __.__.__.__.__.__.__.__.__.__.__.
 72
   65
 73
    6
 40
22.225
 49
6.35
 74
    0
 49
-3.175
 74
    0
 49
6.35
 74
    0
 49
-3.175
 74
    0
 49
0
 74
    0
 49
-3.175
 74
    0
  0
LTYPE
  5
45
330
5
100
AcDbSymbolTableRecord
100
AcDbLinetypeTableRecord
  2
BORDERX2
 70
    0
  3
Border (2x) ____  ____  .  ____  ____  .  ___
 72
   65
 73
    6
 40
88.89999999999999
 49
25.4
 74
    0
 49
-12.7
 74
    0
 49
25.4
 74
    0
 49
-12.7
 74
    0
 49
0
 74
    0
 49
-12.7
 74
    0
  0
LTYPE
  5
46
330
5
100
AcDbSymbolTableRecord
100
AcDbLinetypeTableRecord
  2
CENTER
 70
    0
  3
Center ____ _ ____ _ ____ _ ____ _ ____ _ ____
 72
   65
 73
    4
 40
50.8
 49
31.75
 74
    0
 49
-6.35
 74
    0
 49
6.35
 74
    0
 49
-6.35
 74
    0
  0
LTYPE
  5
47
330
5
100
AcDbSymbolTableRecord
100
AcDbLinetypeTableRecord
  2
CENTERTINY
 70
    0
  3
Center (.15x) ___ _ ___ _ ___ _ ___ _ ___ _ ___
 72
   65
 73
    4
 40
7.619999999999999
 49
4.7625
 74
    0
 49
-0.9525
 74
    0
 49
0.9525
 74
    0
 49
-0.9525
 74
    0
  0
LTYPE
  5
48
330
5
100
AcDbSymbolTableRecord
100
AcDbLinetypeTableRecord
  2
CENTER2
 70
    0
  3
Center (.5x) ___ _ ___ _ ___ _ ___ _ ___ _ ___
 72
   65
 73
    4
 40
28.575
 49
19.05
 74
    0
 49
-3.175
 74
    0
 49
3.175
 74
    0
 49
-3.175
 74
    0
  0
LTYPE
  5
49
330
5
100
AcDbSymbolTableRecord
100
AcDbLinetypeTableRecord
  2
CENTERX2
 70
    0
  3
Center (2x) ________  __  ________  __  _____
 72
   65
 73
    4
 40
101.6
 49
63.5
 74
    0
 49
-12.7
 74
    0
 49
12.7
 74
    0
 49
-12.7
 74
    0
  0
ENDTAB
  0
TABLE
  2
LAYER
  5
2
330
0
100
AcDbSymbolTable
 70
    1
  0
LAYER
  5
10
330
2
100
AcDbSymbolTableRecord
100
AcDbLayerTableRecord
  2
0
 70
    0
 62
    7
  6
CONTINUOUS
370
    0
390
F
  0
LAYER
  5
4A
330
2
100
AcDbSymbolTableRecord
100
AcDbLayerTableRecord
  2
circles
 70
    0
 62
    6
  6
CONTINUOUS
370
    0
390
F
  0
LAYER
  5
4B
330
2
100
AcDbSymbolTableRecord
100
AcDbLayerTableRecord
  2
end
 70
    0
 62
    2
  6
CONTINUOUS
370
    0
390
F
  0
LAYER
  5
4C
330
2
100
AcDbSymbolTableRecord
100
AcDbLayerTableRecord
  2
sizes
 70
    0
 62
    7
  6
CONTINUOUS
370
    0
390
F
  0
ENDTAB
  0
TABLE
  2
STYLE
  5
3
330
0
100
AcDbSymbolTable
 70
    3
  0
STYLE
  5
4D
330
2
100
AcDbSymbolTableRecord
100
AcDbTextStyleTableRecord
  2
Standard
 70
    0
 40
0
 41
1
 50
0
 71
    0
 42
1
  3
txt
  4

  0
ENDTAB
  0
TABLE
  2
VIEW
  5
6
330
0
100
AcDbSymbolTable
 70
    0
  0
ENDTAB
  0
TABLE
  2
UCS
  5
7
330
0
100
AcDbSymbolTable
 70
    0
  0
ENDTAB
  0
TABLE
  2
APPID
  5
9
330
0
100
AcDbSymbolTable
 70
    1
  0
APPID
  5
12
330
9
100
AcDbSymbolTableRecord
100
AcDbRegAppTableRecord
  2
ACAD
 70
    0
  0
APPID
  5
4E
330
9
100
AcDbSymbolTableRecord
100
AcDbRegAppTableRecord
  2
LibreCad
 70
    0
  0
ENDTAB
  0
TABLE
  2
DIMSTYLE
  5
A
330
0
100
AcDbSymbolTable
 70
    1
100
AcDbDimStyleTable
 71
    1
  0
DIMSTYLE
105
4F
330
A
100
AcDbSymbolTableRecord
100
AcDbDimStyleTableRecord
  2
Standard
 70
    0
 40
1
 41
5
 42
0.625
 43
0.38
 44
1.25
 45
0
 46
0
 47
0
 48
0
 49
1
140
5
141
0.09
142
0
143
25.4
144
1
145
0
146
1
147
0.625
148
0
 71
    0
 72
    0
 73
    0
 74
    1
 75
    0
 76
    0
 77
    0
 78
    1
 79
    0
170
    0
171
    2
172
    0
173
    0
174
    0
175
    0
176
    0
177
    0
178
    0
179
    2
271
    4
272
    4
273
    2
274
    2
275
    0
276
    0
277
    2
278
    0
279
    0
280
    0
281
    0
282
    0
283
    1
284
    0
285
    0
286
    0
288
    0
289
    3
340
standard
341

371
   -2
372
   -2
  0
ENDTAB
  0
TABLE
  2
BLOCK_RECORD
  5
1
330
0
100
AcDbSymbolTable
 70
    2
  0
BLOCK_RECORD
  5
1F
330
1
100
AcDbSymbolTableRecord
100
AcDbBlockTableRecord
  2
*Model_Space
 70
    0
280
    1
281
    0
  0
BLOCK_RECORD
  5
1E
330
1
100
AcDbSymbolTableRecord
100
AcDbBlockTableRecord
  2
*Paper_Space
 70
    0
280
    1
281
    0
  0
BLOCK_RECORD
  5
50
330
1
100
AcDbSymbolTableRecord
100
AcDbBlockTableRecord
  2
*D3
 70
    0
280
    1
281
    0
  0
BLOCK_RECORD
  5
53
330
1
100
AcDbSymbolTableRecord
100
AcDbBlockTableRecord
  2
*D2
 70
    0
280
    1
281
    0
  0
BLOCK_RECORD
  5
56
330
1
100
AcDbSymbolTableRecord
100
AcDbBlockTableRecord
  2
*D5
 70
    0
280
    1
281
    0
  0
BLOCK_RECORD
  5
59
330
1
100
AcDbSymbolTableRecord
100
AcDbBlockTableRecord
  2
*D1
 70
    0
280
    1
281
    0
  0
BLOCK_RECORD
  5
5C
330
1
100
AcDbSymbolTableRecord
100
AcDbBlockTableRecord
  2
*D4
 70
    0
280
    1
281
    0
  0
ENDTAB
  0
ENDSEC
  0
SECTION
  2
BLOCKS
  0
BLOCK
  5
20
330
1F
100
AcDbEntity
  8
0
100
AcDbBlockBegin
  2
*Model_Space
 70
    0
 10
0
 20
0
 30
0
  3
*Model_Space
  1

  0
ENDBLK
  5
21
330
1F
100
AcDbEntity
  8
0
100
AcDbBlockEnd
  0
BLOCK
  5
1C
330
1B
100
AcDbEntity
  8
0
100
AcDbBlockBegin
  2
*Paper_Space
 70
    0
 10
0
 20
0
 30
0
  3
*Paper_Space
  1

  0
ENDBLK
  5
1D
330
1F
100
AcDbEntity
  8
0
100
AcDbBlockEnd
  0
BLOCK
  5
51
330
50
100
AcDbEntity
  8
0
100
AcDbBlockBegin
  2
*D3
 70
    1
 10
0
 20
0
  3
*D3
  1

  0
LINE
  5
5F
100
AcDbEntity
  8
sizes
  6
ByBlock
 62
    0
370
   -2
100
AcDbLine
 10
210.797300908849
 20
69.37594490995809
 11
242.3052501691216
 21
100.8839111681331
  0
LINE
  5
60
100
AcDbEntity
  8
sizes
  6
ByBlock
 62
    0
370
   -2
100
AcDbLine
 10
175.4419416190323
 20
104.7312851262826
 11
206.9498908793048
 21
136.2392513844576
  0
LINE
  5
61
100
AcDbEntity
  8
sizes
  6
ByBlock
 62
    0
370
   -2
100
AcDbLine
 10
241.421366931057
 20
100.0000274532313
 11
206.0660076412402
 21
135.3553676695559
  0
SOLID
  5
62
100
AcDbEntity
  8
sizes
  6
ByBlock
 62
    0
370
   -2
100
AcDbTrace
 10
241.421366931057
 20
100.0000274532313
 30
0
 11
237.2971168214199
 21
102.9468448378594
 31
0
 12
238.4745473214802
 22
104.1242759731198
 32
0
 13
238.4745473214802
 23
104.1242759731198
 33
0
  0
SOLID
  5
63
100
AcDbEntity
  8
sizes
  6
ByBlock
 62
    0
370
   -2
100
AcDbTrace
 10
206.0660076412402
 20
135.3553676695559
 30
0
 11
210.1902577508774
 21
132.4085502849277
 31
0
 12
209.012827250817
 22
131.2311191496674
 32
0
 13
209.012827250817
 23
131.2311191496674
 33
0
  0
MTEXT
  5
64
100
AcDbEntity
  8
sizes
  6
CONTINUOUS
 62
    0
370
   -2
100
AcDbMText
 10
225.95339538131
 20
119.8874068486479
 30
0
 40
5
 41
23.33333333333364
 71
    5
 72
    1
  1
50.0000
  7
standard
210
0
220
0
230
1
 50
315.0000154549539
 73
    2
 44
1
  0
ENDBLK
  5
52
330
50
100
AcDbEntity
  8
0
100
AcDbBlockEnd
  0
BLOCK
  5
54
330
53
100
AcDbEntity
  8
0
100
AcDbBlockBegin
  2
*D2
 70
    1
 10
0
 20
0
  3
*D2
  1

  0
LINE
  5
65
100
AcDbEntity
  8
sizes
  6
ByBlock
 62
    0
370
   -2
100
AcDbLine
 10
100.0000000000001
 20
99.37500000000011
 11
99.99999999999983
 21
-42.67135623730957
  0
LINE
  5
66
100
AcDbEntity
  8
sizes
  6
ByBlock
 62
    0
370
   -2
100
AcDbLine
 10
200
 20
99.37499999999997
 11
199.9999999999997
 21
-42.67135623730971
  0
LINE
  5
67
100
AcDbEntity
  8
sizes
  6
ByBlock
 62
    0
370
   -2
100
AcDbLine
 10
99.99999999999983
 20
-41.42135623730957
 11
199.9999999999997
 21
-41.42135623730971
  0
SOLID
  5
68
100
AcDbEntity
  8
sizes
  6
ByBlock
 62
    0
370
   -2
100
AcDbTrace
 10
99.99999999999983
 20
-41.42135623730957
 30
0
 11
104.9999999999998
 21
-40.58878692176389
 31
0
 12
104.9999999999998
 22
-42.25392555285526
 32
0
 13
104.9999999999998
 23
-42.25392555285526
 33
0
  0
SOLID
  5
69
100
AcDbEntity
  8
sizes
  6
ByBlock
 62
    0
370
   -2
100
AcDbTrace
 10
199.9999999999997
 20
-41.42135623730971
 30
0
 11
194.9999999999997
 21
-42.25392555285538
 31
0
 12
194.9999999999997
 22
-40.58878692176402
 32
0
 13
194.9999999999997
 23
-40.58878692176402
 33
0
  0
MTEXT
  5
6A
100
AcDbEntity
  8
sizes
  6
CONTINUOUS
 62
    0
370
   -2
100
AcDbMText
 10
149.9999999999998
 20
-38.29635623730964
 30
0
 40
5
 41
26.11111111111111
 71
    5
 72
    1
  1
100.0000
  7
standard
210
0
220
0
230
1
 50
359.9999999999999
 73
    2
 44
1
  0
ENDBLK
  5
55
330
53
100
AcDbEntity
  8
0
100
AcDbBlockEnd
  0
BLOCK
  5
57
330
56
100
AcDbEntity
  8
0
100
AcDbBlockBegin
  2
*D5
 70
    1
 10
0
 20
0
  3
*D5
  1

  0
LINE
  5
6B
100
AcDbEntity
  8
0
  6
ByBlock
 62
    0
370
   -2
100
AcDbLine
 10
100.5774247078196
 20
100.2391771452282
 11
218.3299936283611
 21
149.0138881963892
  0
LINE
  5
6C
100
AcDbEntity
  8
0
  6
ByBlock
 62
    0
370
   -2
100
AcDbLine
 10
79.8667465891648
 20
150.2391771452282
 11
197.6193155097064
 21
199.0138881963892
  0
LINE
  5
6D
100
AcDbEntity
  8
0
  6
ByBlock
 62
    0
370
   -2
100
AcDbLine
 10
217.175144212722
 20
148.5355339059328
 11
196.4644660940672
 21
198.5355339059328
  0
SOLID
  5
6E
100
AcDbEntity
  8
0
  6
ByBlock
 62
    0
370
   -2
100
AcDbTrace
 10
217.175144212722
 20
148.5355339059328
 30
0
 11
214.492533300867
 21
152.8363210851344
 31
0
 12
216.0309208009261
 22
153.4735420518441
 32
0
 13
216.0309208009261
 23
153.4735420518441
 33
0
  0
SOLID
  5
6F
100
AcDbEntity
  8
0
  6
ByBlock
 62
    0
370
   -2
100
AcDbTrace
 10
196.4644660940672
 20
198.5355339059328
 30
0
 11
199.1470770059223
 21
194.2347467267312
 31
0
 12
197.6086895058631
 22
193.5975257600215
 32
0
 13
197.6086895058631
 23
193.5975257600215
 33
0
  0
MTEXT
  5
70
100
AcDbEntity
  8
0
  6
CONTINUOUS
 62
    0
370
   -2
100
AcDbMText
 10
209.7069286924924
 20
174.7314196320737
 30
0
 40
5
 41
21.66666666666729
 71
    5
 72
    1
  1
54.1196
  7
standard
210
0
220
0
230
1
 50
292.5000000000001
 73
    2
 44
1
  0
ENDBLK
  5
58
330
56
100
AcDbEntity
  8
0
100
AcDbBlockEnd
  0
BLOCK
  5
5A
330
59
100
AcDbEntity
  8
0
100
AcDbBlockBegin
  2
*D1
 70
    1
 10
0
 20
0
  3
*D1
  1

  0
LINE
  5
71
100
AcDbEntity
  8
sizes
  6
ByBlock
 62
    0
370
   -2
100
AcDbLine
 10
100
 20
99.375
 11
100.0000000000003
 21
-24.99368670764586
  0
LINE
  5
72
100
AcDbEntity
  8
sizes
  6
ByBlock
 62
    0
370
   -2
100
AcDbLine
 10
150.0000000000001
 20
99.37500000000014
 11
150.0000000000005
 21
-24.99368670764572
  0
LINE
  5
73
100
AcDbEntity
  8
sizes
  6
ByBlock
 62
    0
370
   -2
100
AcDbLine
 10
100.0000000000003
 20
-23.74368670764586
 11
150.0000000000005
 21
-23.74368670764572
  0
SOLID
  5
74
100
AcDbEntity
  8
sizes
  6
ByBlock
 62
    0
370
   -2
100
AcDbTrace
 10
100.0000000000003
 20
-23.74368670764586
 30
0
 11
105.0000000000003
 21
-22.91111739210017
 31
0
 12
105.0000000000003
 22
-24.57625602319153
 32
0
 13
105.0000000000003
 23
-24.57625602319153
 33
0
  0
SOLID
  5
75
100
AcDbEntity
  8
sizes
  6
ByBlock
 62
    0
370
   -2
100
AcDbTrace
 10
150.0000000000005
 20
-23.74368670764572
 30
0
 11
145.0000000000005
 21
-24.57625602319142
 31
0
 12
145.0000000000005
 22
-22.91111739210005
 32
0
 13
145.0000000000005
 23
-22.91111739210005
 33
0
  0
MTEXT
  5
76
100
AcDbEntity
  8
sizes
  6
CONTINUOUS
 62
    0
370
   -2
100
AcDbMText
 10
125.0000000000004
 20
-20.61868670764579
 30
0
 40
5
 41
23.33333333333364
 71
    5
 72
    1
  1
50.0000
  7
standard
210
0
220
0
230
1
 50
1.526666247102488e-13
 73
    2
 44
1
  0
ENDBLK
  5
5B
330
59
100
AcDbEntity
  8
0
100
AcDbBlockEnd
  0
BLOCK
  5
5D
330
5C
100
AcDbEntity
  8
0
100
AcDbBlockBegin
  2
*D4
 70
    1
 10
0
 20
0
  3
*D4
  1

  0
LINE
  5
77
100
AcDbEntity
  8
sizes
  6
ByBlock
 62
    0
370
   -2
100
AcDbLine
 10
210.7973010602153
 20
68.49206134642263
 11
240.5285639584719
 21
38.760802774837
  0
LINE
  5
78
100
AcDbEntity
  8
sizes
  6
ByBlock
 62
    0
370
   -2
100
AcDbLine
 10
156.507957312144
 20
14.20270969784075
 11
186.2392202104006
 21
-15.52854887374489
  0
LINE
  5
79
100
AcDbEntity
  8
sizes
  6
ByBlock
 62
    0
370
   -2
100
AcDbLine
 10
239.6446804176747
 20
39.64468618700617
 11
185.3553366696034
 21
-14.64466546157572
  0
SOLID
  5
7A
100
AcDbEntity
  8
sizes
  6
ByBlock
 62
    0
370
   -2
100
AcDbTrace
 10
239.6446804176747
 20
39.64468618700617
 30
0
 11
236.6978622206649
 21
35.52043665782392
 31
0
 12
235.5204313173311
 22
36.69786738981092
 32
0
 13
235.5204313173311
 23
36.69786738981092
 33
0
  0
SOLID
  5
7B
100
AcDbEntity
  8
sizes
  6
ByBlock
 62
    0
370
   -2
100
AcDbTrace
 10
185.3553366696034
 20
-14.64466546157572
 30
0
 11
188.3021548666133
 21
-10.52041593239347
 31
0
 12
189.479585769947
 22
-11.69784666438046
 32
0
 13
189.479585769947
 23
-11.69784666438046
 33
0
  0
MTEXT
  5
7C
100
AcDbEntity
  8
sizes
  6
CONTINUOUS
 62
    0
370
   -2
100
AcDbMText
 10
210.2902996916461
 20
14.70971889313817
 30
0
 40
5
 41
23.33333333333396
 71
    5
 72
    1
  1
76.7767
  7
standard
210
0
220
0
230
1
 50
45.0000041690123
 73
    2
 44
1
  0
ENDBLK
  5
5E
330
5C
100
AcDbEntity
  8
0
100
AcDbBlockEnd
  0
ENDSEC
  0
SECTION
  2
ENTITIES
  0
LINE
  5
7D
100
AcDbEntity
  8
end
  6
ByLayer
 62
  256
370
   -1
100
AcDbLine
 10
68.93398282201787
 20
-10.35533905932738
 11
104.2893218813448
 21
25
  0
LINE
  5
7E
100
AcDbEntity
  8
end
  6
ByLayer
 62
  256
370
   -1
100
AcDbLine
 10
156.0660155417453
 20
50
 11
156.0660155417453
 21
0
  0
LINE
  5
7F
100
AcDbEntity
  8
end
  6
ByLayer
 62
  256
370
   -1
100
AcDbLine
 10
156.0660155417453
 20
50
 11
79.28932188134496
 21
50
  0
LINE
  5
80
100
AcDbEntity
  8
end
  6
ByLayer
 62
  256
370
   -1
100
AcDbLine
 10
156.0660155417455
 20
0
 11
79.2893218813451
 21
0
  0
LINE
  5
81
100
AcDbEntity
  8
end
  6
ByLayer
 62
  256
370
   -1
100
AcDbLine
 10
14.64466094067262
 20
43.93398282201787
 11
68.93398282201787
 21
-10.35533905932738
  0
LINE
  5
82
100
AcDbEntity
  8
end
  6
ByLayer
 62
  256
370
   -1
100
AcDbLine
 10
104.2893218813448
 20
25
 11
50
 21
79.28932188134524
  0
LINE
  5
83
100
AcDbEntity
  8
end
  6
ByLayer
 62
  256
370
   -1
100
AcDbLine
 10
49.99999999999986
 20
43.93398282201787
 11
50
 21
79.28932188134524
  0
LINE
  5
84
100
AcDbEntity
  8
end
  6
ByLayer
 62
  256
370
   -1
100
AcDbLine
 10
175.0000000000001
 20
104.2893432688317
 11
210.3553592898166
 21
68.93400305250708
  0
LINE
  5
85
100
AcDbEntity
  8
end
  6
ByLayer
 62
  256
370
   -1
100
AcDbLine
 10
150
 20
156.0660171779823
 11
200
 21
156.0660171779823
  0
LINE
  5
86
100
AcDbEntity
  8
end
  6
ByLayer
 62
  256
370
   -1
100
AcDbLine
 10
95.71067811865504
 20
175
 11
131.0660171779826
 21
210.3553390593274
  0
LINE
  5
87
100
AcDbEntity
  8
end
  6
ByLayer
 62
  256
370
   -1
100
AcDbLine
 10
43.93398282201787
 20
150
 11
43.93398282201787
 21
200
  0
LINE
  5
88
100
AcDbEntity
  8
end
  6
ByLayer
 62
  256
370
   -1
100
AcDbLine
 10
25.00000000000014
 20
95.7106781186549
 11
-10.35533905932738
 21
131.0660171779821
  0
LINE
  5
89
100
AcDbEntity
  8
end
  6
ByLayer
 62
  256
370
   -1
100
AcDbLine
 10
-10.35533905932738
 20
131.0660171779821
 11
43.93398282201787
 21
185.3553390593274
  0
LINE
  5
8A
100
AcDbEntity
  8
end
  6
ByLayer
 62
  256
370
   -1
100
AcDbLine
 10
43.93398282201787
 20
150
 11
79.28932188134524
 21
150
  0
LINE
  5
8B
100
AcDbEntity
  8
end
  6
ByLayer
 62
  256
370
   -1
100
AcDbLine
 10
79.28932188134524
 20
150
 11
25
 21
95.71067811865476
  0
LINE
  5
8C
100
AcDbEntity
  8
end
  6
ByLayer
 62
  256
370
   -1
100
AcDbLine
 10
50
 20
120.7106781186549
 11
50
 21
43.93398282201787
  0
LINE
  5
8D
100
AcDbEntity
  8
end
  6
ByLayer
 62
  256
370
   -1
100
AcDbLine
 10
49.99999999999986
 20
43.93398282201787
 11
0
 21
43.93398282201787
  0
LINE
  5
8E
100
AcDbEntity
  8
end
  6
ByLayer
 62
  256
370
   -1
100
AcDbLine
 10
0
 20
43.93398282201787
 11
0
 21
120.7106781186548
  0
LINE
  5
8F
100
AcDbEntity
  8
end
  6
ByLayer
 62
  256
370
   -1
100
AcDbLine
 10
79.28932188134524
 20
150
 11
120.7106781186549
 21
150
  0
LINE
  5
90
100
AcDbEntity
  8
end
  6
ByLayer
 62
  256
370
   -1
100
AcDbLine
 10
120.7106781186549
 20
150
 11
95.71067811865504
 21
175
  0
LINE
  5
91
100
AcDbEntity
  8
end
  6
ByLayer
 62
  256
370
   -1
100
AcDbLine
 10
43.93398282201787
 20
200
 11
120.710678118655
 21
200
  0
LINE
  5
92
100
AcDbEntity
  8
end
  6
ByLayer
 62
  256
370
   -1
100
AcDbLine
 10
131.0660171779826
 20
210.3553390593274
 11
185.3553390593274
 21
156.0660171779823
  0
LINE
  5
93
100
AcDbEntity
  8
end
  6
ByLayer
 62
  256
370
   -1
100
AcDbLine
 10
150
 20
156.0660171779823
 11
150
 21
120.7106781186548
  0
LINE
  5
94
100
AcDbEntity
  8
end
  6
ByLayer
 62
  256
370
   -1
100
AcDbLine
 10
150
 20
120.7106781186548
 11
120.7106781186549
 21
150
  0
LINE
  5
95
100
AcDbEntity
  8
end
  6
ByLayer
 62
  256
370
   -1
100
AcDbLine
 10
150
 20
120.7106781186546
 11
150
 21
79.28932978183639
  0
LINE
  5
96
100
AcDbEntity
  8
end
  6
ByLayer
 62
  256
370
   -1
100
AcDbLine
 10
150
 20
79.28932978183639
 11
175.0000000000004
 21
104.2893432688319
  0
LINE
  5
97
100
AcDbEntity
  8
end
  6
ByLayer
 62
  256
370
   -1
100
AcDbLine
 10
200
 20
156.0660171779823
 11
200
 21
79.28935675581968
  0
LINE
  5
98
100
AcDbEntity
  8
end
  6
ByLayer
 62
  256
370
   -1
100
AcDbLine
 10
210.3553592898167
 20
68.93400305250722
 11
156.0660155417455
 21
14.64465140392534
  0
LINE
  5
99
100
AcDbEntity
  8
end
  6
ByLayer
 62
  256
370
   -1
100
AcDbLine
 10
150
 20
79.28932978183639
 11
120.7106860191574
 21
50
  0
CIRCLE
  5
9A
100
AcDbEntity
  8
circles
  6
ByLayer
 62
  256
370
   -1
100
AcDbCircle
 10
100
 20
100
 40
100.0000000000016
  0
CIRCLE
  5
9B
100
AcDbEntity
  8
circles
  6
ByLayer
 62
  256
370
   -1
100
AcDbCircle
 10
100.0000000000001
 20
100.0000000000001
 40
50
  0
DIMENSION
  5
9C
100
AcDbEntity
  8
sizes
  6
ByLayer
 62
  256
370
   -1
100
AcDbDimension
  2
*D1
 10
150.0000000000005
 20
-23.74368670764572
 30
0
 11
125.0000000000004
 21
-20.61868670764579
 31
0
 70
   33
 71
    5
  3
Standard
 53
0
210
0
220
0
230
1
100
AcDbAlignedDimension
 13
100
 23
100
 33
0
 14
150.0000000000001
 24
100.0000000000001
 34
0
  0
DIMENSION
  5
9D
100
AcDbEntity
  8
sizes
  6
ByLayer
 62
  256
370
   -1
100
AcDbDimension
  2
*D2
 10
199.9999999999997
 20
-41.42135623730971
 30
0
 11
149.9999999999998
 21
-38.29635623730964
 31
0
 70
   33
 71
    5
  3
Standard
 53
0
210
0
220
0
230
1
100
AcDbAlignedDimension
 13
100.0000000000001
 23
100.0000000000001
 33
0
 14
200
 24
99.99999999999997
 34
0
  0
DIMENSION
  5
9E
100
AcDbEntity
  8
sizes
  6
ByLayer
 62
  256
370
   -1
100
AcDbDimension
  2
*D3
 10
206.0660076412402
 20
135.3553676695559
 30
0
 11
225.95339538131
 21
119.8874068486479
 31
0
 70
   33
 71
    5
  3
Standard
 53
0
210
0
220
0
230
1
100
AcDbAlignedDimension
 13
210.3553592898167
 23
68.93400305250722
 33
0
 14
175
 24
104.2893432688318
 34
0
  0
DIMENSION
  5
9F
100
AcDbEntity
  8
sizes
  6
ByLayer
 62
  256
370
   -1
100
AcDbDimension
  2
*D4
 10
185.3553366696034
 20
-14.64466546157573
 30
0
 11
210.2902996916461
 21
14.70971889313817
 31
0
 70
   33
 71
    5
  3
Standard
 53
0
210
0
220
0
230
1
100
AcDbAlignedDimension
 13
210.3553592898167
 23
68.93400305250722
 33
0
 14
156.0660155417455
 24
14.64465140392534
 34
0
  0
MTEXT
  5
A0
100
AcDbEntity
  8
0
  6
ByLayer
 62
  256
370
   -1
100
AcDbMText
 10
-30
 20
-50
 30
0
 40
10
 41
313.3333384762091
 71
    1
 72
    1
  1
corners to be trimmed to the %%C 100mm circle
  7

210
0
220
0
230
1
 50
0
 73
    2
 44
1
  0
DIMENSION
  5
A1
100
AcDbEntity
  8
0
  6
ByLayer
 62
  256
370
   -1
100
AcDbDimension
  2
*D5
 10
196.4644660940672
 20
198.5355339059328
 30
0
 11
209.7069286924924
 21
174.7314196320737
 31
0
 70
   33
 71
    5
  3
Standard
 53
0
210
0
220
0
230
1
100
AcDbAlignedDimension
 13
100
 23
100
 33
0
 14
79.28932188134524
 24
150
 34
0
  0
ENDSEC
  0
SECTION
  2
OBJECTS
  0
DICTIONARY
  5
C
330
0
100
AcDbDictionary
281
    1
  3
ACAD_GROUP
350
D
  0
DICTIONARY
  5
D
330
C
100
AcDbDictionary
281
    1
  0
ENDSEC
  0
EOF
