999
dxfrw 0.5.10
0
SECTION
2
HEADER
9
$ACADVER
1
AC1021
9
$HANDSEED
5
20000
9
$DWGCODEPAGE
3
ANSI_1252
9
$INSBASE
10
0
20
0
30
0
9
$EXTMIN
10
-60.3732411484
20
-53.8748037818
30
0
9
$EXTMAX
10
363.493279528
20
126.234958765
30
0
9
$LIMMIN
10
0
20
0
9
$LIMMAX
10
420
20
297
9
$ORTHOMODE
70
0
9
$LTSCALE
40
1
9
$TEXTSTYLE
7
STANDARD
9
$CLAYER
8
centers from centerline
9
$DIMASZ
40
2.5
9
$DIMLFAC
40
1
9
$DIMSCALE
40
1
9
$DIMEXO
40
0.625
9
$DIMEXE
40
1.25
9
$DIMTXT
40
2.5
9
$DIMTSZ
40
0
9
$DIMAUNIT
70
0
9
$DIMADEC
70
0
9
$DIMLUNIT
70
2
9
$DIMSTYLE
2
STANDARD
9
$DIMGAP
40
0.625
9
$DIMTIH
70
0
9
$LUNITS
70
2
9
$LUPREC
70
4
9
$AUNITS
70
0
9
$AUPREC
70
2
9
$SPLINESEGS
70
8
9
$SNAPSTYLE
70
0
9
$PINSBASE
10
0
20
0
30
0
9
$PLIMMIN
10
0
20
0
9
$PLIMMAX
10
210
20
297
9
$INSUNITS
70
4
9
$PSVPSCALE
40
1
0
ENDSEC
0
SECTION
2
CLASSES
0
ENDSEC
0
SECTION
2
TABLES
0
TABLE
2
VPORT
5
8
330
0
100
AcDbSymbolTable
70
1
0
VPORT
5
31
330
2
100
AcDbSymbolTableRecord
100
AcDbViewportTableRecord
2
*ACTIVE
70
0
10
0
20
0
11
1
21
1
12
189.857805812
22
50.8174165914
13
0
23
0
14
10
24
10
15
10
25
10
16
0
26
0
36
1
17
0
27
0
37
0
40
151.09875926
41
1.9332247557
42
50
43
0
44
0
50
0
51
0
71
0
72
100
73
1
74
3
75
0
76
1
77
0
78
0
281
0
65
1
110
0
120
0
130
0
111
1
121
0
131
0
112
0
122
1
132
0
79
0
146
0
348
10020
60
7
61
5
292
1
282
1
141
0
142
0
63
250
421
3358443
0
ENDTAB
0
TABLE
2
LTYPE
5
5
330
0
100
AcDbSymbolTable
70
4
0
LTYPE
5
14
330
5
100
AcDbSymbolTableRecord
100
AcDbLinetypeTableRecord
2
ByBlock
70
0
3

72
65
73
0
40
0
0
LTYPE
5
15
330
5
100
AcDbSymbolTableRecord
100
AcDbLinetypeTableRecord
2
ByLayer
70
0
3

72
65
73
0
40
0
0
LTYPE
5
16
330
5
100
AcDbSymbolTableRecord
100
AcDbLinetypeTableRecord
2
Continuous
70
0
3
Solid line
72
65
73
0
40
0
0
LTYPE
5
32
330
5
100
AcDbSymbolTableRecord
100
AcDbLinetypeTableRecord
2
DOT
70
0
3
Dot . . . . . . . . . . . . . . . . . . . . . .
72
65
73
2
40
6.35
49
0
74
0
49
-6.35
74
0
0
LTYPE
5
33
330
5
100
AcDbSymbolTableRecord
100
AcDbLinetypeTableRecord
2
DOT2
70
0
3
Dot (.5x) .....................................
72
65
73
2
40
3.175
49
0
74
0
49
-3.175
74
0
0
LTYPE
5
34
330
5
100
AcDbSymbolTableRecord
100
AcDbLinetypeTableRecord
2
DOTX2
70
0
3
Dot (2x) .  .  .  .  .  .  .  .  .  .  .  .  .
72
65
73
2
40
12.7
49
0
74
0
49
-12.7
74
0
0
LTYPE
5
35
330
5
100
AcDbSymbolTableRecord
100
AcDbLinetypeTableRecord
2
DASHED
70
0
3
Dot . . . . . . . . . . . . . . . . . . . . . .
72
65
73
2
40
19.05
49
12.7
74
0
49
-6.35
74
0
0
LTYPE
5
36
330
5
100
AcDbSymbolTableRecord
100
AcDbLinetypeTableRecord
2
DASHED2
70
0
3
Dashed (.5x) _ _ _ _ _ _ _ _ _ _ _ _ _ _ _ _ _
72
65
73
2
40
9.525
49
6.35
74
0
49
-3.175
74
0
0
LTYPE
5
37
330
5
100
AcDbSymbolTableRecord
100
AcDbLinetypeTableRecord
2
DASHEDX2
70
0
3
Dashed (2x) ____  ____  ____  ____  ____  ___
72
65
73
2
40
38.1
49
25.4
74
0
49
-12.7
74
0
0
LTYPE
5
38
330
5
100
AcDbSymbolTableRecord
100
AcDbLinetypeTableRecord
2
DASHDOT
70
0
3
Dash dot __ . __ . __ . __ . __ . __ . __ . __
72
65
73
4
40
25.4
49
12.7
74
0
49
-6.35
74
0
49
0
74
0
49
-6.35
74
0
0
LTYPE
5
39
330
5
100
AcDbSymbolTableRecord
100
AcDbLinetypeTableRecord
2
DASHDOT2
70
0
3
Dash dot (.5x) _._._._._._._._._._._._._._._.
72
65
73
4
40
12.7
49
6.35
74
0
49
-3.175
74
0
49
0
74
0
49
-3.175
74
0
0
LTYPE
5
3A
330
5
100
AcDbSymbolTableRecord
100
AcDbLinetypeTableRecord
2
DASHDOTX2
70
0
3
Dash dot (2x) ____  .  ____  .  ____  .  ___
72
65
73
4
40
50.8
49
25.4
74
0
49
-12.7
74
0
49
0
74
0
49
-12.7
74
0
0
LTYPE
5
3B
330
5
100
AcDbSymbolTableRecord
100
AcDbLinetypeTableRecord
2
DIVIDE
70
0
3
Divide ____ . . ____ . . ____ . . ____ . . ____
72
65
73
6
40
31.75
49
12.7
74
0
49
-6.35
74
0
49
0
74
0
49
-6.35
74
0
49
0
74
0
49
-6.35
74
0
0
LTYPE
5
3C
330
5
100
AcDbSymbolTableRecord
100
AcDbLinetypeTableRecord
2
DIVIDE2
70
0
3
Divide (.5x) __..__..__..__..__..__..__..__.._
72
65
73
6
40
15.875
49
6.35
74
0
49
-3.175
74
0
49
0
74
0
49
-3.175
74
0
49
0
74
0
49
-3.175
74
0
0
LTYPE
5
3D
330
5
100
AcDbSymbolTableRecord
100
AcDbLinetypeTableRecord
2
DIVIDEX2
70
0
3
Divide (2x) ________  .  .  ________  .  .  _
72
65
73
6
40
63.5
49
25.4
74
0
49
-12.7
74
0
49
0
74
0
49
-12.7
74
0
49
0
74
0
49
-12.7
74
0
0
LTYPE
5
3E
330
5
100
AcDbSymbolTableRecord
100
AcDbLinetypeTableRecord
2
BORDER
70
0
3
Border __ __ . __ __ . __ __ . __ __ . __ __ .
72
65
73
6
40
44.45
49
12.7
74
0
49
-6.35
74
0
49
12.7
74
0
49
-6.35
74
0
49
0
74
0
49
-6.35
74
0
0
LTYPE
5
3F
330
5
100
AcDbSymbolTableRecord
100
AcDbLinetypeTableRecord
2
BORDER2
70
0
3
Border (.5x) __.__.__.__.__.__.__.__.__.__.__.
72
65
73
6
40
22.225
49
6.35
74
0
49
-3.175
74
0
49
6.35
74
0
49
-3.175
74
0
49
0
74
0
49
-3.175
74
0
0
LTYPE
5
40
330
5
100
AcDbSymbolTableRecord
100
AcDbLinetypeTableRecord
2
BORDERX2
70
0
3
Border (2x) ____  ____  .  ____  ____  .  ___
72
65
73
6
40
88.9
49
25.4
74
0
49
-12.7
74
0
49
25.4
74
0
49
-12.7
74
0
49
0
74
0
49
-12.7
74
0
0
LTYPE
5
41
330
5
100
AcDbSymbolTableRecord
100
AcDbLinetypeTableRecord
2
CENTER
70
0
3
Center ____ _ ____ _ ____ _ ____ _ ____ _ ____
72
65
73
4
40
50.8
49
31.75
74
0
49
-6.35
74
0
49
6.35
74
0
49
-6.35
74
0
0
LTYPE
5
42
330
5
100
AcDbSymbolTableRecord
100
AcDbLinetypeTableRecord
2
CENTER2
70
0
3
Center (.5x) ___ _ ___ _ ___ _ ___ _ ___ _ ___
72
65
73
4
40
28.575
49
19.05
74
0
49
-3.175
74
0
49
3.175
74
0
49
-3.175
74
0
0
LTYPE
5
43
330
5
100
AcDbSymbolTableRecord
100
AcDbLinetypeTableRecord
2
CENTERX2
70
0
3
Center (2x) ________  __  ________  __  _____
72
65
73
4
40
101.6
49
63.5
74
0
49
-12.7
74
0
49
12.7
74
0
49
-12.7
74
0
0
ENDTAB
0
TABLE
2
LAYER
5
2
330
0
100
AcDbSymbolTable
70
1
0
LAYER
5
10
330
2
100
AcDbSymbolTableRecord
100
AcDbLayerTableRecord
2
0
70
0
62
7
6
CONTINUOUS
370
0
390
F
0
LAYER
5
44
330
2
100
AcDbSymbolTableRecord
100
AcDbLayerTableRecord
2
beam
70
1
62
2
6
CONTINUOUS
370
0
390
F
0
LAYER
5
45
330
2
100
AcDbSymbolTableRecord
100
AcDbLayerTableRecord
2
sizes
70
0
62
253
420
10526884
6
CONTINUOUS
370
0
390
F
0
LAYER
5
46
330
2
100
AcDbSymbolTableRecord
100
AcDbLayerTableRecord
2
helper
70
1
62
7
6
CONTINUOUS
370
0
390
F
0
LAYER
5
47
330
2
100
AcDbSymbolTableRecord
100
AcDbLayerTableRecord
2
used for I
70
0
62
1
6
CONTINUOUS
370
0
390
F
0
LAYER
5
48
330
2
100
AcDbSymbolTableRecord
100
AcDbLayerTableRecord
2
centers from base
70
0
62
136
420
32896
6
CONTINUOUS
370
0
390
F
0
LAYER
5
49
330
2
100
AcDbSymbolTableRecord
100
AcDbLayerTableRecord
2
centers from centerline
70
0
62
96
420
32768
6
CONTINUOUS
370
0
390
F
0
ENDTAB
0
TABLE
2
STYLE
5
3
330
0
100
AcDbSymbolTable
70
3
0
STYLE
5
4A
330
2
100
AcDbSymbolTableRecord
100
AcDbTextStyleTableRecord
2
Standard
70
0
40
0
41
1
50
0
71
0
42
1
3
txt
4

0
ENDTAB
0
TABLE
2
VIEW
5
6
330
0
100
AcDbSymbolTable
70
0
0
ENDTAB
0
TABLE
2
UCS
5
7
330
0
100
AcDbSymbolTable
70
0
0
ENDTAB
0
TABLE
2
APPID
5
9
330
0
100
AcDbSymbolTable
70
1
0
APPID
5
12
330
9
100
AcDbSymbolTableRecord
100
AcDbRegAppTableRecord
2
ACAD
70
0
0
ENDTAB
0
TABLE
2
DIMSTYLE
5
A
330
0
100
AcDbSymbolTable
70
1
100
AcDbDimStyleTable
71
1
0
DIMSTYLE
105
4B
330
A
100
AcDbSymbolTableRecord
100
AcDbDimStyleTableRecord
2
Standard
70
0
40
1
41
2.5
42
0.625
43
0.38
44
1.25
45
0
46
0
47
0
48
0
140
2.5
141
0.09
142
0
143
25.4
144
1
145
0
146
1
147
0.625
148
0
71
0
72
0
73
0
74
1
75
0
76
0
77
0
78
0
79
0
170
0
171
2
172
0
173
0
174
0
175
0
176
0
177
0
178
0
179
0
271
4
272
4
273
2
274
2
275
0
276
0
277
2
278
46
279
0
280
0
281
0
282
0
283
1
284
0
285
0
286
0
288
0
289
3
340
Standard
341

371
-2
372
-2
0
ENDTAB
0
TABLE
2
BLOCK_RECORD
5
1
330
0
100
AcDbSymbolTable
70
2
0
BLOCK_RECORD
5
1F
330
1
100
AcDbSymbolTableRecord
100
AcDbBlockTableRecord
2
*Model_Space
70
0
280
1
281
0
0
BLOCK_RECORD
5
1E
330
1
100
AcDbSymbolTableRecord
100
AcDbBlockTableRecord
2
*Paper_Space
70
0
280
1
281
0
0
BLOCK_RECORD
5
4C
330
1
100
AcDbSymbolTableRecord
100
AcDbBlockTableRecord
2
*D6
70
0
280
1
281
0
0
BLOCK_RECORD
5
4F
330
1
100
AcDbSymbolTableRecord
100
AcDbBlockTableRecord
2
*D24
70
0
280
1
281
0
0
BLOCK_RECORD
5
52
330
1
100
AcDbSymbolTableRecord
100
AcDbBlockTableRecord
2
*D3
70
0
280
1
281
0
0
BLOCK_RECORD
5
55
330
1
100
AcDbSymbolTableRecord
100
AcDbBlockTableRecord
2
*D25
70
0
280
1
281
0
0
BLOCK_RECORD
5
58
330
1
100
AcDbSymbolTableRecord
100
AcDbBlockTableRecord
2
*D11
70
0
280
1
281
0
0
BLOCK_RECORD
5
5B
330
1
100
AcDbSymbolTableRecord
100
AcDbBlockTableRecord
2
*D15
70
0
280
1
281
0
0
BLOCK_RECORD
5
5E
330
1
100
AcDbSymbolTableRecord
100
AcDbBlockTableRecord
2
*D1
70
0
280
1
281
0
0
BLOCK_RECORD
5
61
330
1
100
AcDbSymbolTableRecord
100
AcDbBlockTableRecord
2
*D9
70
0
280
1
281
0
0
BLOCK_RECORD
5
64
330
1
100
AcDbSymbolTableRecord
100
AcDbBlockTableRecord
2
*D2
70
0
280
1
281
0
0
BLOCK_RECORD
5
67
330
1
100
AcDbSymbolTableRecord
100
AcDbBlockTableRecord
2
*D13
70
0
280
1
281
0
0
BLOCK_RECORD
5
6A
330
1
100
AcDbSymbolTableRecord
100
AcDbBlockTableRecord
2
*D4
70
0
280
1
281
0
0
BLOCK_RECORD
5
6D
330
1
100
AcDbSymbolTableRecord
100
AcDbBlockTableRecord
2
*D16
70
0
280
1
281
0
0
BLOCK_RECORD
5
70
330
1
100
AcDbSymbolTableRecord
100
AcDbBlockTableRecord
2
*D17
70
0
280
1
281
0
0
BLOCK_RECORD
5
73
330
1
100
AcDbSymbolTableRecord
100
AcDbBlockTableRecord
2
*D22
70
0
280
1
281
0
0
BLOCK_RECORD
5
76
330
1
100
AcDbSymbolTableRecord
100
AcDbBlockTableRecord
2
*D8
70
0
280
1
281
0
0
BLOCK_RECORD
5
79
330
1
100
AcDbSymbolTableRecord
100
AcDbBlockTableRecord
2
*D19
70
0
280
1
281
0
0
BLOCK_RECORD
5
7C
330
1
100
AcDbSymbolTableRecord
100
AcDbBlockTableRecord
2
*D23
70
0
280
1
281
0
0
BLOCK_RECORD
5
7F
330
1
100
AcDbSymbolTableRecord
100
AcDbBlockTableRecord
2
*D5
70
0
280
1
281
0
0
BLOCK_RECORD
5
82
330
1
100
AcDbSymbolTableRecord
100
AcDbBlockTableRecord
2
*D14
70
0
280
1
281
0
0
BLOCK_RECORD
5
85
330
1
100
AcDbSymbolTableRecord
100
AcDbBlockTableRecord
2
*D21
70
0
280
1
281
0
0
BLOCK_RECORD
5
88
330
1
100
AcDbSymbolTableRecord
100
AcDbBlockTableRecord
2
*D20
70
0
280
1
281
0
0
BLOCK_RECORD
5
8B
330
1
100
AcDbSymbolTableRecord
100
AcDbBlockTableRecord
2
*D12
70
0
280
1
281
0
0
BLOCK_RECORD
5
8E
330
1
100
AcDbSymbolTableRecord
100
AcDbBlockTableRecord
2
*D7
70
0
280
1
281
0
0
BLOCK_RECORD
5
91
330
1
100
AcDbSymbolTableRecord
100
AcDbBlockTableRecord
2
*D18
70
0
280
1
281
0
0
BLOCK_RECORD
5
94
330
1
100
AcDbSymbolTableRecord
100
AcDbBlockTableRecord
2
*D10
70
0
280
1
281
0
0
ENDTAB
0
ENDSEC
0
SECTION
2
BLOCKS
0
BLOCK
5
20
330
1F
100
AcDbEntity
8
0
100
AcDbBlockBegin
2
*Model_Space
70
0
10
0
20
0
30
0
3
*Model_Space
1

0
ENDBLK
5
21
330
1F
100
AcDbEntity
8
0
100
AcDbBlockEnd
0
BLOCK
5
1C
330
1B
100
AcDbEntity
8
0
100
AcDbBlockBegin
2
*Paper_Space
70
0
10
0
20
0
30
0
3
*Paper_Space
1

0
ENDBLK
5
1D
330
1F
100
AcDbEntity
8
0
100
AcDbBlockEnd
0
BLOCK
5
4D
330
4C
100
AcDbEntity
8
0
100
AcDbBlockBegin
2
*D6
70
1
10
0
20
0
3
*D6
1

0
LINE
5
97
100
AcDbEntity
8
sizes
6
CONTINUOUS
62
7
370
0
100
AcDbLine
10
120.100779183
20
-25.8578643763
11
120.100779183
21
-34.3431457505
0
SOLID
5
98
100
AcDbEntity
8
sizes
6
CONTINUOUS
62
7
370
0
100
AcDbTrace
10
120.100779183
20
-25.8578643763
30
0
11
120.517063841
21
-28.3578643763
31
0
12
119.684494525
22
-28.3578643763
32
0
13
119.684494525
23
-28.3578643763
33
0
0
SOLID
5
99
100
AcDbEntity
8
sizes
6
CONTINUOUS
62
7
370
0
100
AcDbTrace
10
120.100779183
20
-34.3431457505
30
0
11
119.684494525
21
-31.8431457505
31
0
12
120.517063841
22
-31.8431457505
32
0
13
120.517063841
23
-31.8431457505
33
0
0
MTEXT
5
9A
100
AcDbEntity
8
sizes
6
CONTINUOUS
62
7
370
0
100
AcDbMText
10
118.225779183
20
-20.2328643763
30
0
40
2.5
41
10
71
5
72
1
1
8.4853
7
standard
210
0
220
0
230
1
50
90
73
2
44
1
0
LINE
5
9B
100
AcDbEntity
8
sizes
6
CONTINUOUS
62
7
370
0
100
AcDbLine
10
135.232864376
20
-25.8578643763
11
118.850779183
21
-25.8578643763
0
LINE
5
9C
100
AcDbEntity
8
sizes
6
CONTINUOUS
62
7
370
0
100
AcDbLine
10
143.718145751
20
-34.3431457505
11
118.850779183
21
-34.3431457505
0
ENDBLK
5
4E
330
4C
100
AcDbEntity
8
0
100
AcDbBlockEnd
0
BLOCK
5
50
330
4F
100
AcDbEntity
8
0
100
AcDbBlockBegin
2
*D24
70
1
10
0
20
0
3
*D24
1

0
LINE
5
9D
100
AcDbEntity
8
centers from centerline
6
CONTINUOUS
62
7
370
0
100
AcDbLine
10
142.857008755
20
87.328669686
11
142.857008755
21
-30.1005050634
0
SOLID
5
9E
100
AcDbEntity
8
centers from centerline
6
CONTINUOUS
62
7
370
0
100
AcDbTrace
10
142.857008755
20
87.328669686
30
0
11
143.273293412
21
84.828669686
31
0
12
142.440724097
22
84.828669686
32
0
13
142.440724097
23
84.828669686
33
0
0
SOLID
5
9F
100
AcDbEntity
8
centers from centerline
6
CONTINUOUS
62
7
370
0
100
AcDbTrace
10
142.857008755
20
-30.1005050634
30
0
11
142.440724097
21
-27.6005050634
31
0
12
143.273293412
22
-27.6005050634
32
0
13
143.273293412
23
-27.6005050634
33
0
0
MTEXT
5
A0
100
AcDbEntity
8
centers from centerline
6
CONTINUOUS
62
7
370
0
100
AcDbMText
10
140.982008755
20
28.6140823113
30
0
40
2.5
41
12.7777777778
71
5
72
1
1
117.4292
7
standard
210
0
220
0
230
1
50
90
73
2
44
1
0
LINE
5
A1
100
AcDbEntity
8
centers from centerline
6
CONTINUOUS
62
7
370
0
100
AcDbLine
10
149.375
20
87.328669686
11
141.607008755
21
87.328669686
0
LINE
5
A2
100
AcDbEntity
8
centers from centerline
6
CONTINUOUS
62
7
370
0
100
AcDbLine
10
145.132359313
20
-30.1005050634
11
141.607008755
21
-30.1005050634
0
ENDBLK
5
51
330
4F
100
AcDbEntity
8
0
100
AcDbBlockEnd
0
BLOCK
5
53
330
52
100
AcDbEntity
8
0
100
AcDbBlockBegin
2
*D3
70
1
10
0
20
0
3
*D3
1

0
LINE
5
A3
100
AcDbEntity
8
sizes
6
CONTINUOUS
62
7
370
0
100
AcDbLine
10
-53.5933584526
20
116
11
-53.5933584526
21
105
0
SOLID
5
A4
100
AcDbEntity
8
sizes
6
CONTINUOUS
62
7
370
0
100
AcDbTrace
10
-53.5933584526
20
111
30
0
11
-54.0096431104
21
113.5
31
0
12
-53.1770737948
22
113.5
32
0
13
-53.1770737948
23
113.5
33
0
0
SOLID
5
A5
100
AcDbEntity
8
sizes
6
CONTINUOUS
62
7
370
0
100
AcDbTrace
10
-53.5933584526
20
110
30
0
11
-53.1770737948
21
107.5
31
0
12
-54.0096431104
22
107.5
32
0
13
-54.0096431104
23
107.5
33
0
0
MTEXT
5
A6
100
AcDbEntity
8
sizes
6
CONTINUOUS
62
7
370
0
100
AcDbMText
10
-55.4683584526
20
110.5
30
0
40
2.5
41
0.555555555556
71
5
72
1
1
1
7
standard
210
0
220
0
230
1
50
90
73
2
44
1
0
LINE
5
A7
100
AcDbEntity
8
sizes
6
CONTINUOUS
62
7
370
0
100
AcDbLine
10
-0.625
20
111
11
-54.8433584526
21
111
0
LINE
5
A8
100
AcDbEntity
8
sizes
6
CONTINUOUS
62
7
370
0
100
AcDbLine
10
3.375
20
110
11
-54.8433584526
21
110
0
ENDBLK
5
54
330
52
100
AcDbEntity
8
0
100
AcDbBlockEnd
0
BLOCK
5
56
330
55
100
AcDbEntity
8
0
100
AcDbBlockBegin
2
*D25
70
1
10
0
20
0
3
*D25
1

0
LINE
5
A9
100
AcDbEntity
8
centers from centerline
6
CONTINUOUS
62
7
370
0
100
AcDbLine
10
362.243279528
20
87.328669686
11
362.243279528
21
-40
0
SOLID
5
AA
100
AcDbEntity
8
centers from centerline
6
CONTINUOUS
62
7
370
0
100
AcDbTrace
10
362.243279528
20
87.328669686
30
0
11
362.659564186
21
84.828669686
31
0
12
361.82699487
22
84.828669686
32
0
13
361.82699487
23
84.828669686
33
0
0
SOLID
5
AB
100
AcDbEntity
8
centers from centerline
6
CONTINUOUS
62
7
370
0
100
AcDbTrace
10
362.243279528
20
-40
30
0
11
361.82699487
21
-37.5
31
0
12
362.659564186
22
-37.5
32
0
13
362.659564186
23
-37.5
33
0
0
MTEXT
5
AC
100
AcDbEntity
8
centers from centerline
6
CONTINUOUS
62
7
370
0
100
AcDbMText
10
360.368279528
20
23.664334843
30
0
40
2.5
41
13.0555555556
71
5
72
1
1
127.3287
7
standard
210
0
220
0
230
1
50
90
73
2
44
1
0
LINE
5
AD
100
AcDbEntity
8
centers from centerline
6
CONTINUOUS
62
7
370
0
100
AcDbLine
10
350.625
20
87.328669686
11
363.493279528
21
87.328669686
0
LINE
5
AE
100
AcDbEntity
8
centers from centerline
6
CONTINUOUS
62
7
370
0
100
AcDbLine
10
350.625
20
-40
11
363.493279528
21
-40
0
ENDBLK
5
57
330
55
100
AcDbEntity
8
0
100
AcDbBlockEnd
0
BLOCK
5
59
330
58
100
AcDbEntity
8
0
100
AcDbBlockBegin
2
*D11
70
1
10
0
20
0
3
*D11
1

0
LINE
5
AF
100
AcDbEntity
8
sizes
6
CONTINUOUS
62
7
370
0
100
AcDbLine
10
143.585786438
20
-52.6248037818
11
155
21
-52.6248037818
0
SOLID
5
B0
100
AcDbEntity
8
sizes
6
CONTINUOUS
62
7
370
0
100
AcDbTrace
10
148.585786438
20
-52.6248037818
30
0
11
146.085786438
21
-53.0410884395
31
0
12
146.085786438
22
-52.208519124
32
0
13
146.085786438
23
-52.208519124
33
0
0
SOLID
5
B1
100
AcDbEntity
8
sizes
6
CONTINUOUS
62
7
370
0
100
AcDbTrace
10
150
20
-52.6248037818
30
0
11
152.5
21
-52.208519124
31
0
12
152.5
22
-53.0410884395
32
0
13
152.5
23
-53.0410884395
33
0
0
MTEXT
5
B2
100
AcDbEntity
8
sizes
6
CONTINUOUS
62
7
370
0
100
AcDbMText
10
155.208333333
20
-50.7498037818
30
0
40
2.5
41
9.16666666667
71
5
72
1
1
1.4142
7
standard
210
0
220
0
230
1
50
0
73
2
44
1
0
LINE
5
B3
100
AcDbEntity
8
sizes
6
CONTINUOUS
62
7
370
0
100
AcDbLine
10
148.585786438
20
-40.625
11
148.585786438
21
-53.8748037818
0
LINE
5
B4
100
AcDbEntity
8
sizes
6
CONTINUOUS
62
7
370
0
100
AcDbLine
10
150
20
-40.625
11
150
21
-53.8748037818
0
ENDBLK
5
5A
330
58
100
AcDbEntity
8
0
100
AcDbBlockEnd
0
BLOCK
5
5C
330
5B
100
AcDbEntity
8
0
100
AcDbBlockBegin
2
*D15
70
1
10
0
20
0
3
*D15
1

0
LINE
5
B5
100
AcDbEntity
8
centers from base
6
CONTINUOUS
62
7
370
0
100
AcDbLine
10
5.24633780033
20
-40
11
5.24633780033
21
34.6464466094
0
SOLID
5
B6
100
AcDbEntity
8
centers from base
6
CONTINUOUS
62
7
370
0
100
AcDbTrace
10
5.24633780033
20
-40
30
0
11
4.83005314256
21
-37.5
31
0
12
5.6626224581
22
-37.5
32
0
13
5.6626224581
23
-37.5
33
0
0
SOLID
5
B7
100
AcDbEntity
8
centers from base
6
CONTINUOUS
62
7
370
0
100
AcDbTrace
10
5.24633780033
20
34.6464466094
30
0
11
5.6626224581
21
32.1464466094
31
0
12
4.83005314256
22
32.1464466094
32
0
13
4.83005314256
23
32.1464466094
33
0
0
MTEXT
5
B8
100
AcDbEntity
8
centers from base
6
CONTINUOUS
62
7
370
0
100
AcDbMText
10
3.37133780033
20
-2.6767766953
30
0
40
2.5
41
12.5
71
5
72
1
1
74.6464
7
standard
210
0
220
0
230
1
50
90
73
2
44
1
0
LINE
5
B9
100
AcDbEntity
8
centers from base
6
CONTINUOUS
62
7
370
0
100
AcDbLine
10
150.082106781
20
-40
11
3.99633780033
21
-40
0
LINE
5
BA
100
AcDbEntity
8
centers from base
6
CONTINUOUS
62
7
370
0
100
AcDbLine
10
73.3143398282
20
34.6464466094
11
3.99633780033
21
34.6464466094
0
ENDBLK
5
5D
330
5B
100
AcDbEntity
8
0
100
AcDbBlockEnd
0
BLOCK
5
5F
330
5E
100
AcDbEntity
8
0
100
AcDbBlockBegin
2
*D1
70
1
10
0
20
0
3
*D1
1

0
LINE
5
BB
100
AcDbEntity
8
sizes
6
CONTINUOUS
62
7
370
0
100
AcDbLine
10
0
20
118.163669841
11
300
21
118.163669841
0
SOLID
5
BC
100
AcDbEntity
8
sizes
6
CONTINUOUS
62
7
370
0
100
AcDbTrace
10
0
20
118.163669841
30
0
11
2.5
21
118.579954499
31
0
12
2.5
22
117.747385184
32
0
13
2.5
23
117.747385184
33
0
0
SOLID
5
BD
100
AcDbEntity
8
sizes
6
CONTINUOUS
62
7
370
0
100
AcDbTrace
10
300
20
118.163669841
30
0
11
297.5
21
117.747385184
31
0
12
297.5
22
118.579954499
32
0
13
297.5
23
118.579954499
33
0
0
MTEXT
5
BE
100
AcDbEntity
8
sizes
6
CONTINUOUS
62
7
370
0
100
AcDbMText
10
150
20
120.038669841
30
0
40
2.5
41
5
71
5
72
1
1
300
7
standard
210
0
220
0
230
1
50
0
73
2
44
1
0
LINE
5
BF
100
AcDbEntity
8
sizes
6
CONTINUOUS
62
7
370
0
100
AcDbLine
10
9.95025524307e-17
20
111.625
11
7.65404249467e-17
21
119.413669841
0
LINE
5
C0
100
AcDbEntity
8
sizes
6
CONTINUOUS
62
7
370
0
100
AcDbLine
10
300
20
111.625
11
300
21
119.413669841
0
ENDBLK
5
60
330
5E
100
AcDbEntity
8
0
100
AcDbBlockEnd
0
BLOCK
5
62
330
61
100
AcDbEntity
8
0
100
AcDbBlockBegin
2
*D9
70
1
10
0
20
0
3
*D9
1

0
LINE
5
C1
100
AcDbEntity
8
sizes
6
CONTINUOUS
62
7
370
0
100
AcDbLine
10
4
20
113.643748044
11
20
21
113.643748044
0
SOLID
5
C2
100
AcDbEntity
8
sizes
6
CONTINUOUS
62
7
370
0
100
AcDbTrace
10
4
20
113.643748044
30
0
11
6.5
21
114.060032702
31
0
12
6.5
22
113.227463386
32
0
13
6.5
23
113.227463386
33
0
0
SOLID
5
C3
100
AcDbEntity
8
sizes
6
CONTINUOUS
62
7
370
0
100
AcDbTrace
10
20
20
113.643748044
30
0
11
17.5
21
113.227463386
31
0
12
17.5
22
114.060032702
32
0
13
17.5
23
114.060032702
33
0
0
MTEXT
5
C4
100
AcDbEntity
8
sizes
6
CONTINUOUS
62
7
370
0
100
AcDbMText
10
12
20
115.518748044
30
0
40
2.5
41
2.5
71
5
72
1
1
16
7
standard
210
0
220
0
230
1
50
0
73
2
44
1
0
LINE
5
C5
100
AcDbEntity
8
sizes
6
CONTINUOUS
62
7
370
0
100
AcDbLine
10
4
20
110.625
11
4
21
114.893748044
0
LINE
5
C6
100
AcDbEntity
8
sizes
6
CONTINUOUS
62
7
370
0
100
AcDbLine
10
20
20
110.625
11
20
21
114.893748044
0
ENDBLK
5
63
330
61
100
AcDbEntity
8
0
100
AcDbBlockEnd
0
BLOCK
5
65
330
64
100
AcDbEntity
8
0
100
AcDbBlockBegin
2
*D2
70
1
10
0
20
0
3
*D2
1

0
LINE
5
C7
100
AcDbEntity
8
sizes
6
CONTINUOUS
62
7
370
0
100
AcDbLine
10
59.7275380345
20
109.292893219
11
59.7275380345
21
-40
0
SOLID
5
C8
100
AcDbEntity
8
sizes
6
CONTINUOUS
62
7
370
0
100
AcDbTrace
10
59.7275380345
20
109.292893219
30
0
11
60.1438226923
21
106.792893219
31
0
12
59.3112533768
22
106.792893219
32
0
13
59.3112533768
23
106.792893219
33
0
0
SOLID
5
C9
100
AcDbEntity
8
sizes
6
CONTINUOUS
62
7
370
0
100
AcDbTrace
10
59.7275380345
20
-40
30
0
11
59.3112533768
21
-37.5
31
0
12
60.1438226923
22
-37.5
32
0
13
60.1438226923
23
-37.5
33
0
0
MTEXT
5
CA
100
AcDbEntity
8
sizes
6
CONTINUOUS
62
7
370
0
100
AcDbMText
10
57.8525380345
20
34.6464466094
30
0
40
2.5
41
13.3333333333
71
5
72
1
1
149.2929
7
standard
210
0
220
0
230
1
50
90
73
2
44
1
0
LINE
5
CB
100
AcDbEntity
8
sizes
6
CONTINUOUS
62
7
370
0
100
AcDbLine
10
-0.0821067811866
20
109.292893219
11
60.9775380345
21
109.292893219
0
LINE
5
CC
100
AcDbEntity
8
sizes
6
CONTINUOUS
62
7
370
0
100
AcDbLine
10
149.210786438
20
-40
11
60.9775380345
21
-40
0
ENDBLK
5
66
330
64
100
AcDbEntity
8
0
100
AcDbBlockEnd
0
BLOCK
5
68
330
67
100
AcDbEntity
8
0
100
AcDbBlockBegin
2
*D13
70
1
10
0
20
0
3
*D13
1

0
LINE
5
CD
100
AcDbEntity
8
centers from base
6
CONTINUOUS
62
7
370
0
100
AcDbLine
10
-12.5104978316
20
-40
11
-12.5104978316
21
108
0
SOLID
5
CE
100
AcDbEntity
8
centers from base
6
CONTINUOUS
62
7
370
0
100
AcDbTrace
10
-12.5104978316
20
-40
30
0
11
-12.9267824893
21
-37.5
31
0
12
-12.0942131738
22
-37.5
32
0
13
-12.0942131738
23
-37.5
33
0
0
SOLID
5
CF
100
AcDbEntity
8
centers from base
6
CONTINUOUS
62
7
370
0
100
AcDbTrace
10
-12.5104978316
20
108
30
0
11
-12.0942131738
21
105.5
31
0
12
-12.9267824893
22
105.5
32
0
13
-12.9267824893
23
105.5
33
0
0
MTEXT
5
D0
100
AcDbEntity
8
centers from base
6
CONTINUOUS
62
7
370
0
100
AcDbMText
10
-14.3854978316
20
34
30
0
40
2.5
41
4.72222222222
71
5
72
1
1
148
7
standard
210
0
220
0
230
1
50
90
73
2
44
1
0
LINE
5
D1
100
AcDbEntity
8
centers from base
6
CONTINUOUS
62
7
370
0
100
AcDbLine
10
150.082106781
20
-40
11
-13.7604978316
21
-40
0
LINE
5
D2
100
AcDbEntity
8
centers from base
6
CONTINUOUS
62
7
370
0
100
AcDbLine
10
19.375
20
108
11
-13.7604978316
21
108
0
ENDBLK
5
69
330
67
100
AcDbEntity
8
0
100
AcDbBlockEnd
0
BLOCK
5
6B
330
6A
100
AcDbEntity
8
0
100
AcDbBlockBegin
2
*D4
70
1
10
0
20
0
3
*D4
1

0
LINE
5
D3
100
AcDbEntity
8
sizes
6
CONTINUOUS
62
7
370
0
100
AcDbLine
10
-42.9392570735
20
115
11
-42.9392570735
21
101
0
SOLID
5
D4
100
AcDbEntity
8
sizes
6
CONTINUOUS
62
7
370
0
100
AcDbTrace
10
-42.9392570735
20
110
30
0
11
-43.3555417312
21
112.5
31
0
12
-42.5229724157
22
112.5
32
0
13
-42.5229724157
23
112.5
33
0
0
SOLID
5
D5
100
AcDbEntity
8
sizes
6
CONTINUOUS
62
7
370
0
100
AcDbTrace
10
-42.9392570735
20
106
30
0
11
-42.5229724157
21
103.5
31
0
12
-43.3555417312
22
103.5
32
0
13
-43.3555417312
23
103.5
33
0
0
MTEXT
5
D6
100
AcDbEntity
8
sizes
6
CONTINUOUS
62
7
370
0
100
AcDbMText
10
-44.8142570735
20
108
30
0
40
2.5
41
1.38888888889
71
5
72
1
1
4
7
standard
210
0
220
0
230
1
50
90
73
2
44
1
0
LINE
5
D7
100
AcDbEntity
8
sizes
6
CONTINUOUS
62
7
370
0
100
AcDbLine
10
3.375
20
110
11
-44.1892570735
21
110
0
LINE
5
D8
100
AcDbEntity
8
sizes
6
CONTINUOUS
62
7
370
0
100
AcDbLine
10
3.375
20
106
11
-44.1892570735
21
106
0
ENDBLK
5
6C
330
6A
100
AcDbEntity
8
0
100
AcDbBlockEnd
0
BLOCK
5
6E
330
6D
100
AcDbEntity
8
0
100
AcDbBlockBegin
2
*D16
70
1
10
0
20
0
3
*D16
1

0
LINE
5
D9
100
AcDbEntity
8
centers from base
6
CONTINUOUS
62
7
370
0
100
AcDbLine
10
79.5021958973
20
-40
11
79.5021958973
21
-30.1005050634
0
SOLID
5
DA
100
AcDbEntity
8
centers from base
6
CONTINUOUS
62
7
370
0
100
AcDbTrace
10
79.5021958973
20
-40
30
0
11
79.0859112395
21
-37.5
31
0
12
79.9184805551
22
-37.5
32
0
13
79.9184805551
23
-37.5
33
0
0
SOLID
5
DB
100
AcDbEntity
8
centers from base
6
CONTINUOUS
62
7
370
0
100
AcDbTrace
10
79.5021958973
20
-30.1005050634
30
0
11
79.9184805551
21
-32.6005050634
31
0
12
79.0859112395
22
-32.6005050634
32
0
13
79.0859112395
23
-32.6005050634
33
0
0
MTEXT
5
DC
100
AcDbEntity
8
centers from base
6
CONTINUOUS
62
7
370
0
100
AcDbMText
10
77.6271958973
20
-35.0502525317
30
0
40
2.5
41
9.72222222222
71
5
72
1
1
9.8995
7
standard
210
0
220
0
230
1
50
90
73
2
44
1
0
LINE
5
DD
100
AcDbEntity
8
centers from base
6
CONTINUOUS
62
7
370
0
100
AcDbLine
10
148.667893219
20
-40
11
78.2521958973
21
-40
0
LINE
5
DE
100
AcDbEntity
8
centers from base
6
CONTINUOUS
62
7
370
0
100
AcDbLine
10
139.475505063
20
-30.1005050634
11
78.2521958973
21
-30.1005050634
0
ENDBLK
5
6F
330
6D
100
AcDbEntity
8
0
100
AcDbBlockEnd
0
BLOCK
5
71
330
70
100
AcDbEntity
8
0
100
AcDbBlockBegin
2
*D17
70
1
10
0
20
0
3
*D17
1

0
LINE
5
DF
100
AcDbEntity
8
centers from base
6
CONTINUOUS
62
7
370
0
100
AcDbLine
10
193.334876673
20
-40
11
193.334876673
21
-31.5147186258
0
SOLID
5
E0
100
AcDbEntity
8
centers from base
6
CONTINUOUS
62
7
370
0
100
AcDbTrace
10
193.334876673
20
-40
30
0
11
192.918592015
21
-37.5
31
0
12
193.75116133
22
-37.5
32
0
13
193.75116133
23
-37.5
33
0
0
SOLID
5
E1
100
AcDbEntity
8
centers from base
6
CONTINUOUS
62
7
370
0
100
AcDbTrace
10
193.334876673
20
-31.5147186258
30
0
11
193.75116133
21
-34.0147186258
31
0
12
192.918592015
22
-34.0147186258
32
0
13
192.918592015
23
-34.0147186258
33
0
0
MTEXT
5
E2
100
AcDbEntity
8
centers from base
6
CONTINUOUS
62
7
370
0
100
AcDbMText
10
191.459876673
20
-25.8897186258
30
0
40
2.5
41
10
71
5
72
1
1
8.4853
7
standard
210
0
220
0
230
1
50
90
73
2
44
1
0
LINE
5
E3
100
AcDbEntity
8
centers from base
6
CONTINUOUS
62
7
370
0
100
AcDbLine
10
149.917893219
20
-40
11
194.584876673
21
-40
0
LINE
5
E4
100
AcDbEntity
8
centers from base
6
CONTINUOUS
62
7
370
0
100
AcDbLine
10
159.110281374
20
-31.5147186258
11
194.584876673
21
-31.5147186258
0
ENDBLK
5
72
330
70
100
AcDbEntity
8
0
100
AcDbBlockEnd
0
BLOCK
5
74
330
73
100
AcDbEntity
8
0
100
AcDbBlockBegin
2
*D22
70
1
10
0
20
0
3
*D22
1

0
LINE
5
E5
100
AcDbEntity
8
centers from centerline
6
CONTINUOUS
62
7
370
0
100
AcDbLine
10
206.59321266
20
87.328669686
11
206.59321266
21
34.6464466094
0
SOLID
5
E6
100
AcDbEntity
8
centers from centerline
6
CONTINUOUS
62
7
370
0
100
AcDbTrace
10
206.59321266
20
87.328669686
30
0
11
207.009497318
21
84.828669686
31
0
12
206.176928003
22
84.828669686
32
0
13
206.176928003
23
84.828669686
33
0
0
SOLID
5
E7
100
AcDbEntity
8
centers from centerline
6
CONTINUOUS
62
7
370
0
100
AcDbTrace
10
206.59321266
20
34.6464466094
30
0
11
206.176928003
21
37.1464466094
31
0
12
207.009497318
22
37.1464466094
32
0
13
207.009497318
23
37.1464466094
33
0
0
MTEXT
5
E8
100
AcDbEntity
8
centers from centerline
6
CONTINUOUS
62
7
370
0
100
AcDbMText
10
204.71821266
20
60.9875581477
30
0
40
2.5
41
11.6666666667
71
5
72
1
1
52.6822
7
standard
210
0
220
0
230
1
50
90
73
2
44
1
0
LINE
5
E9
100
AcDbEntity
8
centers from centerline
6
CONTINUOUS
62
7
370
0
100
AcDbLine
10
150.625
20
87.328669686
11
207.84321266
21
87.328669686
0
LINE
5
EA
100
AcDbEntity
8
centers from centerline
6
CONTINUOUS
62
7
370
0
100
AcDbLine
10
225.271446609
20
34.6464466094
11
207.84321266
21
34.6464466094
0
ENDBLK
5
75
330
73
100
AcDbEntity
8
0
100
AcDbBlockEnd
0
BLOCK
5
77
330
76
100
AcDbEntity
8
0
100
AcDbBlockBegin
2
*D8
70
1
10
0
20
0
3
*D8
1

0
LINE
5
EB
100
AcDbEntity
8
sizes
6
CONTINUOUS
62
7
370
0
100
AcDbLine
10
312.197455564
20
98.686291501
11
312.197455564
21
106
0
SOLID
5
EC
100
AcDbEntity
8
sizes
6
CONTINUOUS
62
7
370
0
100
AcDbTrace
10
312.197455564
20
98.686291501
30
0
11
311.781170907
21
101.186291501
31
0
12
312.613740222
22
101.186291501
32
0
13
312.613740222
23
101.186291501
33
0
0
SOLID
5
ED
100
AcDbEntity
8
sizes
6
CONTINUOUS
62
7
370
0
100
AcDbTrace
10
312.197455564
20
106
30
0
11
312.613740222
21
103.5
31
0
12
311.781170907
22
103.5
32
0
13
311.781170907
23
103.5
33
0
0
MTEXT
5
EE
100
AcDbEntity
8
sizes
6
CONTINUOUS
62
7
370
0
100
AcDbMText
10
310.322455564
20
111.208333333
30
0
40
2.5
41
9.16666666667
71
5
72
1
1
7.3137
7
standard
210
0
220
0
230
1
50
90
73
2
44
1
0
LINE
5
EF
100
AcDbEntity
8
sizes
6
CONTINUOUS
62
7
370
0
100
AcDbLine
10
289.311291501
20
98.686291501
11
313.447455564
21
98.686291501
0
LINE
5
F0
100
AcDbEntity
8
sizes
6
CONTINUOUS
62
7
370
0
100
AcDbLine
10
296.625
20
106
11
313.447455564
21
106
0
ENDBLK
5
78
330
76
100
AcDbEntity
8
0
100
AcDbBlockEnd
0
BLOCK
5
7A
330
79
100
AcDbEntity
8
0
100
AcDbBlockBegin
2
*D19
70
1
10
0
20
0
3
*D19
1

0
LINE
5
F1
100
AcDbEntity
8
centers from centerline
6
CONTINUOUS
62
7
370
0
100
AcDbLine
10
178.571260943
20
87.328669686
11
178.571260943
21
108
0
SOLID
5
F2
100
AcDbEntity
8
centers from centerline
6
CONTINUOUS
62
7
370
0
100
AcDbTrace
10
178.571260943
20
87.328669686
30
0
11
178.154976285
21
89.828669686
31
0
12
178.987545601
22
89.828669686
32
0
13
178.987545601
23
89.828669686
33
0
0
SOLID
5
F3
100
AcDbEntity
8
centers from centerline
6
CONTINUOUS
62
7
370
0
100
AcDbTrace
10
178.571260943
20
108
30
0
11
178.987545601
21
105.5
31
0
12
178.154976285
22
105.5
32
0
13
178.154976285
23
105.5
33
0
0
MTEXT
5
F4
100
AcDbEntity
8
centers from centerline
6
CONTINUOUS
62
7
370
0
100
AcDbMText
10
176.696260943
20
97.664334843
30
0
40
2.5
41
11.1111111111
71
5
72
1
1
20.6713
7
standard
210
0
220
0
230
1
50
90
73
2
44
1
0
LINE
5
F5
100
AcDbEntity
8
centers from centerline
6
CONTINUOUS
62
7
370
0
100
AcDbLine
10
150.625
20
87.328669686
11
179.821260943
21
87.328669686
0
LINE
5
F6
100
AcDbEntity
8
centers from centerline
6
CONTINUOUS
62
7
370
0
100
AcDbLine
10
280.625
20
108
11
179.821260943
21
108
0
ENDBLK
5
7B
330
79
100
AcDbEntity
8
0
100
AcDbBlockEnd
0
BLOCK
5
7D
330
7C
100
AcDbEntity
8
0
100
AcDbBlockBegin
2
*D23
70
1
10
0
20
0
3
*D23
1

0
LINE
5
F7
100
AcDbEntity
8
centers from centerline
6
CONTINUOUS
62
7
370
0
100
AcDbLine
10
155.494359529
20
87.328669686
11
155.494359529
21
-31.5147186258
0
SOLID
5
F8
100
AcDbEntity
8
centers from centerline
6
CONTINUOUS
62
7
370
0
100
AcDbTrace
10
155.494359529
20
87.328669686
30
0
11
155.910644187
21
84.828669686
31
0
12
155.078074871
22
84.828669686
32
0
13
155.078074871
23
84.828669686
33
0
0
SOLID
5
F9
100
AcDbEntity
8
centers from centerline
6
CONTINUOUS
62
7
370
0
100
AcDbTrace
10
155.494359529
20
-31.5147186258
30
0
11
155.078074871
21
-29.0147186258
31
0
12
155.910644187
22
-29.0147186258
32
0
13
155.910644187
23
-29.0147186258
33
0
0
MTEXT
5
FA
100
AcDbEntity
8
centers from centerline
6
CONTINUOUS
62
7
370
0
100
AcDbMText
10
153.619359529
20
27.9069755301
30
0
40
2.5
41
13.0555555556
71
5
72
1
1
118.8434
7
standard
210
0
220
0
230
1
50
90
73
2
44
1
0
LINE
5
FB
100
AcDbEntity
8
centers from centerline
6
CONTINUOUS
62
7
370
0
100
AcDbLine
10
150.625
20
87.328669686
11
156.744359529
21
87.328669686
0
LINE
5
FC
100
AcDbEntity
8
centers from centerline
6
CONTINUOUS
62
7
370
0
100
AcDbLine
10
153.453427125
20
-31.5147186258
11
156.744359529
21
-31.5147186258
0
ENDBLK
5
7E
330
7C
100
AcDbEntity
8
0
100
AcDbBlockEnd
0
BLOCK
5
80
330
7F
100
AcDbEntity
8
0
100
AcDbBlockBegin
2
*D5
70
1
10
0
20
0
3
*D5
1

0
LINE
5
FD
100
AcDbEntity
8
sizes
6
CONTINUOUS
62
7
370
0
100
AcDbLine
10
-36.1593743777
20
106
11
-36.1593743777
21
98.686291501
0
SOLID
5
FE
100
AcDbEntity
8
sizes
6
CONTINUOUS
62
7
370
0
100
AcDbTrace
10
-36.1593743777
20
106
30
0
11
-35.7430897199
21
103.5
31
0
12
-36.5756590354
22
103.5
32
0
13
-36.5756590354
23
103.5
33
0
0
SOLID
5
FF
100
AcDbEntity
8
sizes
6
CONTINUOUS
62
7
370
0
100
AcDbTrace
10
-36.1593743777
20
98.686291501
30
0
11
-36.5756590354
21
101.186291501
31
0
12
-35.7430897199
22
101.186291501
32
0
13
-35.7430897199
23
101.186291501
33
0
0
MTEXT
5
100
100
AcDbEntity
8
sizes
6
CONTINUOUS
62
7
370
0
100
AcDbMText
10
-38.0343743777
20
111.208333333
30
0
40
2.5
41
9.16666666667
71
5
72
1
1
7.3137
7
standard
210
0
220
0
230
1
50
90
73
2
44
1
0
LINE
5
101
100
AcDbEntity
8
sizes
6
CONTINUOUS
62
7
370
0
100
AcDbLine
10
3.375
20
106
11
-37.4093743777
21
106
0
LINE
5
102
100
AcDbEntity
8
sizes
6
CONTINUOUS
62
7
370
0
100
AcDbLine
10
10.688708499
20
98.686291501
11
-37.4093743777
21
98.686291501
0
ENDBLK
5
81
330
7F
100
AcDbEntity
8
0
100
AcDbBlockEnd
0
BLOCK
5
83
330
82
100
AcDbEntity
8
0
100
AcDbBlockBegin
2
*D14
70
1
10
0
20
0
3
*D14
1

0
LINE
5
103
100
AcDbEntity
8
centers from base
6
CONTINUOUS
62
7
370
0
100
AcDbLine
10
-4.03564446179
20
-40
11
-4.03564446179
21
102.343145751
0
SOLID
5
104
100
AcDbEntity
8
centers from base
6
CONTINUOUS
62
7
370
0
100
AcDbTrace
10
-4.03564446179
20
-40
30
0
11
-4.45192911957
21
-37.5
31
0
12
-3.61935980402
22
-37.5
32
0
13
-3.61935980402
23
-37.5
33
0
0
SOLID
5
105
100
AcDbEntity
8
centers from base
6
CONTINUOUS
62
7
370
0
100
AcDbTrace
10
-4.03564446179
20
102.343145751
30
0
11
-3.61935980402
21
99.8431457505
31
0
12
-4.45192911957
22
99.8431457505
32
0
13
-4.45192911957
23
99.8431457505
33
0
0
MTEXT
5
106
100
AcDbEntity
8
centers from base
6
CONTINUOUS
62
7
370
0
100
AcDbMText
10
-5.91064446179
20
31.1715728753
30
0
40
2.5
41
13.0555555556
71
5
72
1
1
142.3431
7
standard
210
0
220
0
230
1
50
90
73
2
44
1
0
LINE
5
107
100
AcDbEntity
8
centers from base
6
CONTINUOUS
62
7
370
0
100
AcDbLine
10
149.375
20
-40
11
-5.28564446179
21
-40
0
LINE
5
108
100
AcDbEntity
8
centers from base
6
CONTINUOUS
62
7
370
0
100
AcDbLine
10
7.03185424949
20
102.343145751
11
-5.28564446179
21
102.343145751
0
ENDBLK
5
84
330
82
100
AcDbEntity
8
0
100
AcDbBlockEnd
0
BLOCK
5
86
330
85
100
AcDbEntity
8
0
100
AcDbBlockBegin
2
*D21
70
1
10
0
20
0
3
*D21
1

0
LINE
5
109
100
AcDbEntity
8
centers from centerline
6
CONTINUOUS
62
7
370
0
100
AcDbLine
10
229.646446609
20
87.328669686
11
219.646446609
21
87.328669686
0
SOLID
5
10A
100
AcDbEntity
8
centers from centerline
6
CONTINUOUS
62
7
370
0
100
AcDbTrace
10
224.646446609
20
87.328669686
30
0
11
222.146446609
21
86.9123850282
31
0
12
222.146446609
22
87.7449543438
32
0
13
222.146446609
23
87.7449543438
33
0
0
SOLID
5
10B
100
AcDbEntity
8
centers from centerline
6
CONTINUOUS
62
7
370
0
100
AcDbTrace
10
224.646446609
20
87.328669686
30
0
11
222.146446609
21
86.9123850282
31
0
12
222.146446609
22
87.7449543438
32
0
13
222.146446609
23
87.7449543438
33
0
0
MTEXT
5
10C
100
AcDbEntity
8
centers from centerline
6
CONTINUOUS
62
7
370
0
100
AcDbMText
10
225.827002165
20
89.203669686
30
0
40
2.5
41
1.11111111111
71
5
72
1
1
0
7
standard
210
0
220
0
230
1
50
360
73
2
44
1
0
LINE
5
10D
100
AcDbEntity
8
centers from centerline
6
CONTINUOUS
62
7
370
0
100
AcDbLine
10
150.625
20
87.328669686
11
225.896446609
21
87.328669686
0
LINE
5
10E
100
AcDbEntity
8
centers from centerline
6
CONTINUOUS
62
7
370
0
100
AcDbLine
10
150.625
20
87.328669686
11
225.896446609
21
87.328669686
0
ENDBLK
5
87
330
85
100
AcDbEntity
8
0
100
AcDbBlockEnd
0
BLOCK
5
89
330
88
100
AcDbEntity
8
0
100
AcDbBlockBegin
2
*D20
70
1
10
0
20
0
3
*D20
1

0
LINE
5
10F
100
AcDbEntity
8
centers from centerline
6
CONTINUOUS
62
7
370
0
100
AcDbLine
10
217.582213334
20
87.328669686
11
217.582213334
21
102.343145751
0
SOLID
5
110
100
AcDbEntity
8
centers from centerline
6
CONTINUOUS
62
7
370
0
100
AcDbTrace
10
217.582213334
20
87.328669686
30
0
11
217.165928676
21
89.828669686
31
0
12
217.998497992
22
89.828669686
32
0
13
217.998497992
23
89.828669686
33
0
0
SOLID
5
111
100
AcDbEntity
8
centers from centerline
6
CONTINUOUS
62
7
370
0
100
AcDbTrace
10
217.582213334
20
102.343145751
30
0
11
217.998497992
21
99.8431457505
31
0
12
217.165928676
22
99.8431457505
32
0
13
217.165928676
23
99.8431457505
33
0
0
MTEXT
5
112
100
AcDbEntity
8
centers from centerline
6
CONTINUOUS
62
7
370
0
100
AcDbMText
10
215.707213334
20
94.8359077183
30
0
40
2.5
41
10.8333333333
71
5
72
1
1
15.0145
7
standard
210
0
220
0
230
1
50
90
73
2
44
1
0
LINE
5
113
100
AcDbEntity
8
centers from centerline
6
CONTINUOUS
62
7
370
0
100
AcDbLine
10
150.625
20
87.328669686
11
218.832213334
21
87.328669686
0
LINE
5
114
100
AcDbEntity
8
centers from centerline
6
CONTINUOUS
62
7
370
0
100
AcDbLine
10
287.311291501
20
102.343145751
11
218.832213334
21
102.343145751
0
ENDBLK
5
8A
330
88
100
AcDbEntity
8
0
100
AcDbBlockEnd
0
BLOCK
5
8C
330
8B
100
AcDbEntity
8
0
100
AcDbBlockBegin
2
*D12
70
1
10
0
20
0
3
*D12
1

0
LINE
5
115
100
AcDbEntity
8
centers from base
6
CONTINUOUS
62
7
370
0
100
AcDbLine
10
-23.4067378784
20
-40
11
-23.4067378784
21
110.5
0
SOLID
5
116
100
AcDbEntity
8
centers from base
6
CONTINUOUS
62
7
370
0
100
AcDbTrace
10
-23.4067378784
20
-40
30
0
11
-23.8230225362
21
-37.5
31
0
12
-22.9904532206
22
-37.5
32
0
13
-22.9904532206
23
-37.5
33
0
0
SOLID
5
117
100
AcDbEntity
8
centers from base
6
CONTINUOUS
62
7
370
0
100
AcDbTrace
10
-23.4067378784
20
110.5
30
0
11
-22.9904532206
21
108
31
0
12
-23.8230225362
22
108
32
0
13
-23.8230225362
23
108
33
0
0
MTEXT
5
118
100
AcDbEntity
8
centers from base
6
CONTINUOUS
62
7
370
0
100
AcDbMText
10
-25.2817378784
20
35.25
30
0
40
2.5
41
7.22222222222
71
5
72
1
1
150.5
7
standard
210
0
220
0
230
1
50
90
73
2
44
1
0
LINE
5
119
100
AcDbEntity
8
centers from base
6
CONTINUOUS
62
7
370
0
100
AcDbLine
10
149.375
20
-40
11
-24.6567378784
21
-40
0
LINE
5
11A
100
AcDbEntity
8
centers from base
6
CONTINUOUS
62
7
370
0
100
AcDbLine
10
-0.625
20
110.5
11
-24.6567378784
21
110.5
0
ENDBLK
5
8D
330
8B
100
AcDbEntity
8
0
100
AcDbBlockEnd
0
BLOCK
5
8F
330
8E
100
AcDbEntity
8
0
100
AcDbBlockBegin
2
*D7
70
1
10
0
20
0
3
*D7
1

0
LINE
5
11B
100
AcDbEntity
8
sizes
6
CONTINUOUS
62
7
370
0
100
AcDbLine
10
186.285348356
20
-37.1715728753
11
186.285348356
21
-25.8578643763
0
SOLID
5
11C
100
AcDbEntity
8
sizes
6
CONTINUOUS
62
7
370
0
100
AcDbTrace
10
186.285348356
20
-37.1715728753
30
0
11
185.869063699
21
-34.6715728753
31
0
12
186.701633014
22
-34.6715728753
32
0
13
186.701633014
23
-34.6715728753
33
0
0
SOLID
5
11D
100
AcDbEntity
8
sizes
6
CONTINUOUS
62
7
370
0
100
AcDbTrace
10
186.285348356
20
-25.8578643763
30
0
11
186.701633014
21
-28.3578643763
31
0
12
185.869063699
22
-28.3578643763
32
0
13
185.869063699
23
-28.3578643763
33
0
0
MTEXT
5
11E
100
AcDbEntity
8
sizes
6
CONTINUOUS
62
7
370
0
100
AcDbMText
10
184.410348356
20
-31.5147186258
30
0
40
2.5
41
10
71
5
72
1
1
11.3137
7
standard
210
0
220
0
230
1
50
90
73
2
44
1
0
LINE
5
11F
100
AcDbEntity
8
sizes
6
CONTINUOUS
62
7
370
0
100
AcDbLine
10
153.453427125
20
-37.1715728753
11
187.535348356
21
-37.1715728753
0
LINE
5
120
100
AcDbEntity
8
sizes
6
CONTINUOUS
62
7
370
0
100
AcDbLine
10
164.767135624
20
-25.8578643763
11
187.535348356
21
-25.8578643763
0
ENDBLK
5
90
330
8E
100
AcDbEntity
8
0
100
AcDbBlockEnd
0
BLOCK
5
92
330
91
100
AcDbEntity
8
0
100
AcDbBlockBegin
2
*D18
70
1
10
0
20
0
3
*D18
1

0
LINE
5
121
100
AcDbEntity
8
centers from centerline
6
CONTINUOUS
62
7
370
0
100
AcDbLine
10
327.472220068
20
87.328669686
11
327.472220068
21
110.5
0
SOLID
5
122
100
AcDbEntity
8
centers from centerline
6
CONTINUOUS
62
7
370
0
100
AcDbTrace
10
327.472220068
20
87.328669686
30
0
11
327.05593541
21
89.828669686
31
0
12
327.888504726
22
89.828669686
32
0
13
327.888504726
23
89.828669686
33
0
0
SOLID
5
123
100
AcDbEntity
8
centers from centerline
6
CONTINUOUS
62
7
370
0
100
AcDbTrace
10
327.472220068
20
110.5
30
0
11
327.888504726
21
108
31
0
12
327.05593541
22
108
32
0
13
327.05593541
23
108
33
0
0
MTEXT
5
124
100
AcDbEntity
8
centers from centerline
6
CONTINUOUS
62
7
370
0
100
AcDbMText
10
325.597220068
20
98.914334843
30
0
40
2.5
41
10.5555555556
71
5
72
1
1
23.1713
7
standard
210
0
220
0
230
1
50
90
73
2
44
1
0
LINE
5
125
100
AcDbEntity
8
centers from centerline
6
CONTINUOUS
62
7
370
0
100
AcDbLine
10
150.625
20
87.328669686
11
328.722220068
21
87.328669686
0
LINE
5
126
100
AcDbEntity
8
centers from centerline
6
CONTINUOUS
62
7
370
0
100
AcDbLine
10
300.625
20
110.5
11
328.722220068
21
110.5
0
ENDBLK
5
93
330
91
100
AcDbEntity
8
0
100
AcDbBlockEnd
0
BLOCK
5
95
330
94
100
AcDbEntity
8
0
100
AcDbBlockBegin
2
*D10
70
1
10
0
20
0
3
*D10
1

0
LINE
5
127
100
AcDbEntity
8
sizes
6
CONTINUOUS
62
7
370
0
100
AcDbLine
10
6.31370849898
20
68.7673816289
11
21.9705627485
21
68.7673816289
0
SOLID
5
128
100
AcDbEntity
8
sizes
6
CONTINUOUS
62
7
370
0
100
AcDbTrace
10
11.313708499
20
68.7673816289
30
0
11
8.81370849898
21
68.3510969712
31
0
12
8.81370849898
22
69.1836662867
32
0
13
8.81370849898
23
69.1836662867
33
0
0
SOLID
5
129
100
AcDbEntity
8
sizes
6
CONTINUOUS
62
7
370
0
100
AcDbTrace
10
16.9705627485
20
68.7673816289
30
0
11
19.4705627485
21
69.1836662867
31
0
12
19.4705627485
22
68.3510969712
32
0
13
19.4705627485
23
68.3510969712
33
0
0
MTEXT
5
12A
100
AcDbEntity
8
sizes
6
CONTINUOUS
62
7
370
0
100
AcDbMText
10
22.4566738596
20
70.6423816289
30
0
40
2.5
41
9.72222222222
71
5
72
1
1
5.6569
7
standard
210
0
220
0
230
1
50
0
73
2
44
1
0
LINE
5
12B
100
AcDbEntity
8
sizes
6
CONTINUOUS
62
7
370
0
100
AcDbLine
10
11.313708499
20
98.061291501
11
11.313708499
21
67.5173816289
0
LINE
5
12C
100
AcDbEntity
8
sizes
6
CONTINUOUS
62
7
370
0
100
AcDbLine
10
16.9705627485
20
98.061291501
11
16.9705627485
21
67.5173816289
0
ENDBLK
5
96
330
94
100
AcDbEntity
8
0
100
AcDbBlockEnd
0
ENDSEC
0
SECTION
2
ENTITIES
0
LINE
5
12D
100
AcDbEntity
8
beam
6
ByLayer
62
256
370
-1
100
AcDbLine
10
6.12323399574e-17
20
111
11
300
21
111
0
LINE
5
12E
100
AcDbEntity
8
beam
6
ByLayer
62
256
370
-1
100
AcDbLine
10
6.12323399574e-17
20
111
11
0
21
110
0
LINE
5
12F
100
AcDbEntity
8
beam
6
ByLayer
62
256
370
-1
100
AcDbLine
10
300
20
111
11
300
21
110
0
LINE
5
130
100
AcDbEntity
8
beam
6
ByLayer
62
256
370
-1
100
AcDbLine
10
-1.22464679915e-16
20
110
11
300
21
110
0
LINE
5
131
100
AcDbEntity
8
helper
6
ByLayer
62
256
370
-1
100
AcDbLine
10
-2.76770176607e-14
20
-40
11
300
21
-40
0
LINE
5
132
100
AcDbEntity
8
helper
6
ByLayer
62
256
370
-1
100
AcDbLine
10
150
20
-40
11
150
21
116
0
LINE
5
133
100
AcDbEntity
8
beam
6
ByLayer
62
256
370
-1
100
AcDbLine
10
300
20
110
11
150
21
-40
0
LINE
5
134
100
AcDbEntity
8
beam
6
ByLayer
62
256
370
-1
100
AcDbLine
10
150
20
-40
11
0
21
110
0
LINE
5
135
100
AcDbEntity
8
beam
6
ByLayer
62
256
370
-1
100
AcDbLine
10
149.292893219
20
-40.7071067812
11
-0.707106781187
21
109.292893219
0
LINE
5
136
100
AcDbEntity
8
beam
6
ByLayer
62
256
370
-1
100
AcDbLine
10
300.707106781
20
109.292893219
11
150.707106781
21
-40.7071067812
0
LINE
5
137
100
AcDbEntity
8
beam
6
ByLayer
62
256
370
-1
100
AcDbLine
10
-0.707106781187
20
109.292893219
11
0
21
110
0
LINE
5
138
100
AcDbEntity
8
beam
6
ByLayer
62
256
370
-1
100
AcDbLine
10
0
20
110
11
150
21
-40
0
LINE
5
139
100
AcDbEntity
8
beam
6
ByLayer
62
256
370
-1
100
AcDbLine
10
150
20
-40
11
149.292893219
21
-40.7071067812
0
LINE
5
13A
100
AcDbEntity
8
beam
6
ByLayer
62
256
370
-1
100
AcDbLine
10
150
20
-40
11
150.707106781
21
-40.7071067812
0
LINE
5
13B
100
AcDbEntity
8
beam
6
ByLayer
62
256
370
-1
100
AcDbLine
10
300.707106781
20
109.292893219
11
300
21
110
0
LINE
5
13C
100
AcDbEntity
8
helper
6
ByLayer
62
256
370
-1
100
AcDbLine
10
-8.57252759403e-16
20
106
11
300
21
106
0
LINE
5
13D
100
AcDbEntity
8
helper
6
ByLayer
62
256
370
-1
100
AcDbLine
10
152.828427125
20
-37.1715728753
11
2.82842712475
21
112.828427125
0
LINE
5
13E
100
AcDbEntity
8
helper
6
ByLayer
62
256
370
-1
100
AcDbLine
10
297.171572875
20
112.828427125
11
147.171572875
21
-37.1715728753
0
LINE
5
13F
100
AcDbEntity
8
helper
6
ByLayer
62
256
370
-1
100
AcDbLine
10
13.4350288425
20
95.1507575951
11
16.9705627485
21
98.686291501
0
LINE
5
140
100
AcDbEntity
8
helper
6
ByLayer
62
256
370
-1
100
AcDbLine
10
20
20
111
11
20
21
106
0
LINE
5
141
100
AcDbEntity
8
helper
6
ByLayer
62
256
370
-1
100
AcDbLine
10
286.564971157
20
95.1507575951
11
283.029437252
21
98.686291501
0
LINE
5
142
100
AcDbEntity
8
helper
6
ByLayer
62
256
370
-1
100
AcDbLine
10
280
20
111
11
280
21
106
0
LINE
5
143
100
AcDbEntity
8
helper
6
ByLayer
62
256
370
-1
100
AcDbLine
10
138.686291501
20
-23.0294372515
11
135.150757595
21
-26.5649711575
0
LINE
5
144
100
AcDbEntity
8
helper
6
ByLayer
62
256
370
-1
100
AcDbLine
10
161.313708499
20
-23.0294372515
11
164.849242405
21
-26.5649711575
0
LINE
5
145
100
AcDbEntity
8
helper
6
ByLayer
62
256
370
-1
100
AcDbLine
10
-5.70710678119
20
109.292893219
11
4.29289321881
21
109.292893219
0
LINE
5
146
100
AcDbEntity
8
helper
6
ByLayer
62
256
370
-1
100
AcDbLine
10
295.707106781
20
109.292893219
11
305.707106781
21
109.292893219
0
LINE
5
147
100
AcDbEntity
8
helper
6
ByLayer
62
256
370
-1
100
AcDbLine
10
4
20
105.5
11
4
21
106.5
0
LINE
5
148
100
AcDbEntity
8
helper
6
ByLayer
62
256
370
-1
100
AcDbLine
10
4
20
101
11
4
21
111
0
LINE
5
149
100
AcDbEntity
8
helper
6
ByLayer
62
256
370
-1
100
AcDbLine
10
296
20
101
11
296
21
111
0
LINE
5
14A
100
AcDbEntity
8
used for I
6
ByLayer
62
256
370
-1
100
AcDbLine
10
6.12323399574e-17
20
111
11
-1.22464679915e-16
21
110
0
LINE
5
14B
100
AcDbEntity
8
used for I
6
ByLayer
62
256
370
-1
100
AcDbLine
10
-0.707106781187
20
109.292893219
11
0.707106781187
21
109.292893219
0
LINE
5
14C
100
AcDbEntity
8
used for I
6
ByLayer
62
256
370
-1
100
AcDbLine
10
4
20
110
11
4
21
106
0
LINE
5
14D
100
AcDbEntity
8
used for I
6
ByLayer
62
256
370
-1
100
AcDbLine
10
4
20
106
11
20
21
106
0
LINE
5
14E
100
AcDbEntity
8
used for I
6
ByLayer
62
256
370
-1
100
AcDbLine
10
20
20
106
11
20
21
110
0
LINE
5
14F
100
AcDbEntity
8
used for I
6
ByLayer
62
256
370
-1
100
AcDbLine
10
20
20
110
11
4
21
110
0
LINE
5
150
100
AcDbEntity
8
used for I
6
ByLayer
62
256
370
-1
100
AcDbLine
10
4
20
106
11
9.65685424949
21
106
0
LINE
5
151
100
AcDbEntity
8
used for I
6
ByLayer
62
256
370
-1
100
AcDbLine
10
9.65685424949
20
106
11
16.9705627485
21
98.686291501
0
LINE
5
152
100
AcDbEntity
8
helper
6
ByLayer
62
256
370
-1
100
AcDbLine
10
11.313708499
20
98.686291501
11
21.9705627485
21
98.686291501
0
LINE
5
153
100
AcDbEntity
8
used for I
6
ByLayer
62
256
370
-1
100
AcDbLine
10
16.9705627485
20
98.686291501
11
11.313708499
21
98.686291501
0
LINE
5
154
100
AcDbEntity
8
used for I
6
ByLayer
62
256
370
-1
100
AcDbLine
10
11.313708499
20
98.686291501
11
4
21
106
0
LINE
5
155
100
AcDbEntity
8
helper
6
ByLayer
62
256
370
-1
100
AcDbLine
10
130.857864376
20
-25.8578643763
11
141.514718626
21
-25.8578643763
0
LINE
5
156
100
AcDbEntity
8
helper
6
ByLayer
62
256
370
-1
100
AcDbLine
10
158.485281374
20
-25.8578643763
11
169.142135624
21
-25.8578643763
0
LINE
5
157
100
AcDbEntity
8
helper
6
ByLayer
62
256
370
-1
100
AcDbLine
10
144.343145751
20
-34.3431457505
11
155
21
-34.3431457505
0
LINE
5
158
100
AcDbEntity
8
helper
6
ByLayer
62
256
370
-1
100
AcDbLine
10
142.171572875
20
-37.1715728753
11
152.828427125
21
-37.1715728753
0
LINE
5
159
100
AcDbEntity
8
used for I
6
ByLayer
62
256
370
-1
100
AcDbLine
10
135.857864376
20
-25.8578643763
11
141.514718626
21
-25.8578643763
0
LINE
5
15A
100
AcDbEntity
8
used for I
6
ByLayer
62
256
370
-1
100
AcDbLine
10
141.514718626
20
-25.8578643763
11
150
21
-34.3431457505
0
LINE
5
15B
100
AcDbEntity
8
used for I
6
ByLayer
62
256
370
-1
100
AcDbLine
10
150
20
-34.3431457505
11
144.343145751
21
-34.3431457505
0
LINE
5
15C
100
AcDbEntity
8
used for I
6
ByLayer
62
256
370
-1
100
AcDbLine
10
144.343145751
20
-34.3431457505
11
135.857864376
21
-25.8578643763
0
LINE
5
15D
100
AcDbEntity
8
used for I
6
ByLayer
62
256
370
-1
100
AcDbLine
10
158.485281374
20
-25.8578643763
11
147.171572875
21
-37.1715728753
0
LINE
5
15E
100
AcDbEntity
8
used for I
6
ByLayer
62
256
370
-1
100
AcDbLine
10
147.171572875
20
-37.1715728753
11
152.828427125
21
-37.1715728753
0
LINE
5
15F
100
AcDbEntity
8
used for I
6
ByLayer
62
256
370
-1
100
AcDbLine
10
152.828427125
20
-37.1715728753
11
164.142135624
21
-25.8578643763
0
LINE
5
160
100
AcDbEntity
8
used for I
6
ByLayer
62
256
370
-1
100
AcDbLine
10
164.142135624
20
-25.8578643763
11
158.485281374
21
-25.8578643763
0
LINE
5
161
100
AcDbEntity
8
used for I
6
ByLayer
62
256
370
-1
100
AcDbLine
10
150
20
-40
11
148.585786438
21
-40
0
LINE
5
162
100
AcDbEntity
8
used for I
6
ByLayer
62
256
370
-1
100
AcDbLine
10
150
20
-40
11
151.414213562
21
-40
0
LINE
5
163
100
AcDbEntity
8
helper
6
ByLayer
62
256
370
-1
100
AcDbLine
10
278.029437252
20
98.686291501
11
288.686291501
21
98.686291501
0
LINE
5
164
100
AcDbEntity
8
used for I
6
ByLayer
62
256
370
-1
100
AcDbLine
10
283.029437252
20
98.686291501
11
288.686291501
21
98.686291501
0
LINE
5
165
100
AcDbEntity
8
used for I
6
ByLayer
62
256
370
-1
100
AcDbLine
10
288.686291501
20
98.686291501
11
296
21
106
0
LINE
5
166
100
AcDbEntity
8
used for I
6
ByLayer
62
256
370
-1
100
AcDbLine
10
296
20
106
11
290.343145751
21
106
0
LINE
5
167
100
AcDbEntity
8
used for I
6
ByLayer
62
256
370
-1
100
AcDbLine
10
290.343145751
20
106
11
283.029437252
21
98.686291501
0
LINE
5
168
100
AcDbEntity
8
used for I
6
ByLayer
62
256
370
-1
100
AcDbLine
10
280
20
110
11
296
21
110
0
LINE
5
169
100
AcDbEntity
8
used for I
6
ByLayer
62
256
370
-1
100
AcDbLine
10
296
20
110
11
296
21
106
0
LINE
5
16A
100
AcDbEntity
8
used for I
6
ByLayer
62
256
370
-1
100
AcDbLine
10
296
20
106
11
280
21
106
0
LINE
5
16B
100
AcDbEntity
8
used for I
6
ByLayer
62
256
370
-1
100
AcDbLine
10
280
20
106
11
280
21
110
0
LINE
5
16C
100
AcDbEntity
8
used for I
6
ByLayer
62
256
370
-1
100
AcDbLine
10
300.707106781
20
109.292893219
11
299.292893219
21
109.292893219
0
LINE
5
16D
100
AcDbEntity
8
used for I
6
ByLayer
62
256
370
-1
100
AcDbLine
10
300
20
111
11
300
21
110
0
LINE
5
16E
100
AcDbEntity
8
used for I
6
ByLayer
62
256
370
-1
100
AcDbLine
10
6.12323399574e-17
20
111
11
300
21
111
0
LINE
5
16F
100
AcDbEntity
8
used for I
6
ByLayer
62
256
370
-1
100
AcDbLine
10
300
20
110
11
-1.22464679915e-16
21
110
0
LINE
5
170
100
AcDbEntity
8
used for I
6
ByLayer
62
256
370
-1
100
AcDbLine
10
-0.707106781187
20
109.292893219
11
148.585786438
21
-40
0
LINE
5
171
100
AcDbEntity
8
used for I
6
ByLayer
62
256
370
-1
100
AcDbLine
10
150
20
-40
11
0.707106781187
21
109.292893219
0
LINE
5
172
100
AcDbEntity
8
used for I
6
ByLayer
62
256
370
-1
100
AcDbLine
10
151.414213562
20
-40
11
300.707106781
21
109.292893219
0
LINE
5
173
100
AcDbEntity
8
used for I
6
ByLayer
62
256
370
-1
100
AcDbLine
10
299.292893219
20
109.292893219
11
150
21
-40
0
DIMENSION
5
174
100
AcDbEntity
8
sizes
6
ByLayer
62
256
370
-1
100
AcDbDimension
2
*D1
10
300
20
118.163669841
30
0
11
150
21
120.038669841
31
0
70
32
71
5
3
Standard
53
0
210
0
220
0
230
1
100
AcDbAlignedDimension
13
6.12323399574e-17
23
111
33
0
14
300
24
111
34
0
100
AcDbRotatedDimension
0
DIMENSION
5
175
100
AcDbEntity
8
sizes
6
ByLayer
62
256
370
-1
100
AcDbDimension
2
*D2
10
59.7275380345
20
-40
30
0
11
57.8525380345
21
34.6464466094
31
0
70
32
71
5
3
Standard
53
0
210
0
220
0
230
1
100
AcDbAlignedDimension
13
-0.707106781187
23
109.292893219
33
0
14
148.585786438
24
-40
34
0
50
90
100
AcDbRotatedDimension
0
DIMENSION
5
176
100
AcDbEntity
8
sizes
6
ByLayer
62
256
370
-1
100
AcDbDimension
2
*D3
10
-53.5933584526
20
110
30
0
11
-55.4683584526
21
110.5
31
0
70
32
71
5
3
Standard
53
0
210
0
220
0
230
1
100
AcDbAlignedDimension
13
6.12323399574e-17
23
111
33
0
14
4
24
110
34
0
50
90
100
AcDbRotatedDimension
0
DIMENSION
5
177
100
AcDbEntity
8
sizes
6
ByLayer
62
256
370
-1
100
AcDbDimension
2
*D4
10
-42.9392570735
20
106
30
0
11
-44.8142570735
21
108
31
0
70
32
71
5
3
Standard
53
0
210
0
220
0
230
1
100
AcDbAlignedDimension
13
4
23
110
33
0
14
4
24
106
34
0
50
90
100
AcDbRotatedDimension
0
DIMENSION
5
178
100
AcDbEntity
8
sizes
6
ByLayer
62
256
370
-1
100
AcDbDimension
2
*D5
10
-36.1593743777
20
98.686291501
30
0
11
-38.0343743777
21
102.343145751
31
0
70
32
71
5
3
Standard
53
0
210
0
220
0
230
1
100
AcDbAlignedDimension
13
4
23
106
33
0
14
11.313708499
24
98.686291501
34
0
50
90
100
AcDbRotatedDimension
0
DIMENSION
5
179
100
AcDbEntity
8
sizes
6
ByLayer
62
256
370
-1
100
AcDbDimension
2
*D6
10
120.100779183
20
-34.3431457505
30
0
11
118.225779183
21
-30.1005050634
31
0
70
32
71
5
3
Standard
53
0
210
0
220
0
230
1
100
AcDbAlignedDimension
13
135.857864376
23
-25.8578643763
33
0
14
144.343145751
24
-34.3431457505
34
0
50
90
100
AcDbRotatedDimension
0
DIMENSION
5
17A
100
AcDbEntity
8
sizes
6
ByLayer
62
256
370
-1
100
AcDbDimension
2
*D7
10
186.285348356
20
-25.8578643763
30
0
11
184.410348356
21
-31.5147186258
31
0
70
32
71
5
3
Standard
53
0
210
0
220
0
230
1
100
AcDbAlignedDimension
13
152.828427125
23
-37.1715728753
33
0
14
164.142135624
24
-25.8578643763
34
0
50
90
100
AcDbRotatedDimension
0
DIMENSION
5
17B
100
AcDbEntity
8
sizes
6
ByLayer
62
256
370
-1
100
AcDbDimension
2
*D8
10
312.197455564
20
106
30
0
11
310.322455564
21
102.343145751
31
0
70
32
71
5
3
Standard
53
0
210
0
220
0
230
1
100
AcDbAlignedDimension
13
288.686291501
23
98.686291501
33
0
14
296
24
106
34
0
50
90
100
AcDbRotatedDimension
0
DIMENSION
5
17C
100
AcDbEntity
8
sizes
6
ByLayer
62
256
370
-1
100
AcDbDimension
2
*D9
10
20
20
113.643748044
30
0
11
12
21
115.518748044
31
0
70
32
71
5
3
Standard
53
0
210
0
220
0
230
1
100
AcDbAlignedDimension
13
4
23
110
33
0
14
20
24
110
34
0
100
AcDbRotatedDimension
0
DIMENSION
5
17D
100
AcDbEntity
8
sizes
6
ByLayer
62
256
370
-1
100
AcDbDimension
2
*D10
10
16.9705627485
20
68.7673816289
30
0
11
14.1421356237
21
70.6423816289
31
0
70
32
71
5
3
Standard
53
0
210
0
220
0
230
1
100
AcDbAlignedDimension
13
11.313708499
23
98.686291501
33
0
14
16.9705627485
24
98.686291501
34
0
100
AcDbRotatedDimension
0
DIMENSION
5
17E
100
AcDbEntity
8
sizes
6
ByLayer
62
256
370
-1
100
AcDbDimension
2
*D11
10
150
20
-52.6248037818
30
0
11
149.292893219
21
-50.7498037818
31
0
70
32
71
5
3
Standard
53
0
210
0
220
0
230
1
100
AcDbAlignedDimension
13
148.585786438
23
-40
33
0
14
150
24
-40
34
0
100
AcDbRotatedDimension
0
MTEXT
5
17F
100
AcDbEntity
8
sizes
6
ByLayer
62
256
370
-1
100
AcDbMText
10
148.511716194
20
126.234958765
30
0
40
3
41
3
71
1
72
1
1
a1
7

210
0
220
0
230
1
50
0
73
2
44
1
0
MTEXT
5
180
100
AcDbEntity
8
sizes
6
ByLayer
62
256
370
-1
100
AcDbMText
10
155.937302004
20
-45.1992179721
30
0
40
3
41
3.66666666667
71
1
72
1
1
a2
7

210
0
220
0
230
1
50
0
73
2
44
1
0
MTEXT
5
181
100
AcDbEntity
8
sizes
6
ByLayer
62
256
370
-1
100
AcDbMText
10
10.6541013791
20
122.037888525
30
0
40
3
41
3.66666666667
71
1
72
1
1
a3
7

210
0
220
0
230
1
50
0
73
2
44
1
0
MTEXT
5
182
100
AcDbEntity
8
sizes
6
ByLayer
62
256
370
-1
100
AcDbMText
10
22.2767574291
20
76.5158189956
30
0
40
3
41
4
71
1
72
1
1
a4
7

210
0
220
0
230
1
50
0
73
2
44
1
0
MTEXT
5
183
100
AcDbEntity
8
sizes
6
ByLayer
62
256
370
-1
100
AcDbMText
10
-60.3732411484
20
115.903708943
30
0
40
3
41
3
71
1
72
1
1
b1
7

210
0
220
0
230
1
50
0
73
2
44
1
0
MTEXT
5
184
100
AcDbEntity
8
sizes
6
ByLayer
62
256
370
-1
100
AcDbMText
10
49.3962882123
20
35.5136712638
30
0
40
3
41
3.66666666667
71
1
72
1
1
b2
7

210
0
220
0
230
1
50
0
73
2
44
1
0
MTEXT
5
185
100
AcDbEntity
8
sizes
6
ByLayer
62
256
370
-1
100
AcDbMText
10
-48.4277335415
20
105.249607564
30
0
40
3
41
3.66666666667
71
1
72
1
1
b3
7

210
0
220
0
230
1
50
0
73
2
44
1
0
MTEXT
5
186
100
AcDbEntity
8
sizes
6
ByLayer
62
256
370
-1
100
AcDbMText
10
-34.5451165929
20
104.281052893
30
0
40
3
41
4
71
1
72
1
1
b4
7

210
0
220
0
230
1
50
0
73
2
44
1
0
MTEXT
5
187
100
AcDbEntity
8
sizes
6
ByLayer
62
256
370
-1
100
AcDbMText
10
122.037888525
20
-28.0880854541
30
0
40
3
41
3.66666666667
71
1
72
1
1
b5
7

210
0
220
0
230
1
50
0
73
2
44
1
0
MTEXT
5
188
100
AcDbEntity
8
sizes
6
ByLayer
62
256
370
-1
100
AcDbMText
10
188.868160812
20
-29.3794916819
30
0
40
3
41
3.66666666667
71
1
72
1
1
b6
7

210
0
220
0
230
1
50
0
73
2
44
1
0
LINE
5
189
100
AcDbEntity
8
centers from base
6
ByLayer
62
256
370
-1
100
AcDbLine
10
-50
20
-40
11
350
21
-40
0
DIMENSION
5
18A
100
AcDbEntity
8
centers from base
6
ByLayer
62
256
370
-1
100
AcDbDimension
2
*D12
10
-23.4067378784
20
110.5
30
0
11
-25.2817378784
21
35.25
31
0
70
32
71
5
3
Standard
53
0
210
0
220
0
230
1
100
AcDbAlignedDimension
13
150
23
-40
33
0
14
-3.06161699787e-17
24
110.5
34
0
50
90
100
AcDbRotatedDimension
0
DIMENSION
5
18B
100
AcDbEntity
8
centers from base
6
ByLayer
62
256
370
-1
100
AcDbDimension
2
*D13
10
-12.5104978316
20
108
30
0
11
-14.3854978316
21
34
31
0
70
32
71
5
3
Standard
53
0
210
0
220
0
230
1
100
AcDbAlignedDimension
13
150.707106781
23
-40
33
0
14
20
24
108
34
0
50
90
100
AcDbRotatedDimension
0
DIMENSION
5
18C
100
AcDbEntity
8
centers from base
6
ByLayer
62
256
370
-1
100
AcDbDimension
2
*D14
10
-4.03564446179
20
102.343145751
30
0
11
-5.91064446179
21
31.1715728753
31
0
70
32
71
5
3
Standard
53
0
210
0
220
0
230
1
100
AcDbAlignedDimension
13
150
23
-40
33
0
14
7.65685424949
24
102.343145751
34
0
50
90
100
AcDbRotatedDimension
0
DIMENSION
5
18D
100
AcDbEntity
8
centers from base
6
ByLayer
62
256
370
-1
100
AcDbDimension
2
*D15
10
5.24633780033
20
34.6464466094
30
0
11
3.37133780033
21
-2.6767766953
31
0
70
32
71
5
3
Standard
53
0
210
0
220
0
230
1
100
AcDbAlignedDimension
13
150.707106781
23
-40
33
0
14
73.9393398282
24
34.6464466094
34
0
50
90
100
AcDbRotatedDimension
0
DIMENSION
5
18E
100
AcDbEntity
8
centers from base
6
ByLayer
62
256
370
-1
100
AcDbDimension
2
*D16
10
79.5021958973
20
-30.1005050634
30
0
11
77.6271958973
21
-35.0502525317
31
0
70
32
71
5
3
Standard
53
0
210
0
220
0
230
1
100
AcDbAlignedDimension
13
149.292893219
23
-40
33
0
14
140.100505063
24
-30.1005050634
34
0
50
90
100
AcDbRotatedDimension
0
DIMENSION
5
18F
100
AcDbEntity
8
centers from base
6
ByLayer
62
256
370
-1
100
AcDbDimension
2
*D17
10
193.334876673
20
-31.5147186258
30
0
11
191.459876673
21
-35.7573593129
31
0
70
32
71
5
3
Standard
53
0
210
0
220
0
230
1
100
AcDbAlignedDimension
13
149.292893219
23
-40
33
0
14
158.485281374
24
-31.5147186258
34
0
50
90
100
AcDbRotatedDimension
0
MTEXT
5
190
100
AcDbEntity
8
centers from base
6
ByLayer
62
256
370
-1
100
AcDbMText
10
-26.3924592973
20
27.0779777207
30
0
40
3
41
2
71
1
72
1
1
l1
7

210
0
220
0
230
1
50
0
73
2
44
1
0
MTEXT
5
191
100
AcDbEntity
8
centers from base
6
ByLayer
62
256
370
-1
100
AcDbMText
10
-16.4524421594
20
26.3924592973
30
0
40
3
41
2.66666666667
71
1
72
1
1
l2
7

210
0
220
0
230
1
50
0
73
2
44
1
0
MTEXT
5
192
100
AcDbEntity
8
centers from base
6
ByLayer
62
256
370
-1
100
AcDbMText
10
-8.22622107969
20
21.9365895458
30
0
40
3
41
2.66666666667
71
1
72
1
1
l3
7

210
0
220
0
230
1
50
0
73
2
44
1
0
MTEXT
5
193
100
AcDbEntity
8
centers from base
6
ByLayer
62
256
370
-1
100
AcDbMText
10
1.71379605827
20
-12.6820908312
30
0
40
3
41
3
71
1
72
1
1
l4
7

210
0
220
0
230
1
50
0
73
2
44
1
0
MTEXT
5
194
100
AcDbEntity
8
centers from base
6
ByLayer
62
256
370
-1
100
AcDbMText
10
71.293916024
20
-32.5621251071
30
0
40
3
41
2.66666666667
71
1
72
1
1
l5
7

210
0
220
0
230
1
50
0
73
2
44
1
0
MTEXT
5
195
100
AcDbEntity
8
centers from base
6
ByLayer
62
256
370
-1
100
AcDbMText
10
195.715509854
20
-34.618680377
30
0
40
3
41
2.66666666667
71
1
72
1
1
l6
7

210
0
220
0
230
1
50
0
73
2
44
1
0
LINE
5
196
100
AcDbEntity
8
centers from centerline
6
ByLayer
62
256
370
-1
100
AcDbLine
10
-50
20
87.328669686
11
350
21
87.328669686
0
DIMENSION
5
197
100
AcDbEntity
8
centers from centerline
6
ByLayer
62
256
370
-1
100
AcDbDimension
2
*D18
10
327.472220068
20
110.5
30
0
11
325.597220068
21
98.914334843
31
0
70
32
71
5
3
Standard
53
0
210
0
220
0
230
1
100
AcDbAlignedDimension
13
150
23
87.328669686
33
0
14
300
24
110.5
34
0
50
90
100
AcDbRotatedDimension
0
DIMENSION
5
198
100
AcDbEntity
8
centers from centerline
6
ByLayer
62
256
370
-1
100
AcDbDimension
2
*D19
10
178.571260943
20
108
30
0
11
176.696260943
21
97.664334843
31
0
70
32
71
5
3
Standard
53
0
210
0
220
0
230
1
100
AcDbAlignedDimension
13
150
23
87.328669686
33
0
14
280
24
108
34
0
50
90
100
AcDbRotatedDimension
0
DIMENSION
5
199
100
AcDbEntity
8
centers from centerline
6
ByLayer
62
256
370
-1
100
AcDbDimension
2
*D20
10
217.582213334
20
102.343145751
30
0
11
215.707213334
21
94.8359077183
31
0
70
32
71
5
3
Standard
53
0
210
0
220
0
230
1
100
AcDbAlignedDimension
13
150
23
87.328669686
33
0
14
286.686291501
24
102.343145751
34
0
50
90
100
AcDbRotatedDimension
0
DIMENSION
5
19A
100
AcDbEntity
8
centers from centerline
6
ByLayer
62
256
370
-1
100
AcDbDimension
2
*D21
10
224.646446609
20
87.328669686
30
0
11
224.646446609
21
89.203669686
31
0
70
32
71
5
3
Standard
53
0
210
0
220
0
230
1
100
AcDbAlignedDimension
13
150
23
87.328669686
33
0
14
150
24
87.328669686
34
0
50
90
100
AcDbRotatedDimension
0
DIMENSION
5
19B
100
AcDbEntity
8
centers from centerline
6
ByLayer
62
256
370
-1
100
AcDbDimension
2
*D22
10
206.59321266
20
34.6464466094
30
0
11
204.71821266
21
60.9875581477
31
0
70
32
71
5
3
Standard
53
0
210
0
220
0
230
1
100
AcDbAlignedDimension
13
150
23
87.328669686
33
0
14
224.646446609
24
34.6464466094
34
0
50
90
100
AcDbRotatedDimension
0
DIMENSION
5
19C
100
AcDbEntity
8
centers from centerline
6
ByLayer
62
256
370
-1
100
AcDbDimension
2
*D23
10
155.494359529
20
-31.5147186258
30
0
11
153.619359529
21
27.9069755301
31
0
70
32
71
5
3
Standard
53
0
210
0
220
0
230
1
100
AcDbAlignedDimension
13
150
23
87.328669686
33
0
14
152.828427125
24
-31.5147186258
34
0
50
90
100
AcDbRotatedDimension
0
DIMENSION
5
19D
100
AcDbEntity
8
centers from centerline
6
ByLayer
62
256
370
-1
100
AcDbDimension
2
*D24
10
142.857008755
20
-30.1005050634
30
0
11
140.982008755
21
28.6140823113
31
0
70
32
71
5
3
Standard
53
0
210
0
220
0
230
1
100
AcDbAlignedDimension
13
150
23
87.328669686
33
0
14
145.757359313
24
-30.1005050634
34
0
50
90
100
AcDbRotatedDimension
0
MTEXT
5
19E
100
AcDbEntity
8
centers from centerline
6
ByLayer
62
256
370
-1
100
AcDbMText
10
334.615070506
20
100.549356162
30
0
40
3
41
3
71
1
72
1
1
y1
7

210
0
220
0
230
1
50
0
73
2
44
1
0
MTEXT
5
19F
100
AcDbEntity
8
centers from centerline
6
ByLayer
62
256
370
-1
100
AcDbMText
10
183.516311246
20
99.9999061282
30
0
40
3
41
3.66666666667
71
1
72
1
1
y2
7

210
0
220
0
230
1
50
0
73
2
44
1
0
MTEXT
5
1A0
100
AcDbEntity
8
centers from centerline
6
ByLayer
62
256
370
-1
100
AcDbMText
10
222.527263637
20
96.1537558925
30
0
40
3
41
3.66666666667
71
1
72
1
1
y3
7

210
0
220
0
230
1
50
0
73
2
44
1
0
MTEXT
5
1A1
100
AcDbEntity
8
centers from centerline
6
ByLayer
62
256
370
-1
100
AcDbMText
10
195.604211987
20
61.5384037712
30
0
40
3
41
4
71
1
72
1
1
y4
7

210
0
220
0
230
1
50
0
73
2
44
1
0
MTEXT
5
1A2
100
AcDbEntity
8
centers from centerline
6
ByLayer
62
256
370
-1
100
AcDbMText
10
129.670207946
20
29.1208517846
30
0
40
3
41
3.66666666667
71
1
72
1
1
y5
7

210
0
220
0
230
1
50
0
73
2
44
1
0
MTEXT
5
1A3
100
AcDbEntity
8
centers from centerline
6
ByLayer
62
256
370
-1
100
AcDbMText
10
158.791059731
20
29.6703018183
30
0
40
3
41
3.66666666667
71
1
72
1
1
y6
7

210
0
220
0
230
1
50
0
73
2
44
1
0
DIMENSION
5
1A4
100
AcDbEntity
8
centers from centerline
6
ByLayer
62
256
370
-1
100
AcDbDimension
2
*D25
10
362.243279528
20
-40
30
0
11
360.368279528
21
23.664334843
31
0
70
32
71
5
3
Standard
53
0
210
0
220
0
230
1
100
AcDbAlignedDimension
13
350
23
87.328669686
33
0
14
350
24
-40
34
0
50
90
100
AcDbRotatedDimension
0
MTEXT
5
1A5
100
AcDbEntity
8
centers from centerline
6
ByLayer
62
256
370
-1
100
AcDbMText
10
354.122336441
20
25.8393643685
30
0
40
3
41
1.33333333333
71
1
72
1
1
y
7

210
0
220
0
230
1
50
0
73
2
44
1
0
ENDSEC
0
SECTION
2
OBJECTS
0
DICTIONARY
5
C
330
0
100
AcDbDictionary
281
1
3
ACAD_GROUP
350
D
0
DICTIONARY
5
D
330
C
100
AcDbDictionary
281
1
0
ENDSEC
0
EOF
