999
dxfrw 0.5.10
0
SECTION
2
HEADER
9
$ACADVER
1
AC1021
9
$HANDSEED
5
20000
9
$DWGCODEPAGE
3
ANSI_1252
9
$INSBASE
10
0
20
0
30
0
9
$EXTMIN
10
-88.73
20
-68.9909121789
30
0
9
$EXTMAX
10
342.783140154
20
134.300385013
30
0
9
$LIMMIN
10
0
20
0
9
$LIMMAX
10
420
20
297
9
$ORTHOMODE
70
0
9
$LTSCALE
40
1
9
$TEXTSTYLE
7
STANDARD
9
$CLAYER
8
a
9
$DIMASZ
40
2.5
9
$DIMLFAC
40
1
9
$DIMSCALE
40
1
9
$DIMEXO
40
0.625
9
$DIMEXE
40
1.25
9
$DIMTXT
40
2.5
9
$DIMTSZ
40
0
9
$DIMAUNIT
70
0
9
$DIMADEC
70
0
9
$DIMLUNIT
70
2
9
$DIMSTYLE
2
STANDARD
9
$DIMGAP
40
0.625
9
$DIMTIH
70
0
9
$LUNITS
70
2
9
$LUPREC
70
4
9
$AUNITS
70
0
9
$AUPREC
70
2
9
$SPLINESEGS
70
8
9
$SNAPSTYLE
70
0
9
$PINSBASE
10
0
20
0
30
0
9
$PLIMMIN
10
0
20
0
9
$PLIMMAX
10
210
20
297
9
$INSUNITS
70
4
9
$PSVPSCALE
40
1
0
ENDSEC
0
SECTION
2
CLASSES
0
ENDSEC
0
SECTION
2
TABLES
0
TABLE
2
VPORT
5
8
330
0
100
AcDbSymbolTable
70
1
0
VPORT
5
31
330
2
100
AcDbSymbolTableRecord
100
AcDbViewportTableRecord
2
*ACTIVE
70
0
10
0
20
0
11
1
21
1
12
173.418734132
22
73.2130263501
13
0
23
0
14
10
24
10
15
10
25
10
16
0
26
0
36
1
17
0
27
0
37
0
40
227.034334237
41
1.9332247557
42
50
43
0
44
0
50
0
51
0
71
0
72
100
73
1
74
3
75
0
76
1
77
0
78
0
281
0
65
1
110
0
120
0
130
0
111
1
121
0
131
0
112
0
122
1
132
0
79
0
146
0
348
10020
60
7
61
5
292
1
282
1
141
0
142
0
63
250
421
3358443
0
ENDTAB
0
TABLE
2
LTYPE
5
5
330
0
100
AcDbSymbolTable
70
4
0
LTYPE
5
14
330
5
100
AcDbSymbolTableRecord
100
AcDbLinetypeTableRecord
2
ByBlock
70
0
3

72
65
73
0
40
0
0
LTYPE
5
15
330
5
100
AcDbSymbolTableRecord
100
AcDbLinetypeTableRecord
2
ByLayer
70
0
3

72
65
73
0
40
0
0
LTYPE
5
16
330
5
100
AcDbSymbolTableRecord
100
AcDbLinetypeTableRecord
2
Continuous
70
0
3
Solid line
72
65
73
0
40
0
0
LTYPE
5
32
330
5
100
AcDbSymbolTableRecord
100
AcDbLinetypeTableRecord
2
DOT
70
0
3
Dot . . . . . . . . . . . . . . . . . . . . . .
72
65
73
2
40
6.35
49
0
74
0
49
-6.35
74
0
0
LTYPE
5
33
330
5
100
AcDbSymbolTableRecord
100
AcDbLinetypeTableRecord
2
DOT2
70
0
3
Dot (.5x) .....................................
72
65
73
2
40
3.175
49
0
74
0
49
-3.175
74
0
0
LTYPE
5
34
330
5
100
AcDbSymbolTableRecord
100
AcDbLinetypeTableRecord
2
DOTX2
70
0
3
Dot (2x) .  .  .  .  .  .  .  .  .  .  .  .  .
72
65
73
2
40
12.7
49
0
74
0
49
-12.7
74
0
0
LTYPE
5
35
330
5
100
AcDbSymbolTableRecord
100
AcDbLinetypeTableRecord
2
DASHED
70
0
3
Dot . . . . . . . . . . . . . . . . . . . . . .
72
65
73
2
40
19.05
49
12.7
74
0
49
-6.35
74
0
0
LTYPE
5
36
330
5
100
AcDbSymbolTableRecord
100
AcDbLinetypeTableRecord
2
DASHED2
70
0
3
Dashed (.5x) _ _ _ _ _ _ _ _ _ _ _ _ _ _ _ _ _
72
65
73
2
40
9.525
49
6.35
74
0
49
-3.175
74
0
0
LTYPE
5
37
330
5
100
AcDbSymbolTableRecord
100
AcDbLinetypeTableRecord
2
DASHEDX2
70
0
3
Dashed (2x) ____  ____  ____  ____  ____  ___
72
65
73
2
40
38.1
49
25.4
74
0
49
-12.7
74
0
0
LTYPE
5
38
330
5
100
AcDbSymbolTableRecord
100
AcDbLinetypeTableRecord
2
DASHDOT
70
0
3
Dash dot __ . __ . __ . __ . __ . __ . __ . __
72
65
73
4
40
25.4
49
12.7
74
0
49
-6.35
74
0
49
0
74
0
49
-6.35
74
0
0
LTYPE
5
39
330
5
100
AcDbSymbolTableRecord
100
AcDbLinetypeTableRecord
2
DASHDOT2
70
0
3
Dash dot (.5x) _._._._._._._._._._._._._._._.
72
65
73
4
40
12.7
49
6.35
74
0
49
-3.175
74
0
49
0
74
0
49
-3.175
74
0
0
LTYPE
5
3A
330
5
100
AcDbSymbolTableRecord
100
AcDbLinetypeTableRecord
2
DASHDOTX2
70
0
3
Dash dot (2x) ____  .  ____  .  ____  .  ___
72
65
73
4
40
50.8
49
25.4
74
0
49
-12.7
74
0
49
0
74
0
49
-12.7
74
0
0
LTYPE
5
3B
330
5
100
AcDbSymbolTableRecord
100
AcDbLinetypeTableRecord
2
DIVIDE
70
0
3
Divide ____ . . ____ . . ____ . . ____ . . ____
72
65
73
6
40
31.75
49
12.7
74
0
49
-6.35
74
0
49
0
74
0
49
-6.35
74
0
49
0
74
0
49
-6.35
74
0
0
LTYPE
5
3C
330
5
100
AcDbSymbolTableRecord
100
AcDbLinetypeTableRecord
2
DIVIDE2
70
0
3
Divide (.5x) __..__..__..__..__..__..__..__.._
72
65
73
6
40
15.875
49
6.35
74
0
49
-3.175
74
0
49
0
74
0
49
-3.175
74
0
49
0
74
0
49
-3.175
74
0
0
LTYPE
5
3D
330
5
100
AcDbSymbolTableRecord
100
AcDbLinetypeTableRecord
2
DIVIDEX2
70
0
3
Divide (2x) ________  .  .  ________  .  .  _
72
65
73
6
40
63.5
49
25.4
74
0
49
-12.7
74
0
49
0
74
0
49
-12.7
74
0
49
0
74
0
49
-12.7
74
0
0
LTYPE
5
3E
330
5
100
AcDbSymbolTableRecord
100
AcDbLinetypeTableRecord
2
BORDER
70
0
3
Border __ __ . __ __ . __ __ . __ __ . __ __ .
72
65
73
6
40
44.45
49
12.7
74
0
49
-6.35
74
0
49
12.7
74
0
49
-6.35
74
0
49
0
74
0
49
-6.35
74
0
0
LTYPE
5
3F
330
5
100
AcDbSymbolTableRecord
100
AcDbLinetypeTableRecord
2
BORDER2
70
0
3
Border (.5x) __.__.__.__.__.__.__.__.__.__.__.
72
65
73
6
40
22.225
49
6.35
74
0
49
-3.175
74
0
49
6.35
74
0
49
-3.175
74
0
49
0
74
0
49
-3.175
74
0
0
LTYPE
5
40
330
5
100
AcDbSymbolTableRecord
100
AcDbLinetypeTableRecord
2
BORDERX2
70
0
3
Border (2x) ____  ____  .  ____  ____  .  ___
72
65
73
6
40
88.9
49
25.4
74
0
49
-12.7
74
0
49
25.4
74
0
49
-12.7
74
0
49
0
74
0
49
-12.7
74
0
0
LTYPE
5
41
330
5
100
AcDbSymbolTableRecord
100
AcDbLinetypeTableRecord
2
CENTER
70
0
3
Center ____ _ ____ _ ____ _ ____ _ ____ _ ____
72
65
73
4
40
50.8
49
31.75
74
0
49
-6.35
74
0
49
6.35
74
0
49
-6.35
74
0
0
LTYPE
5
42
330
5
100
AcDbSymbolTableRecord
100
AcDbLinetypeTableRecord
2
CENTER2
70
0
3
Center (.5x) ___ _ ___ _ ___ _ ___ _ ___ _ ___
72
65
73
4
40
28.575
49
19.05
74
0
49
-3.175
74
0
49
3.175
74
0
49
-3.175
74
0
0
LTYPE
5
43
330
5
100
AcDbSymbolTableRecord
100
AcDbLinetypeTableRecord
2
CENTERX2
70
0
3
Center (2x) ________  __  ________  __  _____
72
65
73
4
40
101.6
49
63.5
74
0
49
-12.7
74
0
49
12.7
74
0
49
-12.7
74
0
0
ENDTAB
0
TABLE
2
LAYER
5
2
330
0
100
AcDbSymbolTable
70
1
0
LAYER
5
10
330
2
100
AcDbSymbolTableRecord
100
AcDbLayerTableRecord
2
0
70
0
62
7
6
CONTINUOUS
370
0
390
F
0
LAYER
5
44
330
2
100
AcDbSymbolTableRecord
100
AcDbLayerTableRecord
2
lengths from base
70
1
62
3
6
CONTINUOUS
370
0
390
F
0
LAYER
5
45
330
2
100
AcDbSymbolTableRecord
100
AcDbLayerTableRecord
2
lengths from center
70
0
62
9
6
CONTINUOUS
370
0
390
F
0
LAYER
5
46
330
2
100
AcDbSymbolTableRecord
100
AcDbLayerTableRecord
2
a
70
0
62
7
6
CONTINUOUS
370
0
390
F
0
ENDTAB
0
TABLE
2
STYLE
5
3
330
0
100
AcDbSymbolTable
70
3
0
STYLE
5
47
330
2
100
AcDbSymbolTableRecord
100
AcDbTextStyleTableRecord
2
Standard
70
0
40
0
41
1
50
0
71
0
42
1
3
txt
4

0
ENDTAB
0
TABLE
2
VIEW
5
6
330
0
100
AcDbSymbolTable
70
0
0
ENDTAB
0
TABLE
2
UCS
5
7
330
0
100
AcDbSymbolTable
70
0
0
ENDTAB
0
TABLE
2
APPID
5
9
330
0
100
AcDbSymbolTable
70
1
0
APPID
5
12
330
9
100
AcDbSymbolTableRecord
100
AcDbRegAppTableRecord
2
ACAD
70
0
0
ENDTAB
0
TABLE
2
DIMSTYLE
5
A
330
0
100
AcDbSymbolTable
70
1
100
AcDbDimStyleTable
71
1
0
DIMSTYLE
105
48
330
A
100
AcDbSymbolTableRecord
100
AcDbDimStyleTableRecord
2
Standard
70
0
40
1
41
2.5
42
0.625
43
0.38
44
1.25
45
0
46
0
47
0
48
0
140
2.5
141
0.09
142
0
143
25.4
144
1
145
0
146
1
147
0.625
148
0
71
0
72
0
73
0
74
1
75
0
76
0
77
0
78
0
79
0
170
0
171
2
172
0
173
0
174
0
175
0
176
0
177
0
178
0
179
0
271
4
272
4
273
2
274
2
275
0
276
0
277
2
278
46
279
0
280
0
281
0
282
0
283
1
284
0
285
0
286
0
288
0
289
3
340
Standard
341

371
-2
372
-2
0
ENDTAB
0
TABLE
2
BLOCK_RECORD
5
1
330
0
100
AcDbSymbolTable
70
2
0
BLOCK_RECORD
5
1F
330
1
100
AcDbSymbolTableRecord
100
AcDbBlockTableRecord
2
*Model_Space
70
0
280
1
281
0
0
BLOCK_RECORD
5
1E
330
1
100
AcDbSymbolTableRecord
100
AcDbBlockTableRecord
2
*Paper_Space
70
0
280
1
281
0
0
BLOCK_RECORD
5
49
330
1
100
AcDbSymbolTableRecord
100
AcDbBlockTableRecord
2
*D2
70
0
280
1
281
0
0
BLOCK_RECORD
5
4C
330
1
100
AcDbSymbolTableRecord
100
AcDbBlockTableRecord
2
*D16
70
0
280
1
281
0
0
BLOCK_RECORD
5
4F
330
1
100
AcDbSymbolTableRecord
100
AcDbBlockTableRecord
2
*D15
70
0
280
1
281
0
0
BLOCK_RECORD
5
52
330
1
100
AcDbSymbolTableRecord
100
AcDbBlockTableRecord
2
*D6
70
0
280
1
281
0
0
BLOCK_RECORD
5
55
330
1
100
AcDbSymbolTableRecord
100
AcDbBlockTableRecord
2
*D4
70
0
280
1
281
0
0
BLOCK_RECORD
5
58
330
1
100
AcDbSymbolTableRecord
100
AcDbBlockTableRecord
2
*D9
70
0
280
1
281
0
0
BLOCK_RECORD
5
5B
330
1
100
AcDbSymbolTableRecord
100
AcDbBlockTableRecord
2
*D5
70
0
280
1
281
0
0
BLOCK_RECORD
5
5E
330
1
100
AcDbSymbolTableRecord
100
AcDbBlockTableRecord
2
*D7
70
0
280
1
281
0
0
BLOCK_RECORD
5
61
330
1
100
AcDbSymbolTableRecord
100
AcDbBlockTableRecord
2
*D1
70
0
280
1
281
0
0
BLOCK_RECORD
5
64
330
1
100
AcDbSymbolTableRecord
100
AcDbBlockTableRecord
2
*D11
70
0
280
1
281
0
0
BLOCK_RECORD
5
67
330
1
100
AcDbSymbolTableRecord
100
AcDbBlockTableRecord
2
*D17
70
0
280
1
281
0
0
BLOCK_RECORD
5
6A
330
1
100
AcDbSymbolTableRecord
100
AcDbBlockTableRecord
2
*D14
70
0
280
1
281
0
0
BLOCK_RECORD
5
6D
330
1
100
AcDbSymbolTableRecord
100
AcDbBlockTableRecord
2
*D8
70
0
280
1
281
0
0
BLOCK_RECORD
5
70
330
1
100
AcDbSymbolTableRecord
100
AcDbBlockTableRecord
2
*D3
70
0
280
1
281
0
0
BLOCK_RECORD
5
73
330
1
100
AcDbSymbolTableRecord
100
AcDbBlockTableRecord
2
*D10
70
0
280
1
281
0
0
BLOCK_RECORD
5
76
330
1
100
AcDbSymbolTableRecord
100
AcDbBlockTableRecord
2
*D12
70
0
280
1
281
0
0
BLOCK_RECORD
5
79
330
1
100
AcDbSymbolTableRecord
100
AcDbBlockTableRecord
2
*D13
70
0
280
1
281
0
0
ENDTAB
0
ENDSEC
0
SECTION
2
BLOCKS
0
BLOCK
5
20
330
1F
100
AcDbEntity
8
0
100
AcDbBlockBegin
2
*Model_Space
70
0
10
0
20
0
30
0
3
*Model_Space
1

0
ENDBLK
5
21
330
1F
100
AcDbEntity
8
0
100
AcDbBlockEnd
0
BLOCK
5
1C
330
1B
100
AcDbEntity
8
0
100
AcDbBlockBegin
2
*Paper_Space
70
0
10
0
20
0
30
0
3
*Paper_Space
1

0
ENDBLK
5
1D
330
1F
100
AcDbEntity
8
0
100
AcDbBlockEnd
0
BLOCK
5
4A
330
49
100
AcDbEntity
8
0
100
AcDbBlockBegin
2
*D2
70
1
10
0
20
0
3
*D2
1

0
LINE
5
7C
100
AcDbEntity
8
lengths from center
6
CONTINUOUS
62
7
370
0
100
AcDbLine
10
19.375
20
106
11
5.46787686049
21
106
0
LINE
5
7D
100
AcDbEntity
8
lengths from center
6
CONTINUOUS
62
7
370
0
100
AcDbLine
10
19.375
20
110
11
5.46787686049
21
110
0
LINE
5
7E
100
AcDbEntity
8
lengths from center
6
CONTINUOUS
62
7
370
0
100
AcDbLine
10
6.71787686049
20
101
11
6.71787686049
21
115
0
SOLID
5
7F
100
AcDbEntity
8
lengths from center
6
CONTINUOUS
62
7
370
0
100
AcDbTrace
10
6.71787686049
20
106
30
0
11
7.13416151827
21
103.5
31
0
12
6.30159220272
22
103.5
32
0
13
6.30159220272
23
103.5
33
0
0
SOLID
5
80
100
AcDbEntity
8
lengths from center
6
CONTINUOUS
62
7
370
0
100
AcDbTrace
10
6.71787686049
20
110
30
0
11
6.30159220272
21
112.5
31
0
12
7.13416151827
22
112.5
32
0
13
7.13416151827
23
112.5
33
0
0
MTEXT
5
81
100
AcDbEntity
8
lengths from center
6
CONTINUOUS
62
7
370
0
100
AcDbMText
10
4.84287686049
20
108
30
0
40
2.5
41
1.38888888889
71
5
72
1
1
4
7
standard
210
0
220
0
230
1
50
90
73
2
44
1
0
ENDBLK
5
4B
330
49
100
AcDbEntity
8
0
100
AcDbBlockEnd
0
BLOCK
5
4D
330
4C
100
AcDbEntity
8
0
100
AcDbBlockBegin
2
*D16
70
1
10
0
20
0
3
*D16
1

0
LINE
5
82
100
AcDbEntity
8
lengths from center
6
CONTINUOUS
62
7
370
0
100
AcDbLine
10
321.414213562
20
102.382359313
11
321.414213562
21
107.261275556
0
LINE
5
83
100
AcDbEntity
8
lengths from center
6
CONTINUOUS
62
7
370
0
100
AcDbLine
10
324.242640687
20
102.382359313
11
324.242640687
21
107.261275556
0
LINE
5
84
100
AcDbEntity
8
lengths from center
6
CONTINUOUS
62
7
370
0
100
AcDbLine
10
316.414213562
20
106.011275556
11
329.242640687
21
106.011275556
0
SOLID
5
85
100
AcDbEntity
8
lengths from center
6
CONTINUOUS
62
7
370
0
100
AcDbTrace
10
321.414213562
20
106.011275556
30
0
11
318.914213562
21
105.594990898
31
0
12
318.914213562
22
106.427560213
32
0
13
318.914213562
23
106.427560213
33
0
0
SOLID
5
86
100
AcDbEntity
8
lengths from center
6
CONTINUOUS
62
7
370
0
100
AcDbTrace
10
324.242640687
20
106.011275556
30
0
11
326.742640687
21
106.427560213
31
0
12
326.742640687
22
105.594990898
32
0
13
326.742640687
23
105.594990898
33
0
0
MTEXT
5
87
100
AcDbEntity
8
lengths from center
6
CONTINUOUS
62
7
370
0
100
AcDbMText
10
329.867640687
20
107.886275556
30
0
40
2.5
41
10
71
5
72
1
1
2.8284
7
standard
210
0
220
0
230
1
50
5.08888749034e-13
73
2
44
1
0
ENDBLK
5
4E
330
4C
100
AcDbEntity
8
0
100
AcDbBlockEnd
0
BLOCK
5
50
330
4F
100
AcDbEntity
8
0
100
AcDbBlockBegin
2
*D15
70
1
10
0
20
0
3
*D15
1

0
LINE
5
88
100
AcDbEntity
8
lengths from center
6
CONTINUOUS
62
7
370
0
100
AcDbLine
10
170.625
20
101.757359313
11
336.790270558
21
101.757359313
0
LINE
5
89
100
AcDbEntity
8
lengths from center
6
CONTINUOUS
62
7
370
0
100
AcDbLine
10
170.625
20
-48.2426406871
11
336.790270558
21
-48.2426406871
0
LINE
5
8A
100
AcDbEntity
8
lengths from center
6
CONTINUOUS
62
7
370
0
100
AcDbLine
10
335.540270558
20
101.757359313
11
335.540270558
21
-48.2426406871
0
SOLID
5
8B
100
AcDbEntity
8
lengths from center
6
CONTINUOUS
62
7
370
0
100
AcDbTrace
10
335.540270558
20
101.757359313
30
0
11
335.956555216
21
99.2573593129
31
0
12
335.123985901
22
99.2573593129
32
0
13
335.123985901
23
99.2573593129
33
0
0
SOLID
5
8C
100
AcDbEntity
8
lengths from center
6
CONTINUOUS
62
7
370
0
100
AcDbTrace
10
335.540270558
20
-48.2426406871
30
0
11
335.123985901
21
-45.7426406871
31
0
12
335.956555216
22
-45.7426406871
32
0
13
335.956555216
23
-45.7426406871
33
0
0
MTEXT
5
8D
100
AcDbEntity
8
lengths from center
6
CONTINUOUS
62
7
370
0
100
AcDbMText
10
333.665270558
20
26.7573593129
30
0
40
2.5
41
4.44444444444
71
5
72
1
1
150
7
standard
210
0
220
0
230
1
50
90
73
2
44
1
0
ENDBLK
5
51
330
4F
100
AcDbEntity
8
0
100
AcDbBlockEnd
0
BLOCK
5
53
330
52
100
AcDbEntity
8
0
100
AcDbBlockBegin
2
*D6
70
1
10
0
20
0
3
*D6
1

0
LINE
5
8E
100
AcDbEntity
8
lengths from center
6
CONTINUOUS
62
7
370
0
100
AcDbLine
10
92.0894660941
20
60.4873593129
11
101.664580441
21
60.4873593129
0
LINE
5
8F
100
AcDbEntity
8
lengths from center
6
CONTINUOUS
62
7
370
0
100
AcDbLine
10
92.0894660941
20
27.4644660941
11
101.664580441
21
27.4644660941
0
LINE
5
90
100
AcDbEntity
8
lengths from center
6
CONTINUOUS
62
7
370
0
100
AcDbLine
10
100.414580441
20
60.4873593129
11
100.414580441
21
27.4644660941
0
SOLID
5
91
100
AcDbEntity
8
lengths from center
6
CONTINUOUS
62
7
370
0
100
AcDbTrace
10
100.414580441
20
60.4873593129
30
0
11
100.830865099
21
57.9873593129
31
0
12
99.9982957833
22
57.9873593129
32
0
13
99.9982957833
23
57.9873593129
33
0
0
SOLID
5
92
100
AcDbEntity
8
lengths from center
6
CONTINUOUS
62
7
370
0
100
AcDbTrace
10
100.414580441
20
27.4644660941
30
0
11
99.9982957833
21
29.9644660941
31
0
12
100.830865099
22
29.9644660941
32
0
13
100.830865099
23
29.9644660941
33
0
0
MTEXT
5
93
100
AcDbEntity
8
lengths from center
6
CONTINUOUS
62
7
370
0
100
AcDbMText
10
98.539580441
20
43.9759127035
30
0
40
2.5
41
11.6666666667
71
5
72
1
1
33.0229
7
standard
210
0
220
0
230
1
50
90
73
2
44
1
0
ENDBLK
5
54
330
52
100
AcDbEntity
8
0
100
AcDbBlockEnd
0
BLOCK
5
56
330
55
100
AcDbEntity
8
0
100
AcDbBlockBegin
2
*D4
70
1
10
0
20
0
3
*D4
1

0
LINE
5
94
100
AcDbEntity
8
lengths from center
6
CONTINUOUS
62
7
370
0
100
AcDbLine
10
15.3154175746
20
101.315417575
11
-4.99091217889
21
81.0090878211
0
LINE
5
95
100
AcDbEntity
8
lengths from center
6
CONTINUOUS
62
7
370
0
100
AcDbLine
10
165.315417575
20
-48.6845824254
11
145.009087821
21
-68.9909121789
0
LINE
5
96
100
AcDbEntity
8
lengths from center
6
CONTINUOUS
62
7
370
0
100
AcDbLine
10
-4.10702870241
20
81.8929712976
11
145.892971298
21
-68.1070287024
0
SOLID
5
97
100
AcDbEntity
8
lengths from center
6
CONTINUOUS
62
7
370
0
100
AcDbTrace
10
-4.10702870241
20
81.8929712976
30
0
11
-2.04490404503
21
80.419562049
31
0
12
-2.63361945386
22
79.8308466402
32
0
13
-2.63361945386
23
79.8308466402
33
0
0
SOLID
5
98
100
AcDbEntity
8
lengths from center
6
CONTINUOUS
62
7
370
0
100
AcDbTrace
10
145.892971298
20
-68.1070287024
30
0
11
143.83084664
21
-66.6336194539
31
0
12
144.419562049
22
-66.044904045
32
0
13
144.419562049
23
-66.044904045
33
0
0
MTEXT
5
99
100
AcDbEntity
8
lengths from center
6
CONTINUOUS
62
7
370
0
100
AcDbMText
10
72.2187965123
20
8.21879651231
30
0
40
2.5
41
10.5555555556
71
5
72
1
1
212.132
7
standard
210
0
220
0
230
1
50
315
73
2
44
1
0
ENDBLK
5
57
330
55
100
AcDbEntity
8
0
100
AcDbBlockEnd
0
BLOCK
5
59
330
58
100
AcDbEntity
8
0
100
AcDbBlockBegin
2
*D9
70
1
10
0
20
0
3
*D9
1

0
LINE
5
9A
100
AcDbEntity
8
lengths from center
6
CONTINUOUS
62
7
370
0
100
AcDbLine
10
30.625
20
60.4873593129
11
38.7286814322
21
60.4873593129
0
LINE
5
9B
100
AcDbEntity
8
lengths from center
6
CONTINUOUS
62
7
370
0
100
AcDbLine
10
30.625
20
108
11
38.7286814322
21
108
0
LINE
5
9C
100
AcDbEntity
8
lengths from center
6
CONTINUOUS
62
7
370
0
100
AcDbLine
10
37.4786814322
20
60.4873593129
11
37.4786814322
21
108
0
SOLID
5
9D
100
AcDbEntity
8
lengths from center
6
CONTINUOUS
62
7
370
0
100
AcDbTrace
10
37.4786814322
20
60.4873593129
30
0
11
37.0623967744
21
62.9873593129
31
0
12
37.89496609
22
62.9873593129
32
0
13
37.89496609
23
62.9873593129
33
0
0
SOLID
5
9E
100
AcDbEntity
8
lengths from center
6
CONTINUOUS
62
7
370
0
100
AcDbTrace
10
37.4786814322
20
108
30
0
11
37.89496609
21
105.5
31
0
12
37.0623967744
22
105.5
32
0
13
37.0623967744
23
105.5
33
0
0
MTEXT
5
9F
100
AcDbEntity
8
lengths from center
6
CONTINUOUS
62
7
370
0
100
AcDbMText
10
35.6036814322
20
84.2436796564
30
0
40
2.5
41
11.3888888889
71
5
72
1
1
47.5126
7
standard
210
0
220
0
230
1
50
90
73
2
44
1
0
ENDBLK
5
5A
330
58
100
AcDbEntity
8
0
100
AcDbBlockEnd
0
BLOCK
5
5C
330
5B
100
AcDbEntity
8
0
100
AcDbBlockBegin
2
*D5
70
1
10
0
20
0
3
*D5
1

0
LINE
5
A0
100
AcDbEntity
8
lengths from center
6
CONTINUOUS
62
7
370
0
100
AcDbLine
10
20
20
112.625
11
20
21
132.425385013
0
LINE
5
A1
100
AcDbEntity
8
lengths from center
6
CONTINUOUS
62
7
370
0
100
AcDbLine
10
320
20
112.625
11
320
21
132.425385013
0
LINE
5
A2
100
AcDbEntity
8
lengths from center
6
CONTINUOUS
62
7
370
0
100
AcDbLine
10
20
20
131.175385013
11
320
21
131.175385013
0
SOLID
5
A3
100
AcDbEntity
8
lengths from center
6
CONTINUOUS
62
7
370
0
100
AcDbTrace
10
20
20
131.175385013
30
0
11
22.5
21
131.591669671
31
0
12
22.5
22
130.759100355
32
0
13
22.5
23
130.759100355
33
0
0
SOLID
5
A4
100
AcDbEntity
8
lengths from center
6
CONTINUOUS
62
7
370
0
100
AcDbTrace
10
320
20
131.175385013
30
0
11
317.5
21
130.759100355
31
0
12
317.5
22
131.591669671
32
0
13
317.5
23
131.591669671
33
0
0
MTEXT
5
A5
100
AcDbEntity
8
lengths from center
6
CONTINUOUS
62
7
370
0
100
AcDbMText
10
170
20
133.050385013
30
0
40
2.5
41
5
71
5
72
1
1
300
7
standard
210
0
220
0
230
1
50
0
73
2
44
1
0
ENDBLK
5
5D
330
5B
100
AcDbEntity
8
0
100
AcDbBlockEnd
0
BLOCK
5
5F
330
5E
100
AcDbEntity
8
0
100
AcDbBlockBegin
2
*D7
70
1
10
0
20
0
3
*D7
1

0
LINE
5
A6
100
AcDbEntity
8
lengths from center
6
CONTINUOUS
62
7
370
0
100
AcDbLine
10
160.889718626
20
60.4873593129
11
156.443319988
21
60.4873593129
0
LINE
5
A7
100
AcDbEntity
8
lengths from center
6
CONTINUOUS
62
7
370
0
100
AcDbLine
10
160.889718626
20
-38.3431457505
11
156.443319988
21
-38.3431457505
0
LINE
5
A8
100
AcDbEntity
8
lengths from center
6
CONTINUOUS
62
7
370
0
100
AcDbLine
10
157.693319988
20
60.4873593129
11
157.693319988
21
-38.3431457505
0
SOLID
5
A9
100
AcDbEntity
8
lengths from center
6
CONTINUOUS
62
7
370
0
100
AcDbTrace
10
157.693319988
20
60.4873593129
30
0
11
158.109604646
21
57.9873593129
31
0
12
157.277035331
22
57.9873593129
32
0
13
157.277035331
23
57.9873593129
33
0
0
SOLID
5
AA
100
AcDbEntity
8
lengths from center
6
CONTINUOUS
62
7
370
0
100
AcDbTrace
10
157.693319988
20
-38.3431457505
30
0
11
157.277035331
21
-35.8431457505
31
0
12
158.109604646
22
-35.8431457505
32
0
13
158.109604646
23
-35.8431457505
33
0
0
MTEXT
5
AB
100
AcDbEntity
8
lengths from center
6
CONTINUOUS
62
7
370
0
100
AcDbMText
10
155.818319988
20
11.0721067812
30
0
40
2.5
41
11.6666666667
71
5
72
1
1
98.8305
7
standard
210
0
220
0
230
1
50
90
73
2
44
1
0
ENDBLK
5
60
330
5E
100
AcDbEntity
8
0
100
AcDbBlockEnd
0
BLOCK
5
62
330
61
100
AcDbEntity
8
0
100
AcDbBlockBegin
2
*D1
70
1
10
0
20
0
3
*D1
1

0
LINE
5
AC
100
AcDbEntity
8
lengths from center
6
CONTINUOUS
62
7
370
0
100
AcDbLine
10
19.375
20
112
11
-13.625036322
21
112
0
LINE
5
AD
100
AcDbEntity
8
lengths from center
6
CONTINUOUS
62
7
370
0
100
AcDbLine
10
19.375
20
110
11
-13.625036322
21
110
0
LINE
5
AE
100
AcDbEntity
8
lengths from center
6
CONTINUOUS
62
7
370
0
100
AcDbLine
10
-12.375036322
20
117
11
-12.375036322
21
105
0
SOLID
5
AF
100
AcDbEntity
8
lengths from center
6
CONTINUOUS
62
7
370
0
100
AcDbTrace
10
-12.375036322
20
112
30
0
11
-12.7913209797
21
114.5
31
0
12
-11.9587516642
22
114.5
32
0
13
-11.9587516642
23
114.5
33
0
0
SOLID
5
B0
100
AcDbEntity
8
lengths from center
6
CONTINUOUS
62
7
370
0
100
AcDbTrace
10
-12.375036322
20
110
30
0
11
-11.9587516642
21
107.5
31
0
12
-12.7913209797
22
107.5
32
0
13
-12.7913209797
23
107.5
33
0
0
MTEXT
5
B1
100
AcDbEntity
8
lengths from center
6
CONTINUOUS
62
7
370
0
100
AcDbMText
10
-14.250036322
20
111
30
0
40
2.5
41
1.11111111111
71
5
72
1
1
2
7
standard
210
0
220
0
230
1
50
90
73
2
44
1
0
ENDBLK
5
63
330
61
100
AcDbEntity
8
0
100
AcDbBlockEnd
0
BLOCK
5
65
330
64
100
AcDbEntity
8
0
100
AcDbBlockBegin
2
*D11
70
1
10
0
20
0
3
*D11
1

0
LINE
5
B2
100
AcDbEntity
8
lengths from center
6
CONTINUOUS
62
7
370
0
100
AcDbLine
10
17.1715728753
20
103.796572875
11
17.1715728753
21
107.85728126
0
LINE
5
B3
100
AcDbEntity
8
lengths from center
6
CONTINUOUS
62
7
370
0
100
AcDbLine
10
22.8284271247
20
103.796572875
11
22.8284271247
21
107.85728126
0
LINE
5
B4
100
AcDbEntity
8
lengths from center
6
CONTINUOUS
62
7
370
0
100
AcDbLine
10
12.1715728753
20
106.60728126
11
27.8284271247
21
106.60728126
0
SOLID
5
B5
100
AcDbEntity
8
lengths from center
6
CONTINUOUS
62
7
370
0
100
AcDbTrace
10
17.1715728753
20
106.60728126
30
0
11
14.6715728753
21
106.190996603
31
0
12
14.6715728753
22
107.023565918
32
0
13
14.6715728753
23
107.023565918
33
0
0
SOLID
5
B6
100
AcDbEntity
8
lengths from center
6
CONTINUOUS
62
7
370
0
100
AcDbTrace
10
22.8284271247
20
106.60728126
30
0
11
25.3284271247
21
107.023565918
31
0
12
25.3284271247
22
106.190996603
32
0
13
25.3284271247
23
106.190996603
33
0
0
MTEXT
5
B7
100
AcDbEntity
8
lengths from center
6
CONTINUOUS
62
7
370
0
100
AcDbMText
10
28.3145382359
20
108.48228126
30
0
40
2.5
41
9.72222222222
71
5
72
1
1
5.6569
7
standard
210
0
220
0
230
1
50
360
73
2
44
1
0
ENDBLK
5
66
330
64
100
AcDbEntity
8
0
100
AcDbBlockEnd
0
BLOCK
5
68
330
67
100
AcDbEntity
8
0
100
AcDbBlockBegin
2
*D17
70
1
10
0
20
0
3
*D17
1

0
LINE
5
B8
100
AcDbEntity
8
a
6
CONTINUOUS
62
7
370
0
100
AcDbLine
10
179.110281374
20
60.4873593129
11
324.422651667
21
60.4873593129
0
LINE
5
B9
100
AcDbEntity
8
a
6
CONTINUOUS
62
7
370
0
100
AcDbLine
10
179.110281374
20
-48.2426406871
11
324.422651667
21
-48.2426406871
0
LINE
5
BA
100
AcDbEntity
8
a
6
CONTINUOUS
62
7
370
0
100
AcDbLine
10
323.172651667
20
60.4873593129
11
323.172651667
21
-48.2426406871
0
SOLID
5
BB
100
AcDbEntity
8
a
6
CONTINUOUS
62
7
370
0
100
AcDbTrace
10
323.172651667
20
60.4873593129
30
0
11
323.588936324
21
57.9873593129
31
0
12
322.756367009
22
57.9873593129
32
0
13
322.756367009
23
57.9873593129
33
0
0
SOLID
5
BC
100
AcDbEntity
8
a
6
CONTINUOUS
62
7
370
0
100
AcDbTrace
10
323.172651667
20
-48.2426406871
30
0
11
322.756367009
21
-45.7426406871
31
0
12
323.588936324
22
-45.7426406871
32
0
13
323.588936324
23
-45.7426406871
33
0
0
MTEXT
5
BD
100
AcDbEntity
8
a
6
CONTINUOUS
62
7
370
0
100
AcDbMText
10
321.297651667
20
6.12235931288
30
0
40
2.5
41
9.16666666667
71
5
72
1
1
108.73
7
standard
210
0
220
0
230
1
50
90
73
2
44
1
0
ENDBLK
5
69
330
67
100
AcDbEntity
8
0
100
AcDbBlockEnd
0
BLOCK
5
6B
330
6A
100
AcDbEntity
8
0
100
AcDbBlockBegin
2
*D14
70
1
10
0
20
0
3
*D14
1

0
LINE
5
BE
100
AcDbEntity
8
lengths from center
6
CONTINUOUS
62
7
370
0
100
AcDbLine
10
22.0392135624
20
104.585786438
11
54.0612880915
21
104.585786438
0
LINE
5
BF
100
AcDbEntity
8
lengths from center
6
CONTINUOUS
62
7
370
0
100
AcDbLine
10
22.0392135624
20
97.5147186258
11
54.0612880915
21
97.5147186258
0
LINE
5
C0
100
AcDbEntity
8
lengths from center
6
CONTINUOUS
62
7
370
0
100
AcDbLine
10
52.8112880915
20
104.585786438
11
52.8112880915
21
97.5147186258
0
SOLID
5
C1
100
AcDbEntity
8
lengths from center
6
CONTINUOUS
62
7
370
0
100
AcDbTrace
10
52.8112880915
20
104.585786438
30
0
11
53.2275727493
21
102.085786438
31
0
12
52.3950034338
22
102.085786438
32
0
13
52.3950034338
23
102.085786438
33
0
0
SOLID
5
C2
100
AcDbEntity
8
lengths from center
6
CONTINUOUS
62
7
370
0
100
AcDbTrace
10
52.8112880915
20
97.5147186258
30
0
11
52.3950034338
21
100.014718626
31
0
12
53.2275727493
22
100.014718626
32
0
13
53.2275727493
23
100.014718626
33
0
0
MTEXT
5
C3
100
AcDbEntity
8
lengths from center
6
CONTINUOUS
62
7
370
0
100
AcDbMText
10
50.9362880915
20
109.516341993
30
0
40
2.5
41
8.61111111111
71
5
72
1
1
7.0711
7
standard
210
0
220
0
230
1
50
90
73
2
44
1
0
ENDBLK
5
6C
330
6A
100
AcDbEntity
8
0
100
AcDbBlockEnd
0
BLOCK
5
6E
330
6D
100
AcDbEntity
8
0
100
AcDbBlockBegin
2
*D8
70
1
10
0
20
0
3
*D8
1

0
LINE
5
C4
100
AcDbEntity
8
lengths from center
6
CONTINUOUS
62
7
370
0
100
AcDbLine
10
169.375
20
60.4873593129
11
163.514769315
21
60.4873593129
0
LINE
5
C5
100
AcDbEntity
8
lengths from center
6
CONTINUOUS
62
7
370
0
100
AcDbLine
10
169.375
20
111
11
163.514769315
21
111
0
LINE
5
C6
100
AcDbEntity
8
lengths from center
6
CONTINUOUS
62
7
370
0
100
AcDbLine
10
164.764769315
20
60.4873593129
11
164.764769315
21
111
0
SOLID
5
C7
100
AcDbEntity
8
lengths from center
6
CONTINUOUS
62
7
370
0
100
AcDbTrace
10
164.764769315
20
60.4873593129
30
0
11
164.348484657
21
62.9873593129
31
0
12
165.181053973
22
62.9873593129
32
0
13
165.181053973
23
62.9873593129
33
0
0
SOLID
5
C8
100
AcDbEntity
8
lengths from center
6
CONTINUOUS
62
7
370
0
100
AcDbTrace
10
164.764769315
20
111
30
0
11
165.181053973
21
108.5
31
0
12
164.348484657
22
108.5
32
0
13
164.348484657
23
108.5
33
0
0
MTEXT
5
C9
100
AcDbEntity
8
lengths from center
6
CONTINUOUS
62
7
370
0
100
AcDbMText
10
162.889769315
20
85.7436796564
30
0
40
2.5
41
11.1111111111
71
5
72
1
1
50.5126
7
standard
210
0
220
0
230
1
50
90
73
2
44
1
0
ENDBLK
5
6F
330
6D
100
AcDbEntity
8
0
100
AcDbBlockEnd
0
BLOCK
5
71
330
70
100
AcDbEntity
8
0
100
AcDbBlockBegin
2
*D3
70
1
10
0
20
0
3
*D3
1

0
LINE
5
CA
100
AcDbEntity
8
lengths from center
6
CONTINUOUS
62
7
370
0
100
AcDbLine
10
20
20
110.625
11
20
21
126.414653085
0
LINE
5
CB
100
AcDbEntity
8
lengths from center
6
CONTINUOUS
62
7
370
0
100
AcDbLine
10
40
20
110.625
11
40
21
126.414653085
0
LINE
5
CC
100
AcDbEntity
8
lengths from center
6
CONTINUOUS
62
7
370
0
100
AcDbLine
10
20
20
125.164653085
11
40
21
125.164653085
0
SOLID
5
CD
100
AcDbEntity
8
lengths from center
6
CONTINUOUS
62
7
370
0
100
AcDbTrace
10
20
20
125.164653085
30
0
11
22.5
21
125.580937743
31
0
12
22.5
22
124.748368427
32
0
13
22.5
23
124.748368427
33
0
0
SOLID
5
CE
100
AcDbEntity
8
lengths from center
6
CONTINUOUS
62
7
370
0
100
AcDbTrace
10
40
20
125.164653085
30
0
11
37.5
21
124.748368427
31
0
12
37.5
22
125.580937743
32
0
13
37.5
23
125.580937743
33
0
0
MTEXT
5
CF
100
AcDbEntity
8
lengths from center
6
CONTINUOUS
62
7
370
0
100
AcDbMText
10
30
20
127.039653085
30
0
40
2.5
41
3.05555555556
71
5
72
1
1
20
7
standard
210
0
220
0
230
1
50
0
73
2
44
1
0
ENDBLK
5
72
330
70
100
AcDbEntity
8
0
100
AcDbBlockEnd
0
BLOCK
5
74
330
73
100
AcDbEntity
8
0
100
AcDbBlockBegin
2
*D10
70
1
10
0
20
0
3
*D10
1

0
LINE
5
D0
100
AcDbEntity
8
lengths from center
6
CONTINUOUS
62
7
370
0
100
AcDbLine
10
25.0318542495
20
60.4873593129
11
19.9643479805
21
60.4873593129
0
LINE
5
D1
100
AcDbEntity
8
lengths from center
6
CONTINUOUS
62
7
370
0
100
AcDbLine
10
25.0318542495
20
97.5147186258
11
19.9643479805
21
97.5147186258
0
LINE
5
D2
100
AcDbEntity
8
lengths from center
6
CONTINUOUS
62
7
370
0
100
AcDbLine
10
21.2143479805
20
60.4873593129
11
21.2143479805
21
97.5147186258
0
SOLID
5
D3
100
AcDbEntity
8
lengths from center
6
CONTINUOUS
62
7
370
0
100
AcDbTrace
10
21.2143479805
20
60.4873593129
30
0
11
20.7980633227
21
62.9873593129
31
0
12
21.6306326383
22
62.9873593129
32
0
13
21.6306326383
23
62.9873593129
33
0
0
SOLID
5
D4
100
AcDbEntity
8
lengths from center
6
CONTINUOUS
62
7
370
0
100
AcDbTrace
10
21.2143479805
20
97.5147186258
30
0
11
21.6306326383
21
95.0147186258
31
0
12
20.7980633227
22
95.0147186258
32
0
13
20.7980633227
23
95.0147186258
33
0
0
MTEXT
5
D5
100
AcDbEntity
8
lengths from center
6
CONTINUOUS
62
7
370
0
100
AcDbMText
10
19.3393479805
20
79.0010389693
30
0
40
2.5
41
11.9444444444
71
5
72
1
1
37.0274
7
standard
210
0
220
0
230
1
50
90
73
2
44
1
0
ENDBLK
5
75
330
73
100
AcDbEntity
8
0
100
AcDbBlockEnd
0
BLOCK
5
77
330
76
100
AcDbEntity
8
0
100
AcDbBlockBegin
2
*D12
70
1
10
0
20
0
3
*D12
1

0
LINE
5
D6
100
AcDbEntity
8
lengths from center
6
CONTINUOUS
62
7
370
0
100
AcDbLine
10
19.375
20
106
11
11.3438596725
21
106
0
LINE
5
D7
100
AcDbEntity
8
lengths from center
6
CONTINUOUS
62
7
370
0
100
AcDbLine
10
19.375
20
103.171572875
11
11.3438596725
21
103.171572875
0
LINE
5
D8
100
AcDbEntity
8
lengths from center
6
CONTINUOUS
62
7
370
0
100
AcDbLine
10
12.5938596725
20
111
11
12.5938596725
21
98.1715728753
0
SOLID
5
D9
100
AcDbEntity
8
lengths from center
6
CONTINUOUS
62
7
370
0
100
AcDbTrace
10
12.5938596725
20
106
30
0
11
12.1775750147
21
108.5
31
0
12
13.0101443302
22
108.5
32
0
13
13.0101443302
23
108.5
33
0
0
SOLID
5
DA
100
AcDbEntity
8
lengths from center
6
CONTINUOUS
62
7
370
0
100
AcDbTrace
10
12.5938596725
20
103.171572875
30
0
11
13.0101443302
21
100.671572875
31
0
12
12.1775750147
22
100.671572875
32
0
13
12.1775750147
23
100.671572875
33
0
0
MTEXT
5
DB
100
AcDbEntity
8
lengths from center
6
CONTINUOUS
62
7
370
0
100
AcDbMText
10
10.7188596725
20
111.625
30
0
40
2.5
41
10
71
5
72
1
1
2.8284
7
standard
210
0
220
0
230
1
50
90
73
2
44
1
0
ENDBLK
5
78
330
76
100
AcDbEntity
8
0
100
AcDbBlockEnd
0
BLOCK
5
7A
330
79
100
AcDbEntity
8
0
100
AcDbBlockBegin
2
*D13
70
1
10
0
20
0
3
*D13
1

0
LINE
5
DC
100
AcDbEntity
8
lengths from center
6
CONTINUOUS
62
7
370
0
100
AcDbLine
10
16.5465728753
20
103.171572875
11
14.8162407344
21
103.171572875
0
LINE
5
DD
100
AcDbEntity
8
lengths from center
6
CONTINUOUS
62
7
370
0
100
AcDbLine
10
16.5465728753
20
91.8578643763
11
14.8162407344
21
91.8578643763
0
LINE
5
DE
100
AcDbEntity
8
lengths from center
6
CONTINUOUS
62
7
370
0
100
AcDbLine
10
16.0662407344
20
103.171572875
11
16.0662407344
21
91.8578643763
0
SOLID
5
DF
100
AcDbEntity
8
lengths from center
6
CONTINUOUS
62
7
370
0
100
AcDbTrace
10
16.0662407344
20
103.171572875
30
0
11
16.4825253922
21
100.671572875
31
0
12
15.6499560766
22
100.671572875
32
0
13
15.6499560766
23
100.671572875
33
0
0
SOLID
5
E0
100
AcDbEntity
8
lengths from center
6
CONTINUOUS
62
7
370
0
100
AcDbTrace
10
16.0662407344
20
91.8578643763
30
0
11
15.6499560766
21
94.3578643763
31
0
12
16.4825253922
22
94.3578643763
32
0
13
16.4825253922
23
94.3578643763
33
0
0
MTEXT
5
E1
100
AcDbEntity
8
lengths from center
6
CONTINUOUS
62
7
370
0
100
AcDbMText
10
14.1912407344
20
97.5147186258
30
0
40
2.5
41
10
71
5
72
1
1
11.3137
7
standard
210
0
220
0
230
1
50
90
73
2
44
1
0
ENDBLK
5
7B
330
79
100
AcDbEntity
8
0
100
AcDbBlockEnd
0
ENDSEC
0
SECTION
2
ENTITIES
0
LINE
5
E2
100
AcDbEntity
8
0
6
ByLayer
62
256
370
-1
100
AcDbLine
10
20
20
110
11
320
21
110
0
LINE
5
E3
100
AcDbEntity
8
0
6
ByLayer
62
256
370
-1
100
AcDbLine
10
20
20
112
11
320
21
112
0
LINE
5
E4
100
AcDbEntity
8
0
6
ByLayer
62
256
370
-1
100
AcDbLine
10
15.7573593129
20
101.757359313
11
165.757359313
21
-48.2426406871
0
LINE
5
E5
100
AcDbEntity
8
0
6
ByLayer
62
256
370
-1
100
AcDbLine
10
17.1715728753
20
103.171572875
11
167.171572875
21
-46.8284271247
0
LINE
5
E6
100
AcDbEntity
8
0
6
ByLayer
62
256
370
-1
100
AcDbLine
10
17.1715728753
20
103.171572875
11
20
21
106
0
LINE
5
E7
100
AcDbEntity
8
0
6
ByLayer
62
256
370
-1
100
AcDbLine
10
17.1715728753
20
103.171572875
11
15.7573593129
21
101.757359313
0
LINE
5
E8
100
AcDbEntity
8
0
6
ByLayer
62
256
370
-1
100
AcDbLine
10
20
20
106
11
20
21
110
0
LINE
5
E9
100
AcDbEntity
8
0
6
ByLayer
62
256
370
-1
100
AcDbLine
10
20
20
110
11
20
21
112
0
LINE
5
EA
100
AcDbEntity
8
0
6
ByLayer
62
256
370
-1
100
AcDbLine
10
320
20
106
11
320
21
110
0
LINE
5
EB
100
AcDbEntity
8
0
6
ByLayer
62
256
370
-1
100
AcDbLine
10
320
20
110
11
320
21
112
0
LINE
5
EC
100
AcDbEntity
8
0
6
ByLayer
62
256
370
-1
100
AcDbLine
10
174.242640687
20
-48.2426406871
11
324.242640687
21
101.757359313
0
LINE
5
ED
100
AcDbEntity
8
0
6
ByLayer
62
256
370
-1
100
AcDbLine
10
172.828427125
20
-46.8284271247
11
322.828427125
21
103.171572875
0
LINE
5
EE
100
AcDbEntity
8
0
6
ByLayer
62
256
370
-1
100
AcDbLine
10
320
20
106
11
322.828427125
21
103.171572875
0
LINE
5
EF
100
AcDbEntity
8
0
6
ByLayer
62
256
370
-1
100
AcDbLine
10
322.828427125
20
103.171572875
11
324.242640687
21
101.757359313
0
LINE
5
F0
100
AcDbEntity
8
0
6
ByLayer
62
256
370
-1
100
AcDbLine
10
170
20
-44
11
172.828427125
21
-46.8284271247
0
LINE
5
F1
100
AcDbEntity
8
0
6
ByLayer
62
256
370
-1
100
AcDbLine
10
172.828427125
20
-46.8284271247
11
174.242640687
21
-48.2426406871
0
LINE
5
F2
100
AcDbEntity
8
0
6
ByLayer
62
256
370
-1
100
AcDbLine
10
170
20
-44
11
167.171572875
21
-46.8284271247
0
LINE
5
F3
100
AcDbEntity
8
0
6
ByLayer
62
256
370
-1
100
AcDbLine
10
167.171572875
20
-46.8284271247
11
165.757359313
21
-48.2426406871
0
LINE
5
F4
100
AcDbEntity
8
0
6
ByLayer
62
256
370
-1
100
AcDbLine
10
40
20
106
11
40
21
110
0
LINE
5
F5
100
AcDbEntity
8
0
6
ByLayer
62
256
370
-1
100
AcDbLine
10
31.313708499
20
89.0294372515
11
34.1421356237
21
91.8578643763
0
LINE
5
F6
100
AcDbEntity
8
0
6
ByLayer
62
256
370
-1
100
AcDbLine
10
300
20
106
11
300
21
110
0
LINE
5
F7
100
AcDbEntity
8
0
6
ByLayer
62
256
370
-1
100
AcDbLine
10
305.857864376
20
91.8578643763
11
308.686291501
21
89.0294372515
0
LINE
5
F8
100
AcDbEntity
8
0
6
ByLayer
62
256
370
-1
100
AcDbLine
10
184.142135624
20
-29.8578643763
11
186.970562748
21
-32.686291501
0
LINE
5
F9
100
AcDbEntity
8
0
6
ByLayer
62
256
370
-1
100
AcDbLine
10
155.857864376
20
-29.8578643763
11
153.029437252
21
-32.686291501
0
LINE
5
FA
100
AcDbEntity
8
0
6
ByLayer
62
256
370
-1
100
AcDbLine
10
300
20
106
11
320
21
106
0
LINE
5
FB
100
AcDbEntity
8
0
6
ByLayer
62
256
370
-1
100
AcDbLine
10
305.857864376
20
91.8578643763
11
320
21
106
0
LINE
5
FC
100
AcDbEntity
8
0
6
ByLayer
62
256
370
-1
100
AcDbLine
10
155.857864376
20
-29.8578643763
11
170
21
-44
0
LINE
5
FD
100
AcDbEntity
8
0
6
ByLayer
62
256
370
-1
100
AcDbLine
10
170
20
-44
11
184.142135624
21
-29.8578643763
0
LINE
5
FE
100
AcDbEntity
8
0
6
ByLayer
62
256
370
-1
100
AcDbLine
10
34.1421356237
20
91.8578643763
11
20
21
106
0
LINE
5
FF
100
AcDbEntity
8
0
6
ByLayer
62
256
370
-1
100
AcDbLine
10
20
20
106
11
40
21
106
0
LINE
5
100
100
AcDbEntity
8
0
6
ByLayer
62
256
370
-1
100
AcDbLine
10
17.1715728753
20
103.171572875
11
31.313708499
21
89.0294372515
0
LINE
5
101
100
AcDbEntity
8
0
6
ByLayer
62
256
370
-1
100
AcDbLine
10
20
20
110
11
40
21
110
0
LINE
5
102
100
AcDbEntity
8
0
6
ByLayer
62
256
370
-1
100
AcDbLine
10
300
20
110
11
320
21
110
0
LINE
5
103
100
AcDbEntity
8
0
6
ByLayer
62
256
370
-1
100
AcDbLine
10
322.828427125
20
103.171572875
11
308.686291501
21
89.0294372515
0
LINE
5
104
100
AcDbEntity
8
0
6
ByLayer
62
256
370
-1
100
AcDbLine
10
153.029437252
20
-32.686291501
11
167.171572875
21
-46.8284271247
0
LINE
5
105
100
AcDbEntity
8
0
6
ByLayer
62
256
370
-1
100
AcDbLine
10
172.828427125
20
-46.8284271247
11
186.970562748
21
-32.686291501
0
LINE
5
106
100
AcDbEntity
8
0
6
ByLayer
62
256
370
-1
100
AcDbLine
10
30
20
106
11
30
21
110
0
LINE
5
107
100
AcDbEntity
8
0
6
ByLayer
62
256
370
-1
100
AcDbLine
10
27.0710678119
20
98.9289321881
11
24.2426406871
21
96.1005050634
0
LINE
5
108
100
AcDbEntity
8
0
6
ByLayer
62
256
370
-1
100
AcDbLine
10
310
20
110
11
310
21
106
0
LINE
5
109
100
AcDbEntity
8
0
6
ByLayer
62
256
370
-1
100
AcDbLine
10
312.928932188
20
98.9289321881
11
315.757359313
21
96.1005050634
0
LINE
5
10A
100
AcDbEntity
8
0
6
ByLayer
62
256
370
-1
100
AcDbLine
10
162.928932188
20
-36.9289321881
11
160.100505063
21
-39.7573593129
0
LINE
5
10B
100
AcDbEntity
8
0
6
ByLayer
62
256
370
-1
100
AcDbLine
10
177.071067812
20
-36.9289321881
11
179.899494937
21
-39.7573593129
0
LINE
5
10C
100
AcDbEntity
8
0
6
ByLayer
62
256
370
-1
100
AcDbLine
10
92.1715728753
20
28.1715728753
11
90.7573593129
21
26.7573593129
0
LINE
5
10D
100
AcDbEntity
8
0
6
ByLayer
62
256
370
-1
100
AcDbLine
10
247.828427125
20
28.1715728753
11
249.242640687
21
26.7573593129
0
LINE
5
10E
100
AcDbEntity
8
0
6
ByLayer
62
256
370
-1
100
AcDbLine
10
170
20
112
11
170
21
110
0
LINE
5
10F
100
AcDbEntity
8
lengths from base
6
ByLayer
62
256
370
-1
100
AcDbLine
10
25.6568542495
20
97.5147186258
11
25.6568542495
21
-48.2426406871
0
LINE
5
110
100
AcDbEntity
8
lengths from base
6
ByLayer
62
256
370
-1
100
AcDbLine
10
30
20
108
11
30
21
-48.2426406871
0
LINE
5
111
100
AcDbEntity
8
lengths from base
6
ByLayer
62
256
370
-1
100
AcDbLine
10
91.4644660941
20
27.4644660941
11
91.4644660941
21
-48.2426406871
0
LINE
5
112
100
AcDbEntity
8
lengths from base
6
ByLayer
62
256
370
-1
100
AcDbLine
10
161.514718626
20
-38.3431457505
11
161.514718626
21
-48.2426406871
0
LINE
5
113
100
AcDbEntity
8
lengths from base
6
ByLayer
62
256
370
-1
100
AcDbLine
10
178.485281374
20
-38.3431457505
11
178.485281374
21
-48.2426406871
0
LINE
5
114
100
AcDbEntity
8
lengths from base
6
ByLayer
62
256
370
-1
100
AcDbLine
10
248.535533906
20
27.4644660941
11
248.535533906
21
-48.2426406871
0
LINE
5
115
100
AcDbEntity
8
lengths from base
6
ByLayer
62
256
370
-1
100
AcDbLine
10
310
20
108
11
310
21
-48.2426406871
0
LINE
5
116
100
AcDbEntity
8
lengths from base
6
ByLayer
62
256
370
-1
100
AcDbLine
10
314.343145751
20
97.5147186258
11
314.343145751
21
-48.2426406871
0
LINE
5
117
100
AcDbEntity
8
lengths from center
6
ByLayer
62
256
370
-1
100
AcDbLine
10
91.4644660941
20
27.4644660941
11
91.4644660941
21
60.4873593129
0
LINE
5
118
100
AcDbEntity
8
lengths from center
6
ByLayer
62
256
370
-1
100
AcDbLine
10
161.514718626
20
-38.3431457505
11
161.514718626
21
60.4873593129
0
LINE
5
119
100
AcDbEntity
8
lengths from center
6
ByLayer
62
256
370
-1
100
AcDbLine
10
178.485281374
20
-38.3431457505
11
178.485281374
21
60.4873593129
0
LINE
5
11A
100
AcDbEntity
8
lengths from center
6
ByLayer
62
256
370
-1
100
AcDbLine
10
248.535533906
20
27.4644660941
11
248.535533906
21
60.4873593129
0
LINE
5
11B
100
AcDbEntity
8
lengths from base
6
ByLayer
62
256
370
-1
100
AcDbLine
10
170
20
111
11
170
21
-48.2426406871
0
LINE
5
11C
100
AcDbEntity
8
lengths from center
6
ByLayer
62
256
370
-1
100
AcDbLine
10
30
20
108
11
30
21
60.4873593129
0
LINE
5
11D
100
AcDbEntity
8
lengths from center
6
ByLayer
62
256
370
-1
100
AcDbLine
10
25.6568542495
20
97.5147186258
11
25.6568542495
21
60.4873593129
0
LINE
5
11E
100
AcDbEntity
8
lengths from center
6
ByLayer
62
256
370
-1
100
AcDbLine
10
310
20
108
11
310
21
60.4873593129
0
LINE
5
11F
100
AcDbEntity
8
lengths from center
6
ByLayer
62
256
370
-1
100
AcDbLine
10
314.343145751
20
97.5147186258
11
314.343145751
21
60.4873593129
0
LINE
5
120
100
AcDbEntity
8
lengths from center
6
ByLayer
62
256
370
-1
100
AcDbLine
10
314.343145751
20
60.4873593129
11
25.6568542495
21
60.4873593129
0
LINE
5
121
100
AcDbEntity
8
lengths from base
6
ByLayer
62
256
370
-1
100
AcDbLine
10
20
20
-48.2426406871
11
320
21
-48.2426406871
0
LINE
5
122
100
AcDbEntity
8
lengths from base
6
ByLayer
62
256
370
-1
100
AcDbLine
10
22.8284271247
20
103.171572875
11
17.1715728753
21
103.171572875
0
LINE
5
123
100
AcDbEntity
8
lengths from base
6
ByLayer
62
256
370
-1
100
AcDbLine
10
34.1421356237
20
91.8578643763
11
-74.5878643763
21
91.8578643763
0
LINE
5
124
100
AcDbEntity
8
lengths from base
6
ByLayer
62
256
370
-1
100
AcDbLine
10
20
20
103.171572875
11
20
21
106
0
LINE
5
125
100
AcDbEntity
8
lengths from base
6
ByLayer
62
256
370
-1
100
AcDbLine
10
30
20
104.585786438
11
-88.73
21
104.585786438
0
MTEXT
5
126
100
AcDbEntity
8
lengths from center
6
ByLayer
62
256
370
-1
100
AcDbMText
10
22.6286378459
20
84.5038194557
30
0
40
5
41
5
71
1
72
1
1
y1
7

210
0
220
0
230
1
50
0
73
2
44
1
0
MTEXT
5
127
100
AcDbEntity
8
lengths from center
6
ByLayer
62
256
370
-1
100
AcDbMText
10
27.932224841
20
75.6645077971
30
0
40
5
41
6.11111111111
71
1
72
1
1
y2
7

210
0
220
0
230
1
50
0
73
2
44
1
0
MTEXT
5
128
100
AcDbEntity
8
lengths from center
6
ByLayer
62
256
370
-1
100
AcDbMText
10
88.3931165854
20
47.3787104898
30
0
40
5
41
6.11111111111
71
1
72
1
1
y3
7

210
0
220
0
230
1
50
0
73
2
44
1
0
MTEXT
5
129
100
AcDbEntity
8
lengths from center
6
ByLayer
62
256
370
-1
100
AcDbMText
10
158.754037387
20
24.7500726439
30
0
40
5
41
6.66666666667
71
1
72
1
1
y4
7

210
0
220
0
230
1
50
0
73
2
44
1
0
MTEXT
5
12A
100
AcDbEntity
8
lengths from center
6
ByLayer
62
256
370
-1
100
AcDbMText
10
167.946921512
20
85.918109321
30
0
40
5
41
6.11111111111
71
1
72
1
1
y5
7

210
0
220
0
230
1
50
0
73
2
44
1
0
DIMENSION
5
12B
100
AcDbEntity
8
lengths from center
6
ByLayer
62
256
370
-1
100
AcDbDimension
2
*D1
10
-12.375036322
20
110
30
0
11
-14.250036322
21
111
31
0
70
33
71
5
3
Standard
53
0
210
0
220
0
230
1
100
AcDbAlignedDimension
13
20
23
112
33
0
14
20
24
110
34
0
0
DIMENSION
5
12C
100
AcDbEntity
8
lengths from center
6
ByLayer
62
256
370
-1
100
AcDbDimension
2
*D2
10
6.71787686049
20
110
30
0
11
4.84287686049
21
108
31
0
70
33
71
5
3
Standard
53
0
210
0
220
0
230
1
100
AcDbAlignedDimension
13
20
23
106
33
0
14
20
24
110
34
0
0
DIMENSION
5
12D
100
AcDbEntity
8
lengths from center
6
ByLayer
62
256
370
-1
100
AcDbDimension
2
*D3
10
40
20
125.164653085
30
0
11
30
21
127.039653085
31
0
70
33
71
5
3
Standard
53
0
210
0
220
0
230
1
100
AcDbAlignedDimension
13
20
23
110
33
0
14
40
24
110
34
0
0
DIMENSION
5
12E
100
AcDbEntity
8
lengths from center
6
ByLayer
62
256
370
-1
100
AcDbDimension
2
*D4
10
145.892971298
20
-68.1070287024
30
0
11
72.2187965123
21
8.21879651231
31
0
70
33
71
5
3
Standard
53
0
210
0
220
0
230
1
100
AcDbAlignedDimension
13
15.7573593129
23
101.757359313
33
0
14
165.757359313
24
-48.2426406871
34
0
0
DIMENSION
5
12F
100
AcDbEntity
8
lengths from center
6
ByLayer
62
256
370
-1
100
AcDbDimension
2
*D5
10
320
20
131.175385013
30
0
11
170
21
133.050385013
31
0
70
33
71
5
3
Standard
53
0
210
0
220
0
230
1
100
AcDbAlignedDimension
13
20
23
112
33
0
14
320
24
112
34
0
0
MTEXT
5
130
100
AcDbEntity
8
lengths from center
6
ByLayer
62
256
370
-1
100
AcDbMText
10
168.654066445
20
129.407522681
30
0
40
5
41
3.33333333333
71
1
72
1
1
l1
7

210
0
220
0
230
1
50
0
73
2
44
1
0
MTEXT
5
131
100
AcDbEntity
8
lengths from center
6
ByLayer
62
256
370
-1
100
AcDbMText
10
64.7037613405
20
4.95001452878
30
0
40
5
41
4.44444444444
71
1
72
1
1
l2
7

210
0
220
0
230
1
50
0
73
2
44
1
0
MTEXT
5
132
100
AcDbEntity
8
lengths from center
6
ByLayer
62
256
370
-1
100
AcDbMText
10
27.5786523747
20
123.75036322
30
0
40
5
41
4.44444444444
71
1
72
1
1
l3
7

210
0
220
0
230
1
50
0
73
2
44
1
0
MTEXT
5
133
100
AcDbEntity
8
lengths from center
6
ByLayer
62
256
370
-1
100
AcDbMText
10
-23.6893552449
20
113.850334162
30
0
40
5
41
5
71
1
72
1
1
d1
7

210
0
220
0
230
1
50
0
73
2
44
1
0
MTEXT
5
134
100
AcDbEntity
8
lengths from center
6
ByLayer
62
256
370
-1
100
AcDbMText
10
-2.82857973073
20
106.071739903
30
0
40
5
41
6.11111111111
71
1
72
1
1
d2
7

210
0
220
0
230
1
50
0
73
2
44
1
0
DIMENSION
5
135
100
AcDbEntity
8
lengths from center
6
ByLayer
62
256
370
-1
100
AcDbDimension
2
*D6
10
100.414580441
20
27.4644660941
30
0
11
98.539580441
21
43.9759127035
31
0
70
33
71
5
3
Standard
53
0
210
0
220
0
230
1
100
AcDbAlignedDimension
13
91.4644660941
23
60.4873593129
33
0
14
91.4644660941
24
27.4644660941
34
0
0
DIMENSION
5
136
100
AcDbEntity
8
lengths from center
6
ByLayer
62
256
370
-1
100
AcDbDimension
2
*D7
10
157.693319988
20
-38.3431457505
30
0
11
155.818319988
21
11.0721067812
31
0
70
33
71
5
3
Standard
53
0
210
0
220
0
230
1
100
AcDbAlignedDimension
13
161.514718626
23
60.4873593129
33
0
14
161.514718626
24
-38.3431457505
34
0
0
DIMENSION
5
137
100
AcDbEntity
8
lengths from center
6
ByLayer
62
256
370
-1
100
AcDbDimension
2
*D8
10
164.764769315
20
111
30
0
11
162.889769315
21
85.7436796564
31
0
70
33
71
5
3
Standard
53
0
210
0
220
0
230
1
100
AcDbAlignedDimension
13
170
23
60.4873593129
33
0
14
170
24
111
34
0
0
DIMENSION
5
138
100
AcDbEntity
8
lengths from center
6
ByLayer
62
256
370
-1
100
AcDbDimension
2
*D9
10
37.4786814322
20
108
30
0
11
35.6036814322
21
84.2436796564
31
0
70
33
71
5
3
Standard
53
0
210
0
220
0
230
1
100
AcDbAlignedDimension
13
30
23
60.4873593129
33
0
14
30
24
108
34
0
0
DIMENSION
5
139
100
AcDbEntity
8
lengths from center
6
ByLayer
62
256
370
-1
100
AcDbDimension
2
*D10
10
21.2143479805
20
97.5147186258
30
0
11
19.3393479805
21
79.0010389693
31
0
70
33
71
5
3
Standard
53
0
210
0
220
0
230
1
100
AcDbAlignedDimension
13
25.6568542495
23
60.4873593129
33
0
14
25.6568542495
24
97.5147186258
34
0
0
DIMENSION
5
13A
100
AcDbEntity
8
lengths from center
6
ByLayer
62
256
370
-1
100
AcDbDimension
2
*D11
10
22.8284271247
20
106.60728126
30
0
11
20
21
108.48228126
31
0
70
33
71
5
3
Standard
53
0
210
0
220
0
230
1
100
AcDbAlignedDimension
13
17.1715728753
23
103.171572875
33
0
14
22.8284271247
24
103.171572875
34
0
0
MTEXT
5
13B
100
AcDbEntity
8
lengths from center
6
ByLayer
62
256
370
-1
100
AcDbMText
10
17.7765179739
20
110.131488905
30
0
40
3
41
3.66666666667
71
1
72
1
1
b=
7

210
0
220
0
230
1
50
0
73
2
44
1
0
DIMENSION
5
13C
100
AcDbEntity
8
lengths from center
6
ByLayer
62
256
370
-1
100
AcDbDimension
2
*D12
10
12.5938596725
20
103.171572875
30
0
11
10.7188596725
21
104.585786438
31
0
70
33
71
5
3
Standard
53
0
210
0
220
0
230
1
100
AcDbAlignedDimension
13
20
23
106
33
0
14
20
24
103.171572875
34
0
0
MTEXT
5
13D
100
AcDbEntity
8
lengths from center
6
ByLayer
62
256
370
-1
100
AcDbMText
10
9.01782544448
20
105.726229349
30
0
40
3
41
3
71
1
72
1
1
a1
7

210
0
220
0
230
1
50
0
73
2
44
1
0
DIMENSION
5
13E
100
AcDbEntity
8
lengths from center
6
ByLayer
62
256
370
-1
100
AcDbDimension
2
*D13
10
16.0662407344
20
91.8578643763
30
0
11
14.1912407344
21
97.5147186258
31
0
70
33
71
5
3
Standard
53
0
210
0
220
0
230
1
100
AcDbAlignedDimension
13
17.1715728753
23
103.171572875
33
0
14
17.1715728753
24
91.8578643763
34
0
0
MTEXT
5
13F
100
AcDbEntity
8
lengths from center
6
ByLayer
62
256
370
-1
100
AcDbMText
10
10.83175585
20
97.2784963178
30
0
40
3
41
1.33333333333
71
1
72
1
1
a
7

210
0
220
0
230
1
50
0
73
2
44
1
0
DIMENSION
5
140
100
AcDbEntity
8
lengths from center
6
ByLayer
62
256
370
-1
100
AcDbDimension
2
*D14
10
52.8112880915
20
97.5147186258
30
0
11
50.9362880915
21
101.050252532
31
0
70
33
71
5
3
Standard
53
0
210
0
220
0
230
1
100
AcDbAlignedDimension
13
21.4142135624
23
104.585786438
33
0
14
21.4142135624
24
97.5147186258
34
0
0
MTEXT
5
141
100
AcDbEntity
8
lengths from center
6
ByLayer
62
256
370
-1
100
AcDbMText
10
53.9514729178
20
102.8239407
30
0
40
3
41
4.33333333333
71
1
72
1
1
dl1
7

210
0
220
0
230
1
50
0
73
2
44
1
0
LINE
5
142
100
AcDbEntity
8
lengths from center
6
ByLayer
62
256
370
-1
100
AcDbLine
10
324.242640687
20
101.757359313
11
170
21
101.757359313
0
DIMENSION
5
143
100
AcDbEntity
8
lengths from center
6
ByLayer
62
256
370
-1
100
AcDbDimension
2
*D15
10
335.540270558
20
-48.2426406871
30
0
11
333.665270558
21
26.7573593129
31
0
70
33
71
5
3
Standard
53
0
210
0
220
0
230
1
100
AcDbAlignedDimension
13
170
23
101.757359313
33
0
14
170
24
-48.2426406871
34
0
0
MTEXT
5
144
100
AcDbEntity
8
lengths from center
6
ByLayer
62
256
370
-1
100
AcDbMText
10
339.783140154
20
28.2857973073
30
0
40
3
41
3
71
1
72
1
1
l4
7

210
0
220
0
230
1
50
0
73
2
44
1
0
DIMENSION
5
145
100
AcDbEntity
8
lengths from center
6
ByLayer
62
256
370
-1
100
AcDbDimension
2
*D16
10
324.242640687
20
106.011275556
30
0
11
322.828427125
21
107.886275556
31
0
70
33
71
5
3
Standard
53
0
210
0
220
0
230
1
100
AcDbAlignedDimension
13
321.414213562
23
101.757359313
33
0
14
324.242640687
24
101.757359313
34
0
0
MTEXT
5
146
100
AcDbEntity
8
lengths from center
6
ByLayer
62
256
370
-1
100
AcDbMText
10
320.702895692
20
110.079662322
30
0
40
3
41
3
71
1
72
1
1
b1
7

210
0
220
0
230
1
50
0
73
2
44
1
0
DIMENSION
5
147
100
AcDbEntity
8
a
6
ByLayer
62
256
370
-1
100
AcDbDimension
2
*D17
10
323.172651667
20
-48.2426406871
30
0
11
321.297651667
21
6.12235931288
31
0
70
33
71
5
3
Standard
53
0
210
0
220
0
230
1
100
AcDbAlignedDimension
13
178.485281374
23
60.4873593129
33
0
14
178.485281374
24
-48.2426406871
34
0
0
ENDSEC
0
SECTION
2
OBJECTS
0
DICTIONARY
5
C
330
0
100
AcDbDictionary
281
1
3
ACAD_GROUP
350
D
0
DICTIONARY
5
D
330
C
100
AcDbDictionary
281
1
0
ENDSEC
0
EOF
