999
dxfrw 0.5.10
0
SECTION
2
HEADER
9
$ACADVER
1
AC1021
9
$HANDSEED
5
20000
9
$DWGCODEPAGE
3
ANSI_1252
9
$INSBASE
10
0
20
0
30
0
9
$EXTMIN
10
46.5
20
86
30
0
9
$EXTMAX
10
61.5
20
91
30
0
9
$LIMMIN
10
0
20
0
9
$LIMMAX
10
420
20
297
9
$ORTHOMODE
70
0
9
$LTSCALE
40
1
9
$TEXTSTYLE
7
STANDARD
9
$CLAYER
8
grid
9
$DIMASZ
40
2.5
9
$DIMLFAC
40
1
9
$DIMSCALE
40
1
9
$DIMEXO
40
0.625
9
$DIMEXE
40
1.25
9
$DIMTXT
40
2.5
9
$DIMTSZ
40
0
9
$DIMAUNIT
70
0
9
$DIMADEC
70
0
9
$DIMLUNIT
70
2
9
$DIMSTYLE
2
STANDARD
9
$DIMGAP
40
0.625
9
$DIMTIH
70
0
9
$LUNITS
70
2
9
$LUPREC
70
4
9
$AUNITS
70
0
9
$AUPREC
70
2
9
$SPLINESEGS
70
8
9
$GRIDMODE
70
1
9
$SNAPSTYLE
70
0
9
$PINSBASE
10
0
20
0
30
0
9
$PLIMMIN
10
0
20
0
9
$PLIMMAX
10
210
20
297
9
$INSUNITS
70
4
9
$PSVPSCALE
40
1
0
ENDSEC
0
SECTION
2
CLASSES
0
ENDSEC
0
SECTION
2
TABLES
0
TABLE
2
VPORT
5
8
330
0
100
AcDbSymbolTable
70
1
0
VPORT
5
31
330
2
100
AcDbSymbolTableRecord
100
AcDbViewportTableRecord
2
*ACTIVE
70
0
10
0
20
0
11
1
21
1
12
30.8097686375
22
46.2789203085
13
0
23
0
14
10
24
10
15
10
25
10
16
0
26
0
36
1
17
0
27
0
37
0
40
8.13624678663
41
1.87519747235
42
50
43
0
44
0
50
0
51
0
71
0
72
100
73
1
74
3
75
0
76
1
77
0
78
0
281
0
65
1
110
0
120
0
130
0
111
1
121
0
131
0
112
0
122
1
132
0
79
0
146
0
348
10020
60
7
61
5
292
1
282
1
141
0
142
0
63
250
421
3358443
0
ENDTAB
0
TABLE
2
LTYPE
5
5
330
0
100
AcDbSymbolTable
70
4
0
LTYPE
5
14
330
5
100
AcDbSymbolTableRecord
100
AcDbLinetypeTableRecord
2
ByBlock
70
0
3

72
65
73
0
40
0
0
LTYPE
5
15
330
5
100
AcDbSymbolTableRecord
100
AcDbLinetypeTableRecord
2
ByLayer
70
0
3

72
65
73
0
40
0
0
LTYPE
5
16
330
5
100
AcDbSymbolTableRecord
100
AcDbLinetypeTableRecord
2
Continuous
70
0
3
Solid line
72
65
73
0
40
0
0
LTYPE
5
32
330
5
100
AcDbSymbolTableRecord
100
AcDbLinetypeTableRecord
2
DOT
70
0
3
Dot . . . . . . . . . . . . . . . . . . . . . .
72
65
73
2
40
6.35
49
0
74
0
49
-6.35
74
0
0
LTYPE
5
33
330
5
100
AcDbSymbolTableRecord
100
AcDbLinetypeTableRecord
2
DOT2
70
0
3
Dot (.5x) .....................................
72
65
73
2
40
3.175
49
0
74
0
49
-3.175
74
0
0
LTYPE
5
34
330
5
100
AcDbSymbolTableRecord
100
AcDbLinetypeTableRecord
2
DOTX2
70
0
3
Dot (2x) .  .  .  .  .  .  .  .  .  .  .  .  .
72
65
73
2
40
12.7
49
0
74
0
49
-12.7
74
0
0
LTYPE
5
35
330
5
100
AcDbSymbolTableRecord
100
AcDbLinetypeTableRecord
2
DASHED
70
0
3
Dot . . . . . . . . . . . . . . . . . . . . . .
72
65
73
2
40
19.05
49
12.7
74
0
49
-6.35
74
0
0
LTYPE
5
36
330
5
100
AcDbSymbolTableRecord
100
AcDbLinetypeTableRecord
2
DASHED2
70
0
3
Dashed (.5x) _ _ _ _ _ _ _ _ _ _ _ _ _ _ _ _ _
72
65
73
2
40
9.525
49
6.35
74
0
49
-3.175
74
0
0
LTYPE
5
37
330
5
100
AcDbSymbolTableRecord
100
AcDbLinetypeTableRecord
2
DASHEDX2
70
0
3
Dashed (2x) ____  ____  ____  ____  ____  ___
72
65
73
2
40
38.1
49
25.4
74
0
49
-12.7
74
0
0
LTYPE
5
38
330
5
100
AcDbSymbolTableRecord
100
AcDbLinetypeTableRecord
2
DASHDOT
70
0
3
Dash dot __ . __ . __ . __ . __ . __ . __ . __
72
65
73
4
40
25.4
49
12.7
74
0
49
-6.35
74
0
49
0
74
0
49
-6.35
74
0
0
LTYPE
5
39
330
5
100
AcDbSymbolTableRecord
100
AcDbLinetypeTableRecord
2
DASHDOT2
70
0
3
Dash dot (.5x) _._._._._._._._._._._._._._._.
72
65
73
4
40
12.7
49
6.35
74
0
49
-3.175
74
0
49
0
74
0
49
-3.175
74
0
0
LTYPE
5
3A
330
5
100
AcDbSymbolTableRecord
100
AcDbLinetypeTableRecord
2
DASHDOTX2
70
0
3
Dash dot (2x) ____  .  ____  .  ____  .  ___
72
65
73
4
40
50.8
49
25.4
74
0
49
-12.7
74
0
49
0
74
0
49
-12.7
74
0
0
LTYPE
5
3B
330
5
100
AcDbSymbolTableRecord
100
AcDbLinetypeTableRecord
2
DIVIDE
70
0
3
Divide ____ . . ____ . . ____ . . ____ . . ____
72
65
73
6
40
31.75
49
12.7
74
0
49
-6.35
74
0
49
0
74
0
49
-6.35
74
0
49
0
74
0
49
-6.35
74
0
0
LTYPE
5
3C
330
5
100
AcDbSymbolTableRecord
100
AcDbLinetypeTableRecord
2
DIVIDE2
70
0
3
Divide (.5x) __..__..__..__..__..__..__..__.._
72
65
73
6
40
15.875
49
6.35
74
0
49
-3.175
74
0
49
0
74
0
49
-3.175
74
0
49
0
74
0
49
-3.175
74
0
0
LTYPE
5
3D
330
5
100
AcDbSymbolTableRecord
100
AcDbLinetypeTableRecord
2
DIVIDEX2
70
0
3
Divide (2x) ________  .  .  ________  .  .  _
72
65
73
6
40
63.5
49
25.4
74
0
49
-12.7
74
0
49
0
74
0
49
-12.7
74
0
49
0
74
0
49
-12.7
74
0
0
LTYPE
5
3E
330
5
100
AcDbSymbolTableRecord
100
AcDbLinetypeTableRecord
2
BORDER
70
0
3
Border __ __ . __ __ . __ __ . __ __ . __ __ .
72
65
73
6
40
44.45
49
12.7
74
0
49
-6.35
74
0
49
12.7
74
0
49
-6.35
74
0
49
0
74
0
49
-6.35
74
0
0
LTYPE
5
3F
330
5
100
AcDbSymbolTableRecord
100
AcDbLinetypeTableRecord
2
BORDER2
70
0
3
Border (.5x) __.__.__.__.__.__.__.__.__.__.__.
72
65
73
6
40
22.225
49
6.35
74
0
49
-3.175
74
0
49
6.35
74
0
49
-3.175
74
0
49
0
74
0
49
-3.175
74
0
0
LTYPE
5
40
330
5
100
AcDbSymbolTableRecord
100
AcDbLinetypeTableRecord
2
BORDERX2
70
0
3
Border (2x) ____  ____  .  ____  ____  .  ___
72
65
73
6
40
88.9
49
25.4
74
0
49
-12.7
74
0
49
25.4
74
0
49
-12.7
74
0
49
0
74
0
49
-12.7
74
0
0
LTYPE
5
41
330
5
100
AcDbSymbolTableRecord
100
AcDbLinetypeTableRecord
2
CENTER
70
0
3
Center ____ _ ____ _ ____ _ ____ _ ____ _ ____
72
65
73
4
40
50.8
49
31.75
74
0
49
-6.35
74
0
49
6.35
74
0
49
-6.35
74
0
0
LTYPE
5
42
330
5
100
AcDbSymbolTableRecord
100
AcDbLinetypeTableRecord
2
CENTER2
70
0
3
Center (.5x) ___ _ ___ _ ___ _ ___ _ ___ _ ___
72
65
73
4
40
28.575
49
19.05
74
0
49
-3.175
74
0
49
3.175
74
0
49
-3.175
74
0
0
LTYPE
5
43
330
5
100
AcDbSymbolTableRecord
100
AcDbLinetypeTableRecord
2
CENTERX2
70
0
3
Center (2x) ________  __  ________  __  _____
72
65
73
4
40
101.6
49
63.5
74
0
49
-12.7
74
0
49
12.7
74
0
49
-12.7
74
0
0
ENDTAB
0
TABLE
2
LAYER
5
2
330
0
100
AcDbSymbolTable
70
1
0
LAYER
5
10
330
2
100
AcDbSymbolTableRecord
100
AcDbLayerTableRecord
2
0
70
0
62
7
6
CONTINUOUS
370
0
390
F
0
LAYER
5
44
330
2
100
AcDbSymbolTableRecord
100
AcDbLayerTableRecord
2
Ama aka bulkhead
70
0
62
2
6
CONTINUOUS
370
0
390
F
0
LAYER
5
45
330
2
100
AcDbSymbolTableRecord
100
AcDbLayerTableRecord
2
Ama center bulkhead
70
0
62
2
6
CONTINUOUS
370
0
390
F
0
LAYER
5
46
330
2
100
AcDbSymbolTableRecord
100
AcDbLayerTableRecord
2
Bulkhead 1
70
0
62
2
6
CONTINUOUS
370
0
390
F
0
LAYER
5
47
330
2
100
AcDbSymbolTableRecord
100
AcDbLayerTableRecord
2
Bulkhead 2
70
0
62
2
6
CONTINUOUS
370
0
390
F
0
LAYER
5
48
330
2
100
AcDbSymbolTableRecord
100
AcDbLayerTableRecord
2
Aka bulkhead
70
0
62
2
6
CONTINUOUS
370
0
390
F
0
LAYER
5
49
330
2
100
AcDbSymbolTableRecord
100
AcDbLayerTableRecord
2
Daggerboard box longitudinal
70
0
62
2
6
CONTINUOUS
370
0
390
F
0
LAYER
5
4A
330
2
100
AcDbSymbolTableRecord
100
AcDbLayerTableRecord
2
Daggerboard box outer transverse
70
0
62
2
6
CONTINUOUS
370
0
390
F
0
LAYER
5
4B
330
2
100
AcDbSymbolTableRecord
100
AcDbLayerTableRecord
2
Daggerboard box inner transverse
70
0
62
2
6
CONTINUOUS
370
0
390
F
0
LAYER
5
4C
330
2
100
AcDbSymbolTableRecord
100
AcDbLayerTableRecord
2
Ama daggerboard box longitudinal
70
0
62
2
6
CONTINUOUS
370
0
390
F
0
LAYER
5
4D
330
2
100
AcDbSymbolTableRecord
100
AcDbLayerTableRecord
2
Ama daggerboard box transverse
70
0
62
2
6
CONTINUOUS
370
0
390
F
0
LAYER
5
4E
330
2
100
AcDbSymbolTableRecord
100
AcDbLayerTableRecord
2
Aka top
70
0
62
2
6
CONTINUOUS
370
0
390
F
0
LAYER
5
4F
330
2
100
AcDbSymbolTableRecord
100
AcDbLayerTableRecord
2
Aka side outer
70
0
62
2
6
CONTINUOUS
370
0
390
F
0
LAYER
5
50
330
2
100
AcDbSymbolTableRecord
100
AcDbLayerTableRecord
2
Aka side inner
70
0
62
2
6
CONTINUOUS
370
0
390
F
0
LAYER
5
51
330
2
100
AcDbSymbolTableRecord
100
AcDbLayerTableRecord
2
Deck layout
70
0
62
2
6
CONTINUOUS
370
0
390
F
0
LAYER
5
52
330
2
100
AcDbSymbolTableRecord
100
AcDbLayerTableRecord
2
Hull layout
70
0
62
2
6
CONTINUOUS
370
0
390
F
0
LAYER
5
53
330
2
100
AcDbSymbolTableRecord
100
AcDbLayerTableRecord
2
Floor layout
70
0
62
2
6
CONTINUOUS
370
0
390
F
0
LAYER
5
54
330
2
100
AcDbSymbolTableRecord
100
AcDbLayerTableRecord
2
Ama layout
70
0
62
2
6
CONTINUOUS
370
0
390
F
0
LAYER
5
55
330
2
100
AcDbSymbolTableRecord
100
AcDbLayerTableRecord
2
Ama deck
70
0
62
2
6
CONTINUOUS
370
0
390
F
0
LAYER
5
56
330
2
100
AcDbSymbolTableRecord
100
AcDbLayerTableRecord
2
Mast support transverse
70
0
62
2
6
CONTINUOUS
370
0
390
F
0
LAYER
5
57
330
2
100
AcDbSymbolTableRecord
100
AcDbLayerTableRecord
2
Mast support longitudinal
70
0
62
2
6
CONTINUOUS
370
0
390
F
0
LAYER
5
58
330
2
100
AcDbSymbolTableRecord
100
AcDbLayerTableRecord
2
Plate
70
0
62
7
6
CONTINUOUS
370
0
390
F
0
LAYER
5
59
330
2
100
AcDbSymbolTableRecord
100
AcDbLayerTableRecord
2
helper
70
1
62
7
6
CONTINUOUS
370
0
390
F
0
LAYER
5
5A
330
2
100
AcDbSymbolTableRecord
100
AcDbLayerTableRecord
2
grid
70
0
62
96
420
32768
6
CONTINUOUS
370
0
390
F
0
ENDTAB
0
TABLE
2
STYLE
5
3
330
0
100
AcDbSymbolTable
70
3
0
STYLE
5
5B
330
2
100
AcDbSymbolTableRecord
100
AcDbTextStyleTableRecord
2
Standard
70
0
40
0
41
1
50
0
71
0
42
1
3
txt
4

0
ENDTAB
0
TABLE
2
VIEW
5
6
330
0
100
AcDbSymbolTable
70
0
0
ENDTAB
0
TABLE
2
UCS
5
7
330
0
100
AcDbSymbolTable
70
0
0
ENDTAB
0
TABLE
2
APPID
5
9
330
0
100
AcDbSymbolTable
70
1
0
APPID
5
12
330
9
100
AcDbSymbolTableRecord
100
AcDbRegAppTableRecord
2
ACAD
70
0
0
ENDTAB
0
TABLE
2
DIMSTYLE
5
A
330
0
100
AcDbSymbolTable
70
1
100
AcDbDimStyleTable
71
1
0
DIMSTYLE
105
5C
330
A
100
AcDbSymbolTableRecord
100
AcDbDimStyleTableRecord
2
Standard
70
0
40
1
41
2.5
42
0.625
43
0.38
44
1.25
45
0
46
0
47
0
48
0
140
2.5
141
0.09
142
0
143
25.4
144
1
145
0
146
1
147
0.625
148
0
71
0
72
0
73
0
74
1
75
0
76
0
77
0
78
0
79
0
170
0
171
2
172
0
173
0
174
0
175
0
176
0
177
0
178
0
179
0
271
4
272
4
273
2
274
2
275
0
276
0
277
2
278
46
279
0
280
0
281
0
282
0
283
1
284
0
285
0
286
0
288
0
289
3
340
Standard
341

371
-2
372
-2
0
ENDTAB
0
TABLE
2
BLOCK_RECORD
5
1
330
0
100
AcDbSymbolTable
70
2
0
BLOCK_RECORD
5
1F
330
1
100
AcDbSymbolTableRecord
100
AcDbBlockTableRecord
2
*Model_Space
70
0
280
1
281
0
0
BLOCK_RECORD
5
1E
330
1
100
AcDbSymbolTableRecord
100
AcDbBlockTableRecord
2
*Paper_Space
70
0
280
1
281
0
0
ENDTAB
0
ENDSEC
0
SECTION
2
BLOCKS
0
BLOCK
5
20
330
1F
100
AcDbEntity
8
0
100
AcDbBlockBegin
2
*Model_Space
70
0
10
0
20
0
30
0
3
*Model_Space
1

0
ENDBLK
5
21
330
1F
100
AcDbEntity
8
0
100
AcDbBlockEnd
0
BLOCK
5
1C
330
1B
100
AcDbEntity
8
0
100
AcDbBlockBegin
2
*Paper_Space
70
0
10
0
20
0
30
0
3
*Paper_Space
1

0
ENDBLK
5
1D
330
1F
100
AcDbEntity
8
0
100
AcDbBlockEnd
0
ENDSEC
0
SECTION
2
ENTITIES
0
LINE
5
5D
100
AcDbEntity
8
Plate
6
ByLayer
62
256
370
-1
100
AcDbLine
10
54
20
91
11
54
21
88.5
0
LINE
5
5E
100
AcDbEntity
8
helper
6
ByLayer
62
256
370
-1
100
AcDbLine
10
59.0946307991
20
93.1249184183
11
65.9547039201
21
93.1378623977
0
LINE
5
5F
100
AcDbEntity
8
Plate
6
ByLayer
62
256
370
-1
100
AcDbLine
10
52.75
20
91
11
54
21
91
0
LINE
5
60
100
AcDbEntity
8
Plate
6
ByLayer
62
256
370
-1
100
AcDbLine
10
52.75
20
88.5
11
54
21
88.5
0
LINE
5
61
100
AcDbEntity
8
Plate
6
ByLayer
62
256
370
-1
100
AcDbLine
10
54
20
91
11
54
21
88.5
0
LINE
5
62
100
AcDbEntity
8
Plate
6
ByLayer
62
256
370
-1
100
AcDbLine
10
51.5
20
91
11
52.75
21
91
0
LINE
5
63
100
AcDbEntity
8
Plate
6
ByLayer
62
256
370
-1
100
AcDbLine
10
51.5
20
88.5
11
52.75
21
88.5
0
LINE
5
64
100
AcDbEntity
8
Plate
6
ByLayer
62
256
370
-1
100
AcDbLine
10
51.5
20
91
11
51.5
21
88.5
0
LINE
5
65
100
AcDbEntity
8
Plate
6
ByLayer
62
256
370
-1
100
AcDbLine
10
50.25
20
91
11
51.5
21
91
0
LINE
5
66
100
AcDbEntity
8
Plate
6
ByLayer
62
256
370
-1
100
AcDbLine
10
50.25
20
88.5
11
51.5
21
88.5
0
LINE
5
67
100
AcDbEntity
8
Plate
6
ByLayer
62
256
370
-1
100
AcDbLine
10
51.5
20
91
11
51.5
21
88.5
0
LINE
5
68
100
AcDbEntity
8
Plate
6
ByLayer
62
256
370
-1
100
AcDbLine
10
49
20
91
11
50.25
21
91
0
LINE
5
69
100
AcDbEntity
8
Plate
6
ByLayer
62
256
370
-1
100
AcDbLine
10
49
20
88.5
11
50.25
21
88.5
0
LINE
5
6A
100
AcDbEntity
8
Plate
6
ByLayer
62
256
370
-1
100
AcDbLine
10
49
20
91
11
49
21
88.5
0
LINE
5
6B
100
AcDbEntity
8
Plate
6
ByLayer
62
256
370
-1
100
AcDbLine
10
47.75
20
91
11
49
21
91
0
LINE
5
6C
100
AcDbEntity
8
Plate
6
ByLayer
62
256
370
-1
100
AcDbLine
10
47.75
20
88.5
11
49
21
88.5
0
LINE
5
6D
100
AcDbEntity
8
Plate
6
ByLayer
62
256
370
-1
100
AcDbLine
10
49
20
91
11
49
21
88.5
0
LINE
5
6E
100
AcDbEntity
8
Plate
6
ByLayer
62
256
370
-1
100
AcDbLine
10
46.5
20
91
11
47.75
21
91
0
LINE
5
6F
100
AcDbEntity
8
Plate
6
ByLayer
62
256
370
-1
100
AcDbLine
10
46.5
20
88.5
11
47.75
21
88.5
0
LINE
5
70
100
AcDbEntity
8
Plate
6
ByLayer
62
256
370
-1
100
AcDbLine
10
46.5
20
91
11
46.5
21
88.5
0
LINE
5
71
100
AcDbEntity
8
Plate
6
ByLayer
62
256
370
-1
100
AcDbLine
10
54
20
88.5
11
54
21
86
0
LINE
5
72
100
AcDbEntity
8
Plate
6
ByLayer
62
256
370
-1
100
AcDbLine
10
52.75
20
88.5
11
54
21
88.5
0
LINE
5
73
100
AcDbEntity
8
Plate
6
ByLayer
62
256
370
-1
100
AcDbLine
10
52.75
20
86
11
54
21
86
0
LINE
5
74
100
AcDbEntity
8
Plate
6
ByLayer
62
256
370
-1
100
AcDbLine
10
54
20
88.5
11
54
21
86
0
LINE
5
75
100
AcDbEntity
8
Plate
6
ByLayer
62
256
370
-1
100
AcDbLine
10
51.5
20
88.5
11
52.75
21
88.5
0
LINE
5
76
100
AcDbEntity
8
Plate
6
ByLayer
62
256
370
-1
100
AcDbLine
10
51.5
20
86
11
52.75
21
86
0
LINE
5
77
100
AcDbEntity
8
Plate
6
ByLayer
62
256
370
-1
100
AcDbLine
10
51.5
20
88.5
11
51.5
21
86
0
LINE
5
78
100
AcDbEntity
8
Plate
6
ByLayer
62
256
370
-1
100
AcDbLine
10
50.25
20
88.5
11
51.5
21
88.5
0
LINE
5
79
100
AcDbEntity
8
Plate
6
ByLayer
62
256
370
-1
100
AcDbLine
10
50.25
20
86
11
51.5
21
86
0
LINE
5
7A
100
AcDbEntity
8
Plate
6
ByLayer
62
256
370
-1
100
AcDbLine
10
51.5
20
88.5
11
51.5
21
86
0
LINE
5
7B
100
AcDbEntity
8
Plate
6
ByLayer
62
256
370
-1
100
AcDbLine
10
49
20
88.5
11
50.25
21
88.5
0
LINE
5
7C
100
AcDbEntity
8
Plate
6
ByLayer
62
256
370
-1
100
AcDbLine
10
49
20
86
11
50.25
21
86
0
LINE
5
7D
100
AcDbEntity
8
Plate
6
ByLayer
62
256
370
-1
100
AcDbLine
10
49
20
88.5
11
49
21
86
0
LINE
5
7E
100
AcDbEntity
8
Plate
6
ByLayer
62
256
370
-1
100
AcDbLine
10
47.75
20
88.5
11
49
21
88.5
0
LINE
5
7F
100
AcDbEntity
8
Plate
6
ByLayer
62
256
370
-1
100
AcDbLine
10
47.75
20
86
11
49
21
86
0
LINE
5
80
100
AcDbEntity
8
Plate
6
ByLayer
62
256
370
-1
100
AcDbLine
10
49
20
88.5
11
49
21
86
0
LINE
5
81
100
AcDbEntity
8
Plate
6
ByLayer
62
256
370
-1
100
AcDbLine
10
46.5
20
88.5
11
47.75
21
88.5
0
LINE
5
82
100
AcDbEntity
8
Plate
6
ByLayer
62
256
370
-1
100
AcDbLine
10
46.5
20
86
11
47.75
21
86
0
LINE
5
83
100
AcDbEntity
8
Plate
6
ByLayer
62
256
370
-1
100
AcDbLine
10
46.5
20
88.5
11
46.5
21
86
0
LINE
5
84
100
AcDbEntity
8
helper
6
ByLayer
62
256
370
-1
100
AcDbLine
10
59.0369812664
20
95.6248140921
11
65.9499867851
21
95.6378579474
0
LINE
5
85
100
AcDbEntity
8
helper
6
ByLayer
62
256
370
-1
100
AcDbLine
10
46.5531311418
20
90.8947691448
11
53.4067247158
21
88.6035333684
0
LINE
5
86
100
AcDbEntity
8
helper
6
ByLayer
62
256
370
-1
100
AcDbLine
10
53.4132042628
20
90.9077131242
11
46.5469742334
21
88.6713130854
0
LINE
5
87
100
AcDbEntity
8
helper
6
ByLayer
62
256
370
-1
100
AcDbLine
10
49
20
91
11
51.5
21
89.75
0
LINE
5
88
100
AcDbEntity
8
helper
6
ByLayer
62
256
370
-1
100
AcDbLine
10
51.5
20
91
11
49
21
89.75
0
LINE
5
89
100
AcDbEntity
8
helper
6
ByLayer
62
256
370
-1
100
AcDbLine
10
49
20
87.25
11
51.5
21
86
0
LINE
5
8A
100
AcDbEntity
8
helper
6
ByLayer
62
256
370
-1
100
AcDbLine
10
51.5
20
87.25
11
49
21
86
0
LINE
5
8B
100
AcDbEntity
8
helper
6
ByLayer
62
256
370
-1
100
AcDbLine
10
50.25
20
90.375
11
50.25
21
86.625
0
LINE
5
8C
100
AcDbEntity
8
Hull layout
6
ByLayer
62
256
370
-1
100
AcDbLine
10
47.0293833041
20
90.8815979605
11
46.9612833041
21
90.8785979605
0
LINE
5
8D
100
AcDbEntity
8
Hull layout
6
ByLayer
62
256
370
-1
100
AcDbLine
10
47.0976858766
20
90.8845980736
11
47.0293858766
21
90.8815980736
0
LINE
5
8E
100
AcDbEntity
8
Hull layout
6
ByLayer
62
256
370
-1
100
AcDbLine
10
47.1660871572
20
90.8875981298
11
47.0976871572
21
90.8845981298
0
LINE
5
8F
100
AcDbEntity
8
Hull layout
6
ByLayer
62
256
370
-1
100
AcDbLine
10
47.3037947632
20
90.893598462
11
47.2347947632
21
90.890598462
0
LINE
5
90
100
AcDbEntity
8
Hull layout
6
ByLayer
62
256
370
-1
100
AcDbLine
10
47.2347909768
20
90.890598297
11
47.1660909768
21
90.887598297
0
LINE
5
91
100
AcDbEntity
8
Hull layout
6
ByLayer
62
256
370
-1
100
AcDbLine
10
47.3732285015
20
90.8964999003
11
47.3038285015
21
90.8935999003
0
LINE
5
92
100
AcDbEntity
8
Hull layout
6
ByLayer
62
256
370
-1
100
AcDbLine
10
47.4431059281
20
90.8994989443
11
47.3732059281
21
90.8964989443
0
LINE
5
93
100
AcDbEntity
8
Hull layout
6
ByLayer
62
256
370
-1
100
AcDbLine
10
47.5136132134
20
90.9024992556
11
47.4431132134
21
90.8994992556
0
LINE
5
94
100
AcDbEntity
8
Hull layout
6
ByLayer
62
256
370
-1
100
AcDbLine
10
47.5846472869
20
90.9054006764
11
47.5136472869
21
90.9025006764
0
LINE
5
95
100
AcDbEntity
8
Hull layout
6
ByLayer
62
256
370
-1
100
AcDbLine
10
47.6563274192
20
90.9083998551
11
47.5846274192
21
90.9053998551
0
LINE
5
96
100
AcDbEntity
8
Hull layout
6
ByLayer
62
256
370
-1
100
AcDbLine
10
47.7288641469
20
90.911301358
11
47.6563641469
21
90.908401358
0
LINE
5
97
100
AcDbEntity
8
Hull layout
6
ByLayer
62
256
370
-1
100
AcDbLine
10
47.8020717791
20
90.9142016618
11
47.7288717791
21
90.9113016618
0
LINE
5
98
100
AcDbEntity
8
Hull layout
6
ByLayer
62
256
370
-1
100
AcDbLine
10
47.8762824329
20
90.917102081
11
47.8020824329
21
90.914202081
0
LINE
5
99
100
AcDbEntity
8
Hull layout
6
ByLayer
62
256
370
-1
100
AcDbLine
10
47.9512907518
20
90.9200024044
11
47.8762907518
21
90.9171024044
0
LINE
5
9A
100
AcDbEntity
8
Hull layout
6
ByLayer
62
256
370
-1
100
AcDbLine
10
48.0274019054
20
90.9229028326
11
47.9513019054
21
90.9200028326
0
LINE
5
9B
100
AcDbEntity
8
Hull layout
6
ByLayer
62
256
370
-1
100
AcDbLine
10
48.1046127419
20
90.9258032426
11
48.0274127419
21
90.9229032426
0
LINE
5
9C
100
AcDbEntity
8
Hull layout
6
ByLayer
62
256
370
-1
100
AcDbLine
10
48.1827469386
20
90.9286044979
11
48.1046469386
21
90.9258044979
0
LINE
5
9D
100
AcDbEntity
8
Hull layout
6
ByLayer
62
256
370
-1
100
AcDbLine
10
48.261654195
20
90.9314047567
11
48.182754195
21
90.9286047567
0
LINE
5
9E
100
AcDbEntity
8
Hull layout
6
ByLayer
62
256
370
-1
100
AcDbLine
10
48.3410586562
20
90.9342049145
11
48.2616586562
21
90.9314049145
0
LINE
5
9F
100
AcDbEntity
8
Hull layout
6
ByLayer
62
256
370
-1
100
AcDbLine
10
48.4209880484
20
90.9369059294
11
48.3410880484
21
90.9342059294
0
LINE
5
A0
100
AcDbEntity
8
Hull layout
6
ByLayer
62
256
370
-1
100
AcDbLine
10
48.5011905722
20
90.9396060145
11
48.4209905722
21
90.9369060145
0
LINE
5
A1
100
AcDbEntity
8
Hull layout
6
ByLayer
62
256
370
-1
100
AcDbLine
10
48.5814154691
20
90.9422068372
11
48.5012154691
21
90.9396068372
0
LINE
5
A2
100
AcDbEntity
8
Hull layout
6
ByLayer
62
256
370
-1
100
AcDbLine
10
48.6616154691
20
90.9448068372
11
48.5814154691
21
90.9422068372
0
LINE
5
A3
100
AcDbEntity
8
Hull layout
6
ByLayer
62
256
370
-1
100
AcDbLine
10
48.7415380316
20
90.9473075559
11
48.6616380316
21
90.9448075559
0
LINE
5
A4
100
AcDbEntity
8
Hull layout
6
ByLayer
62
256
370
-1
100
AcDbLine
10
48.8210600091
20
90.9497082315
11
48.7415600091
21
90.9473082315
0
LINE
5
A5
100
AcDbEntity
8
Hull layout
6
ByLayer
62
256
370
-1
100
AcDbLine
10
48.9000814758
20
90.952008868
11
48.8210814758
21
90.949708868
0
LINE
5
A6
100
AcDbEntity
8
Hull layout
6
ByLayer
62
256
370
-1
100
AcDbLine
10
48.9782755267
20
90.9543086939
11
48.9000755267
21
90.9520086939
0
LINE
5
A7
100
AcDbEntity
8
Hull layout
6
ByLayer
62
256
370
-1
100
AcDbLine
10
49.0556203704
20
90.9564099625
11
48.9783203704
21
90.9543099625
0
LINE
5
A8
100
AcDbEntity
8
Hull layout
6
ByLayer
62
256
370
-1
100
AcDbLine
10
49.1319132574
20
90.958509768
11
49.0556132574
21
90.956409768
0
LINE
5
A9
100
AcDbEntity
8
Hull layout
6
ByLayer
62
256
370
-1
100
AcDbLine
10
49.2070310733
20
90.9605102504
11
49.1319310733
21
90.9585102504
0
LINE
5
AA
100
AcDbEntity
8
Hull layout
6
ByLayer
62
256
370
-1
100
AcDbLine
10
49.2806745235
20
90.9623113603
11
49.2070745235
21
90.9605113603
0
LINE
5
AB
100
AcDbEntity
8
Hull layout
6
ByLayer
62
256
370
-1
100
AcDbLine
10
49.3527643567
20
90.964111109
11
49.2806643567
21
90.962311109
0
LINE
5
AC
100
AcDbEntity
8
Hull layout
6
ByLayer
62
256
370
-1
100
AcDbLine
10
49.4235110069
20
90.9657122192
11
49.3528110069
21
90.9641122192
0
LINE
5
AD
100
AcDbEntity
8
Hull layout
6
ByLayer
62
256
370
-1
100
AcDbLine
10
49.4928307086
20
90.9672126554
11
49.4235307086
21
90.9657126554
0
LINE
5
AE
100
AcDbEntity
8
Hull layout
6
ByLayer
62
256
370
-1
100
AcDbLine
10
49.5608518302
20
90.9686131014
11
49.4928518302
21
90.9672131014
0
LINE
5
AF
100
AcDbEntity
8
Hull layout
6
ByLayer
62
256
370
-1
100
AcDbLine
10
49.627804821
20
90.9698141221
11
49.560904821
21
90.9686141221
0
LINE
5
B0
100
AcDbEntity
8
Hull layout
6
ByLayer
62
256
370
-1
100
AcDbLine
10
49.6934982718
20
90.9710140036
11
49.6277982718
21
90.9698140036
0
LINE
5
B1
100
AcDbEntity
8
Hull layout
6
ByLayer
62
256
370
-1
100
AcDbLine
10
49.7583240504
20
90.9721144578
11
49.6935240504
21
90.9710144578
0
LINE
5
B2
100
AcDbEntity
8
Hull layout
6
ByLayer
62
256
370
-1
100
AcDbLine
10
49.8223822855
20
90.9730153616
11
49.7583822855
21
90.9721153616
0
LINE
5
B3
100
AcDbEntity
8
Hull layout
6
ByLayer
62
256
370
-1
100
AcDbLine
10
49.8854782752
20
90.9739153048
11
49.8223782752
21
90.9730153048
0
LINE
5
B4
100
AcDbEntity
8
Hull layout
6
ByLayer
62
256
370
-1
100
AcDbLine
10
49.9480395217
20
90.9746160845
11
49.8855395217
21
90.9739160845
0
LINE
5
B5
100
AcDbEntity
8
Hull layout
6
ByLayer
62
256
370
-1
100
AcDbLine
10
50.0099373509
20
90.9753160601
11
49.9480373509
21
90.9746160601
0
LINE
5
B6
100
AcDbEntity
8
Hull layout
6
ByLayer
62
256
370
-1
100
AcDbLine
10
50.0714006467
20
90.9758166757
11
50.0100006467
21
90.9753166757
0
LINE
5
B7
100
AcDbEntity
8
Hull layout
6
ByLayer
62
256
370
-1
100
AcDbLine
10
50.1323995788
20
90.976316667
11
50.0713995788
21
90.975816667
0
LINE
5
B8
100
AcDbEntity
8
Hull layout
6
ByLayer
62
256
370
-1
100
AcDbLine
10
50.1931646621
20
90.9766170945
11
50.1324646621
21
90.9763170945
0
LINE
5
B9
100
AcDbEntity
8
Hull layout
6
ByLayer
62
256
370
-1
100
AcDbLine
10
50.2536643354
20
90.9769170929
11
50.1931643354
21
90.9766170929
0
LINE
5
BA
100
AcDbEntity
8
Hull layout
6
ByLayer
62
256
370
-1
100
AcDbLine
10
50.3140972829
20
90.9771172292
11
50.2536972829
21
90.9769172292
0
LINE
5
BB
100
AcDbEntity
8
Hull layout
6
ByLayer
62
256
370
-1
100
AcDbLine
10
50.3745635077
20
90.9771173388
11
50.3141635077
21
90.9771173388
0
LINE
5
BC
100
AcDbEntity
8
Hull layout
6
ByLayer
62
256
370
-1
100
AcDbLine
10
50.4351635077
20
90.9771173388
11
50.3745635077
21
90.9771173388
0
LINE
5
BD
100
AcDbEntity
8
Hull layout
6
ByLayer
62
256
370
-1
100
AcDbLine
10
50.5569290811
20
90.9768172313
11
50.4959290811
21
90.9770172313
0
LINE
5
BE
100
AcDbEntity
8
Hull layout
6
ByLayer
62
256
370
-1
100
AcDbLine
10
50.4958964566
20
90.9770173117
11
50.4351964566
21
90.9771173117
0
LINE
5
BF
100
AcDbEntity
8
Hull layout
6
ByLayer
62
256
370
-1
100
AcDbLine
10
50.6183612264
20
90.9765171001
11
50.5569612264
21
90.9768171001
0
LINE
5
C0
100
AcDbEntity
8
Hull layout
6
ByLayer
62
256
370
-1
100
AcDbLine
10
50.6803250533
20
90.9760166864
11
50.6184250533
21
90.9765166864
0
LINE
5
C1
100
AcDbEntity
8
Hull layout
6
ByLayer
62
256
370
-1
100
AcDbLine
10
50.742723759
20
90.9755166968
11
50.680323759
21
90.9760166968
0
LINE
5
C2
100
AcDbEntity
8
Hull layout
6
ByLayer
62
256
370
-1
100
AcDbLine
10
50.8059533726
20
90.9749164376
11
50.7427533726
21
90.9755164376
0
LINE
5
C3
100
AcDbEntity
8
Hull layout
6
ByLayer
62
256
370
-1
100
AcDbLine
10
50.9347104025
20
90.9734158148
11
50.8699104025
21
90.9742158148
0
LINE
5
C4
100
AcDbEntity
8
Hull layout
6
ByLayer
62
256
370
-1
100
AcDbLine
10
50.8698825869
20
90.9742161389
11
50.8059825869
21
90.9749161389
0
LINE
5
C5
100
AcDbEntity
8
Hull layout
6
ByLayer
62
256
370
-1
100
AcDbLine
10
51.0005370383
20
90.9725154682
11
50.9347370383
21
90.9734154682
0
LINE
5
C6
100
AcDbEntity
8
Hull layout
6
ByLayer
62
256
370
-1
100
AcDbLine
10
51.0674923123
20
90.9714146358
11
51.0005923123
21
90.9725146358
0
LINE
5
C7
100
AcDbEntity
8
Hull layout
6
ByLayer
62
256
370
-1
100
AcDbLine
10
51.1354869948
20
90.9703147225
11
51.0674869948
21
90.9714147225
0
LINE
5
C8
100
AcDbEntity
8
Hull layout
6
ByLayer
62
256
370
-1
100
AcDbLine
10
51.2048097761
20
90.969114341
11
51.1355097761
21
90.970314341
0
LINE
5
C9
100
AcDbEntity
8
Hull layout
6
ByLayer
62
256
370
-1
100
AcDbLine
10
51.2754600303
20
90.9677134077
11
51.2048600303
21
90.9691134077
0
LINE
5
CA
100
AcDbEntity
8
Hull layout
6
ByLayer
62
256
370
-1
100
AcDbLine
10
51.3476512464
20
90.9663135799
11
51.2754512464
21
90.9677135799
0
LINE
5
CB
100
AcDbEntity
8
Hull layout
6
ByLayer
62
256
370
-1
100
AcDbLine
10
51.4212981876
20
90.9647126146
11
51.3476981876
21
90.9663126146
0
LINE
5
CC
100
AcDbEntity
8
Hull layout
6
ByLayer
62
256
370
-1
100
AcDbLine
10
51.4964161214
20
90.9630122167
11
51.4213161214
21
90.9647122167
0
LINE
5
CD
100
AcDbEntity
8
Hull layout
6
ByLayer
62
256
370
-1
100
AcDbLine
10
51.5727351982
20
90.9612117757
11
51.4964351982
21
90.9630117757
0
LINE
5
CE
100
AcDbEntity
8
Hull layout
6
ByLayer
62
256
370
-1
100
AcDbLine
10
51.6500290995
20
90.9594119187
11
51.5727290995
21
90.9612119187
0
LINE
5
CF
100
AcDbEntity
8
Hull layout
6
ByLayer
62
256
370
-1
100
AcDbLine
10
51.7282748494
20
90.957410801
11
51.6500748494
21
90.959410801
0
LINE
5
D0
100
AcDbEntity
8
Hull layout
6
ByLayer
62
256
370
-1
100
AcDbLine
10
51.8072949655
20
90.9553102764
11
51.7282949655
21
90.9574102764
0
LINE
5
D1
100
AcDbEntity
8
Hull layout
6
ByLayer
62
256
370
-1
100
AcDbLine
10
51.8868909624
20
90.9532103824
11
51.8072909624
21
90.9553103824
0
LINE
5
D2
100
AcDbEntity
8
Hull layout
6
ByLayer
62
256
370
-1
100
AcDbLine
10
51.9668139874
20
90.9510097617
11
51.8869139874
21
90.9532097617
0
LINE
5
D3
100
AcDbEntity
8
Hull layout
6
ByLayer
62
256
370
-1
100
AcDbLine
10
52.0470119298
20
90.9488098182
11
51.9668119298
21
90.9510098182
0
LINE
5
D4
100
AcDbEntity
8
Hull layout
6
ByLayer
62
256
370
-1
100
AcDbLine
10
52.1272617436
20
90.9464083896
11
52.0470617436
21
90.9488083896
0
LINE
5
D5
100
AcDbEntity
8
Hull layout
6
ByLayer
62
256
370
-1
100
AcDbLine
10
52.2074368381
20
90.9441091194
11
52.1272368381
21
90.9464091194
0
LINE
5
D6
100
AcDbEntity
8
Hull layout
6
ByLayer
62
256
370
-1
100
AcDbLine
10
52.2872897669
20
90.9416075314
11
52.2074897669
21
90.9441075314
0
LINE
5
D7
100
AcDbEntity
8
Hull layout
6
ByLayer
62
256
370
-1
100
AcDbLine
10
52.3667670063
20
90.9392082315
11
52.2872670063
21
90.9416082315
0
LINE
5
D8
100
AcDbEntity
8
Hull layout
6
ByLayer
62
256
370
-1
100
AcDbLine
10
52.4457222123
20
90.9366064886
11
52.3668222123
21
90.9392064886
0
LINE
5
D9
100
AcDbEntity
8
Hull layout
6
ByLayer
62
256
370
-1
100
AcDbLine
10
52.5238033848
20
90.9341071001
11
52.4457033848
21
90.9366071001
0
LINE
5
DA
100
AcDbEntity
8
Hull layout
6
ByLayer
62
256
370
-1
100
AcDbLine
10
52.6010367012
20
90.9315060059
11
52.5238367011
21
90.9341060059
0
LINE
5
DB
100
AcDbEntity
8
Hull layout
6
ByLayer
62
256
370
-1
100
AcDbLine
10
52.6771464207
20
90.9289056761
11
52.6010464207
21
90.9315056761
0
LINE
5
DC
100
AcDbEntity
8
Hull layout
6
ByLayer
62
256
370
-1
100
AcDbLine
10
52.7522555032
20
90.9263053638
11
52.6771555032
21
90.9289053638
0
LINE
5
DD
100
AcDbEntity
8
Hull layout
6
ByLayer
62
256
370
-1
100
AcDbLine
10
52.8263648305
20
90.9237050387
11
52.7522648305
21
90.9263050387
0
LINE
5
DE
100
AcDbEntity
8
Hull layout
6
ByLayer
62
256
370
-1
100
AcDbLine
10
52.8996997069
20
90.9210037845
11
52.8263997069
21
90.9237037845
0
LINE
5
DF
100
AcDbEntity
8
Hull layout
6
ByLayer
62
256
370
-1
100
AcDbLine
10
52.9720812771
20
90.9184044548
11
52.8996812771
21
90.9210044548
0
LINE
5
E0
100
AcDbEntity
8
Hull layout
6
ByLayer
62
256
370
-1
100
AcDbLine
10
53.0439150656
20
90.9157032128
11
52.9721150656
21
90.9184032128
0
LINE
5
E1
100
AcDbEntity
8
Hull layout
6
ByLayer
62
256
370
-1
100
AcDbLine
10
53.1149235217
20
90.913002893
11
53.0439235217
21
90.915702893
0
LINE
5
E2
100
AcDbEntity
8
Hull layout
6
ByLayer
62
256
370
-1
100
AcDbLine
10
53.185428904
20
90.9103026876
11
53.114928904
21
90.9130026876
0
LINE
5
E3
100
AcDbEntity
8
Hull layout
6
ByLayer
62
256
370
-1
100
AcDbLine
10
53.2553354642
20
90.9076024353
11
53.1854354642
21
90.9103024353
0
LINE
5
E4
100
AcDbEntity
8
Hull layout
6
ByLayer
62
256
370
-1
100
AcDbLine
10
53.3938443879
20
90.9022020886
11
53.3247443879
21
90.9049020886
0
LINE
5
E5
100
AcDbEntity
8
Hull layout
6
ByLayer
62
256
370
-1
100
AcDbLine
10
53.3247410175
20
90.90490222
11
53.2553410175
21
90.90760222
0
LINE
5
E6
100
AcDbEntity
8
Hull layout
6
ByLayer
62
256
370
-1
100
AcDbLine
10
53.4625779698
20
90.8994007482
11
53.3938779698
21
90.9022007482
0
LINE
5
E7
100
AcDbEntity
8
Hull layout
6
ByLayer
62
256
370
-1
100
AcDbLine
10
53.530952367
20
90.8967017753
11
53.462552367
21
90.8994017753
0
LINE
5
E8
100
AcDbEntity
8
Hull layout
6
ByLayer
62
256
370
-1
100
AcDbLine
10
53.5991546768
20
90.894001684
11
53.5309546768
21
90.896701684
0
LINE
5
E9
100
AcDbEntity
8
Hull layout
6
ByLayer
62
256
370
-1
100
AcDbLine
10
53.6673839309
20
90.8912005044
11
53.5991839309
21
90.8940005044
0
LINE
5
EA
100
AcDbEntity
8
Hull layout
6
ByLayer
62
256
370
-1
100
AcDbLine
10
53.7443490369
20
90.8881445551
11
53.5254635077
21
90.4491173388
0
LINE
5
EB
100
AcDbEntity
8
Hull layout
6
ByLayer
62
256
370
-1
100
AcDbLine
10
53.7443490369
20
90.8881445551
11
53.6673570001
21
90.8912015918
0
LINE
5
EC
100
AcDbEntity
8
Hull layout
6
ByLayer
62
256
370
-1
100
AcDbLine
10
53.5254635077
20
90.4491173388
11
53.3968635077
21
90.4442173388
0
LINE
5
ED
100
AcDbEntity
8
Hull layout
6
ByLayer
62
256
370
-1
100
AcDbLine
10
53.3968635077
20
90.4442173388
11
53.2676635077
21
90.4394173388
0
LINE
5
EE
100
AcDbEntity
8
Hull layout
6
ByLayer
62
256
370
-1
100
AcDbLine
10
53.2676635077
20
90.4394173388
11
53.1372635077
21
90.4345173388
0
LINE
5
EF
100
AcDbEntity
8
Hull layout
6
ByLayer
62
256
370
-1
100
AcDbLine
10
53.1372635077
20
90.4345173388
11
53.0049635077
21
90.4296173388
0
LINE
5
F0
100
AcDbEntity
8
Hull layout
6
ByLayer
62
256
370
-1
100
AcDbLine
10
53.0049635077
20
90.4296173388
11
52.8702635077
21
90.4247173388
0
LINE
5
F1
100
AcDbEntity
8
Hull layout
6
ByLayer
62
256
370
-1
100
AcDbLine
10
52.8702635077
20
90.4247173388
11
52.7324635077
21
90.4197173388
0
LINE
5
F2
100
AcDbEntity
8
Hull layout
6
ByLayer
62
256
370
-1
100
AcDbLine
10
52.7324635077
20
90.4197173388
11
52.5909635077
21
90.4147173388
0
LINE
5
F3
100
AcDbEntity
8
Hull layout
6
ByLayer
62
256
370
-1
100
AcDbLine
10
52.5909635077
20
90.4147173388
11
52.4450635077
21
90.4096173388
0
LINE
5
F4
100
AcDbEntity
8
Hull layout
6
ByLayer
62
256
370
-1
100
AcDbLine
10
52.4450635077
20
90.4096173388
11
52.3702635077
21
90.4070173388
0
LINE
5
F5
100
AcDbEntity
8
Hull layout
6
ByLayer
62
256
370
-1
100
AcDbLine
10
52.3702635077
20
90.4070173388
11
52.2908635077
21
90.4042173388
0
LINE
5
F6
100
AcDbEntity
8
Hull layout
6
ByLayer
62
256
370
-1
100
AcDbLine
10
52.2908635077
20
90.4042173388
11
52.2177635077
21
90.4018173388
0
LINE
5
F7
100
AcDbEntity
8
Hull layout
6
ByLayer
62
256
370
-1
100
AcDbLine
10
52.2177635077
20
90.4018173388
11
52.1404635077
21
90.3992173388
0
LINE
5
F8
100
AcDbEntity
8
Hull layout
6
ByLayer
62
256
370
-1
100
AcDbLine
10
52.1404635077
20
90.3992173388
11
51.9067635077
21
90.3916173388
0
LINE
5
F9
100
AcDbEntity
8
Hull layout
6
ByLayer
62
256
370
-1
100
AcDbLine
10
51.9067635077
20
90.3916173388
11
51.7514635077
21
90.3869173388
0
LINE
5
FA
100
AcDbEntity
8
Hull layout
6
ByLayer
62
256
370
-1
100
AcDbLine
10
51.7514635077
20
90.3869173388
11
51.6745635077
21
90.3847173388
0
LINE
5
FB
100
AcDbEntity
8
Hull layout
6
ByLayer
62
256
370
-1
100
AcDbLine
10
51.6745635077
20
90.3847173388
11
51.5232635077
21
90.3805173388
0
LINE
5
FC
100
AcDbEntity
8
Hull layout
6
ByLayer
62
256
370
-1
100
AcDbLine
10
51.5232635077
20
90.3805173388
11
51.4220635077
21
90.3779173388
0
LINE
5
FD
100
AcDbEntity
8
Hull layout
6
ByLayer
62
256
370
-1
100
AcDbLine
10
51.4220635077
20
90.3779173388
11
51.2365635077
21
90.3737173388
0
LINE
5
FE
100
AcDbEntity
8
Hull layout
6
ByLayer
62
256
370
-1
100
AcDbLine
10
51.2365635077
20
90.3737173388
11
51.1040635077
21
90.3712173388
0
LINE
5
FF
100
AcDbEntity
8
Hull layout
6
ByLayer
62
256
370
-1
100
AcDbLine
10
51.1040635077
20
90.3712173388
11
50.9784635077
21
90.3694173388
0
LINE
5
100
100
AcDbEntity
8
Hull layout
6
ByLayer
62
256
370
-1
100
AcDbLine
10
50.9784635077
20
90.3694173388
11
50.7442635077
21
90.3671173388
0
LINE
5
101
100
AcDbEntity
8
Hull layout
6
ByLayer
62
256
370
-1
100
AcDbLine
10
50.7440635077
20
90.3567173388
11
50.8585635077
21
90.3516173388
0
LINE
5
102
100
AcDbEntity
8
Hull layout
6
ByLayer
62
256
370
-1
100
AcDbLine
10
50.8585635077
20
90.3516173388
11
50.9176635077
21
90.3487173388
0
LINE
5
103
100
AcDbEntity
8
Hull layout
6
ByLayer
62
256
370
-1
100
AcDbLine
10
50.7442635077
20
90.3671173388
11
50.6335635077
21
90.3665173388
0
LINE
5
104
100
AcDbEntity
8
Hull layout
6
ByLayer
62
256
370
-1
100
AcDbLine
10
50.6335635077
20
90.3665173388
11
50.6335635077
21
90.3607173388
0
LINE
5
105
100
AcDbEntity
8
Hull layout
6
ByLayer
62
256
370
-1
100
AcDbLine
10
50.6335635077
20
90.3607173388
11
50.6883635077
21
90.3589173388
0
LINE
5
106
100
AcDbEntity
8
Hull layout
6
ByLayer
62
256
370
-1
100
AcDbLine
10
50.6883635077
20
90.3589173388
11
50.7440635077
21
90.3567173388
0
LINE
5
107
100
AcDbEntity
8
Hull layout
6
ByLayer
62
256
370
-1
100
AcDbLine
10
50.9176635077
20
90.3487173388
11
51.0399635077
21
90.3419173388
0
LINE
5
108
100
AcDbEntity
8
Hull layout
6
ByLayer
62
256
370
-1
100
AcDbLine
10
51.0399635077
20
90.3419173388
11
51.2357635077
21
90.3296173388
0
LINE
5
109
100
AcDbEntity
8
Hull layout
6
ByLayer
62
256
370
-1
100
AcDbLine
10
51.2357635077
20
90.3296173388
11
51.3047635077
21
90.3250173388
0
LINE
5
10A
100
AcDbEntity
8
Hull layout
6
ByLayer
62
256
370
-1
100
AcDbLine
10
51.3047635077
20
90.3250173388
11
51.3755635077
21
90.3201173388
0
LINE
5
10B
100
AcDbEntity
8
Hull layout
6
ByLayer
62
256
370
-1
100
AcDbLine
10
51.3755635077
20
90.3201173388
11
51.4480635077
21
90.3149173388
0
LINE
5
10C
100
AcDbEntity
8
Hull layout
6
ByLayer
62
256
370
-1
100
AcDbLine
10
51.4480635077
20
90.3149173388
11
51.5217635077
21
90.3095173388
0
LINE
5
10D
100
AcDbEntity
8
Hull layout
6
ByLayer
62
256
370
-1
100
AcDbLine
10
51.5217635077
20
90.3095173388
11
51.5967635077
21
90.3039173388
0
LINE
5
10E
100
AcDbEntity
8
Hull layout
6
ByLayer
62
256
370
-1
100
AcDbLine
10
51.5967635077
20
90.3039173388
11
51.6726635077
21
90.2980173388
0
LINE
5
10F
100
AcDbEntity
8
Hull layout
6
ByLayer
62
256
370
-1
100
AcDbLine
10
51.6726635077
20
90.2980173388
11
51.7493635077
21
90.2920173388
0
LINE
5
110
100
AcDbEntity
8
Hull layout
6
ByLayer
62
256
370
-1
100
AcDbLine
10
51.7493635077
20
90.2920173388
11
51.9042635077
21
90.2793173388
0
LINE
5
111
100
AcDbEntity
8
Hull layout
6
ByLayer
62
256
370
-1
100
AcDbLine
10
51.9042635077
20
90.2793173388
11
52.0597635077
21
90.2660173388
0
LINE
5
112
100
AcDbEntity
8
Hull layout
6
ByLayer
62
256
370
-1
100
AcDbLine
10
52.0597635077
20
90.2660173388
11
52.2142635077
21
90.2522173388
0
LINE
5
113
100
AcDbEntity
8
Hull layout
6
ByLayer
62
256
370
-1
100
AcDbLine
10
52.2142635077
20
90.2522173388
11
52.3661635077
21
90.2379173388
0
LINE
5
114
100
AcDbEntity
8
Hull layout
6
ByLayer
62
256
370
-1
100
AcDbLine
10
52.3661635077
20
90.2379173388
11
52.5138635077
21
90.2234173388
0
LINE
5
115
100
AcDbEntity
8
Hull layout
6
ByLayer
62
256
370
-1
100
AcDbLine
10
52.5138635077
20
90.2234173388
11
52.6567635077
21
90.2087173388
0
LINE
5
116
100
AcDbEntity
8
Hull layout
6
ByLayer
62
256
370
-1
100
AcDbLine
10
52.6567635077
20
90.2087173388
11
52.7956635077
21
90.1939173388
0
LINE
5
117
100
AcDbEntity
8
Hull layout
6
ByLayer
62
256
370
-1
100
AcDbLine
10
52.7956635077
20
90.1939173388
11
52.8988635077
21
90.1827173388
0
LINE
5
118
100
AcDbEntity
8
Hull layout
6
ByLayer
62
256
370
-1
100
AcDbLine
10
52.8988635077
20
90.1827173388
11
52.9977635077
21
90.1718173388
0
LINE
5
119
100
AcDbEntity
8
Hull layout
6
ByLayer
62
256
370
-1
100
AcDbLine
10
52.9977635077
20
90.1718173388
11
53.1293635077
21
90.1571173388
0
LINE
5
11A
100
AcDbEntity
8
Hull layout
6
ByLayer
62
256
370
-1
100
AcDbLine
10
53.1293635077
20
90.1571173388
11
53.2590635077
21
90.1425173388
0
LINE
5
11B
100
AcDbEntity
8
Hull layout
6
ByLayer
62
256
370
-1
100
AcDbLine
10
53.2590635077
20
90.1425173388
11
53.3233635077
21
90.1352173388
0
LINE
5
11C
100
AcDbEntity
8
Hull layout
6
ByLayer
62
256
370
-1
100
AcDbLine
10
53.3233635077
20
90.1352173388
11
53.5153635077
21
90.1137173388
0
LINE
5
11D
100
AcDbEntity
8
Hull layout
6
ByLayer
62
256
370
-1
100
AcDbLine
10
53.5153635077
20
90.1137173388
11
53.4778635077
21
90.0589173388
0
LINE
5
11E
100
AcDbEntity
8
Hull layout
6
ByLayer
62
256
370
-1
100
AcDbLine
10
53.4778635077
20
90.0589173388
11
53.4516635077
21
90.0166173388
0
LINE
5
11F
100
AcDbEntity
8
Hull layout
6
ByLayer
62
256
370
-1
100
AcDbLine
10
53.4516635077
20
90.0166173388
11
53.4270635077
21
89.9734173388
0
LINE
5
120
100
AcDbEntity
8
Hull layout
6
ByLayer
62
256
370
-1
100
AcDbLine
10
53.4270635077
20
89.9734173388
11
53.3968635077
21
89.9143173388
0
LINE
5
121
100
AcDbEntity
8
Hull layout
6
ByLayer
62
256
370
-1
100
AcDbLine
10
53.3968635077
20
89.9143173388
11
53.3828635077
21
89.8842173388
0
LINE
5
122
100
AcDbEntity
8
Hull layout
6
ByLayer
62
256
370
-1
100
AcDbLine
10
53.3828635077
20
89.8842173388
11
53.3173635077
21
89.8889173388
0
LINE
5
123
100
AcDbEntity
8
Hull layout
6
ByLayer
62
256
370
-1
100
AcDbLine
10
53.3173635077
20
89.8889173388
11
53.1861635077
21
89.8971173388
0
LINE
5
124
100
AcDbEntity
8
Hull layout
6
ByLayer
62
256
370
-1
100
AcDbLine
10
53.1861635077
20
89.8971173388
11
53.0540635077
21
89.9038173388
0
LINE
5
125
100
AcDbEntity
8
Hull layout
6
ByLayer
62
256
370
-1
100
AcDbLine
10
53.0540635077
20
89.9038173388
11
52.8942635077
21
89.9098173388
0
LINE
5
126
100
AcDbEntity
8
Hull layout
6
ByLayer
62
256
370
-1
100
AcDbLine
10
52.8942635077
20
89.9098173388
11
52.7854635077
21
89.9129173388
0
LINE
5
127
100
AcDbEntity
8
Hull layout
6
ByLayer
62
256
370
-1
100
AcDbLine
10
52.7854635077
20
89.9129173388
11
52.6478635077
21
89.9157173388
0
LINE
5
128
100
AcDbEntity
8
Hull layout
6
ByLayer
62
256
370
-1
100
AcDbLine
10
52.6478635077
20
89.9157173388
11
52.5780635077
21
89.9168173388
0
LINE
5
129
100
AcDbEntity
8
Hull layout
6
ByLayer
62
256
370
-1
100
AcDbLine
10
52.5780635077
20
89.9168173388
11
52.4361635077
21
89.9182173388
0
LINE
5
12A
100
AcDbEntity
8
Hull layout
6
ByLayer
62
256
370
-1
100
AcDbLine
10
52.4361635077
20
89.9182173388
11
52.2906635077
21
89.9187173388
0
LINE
5
12B
100
AcDbEntity
8
Hull layout
6
ByLayer
62
256
370
-1
100
AcDbLine
10
52.2906635077
20
89.9187173388
11
52.1413635077
21
89.9186173388
0
LINE
5
12C
100
AcDbEntity
8
Hull layout
6
ByLayer
62
256
370
-1
100
AcDbLine
10
52.1413635077
20
89.9186173388
11
51.9134635077
21
89.9173173388
0
LINE
5
12D
100
AcDbEntity
8
Hull layout
6
ByLayer
62
256
370
-1
100
AcDbLine
10
51.9134635077
20
89.9173173388
11
51.7614635077
21
89.9161173388
0
LINE
5
12E
100
AcDbEntity
8
Hull layout
6
ByLayer
62
256
370
-1
100
AcDbLine
10
51.7614635077
20
89.9161173388
11
51.7300635077
21
89.9158173388
0
LINE
5
12F
100
AcDbEntity
8
Hull layout
6
ByLayer
62
256
370
-1
100
AcDbLine
10
51.7300635077
20
89.9158173388
11
51.5376635077
21
89.9140173388
0
LINE
5
130
100
AcDbEntity
8
Hull layout
6
ByLayer
62
256
370
-1
100
AcDbLine
10
51.5376635077
20
89.9140173388
11
51.4286662324
21
89.9129614832
0
LINE
5
131
100
AcDbEntity
8
Hull layout
6
ByLayer
62
256
370
-1
100
AcDbLine
10
51.4286662324
20
89.9129614832
11
51.2557635078
21
89.9115173388
0
LINE
5
132
100
AcDbEntity
8
Hull layout
6
ByLayer
62
256
370
-1
100
AcDbLine
10
51.2557635078
20
89.9115173388
11
51.0641635078
21
89.9104173388
0
LINE
5
133
100
AcDbEntity
8
Hull layout
6
ByLayer
62
256
370
-1
100
AcDbLine
10
51.0641635078
20
89.9104173388
11
50.8923635077
21
89.9101173388
0
LINE
5
134
100
AcDbEntity
8
Hull layout
6
ByLayer
62
256
370
-1
100
AcDbLine
10
50.8923635077
20
89.9101173388
11
50.8894259987
21
89.9053453017
0
LINE
5
135
100
AcDbEntity
8
Hull layout
6
ByLayer
62
256
370
-1
100
AcDbLine
10
50.8894259987
20
89.9053453017
11
51.0018083006
21
89.9019075362
0
LINE
5
136
100
AcDbEntity
8
Hull layout
6
ByLayer
62
256
370
-1
100
AcDbLine
10
51.0018083006
20
89.9019075362
11
51.0609971334
21
89.8997716364
0
LINE
5
137
100
AcDbEntity
8
Hull layout
6
ByLayer
62
256
370
-1
100
AcDbLine
10
51.0609971334
20
89.8997716364
11
51.1863712817
21
89.8948601254
0
LINE
5
138
100
AcDbEntity
8
Hull layout
6
ByLayer
62
256
370
-1
100
AcDbLine
10
51.1863712817
20
89.8948601254
11
51.3203396171
21
89.8888998299
0
LINE
5
139
100
AcDbEntity
8
Hull layout
6
ByLayer
62
256
370
-1
100
AcDbLine
10
51.3203396171
20
89.8888998299
11
51.4614044334
21
89.8822992554
0
LINE
5
13A
100
AcDbEntity
8
Hull layout
6
ByLayer
62
256
370
-1
100
AcDbLine
10
51.4614044334
20
89.8822992554
11
51.607565763
21
89.8750697508
0
LINE
5
13B
100
AcDbEntity
8
Hull layout
6
ByLayer
62
256
370
-1
100
AcDbLine
10
51.607565763
20
89.8750697508
11
51.7574247632
21
89.867419257
0
LINE
5
13C
100
AcDbEntity
8
Hull layout
6
ByLayer
62
256
370
-1
100
AcDbLine
10
51.7574247632
20
89.867419257
11
51.9091831654
21
89.8596579833
0
LINE
5
13D
100
AcDbEntity
8
Hull layout
6
ByLayer
62
256
370
-1
100
AcDbLine
10
51.9091831654
20
89.8596579833
11
51.985162081
21
89.8557267799
0
LINE
5
13E
100
AcDbEntity
8
Hull layout
6
ByLayer
62
256
370
-1
100
AcDbLine
10
51.985162081
20
89.8557267799
11
52.0610409985
21
89.8517961439
0
LINE
5
13F
100
AcDbEntity
8
Hull layout
6
ByLayer
62
256
370
-1
100
AcDbLine
10
52.0610409985
20
89.8517961439
11
52.2113994232
21
89.8440428145
0
LINE
5
140
100
AcDbEntity
8
Hull layout
6
ByLayer
62
256
370
-1
100
AcDbLine
10
52.2113994232
20
89.8440428145
11
52.3286726058
21
89.8380313195
0
LINE
5
141
100
AcDbEntity
8
Hull layout
6
ByLayer
62
256
370
-1
100
AcDbLine
10
52.3286726058
20
89.8380313195
11
52.4307391462
21
89.8327979965
0
LINE
5
142
100
AcDbEntity
8
Hull layout
6
ByLayer
62
256
370
-1
100
AcDbLine
10
52.4307391462
20
89.8327979965
11
52.5724016831
21
89.8257940237
0
LINE
5
143
100
AcDbEntity
8
Hull layout
6
ByLayer
62
256
370
-1
100
AcDbLine
10
52.5724016831
20
89.8257940237
11
52.6419841066
21
89.8224991272
0
LINE
5
144
100
AcDbEntity
8
Hull layout
6
ByLayer
62
256
370
-1
100
AcDbLine
10
52.6419841066
20
89.8224991272
11
52.7792506865
21
89.8162201108
0
LINE
5
145
100
AcDbEntity
8
Hull layout
6
ByLayer
62
256
370
-1
100
AcDbLine
10
52.7792506865
20
89.8162201108
11
52.9143224088
21
89.8108535638
0
LINE
5
146
100
AcDbEntity
8
Hull layout
6
ByLayer
62
256
370
-1
100
AcDbLine
10
52.9143224088
20
89.8108535638
11
52.9811105518
21
89.8085745397
0
LINE
5
147
100
AcDbEntity
8
Hull layout
6
ByLayer
62
256
370
-1
100
AcDbLine
10
52.9811105518
20
89.8085745397
11
53.1135936649
21
89.8052227142
0
LINE
5
148
100
AcDbEntity
8
Hull layout
6
ByLayer
62
256
370
-1
100
AcDbLine
10
53.1135936649
20
89.8052227142
11
53.2451875741
21
89.803775965
0
LINE
5
149
100
AcDbEntity
8
Hull layout
6
ByLayer
62
256
370
-1
100
AcDbLine
10
53.2451875741
20
89.803775965
11
53.3760962481
21
89.8049331461
0
LINE
5
14A
100
AcDbEntity
8
Hull layout
6
ByLayer
62
256
370
-1
100
AcDbLine
10
53.3760962481
20
89.8049331461
11
53.3548325956
21
89.7761533428
0
LINE
5
14B
100
AcDbEntity
8
Hull layout
6
ByLayer
62
256
370
-1
100
AcDbLine
10
53.3548325956
20
89.7761533428
11
53.3424329229
21
89.7586234221
0
LINE
5
14C
100
AcDbEntity
8
Hull layout
6
ByLayer
62
256
370
-1
100
AcDbLine
10
53.3424329229
20
89.7586234221
11
53.2699261459
21
89.7576348438
0
LINE
5
14D
100
AcDbEntity
8
Hull layout
6
ByLayer
62
256
370
-1
100
AcDbLine
10
53.2699261459
20
89.7576348438
11
53.1247120274
21
89.7555588237
0
LINE
5
14E
100
AcDbEntity
8
Hull layout
6
ByLayer
62
256
370
-1
100
AcDbLine
10
53.1247120274
20
89.7555588237
11
52.9791984816
21
89.7535845044
0
LINE
5
14F
100
AcDbEntity
8
Hull layout
6
ByLayer
62
256
370
-1
100
AcDbLine
10
52.9791984816
20
89.7535845044
11
52.9062917111
21
89.7525981959
0
LINE
5
150
100
AcDbEntity
8
Hull layout
6
ByLayer
62
256
370
-1
100
AcDbLine
10
52.9062917111
20
89.7525981959
11
52.7599793129
21
89.7508284129
0
LINE
5
151
100
AcDbEntity
8
Hull layout
6
ByLayer
62
256
370
-1
100
AcDbLine
10
52.7599793129
20
89.7508284129
11
52.6129686283
21
89.7493625972
0
LINE
5
152
100
AcDbEntity
8
Hull layout
6
ByLayer
62
256
370
-1
100
AcDbLine
10
52.6129686283
20
89.7493625972
11
52.4648590963
21
89.7481030202
0
LINE
5
153
100
AcDbEntity
8
Hull layout
6
ByLayer
62
256
370
-1
100
AcDbLine
10
52.4648590963
20
89.7481030202
11
52.3904546196
21
89.747525217
0
LINE
5
154
100
AcDbEntity
8
Hull layout
6
ByLayer
62
256
370
-1
100
AcDbLine
10
52.3904546196
20
89.747525217
11
52.3157512827
21
89.7471491129
0
LINE
5
155
100
AcDbEntity
8
Hull layout
6
ByLayer
62
256
370
-1
100
AcDbLine
10
52.3157512827
20
89.7471491129
11
52.1652446266
21
89.7464031465
0
LINE
5
156
100
AcDbEntity
8
Hull layout
6
ByLayer
62
256
370
-1
100
AcDbLine
10
52.1652446266
20
89.7464031465
11
52.0133396961
21
89.7459651197
0
LINE
5
157
100
AcDbEntity
8
Hull layout
6
ByLayer
62
256
370
-1
100
AcDbLine
10
52.0133396961
20
89.7459651197
11
51.9372375159
21
89.7457969566
0
LINE
5
158
100
AcDbEntity
8
Hull layout
6
ByLayer
62
256
370
-1
100
AcDbLine
10
51.9372375159
20
89.7457969566
11
51.8614358991
21
89.7457270896
0
LINE
5
159
100
AcDbEntity
8
Hull layout
6
ByLayer
62
256
370
-1
100
AcDbLine
10
51.8614358991
20
89.7457270896
11
51.8641484489
21
89.7413968752
0
LINE
5
15A
100
AcDbEntity
8
Hull layout
6
ByLayer
62
256
370
-1
100
AcDbLine
10
51.8641484489
20
89.7413968752
11
51.9399470855
21
89.7407210885
0
LINE
5
15B
100
AcDbEntity
8
Hull layout
6
ByLayer
62
256
370
-1
100
AcDbLine
10
51.9399470855
20
89.7407210885
11
52.0160454894
21
89.7399446063
0
LINE
5
15C
100
AcDbEntity
8
Hull layout
6
ByLayer
62
256
370
-1
100
AcDbLine
10
52.0160454894
20
89.7399446063
11
52.167942066
21
89.7382923378
0
LINE
5
15D
100
AcDbEntity
8
Hull layout
6
ByLayer
62
256
370
-1
100
AcDbLine
10
52.167942066
20
89.7382923378
11
52.2433400083
21
89.7373174795
0
LINE
5
15E
100
AcDbEntity
8
Hull layout
6
ByLayer
62
256
370
-1
100
AcDbLine
10
52.2433400083
20
89.7373174795
11
52.3931358946
21
89.735370082
0
LINE
5
15F
100
AcDbEntity
8
Hull layout
6
ByLayer
62
256
370
-1
100
AcDbLine
10
52.3931358946
20
89.735370082
11
52.4675333754
21
89.7341975434
0
LINE
5
160
100
AcDbEntity
8
Hull layout
6
ByLayer
62
256
370
-1
100
AcDbLine
10
52.4675333754
20
89.7341975434
11
52.6892253581
21
89.7304834066
0
LINE
5
161
100
AcDbEntity
8
Hull layout
6
ByLayer
62
256
370
-1
100
AcDbLine
10
52.6892253581
20
89.7304834066
11
52.8358191661
21
89.7276434326
0
LINE
5
162
100
AcDbEntity
8
Hull layout
6
ByLayer
62
256
370
-1
100
AcDbLine
10
52.8358191661
20
89.7276434326
11
52.9818125119
21
89.7246048507
0
LINE
5
163
100
AcDbEntity
8
Hull layout
6
ByLayer
62
256
370
-1
100
AcDbLine
10
52.9818125119
20
89.7246048507
11
53.1273056273
21
89.7214674286
0
LINE
5
164
100
AcDbEntity
8
Hull layout
6
ByLayer
62
256
370
-1
100
AcDbLine
10
53.1273056273
20
89.7214674286
11
53.2724985113
21
89.7182307024
0
LINE
5
165
100
AcDbEntity
8
Hull layout
6
ByLayer
62
256
370
-1
100
AcDbLine
10
53.2724985113
20
89.7182307024
11
53.3449950696
21
89.7166625712
0
LINE
5
166
100
AcDbEntity
8
Hull layout
6
ByLayer
62
256
370
-1
100
AcDbLine
10
53.3449950696
20
89.7166625712
11
53.3613405266
21
89.693124601
0
LINE
5
167
100
AcDbEntity
8
Hull layout
6
ByLayer
62
256
370
-1
100
AcDbLine
10
53.3613405266
20
89.693124601
11
53.3782871414
21
89.6700852381
0
LINE
5
168
100
AcDbEntity
8
Hull layout
6
ByLayer
62
256
370
-1
100
AcDbLine
10
53.3782871414
20
89.6700852381
11
53.3128903322
21
89.671536904
0
LINE
5
169
100
AcDbEntity
8
Hull layout
6
ByLayer
62
256
370
-1
100
AcDbLine
10
53.3128903322
20
89.671536904
11
53.1008902065
21
89.6717285549
0
LINE
5
16A
100
AcDbEntity
8
Hull layout
6
ByLayer
62
256
370
-1
100
AcDbLine
10
53.1008902065
20
89.6717285549
11
52.9164807302
21
89.6678562093
0
LINE
5
16B
100
AcDbEntity
8
Hull layout
6
ByLayer
62
256
370
-1
100
AcDbLine
10
52.9164807302
20
89.6678562093
11
52.7813704257
21
89.6635695326
0
LINE
5
16C
100
AcDbEntity
8
Hull layout
6
ByLayer
62
256
370
-1
100
AcDbLine
10
52.7813704257
20
89.6635695326
11
52.6440580398
21
89.6583879604
0
LINE
5
16D
100
AcDbEntity
8
Hull layout
6
ByLayer
62
256
370
-1
100
AcDbLine
10
52.6440580398
20
89.6583879604
11
52.5039445019
21
89.6527128831
0
LINE
5
16E
100
AcDbEntity
8
Hull layout
6
ByLayer
62
256
370
-1
100
AcDbLine
10
52.5039445019
20
89.6527128831
11
52.360630045
21
89.6466452279
0
LINE
5
16F
100
AcDbEntity
8
Hull layout
6
ByLayer
62
256
370
-1
100
AcDbLine
10
52.360630045
20
89.6466452279
11
52.2133149031
21
89.64028685
0
LINE
5
170
100
AcDbEntity
8
Hull layout
6
ByLayer
62
256
370
-1
100
AcDbLine
10
52.2133149031
20
89.64028685
11
52.1384072196
21
89.63706056
0
LINE
5
171
100
AcDbEntity
8
Hull layout
6
ByLayer
62
256
370
-1
100
AcDbLine
10
52.1384072196
20
89.63706056
11
51.986991393
21
89.6304116912
0
LINE
5
172
100
AcDbEntity
8
Hull layout
6
ByLayer
62
256
370
-1
100
AcDbLine
10
51.986991393
20
89.6304116912
11
51.834975568
21
89.6237642139
0
LINE
5
173
100
AcDbEntity
8
Hull layout
6
ByLayer
62
256
370
-1
100
AcDbLine
10
51.834975568
20
89.6237642139
11
51.6838602044
21
89.6173146488
0
LINE
5
174
100
AcDbEntity
8
Hull layout
6
ByLayer
62
256
370
-1
100
AcDbLine
10
51.6838602044
20
89.6173146488
11
51.5355452971
21
89.6110585897
0
LINE
5
175
100
AcDbEntity
8
Hull layout
6
ByLayer
62
256
370
-1
100
AcDbLine
10
51.5355452971
20
89.6110585897
11
51.3917313054
21
89.6051920935
0
LINE
5
176
100
AcDbEntity
8
Hull layout
6
ByLayer
62
256
370
-1
100
AcDbLine
10
51.3917313054
20
89.6051920935
11
51.1879133006
21
89.5976647485
0
LINE
5
177
100
AcDbEntity
8
Hull layout
6
ByLayer
62
256
370
-1
100
AcDbLine
10
51.1879133006
20
89.5976647485
11
51.0625038976
21
89.5937555754
0
LINE
5
178
100
AcDbEntity
8
Hull layout
6
ByLayer
62
256
370
-1
100
AcDbLine
10
51.0625038976
20
89.5937555754
11
50.9460965576
21
89.590725528
0
LINE
5
179
100
AcDbEntity
8
Hull layout
6
ByLayer
62
256
370
-1
100
AcDbLine
10
50.9460965576
20
89.590725528
11
50.8908936912
21
89.5895535461
0
LINE
5
17A
100
AcDbEntity
8
Hull layout
6
ByLayer
62
256
370
-1
100
AcDbLine
10
50.8908936912
20
89.5895535461
11
50.8937929609
21
89.5847581803
0
LINE
5
17B
100
AcDbEntity
8
Hull layout
6
ByLayer
62
256
370
-1
100
AcDbLine
10
50.8937929609
20
89.5847581803
11
51.0062885673
21
89.5837589122
0
LINE
5
17C
100
AcDbEntity
8
Hull layout
6
ByLayer
62
256
370
-1
100
AcDbLine
10
51.0062885673
20
89.5837589122
11
51.1270815105
21
89.5823933074
0
LINE
5
17D
100
AcDbEntity
8
Hull layout
6
ByLayer
62
256
370
-1
100
AcDbLine
10
51.1270815105
20
89.5823933074
11
51.2571701599
21
89.5804533789
0
LINE
5
17E
100
AcDbEntity
8
Hull layout
6
ByLayer
62
256
370
-1
100
AcDbLine
10
51.2571701599
20
89.5804533789
11
51.3949569644
21
89.5782519066
0
LINE
5
17F
100
AcDbEntity
8
Hull layout
6
ByLayer
62
256
370
-1
100
AcDbLine
10
51.3949569644
20
89.5782519066
11
51.5390411696
21
89.5757000847
0
LINE
5
180
100
AcDbEntity
8
Hull layout
6
ByLayer
62
256
370
-1
100
AcDbLine
10
51.5390411696
20
89.5757000847
11
51.6875252343
21
89.5731130912
0
LINE
5
181
100
AcDbEntity
8
Hull layout
6
ByLayer
62
256
370
-1
100
AcDbLine
10
51.6875252343
20
89.5731130912
11
51.8387100121
21
89.5706045121
0
LINE
5
182
100
AcDbEntity
8
Hull layout
6
ByLayer
62
256
370
-1
100
AcDbLine
10
51.8387100121
20
89.5706045121
11
51.9909955541
21
89.5681871369
0
LINE
5
183
100
AcDbEntity
8
Hull layout
6
ByLayer
62
256
370
-1
100
AcDbLine
10
51.9909955541
20
89.5681871369
11
52.142685112
21
89.5662745419
0
LINE
5
184
100
AcDbEntity
8
Hull layout
6
ByLayer
62
256
370
-1
100
AcDbLine
10
52.142685112
20
89.5662745419
11
52.2176819165
21
89.5655750309
0
LINE
5
185
100
AcDbEntity
8
Hull layout
6
ByLayer
62
256
370
-1
100
AcDbLine
10
52.2176819165
20
89.5655750309
11
52.3651780034
21
89.564495983
0
LINE
5
186
100
AcDbEntity
8
Hull layout
6
ByLayer
62
256
370
-1
100
AcDbLine
10
52.3651780034
20
89.564495983
11
52.5088814059
21
89.5643472819
0
LINE
5
187
100
AcDbEntity
8
Hull layout
6
ByLayer
62
256
370
-1
100
AcDbLine
10
52.5088814059
20
89.5643472819
11
52.6491921112
21
89.5651257299
0
LINE
5
188
100
AcDbEntity
8
Hull layout
6
ByLayer
62
256
370
-1
100
AcDbLine
10
52.6491921112
20
89.5651257299
11
52.7752080695
21
89.5666184662
0
LINE
5
189
100
AcDbEntity
8
Hull layout
6
ByLayer
62
256
370
-1
100
AcDbLine
10
52.7752080695
20
89.5666184662
11
52.9220369522
21
89.5696448828
0
LINE
5
18A
100
AcDbEntity
8
Hull layout
6
ByLayer
62
256
370
-1
100
AcDbLine
10
52.9220369522
20
89.5696448828
11
53.1216977208
21
89.5764491073
0
LINE
5
18B
100
AcDbEntity
8
Hull layout
6
ByLayer
62
256
370
-1
100
AcDbLine
10
53.1216977208
20
89.5764491073
11
53.2533518691
21
89.5826969265
0
LINE
5
18C
100
AcDbEntity
8
Hull layout
6
ByLayer
62
256
370
-1
100
AcDbLine
10
53.2533518691
20
89.5826969265
11
53.3844204249
21
89.5907494842
0
LINE
5
18D
100
AcDbEntity
8
Hull layout
6
ByLayer
62
256
370
-1
100
AcDbLine
10
53.3844204249
20
89.5907494842
11
53.4357898288
21
89.4866355354
0
LINE
5
18E
100
AcDbEntity
8
Hull layout
6
ByLayer
62
256
370
-1
100
AcDbLine
10
53.4357898288
20
89.4866355354
11
53.4961997122
21
89.387549482
0
LINE
5
18F
100
AcDbEntity
8
Hull layout
6
ByLayer
62
256
370
-1
100
AcDbLine
10
53.4961997122
20
89.387549482
11
53.5150816782
21
89.3601976747
0
LINE
5
190
100
AcDbEntity
8
Hull layout
6
ByLayer
62
256
370
-1
100
AcDbLine
10
53.5150816782
20
89.3601976747
11
53.387071457
21
89.3469205031
0
LINE
5
191
100
AcDbEntity
8
Hull layout
6
ByLayer
62
256
370
-1
100
AcDbLine
10
53.387071457
20
89.3469205031
11
53.1938041669
21
89.3267647457
0
LINE
5
192
100
AcDbEntity
8
Hull layout
6
ByLayer
62
256
370
-1
100
AcDbLine
10
53.1938041669
20
89.3267647457
11
52.9970337911
21
89.3062369783
0
LINE
5
193
100
AcDbEntity
8
Hull layout
6
ByLayer
62
256
370
-1
100
AcDbLine
10
52.9970337911
20
89.3062369783
11
52.7947635911
21
89.2857531754
0
LINE
5
194
100
AcDbEntity
8
Hull layout
6
ByLayer
62
256
370
-1
100
AcDbLine
10
52.7947635911
20
89.2857531754
11
52.6333464436
21
89.2717430194
0
LINE
5
195
100
AcDbEntity
8
Hull layout
6
ByLayer
62
256
370
-1
100
AcDbLine
10
52.6333464436
20
89.2717430194
11
52.5127367854
21
89.2585066926
0
LINE
5
196
100
AcDbEntity
8
Hull layout
6
ByLayer
62
256
370
-1
100
AcDbLine
10
52.5127367854
20
89.2585066926
11
52.2893704569
21
89.2385915402
0
LINE
5
197
100
AcDbEntity
8
Hull layout
6
ByLayer
62
256
370
-1
100
AcDbLine
10
52.2893704569
20
89.2385915402
11
52.0583107692
21
89.2195379123
0
LINE
5
198
100
AcDbEntity
8
Hull layout
6
ByLayer
62
256
370
-1
100
AcDbLine
10
52.0583107692
20
89.2195379123
11
51.825060744
21
89.2017018319
0
LINE
5
199
100
AcDbEntity
8
Hull layout
6
ByLayer
62
256
370
-1
100
AcDbLine
10
51.825060744
20
89.2017018319
11
51.5950226069
21
89.1853401243
0
LINE
5
19A
100
AcDbEntity
8
Hull layout
6
ByLayer
62
256
370
-1
100
AcDbLine
10
51.5950226069
20
89.1853401243
11
51.3028632726
21
89.166574907
0
LINE
5
19B
100
AcDbEntity
8
Hull layout
6
ByLayer
62
256
370
-1
100
AcDbLine
10
51.3028632726
20
89.166574907
11
50.9760106424
21
89.1487870427
0
LINE
5
19C
100
AcDbEntity
8
Hull layout
6
ByLayer
62
256
370
-1
100
AcDbLine
10
50.9760106424
20
89.1487870427
11
50.7986451645
21
89.1413045787
0
LINE
5
19D
100
AcDbEntity
8
Hull layout
6
ByLayer
62
256
370
-1
100
AcDbLine
10
50.7986451645
20
89.1413045787
11
50.6313993478
21
89.1362413002
0
LINE
5
19E
100
AcDbEntity
8
Hull layout
6
ByLayer
62
256
370
-1
100
AcDbLine
10
50.6313993478
20
89.1362413002
11
50.5236796075
21
89.1342022952
0
LINE
5
19F
100
AcDbEntity
8
Hull layout
6
ByLayer
62
256
370
-1
100
AcDbLine
10
50.5236796075
20
89.1342022952
11
50.5237596205
21
89.1317015757
0
LINE
5
1A0
100
AcDbEntity
8
Hull layout
6
ByLayer
62
256
370
-1
100
AcDbLine
10
50.5237596205
20
89.1317015757
11
50.6862488334
21
89.1297026506
0
LINE
5
1A1
100
AcDbEntity
8
Hull layout
6
ByLayer
62
256
370
-1
100
AcDbLine
10
50.6862488334
20
89.1297026506
11
50.9157263134
21
89.1259681978
0
LINE
5
1A2
100
AcDbEntity
8
Hull layout
6
ByLayer
62
256
370
-1
100
AcDbLine
10
50.9157263134
20
89.1259681978
11
51.101800384
21
89.1219806831
0
LINE
5
1A3
100
AcDbEntity
8
Hull layout
6
ByLayer
62
256
370
-1
100
AcDbLine
10
51.101800384
20
89.1219806831
11
51.3034627652
21
89.1164685142
0
LINE
5
1A4
100
AcDbEntity
8
Hull layout
6
ByLayer
62
256
370
-1
100
AcDbLine
10
51.3034627652
20
89.1164685142
11
51.4470302
21
89.1118207561
0
LINE
5
1A5
100
AcDbEntity
8
Hull layout
6
ByLayer
62
256
370
-1
100
AcDbLine
10
51.4470302
20
89.1118207561
11
51.6721742447
21
89.1039208096
0
LINE
5
1A6
100
AcDbEntity
8
Hull layout
6
ByLayer
62
256
370
-1
100
AcDbLine
10
51.6721742447
20
89.1039208096
11
51.9043116709
21
89.0951649341
0
LINE
5
1A7
100
AcDbEntity
8
Hull layout
6
ByLayer
62
256
370
-1
100
AcDbLine
10
51.9043116709
20
89.0951649341
11
52.0602667193
21
89.0889181043
0
LINE
5
1A8
100
AcDbEntity
8
Hull layout
6
ByLayer
62
256
370
-1
100
AcDbLine
10
52.0602667193
20
89.0889181043
11
52.2152202009
21
89.0824792744
0
LINE
5
1A9
100
AcDbEntity
8
Hull layout
6
ByLayer
62
256
370
-1
100
AcDbLine
10
52.2152202009
20
89.0824792744
11
52.3676737624
21
89.0760604283
0
LINE
5
1AA
100
AcDbEntity
8
Hull layout
6
ByLayer
62
256
370
-1
100
AcDbLine
10
52.3676737623
20
89.0760604283
11
52.5159282574
21
89.0697751518
0
LINE
5
1AB
100
AcDbEntity
8
Hull layout
6
ByLayer
62
256
370
-1
100
AcDbLine
10
52.5159282574
20
89.0697751518
11
52.6594829026
21
89.0635274448
0
LINE
5
1AC
100
AcDbEntity
8
Hull layout
6
ByLayer
62
256
370
-1
100
AcDbLine
10
52.6594829026
20
89.0635274448
11
52.799038475
21
89.0574117088
0
LINE
5
1AD
100
AcDbEntity
8
Hull layout
6
ByLayer
62
256
370
-1
100
AcDbLine
10
52.799038475
20
89.0574117088
11
52.935194156
21
89.0513231507
0
LINE
5
1AE
100
AcDbEntity
8
Hull layout
6
ByLayer
62
256
370
-1
100
AcDbLine
10
52.935194156
20
89.0513231507
11
53.1344294359
21
89.0424302748
0
LINE
5
1AF
100
AcDbEntity
8
Hull layout
6
ByLayer
62
256
370
-1
100
AcDbLine
10
53.1344294359
20
89.0424302748
11
53.2647861016
21
89.036488076
0
LINE
5
1B0
100
AcDbEntity
8
Hull layout
6
ByLayer
62
256
370
-1
100
AcDbLine
10
53.2647861016
20
89.036488076
11
53.3939436048
21
89.0306554662
0
LINE
5
1B1
100
AcDbEntity
8
Hull layout
6
ByLayer
62
256
370
-1
100
AcDbLine
10
53.3939436048
20
89.0306554662
11
53.5225003279
21
89.0247276557
0
LINE
5
1B2
100
AcDbEntity
8
Hull layout
6
ByLayer
62
256
370
-1
100
AcDbLine
10
53.6608824151
20
88.58152417
11
53.5926622121
21
88.5792694177
0
LINE
5
1B3
100
AcDbEntity
8
Hull layout
6
ByLayer
62
256
370
-1
100
AcDbLine
10
53.5265070006
20
88.5887794791
11
53.5242430449
21
88.5932977204
0
LINE
5
1B4
100
AcDbEntity
8
Hull layout
6
ByLayer
62
256
370
-1
100
AcDbLine
10
53.5244112355
20
88.5771136437
11
53.4559918383
21
88.5749604869
0
LINE
5
1B5
100
AcDbEntity
8
Hull layout
6
ByLayer
62
256
370
-1
100
AcDbLine
10
53.5926329495
20
88.579268472
11
53.5244135459
21
88.5771137165
0
LINE
5
1B6
100
AcDbEntity
8
Hull layout
6
ByLayer
62
256
370
-1
100
AcDbLine
10
53.4560174484
20
88.5749613093
11
53.3872972614
21
88.5727105537
0
LINE
5
1B7
100
AcDbEntity
8
Hull layout
6
ByLayer
62
256
370
-1
100
AcDbLine
10
53.3872636699
20
88.5727094818
11
53.3181442951
21
88.5705619205
0
LINE
5
1B8
100
AcDbEntity
8
Hull layout
6
ByLayer
62
256
370
-1
100
AcDbLine
10
53.3181409237
20
88.570561816
11
53.2487215584
21
88.5684166527
0
LINE
5
1B9
100
AcDbEntity
8
Hull layout
6
ByLayer
62
256
370
-1
100
AcDbLine
10
53.2487160036
20
88.5684164819
11
53.1787966543
21
88.5662753154
0
LINE
5
1BA
100
AcDbEntity
8
Hull layout
6
ByLayer
62
256
370
-1
100
AcDbLine
10
53.1787900923
20
88.5662751155
11
53.1082707622
21
88.5641387451
0
LINE
5
1BB
100
AcDbEntity
8
Hull layout
6
ByLayer
62
256
370
-1
100
AcDbLine
10
53.1082653784
20
88.5641385828
11
53.0372460643
21
88.5620062091
0
LINE
5
1BC
100
AcDbEntity
8
Hull layout
6
ByLayer
62
256
370
-1
100
AcDbLine
10
53.0372376059
20
88.562005957
11
52.9654183173
21
88.5598799782
0
LINE
5
1BD
100
AcDbEntity
8
Hull layout
6
ByLayer
62
256
370
-1
100
AcDbLine
10
52.9653845199
20
88.5598790063
11
52.8929660498
21
88.5578578204
0
LINE
5
1BE
100
AcDbEntity
8
Hull layout
6
ByLayer
62
256
370
-1
100
AcDbLine
10
52.8929844844
20
88.5578583434
11
52.8196652437
21
88.5557443549
0
LINE
5
1BF
100
AcDbEntity
8
Hull layout
6
ByLayer
62
256
370
-1
100
AcDbLine
10
52.8196303584
20
88.5557433795
11
52.7455119427
21
88.5537357826
0
LINE
5
1C0
100
AcDbEntity
8
Hull layout
6
ByLayer
62
256
370
-1
100
AcDbLine
10
52.6703751445
20
88.551735689
11
52.5942567926
21
88.5497440791
0
LINE
5
1C1
100
AcDbEntity
8
Hull layout
6
ByLayer
62
256
370
-1
100
AcDbLine
10
52.7455026131
20
88.5537355321
11
52.6703842293
21
88.5517359288
0
LINE
5
1C2
100
AcDbEntity
8
Hull layout
6
ByLayer
62
256
370
-1
100
AcDbLine
10
52.5942470708
20
88.5497438271
11
52.5170287541
21
88.5477610102
0
LINE
5
1C3
100
AcDbEntity
8
Hull layout
6
ByLayer
62
256
370
-1
100
AcDbLine
10
52.5169954301
20
88.5477601823
11
52.4388779415
21
88.5458845563
0
LINE
5
1C4
100
AcDbEntity
8
Hull layout
6
ByLayer
62
256
370
-1
100
AcDbLine
10
52.4388967732
20
88.5458850173
11
52.3599785108
21
88.5439157893
0
LINE
5
1C5
100
AcDbEntity
8
Hull layout
6
ByLayer
62
256
370
-1
100
AcDbLine
10
52.3599232927
20
88.5439144878
11
52.2804066482
21
88.5421500495
0
LINE
5
1C6
100
AcDbEntity
8
Hull layout
6
ByLayer
62
256
370
-1
100
AcDbLine
10
52.2804294135
20
88.5421505676
11
52.2006119792
21
88.5402885306
0
LINE
5
1C7
100
AcDbEntity
8
Hull layout
6
ByLayer
62
256
370
-1
100
AcDbLine
10
52.2005590394
20
88.5402873657
11
52.1203432166
21
88.5386285197
0
LINE
5
1C8
100
AcDbEntity
8
Hull layout
6
ByLayer
62
256
370
-1
100
AcDbLine
10
52.1203681272
20
88.5386290504
11
52.0401515051
21
88.5368702076
0
LINE
5
1C9
100
AcDbEntity
8
Hull layout
6
ByLayer
62
256
370
-1
100
AcDbLine
10
52.0401016814
20
88.5368691773
11
51.959886658
21
88.5353103281
0
LINE
5
1CA
100
AcDbEntity
8
Hull layout
6
ByLayer
62
256
370
-1
100
AcDbLine
10
51.959888716
20
88.5353103682
11
51.8799736829
21
88.533749121
0
LINE
5
1CB
100
AcDbEntity
8
Hull layout
6
ByLayer
62
256
370
-1
100
AcDbLine
10
51.8799506536
20
88.5337486843
11
51.8003364103
21
88.5322850358
0
LINE
5
1CC
100
AcDbEntity
8
Hull layout
6
ByLayer
62
256
370
-1
100
AcDbLine
10
51.7213060321
20
88.5308163014
11
51.6430925435
21
88.5294414588
0
LINE
5
1CD
100
AcDbEntity
8
Hull layout
6
ByLayer
62
256
370
-1
100
AcDbLine
10
51.8003404142
20
88.5322851098
11
51.7213261518
21
88.5308166652
0
LINE
5
1CE
100
AcDbEntity
8
Hull layout
6
ByLayer
62
256
370
-1
100
AcDbLine
10
51.643046786
20
88.5294407069
11
51.5657348673
21
88.5282586637
0
LINE
5
1CF
100
AcDbEntity
8
Hull layout
6
ByLayer
62
256
370
-1
100
AcDbLine
10
51.565740967
20
88.5282587579
11
51.4894290164
21
88.5270687212
0
LINE
5
1D0
100
AcDbEntity
8
Hull layout
6
ByLayer
62
256
370
-1
100
AcDbLine
10
51.4142808106
20
88.5259685461
11
51.3406703724
21
88.5249569205
0
LINE
5
1D1
100
AcDbEntity
8
Hull layout
6
ByLayer
62
256
370
-1
100
AcDbLine
10
51.4894099367
20
88.5270684328
11
51.414298747
21
88.5259688006
0
LINE
5
1D2
100
AcDbEntity
8
Hull layout
6
ByLayer
62
256
370
-1
100
AcDbLine
10
51.340623425
20
88.5249563304
11
51.2684145408
21
88.5241335075
0
LINE
5
1D3
100
AcDbEntity
8
Hull layout
6
ByLayer
62
256
370
-1
100
AcDbLine
10
51.2684233257
20
88.5241336095
11
51.1978143904
21
88.523297997
0
LINE
5
1D4
100
AcDbEntity
8
Hull layout
6
ByLayer
62
256
370
-1
100
AcDbLine
10
51.1977641303
20
88.5232974653
11
51.1284567522
21
88.5226514548
0
LINE
5
1D5
100
AcDbEntity
8
Hull layout
6
ByLayer
62
256
370
-1
100
AcDbLine
10
51.1284339685
20
88.5226512554
11
51.0604273481
21
88.5220948501
0
LINE
5
1D6
100
AcDbEntity
8
Hull layout
6
ByLayer
62
256
370
-1
100
AcDbLine
10
51.0604326662
20
88.5220948943
11
50.9935260106
21
88.5215296961
0
LINE
5
1D7
100
AcDbEntity
8
Hull layout
6
ByLayer
62
256
370
-1
100
AcDbLine
10
50.9934707318
20
88.5215293056
11
50.9276656399
21
88.5211553081
0
LINE
5
1D8
100
AcDbEntity
8
Hull layout
6
ByLayer
62
256
370
-1
100
AcDbLine
10
50.9276390021
20
88.5211551745
11
50.8628346775
21
88.5208731803
0
LINE
5
1D9
100
AcDbEntity
8
Hull layout
6
ByLayer
62
256
370
-1
100
AcDbLine
10
50.8628068603
20
88.5208730786
11
50.7989033063
21
88.5206838871
0
LINE
5
1DA
100
AcDbEntity
8
Hull layout
6
ByLayer
62
256
370
-1
100
AcDbLine
10
50.7988740905
20
88.5206838219
11
50.7356713136
21
88.5205890317
0
LINE
5
1DB
100
AcDbEntity
8
Hull layout
6
ByLayer
62
256
370
-1
100
AcDbLine
10
50.7356416989
20
88.5205890093
11
50.6732396957
21
88.5205878211
0
LINE
5
1DC
100
AcDbEntity
8
Hull layout
6
ByLayer
62
256
370
-1
100
AcDbLine
10
50.6732409901
20
88.5205878211
11
50.611338971
21
88.5205826362
0
LINE
5
1DD
100
AcDbEntity
8
Hull layout
6
ByLayer
62
256
370
-1
100
AcDbLine
10
50.6112751428
20
88.5205827327
11
50.5498747064
21
88.5207735446
0
LINE
5
1DE
100
AcDbEntity
8
Hull layout
6
ByLayer
62
256
370
-1
100
AcDbLine
10
50.5498425611
20
88.5207736703
11
50.4888429112
21
88.5210612816
0
LINE
5
1DF
100
AcDbEntity
8
Hull layout
6
ByLayer
62
256
370
-1
100
AcDbLine
10
50.4888102871
20
88.521061462
11
50.428111427
21
88.521446672
0
LINE
5
1E0
100
AcDbEntity
8
Hull layout
6
ByLayer
62
256
370
-1
100
AcDbLine
10
50.428078479
20
88.5214469083
11
50.3674804151
21
88.5219313158
0
LINE
5
1E1
100
AcDbEntity
8
Hull layout
6
ByLayer
62
256
370
-1
100
AcDbLine
10
50.3674804151
20
88.5219313158
11
50.3070823448
21
88.5224141245
0
LINE
5
1E2
100
AcDbEntity
8
Hull layout
6
ByLayer
62
256
370
-1
100
AcDbLine
10
50.307016123
20
88.5224147635
11
50.2466196514
21
88.5230975659
0
LINE
5
1E3
100
AcDbEntity
8
Hull layout
6
ByLayer
62
256
370
-1
100
AcDbLine
10
50.246586706
20
88.5230979655
11
50.1860910369
21
88.5238815641
0
LINE
5
1E4
100
AcDbEntity
8
Hull layout
6
ByLayer
62
256
370
-1
100
AcDbLine
10
50.1860913637
20
88.5238815599
11
50.125395701
21
88.5246667571
0
LINE
5
1E5
100
AcDbEntity
8
Hull layout
6
ByLayer
62
256
370
-1
100
AcDbLine
10
50.0643376366
20
88.5256552766
11
50.002943595
21
88.5266460629
0
LINE
5
1E6
100
AcDbEntity
8
Hull layout
6
ByLayer
62
256
370
-1
100
AcDbLine
10
50.1253306232
20
88.5246677049
11
50.0643365688
21
88.5256552938
0
LINE
5
1E7
100
AcDbEntity
8
Hull layout
6
ByLayer
62
256
370
-1
100
AcDbLine
10
50.0028803062
20
88.5266471844
11
49.9409878793
21
88.5278419611
0
LINE
5
1E8
100
AcDbEntity
8
Hull layout
6
ByLayer
62
256
370
-1
100
AcDbLine
10
49.9409900498
20
88.5278419194
11
49.8784976421
21
88.5290414922
0
LINE
5
1E9
100
AcDbEntity
8
Hull layout
6
ByLayer
62
256
370
-1
100
AcDbLine
10
49.8784364038
20
88.5290427615
11
49.8153456139
21
88.530447124
0
LINE
5
1EA
100
AcDbEntity
8
Hull layout
6
ByLayer
62
256
370
-1
100
AcDbLine
10
49.8153496236
20
88.5304470352
11
49.7513588625
21
88.5318585919
0
LINE
5
1EB
100
AcDbEntity
8
Hull layout
6
ByLayer
62
256
370
-1
100
AcDbLine
10
49.7513006365
20
88.5318599611
11
49.6865114997
21
88.5334779062
0
LINE
5
1EC
100
AcDbEntity
8
Hull layout
6
ByLayer
62
256
370
-1
100
AcDbLine
10
49.6864857255
20
88.5334785665
11
49.6207974167
21
88.5352037026
0
LINE
5
1ED
100
AcDbEntity
8
Hull layout
6
ByLayer
62
256
370
-1
100
AcDbLine
10
49.6208039648
20
88.5352035317
11
49.5539156944
21
88.5369382601
0
LINE
5
1EE
100
AcDbEntity
8
Hull layout
6
ByLayer
62
256
370
-1
100
AcDbLine
10
49.4858549596
20
88.538883834
11
49.4165691639
21
88.5409377372
0
LINE
5
1EF
100
AcDbEntity
8
Hull layout
6
ByLayer
62
256
370
-1
100
AcDbLine
10
49.5538627135
20
88.5369397043
11
49.4858760769
21
88.5388832192
0
LINE
5
1F0
100
AcDbEntity
8
Hull layout
6
ByLayer
62
256
370
-1
100
AcDbLine
10
49.4165494662
20
88.5409383308
11
49.3458645146
21
88.5431034218
0
LINE
5
1F1
100
AcDbEntity
8
Hull layout
6
ByLayer
62
256
370
-1
100
AcDbLine
10
49.3458178748
20
88.5431049048
11
49.2737345667
21
88.5454811803
0
LINE
5
1F2
100
AcDbEntity
8
Hull layout
6
ByLayer
62
256
370
-1
100
AcDbLine
10
49.2737447311
20
88.5454808478
11
49.2001614709
21
88.5478691136
0
LINE
5
1F3
100
AcDbEntity
8
Hull layout
6
ByLayer
62
256
370
-1
100
AcDbLine
10
49.200118031
20
88.5478705708
11
49.1250364174
21
88.5504708205
0
LINE
5
1F4
100
AcDbEntity
8
Hull layout
6
ByLayer
62
256
370
-1
100
AcDbLine
10
49.1250186058
20
88.5504714453
11
49.0487378299
21
88.553181284
0
LINE
5
1F5
100
AcDbEntity
8
Hull layout
6
ByLayer
62
256
370
-1
100
AcDbLine
10
49.0487449412
20
88.5531810326
11
48.9714641973
21
88.5558988648
0
LINE
5
1F6
100
AcDbEntity
8
Hull layout
6
ByLayer
62
256
370
-1
100
AcDbLine
10
48.9714193651
20
88.5559004918
11
48.8932402486
21
88.5588255118
0
LINE
5
1F7
100
AcDbEntity
8
Hull layout
6
ByLayer
62
256
370
-1
100
AcDbLine
10
48.8932461961
20
88.5588252902
11
48.8142671052
21
88.561756705
0
LINE
5
1F8
100
AcDbEntity
8
Hull layout
6
ByLayer
62
256
370
-1
100
AcDbLine
10
48.8142456442
20
88.5617575131
11
48.7347673686
21
88.5647929215
0
LINE
5
1F9
100
AcDbEntity
8
Hull layout
6
ByLayer
62
256
370
-1
100
AcDbLine
10
48.7347453972
20
88.5647937727
11
48.6548679337
21
88.5679323753
0
LINE
5
1FA
100
AcDbEntity
8
Hull layout
6
ByLayer
62
256
370
-1
100
AcDbLine
10
48.6548453777
20
88.5679332744
11
48.5746687231
21
88.5711742718
0
LINE
5
1FB
100
AcDbEntity
8
Hull layout
6
ByLayer
62
256
370
-1
100
AcDbLine
10
48.5746687231
20
88.5711742718
11
48.4944920686
21
88.5744152693
0
LINE
5
1FC
100
AcDbEntity
8
Hull layout
6
ByLayer
62
256
370
-1
100
AcDbLine
10
48.4944671791
20
88.5744162909
11
48.4142913239
21
88.5777572852
0
LINE
5
1FD
100
AcDbEntity
8
Hull layout
6
ByLayer
62
256
370
-1
100
AcDbLine
10
48.4142888009
20
88.5777573905
11
48.3344129361
21
88.5810959867
0
LINE
5
1FE
100
AcDbEntity
8
Hull layout
6
ByLayer
62
256
370
-1
100
AcDbLine
10
48.3343835528
20
88.5810972365
11
48.2550084714
21
88.5845318328
0
LINE
5
1FF
100
AcDbEntity
8
Hull layout
6
ByLayer
62
256
370
-1
100
AcDbLine
10
48.2550040117
20
88.5845320262
11
48.1761289143
21
88.5879626257
0
LINE
5
200
100
AcDbEntity
8
Hull layout
6
ByLayer
62
256
370
-1
100
AcDbLine
10
48.1761216602
20
88.5879629426
11
48.0980465373
21
88.5913871472
0
LINE
5
201
100
AcDbEntity
8
Hull layout
6
ByLayer
62
256
370
-1
100
AcDbLine
10
48.0980123517
20
88.5913886758
11
48.0208379993
21
88.5949056832
0
LINE
5
202
100
AcDbEntity
8
Hull layout
6
ByLayer
62
256
370
-1
100
AcDbLine
10
48.0208271665
20
88.5949061798
11
47.944752779
21
88.5984143942
0
LINE
5
203
100
AcDbEntity
8
Hull layout
6
ByLayer
62
256
370
-1
100
AcDbLine
10
47.9447416292
20
88.5984149115
11
47.8697672065
21
88.6019143331
0
LINE
5
204
100
AcDbEntity
8
Hull layout
6
ByLayer
62
256
370
-1
100
AcDbLine
10
47.8697588904
20
88.601914723
11
47.7955844422
21
88.6054077497
0
LINE
5
205
100
AcDbEntity
8
Hull layout
6
ByLayer
62
256
370
-1
100
AcDbLine
10
47.7955737921
20
88.6054082541
11
47.722399312
21
88.6088932873
0
LINE
5
206
100
AcDbEntity
8
Hull layout
6
ByLayer
62
256
370
-1
100
AcDbLine
10
47.7223916825
20
88.6088936521
11
47.64991718
21
88.6123730899
0
LINE
5
207
100
AcDbEntity
8
Hull layout
6
ByLayer
62
256
370
-1
100
AcDbLine
10
47.6498804654
20
88.6123748863
11
47.5782067367
21
88.6159479261
0
LINE
5
208
100
AcDbEntity
8
Hull layout
6
ByLayer
62
256
370
-1
100
AcDbLine
10
47.5782265972
20
88.6159469459
11
47.5072520468
21
88.6194143934
0
LINE
5
209
100
AcDbEntity
8
Hull layout
6
ByLayer
62
256
370
-1
100
AcDbLine
10
47.5072179858
20
88.6194160865
11
47.4367442187
21
88.622979534
0
LINE
5
20A
100
AcDbEntity
8
Hull layout
6
ByLayer
62
256
370
-1
100
AcDbLine
10
47.366885715
20
88.6265374186
11
47.2975111135
21
88.6299920764
0
LINE
5
20B
100
AcDbEntity
8
Hull layout
6
ByLayer
62
256
370
-1
100
AcDbLine
10
47.4367369361
20
88.6229799036
11
47.3668631499
21
88.626538555
0
LINE
5
20C
100
AcDbEntity
8
Hull layout
6
ByLayer
62
256
370
-1
100
AcDbLine
10
47.2974773877
20
88.6299937844
11
47.2285035728
21
88.6335452416
0
LINE
5
20D
100
AcDbEntity
8
Hull layout
6
ByLayer
62
256
370
-1
100
AcDbLine
10
47.2284997878
20
88.6335454369
11
47.1598259632
21
88.637094496
0
LINE
5
20E
100
AcDbEntity
8
Hull layout
6
ByLayer
62
256
370
-1
100
AcDbLine
10
47.1598221451
20
88.6370946937
11
47.091448311
21
88.6406413548
0
LINE
5
20F
100
AcDbEntity
8
Hull layout
6
ByLayer
62
256
370
-1
100
AcDbLine
10
47.0914470308
20
88.6406414213
11
47.0231731935
21
88.644187283
0
LINE
5
210
100
AcDbEntity
8
Hull layout
6
ByLayer
62
256
370
-1
100
AcDbLine
10
47.023170622
20
88.6441874168
11
46.9550967783
21
88.6477316798
0
LINE
5
211
100
AcDbEntity
8
Hull layout
6
ByLayer
62
256
370
-1
100
AcDbLine
10
53.7378694899
20
88.5839647993
11
53.6608554764
21
88.5815232978
0
LINE
5
212
100
AcDbEntity
8
Hull layout
6
ByLayer
62
256
370
-1
100
AcDbLine
10
53.5225003279
20
89.0247276557
11
53.7378694899
21
88.5839647993
0
LINE
5
213
100
AcDbEntity
8
Hull layout
6
ByLayer
62
256
370
-1
100
AcDbLine
10
46.9550954869
20
88.6477317471
11
46.8781190075
21
88.6517445163
0
LINE
5
214
100
AcDbEntity
8
Hull layout
6
ByLayer
62
256
370
-1
100
AcDbLine
10
47.1026997654
20
89.0878464947
11
46.8781190075
21
88.6517445163
0
LINE
5
215
100
AcDbEntity
8
Hull layout
6
ByLayer
62
256
370
-1
100
AcDbLine
10
47.1026997654
20
89.0878464947
11
47.1670152969
21
89.0895324409
0
LINE
5
216
100
AcDbEntity
8
Hull layout
6
ByLayer
62
256
370
-1
100
AcDbLine
10
47.1670152969
20
89.0895324409
11
47.360561872
21
89.0945854834
0
LINE
5
217
100
AcDbEntity
8
Hull layout
6
ByLayer
62
256
370
-1
100
AcDbLine
10
47.360561872
20
89.0945854834
11
47.425677378
21
89.0962650348
0
LINE
5
218
100
AcDbEntity
8
Hull layout
6
ByLayer
62
256
370
-1
100
AcDbLine
10
47.425677378
20
89.0962650348
11
47.5569083578
21
89.099616144
0
LINE
5
219
100
AcDbEntity
8
Hull layout
6
ByLayer
62
256
370
-1
100
AcDbLine
10
47.5569083578
20
89.099616144
11
47.7581546869
21
89.1046076363
0
LINE
5
21A
100
AcDbEntity
8
Hull layout
6
ByLayer
62
256
370
-1
100
AcDbLine
10
47.7581546869
20
89.1046076363
11
47.8959862553
21
89.1080059851
0
LINE
5
21B
100
AcDbEntity
8
Hull layout
6
ByLayer
62
256
370
-1
100
AcDbLine
10
47.8959862553
20
89.1080059851
11
47.9663023944
21
89.109743967
0
LINE
5
21C
100
AcDbEntity
8
Hull layout
6
ByLayer
62
256
370
-1
100
AcDbLine
10
47.9663023944
20
89.109743967
11
48.1099337774
21
89.1130959533
0
LINE
5
21D
100
AcDbEntity
8
Hull layout
6
ByLayer
62
256
370
-1
100
AcDbLine
10
48.1099337774
20
89.1130959533
11
48.2582658096
21
89.1165103669
0
LINE
5
21E
100
AcDbEntity
8
Hull layout
6
ByLayer
62
256
370
-1
100
AcDbLine
10
48.2582658096
20
89.1165103669
11
48.3951952612
21
89.1196475111
0
LINE
5
21F
100
AcDbEntity
8
Hull layout
6
ByLayer
62
256
370
-1
100
AcDbLine
10
48.3951952612
20
89.1196475111
11
48.5659295226
21
89.1232512654
0
LINE
5
220
100
AcDbEntity
8
Hull layout
6
ByLayer
62
256
370
-1
100
AcDbLine
10
48.5659295226
20
89.1232512654
11
48.7219605094
21
89.126504132
0
LINE
5
221
100
AcDbEntity
8
Hull layout
6
ByLayer
62
256
370
-1
100
AcDbLine
10
48.7219605094
20
89.126504132
11
48.8772883212
21
89.1293626069
0
LINE
5
222
100
AcDbEntity
8
Hull layout
6
ByLayer
62
256
370
-1
100
AcDbLine
10
48.8772883212
20
89.1293626069
11
49.0304138053
21
89.1319386772
0
LINE
5
223
100
AcDbEntity
8
Hull layout
6
ByLayer
62
256
370
-1
100
AcDbLine
10
49.0304138053
20
89.1319386772
11
49.1795362197
21
89.1341467343
0
LINE
5
224
100
AcDbEntity
8
Hull layout
6
ByLayer
62
256
370
-1
100
AcDbLine
10
49.1795362197
20
89.1341467343
11
49.3230548163
21
89.1358995711
0
LINE
5
225
100
AcDbEntity
8
Hull layout
6
ByLayer
62
256
370
-1
100
AcDbLine
10
49.3230548163
20
89.1358995711
11
49.4594688436
21
89.1371091811
0
LINE
5
226
100
AcDbEntity
8
Hull layout
6
ByLayer
62
256
370
-1
100
AcDbLine
10
49.4594688436
20
89.1371091811
11
49.6504811265
21
89.1378823448
0
LINE
5
227
100
AcDbEntity
8
Hull layout
6
ByLayer
62
256
370
-1
100
AcDbLine
10
49.6504811265
20
89.1378823448
11
49.7109831904
21
89.1378987207
0
LINE
5
228
100
AcDbEntity
8
Hull layout
6
ByLayer
62
256
370
-1
100
AcDbLine
10
49.7109831904
20
89.1378987207
11
49.827885051
21
89.1376642555
0
LINE
5
229
100
AcDbEntity
8
Hull layout
6
ByLayer
62
256
370
-1
100
AcDbLine
10
49.827885051
20
89.1376642555
11
49.884684835
21
89.137410217
0
LINE
5
22A
100
AcDbEntity
8
Hull layout
6
ByLayer
62
256
370
-1
100
AcDbLine
10
49.884684835
20
89.137410217
11
49.8848407865
21
89.144409194
0
LINE
5
22B
100
AcDbEntity
8
Hull layout
6
ByLayer
62
256
370
-1
100
AcDbLine
10
49.8848407865
20
89.144409194
11
49.7702820174
21
89.1500251016
0
LINE
5
22C
100
AcDbEntity
8
Hull layout
6
ByLayer
62
256
370
-1
100
AcDbLine
10
49.7702820174
20
89.1500251016
11
49.589058952
21
89.1603740429
0
LINE
5
22D
100
AcDbEntity
8
Hull layout
6
ByLayer
62
256
370
-1
100
AcDbLine
10
49.589058952
20
89.1603740429
11
49.3932571363
21
89.1734396066
0
LINE
5
22E
100
AcDbEntity
8
Hull layout
6
ByLayer
62
256
370
-1
100
AcDbLine
10
49.3932571363
20
89.1734396066
11
49.2534335476
21
89.1835576129
0
LINE
5
22F
100
AcDbEntity
8
Hull layout
6
ByLayer
62
256
370
-1
100
AcDbLine
10
49.2534335476
20
89.1835576129
11
49.181075029
21
89.1890361875
0
LINE
5
230
100
AcDbEntity
8
Hull layout
6
ByLayer
62
256
370
-1
100
AcDbLine
10
49.181075029
20
89.1890361875
11
49.0570477381
21
89.1986279089
0
LINE
5
231
100
AcDbEntity
8
Hull layout
6
ByLayer
62
256
370
-1
100
AcDbLine
10
49.0570477381
20
89.1986279089
11
49.0323629156
21
89.2006252914
0
LINE
5
232
100
AcDbEntity
8
Hull layout
6
ByLayer
62
256
370
-1
100
AcDbLine
10
49.0323629156
20
89.2006252914
11
48.9564093081
21
89.2067326234
0
LINE
5
233
100
AcDbEntity
8
Hull layout
6
ByLayer
62
256
370
-1
100
AcDbLine
10
48.9564093081
20
89.2067326234
11
48.879758121
21
89.2131455413
0
LINE
5
234
100
AcDbEntity
8
Hull layout
6
ByLayer
62
256
370
-1
100
AcDbLine
10
48.879758121
20
89.2131455413
11
48.8025077524
21
89.2196632521
0
LINE
5
235
100
AcDbEntity
8
Hull layout
6
ByLayer
62
256
370
-1
100
AcDbLine
10
48.8025077524
20
89.2196632521
11
48.7249589921
21
89.2263833546
0
LINE
5
236
100
AcDbEntity
8
Hull layout
6
ByLayer
62
256
370
-1
100
AcDbLine
10
48.7249589921
20
89.2263833546
11
48.5695646785
21
89.2402259449
0
LINE
5
237
100
AcDbEntity
8
Hull layout
6
ByLayer
62
256
370
-1
100
AcDbLine
10
48.5695646785
20
89.2402259449
11
48.492019915
21
89.2474460314
0
LINE
5
238
100
AcDbEntity
8
Hull layout
6
ByLayer
62
256
370
-1
100
AcDbLine
10
48.492019915
20
89.2474460314
11
48.3994864015
21
89.2561744899
0
LINE
5
239
100
AcDbEntity
8
Hull layout
6
ByLayer
62
256
370
-1
100
AcDbLine
10
48.3994864015
20
89.2561744899
11
48.2631894997
21
89.2695758995
0
LINE
5
23A
100
AcDbEntity
8
Hull layout
6
ByLayer
62
256
370
-1
100
AcDbLine
10
48.2631894997
20
89.2695758995
11
48.1156053285
21
89.2846560988
0
LINE
5
23B
100
AcDbEntity
8
Hull layout
6
ByLayer
62
256
370
-1
100
AcDbLine
10
48.1156053285
20
89.2846560988
11
47.9727226059
21
89.2998987221
0
LINE
5
23C
100
AcDbEntity
8
Hull layout
6
ByLayer
62
256
370
-1
100
AcDbLine
10
47.9727226059
20
89.2998987221
11
47.9027815963
21
89.3075580418
0
LINE
5
23D
100
AcDbEntity
8
Hull layout
6
ByLayer
62
256
370
-1
100
AcDbLine
10
47.9027815963
20
89.3075580418
11
47.6984583919
21
89.3304920367
0
LINE
5
23E
100
AcDbEntity
8
Hull layout
6
ByLayer
62
256
370
-1
100
AcDbLine
10
47.6984583919
20
89.3304920367
11
47.5657761427
21
89.3457531229
0
LINE
5
23F
100
AcDbEntity
8
Hull layout
6
ByLayer
62
256
370
-1
100
AcDbLine
10
47.5657761427
20
89.3457531229
11
47.3707510424
21
89.3684127844
0
LINE
5
240
100
AcDbEntity
8
Hull layout
6
ByLayer
62
256
370
-1
100
AcDbLine
10
47.3707510424
20
89.3684127844
11
47.3064090545
21
89.3759273437
0
LINE
5
241
100
AcDbEntity
8
Hull layout
6
ByLayer
62
256
370
-1
100
AcDbLine
10
47.3064090545
20
89.3759273437
11
47.1144806578
21
89.3981622381
0
LINE
5
242
100
AcDbEntity
8
Hull layout
6
ByLayer
62
256
370
-1
100
AcDbLine
10
47.1144806578
20
89.3981622381
11
47.230378342
21
89.5600409791
0
LINE
5
243
100
AcDbEntity
8
Hull layout
6
ByLayer
62
256
370
-1
100
AcDbLine
10
47.230378342
20
89.5600409791
11
47.268911173
21
89.6140346911
0
LINE
5
244
100
AcDbEntity
8
Hull layout
6
ByLayer
62
256
370
-1
100
AcDbLine
10
47.268911173
20
89.6140346911
11
47.4655081671
21
89.6003627517
0
LINE
5
245
100
AcDbEntity
8
Hull layout
6
ByLayer
62
256
370
-1
100
AcDbLine
10
47.4655081671
20
89.6003627517
11
47.5975559855
21
89.593306999
0
LINE
5
246
100
AcDbEntity
8
Hull layout
6
ByLayer
62
256
370
-1
100
AcDbLine
10
47.5975559855
20
89.593306999
11
47.7983008098
21
89.5856020945
0
LINE
5
247
100
AcDbEntity
8
Hull layout
6
ByLayer
62
256
370
-1
100
AcDbLine
10
47.7983008098
20
89.5856020945
11
47.9346764681
21
89.5820118579
0
LINE
5
248
100
AcDbEntity
8
Hull layout
6
ByLayer
62
256
370
-1
100
AcDbLine
10
47.9346764681
20
89.5820118579
11
48.1440561891
21
89.5786380685
0
LINE
5
249
100
AcDbEntity
8
Hull layout
6
ByLayer
62
256
370
-1
100
AcDbLine
10
48.1440561891
20
89.5786380685
11
48.2877523974
21
89.5775893961
0
LINE
5
24A
100
AcDbEntity
8
Hull layout
6
ByLayer
62
256
370
-1
100
AcDbLine
10
48.2877523974
20
89.5775893961
11
48.4352556785
21
89.5774103195
0
LINE
5
24B
100
AcDbEntity
8
Hull layout
6
ByLayer
62
256
370
-1
100
AcDbLine
10
48.4352556785
20
89.5774103195
11
48.6619692189
21
89.5781981048
0
LINE
5
24C
100
AcDbEntity
8
Hull layout
6
ByLayer
62
256
370
-1
100
AcDbLine
10
48.6619692189
20
89.5781981048
11
48.8142827382
21
89.5792806178
0
LINE
5
24D
100
AcDbEntity
8
Hull layout
6
ByLayer
62
256
370
-1
100
AcDbLine
10
48.8142827382
20
89.5792806178
11
48.9654986908
21
89.5806719141
0
LINE
5
24E
100
AcDbEntity
8
Hull layout
6
ByLayer
62
256
370
-1
100
AcDbLine
10
48.9654986908
20
89.5806719141
11
49.1140147295
21
89.5820847929
0
LINE
5
24F
100
AcDbEntity
8
Hull layout
6
ByLayer
62
256
370
-1
100
AcDbLine
10
49.1140147295
20
89.5820847929
11
49.2580309121
21
89.5835336425
0
LINE
5
250
100
AcDbEntity
8
Hull layout
6
ByLayer
62
256
370
-1
100
AcDbLine
10
49.2580309121
20
89.5835336425
11
49.4620523718
21
89.5854028521
0
LINE
5
251
100
AcDbEntity
8
Hull layout
6
ByLayer
62
256
370
-1
100
AcDbLine
10
49.4620523718
20
89.5854028521
11
49.6467672541
21
89.5865263653
0
LINE
5
252
100
AcDbEntity
8
Hull layout
6
ByLayer
62
256
370
-1
100
AcDbLine
10
49.6467672541
20
89.5865263653
11
49.7592732521
21
89.5868270557
0
LINE
5
253
100
AcDbEntity
8
Hull layout
6
ByLayer
62
256
370
-1
100
AcDbLine
10
49.7592732521
20
89.5868270557
11
49.8127755396
21
89.5868993862
0
LINE
5
254
100
AcDbEntity
8
Hull layout
6
ByLayer
62
256
370
-1
100
AcDbLine
10
49.8127755396
20
89.5868993862
11
49.8127940393
21
89.5909537752
0
LINE
5
255
100
AcDbEntity
8
Hull layout
6
ByLayer
62
256
370
-1
100
AcDbLine
10
49.8127940393
20
89.5909537752
11
49.7041001294
21
89.5937058551
0
LINE
5
256
100
AcDbEntity
8
Hull layout
6
ByLayer
62
256
370
-1
100
AcDbLine
10
49.7041001294
20
89.5937058551
11
49.5261128993
21
89.5994186414
0
LINE
5
257
100
AcDbEntity
8
Hull layout
6
ByLayer
62
256
370
-1
100
AcDbLine
10
49.5261128993
20
89.5994186414
11
49.462218405
21
89.601866826
0
LINE
5
258
100
AcDbEntity
8
Hull layout
6
ByLayer
62
256
370
-1
100
AcDbLine
10
49.462218405
20
89.601866826
11
49.2584377378
21
89.6104394376
0
LINE
5
259
100
AcDbEntity
8
Hull layout
6
ByLayer
62
256
370
-1
100
AcDbLine
10
49.2584377378
20
89.6104394376
11
49.1871451188
21
89.6137047814
0
LINE
5
25A
100
AcDbEntity
8
Hull layout
6
ByLayer
62
256
370
-1
100
AcDbLine
10
49.1871451188
20
89.6137047814
11
49.0408605864
21
89.6205440489
0
LINE
5
25B
100
AcDbEntity
8
Hull layout
6
ByLayer
62
256
370
-1
100
AcDbLine
10
49.0408605864
20
89.6205440489
11
48.8908769916
21
89.627791896
0
LINE
5
25C
100
AcDbEntity
8
Hull layout
6
ByLayer
62
256
370
-1
100
AcDbLine
10
48.8908769916
20
89.627791896
11
48.7390940973
21
89.6353439166
0
LINE
5
25D
100
AcDbEntity
8
Hull layout
6
ByLayer
62
256
370
-1
100
AcDbLine
10
48.7390940973
20
89.6353439166
11
48.6630026506
21
89.6391203908
0
LINE
5
25E
100
AcDbEntity
8
Hull layout
6
ByLayer
62
256
370
-1
100
AcDbLine
10
48.6630026506
20
89.6391203908
11
48.4365283062
21
89.6504456388
0
LINE
5
25F
100
AcDbEntity
8
Hull layout
6
ByLayer
62
256
370
-1
100
AcDbLine
10
48.4365283062
20
89.6504456388
11
48.217053247
21
89.6614546539
0
LINE
5
260
100
AcDbEntity
8
Hull layout
6
ByLayer
62
256
370
-1
100
AcDbLine
10
48.217053247
20
89.6614546539
11
48.005576543
21
89.6717451181
0
LINE
5
261
100
AcDbEntity
8
Hull layout
6
ByLayer
62
256
370
-1
100
AcDbLine
10
48.005576543
20
89.6717451181
11
47.8681908271
21
89.6780637469
0
LINE
5
262
100
AcDbEntity
8
Hull layout
6
ByLayer
62
256
370
-1
100
AcDbLine
10
47.8681908271
20
89.6780637469
11
47.5995131173
21
89.6879868652
0
LINE
5
263
100
AcDbEntity
8
Hull layout
6
ByLayer
62
256
370
-1
100
AcDbLine
10
47.5995131173
20
89.6879868652
11
47.4015203752
21
89.69134604
0
LINE
5
264
100
AcDbEntity
8
Hull layout
6
ByLayer
62
256
370
-1
100
AcDbLine
10
47.4015203752
20
89.69134604
11
47.2702184092
21
89.6906505411
0
LINE
5
265
100
AcDbEntity
8
Hull layout
6
ByLayer
62
256
370
-1
100
AcDbLine
10
47.2702184092
20
89.6906505411
11
47.3030273191
21
89.73757458
0
LINE
5
266
100
AcDbEntity
8
Hull layout
6
ByLayer
62
256
370
-1
100
AcDbLine
10
47.3030273191
20
89.73757458
11
47.4482327264
21
89.7397378393
0
LINE
5
267
100
AcDbEntity
8
Hull layout
6
ByLayer
62
256
370
-1
100
AcDbLine
10
47.4482327264
20
89.7397378393
11
47.6663407206
21
89.7429320328
0
LINE
5
268
100
AcDbEntity
8
Hull layout
6
ByLayer
62
256
370
-1
100
AcDbLine
10
47.6663407206
20
89.7429320328
11
47.8123458939
21
89.7449934371
0
LINE
5
269
100
AcDbEntity
8
Hull layout
6
ByLayer
62
256
370
-1
100
AcDbLine
10
47.8123458939
20
89.7449934371
11
48.0325524909
21
89.747582762
0
LINE
5
26A
100
AcDbEntity
8
Hull layout
6
ByLayer
62
256
370
-1
100
AcDbLine
10
48.0325524909
20
89.747582762
11
48.1805562673
21
89.7490395298
0
LINE
5
26B
100
AcDbEntity
8
Hull layout
6
ByLayer
62
256
370
-1
100
AcDbLine
10
48.1805562673
20
89.7490395298
11
48.480261723
21
89.751044487
0
LINE
5
26C
100
AcDbEntity
8
Hull layout
6
ByLayer
62
256
370
-1
100
AcDbLine
10
48.480261723
20
89.751044487
11
48.7082641246
21
89.7518157277
0
LINE
5
26D
100
AcDbEntity
8
Hull layout
6
ByLayer
62
256
370
-1
100
AcDbLine
10
48.7082641246
20
89.7518157277
11
48.8596653409
21
89.7521646135
0
LINE
5
26E
100
AcDbEntity
8
Hull layout
6
ByLayer
62
256
370
-1
100
AcDbLine
10
48.8596653409
20
89.7521646135
11
48.8569627088
21
89.7589760997
0
LINE
5
26F
100
AcDbEntity
8
Hull layout
6
ByLayer
62
256
370
-1
100
AcDbLine
10
48.8569627088
20
89.7589760997
11
48.7813656278
21
89.7597050849
0
LINE
5
270
100
AcDbEntity
8
Hull layout
6
ByLayer
62
256
370
-1
100
AcDbLine
10
48.7813656278
20
89.7597050849
11
48.5534761064
21
89.7621982776
0
LINE
5
271
100
AcDbEntity
8
Hull layout
6
ByLayer
62
256
370
-1
100
AcDbLine
10
48.5534761064
20
89.7621982776
11
48.4021847842
21
89.7641568074
0
LINE
5
272
100
AcDbEntity
8
Hull layout
6
ByLayer
62
256
370
-1
100
AcDbLine
10
48.4021847842
20
89.7641568074
11
48.1779003118
21
89.7675295575
0
LINE
5
273
100
AcDbEntity
8
Hull layout
6
ByLayer
62
256
370
-1
100
AcDbLine
10
48.1779003118
20
89.7675295575
11
48.0299129087
21
89.7701693502
0
LINE
5
274
100
AcDbEntity
8
Hull layout
6
ByLayer
62
256
370
-1
100
AcDbLine
10
48.0299129087
20
89.7701693502
11
47.8829266243
21
89.7730034653
0
LINE
5
275
100
AcDbEntity
8
Hull layout
6
ByLayer
62
256
370
-1
100
AcDbLine
10
47.8829266243
20
89.7730034653
11
47.7366420313
21
89.7761336034
0
LINE
5
276
100
AcDbEntity
8
Hull layout
6
ByLayer
62
256
370
-1
100
AcDbLine
10
47.7366420313
20
89.7761336034
11
47.5182659753
21
89.78097285
0
LINE
5
277
100
AcDbEntity
8
Hull layout
6
ByLayer
62
256
370
-1
100
AcDbLine
10
47.5182659753
20
89.78097285
11
47.3730824992
21
89.784296743
0
LINE
5
278
100
AcDbEntity
8
Hull layout
6
ByLayer
62
256
370
-1
100
AcDbLine
10
47.3730824992
20
89.784296743
11
47.3004910449
21
89.7860086887
0
LINE
5
279
100
AcDbEntity
8
Hull layout
6
ByLayer
62
256
370
-1
100
AcDbLine
10
47.3004910449
20
89.7860086887
11
47.2863081692
21
89.8066895019
0
LINE
5
27A
100
AcDbEntity
8
Hull layout
6
ByLayer
62
256
370
-1
100
AcDbLine
10
47.2863081692
20
89.8066895019
11
47.2680582715
21
89.8331934872
0
LINE
5
27B
100
AcDbEntity
8
Hull layout
6
ByLayer
62
256
370
-1
100
AcDbLine
10
47.2680582715
20
89.8331934872
11
47.3993504831
21
89.8314484452
0
LINE
5
27C
100
AcDbEntity
8
Hull layout
6
ByLayer
62
256
370
-1
100
AcDbLine
10
47.3993504831
20
89.8314484452
11
47.5460583353
21
89.8324159713
0
LINE
5
27D
100
AcDbEntity
8
Hull layout
6
ByLayer
62
256
370
-1
100
AcDbLine
10
47.5460583353
20
89.8324159713
11
47.6639734605
21
89.8347469028
0
LINE
5
27E
100
AcDbEntity
8
Hull layout
6
ByLayer
62
256
370
-1
100
AcDbLine
10
47.6639734605
20
89.8347469028
11
47.7981979699
21
89.8386853131
0
LINE
5
27F
100
AcDbEntity
8
Hull layout
6
ByLayer
62
256
370
-1
100
AcDbLine
10
47.7981979699
20
89.8386853131
11
47.9345275526
21
89.8435117925
0
LINE
5
280
100
AcDbEntity
8
Hull layout
6
ByLayer
62
256
370
-1
100
AcDbLine
10
47.9345275526
20
89.8435117925
11
48.0732610687
21
89.8490246419
0
LINE
5
281
100
AcDbEntity
8
Hull layout
6
ByLayer
62
256
370
-1
100
AcDbLine
10
48.0732610687
20
89.8490246419
11
48.2150962372
21
89.8548198956
0
LINE
5
282
100
AcDbEntity
8
Hull layout
6
ByLayer
62
256
370
-1
100
AcDbLine
10
48.2150962372
20
89.8548198956
11
48.3605336176
21
89.8609947148
0
LINE
5
283
100
AcDbEntity
8
Hull layout
6
ByLayer
62
256
370
-1
100
AcDbLine
10
48.3605336176
20
89.8609947148
11
48.5852907168
21
89.8704194888
0
LINE
5
284
100
AcDbEntity
8
Hull layout
6
ByLayer
62
256
370
-1
100
AcDbLine
10
48.5852907168
20
89.8704194888
11
48.7373291258
21
89.8767568533
0
LINE
5
285
100
AcDbEntity
8
Hull layout
6
ByLayer
62
256
370
-1
100
AcDbLine
10
48.8134483286
20
89.8799249681
11
48.9644861863
21
89.8861680086
0
LINE
5
286
100
AcDbEntity
8
Hull layout
6
ByLayer
62
256
370
-1
100
AcDbLine
10
48.9644861863
20
89.8861680086
11
49.112921816
21
89.8920258092
0
LINE
5
287
100
AcDbEntity
8
Hull layout
6
ByLayer
62
256
370
-1
100
AcDbLine
10
49.112921816
20
89.8920258092
11
49.2568552484
21
89.8975091513
0
LINE
5
288
100
AcDbEntity
8
Hull layout
6
ByLayer
62
256
370
-1
100
AcDbLine
10
49.2568552484
20
89.8975091513
11
49.3946848069
21
89.902327119
0
LINE
5
289
100
AcDbEntity
8
Hull layout
6
ByLayer
62
256
370
-1
100
AcDbLine
10
49.3946848069
20
89.902327119
11
49.6454295711
21
89.9095043906
0
LINE
5
28A
100
AcDbEntity
8
Hull layout
6
ByLayer
62
256
370
-1
100
AcDbLine
10
49.6454295711
20
89.9095043906
11
49.7026371619
21
89.9106797867
0
LINE
5
28B
100
AcDbEntity
8
Hull layout
6
ByLayer
62
256
370
-1
100
AcDbLine
10
49.7026371619
20
89.9106797867
11
49.7025635078
21
89.9177173388
0
LINE
5
28C
100
AcDbEntity
8
Hull layout
6
ByLayer
62
256
370
-1
100
AcDbLine
10
49.7025635078
20
89.9177173388
11
49.5245635077
21
89.9200173388
0
LINE
5
28D
100
AcDbEntity
8
Hull layout
6
ByLayer
62
256
370
-1
100
AcDbLine
10
49.5245635077
20
89.9200173388
11
49.3945635077
21
89.9220173388
0
LINE
5
28E
100
AcDbEntity
8
Hull layout
6
ByLayer
62
256
370
-1
100
AcDbLine
10
49.3945635077
20
89.9220173388
11
49.2566635077
21
89.9244173388
0
LINE
5
28F
100
AcDbEntity
8
Hull layout
6
ByLayer
62
256
370
-1
100
AcDbLine
10
49.2566635077
20
89.9244173388
11
49.1126635077
21
89.9270173388
0
LINE
5
290
100
AcDbEntity
8
Hull layout
6
ByLayer
62
256
370
-1
100
AcDbLine
10
49.1126635077
20
89.9270173388
11
48.9641635078
21
89.9296173388
0
LINE
5
291
100
AcDbEntity
8
Hull layout
6
ByLayer
62
256
370
-1
100
AcDbLine
10
48.9641635078
20
89.9296173388
11
48.7368635077
21
89.9334173388
0
LINE
5
292
100
AcDbEntity
8
Hull layout
6
ByLayer
62
256
370
-1
100
AcDbLine
10
48.7368635077
20
89.9334173388
11
48.5089635077
21
89.9364173388
0
LINE
5
293
100
AcDbEntity
8
Hull layout
6
ByLayer
62
256
370
-1
100
AcDbLine
10
48.5089635077
20
89.9364173388
11
48.3596635077
21
89.9377173388
0
LINE
5
294
100
AcDbEntity
8
Hull layout
6
ByLayer
62
256
370
-1
100
AcDbLine
10
48.3596635077
20
89.9377173388
11
48.2141635077
21
89.9382173388
0
LINE
5
295
100
AcDbEntity
8
Hull layout
6
ByLayer
62
256
370
-1
100
AcDbLine
10
48.2141635077
20
89.9382173388
11
48.0722635077
21
89.9379173388
0
LINE
5
296
100
AcDbEntity
8
Hull layout
6
ByLayer
62
256
370
-1
100
AcDbLine
10
48.0722635077
20
89.9379173388
11
47.8648635077
21
89.9354173388
0
LINE
5
297
100
AcDbEntity
8
Hull layout
6
ByLayer
62
256
370
-1
100
AcDbLine
10
47.8648635077
20
89.9354173388
11
47.6626635077
21
89.9303173388
0
LINE
5
298
100
AcDbEntity
8
Hull layout
6
ByLayer
62
256
370
-1
100
AcDbLine
10
47.6626635077
20
89.9303173388
11
47.4640635077
21
89.9219173388
0
LINE
5
299
100
AcDbEntity
8
Hull layout
6
ByLayer
62
256
370
-1
100
AcDbLine
10
47.4640635077
20
89.9219173388
11
47.2673635077
21
89.9098173388
0
LINE
5
29A
100
AcDbEntity
8
Hull layout
6
ByLayer
62
256
370
-1
100
AcDbLine
10
47.2673635077
20
89.9098173388
11
47.1146635077
21
90.1269173388
0
LINE
5
29B
100
AcDbEntity
8
Hull layout
6
ByLayer
62
256
370
-1
100
AcDbLine
10
47.1146635077
20
90.1269173388
11
47.2425635077
21
90.1407173388
0
LINE
5
29C
100
AcDbEntity
8
Hull layout
6
ByLayer
62
256
370
-1
100
AcDbLine
10
47.2425635077
20
90.1407173388
11
47.4358635077
21
90.1616173388
0
LINE
5
29D
100
AcDbEntity
8
Hull layout
6
ByLayer
62
256
370
-1
100
AcDbLine
10
47.4358635077
20
90.1616173388
11
47.6324635077
21
90.1828173388
0
LINE
5
29E
100
AcDbEntity
8
Hull layout
6
ByLayer
62
256
370
-1
100
AcDbLine
10
47.6324635077
20
90.1828173388
11
47.8346635077
21
90.2041173388
0
LINE
5
29F
100
AcDbEntity
8
Hull layout
6
ByLayer
62
256
370
-1
100
AcDbLine
10
47.8346635077
20
90.2041173388
11
47.9736635077
21
90.2183173388
0
LINE
5
2A0
100
AcDbEntity
8
Hull layout
6
ByLayer
62
256
370
-1
100
AcDbLine
10
47.9736635077
20
90.2183173388
11
48.1898635077
21
90.2394173388
0
LINE
5
2A1
100
AcDbEntity
8
Hull layout
6
ByLayer
62
256
370
-1
100
AcDbLine
10
48.1898635077
20
90.2394173388
11
48.3399635077
21
90.2532173388
0
LINE
5
2A2
100
AcDbEntity
8
Hull layout
6
ByLayer
62
256
370
-1
100
AcDbLine
10
48.3399635077
20
90.2532173388
11
48.5709635077
21
90.2732173388
0
LINE
5
2A3
100
AcDbEntity
8
Hull layout
6
ByLayer
62
256
370
-1
100
AcDbLine
10
48.5709635077
20
90.2732173388
11
48.8040635077
21
90.2919173388
0
LINE
5
2A4
100
AcDbEntity
8
Hull layout
6
ByLayer
62
256
370
-1
100
AcDbLine
10
48.8040635077
20
90.2919173388
11
49.0340635077
21
90.3091173388
0
LINE
5
2A5
100
AcDbEntity
8
Hull layout
6
ByLayer
62
256
370
-1
100
AcDbLine
10
49.0340635077
20
90.3091173388
11
49.1828635077
21
90.3195173388
0
LINE
5
2A6
100
AcDbEntity
8
Hull layout
6
ByLayer
62
256
370
-1
100
AcDbLine
10
49.1828635077
20
90.3195173388
11
49.3951635077
21
90.3334173388
0
LINE
5
2A7
100
AcDbEntity
8
Hull layout
6
ByLayer
62
256
370
-1
100
AcDbLine
10
49.3951635077
20
90.3334173388
11
49.5910635077
21
90.3449173388
0
LINE
5
2A8
100
AcDbEntity
8
Hull layout
6
ByLayer
62
256
370
-1
100
AcDbLine
10
49.5910635077
20
90.3449173388
11
49.7723635077
21
90.3538173388
0
LINE
5
2A9
100
AcDbEntity
8
Hull layout
6
ByLayer
62
256
370
-1
100
AcDbLine
10
49.7723635077
20
90.3538173388
11
49.8869635077
21
90.3585173388
0
LINE
5
2AA
100
AcDbEntity
8
Hull layout
6
ByLayer
62
256
370
-1
100
AcDbLine
10
49.8869635077
20
90.3585173388
11
49.9426635077
21
90.3604173388
0
LINE
5
2AB
100
AcDbEntity
8
Hull layout
6
ByLayer
62
256
370
-1
100
AcDbLine
10
49.9426635077
20
90.3604173388
11
49.9426635077
21
90.3654173388
0
LINE
5
2AC
100
AcDbEntity
8
Hull layout
6
ByLayer
62
256
370
-1
100
AcDbLine
10
49.9426635077
20
90.3654173388
11
49.8300635077
21
90.3657173388
0
LINE
5
2AD
100
AcDbEntity
8
Hull layout
6
ByLayer
62
256
370
-1
100
AcDbLine
10
49.8300635077
20
90.3657173388
11
49.5906635077
21
90.3675173388
0
LINE
5
2AE
100
AcDbEntity
8
Hull layout
6
ByLayer
62
256
370
-1
100
AcDbLine
10
49.5906635077
20
90.3675173388
11
49.3944635077
21
90.3703173388
0
LINE
5
2AF
100
AcDbEntity
8
Hull layout
6
ByLayer
62
256
370
-1
100
AcDbLine
10
49.3944635077
20
90.3703173388
11
49.3252635077
21
90.3715173388
0
LINE
5
2B0
100
AcDbEntity
8
Hull layout
6
ByLayer
62
256
370
-1
100
AcDbLine
10
49.3252635077
20
90.3715173388
11
49.1077635077
21
90.3760173388
0
LINE
5
2B1
100
AcDbEntity
8
Hull layout
6
ByLayer
62
256
370
-1
100
AcDbLine
10
49.1077635077
20
90.3760173388
11
48.9055635077
21
90.3809173388
0
LINE
5
2B2
100
AcDbEntity
8
Hull layout
6
ByLayer
62
256
370
-1
100
AcDbLine
10
48.9055635077
20
90.3809173388
11
48.7242635077
21
90.3857173388
0
LINE
5
2B3
100
AcDbEntity
8
Hull layout
6
ByLayer
62
256
370
-1
100
AcDbLine
10
48.7242635077
20
90.3857173388
11
48.4904635077
21
90.3924173388
0
LINE
5
2B4
100
AcDbEntity
8
Hull layout
6
ByLayer
62
256
370
-1
100
AcDbLine
10
48.4904635077
20
90.3924173388
11
48.3365635077
21
90.3970173388
0
LINE
5
2B5
100
AcDbEntity
8
Hull layout
6
ByLayer
62
256
370
-1
100
AcDbLine
10
48.3365635077
20
90.3970173388
11
48.1123635077
21
90.4040173388
0
LINE
5
2B6
100
AcDbEntity
8
Hull layout
6
ByLayer
62
256
370
-1
100
AcDbLine
10
48.1123635077
20
90.4040173388
11
47.8984635077
21
90.4108173388
0
LINE
5
2B7
100
AcDbEntity
8
Hull layout
6
ByLayer
62
256
370
-1
100
AcDbLine
10
47.8984635077
20
90.4108173388
11
47.7606635077
21
90.4153173388
0
LINE
5
2B8
100
AcDbEntity
8
Hull layout
6
ByLayer
62
256
370
-1
100
AcDbLine
10
47.7606635077
20
90.4153173388
11
47.5594635077
21
90.4219173388
0
LINE
5
2B9
100
AcDbEntity
8
Hull layout
6
ByLayer
62
256
370
-1
100
AcDbLine
10
47.5594635077
20
90.4219173388
11
47.4282635077
21
90.4263173388
0
LINE
5
2BA
100
AcDbEntity
8
Hull layout
6
ByLayer
62
256
370
-1
100
AcDbLine
10
47.4282635077
20
90.4263173388
11
47.1696635077
21
90.4351173388
0
LINE
5
2BB
100
AcDbEntity
8
Hull layout
6
ByLayer
62
256
370
-1
100
AcDbLine
10
47.1696635077
20
90.4351173388
11
47.1053635077
21
90.4373173388
0
LINE
5
2BC
100
AcDbEntity
8
Hull layout
6
ByLayer
62
256
370
-1
100
AcDbLine
10
46.9612820122
20
90.8785979035
11
46.8842759159
21
90.8752005757
0
LINE
5
2BD
100
AcDbEntity
8
Hull layout
6
ByLayer
62
256
370
-1
100
AcDbLine
10
47.1053635077
20
90.4373173388
11
46.8842759159
21
90.8752005757
0
LINE
5
2BE
100
AcDbEntity
8
helper
6
ByLayer
62
256
370
-1
100
AcDbLine
10
58.9949755643
20
91.7198805746
11
62.4343132908
21
89.7232669
0
LINE
5
2BF
100
AcDbEntity
8
helper
6
ByLayer
62
256
370
-1
100
AcDbLine
10
62.4262549638
20
91.7336912866
11
59.0030339731
21
89.7095737357
0
LINE
5
2C0
100
AcDbEntity
8
Ama layout
6
ByLayer
62
256
370
-1
100
AcDbLine
10
47.5250969545
20
88.2543967999
11
47.6666816207
21
88.2578074203
0
LINE
5
2C1
100
AcDbEntity
8
Ama layout
6
ByLayer
62
256
370
-1
100
AcDbLine
10
47.560011705
20
88.2552723871
11
47.8522814245
21
88.2620392998
0
LINE
5
2C2
100
AcDbEntity
8
Ama layout
6
ByLayer
62
256
370
-1
100
AcDbLine
10
47.666712776
20
88.2578081465
11
47.9693823645
21
88.2646272541
0
LINE
5
2C3
100
AcDbEntity
8
Ama layout
6
ByLayer
62
256
370
-1
100
AcDbLine
10
47.9694408514
20
88.2646284862
11
48.2094202632
21
88.2693329412
0
LINE
5
2C4
100
AcDbEntity
8
Ama layout
6
ByLayer
62
256
370
-1
100
AcDbLine
10
48.2094773064
20
88.2693339781
11
48.5504529369
21
88.27504532
0
LINE
5
2C5
100
AcDbEntity
8
Ama layout
6
ByLayer
62
256
370
-1
100
AcDbLine
10
48.5505578495
20
88.275046802
11
48.8127460155
21
88.2780626958
0
LINE
5
2C6
100
AcDbEntity
8
Ama layout
6
ByLayer
62
256
370
-1
100
AcDbLine
10
48.8128267025
20
88.2780634612
11
48.9353236541
21
88.2789782538
0
LINE
5
2C7
100
AcDbEntity
8
Ama layout
6
ByLayer
62
256
370
-1
100
AcDbLine
10
48.9354056356
20
88.2789786979
11
49.1172048516
21
88.2795911097
0
LINE
5
2C8
100
AcDbEntity
8
Ama layout
6
ByLayer
62
256
370
-1
100
AcDbLine
10
49.1173161198
20
88.279591175
11
49.3391213566
21
88.279104353
0
LINE
5
2C9
100
AcDbEntity
8
Ama layout
6
ByLayer
62
256
370
-1
100
AcDbLine
10
49.3392344056
20
88.2791037854
11
49.7822574332
21
88.2756271616
0
LINE
5
2CA
100
AcDbEntity
8
Ama layout
6
ByLayer
62
256
370
-1
100
AcDbLine
10
49.7823363904
20
88.2756263861
11
50.0618564584
21
88.2723291847
0
LINE
5
2CB
100
AcDbEntity
8
Ama layout
6
ByLayer
62
256
370
-1
100
AcDbLine
10
49.8624610266
20
88.2747281693
11
50.1775851632
21
88.2707096466
0
LINE
5
2CC
100
AcDbEntity
8
Ama layout
6
ByLayer
62
256
370
-1
100
AcDbLine
10
50.0619087773
20
88.2723284991
11
50.2523249487
21
88.2695841149
0
LINE
5
2CD
100
AcDbEntity
8
Ama layout
6
ByLayer
62
256
370
-1
100
AcDbLine
10
50.2523520796
20
88.2695837055
11
50.3966653186
21
88.2673079483
0
LINE
5
2CE
100
AcDbEntity
8
Ama layout
6
ByLayer
62
256
370
-1
100
AcDbLine
10
50.3966750445
20
88.2673077926
11
50.5705914237
21
88.2644805991
0
LINE
5
2CF
100
AcDbEntity
8
Ama layout
6
ByLayer
62
256
370
-1
100
AcDbLine
10
50.5097716534
20
86.2464347464
11
50.2233909261
21
86.2395762461
0
LINE
5
2D0
100
AcDbEntity
8
Ama layout
6
ByLayer
62
256
370
-1
100
AcDbLine
10
50.2233292146
20
86.2395748635
11
49.8706496845
21
86.2322176204
0
LINE
5
2D1
100
AcDbEntity
8
Ama layout
6
ByLayer
62
256
370
-1
100
AcDbLine
10
49.8705733602
20
86.2322161739
11
49.4148945926
21
86.2244501732
0
LINE
5
2D2
100
AcDbEntity
8
Ama layout
6
ByLayer
62
256
370
-1
100
AcDbLine
10
49.4147355397
20
86.2244480952
11
49.0042448782
21
86.2207175707
0
LINE
5
2D3
100
AcDbEntity
8
Ama layout
6
ByLayer
62
256
370
-1
100
AcDbLine
10
49.0040046177
20
86.2207168304
11
48.4130967808
21
86.2224455028
0
LINE
5
2D4
100
AcDbEntity
8
Ama layout
6
ByLayer
62
256
370
-1
100
AcDbLine
10
48.4129421916
20
86.2224465525
11
48.0174277811
21
86.2266609573
0
LINE
5
2D5
100
AcDbEntity
8
Ama layout
6
ByLayer
62
256
370
-1
100
AcDbLine
10
48.0173563503
20
86.226661846
11
47.6748402032
21
86.2315351241
0
LINE
5
2D6
100
AcDbEntity
8
Ama layout
6
ByLayer
62
256
370
-1
100
AcDbLine
10
47.6747958423
20
86.2315358045
11
47.3610789661
21
86.236695414
0
LINE
5
2D7
100
AcDbEntity
8
Ama layout
6
ByLayer
62
256
370
-1
100
AcDbLine
10
47.3921263165
20
87.8061274434
11
47.6194725119
21
87.7775680765
0
LINE
5
2D8
100
AcDbEntity
8
Ama layout
6
ByLayer
62
256
370
-1
100
AcDbLine
10
47.6194725119
20
87.7775680765
11
47.7890767747
21
87.7572190209
0
LINE
5
2D9
100
AcDbEntity
8
Ama layout
6
ByLayer
62
256
370
-1
100
AcDbLine
10
47.7890767747
20
87.7572190209
11
48.0853436829
21
87.7247054997
0
LINE
5
2DA
100
AcDbEntity
8
Ama layout
6
ByLayer
62
256
370
-1
100
AcDbLine
10
48.0853436829
20
87.7247054997
11
48.4311059528
21
87.6932403964
0
LINE
5
2DB
100
AcDbEntity
8
Ama layout
6
ByLayer
62
256
370
-1
100
AcDbLine
10
48.4311059528
20
87.6932403964
11
48.6038650065
21
87.6819072875
0
LINE
5
2DC
100
AcDbEntity
8
Ama layout
6
ByLayer
62
256
370
-1
100
AcDbLine
10
48.6038650065
20
87.6819072875
11
48.6038104394
21
87.6727745702
0
LINE
5
2DD
100
AcDbEntity
8
Ama layout
6
ByLayer
62
256
370
-1
100
AcDbLine
10
48.6038104394
20
87.6727745702
11
48.3175803554
21
87.6753801373
0
LINE
5
2DE
100
AcDbEntity
8
Ama layout
6
ByLayer
62
256
370
-1
100
AcDbLine
10
48.3175803554
20
87.6753801373
11
48.0060238287
21
87.6811827818
0
LINE
5
2DF
100
AcDbEntity
8
Ama layout
6
ByLayer
62
256
370
-1
100
AcDbLine
10
48.0060238287
20
87.6811827818
11
47.7505719126
21
87.6866351685
0
LINE
5
2E0
100
AcDbEntity
8
Ama layout
6
ByLayer
62
256
370
-1
100
AcDbLine
10
47.7505719126
20
87.6866351685
11
47.5814332561
21
87.6907794293
0
LINE
5
2E1
100
AcDbEntity
8
Ama layout
6
ByLayer
62
256
370
-1
100
AcDbLine
10
47.5814332561
20
87.6907794293
11
47.4831091591
21
87.6933913142
0
LINE
5
2E2
100
AcDbEntity
8
Ama layout
6
ByLayer
62
256
370
-1
100
AcDbLine
10
47.4831091591
20
87.6933913142
11
47.3856842315
21
87.6961104106
0
LINE
5
2E3
100
AcDbEntity
8
Ama layout
6
ByLayer
62
256
370
-1
100
AcDbLine
10
47.3856842315
20
87.6961104106
11
47.4697413803
21
87.4647768079
0
LINE
5
2E4
100
AcDbEntity
8
Ama layout
6
ByLayer
62
256
370
-1
100
AcDbLine
10
47.4697413803
20
87.4647768079
11
47.6696864692
21
87.4474790792
0
LINE
5
2E5
100
AcDbEntity
8
Ama layout
6
ByLayer
62
256
370
-1
100
AcDbLine
10
47.6696864692
20
87.4474790792
11
47.8409340836
21
87.4297512881
0
LINE
5
2E6
100
AcDbEntity
8
Ama layout
6
ByLayer
62
256
370
-1
100
AcDbLine
10
47.8409340836
20
87.4297512881
11
48.1339196799
21
87.3952988522
0
LINE
5
2E7
100
AcDbEntity
8
Ama layout
6
ByLayer
62
256
370
-1
100
AcDbLine
10
48.1339196799
20
87.3952988522
11
48.4714463331
21
87.3559033135
0
LINE
5
2E8
100
AcDbEntity
8
Ama layout
6
ByLayer
62
256
370
-1
100
AcDbLine
10
48.4714463331
20
87.3559033135
11
48.6364717009
21
87.3409257312
0
LINE
5
2E9
100
AcDbEntity
8
Ama layout
6
ByLayer
62
256
370
-1
100
AcDbLine
10
48.6364717009
20
87.3409257312
11
48.694903493
21
87.3371940202
0
LINE
5
2EA
100
AcDbEntity
8
Ama layout
6
ByLayer
62
256
370
-1
100
AcDbLine
10
48.694903493
20
87.3371940202
11
48.6947592781
21
87.3294429921
0
LINE
5
2EB
100
AcDbEntity
8
Ama layout
6
ByLayer
62
256
370
-1
100
AcDbLine
10
48.6947592781
20
87.3294429921
11
48.4345806206
21
87.3226668475
0
LINE
5
2EC
100
AcDbEntity
8
Ama layout
6
ByLayer
62
256
370
-1
100
AcDbLine
10
48.4345806206
20
87.3226668475
11
48.1692959307
21
87.3176735193
0
LINE
5
2ED
100
AcDbEntity
8
Ama layout
6
ByLayer
62
256
370
-1
100
AcDbLine
10
48.1692959307
20
87.3176735193
11
47.8711935799
21
87.3178697128
0
LINE
5
2EE
100
AcDbEntity
8
Ama layout
6
ByLayer
62
256
370
-1
100
AcDbLine
10
47.8711935799
20
87.3178697128
11
47.62997407
21
87.3232574787
0
LINE
5
2EF
100
AcDbEntity
8
Ama layout
6
ByLayer
62
256
370
-1
100
AcDbLine
10
47.62997407
20
87.3232574787
11
47.4632457194
21
87.3313960963
0
LINE
5
2F0
100
AcDbEntity
8
Ama layout
6
ByLayer
62
256
370
-1
100
AcDbLine
10
47.4632457194
20
87.3313960963
11
47.4839045409
21
87.284265394
0
LINE
5
2F1
100
AcDbEntity
8
Ama layout
6
ByLayer
62
256
370
-1
100
AcDbLine
10
47.4839045409
20
87.284265394
11
47.6676405401
21
87.2738840341
0
LINE
5
2F2
100
AcDbEntity
8
Ama layout
6
ByLayer
62
256
370
-1
100
AcDbLine
10
47.6676405401
20
87.2738840341
11
47.8526724909
21
87.2647070448
0
LINE
5
2F3
100
AcDbEntity
8
Ama layout
6
ByLayer
62
256
370
-1
100
AcDbLine
10
47.8526724909
20
87.2647070448
11
48.2314134457
21
87.2531823236
0
LINE
5
2F4
100
AcDbEntity
8
Ama layout
6
ByLayer
62
256
370
-1
100
AcDbLine
10
48.2314134457
20
87.2531823236
11
48.3444195397
21
87.2515628427
0
LINE
5
2F5
100
AcDbEntity
8
Ama layout
6
ByLayer
62
256
370
-1
100
AcDbLine
10
48.3444195397
20
87.2515628427
11
48.344439546
21
87.2448399261
0
LINE
5
2F6
100
AcDbEntity
8
Ama layout
6
ByLayer
62
256
370
-1
100
AcDbLine
10
48.344439546
20
87.2448399261
11
48.1550497583
21
87.2405611047
0
LINE
5
2F7
100
AcDbEntity
8
Ama layout
6
ByLayer
62
256
370
-1
100
AcDbLine
10
48.1550497583
20
87.2405611047
11
47.8953733417
21
87.2309045703
0
LINE
5
2F8
100
AcDbEntity
8
Ama layout
6
ByLayer
62
256
370
-1
100
AcDbLine
10
47.8953733417
20
87.2309045703
11
47.7784881258
21
87.2249090465
0
LINE
5
2F9
100
AcDbEntity
8
Ama layout
6
ByLayer
62
256
370
-1
100
AcDbLine
10
47.7784881258
20
87.2249090465
11
47.6310095809
21
87.2162361694
0
LINE
5
2FA
100
AcDbEntity
8
Ama layout
6
ByLayer
62
256
370
-1
100
AcDbLine
10
47.6310095809
20
87.2162361694
11
47.4841322982
21
87.2070648108
0
LINE
5
2FB
100
AcDbEntity
8
Ama layout
6
ByLayer
62
256
370
-1
100
AcDbLine
10
47.4841322982
20
87.2070648108
11
47.4637516929
21
87.1598131344
0
LINE
5
2FC
100
AcDbEntity
8
Ama layout
6
ByLayer
62
256
370
-1
100
AcDbLine
10
47.4637516929
20
87.1598131344
11
47.6641257708
21
87.1703197457
0
LINE
5
2FD
100
AcDbEntity
8
Ama layout
6
ByLayer
62
256
370
-1
100
AcDbLine
10
47.6641257708
20
87.1703197457
11
47.8013159783
21
87.1743665975
0
LINE
5
2FE
100
AcDbEntity
8
Ama layout
6
ByLayer
62
256
370
-1
100
AcDbLine
10
47.8013159783
20
87.1743665975
11
48.0549083417
21
87.1777077303
0
LINE
5
2FF
100
AcDbEntity
8
Ama layout
6
ByLayer
62
256
370
-1
100
AcDbLine
10
48.0549083417
20
87.1777077303
11
48.2852116506
21
87.1766899707
0
LINE
5
300
100
AcDbEntity
8
Ama layout
6
ByLayer
62
256
370
-1
100
AcDbLine
10
48.2852116506
20
87.1766899707
11
48.6665309103
21
87.1695539841
0
LINE
5
301
100
AcDbEntity
8
Ama layout
6
ByLayer
62
256
370
-1
100
AcDbLine
10
48.6665309103
20
87.1695539841
11
48.7497341838
21
87.1683643315
0
LINE
5
302
100
AcDbEntity
8
Ama layout
6
ByLayer
62
256
370
-1
100
AcDbLine
10
48.7497341838
20
87.1683643315
11
48.7500122765
21
87.1634620738
0
LINE
5
303
100
AcDbEntity
8
Ama layout
6
ByLayer
62
256
370
-1
100
AcDbLine
10
48.7500122765
20
87.1634620738
11
48.6064122765
21
87.1535620738
0
LINE
5
304
100
AcDbEntity
8
Ama layout
6
ByLayer
62
256
370
-1
100
AcDbLine
10
48.6064122765
20
87.1535620738
11
48.3256122765
21
87.1222620738
0
LINE
5
305
100
AcDbEntity
8
Ama layout
6
ByLayer
62
256
370
-1
100
AcDbLine
10
48.3256122765
20
87.1222620738
11
48.0594122765
21
87.0878620738
0
LINE
5
306
100
AcDbEntity
8
Ama layout
6
ByLayer
62
256
370
-1
100
AcDbLine
10
48.0594122765
20
87.0878620738
11
47.7732122765
21
87.0529620738
0
LINE
5
307
100
AcDbEntity
8
Ama layout
6
ByLayer
62
256
370
-1
100
AcDbLine
10
47.7732122765
20
87.0529620738
11
47.5378122765
21
87.0287620738
0
LINE
5
308
100
AcDbEntity
8
Ama layout
6
ByLayer
62
256
370
-1
100
AcDbLine
10
47.5378122765
20
87.0287620738
11
47.4715122765
21
87.0229620738
0
LINE
5
309
100
AcDbEntity
8
Ama layout
6
ByLayer
62
256
370
-1
100
AcDbLine
10
47.4715122765
20
87.0229620738
11
47.3893122765
21
86.7909620738
0
LINE
5
30A
100
AcDbEntity
8
Ama layout
6
ByLayer
62
256
370
-1
100
AcDbLine
10
47.3893122765
20
86.7909620738
11
47.5193122766
21
86.7956620738
0
LINE
5
30B
100
AcDbEntity
8
Ama layout
6
ByLayer
62
256
370
-1
100
AcDbLine
10
47.5193122766
20
86.7956620738
11
47.7890122765
21
86.8043620738
0
LINE
5
30C
100
AcDbEntity
8
Ama layout
6
ByLayer
62
256
370
-1
100
AcDbLine
10
47.7890122765
20
86.8043620738
11
48.0480122765
21
86.8120620738
0
LINE
5
30D
100
AcDbEntity
8
Ama layout
6
ByLayer
62
256
370
-1
100
AcDbLine
10
48.0480122765
20
86.8120620738
11
48.4341122765
21
86.8216620738
0
LINE
5
30E
100
AcDbEntity
8
Ama layout
6
ByLayer
62
256
370
-1
100
AcDbLine
10
48.4341122765
20
86.8216620738
11
48.6390122766
21
86.8242620738
0
LINE
5
30F
100
AcDbEntity
8
Ama layout
6
ByLayer
62
256
370
-1
100
AcDbLine
10
48.6390122766
20
86.8242620738
11
48.7299122766
21
86.8246620738
0
LINE
5
310
100
AcDbEntity
8
Ama layout
6
ByLayer
62
256
370
-1
100
AcDbLine
10
48.7299122766
20
86.8246620738
11
48.7299224154
21
86.8209975738
0
LINE
5
311
100
AcDbEntity
8
Ama layout
6
ByLayer
62
256
370
-1
100
AcDbLine
10
48.7299224154
20
86.8209975738
11
48.4346774001
21
86.802212448
0
LINE
5
312
100
AcDbEntity
8
Ama layout
6
ByLayer
62
256
370
-1
100
AcDbLine
10
48.4346774001
20
86.802212448
11
48.0122040011
21
86.7593458276
0
LINE
5
313
100
AcDbEntity
8
Ama layout
6
ByLayer
62
256
370
-1
100
AcDbLine
10
48.0122040011
20
86.7593458276
11
47.724307515
21
86.7243826574
0
LINE
5
314
100
AcDbEntity
8
Ama layout
6
ByLayer
62
256
370
-1
100
AcDbLine
10
47.724307515
20
86.7243826574
11
47.493197584
21
86.693989734
0
LINE
5
315
100
AcDbEntity
8
Ama layout
6
ByLayer
62
256
370
-1
100
AcDbLine
10
47.493197584
20
86.693989734
11
47.3966360882
21
86.6810002179
0
LINE
5
316
100
AcDbEntity
8
Ama layout
6
ByLayer
62
256
370
-1
100
AcDbLine
10
50.6031019372
20
87.8190426766
11
50.4741873749
21
87.8016954687
0
LINE
5
317
100
AcDbEntity
8
Ama layout
6
ByLayer
62
256
370
-1
100
AcDbLine
10
50.4741873749
20
87.8016954687
11
50.3093943435
21
87.7799681408
0
LINE
5
318
100
AcDbEntity
8
Ama layout
6
ByLayer
62
256
370
-1
100
AcDbLine
10
50.3093943435
20
87.7799681408
11
50.1486932304
21
87.7598613695
0
LINE
5
319
100
AcDbEntity
8
Ama layout
6
ByLayer
62
256
370
-1
100
AcDbLine
10
50.1486932304
20
87.7598613695
11
49.7548104866
21
87.7155840145
0
LINE
5
31A
100
AcDbEntity
8
Ama layout
6
ByLayer
62
256
370
-1
100
AcDbLine
10
49.7548104866
20
87.7155840145
11
49.4932251986
21
87.6920708883
0
LINE
5
31B
100
AcDbEntity
8
Ama layout
6
ByLayer
62
256
370
-1
100
AcDbLine
10
49.4932251986
20
87.6920708883
11
49.3605675218
21
87.6833050027
0
LINE
5
31C
100
AcDbEntity
8
Ama layout
6
ByLayer
62
256
370
-1
100
AcDbLine
10
49.3605675218
20
87.6833050027
11
49.2697882383
21
87.6789493497
0
LINE
5
31D
100
AcDbEntity
8
Ama layout
6
ByLayer
62
256
370
-1
100
AcDbLine
10
49.2697882383
20
87.6789493497
11
49.2699106809
21
87.6754143387
0
LINE
5
31E
100
AcDbEntity
8
Ama layout
6
ByLayer
62
256
370
-1
100
AcDbLine
10
49.2699106809
20
87.6754143387
11
49.5292999412
21
87.6777937667
0
LINE
5
31F
100
AcDbEntity
8
Ama layout
6
ByLayer
62
256
370
-1
100
AcDbLine
10
49.5292999412
20
87.6777937667
11
49.834653253
21
87.6848418081
0
LINE
5
320
100
AcDbEntity
8
Ama layout
6
ByLayer
62
256
370
-1
100
AcDbLine
10
49.834653253
20
87.6848418081
11
50.0284149607
21
87.6903952455
0
LINE
5
321
100
AcDbEntity
8
Ama layout
6
ByLayer
62
256
370
-1
100
AcDbLine
10
50.0284149607
20
87.6903952455
11
50.2456703018
21
87.6968370444
0
LINE
5
322
100
AcDbEntity
8
Ama layout
6
ByLayer
62
256
370
-1
100
AcDbLine
10
50.2456703018
20
87.6968370444
11
50.3815394812
21
87.7012263585
0
LINE
5
323
100
AcDbEntity
8
Ama layout
6
ByLayer
62
256
370
-1
100
AcDbLine
10
50.3815394812
20
87.7012263585
11
50.4805154579
21
87.7046198923
0
LINE
5
324
100
AcDbEntity
8
Ama layout
6
ByLayer
62
256
370
-1
100
AcDbLine
10
50.4805154579
20
87.7046198923
11
50.6104824218
21
87.7092619003
0
LINE
5
325
100
AcDbEntity
8
Ama layout
6
ByLayer
62
256
370
-1
100
AcDbLine
10
50.6104824219
20
87.7092619003
11
50.5417733391
21
87.4731035171
0
LINE
5
326
100
AcDbEntity
8
Ama layout
6
ByLayer
62
256
370
-1
100
AcDbLine
10
50.5417733391
20
87.4731035171
11
50.475517956
21
87.4672722043
0
LINE
5
327
100
AcDbEntity
8
Ama layout
6
ByLayer
62
256
370
-1
100
AcDbLine
10
50.475517956
20
87.4672722043
11
50.3083467833
21
87.4505315661
0
LINE
5
328
100
AcDbEntity
8
Ama layout
6
ByLayer
62
256
370
-1
100
AcDbLine
10
50.3083467833
20
87.4505315661
11
50.1708666397
21
87.4350289809
0
LINE
5
329
100
AcDbEntity
8
Ama layout
6
ByLayer
62
256
370
-1
100
AcDbLine
10
50.1708666397
20
87.4350289809
11
49.9161105135
21
87.4035857597
0
LINE
5
32A
100
AcDbEntity
8
Ama layout
6
ByLayer
62
256
370
-1
100
AcDbLine
10
49.9161105135
20
87.4035857597
11
49.576638077
21
87.3613630778
0
LINE
5
32B
100
AcDbEntity
8
Ama layout
6
ByLayer
62
256
370
-1
100
AcDbLine
10
49.576638077
20
87.3613630778
11
49.3175195615
21
87.3376851358
0
LINE
5
32C
100
AcDbEntity
8
Ama layout
6
ByLayer
62
256
370
-1
100
AcDbLine
10
49.3175195615
20
87.3376851358
11
49.2631405487
21
87.3348491242
0
LINE
5
32D
100
AcDbEntity
8
Ama layout
6
ByLayer
62
256
370
-1
100
AcDbLine
10
49.2631405487
20
87.3348491242
11
49.2602574191
21
87.3309472169
0
LINE
5
32E
100
AcDbEntity
8
Ama layout
6
ByLayer
62
256
370
-1
100
AcDbLine
10
49.2602574191
20
87.3309472169
11
49.435869556
21
87.3276385414
0
LINE
5
32F
100
AcDbEntity
8
Ama layout
6
ByLayer
62
256
370
-1
100
AcDbLine
10
49.435869556
20
87.3276385414
11
50.0283911151
21
87.3222337236
0
LINE
5
330
100
AcDbEntity
8
Ama layout
6
ByLayer
62
256
370
-1
100
AcDbLine
10
50.0283911151
20
87.3222337236
11
50.2067800016
21
87.3258344375
0
LINE
5
331
100
AcDbEntity
8
Ama layout
6
ByLayer
62
256
370
-1
100
AcDbLine
10
50.2067800016
20
87.3258344375
11
50.3770595056
21
87.3322078601
0
LINE
5
332
100
AcDbEntity
8
Ama layout
6
ByLayer
62
256
370
-1
100
AcDbLine
10
50.3770595056
20
87.3322078601
11
50.5432269105
21
87.3421674563
0
LINE
5
333
100
AcDbEntity
8
Ama layout
6
ByLayer
62
256
370
-1
100
AcDbLine
10
50.5432269105
20
87.3421674563
11
50.5223852939
21
87.2950970089
0
LINE
5
334
100
AcDbEntity
8
Ama layout
6
ByLayer
62
256
370
-1
100
AcDbLine
10
50.5223852939
20
87.2950970089
11
50.449000863
21
87.2903498728
0
LINE
5
335
100
AcDbEntity
8
Ama layout
6
ByLayer
62
256
370
-1
100
AcDbLine
10
50.449000863
20
87.2903498728
11
50.3388237121
21
87.2833788309
0
LINE
5
336
100
AcDbEntity
8
Ama layout
6
ByLayer
62
256
370
-1
100
AcDbLine
10
50.3388237121
20
87.2833788309
11
50.1538580975
21
87.2728559319
0
LINE
5
337
100
AcDbEntity
8
Ama layout
6
ByLayer
62
256
370
-1
100
AcDbLine
10
50.1538580975
20
87.2728559319
11
49.9280896836
21
87.2630956408
0
LINE
5
338
100
AcDbEntity
8
Ama layout
6
ByLayer
62
256
370
-1
100
AcDbLine
10
49.9280896836
20
87.2630956408
11
49.6622110583
21
87.2563003024
0
LINE
5
339
100
AcDbEntity
8
Ama layout
6
ByLayer
62
256
370
-1
100
AcDbLine
10
49.6622110583
20
87.2563003024
11
49.6253132879
21
87.2555760515
0
LINE
5
33A
100
AcDbEntity
8
Ama layout
6
ByLayer
62
256
370
-1
100
AcDbLine
10
49.6253132879
20
87.2555760515
11
49.6253346942
21
87.2483782456
0
LINE
5
33B
100
AcDbEntity
8
Ama layout
6
ByLayer
62
256
370
-1
100
AcDbLine
10
49.6253346942
20
87.2483782456
11
49.8899475006
21
87.243647214
0
LINE
5
33C
100
AcDbEntity
8
Ama layout
6
ByLayer
62
256
370
-1
100
AcDbLine
10
49.8899475006
20
87.243647214
11
50.1910766234
21
87.2325084811
0
LINE
5
33D
100
AcDbEntity
8
Ama layout
6
ByLayer
62
256
370
-1
100
AcDbLine
10
50.1910766234
20
87.2325084811
11
50.4125075178
21
87.2205682557
0
LINE
5
33E
100
AcDbEntity
8
Ama layout
6
ByLayer
62
256
370
-1
100
AcDbLine
10
50.4125679957
20
87.2205647838
11
50.5226241046
21
87.2141466275
0
LINE
5
33F
100
AcDbEntity
8
Ama layout
6
ByLayer
62
256
370
-1
100
AcDbLine
10
50.5226241046
20
87.2141466275
11
50.5437428611
21
87.1671998691
0
LINE
5
340
100
AcDbEntity
8
Ama layout
6
ByLayer
62
256
370
-1
100
AcDbLine
10
50.5437428611
20
87.1671998691
11
50.4775322016
21
87.1713324912
0
LINE
5
341
100
AcDbEntity
8
Ama layout
6
ByLayer
62
256
370
-1
100
AcDbLine
10
50.4775322016
20
87.1713324912
11
50.3101130169
21
87.1787092522
0
LINE
5
342
100
AcDbEntity
8
Ama layout
6
ByLayer
62
256
370
-1
100
AcDbLine
10
50.3101130169
20
87.1787092522
11
50.1723035974
21
87.1822608593
0
LINE
5
343
100
AcDbEntity
8
Ama layout
6
ByLayer
62
256
370
-1
100
AcDbLine
10
50.1723035974
20
87.1822608593
11
49.8781974586
21
87.1843173184
0
LINE
5
344
100
AcDbEntity
8
Ama layout
6
ByLayer
62
256
370
-1
100
AcDbLine
10
49.8781974586
20
87.1843173184
11
49.6488050176
21
87.1810373671
0
LINE
5
345
100
AcDbEntity
8
Ama layout
6
ByLayer
62
256
370
-1
100
AcDbLine
10
49.6488050176
20
87.1810373671
11
49.3733233424
21
87.173440881
0
LINE
5
346
100
AcDbEntity
8
Ama layout
6
ByLayer
62
256
370
-1
100
AcDbLine
10
49.3733233424
20
87.173440881
11
49.2349306107
21
87.1703909923
0
LINE
5
347
100
AcDbEntity
8
Ama layout
6
ByLayer
62
256
370
-1
100
AcDbLine
10
49.2349306107
20
87.1703909923
11
49.2378122766
21
87.1680620738
0
LINE
5
348
100
AcDbEntity
8
Ama layout
6
ByLayer
62
256
370
-1
100
AcDbLine
10
49.2378122766
20
87.1680620738
11
49.5067122765
21
87.1504620738
0
LINE
5
349
100
AcDbEntity
8
Ama layout
6
ByLayer
62
256
370
-1
100
AcDbLine
10
49.5067122765
20
87.1504620738
11
49.8411122765
21
87.1129620738
0
LINE
5
34A
100
AcDbEntity
8
Ama layout
6
ByLayer
62
256
370
-1
100
AcDbLine
10
49.8411122765
20
87.1129620738
11
50.2071122765
21
87.0705620738
0
LINE
5
34B
100
AcDbEntity
8
Ama layout
6
ByLayer
62
256
370
-1
100
AcDbLine
10
50.2071122765
20
87.0705620738
11
50.3436122765
21
87.0566620738
0
LINE
5
34C
100
AcDbEntity
8
Ama layout
6
ByLayer
62
256
370
-1
100
AcDbLine
10
50.3436122765
20
87.0566620738
11
50.4772122765
21
87.0445620738
0
LINE
5
34D
100
AcDbEntity
8
Ama layout
6
ByLayer
62
256
370
-1
100
AcDbLine
10
50.4772122765
20
87.0445620738
11
50.5435122765
21
87.0392620738
0
LINE
5
34E
100
AcDbEntity
8
Ama layout
6
ByLayer
62
256
370
-1
100
AcDbLine
10
50.5435122765
20
87.0392620738
11
50.6141122765
21
86.8036620738
0
LINE
5
34F
100
AcDbEntity
8
Ama layout
6
ByLayer
62
256
370
-1
100
AcDbLine
10
50.6141122765
20
86.8036620738
11
50.4513122766
21
86.8081620738
0
LINE
5
350
100
AcDbEntity
8
Ama layout
6
ByLayer
62
256
370
-1
100
AcDbLine
10
50.4513122766
20
86.8081620738
11
50.3517122765
21
86.8106620738
0
LINE
5
351
100
AcDbEntity
8
Ama layout
6
ByLayer
62
256
370
-1
100
AcDbLine
10
50.3517122765
20
86.8106620738
11
50.2143122765
21
86.8139620738
0
LINE
5
352
100
AcDbEntity
8
Ama layout
6
ByLayer
62
256
370
-1
100
AcDbLine
10
50.2143122765
20
86.8139620738
11
49.8773122766
21
86.8210620738
0
LINE
5
353
100
AcDbEntity
8
Ama layout
6
ByLayer
62
256
370
-1
100
AcDbLine
10
49.8773122766
20
86.8210620738
11
49.5691122765
21
86.8260620738
0
LINE
5
354
100
AcDbEntity
8
Ama layout
6
ByLayer
62
256
370
-1
100
AcDbLine
10
49.5691122765
20
86.8260620738
11
49.3332122765
21
86.8270620738
0
LINE
5
355
100
AcDbEntity
8
Ama layout
6
ByLayer
62
256
370
-1
100
AcDbLine
10
49.3332122765
20
86.8270620738
11
49.2733122765
21
86.8267620738
0
LINE
5
356
100
AcDbEntity
8
Ama layout
6
ByLayer
62
256
370
-1
100
AcDbLine
10
49.2733122765
20
86.8267620738
11
49.2732181759
21
86.8232261949
0
LINE
5
357
100
AcDbEntity
8
Ama layout
6
ByLayer
62
256
370
-1
100
AcDbLine
10
49.2732181759
20
86.8232261949
11
49.4967531434
21
86.8118962237
0
LINE
5
358
100
AcDbEntity
8
Ama layout
6
ByLayer
62
256
370
-1
100
AcDbLine
10
49.4967531434
20
86.8118962237
11
49.719807598
21
86.794064783
0
LINE
5
359
100
AcDbEntity
8
Ama layout
6
ByLayer
62
256
370
-1
100
AcDbLine
10
49.719807598
20
86.794064783
11
50.0668142546
21
86.7590048303
0
LINE
5
35A
100
AcDbEntity
8
Ama layout
6
ByLayer
62
256
370
-1
100
AcDbLine
10
50.0668142546
20
86.7590048303
11
50.2453761035
21
86.7386400049
0
LINE
5
35B
100
AcDbEntity
8
Ama layout
6
ByLayer
62
256
370
-1
100
AcDbLine
10
50.2453761035
20
86.7386400049
11
50.3803255582
21
86.722344463
0
LINE
5
35C
100
AcDbEntity
8
Ama layout
6
ByLayer
62
256
370
-1
100
AcDbLine
10
50.3803255582
20
86.722344463
11
50.5109750321
21
86.7060360312
0
LINE
5
35D
100
AcDbEntity
8
Ama layout
6
ByLayer
62
256
370
-1
100
AcDbLine
10
50.5109750321
20
86.7060360312
11
50.6076120688
21
86.6938256605
0
LINE
5
35E
100
AcDbEntity
8
Ama layout
6
ByLayer
62
256
370
-1
100
AcDbLine
10
47.2803812725
20
88.2482777324
11
47.3921263165
21
87.8061274434
0
LINE
5
35F
100
AcDbEntity
8
Ama layout
6
ByLayer
62
256
370
-1
100
AcDbLine
10
47.2803812725
20
88.2482777324
11
47.5599745158
21
88.2552714914
0
LINE
5
360
100
AcDbEntity
8
Ama layout
6
ByLayer
62
256
370
-1
100
AcDbLine
10
50.711660672
20
88.2620884444
11
50.6031019372
21
87.8190426766
0
LINE
5
361
100
AcDbEntity
8
Ama layout
6
ByLayer
62
256
370
-1
100
AcDbLine
10
50.5706054437
20
88.2644803662
11
50.711660672
21
88.2620884444
0
LINE
5
362
100
AcDbEntity
8
Ama layout
6
ByLayer
62
256
370
-1
100
AcDbLine
10
50.7197189989
20
86.2516640578
11
50.5097908139
21
86.2464352145
0
LINE
5
363
100
AcDbEntity
8
Ama layout
6
ByLayer
62
256
370
-1
100
AcDbLine
10
50.6076120688
20
86.6938256605
11
50.7197189989
21
86.2516640578
0
LINE
5
364
100
AcDbEntity
8
Ama layout
6
ByLayer
62
256
370
-1
100
AcDbLine
10
47.3610567247
20
86.2366957922
11
47.2884396813
21
86.2379708935
0
LINE
5
365
100
AcDbEntity
8
Ama layout
6
ByLayer
62
256
370
-1
100
AcDbLine
10
47.3966360882
20
86.6810002179
11
47.2884396813
21
86.2379708935
0
LINE
5
366
100
AcDbEntity
8
helper
6
ByLayer
62
256
370
-1
100
AcDbLine
10
59.0345507767
20
96.9129292962
11
65.9475562955
21
96.9259731514
0
LINE
5
367
100
AcDbEntity
8
helper
6
ByLayer
62
256
370
-1
100
AcDbLine
10
62.5588506144
20
96.9195791472
11
62.5621031573
21
95.6314654943
0
LINE
5
368
100
AcDbEntity
8
helper
6
ByLayer
62
256
370
-1
100
AcDbLine
10
60.3548575841
20
96.9154205268
11
62.5621031573
21
95.6314654943
0
LINE
5
369
100
AcDbEntity
8
helper
6
ByLayer
62
256
370
-1
100
AcDbLine
10
62.5588506144
20
96.9195791472
11
60.3579835874
21
95.6273066351
0
LINE
5
36A
100
AcDbEntity
8
helper
6
ByLayer
62
256
370
-1
100
AcDbLine
10
60.3448576005
20
96.9154016582
11
60.3479836037
21
95.6272877665
0
LINE
5
36B
100
AcDbEntity
8
Deck layout
6
ByLayer
62
256
370
-1
100
AcDbLine
10
51.5102423995
20
88.4001279714
11
51.512718004
21
87.3800201029
0
LINE
5
36C
100
AcDbEntity
8
Deck layout
6
ByLayer
62
256
370
-1
100
AcDbLine
10
51.512718004
20
87.3800201029
11
51.7959028459
21
87.3426237536
0
LINE
5
36D
100
AcDbEntity
8
Deck layout
6
ByLayer
62
256
370
-1
100
AcDbLine
10
51.7959028459
20
87.3426237536
11
52.1237596396
21
87.3111146631
0
LINE
5
36E
100
AcDbEntity
8
Deck layout
6
ByLayer
62
256
370
-1
100
AcDbLine
10
52.1237596396
20
87.3111146631
11
52.5544501833
21
87.2935048486
0
LINE
5
36F
100
AcDbEntity
8
Deck layout
6
ByLayer
62
256
370
-1
100
AcDbLine
10
52.5544501833
20
87.2935048486
11
52.7358461052
21
87.2947852842
0
LINE
5
370
100
AcDbEntity
8
Deck layout
6
ByLayer
62
256
370
-1
100
AcDbLine
10
52.7358461052
20
87.2947852842
11
52.9188162843
21
87.301373423
0
LINE
5
371
100
AcDbEntity
8
Deck layout
6
ByLayer
62
256
370
-1
100
AcDbLine
10
52.9188162843
20
87.301373423
11
52.9806005103
21
87.304773338
0
LINE
5
372
100
AcDbEntity
8
Deck layout
6
ByLayer
62
256
370
-1
100
AcDbLine
10
52.9806005103
20
87.304773338
11
53.1696347009
21
87.3187909965
0
LINE
5
373
100
AcDbEntity
8
Deck layout
6
ByLayer
62
256
370
-1
100
AcDbLine
10
53.1696347009
20
87.3187909965
11
53.2996749255
21
87.3314223065
0
LINE
5
374
100
AcDbEntity
8
Deck layout
6
ByLayer
62
256
370
-1
100
AcDbLine
10
53.2996749255
20
87.3314223065
11
53.3661406525
21
87.3386449886
0
LINE
5
375
100
AcDbEntity
8
Deck layout
6
ByLayer
62
256
370
-1
100
AcDbLine
10
53.3661406525
20
87.3386449886
11
53.4337024837
21
87.3466730002
0
LINE
5
376
100
AcDbEntity
8
Deck layout
6
ByLayer
62
256
370
-1
100
AcDbLine
10
53.4337024837
20
87.3466730002
11
53.7167181785
21
87.3853328301
0
LINE
5
377
100
AcDbEntity
8
Deck layout
6
ByLayer
62
256
370
-1
100
AcDbLine
10
53.7167181785
20
87.3853328301
11
53.716818108
21
87.3853475814
0
LINE
5
378
100
AcDbEntity
8
Deck layout
6
ByLayer
62
256
370
-1
100
AcDbLine
10
53.716818108
20
87.3853475814
11
53.7142423995
21
88.4054126079
0
LINE
5
379
100
AcDbEntity
8
Deck layout
6
ByLayer
62
256
370
-1
100
AcDbLine
10
53.7142423995
20
88.4054126079
11
53.4310423995
21
88.4427983418
0
LINE
5
37A
100
AcDbEntity
8
Deck layout
6
ByLayer
62
256
370
-1
100
AcDbLine
10
53.4310423995
20
88.4427983418
11
53.1031423995
21
88.4742983418
0
LINE
5
37B
100
AcDbEntity
8
Deck layout
6
ByLayer
62
256
370
-1
100
AcDbLine
10
53.1031423995
20
88.4742983418
11
52.8546423995
21
88.4880983418
0
LINE
5
37C
100
AcDbEntity
8
Deck layout
6
ByLayer
62
256
370
-1
100
AcDbLine
10
52.8546423995
20
88.4880983418
11
52.5515423995
21
88.4916983418
0
LINE
5
37D
100
AcDbEntity
8
Deck layout
6
ByLayer
62
256
370
-1
100
AcDbLine
10
52.5515423995
20
88.4916983418
11
52.2463423995
21
88.4806983418
0
LINE
5
37E
100
AcDbEntity
8
Deck layout
6
ByLayer
62
256
370
-1
100
AcDbLine
10
52.2463423995
20
88.4806983418
11
52.0572423995
21
88.4666983418
0
LINE
5
37F
100
AcDbEntity
8
Deck layout
6
ByLayer
62
256
370
-1
100
AcDbLine
10
52.0572423995
20
88.4666983418
11
51.8607423995
21
88.4467983418
0
LINE
5
380
100
AcDbEntity
8
Deck layout
6
ByLayer
62
256
370
-1
100
AcDbLine
10
51.8607423995
20
88.4467983418
11
51.5829423995
21
88.4108983418
0
LINE
5
381
100
AcDbEntity
8
Deck layout
6
ByLayer
62
256
370
-1
100
AcDbLine
10
51.5829423995
20
88.4108983418
11
51.5100423995
21
88.4000983418
0
LINE
5
382
100
AcDbEntity
8
Deck layout
6
ByLayer
62
256
370
-1
100
AcDbLine
10
52.6124500143
20
88.4920990167
11
52.6728500143
21
88.4921990167
0
LINE
5
383
100
AcDbEntity
8
Deck layout
6
ByLayer
62
256
370
-1
100
AcDbLine
10
52.7882617464
20
87.9431056662
11
52.7871619632
21
88.3930490694
0
LINE
5
384
100
AcDbEntity
8
Deck layout
6
ByLayer
62
256
370
-1
100
AcDbLine
10
53.2871613737
20
88.3942627221
11
53.288261642
21
87.9442194013
0
LINE
5
385
100
AcDbEntity
8
Deck layout
6
ByLayer
62
256
370
-1
100
AcDbLine
10
52.7882618883
20
87.9430476341
11
53.2882614892
21
87.9442818964
0
LINE
5
386
100
AcDbEntity
8
Deck layout
6
ByLayer
62
256
370
-1
100
AcDbLine
10
52.7871619632
20
88.3930490694
11
53.2871613737
21
88.3942627221
0
LINE
5
387
100
AcDbEntity
8
helper
6
ByLayer
62
256
370
-1
100
AcDbLine
10
51.5
20
87.25
11
54
21
86
0
LINE
5
388
100
AcDbEntity
8
helper
6
ByLayer
62
256
370
-1
100
AcDbLine
10
54
20
87.25
11
51.5
21
86
0
LINE
5
389
100
AcDbEntity
8
Ama deck
6
ByLayer
62
256
370
-1
100
AcDbLine
10
50.5535522418
20
86.7463835678
11
50.7847522418
21
86.8116835678
0
LINE
5
38A
100
AcDbEntity
8
Ama deck
6
ByLayer
62
256
370
-1
100
AcDbLine
10
50.7847522418
20
86.8116835678
11
50.9922522418
21
86.8662835678
0
LINE
5
38B
100
AcDbEntity
8
Ama deck
6
ByLayer
62
256
370
-1
100
AcDbLine
10
50.9922522418
20
86.8662835678
11
51.2940522418
21
86.9349835678
0
LINE
5
38C
100
AcDbEntity
8
Ama deck
6
ByLayer
62
256
370
-1
100
AcDbLine
10
51.2940522418
20
86.9349835678
11
51.5679522418
21
86.9865835678
0
LINE
5
38D
100
AcDbEntity
8
Ama deck
6
ByLayer
62
256
370
-1
100
AcDbLine
10
51.5679522418
20
86.9865835678
11
51.9221522418
21
87.0351835678
0
LINE
5
38E
100
AcDbEntity
8
Ama deck
6
ByLayer
62
256
370
-1
100
AcDbLine
10
51.9221522418
20
87.0351835678
11
52.1105522418
21
87.0483835678
0
LINE
5
38F
100
AcDbEntity
8
Ama deck
6
ByLayer
62
256
370
-1
100
AcDbLine
10
52.1105522418
20
87.0483835678
11
52.2016522418
21
87.0507835678
0
LINE
5
390
100
AcDbEntity
8
Ama deck
6
ByLayer
62
256
370
-1
100
AcDbLine
10
52.2016522418
20
87.0507835678
11
52.2922522418
21
87.0505835678
0
LINE
5
391
100
AcDbEntity
8
Ama deck
6
ByLayer
62
256
370
-1
100
AcDbLine
10
52.2922522418
20
87.0505835678
11
52.5092522418
21
87.0397835678
0
LINE
5
392
100
AcDbEntity
8
Ama deck
6
ByLayer
62
256
370
-1
100
AcDbLine
10
52.5092522418
20
87.0397835678
11
52.8578522418
21
86.9965835678
0
LINE
5
393
100
AcDbEntity
8
Ama deck
6
ByLayer
62
256
370
-1
100
AcDbLine
10
52.8578522418
20
86.9965835678
11
53.2094522418
21
86.9325835678
0
LINE
5
394
100
AcDbEntity
8
Ama deck
6
ByLayer
62
256
370
-1
100
AcDbLine
10
53.2094522418
20
86.9325835678
11
53.3998522418
21
86.8908835678
0
LINE
5
395
100
AcDbEntity
8
Ama deck
6
ByLayer
62
256
370
-1
100
AcDbLine
10
53.3998522418
20
86.8908835678
11
53.5432522418
21
86.8559835678
0
LINE
5
396
100
AcDbEntity
8
Ama deck
6
ByLayer
62
256
370
-1
100
AcDbLine
10
53.5432522418
20
86.8559835678
11
53.6803522418
21
86.8201835678
0
LINE
5
397
100
AcDbEntity
8
Ama deck
6
ByLayer
62
256
370
-1
100
AcDbLine
10
53.6803522418
20
86.8201835678
11
53.8133522418
21
86.7837835678
0
LINE
5
398
100
AcDbEntity
8
Ama deck
6
ByLayer
62
256
370
-1
100
AcDbLine
10
53.8133522418
20
86.7837835678
11
53.9118522418
21
86.7561835678
0
LINE
5
399
100
AcDbEntity
8
Ama deck
6
ByLayer
62
256
370
-1
100
AcDbLine
10
53.9118522418
20
86.7561835678
11
53.8135522418
21
86.7281835678
0
LINE
5
39A
100
AcDbEntity
8
Ama deck
6
ByLayer
62
256
370
-1
100
AcDbLine
10
53.8135522418
20
86.7281835678
11
53.6469522418
21
86.6816835678
0
LINE
5
39B
100
AcDbEntity
8
Ama deck
6
ByLayer
62
256
370
-1
100
AcDbLine
10
53.6469522418
20
86.6816835678
11
53.5438522418
21
86.6542835678
0
LINE
5
39C
100
AcDbEntity
8
Ama deck
6
ByLayer
62
256
370
-1
100
AcDbLine
10
53.5438522418
20
86.6542835678
11
53.4006522418
21
86.6185835678
0
LINE
5
39D
100
AcDbEntity
8
Ama deck
6
ByLayer
62
256
370
-1
100
AcDbLine
10
53.4006522418
20
86.6185835678
11
53.2493522418
21
86.5840835678
0
LINE
5
39E
100
AcDbEntity
8
Ama deck
6
ByLayer
62
256
370
-1
100
AcDbLine
10
53.2493522418
20
86.5840835678
11
53.0140522418
21
86.5367835678
0
LINE
5
39F
100
AcDbEntity
8
Ama deck
6
ByLayer
62
256
370
-1
100
AcDbLine
10
53.0140522418
20
86.5367835678
11
52.8216522418
21
86.5036835678
0
LINE
5
3A0
100
AcDbEntity
8
Ama deck
6
ByLayer
62
256
370
-1
100
AcDbLine
10
52.8216522418
20
86.5036835678
11
52.6091522418
21
86.4744835678
0
LINE
5
3A1
100
AcDbEntity
8
Ama deck
6
ByLayer
62
256
370
-1
100
AcDbLine
10
52.6091522418
20
86.4744835678
11
52.4476522418
21
86.4594835678
0
LINE
5
3A2
100
AcDbEntity
8
Ama deck
6
ByLayer
62
256
370
-1
100
AcDbLine
10
52.4476522418
20
86.4594835678
11
52.3243522418
21
86.4531835678
0
LINE
5
3A3
100
AcDbEntity
8
Ama deck
6
ByLayer
62
256
370
-1
100
AcDbLine
10
52.3243522418
20
86.4531835678
11
52.1731522418
21
86.4519835678
0
LINE
5
3A4
100
AcDbEntity
8
Ama deck
6
ByLayer
62
256
370
-1
100
AcDbLine
10
52.1731522418
20
86.4519835678
11
51.9238522418
21
86.4656835678
0
LINE
5
3A5
100
AcDbEntity
8
Ama deck
6
ByLayer
62
256
370
-1
100
AcDbLine
10
51.9238522418
20
86.4656835678
11
51.5500522418
21
86.5153835678
0
LINE
5
3A6
100
AcDbEntity
8
Ama deck
6
ByLayer
62
256
370
-1
100
AcDbLine
10
51.5500522418
20
86.5153835678
11
51.2951522418
21
86.5620835678
0
LINE
5
3A7
100
AcDbEntity
8
Ama deck
6
ByLayer
62
256
370
-1
100
AcDbLine
10
51.2951522418
20
86.5620835678
11
51.1784522418
21
86.5863835678
0
LINE
5
3A8
100
AcDbEntity
8
Ama deck
6
ByLayer
62
256
370
-1
100
AcDbLine
10
51.1784522418
20
86.5863835678
11
51.0289522418
21
86.6203835678
0
LINE
5
3A9
100
AcDbEntity
8
Ama deck
6
ByLayer
62
256
370
-1
100
AcDbLine
10
51.0289522418
20
86.6203835678
11
50.8873522418
21
86.6554835678
0
LINE
5
3AA
100
AcDbEntity
8
Ama deck
6
ByLayer
62
256
370
-1
100
AcDbLine
10
50.8873522418
20
86.6554835678
11
50.7515522418
21
86.6914835678
0
LINE
5
3AB
100
AcDbEntity
8
Ama deck
6
ByLayer
62
256
370
-1
100
AcDbLine
10
50.7515522418
20
86.6914835678
11
50.6520522418
21
86.7188835678
0
LINE
5
3AC
100
AcDbEntity
8
Ama deck
6
ByLayer
62
256
370
-1
100
AcDbLine
10
50.6520522418
20
86.7188835678
11
50.5535522418
21
86.7463835678
0
LINE
5
3AD
100
AcDbEntity
8
Ama deck
6
ByLayer
62
256
370
-1
100
AcDbLine
10
52.4252762421
20
86.551870085
11
52.4241277921
21
86.9518684447
0
LINE
5
3AE
100
AcDbEntity
8
Ama deck
6
ByLayer
62
256
370
-1
100
AcDbLine
10
52.4241277921
20
86.9518684447
11
52.8241259085
21
86.9530987366
0
LINE
5
3AF
100
AcDbEntity
8
Ama deck
6
ByLayer
62
256
370
-1
100
AcDbLine
10
52.8241259085
20
86.9530987366
11
52.8252743584
21
86.5531003769
0
LINE
5
3B0
100
AcDbEntity
8
Ama deck
6
ByLayer
62
256
370
-1
100
AcDbLine
10
52.8252743584
20
86.5531003769
11
52.4252762421
21
86.551870085
0
LINE
5
3B1
100
AcDbEntity
8
Plate
6
ByLayer
62
256
370
-1
100
AcDbLine
10
46.5
20
89.75
11
54
21
89.75
0
LINE
5
3B2
100
AcDbEntity
8
Plate
6
ByLayer
62
256
370
-1
100
AcDbLine
10
46.5
20
87.25
11
54
21
87.25
0
LINE
5
3B3
100
AcDbEntity
8
helper
6
ByLayer
62
256
370
-1
100
AcDbLine
10
46.5
20
86.625
11
54
21
86.625
0
LINE
5
3B4
100
AcDbEntity
8
Bulkhead 2
6
ByLayer
62
256
370
-1
100
AcDbLine
10
46.5444442073
20
88.3462665333
11
46.6252442073
21
87.8377665333
0
LINE
5
3B5
100
AcDbEntity
8
Bulkhead 2
6
ByLayer
62
256
370
-1
100
AcDbLine
10
46.6252442073
20
87.8377665333
11
46.8109442073
21
87.5815665333
0
LINE
5
3B6
100
AcDbEntity
8
Bulkhead 2
6
ByLayer
62
256
370
-1
100
AcDbLine
10
46.8109442073
20
87.5815665333
11
46.8911932073
21
87.5433965333
0
LINE
5
3B7
100
AcDbEntity
8
Bulkhead 2
6
ByLayer
62
256
370
-1
100
AcDbLine
10
46.8911932073
20
87.5433965333
11
46.9739520934
21
87.5827783624
0
LINE
5
3B8
100
AcDbEntity
8
Bulkhead 2
6
ByLayer
62
256
370
-1
100
AcDbLine
10
46.9739520934
20
87.5827783624
11
47.1607820683
21
87.8378145521
0
LINE
5
3B9
100
AcDbEntity
8
Bulkhead 2
6
ByLayer
62
256
370
-1
100
AcDbLine
10
47.1607820683
20
87.8378145521
11
47.2379442073
21
88.3462665333
0
LINE
5
3BA
100
AcDbEntity
8
Bulkhead 2
6
ByLayer
62
256
370
-1
100
AcDbLine
10
47.2379442073
20
88.3462665333
11
46.6781442073
21
88.3461665333
0
LINE
5
3BB
100
AcDbEntity
8
Bulkhead 2
6
ByLayer
62
256
370
-1
100
AcDbLine
10
46.6781442073
20
88.3461665333
11
46.5444442073
21
88.3462665333
0
LINE
5
3BC
100
AcDbEntity
8
Bulkhead 2
6
ByLayer
62
256
370
-1
100
AcDbLine
10
46.533590817
20
87.2149066421
11
46.614390817
21
86.7064066421
0
LINE
5
3BD
100
AcDbEntity
8
Bulkhead 2
6
ByLayer
62
256
370
-1
100
AcDbLine
10
46.614390817
20
86.7064066421
11
46.800090817
21
86.4502066421
0
LINE
5
3BE
100
AcDbEntity
8
Bulkhead 2
6
ByLayer
62
256
370
-1
100
AcDbLine
10
46.800090817
20
86.4502066421
11
46.880339817
21
86.4120366421
0
LINE
5
3BF
100
AcDbEntity
8
Bulkhead 2
6
ByLayer
62
256
370
-1
100
AcDbLine
10
46.880339817
20
86.4120366421
11
46.9630987031
21
86.4514184712
0
LINE
5
3C0
100
AcDbEntity
8
Bulkhead 2
6
ByLayer
62
256
370
-1
100
AcDbLine
10
46.9630987031
20
86.4514184712
11
47.149928678
21
86.7064546609
0
LINE
5
3C1
100
AcDbEntity
8
Bulkhead 2
6
ByLayer
62
256
370
-1
100
AcDbLine
10
47.149928678
20
86.7064546609
11
47.227090817
21
87.2149066421
0
LINE
5
3C2
100
AcDbEntity
8
Bulkhead 2
6
ByLayer
62
256
370
-1
100
AcDbLine
10
47.227090817
20
87.2149066421
11
46.667290817
21
87.2148066421
0
LINE
5
3C3
100
AcDbEntity
8
Bulkhead 2
6
ByLayer
62
256
370
-1
100
AcDbLine
10
46.667290817
20
87.2148066421
11
46.533590817
21
87.2149066421
0
LINE
5
3C4
100
AcDbEntity
8
Plate
6
ByLayer
62
256
370
-1
100
AcDbLine
10
55.25
20
91
11
54
21
91
0
LINE
5
3C5
100
AcDbEntity
8
Plate
6
ByLayer
62
256
370
-1
100
AcDbLine
10
56.5
20
91
11
55.25
21
91
0
LINE
5
3C6
100
AcDbEntity
8
Plate
6
ByLayer
62
256
370
-1
100
AcDbLine
10
56.5
20
91
11
56.5
21
88.5
0
LINE
5
3C7
100
AcDbEntity
8
Plate
6
ByLayer
62
256
370
-1
100
AcDbLine
10
57.75
20
91
11
56.5
21
91
0
LINE
5
3C8
100
AcDbEntity
8
Plate
6
ByLayer
62
256
370
-1
100
AcDbLine
10
59
20
91
11
57.75
21
91
0
LINE
5
3C9
100
AcDbEntity
8
Plate
6
ByLayer
62
256
370
-1
100
AcDbLine
10
59
20
91
11
59
21
88.5
0
LINE
5
3CA
100
AcDbEntity
8
Plate
6
ByLayer
62
256
370
-1
100
AcDbLine
10
60.25
20
91
11
59
21
91
0
LINE
5
3CB
100
AcDbEntity
8
Plate
6
ByLayer
62
256
370
-1
100
AcDbLine
10
61.5
20
91
11
60.25
21
91
0
LINE
5
3CC
100
AcDbEntity
8
Plate
6
ByLayer
62
256
370
-1
100
AcDbLine
10
61.5
20
91
11
61.5
21
88.5
0
LINE
5
3CD
100
AcDbEntity
8
Plate
6
ByLayer
62
256
370
-1
100
AcDbLine
10
61.5
20
89.75
11
54
21
89.75
0
LINE
5
3CE
100
AcDbEntity
8
Plate
6
ByLayer
62
256
370
-1
100
AcDbLine
10
54
20
88.5
11
61.5
21
88.5
0
LINE
5
3CF
100
AcDbEntity
8
Aka side outer
6
ByLayer
62
256
370
-1
100
AcDbLine
10
54.0401563081
20
90.9504013178
11
57.1911563081
21
90.9504013178
0
LINE
5
3D0
100
AcDbEntity
8
Aka side outer
6
ByLayer
62
256
370
-1
100
AcDbLine
10
54.0936655113
20
90.6149911212
11
57.1656471049
21
90.6149911212
0
LINE
5
3D1
100
AcDbEntity
8
Aka side outer
6
ByLayer
62
256
370
-1
100
AcDbLine
10
54.0401563081
20
90.9504013178
11
54.0936655113
21
90.6149911212
0
LINE
5
3D2
100
AcDbEntity
8
Aka side outer
6
ByLayer
62
256
370
-1
100
AcDbLine
10
57.1911563081
20
90.9504013178
11
57.1656471049
21
90.6149911212
0
LINE
5
3D3
100
AcDbEntity
8
Aka side inner
6
ByLayer
62
256
370
-1
100
AcDbLine
10
54.5915864745
20
90.5768518502
11
57.6635680681
21
90.5768518502
0
LINE
5
3D4
100
AcDbEntity
8
Aka side inner
6
ByLayer
62
256
370
-1
100
AcDbLine
10
54.6140772713
20
90.2414416535
11
57.6410772713
21
90.2414416535
0
LINE
5
3D5
100
AcDbEntity
8
Aka side inner
6
ByLayer
62
256
370
-1
100
AcDbLine
10
54.5915864745
20
90.5768518502
11
54.6140772713
21
90.2414416535
0
LINE
5
3D6
100
AcDbEntity
8
Aka side inner
6
ByLayer
62
256
370
-1
100
AcDbLine
10
57.6635680681
20
90.5768518502
11
57.6410772713
21
90.2414416535
0
LINE
5
3D7
100
AcDbEntity
8
Aka top
6
ByLayer
62
256
370
-1
100
AcDbLine
10
58.9521752267
20
90.0965739634
11
58.9041752267
21
89.7965739634
0
LINE
5
3D8
100
AcDbEntity
8
Aka top
6
ByLayer
62
256
370
-1
100
AcDbLine
10
58.9041752267
20
89.7965739634
11
55.8771752267
21
89.7965739634
0
LINE
5
3D9
100
AcDbEntity
8
Aka top
6
ByLayer
62
256
370
-1
100
AcDbLine
10
55.8771752267
20
89.7965739634
11
55.8391752267
21
89.9465739634
0
LINE
5
3DA
100
AcDbEntity
8
Aka top
6
ByLayer
62
256
370
-1
100
AcDbLine
10
55.8771752267
20
89.7965739634
11
55.8371752267
21
89.9465739634
0
LINE
5
3DB
100
AcDbEntity
8
Aka top
6
ByLayer
62
256
370
-1
100
AcDbLine
10
55.8371752267
20
89.9465739634
11
55.8011752267
21
90.0965739634
0
LINE
5
3DC
100
AcDbEntity
8
Aka top
6
ByLayer
62
256
370
-1
100
AcDbLine
10
55.8011752267
20
90.0965739634
11
58.9521752267
21
90.0965739634
0
LINE
5
3DD
100
AcDbEntity
8
Aka bulkhead
6
ByLayer
62
256
370
-1
100
AcDbLine
10
57.6511344946
20
90.9504013178
11
57.7073188889
21
90.5977650119
0
LINE
5
3DE
100
AcDbEntity
8
Aka bulkhead
6
ByLayer
62
256
370
-1
100
AcDbLine
10
57.7073188889
20
90.5977650119
11
57.9744287254
21
90.31866254
0
LINE
5
3DF
100
AcDbEntity
8
Aka bulkhead
6
ByLayer
62
256
370
-1
100
AcDbLine
10
57.9744287254
20
90.31866254
11
58.0958953577
21
90.3009414539
0
LINE
5
3E0
100
AcDbEntity
8
Aka bulkhead
6
ByLayer
62
256
370
-1
100
AcDbLine
10
58.0958953577
20
90.3009414539
11
58.232454762
21
90.3187583178
0
LINE
5
3E1
100
AcDbEntity
8
Aka bulkhead
6
ByLayer
62
256
370
-1
100
AcDbLine
10
58.232454762
20
90.3187583178
11
58.500396339
21
90.5978761833
0
LINE
5
3E2
100
AcDbEntity
8
Aka bulkhead
6
ByLayer
62
256
370
-1
100
AcDbLine
10
58.500396339
20
90.5978761833
11
58.558292762
21
90.9502473178
0
LINE
5
3E3
100
AcDbEntity
8
Aka bulkhead
6
ByLayer
62
256
370
-1
100
AcDbLine
10
58.558292762
20
90.9502473178
11
57.6511344946
21
90.9504013178
0
LINE
5
3E4
100
AcDbEntity
8
Aka side outer
6
ByLayer
62
256
370
-1
100
AcDbLine
10
54.0401563081
20
88.5495986822
11
57.1911563081
21
88.5495986822
0
LINE
5
3E5
100
AcDbEntity
8
Aka side outer
6
ByLayer
62
256
370
-1
100
AcDbLine
10
54.0936655113
20
88.8850088788
11
57.1656471049
21
88.8850088788
0
LINE
5
3E6
100
AcDbEntity
8
Aka side outer
6
ByLayer
62
256
370
-1
100
AcDbLine
10
54.0401563081
20
88.5495986822
11
54.0936655113
21
88.8850088788
0
LINE
5
3E7
100
AcDbEntity
8
Aka side outer
6
ByLayer
62
256
370
-1
100
AcDbLine
10
57.1911563081
20
88.5495986822
11
57.1656471049
21
88.8850088788
0
LINE
5
3E8
100
AcDbEntity
8
Aka side inner
6
ByLayer
62
256
370
-1
100
AcDbLine
10
54.5915864745
20
88.9231481498
11
57.6635680681
21
88.9231481498
0
LINE
5
3E9
100
AcDbEntity
8
Aka side inner
6
ByLayer
62
256
370
-1
100
AcDbLine
10
54.6140772713
20
89.2585583465
11
57.6410772713
21
89.2585583465
0
LINE
5
3EA
100
AcDbEntity
8
Aka side inner
6
ByLayer
62
256
370
-1
100
AcDbLine
10
54.5915864745
20
88.9231481498
11
54.6140772713
21
89.2585583465
0
LINE
5
3EB
100
AcDbEntity
8
Aka side inner
6
ByLayer
62
256
370
-1
100
AcDbLine
10
57.6635680681
20
88.9231481498
11
57.6410772713
21
89.2585583465
0
LINE
5
3EC
100
AcDbEntity
8
Aka top
6
ByLayer
62
256
370
-1
100
AcDbLine
10
58.9521752267
20
89.4034260366
11
58.9041752267
21
89.7034260366
0
LINE
5
3ED
100
AcDbEntity
8
Aka top
6
ByLayer
62
256
370
-1
100
AcDbLine
10
58.9041752267
20
89.7034260366
11
55.8771752267
21
89.7034260366
0
LINE
5
3EE
100
AcDbEntity
8
Aka top
6
ByLayer
62
256
370
-1
100
AcDbLine
10
55.8771752267
20
89.7034260366
11
55.8391752267
21
89.5534260366
0
LINE
5
3EF
100
AcDbEntity
8
Aka top
6
ByLayer
62
256
370
-1
100
AcDbLine
10
55.8771752267
20
89.7034260366
11
55.8371752267
21
89.5534260366
0
LINE
5
3F0
100
AcDbEntity
8
Aka top
6
ByLayer
62
256
370
-1
100
AcDbLine
10
55.8371752267
20
89.5534260366
11
55.8011752267
21
89.4034260366
0
LINE
5
3F1
100
AcDbEntity
8
Aka top
6
ByLayer
62
256
370
-1
100
AcDbLine
10
55.8011752267
20
89.4034260366
11
58.9521752267
21
89.4034260366
0
LINE
5
3F2
100
AcDbEntity
8
Aka bulkhead
6
ByLayer
62
256
370
-1
100
AcDbLine
10
57.6511344946
20
88.5495986822
11
57.7073188889
21
88.9022349881
0
LINE
5
3F3
100
AcDbEntity
8
Aka bulkhead
6
ByLayer
62
256
370
-1
100
AcDbLine
10
57.7073188889
20
88.9022349881
11
57.9744287254
21
89.18133746
0
LINE
5
3F4
100
AcDbEntity
8
Aka bulkhead
6
ByLayer
62
256
370
-1
100
AcDbLine
10
57.9744287254
20
89.18133746
11
58.0958953577
21
89.1990585461
0
LINE
5
3F5
100
AcDbEntity
8
Aka bulkhead
6
ByLayer
62
256
370
-1
100
AcDbLine
10
58.0958953577
20
89.1990585461
11
58.232454762
21
89.1812416822
0
LINE
5
3F6
100
AcDbEntity
8
Aka bulkhead
6
ByLayer
62
256
370
-1
100
AcDbLine
10
58.232454762
20
89.1812416822
11
58.500396339
21
88.9021238167
0
LINE
5
3F7
100
AcDbEntity
8
Aka bulkhead
6
ByLayer
62
256
370
-1
100
AcDbLine
10
58.500396339
20
88.9021238167
11
58.558292762
21
88.5497526822
0
LINE
5
3F8
100
AcDbEntity
8
Aka bulkhead
6
ByLayer
62
256
370
-1
100
AcDbLine
10
58.558292762
20
88.5497526822
11
57.6511344946
21
88.5495986822
0
LINE
5
3F9
100
AcDbEntity
8
Ama daggerboard box transverse
6
ByLayer
62
256
370
-1
100
AcDbLine
10
53.7733352599
20
88.4422834641
11
53.7733352599
21
87.5595333701
0
LINE
5
3FA
100
AcDbEntity
8
Ama daggerboard box transverse
6
ByLayer
62
256
370
-1
100
AcDbLine
10
53.7733352599
20
87.5595333701
11
53.8233342599
21
87.5559527975
0
LINE
5
3FB
100
AcDbEntity
8
Ama daggerboard box transverse
6
ByLayer
62
256
370
-1
100
AcDbLine
10
53.8233342599
20
87.5559527975
11
53.8733342599
21
87.5596148589
0
LINE
5
3FC
100
AcDbEntity
8
Ama daggerboard box transverse
6
ByLayer
62
256
370
-1
100
AcDbLine
10
53.8733342599
20
87.5596148589
11
53.8733342599
21
88.4422834641
0
LINE
5
3FD
100
AcDbEntity
8
Ama daggerboard box transverse
6
ByLayer
62
256
370
-1
100
AcDbLine
10
53.8733342599
20
88.4422834641
11
53.7733352599
21
88.4422834641
0
LINE
5
3FE
100
AcDbEntity
8
Ama daggerboard box transverse
6
ByLayer
62
256
370
-1
100
AcDbLine
10
53.8622756093
20
89.4206273078
11
53.8622756093
21
88.5378772138
0
LINE
5
3FF
100
AcDbEntity
8
Ama daggerboard box transverse
6
ByLayer
62
256
370
-1
100
AcDbLine
10
53.8622756093
20
88.5378772138
11
53.9122746093
21
88.5342966411
0
LINE
5
400
100
AcDbEntity
8
Ama daggerboard box transverse
6
ByLayer
62
256
370
-1
100
AcDbLine
10
53.9122746093
20
88.5342966411
11
53.9622746093
21
88.5379587025
0
LINE
5
401
100
AcDbEntity
8
Ama daggerboard box transverse
6
ByLayer
62
256
370
-1
100
AcDbLine
10
53.9622746093
20
88.5379587025
11
53.9622746093
21
89.4206273078
0
LINE
5
402
100
AcDbEntity
8
Ama daggerboard box transverse
6
ByLayer
62
256
370
-1
100
AcDbLine
10
53.9622746093
20
89.4206273078
11
53.8622756093
21
89.4206273078
0
LINE
5
403
100
AcDbEntity
8
Ama center bulkhead
6
ByLayer
62
256
370
-1
100
AcDbLine
10
50.8560507989
20
88.460038534
11
50.9040377989
21
87.876558534
0
LINE
5
404
100
AcDbEntity
8
Ama center bulkhead
6
ByLayer
62
256
370
-1
100
AcDbLine
10
50.9040377989
20
87.876558534
11
51.0740177989
21
87.577118534
0
LINE
5
405
100
AcDbEntity
8
Ama center bulkhead
6
ByLayer
62
256
370
-1
100
AcDbLine
10
51.0740177989
20
87.577118534
11
51.1557997989
21
87.570071534
0
LINE
5
406
100
AcDbEntity
8
Ama center bulkhead
6
ByLayer
62
256
370
-1
100
AcDbLine
10
51.1557997989
20
87.570071534
11
51.2375657989
21
87.577104534
0
LINE
5
407
100
AcDbEntity
8
Ama center bulkhead
6
ByLayer
62
256
370
-1
100
AcDbLine
10
51.2375657989
20
87.577104534
11
51.4075627989
21
87.876558534
0
LINE
5
408
100
AcDbEntity
8
Ama center bulkhead
6
ByLayer
62
256
370
-1
100
AcDbLine
10
51.4075627989
20
87.876558534
11
51.4555087989
21
88.460071534
0
LINE
5
409
100
AcDbEntity
8
Ama center bulkhead
6
ByLayer
62
256
370
-1
100
AcDbLine
10
51.4555087989
20
88.460071534
11
50.8560917989
21
88.460071534
0
LINE
5
40A
100
AcDbEntity
8
Ama daggerboard box longitudinal
6
ByLayer
62
256
370
-1
100
AcDbLine
10
46.5158027471
20
90.6657921996
11
46.5158027471
21
89.7794971763
0
LINE
5
40B
100
AcDbEntity
8
Ama daggerboard box longitudinal
6
ByLayer
62
256
370
-1
100
AcDbLine
10
46.5158027471
20
89.7794971763
11
46.7158027471
21
89.7757022914
0
LINE
5
40C
100
AcDbEntity
8
Ama daggerboard box longitudinal
6
ByLayer
62
256
370
-1
100
AcDbLine
10
46.7158027471
20
89.7757022914
11
46.9158027471
21
89.7797827322
0
LINE
5
40D
100
AcDbEntity
8
Ama daggerboard box longitudinal
6
ByLayer
62
256
370
-1
100
AcDbLine
10
46.9158027471
20
89.7797827322
11
46.9158027471
21
90.6657921996
0
LINE
5
40E
100
AcDbEntity
8
Ama daggerboard box longitudinal
6
ByLayer
62
256
370
-1
100
AcDbLine
10
46.9158027471
20
90.6657921996
11
46.5158027471
21
90.6657921996
0
LINE
5
40F
100
AcDbEntity
8
Ama daggerboard box longitudinal
6
ByLayer
62
256
370
-1
100
AcDbLine
10
46.533590817
20
89.7230244958
11
46.533590817
21
88.8367294725
0
LINE
5
410
100
AcDbEntity
8
Ama daggerboard box longitudinal
6
ByLayer
62
256
370
-1
100
AcDbLine
10
46.533590817
20
88.8367294725
11
46.733590817
21
88.8329345875
0
LINE
5
411
100
AcDbEntity
8
Ama daggerboard box longitudinal
6
ByLayer
62
256
370
-1
100
AcDbLine
10
46.733590817
20
88.8329345875
11
46.933590817
21
88.8370150283
0
LINE
5
412
100
AcDbEntity
8
Ama daggerboard box longitudinal
6
ByLayer
62
256
370
-1
100
AcDbLine
10
46.933590817
20
88.8370150283
11
46.933590817
21
89.7230244958
0
LINE
5
413
100
AcDbEntity
8
Ama daggerboard box longitudinal
6
ByLayer
62
256
370
-1
100
AcDbLine
10
46.933590817
20
89.7230244958
11
46.533590817
21
89.7230244958
0
LINE
5
414
100
AcDbEntity
8
Floor layout
6
ByLayer
62
256
370
-1
100
AcDbLine
10
53.3355278888
20
86.4825447395
11
53.3355278888
21
86.1830797927
0
LINE
5
415
100
AcDbEntity
8
Floor layout
6
ByLayer
62
256
370
-1
100
AcDbLine
10
53.3355278888
20
86.1830797927
11
53.4366278888
21
86.1596122661
0
LINE
5
416
100
AcDbEntity
8
Floor layout
6
ByLayer
62
256
370
-1
100
AcDbLine
10
53.4366278888
20
86.1596122661
11
53.6174278888
21
86.1195122661
0
LINE
5
417
100
AcDbEntity
8
Floor layout
6
ByLayer
62
256
370
-1
100
AcDbLine
10
53.6174278888
20
86.1195122661
11
53.7856278888
21
86.0845122661
0
LINE
5
418
100
AcDbEntity
8
Floor layout
6
ByLayer
62
256
370
-1
100
AcDbLine
10
53.7856278888
20
86.0845122661
11
53.9369278888
21
86.0548122661
0
LINE
5
419
100
AcDbEntity
8
Floor layout
6
ByLayer
62
256
370
-1
100
AcDbLine
10
53.9369278888
20
86.0548122661
11
53.9369278888
21
86.2105122661
0
LINE
5
41A
100
AcDbEntity
8
Floor layout
6
ByLayer
62
256
370
-1
100
AcDbLine
10
53.9369278888
20
86.2105122661
11
53.9369278888
21
86.4273122661
0
LINE
5
41B
100
AcDbEntity
8
Floor layout
6
ByLayer
62
256
370
-1
100
AcDbLine
10
53.9369278888
20
86.4273122661
11
53.9334278888
21
86.6101122661
0
LINE
5
41C
100
AcDbEntity
8
Floor layout
6
ByLayer
62
256
370
-1
100
AcDbLine
10
53.9334278888
20
86.6101122661
11
53.7135278888
21
86.5664122661
0
LINE
5
41D
100
AcDbEntity
8
Floor layout
6
ByLayer
62
256
370
-1
100
AcDbLine
10
53.7135278888
20
86.5664122661
11
53.5729278888
21
86.5365122661
0
LINE
5
41E
100
AcDbEntity
8
Floor layout
6
ByLayer
62
256
370
-1
100
AcDbLine
10
53.5729278888
20
86.5365122661
11
53.3355278888
21
86.4825447395
0
LINE
5
41F
100
AcDbEntity
8
Floor layout
6
ByLayer
62
256
370
-1
100
AcDbLine
10
51.3686514494
20
86.4620993055
11
51.3686514494
21
86.1834894895
0
LINE
5
420
100
AcDbEntity
8
Floor layout
6
ByLayer
62
256
370
-1
100
AcDbLine
10
51.3686514494
20
86.1834894895
11
51.2237514494
21
86.1496943975
0
LINE
5
421
100
AcDbEntity
8
Floor layout
6
ByLayer
62
256
370
-1
100
AcDbLine
10
51.2237514494
20
86.1496943975
11
51.0874514494
21
86.1191943975
0
LINE
5
422
100
AcDbEntity
8
Floor layout
6
ByLayer
62
256
370
-1
100
AcDbLine
10
51.0874514494
20
86.1191943975
11
50.9469514494
21
86.0892943975
0
LINE
5
423
100
AcDbEntity
8
Floor layout
6
ByLayer
62
256
370
-1
100
AcDbLine
10
50.9469514494
20
86.0892943975
11
50.7671514494
21
86.0532645988
0
LINE
5
424
100
AcDbEntity
8
Floor layout
6
ByLayer
62
256
370
-1
100
AcDbLine
10
50.7671514494
20
86.0532645988
11
50.7671514494
21
86.5923241962
0
LINE
5
425
100
AcDbEntity
8
Floor layout
6
ByLayer
62
256
370
-1
100
AcDbLine
10
50.7671514494
20
86.5923241962
11
50.9469514494
21
86.5562943975
0
LINE
5
426
100
AcDbEntity
8
Floor layout
6
ByLayer
62
256
370
-1
100
AcDbLine
10
50.9469514494
20
86.5562943975
11
51.0177514494
21
86.5414943975
0
LINE
5
427
100
AcDbEntity
8
Floor layout
6
ByLayer
62
256
370
-1
100
AcDbLine
10
51.0177514494
20
86.5414943975
11
51.1561514494
21
86.5111943975
0
LINE
5
428
100
AcDbEntity
8
Floor layout
6
ByLayer
62
256
370
-1
100
AcDbLine
10
51.1561514494
20
86.5111943975
11
51.2905514494
21
86.4804943975
0
LINE
5
429
100
AcDbEntity
8
Floor layout
6
ByLayer
62
256
370
-1
100
AcDbLine
10
51.2905514494
20
86.4804943975
11
51.3686514494
21
86.4620993055
0
LINE
5
42A
100
AcDbEntity
8
Daggerboard box longitudinal
6
ByLayer
62
256
370
-1
100
AcDbLine
10
52.4964101243
20
86.4160858992
11
53.284674389
21
86.4104037721
0
LINE
5
42B
100
AcDbEntity
8
Daggerboard box longitudinal
6
ByLayer
62
256
370
-1
100
AcDbLine
10
53.284674389
20
86.4104037721
11
53.3178295868
21
86.0101543841
0
LINE
5
42C
100
AcDbEntity
8
Daggerboard box longitudinal
6
ByLayer
62
256
370
-1
100
AcDbLine
10
53.3178295868
20
86.0101543841
11
52.4935268377
21
86.016096291
0
LINE
5
42D
100
AcDbEntity
8
Daggerboard box longitudinal
6
ByLayer
62
256
370
-1
100
AcDbLine
10
52.4935268377
20
86.016096291
11
52.4964101243
21
86.4160858992
0
LINE
5
42E
100
AcDbEntity
8
Daggerboard box longitudinal
6
ByLayer
62
256
370
-1
100
AcDbLine
10
51.6352370087
20
86.4160858992
11
52.4235213475
21
86.4168851939
0
LINE
5
42F
100
AcDbEntity
8
Daggerboard box longitudinal
6
ByLayer
62
256
370
-1
100
AcDbLine
10
52.4235213475
20
86.4168851939
11
52.4599663364
21
86.0169219424
0
LINE
5
430
100
AcDbEntity
8
Daggerboard box longitudinal
6
ByLayer
62
256
370
-1
100
AcDbLine
10
52.4599663364
20
86.0169219424
11
51.6356425955
21
86.0160861048
0
LINE
5
431
100
AcDbEntity
8
Daggerboard box longitudinal
6
ByLayer
62
256
370
-1
100
AcDbLine
10
51.6356425955
20
86.0160861048
11
51.6352370087
21
86.4160858992
0
LINE
5
432
100
AcDbEntity
8
Bulkhead 1
6
ByLayer
62
256
370
-1
100
AcDbLine
10
54.0669543583
20
89.6683506693
11
54.5323290761
21
89.5815984818
0
LINE
5
433
100
AcDbEntity
8
Bulkhead 1
6
ByLayer
62
256
370
-1
100
AcDbLine
10
54.5323290761
20
89.5815984818
11
54.7716767713
21
89.4742675413
0
LINE
5
434
100
AcDbEntity
8
Bulkhead 1
6
ByLayer
62
256
370
-1
100
AcDbLine
10
54.7716767713
20
89.4742675413
11
54.8124488488
21
89.4380641202
0
LINE
5
435
100
AcDbEntity
8
Bulkhead 1
6
ByLayer
62
256
370
-1
100
AcDbLine
10
54.8124488488
20
89.4380641202
11
54.7706283855
21
89.4029752494
0
LINE
5
436
100
AcDbEntity
8
Bulkhead 1
6
ByLayer
62
256
370
-1
100
AcDbLine
10
54.7706283855
20
89.4029752494
11
54.528228167
21
89.302728633
0
LINE
5
437
100
AcDbEntity
8
Bulkhead 1
6
ByLayer
62
256
370
-1
100
AcDbLine
10
54.528228167
20
89.302728633
11
54.0605817015
21
89.2349975232
0
LINE
5
438
100
AcDbEntity
8
Bulkhead 1
6
ByLayer
62
256
370
-1
100
AcDbLine
10
54.0605817015
20
89.2349975232
11
54.0669543583
21
89.6683506693
0
LINE
5
439
100
AcDbEntity
8
Mast support longitudinal
6
ByLayer
62
256
370
-1
100
AcDbLine
10
58.6456466638
20
90.9504259769
11
58.6474040628
21
90.3578297389
0
LINE
5
43A
100
AcDbEntity
8
Mast support longitudinal
6
ByLayer
62
256
370
-1
100
AcDbLine
10
58.9472466638
20
90.9504259738
11
58.9490040628
21
90.3578297358
0
LINE
5
43B
100
AcDbEntity
8
Mast support longitudinal
6
ByLayer
62
256
370
-1
100
AcDbLine
10
58.6476466638
20
90.9504259769
11
58.9472466638
21
90.9504259769
0
LINE
5
43C
100
AcDbEntity
8
Mast support longitudinal
6
ByLayer
62
256
370
-1
100
AcDbLine
10
58.9472466638
20
90.9504259769
11
58.9490040628
21
90.3578297358
0
LINE
5
43D
100
AcDbEntity
8
Mast support longitudinal
6
ByLayer
62
256
370
-1
100
AcDbLine
10
58.9490040628
20
90.3578297358
11
58.6474040628
21
90.3578297389
0
LINE
5
43E
100
AcDbEntity
8
Ama aka bulkhead
6
ByLayer
62
256
370
-1
100
AcDbLine
10
53.7618906489
20
90.9711105683
11
53.7818196292
21
90.6972372387
0
LINE
5
43F
100
AcDbEntity
8
Ama aka bulkhead
6
ByLayer
62
256
370
-1
100
AcDbLine
10
53.7818196292
20
90.6972372387
11
53.8414122412
21
90.4541675683
0
LINE
5
440
100
AcDbEntity
8
Ama aka bulkhead
6
ByLayer
62
256
370
-1
100
AcDbLine
10
53.8414122412
20
90.4541675683
11
53.8630122412
21
90.4113675683
0
LINE
5
441
100
AcDbEntity
8
Ama aka bulkhead
6
ByLayer
62
256
370
-1
100
AcDbLine
10
53.8630122412
20
90.4113675683
11
53.8855122412
21
90.4555675683
0
LINE
5
442
100
AcDbEntity
8
Ama aka bulkhead
6
ByLayer
62
256
370
-1
100
AcDbLine
10
53.8855122412
20
90.4555675683
11
53.9443097738
21
90.6972335175
0
LINE
5
443
100
AcDbEntity
8
Ama aka bulkhead
6
ByLayer
62
256
370
-1
100
AcDbLine
10
53.9443097738
20
90.6972335175
11
53.9642102196
21
90.9711105683
0
LINE
5
444
100
AcDbEntity
8
Ama aka bulkhead
6
ByLayer
62
256
370
-1
100
AcDbLine
10
53.9642102196
20
90.9711105683
11
53.7618906489
21
90.9711105683
0
LINE
5
445
100
AcDbEntity
8
Daggerboard box outer transverse
6
ByLayer
62
256
370
-1
100
AcDbLine
10
48.1037351304
20
88.3533360637
11
48.9292387186
21
88.3533360637
0
LINE
5
446
100
AcDbEntity
8
Daggerboard box outer transverse
6
ByLayer
62
256
370
-1
100
AcDbLine
10
48.9292387186
20
88.3533360637
11
48.941056735
21
88.4033350637
0
LINE
5
447
100
AcDbEntity
8
Daggerboard box outer transverse
6
ByLayer
62
256
370
-1
100
AcDbLine
10
48.941056735
20
88.4033350637
11
48.9292389539
21
88.4533350637
0
LINE
5
448
100
AcDbEntity
8
Daggerboard box outer transverse
6
ByLayer
62
256
370
-1
100
AcDbLine
10
48.9292389539
20
88.4533350637
11
48.1037351304
21
88.4533350637
0
LINE
5
449
100
AcDbEntity
8
Daggerboard box outer transverse
6
ByLayer
62
256
370
-1
100
AcDbLine
10
48.1037351304
20
88.4533350637
11
48.1037681304
21
88.3524860637
0
LINE
5
44A
100
AcDbEntity
8
Daggerboard box outer transverse
6
ByLayer
62
256
370
-1
100
AcDbLine
10
49.1037351304
20
88.3533360637
11
49.9292387186
21
88.3533360637
0
LINE
5
44B
100
AcDbEntity
8
Daggerboard box outer transverse
6
ByLayer
62
256
370
-1
100
AcDbLine
10
49.9292387186
20
88.3533360637
11
49.941056735
21
88.4033350637
0
LINE
5
44C
100
AcDbEntity
8
Daggerboard box outer transverse
6
ByLayer
62
256
370
-1
100
AcDbLine
10
49.941056735
20
88.4033350637
11
49.9292389539
21
88.4533350637
0
LINE
5
44D
100
AcDbEntity
8
Daggerboard box outer transverse
6
ByLayer
62
256
370
-1
100
AcDbLine
10
49.9292389539
20
88.4533350637
11
49.1037351304
21
88.4533350637
0
LINE
5
44E
100
AcDbEntity
8
Daggerboard box outer transverse
6
ByLayer
62
256
370
-1
100
AcDbLine
10
49.1037351304
20
88.4533350637
11
49.1037681304
21
88.3524860637
0
LINE
5
44F
100
AcDbEntity
8
Daggerboard box inner transverse
6
ByLayer
62
256
370
-1
100
AcDbLine
10
48.1199552053
20
86.0785148127
11
48.9091914948
21
86.0785148127
0
LINE
5
450
100
AcDbEntity
8
Daggerboard box inner transverse
6
ByLayer
62
256
370
-1
100
AcDbLine
10
48.9091914948
20
86.0785148127
11
48.9286032053
21
86.1285138127
0
LINE
5
451
100
AcDbEntity
8
Daggerboard box inner transverse
6
ByLayer
62
256
370
-1
100
AcDbLine
10
48.9286032053
20
86.1285138127
11
48.9091919027
21
86.1785138127
0
LINE
5
452
100
AcDbEntity
8
Daggerboard box inner transverse
6
ByLayer
62
256
370
-1
100
AcDbLine
10
48.9091919027
20
86.1785138127
11
48.1199552053
21
86.1785138127
0
LINE
5
453
100
AcDbEntity
8
Daggerboard box inner transverse
6
ByLayer
62
256
370
-1
100
AcDbLine
10
48.1199552053
20
86.1785138127
11
48.1199882053
21
86.0776648127
0
LINE
5
454
100
AcDbEntity
8
Daggerboard box inner transverse
6
ByLayer
62
256
370
-1
100
AcDbLine
10
49.1199552053
20
86.0785148127
11
49.9091914948
21
86.0785148127
0
LINE
5
455
100
AcDbEntity
8
Daggerboard box inner transverse
6
ByLayer
62
256
370
-1
100
AcDbLine
10
49.9091914948
20
86.0785148127
11
49.9286032053
21
86.1285138127
0
LINE
5
456
100
AcDbEntity
8
Daggerboard box inner transverse
6
ByLayer
62
256
370
-1
100
AcDbLine
10
49.9286032053
20
86.1285138127
11
49.9091919027
21
86.1785138127
0
LINE
5
457
100
AcDbEntity
8
Daggerboard box inner transverse
6
ByLayer
62
256
370
-1
100
AcDbLine
10
49.9091919027
20
86.1785138127
11
49.1199552053
21
86.1785138127
0
LINE
5
458
100
AcDbEntity
8
Daggerboard box inner transverse
6
ByLayer
62
256
370
-1
100
AcDbLine
10
49.1199552053
20
86.1785138127
11
49.1199882053
21
86.0776648127
0
LINE
5
459
100
AcDbEntity
8
Mast support transverse
6
ByLayer
62
256
370
-1
100
AcDbLine
10
50.8614557307
20
87.5648845301
11
50.7667227307
21
88.1484175301
0
LINE
5
45A
100
AcDbEntity
8
Mast support transverse
6
ByLayer
62
256
370
-1
100
AcDbLine
10
50.7667227307
20
88.1484175301
11
50.6634627307
21
87.5648845301
0
LINE
5
45B
100
AcDbEntity
8
Mast support transverse
6
ByLayer
62
256
370
-1
100
AcDbLine
10
50.6634627307
20
87.5648845301
11
50.8614557307
21
87.5648845301
0
LINE
5
45C
100
AcDbEntity
8
Ama aka bulkhead
6
ByLayer
62
256
370
-1
100
AcDbLine
10
47.3623242748
20
87.3845220542
11
47.3423952945
21
87.6583953838
0
LINE
5
45D
100
AcDbEntity
8
Ama aka bulkhead
6
ByLayer
62
256
370
-1
100
AcDbLine
10
47.3423952945
20
87.6583953838
11
47.2828026825
21
87.9014650542
0
LINE
5
45E
100
AcDbEntity
8
Ama aka bulkhead
6
ByLayer
62
256
370
-1
100
AcDbLine
10
47.2828026825
20
87.9014650542
11
47.2612026825
21
87.9442650542
0
LINE
5
45F
100
AcDbEntity
8
Ama aka bulkhead
6
ByLayer
62
256
370
-1
100
AcDbLine
10
47.2612026825
20
87.9442650542
11
47.2387026825
21
87.9000650542
0
LINE
5
460
100
AcDbEntity
8
Ama aka bulkhead
6
ByLayer
62
256
370
-1
100
AcDbLine
10
47.2387026825
20
87.9000650542
11
47.1799051499
21
87.658399105
0
LINE
5
461
100
AcDbEntity
8
Ama aka bulkhead
6
ByLayer
62
256
370
-1
100
AcDbLine
10
47.1799051499
20
87.658399105
11
47.1600047041
21
87.3845220542
0
LINE
5
462
100
AcDbEntity
8
Ama aka bulkhead
6
ByLayer
62
256
370
-1
100
AcDbLine
10
47.1600047041
20
87.3845220542
11
47.3623242748
21
87.3845220542
0
LINE
5
463
100
AcDbEntity
8
Mast support transverse
6
ByLayer
62
256
370
-1
100
AcDbLine
10
47.2520014351
20
86.0359973999
11
47.1483958504
21
86.6194691409
0
LINE
5
464
100
AcDbEntity
8
Mast support transverse
6
ByLayer
62
256
370
-1
100
AcDbLine
10
47.1483958504
20
86.6194691409
11
47.0540084698
21
86.0358801367
0
LINE
5
465
100
AcDbEntity
8
Mast support transverse
6
ByLayer
62
256
370
-1
100
AcDbLine
10
47.0540084698
20
86.0358801367
11
47.2520014351
21
86.0359973999
0
LINE
5
466
100
AcDbEntity
8
Floor layout
6
ByLayer
62
256
370
-1
100
AcDbLine
10
61.4836966879
20
90.9875160922
11
61.4232966879
21
90.9859160922
0
LINE
5
467
100
AcDbEntity
8
Floor layout
6
ByLayer
62
256
370
-1
100
AcDbLine
10
61.4232966879
20
90.9859160922
11
61.2608966879
21
90.9786160922
0
LINE
5
468
100
AcDbEntity
8
Floor layout
6
ByLayer
62
256
370
-1
100
AcDbLine
10
61.3157966879
20
89.9899160922
11
61.1812966879
21
89.9970208281
0
LINE
5
469
100
AcDbEntity
8
Floor layout
6
ByLayer
62
256
370
-1
100
AcDbLine
10
61.1812966879
20
89.9970208281
11
61.1812966879
21
90.9737484663
0
LINE
5
46A
100
AcDbEntity
8
Floor layout
6
ByLayer
62
256
370
-1
100
AcDbLine
10
61.2608966879
20
90.9786160922
11
61.1812966879
21
90.9737484663
0
LINE
5
46B
100
AcDbEntity
8
Floor layout
6
ByLayer
62
256
370
-1
100
AcDbLine
10
61.4836966879
20
89.9830439062
11
61.3157966879
21
89.9899160922
0
LINE
5
46C
100
AcDbEntity
8
Floor layout
6
ByLayer
62
256
370
-1
100
AcDbLine
10
61.4836966879
20
89.9830439062
11
61.4836966879
21
90.9875160922
0
LINE
5
46D
100
AcDbEntity
8
Daggerboard box longitudinal
6
ByLayer
62
256
370
-1
100
AcDbLine
10
58.5745431972
20
88.5336337606
11
58.5745431972
21
89.3219185046
0
LINE
5
46E
100
AcDbEntity
8
Daggerboard box longitudinal
6
ByLayer
62
256
370
-1
100
AcDbLine
10
58.5745431972
20
89.3219185046
11
58.9745431972
21
89.3579579252
0
LINE
5
46F
100
AcDbEntity
8
Daggerboard box longitudinal
6
ByLayer
62
256
370
-1
100
AcDbLine
10
58.9745431972
20
89.3579579252
11
58.9745431972
21
88.5336337606
0
LINE
5
470
100
AcDbEntity
8
Daggerboard box longitudinal
6
ByLayer
62
256
370
-1
100
AcDbLine
10
58.9745431972
20
88.5336337606
11
58.5745431972
21
88.5336337606
0
LINE
5
471
100
AcDbEntity
8
Deck layout
6
ByLayer
62
256
370
-1
100
AcDbLine
10
59.607817426
20
90.8808192737
11
59.6153578055
21
90.1873723602
0
LINE
5
472
100
AcDbEntity
8
Deck layout
6
ByLayer
62
256
370
-1
100
AcDbLine
10
59.6153578055
20
90.1873723602
11
59.4898855766
21
90.159876598
0
LINE
5
473
100
AcDbEntity
8
Deck layout
6
ByLayer
62
256
370
-1
100
AcDbLine
10
59.5156392322
20
90.165472079
11
59.4114235268
21
90.1432132621
0
LINE
5
474
100
AcDbEntity
8
Deck layout
6
ByLayer
62
256
370
-1
100
AcDbLine
10
59.4114235268
20
90.1432132621
11
59.2541893023
21
90.1110840136
0
LINE
5
475
100
AcDbEntity
8
Deck layout
6
ByLayer
62
256
370
-1
100
AcDbLine
10
59.2541893023
20
90.1110840136
11
59.1165083181
21
90.0843898228
0
LINE
5
476
100
AcDbEntity
8
Deck layout
6
ByLayer
62
256
370
-1
100
AcDbLine
10
59.1165083181
20
90.0843898228
11
59.0166641076
21
90.0657075797
0
LINE
5
477
100
AcDbEntity
8
Deck layout
6
ByLayer
62
256
370
-1
100
AcDbLine
10
59.0166641076
20
90.0657075797
11
59.0099261042
21
90.9889729239
0
LINE
5
478
100
AcDbEntity
8
Deck layout
6
ByLayer
62
256
370
-1
100
AcDbLine
10
59.0099261042
20
90.9889729239
11
59.1662860351
21
90.9629502032
0
LINE
5
479
100
AcDbEntity
8
Deck layout
6
ByLayer
62
256
370
-1
100
AcDbLine
10
59.1662860351
20
90.9629502032
11
59.3240697822
21
90.9351462617
0
LINE
5
47A
100
AcDbEntity
8
Deck layout
6
ByLayer
62
256
370
-1
100
AcDbLine
10
59.3240697822
20
90.9351462617
11
59.5076453899
21
90.9006070057
0
LINE
5
47B
100
AcDbEntity
8
Deck layout
6
ByLayer
62
256
370
-1
100
AcDbLine
10
59.5076453899
20
90.9006070057
11
59.607817426
21
90.8808192737
0
LINE
5
47C
100
AcDbEntity
8
Deck layout
6
ByLayer
62
256
370
-1
100
AcDbLine
10
59.1110926472
20
90.5786262265
11
59.1121786609
21
90.4787535296
0
LINE
5
47D
100
AcDbEntity
8
Deck layout
6
ByLayer
62
256
370
-1
100
AcDbLine
10
59.1121786609
20
90.4787535296
11
59.5121563168
21
90.483088101
0
LINE
5
47E
100
AcDbEntity
8
Deck layout
6
ByLayer
62
256
370
-1
100
AcDbLine
10
59.5121563168
20
90.483088101
11
59.5110699819
21
90.5829903496
0
LINE
5
47F
100
AcDbEntity
8
Deck layout
6
ByLayer
62
256
370
-1
100
AcDbLine
10
59.5110699819
20
90.5829903496
11
59.1110926472
21
90.5786262265
0
LINE
5
480
100
AcDbEntity
8
Floor layout
6
ByLayer
62
256
370
-1
100
AcDbLine
10
59.5548346832
20
90.1558017934
11
59.5506346832
21
90.1558017934
0
LINE
5
481
100
AcDbEntity
8
Floor layout
6
ByLayer
62
256
370
-1
100
AcDbLine
10
60.2367346832
20
90.1558017934
11
60.2408346832
21
90.1558017934
0
LINE
5
482
100
AcDbEntity
8
Deck layout
6
ByLayer
62
256
370
-1
100
AcDbLine
10
53.0225679599
20
90.283114176
11
53.1535679599
21
90.320514176
0
LINE
5
483
100
AcDbEntity
8
Deck layout
6
ByLayer
62
256
370
-1
100
AcDbLine
10
53.1535679599
20
90.320514176
11
53.2851679599
21
90.357814176
0
LINE
5
484
100
AcDbEntity
8
Deck layout
6
ByLayer
62
256
370
-1
100
AcDbLine
10
53.2851679599
20
90.357814176
11
53.4179679599
21
90.394914176
0
LINE
5
485
100
AcDbEntity
8
Deck layout
6
ByLayer
62
256
370
-1
100
AcDbLine
10
53.4179679599
20
90.394914176
11
53.5524679599
21
90.431814176
0
LINE
5
486
100
AcDbEntity
8
Deck layout
6
ByLayer
62
256
370
-1
100
AcDbLine
10
53.5524679599
20
90.431814176
11
53.6204679599
21
90.450214176
0
LINE
5
487
100
AcDbEntity
8
Deck layout
6
ByLayer
62
256
370
-1
100
AcDbLine
10
53.6204679599
20
90.450214176
11
53.6892679599
21
90.468414176
0
LINE
5
488
100
AcDbEntity
8
Deck layout
6
ByLayer
62
256
370
-1
100
AcDbLine
10
53.6892679599
20
90.468414176
11
53.7586679599
21
90.486514176
0
LINE
5
489
100
AcDbEntity
8
Deck layout
6
ByLayer
62
256
370
-1
100
AcDbLine
10
53.7586679599
20
90.486514176
11
53.7783679599
21
90.4915935207
0
LINE
5
48A
100
AcDbEntity
8
Deck layout
6
ByLayer
62
256
370
-1
100
AcDbLine
10
53.7783679599
20
90.4915935207
11
53.7793712788
21
90.0782336896
0
LINE
5
48B
100
AcDbEntity
8
Deck layout
6
ByLayer
62
256
370
-1
100
AcDbLine
10
53.7793712788
20
90.0782336896
11
53.6901594762
21
90.1010522434
0
LINE
5
48C
100
AcDbEntity
8
Deck layout
6
ByLayer
62
256
370
-1
100
AcDbLine
10
53.6901594762
20
90.1010522434
11
53.5531834464
21
90.1369878419
0
LINE
5
48D
100
AcDbEntity
8
Deck layout
6
ByLayer
62
256
370
-1
100
AcDbLine
10
53.5531834464
20
90.1369878419
11
53.4185059333
21
90.1732346002
0
LINE
5
48E
100
AcDbEntity
8
Deck layout
6
ByLayer
62
256
370
-1
100
AcDbLine
10
53.4185059333
20
90.1732346002
11
53.3518169265
21
90.1914111335
0
LINE
5
48F
100
AcDbEntity
8
Deck layout
6
ByLayer
62
256
370
-1
100
AcDbLine
10
53.3518169265
20
90.1914111335
11
53.1997301327
21
90.2335733846
0
LINE
5
490
100
AcDbEntity
8
Deck layout
6
ByLayer
62
256
370
-1
100
AcDbLine
10
53.1997301327
20
90.2335733846
11
53.0225679599
21
90.283114176
0
LINE
5
491
100
AcDbEntity
8
Deck layout
6
ByLayer
62
256
370
-1
100
AcDbLine
10
53.3786784896
20
90.3631721755
11
53.3790631025
21
90.2047145714
0
LINE
5
492
100
AcDbEntity
8
Deck layout
6
ByLayer
62
256
370
-1
100
AcDbLine
10
53.7393087158
20
90.103960621
11
53.7384306073
21
90.4657347
0
LINE
5
493
100
AcDbEntity
8
Deck layout
6
ByLayer
62
256
370
-1
100
AcDbLine
10
53.7384435979
20
90.4603826619
11
53.3786784896
21
90.3631721755
0
LINE
5
494
100
AcDbEntity
8
Deck layout
6
ByLayer
62
256
370
-1
100
AcDbLine
10
53.3790631025
20
90.2047145714
11
53.739295733
21
90.10930945
0
LINE
5
495
100
AcDbEntity
8
Deck layout
6
ByLayer
62
256
370
-1
100
AcDbLine
10
53.0418311274
20
89.1976226565
11
53.1728311274
21
89.1602226565
0
LINE
5
496
100
AcDbEntity
8
Deck layout
6
ByLayer
62
256
370
-1
100
AcDbLine
10
53.1728311274
20
89.1602226565
11
53.3044311274
21
89.1229226565
0
LINE
5
497
100
AcDbEntity
8
Deck layout
6
ByLayer
62
256
370
-1
100
AcDbLine
10
53.3044311274
20
89.1229226565
11
53.4372311274
21
89.0858226565
0
LINE
5
498
100
AcDbEntity
8
Deck layout
6
ByLayer
62
256
370
-1
100
AcDbLine
10
53.4372311274
20
89.0858226565
11
53.5717311274
21
89.0489226565
0
LINE
5
499
100
AcDbEntity
8
Deck layout
6
ByLayer
62
256
370
-1
100
AcDbLine
10
53.5717311274
20
89.0489226565
11
53.6397311274
21
89.0305226565
0
LINE
5
49A
100
AcDbEntity
8
Deck layout
6
ByLayer
62
256
370
-1
100
AcDbLine
10
53.6397311274
20
89.0305226565
11
53.7085311274
21
89.0123226565
0
LINE
5
49B
100
AcDbEntity
8
Deck layout
6
ByLayer
62
256
370
-1
100
AcDbLine
10
53.7085311274
20
89.0123226565
11
53.7779311274
21
88.9942226565
0
LINE
5
49C
100
AcDbEntity
8
Deck layout
6
ByLayer
62
256
370
-1
100
AcDbLine
10
53.7779311274
20
88.9942226565
11
53.7976311274
21
88.9891433118
0
LINE
5
49D
100
AcDbEntity
8
Deck layout
6
ByLayer
62
256
370
-1
100
AcDbLine
10
53.7976311274
20
88.9891433118
11
53.7986344463
21
89.4025031429
0
LINE
5
49E
100
AcDbEntity
8
Deck layout
6
ByLayer
62
256
370
-1
100
AcDbLine
10
53.7986344463
20
89.4025031429
11
53.7094226437
21
89.3796845891
0
LINE
5
49F
100
AcDbEntity
8
Deck layout
6
ByLayer
62
256
370
-1
100
AcDbLine
10
53.7094226437
20
89.3796845891
11
53.5724466139
21
89.3437489906
0
LINE
5
4A0
100
AcDbEntity
8
Deck layout
6
ByLayer
62
256
370
-1
100
AcDbLine
10
53.5724466139
20
89.3437489906
11
53.4377691008
21
89.3075022323
0
LINE
5
4A1
100
AcDbEntity
8
Deck layout
6
ByLayer
62
256
370
-1
100
AcDbLine
10
53.4377691008
20
89.3075022323
11
53.371080094
21
89.289325699
0
LINE
5
4A2
100
AcDbEntity
8
Deck layout
6
ByLayer
62
256
370
-1
100
AcDbLine
10
53.371080094
20
89.289325699
11
53.2189933002
21
89.2471634479
0
LINE
5
4A3
100
AcDbEntity
8
Deck layout
6
ByLayer
62
256
370
-1
100
AcDbLine
10
53.2189933002
20
89.2471634479
11
53.0418311274
21
89.1976226565
0
LINE
5
4A4
100
AcDbEntity
8
Deck layout
6
ByLayer
62
256
370
-1
100
AcDbLine
10
53.3979416571
20
89.117564657
11
53.39832627
21
89.2760222611
0
LINE
5
4A5
100
AcDbEntity
8
Deck layout
6
ByLayer
62
256
370
-1
100
AcDbLine
10
53.7585718833
20
89.3767762115
11
53.7576937748
21
89.0150021325
0
LINE
5
4A6
100
AcDbEntity
8
Deck layout
6
ByLayer
62
256
370
-1
100
AcDbLine
10
53.7577067654
20
89.0203541706
11
53.3979416571
21
89.117564657
0
LINE
5
4A7
100
AcDbEntity
8
Deck layout
6
ByLayer
62
256
370
-1
100
AcDbLine
10
53.39832627
20
89.2760222611
11
53.7585589005
21
89.3714273825
0
LINE
5
4A8
100
AcDbEntity
8
Bulkhead 1
6
ByLayer
62
256
370
-1
100
AcDbLine
10
54.0222220663
20
90.591013256
11
54.0912662971
21
90.1226838162
0
LINE
5
4A9
100
AcDbEntity
8
Bulkhead 1
6
ByLayer
62
256
370
-1
100
AcDbLine
10
54.0912662971
20
90.1226838162
11
54.1894447296
21
89.879438579
0
LINE
5
4AA
100
AcDbEntity
8
Bulkhead 1
6
ByLayer
62
256
370
-1
100
AcDbLine
10
54.1894447296
20
89.879438579
11
54.2240761654
21
89.837323099
0
LINE
5
4AB
100
AcDbEntity
8
Bulkhead 1
6
ByLayer
62
256
370
-1
100
AcDbLine
10
54.2240761654
20
89.837323099
11
54.2607255064
21
89.8777830273
0
LINE
5
4AC
100
AcDbEntity
8
Bulkhead 1
6
ByLayer
62
256
370
-1
100
AcDbLine
10
54.2607255064
20
89.8777830273
11
54.3700911031
21
90.1162078924
0
LINE
5
4AD
100
AcDbEntity
8
Bulkhead 1
6
ByLayer
62
256
370
-1
100
AcDbLine
10
54.3700911031
20
90.1162078924
11
54.4555052176
21
90.5809499166
0
LINE
5
4AE
100
AcDbEntity
8
Bulkhead 1
6
ByLayer
62
256
370
-1
100
AcDbLine
10
54.4555052176
20
90.5809499166
11
54.0222220663
21
90.591013256
0
LINE
5
4AF
100
AcDbEntity
8
Floor layout
6
ByLayer
62
256
370
-1
100
AcDbLine
10
55.4899463624
20
90.1349225175
11
55.4883463624
21
90.0745225175
0
LINE
5
4B0
100
AcDbEntity
8
Floor layout
6
ByLayer
62
256
370
-1
100
AcDbLine
10
55.4883463624
20
90.0745225175
11
55.4810463624
21
89.9121225175
0
LINE
5
4B1
100
AcDbEntity
8
Floor layout
6
ByLayer
62
256
370
-1
100
AcDbLine
10
54.4923463624
20
89.9670225175
11
54.4994510983
21
89.8325225175
0
LINE
5
4B2
100
AcDbEntity
8
Floor layout
6
ByLayer
62
256
370
-1
100
AcDbLine
10
54.4994510983
20
89.8325225175
11
55.4761787365
21
89.8325225175
0
LINE
5
4B3
100
AcDbEntity
8
Floor layout
6
ByLayer
62
256
370
-1
100
AcDbLine
10
55.4810463624
20
89.9121225175
11
55.4761787365
21
89.8325225175
0
LINE
5
4B4
100
AcDbEntity
8
Floor layout
6
ByLayer
62
256
370
-1
100
AcDbLine
10
54.4854741764
20
90.1349225175
11
54.4923463624
21
89.9670225175
0
LINE
5
4B5
100
AcDbEntity
8
Floor layout
6
ByLayer
62
256
370
-1
100
AcDbLine
10
54.4854741764
20
90.1349225175
11
55.4899463624
21
90.1349225175
0
LINE
5
4B6
100
AcDbEntity
8
Floor layout
6
ByLayer
62
256
370
-1
100
AcDbLine
10
54.8975219975
20
89.302087562
11
54.893322043
21
89.3021071267
0
LINE
5
4B7
100
AcDbEntity
8
Floor layout
6
ByLayer
62
256
370
-1
100
AcDbLine
10
55.579414599
20
89.2989110898
11
55.5835145545
21
89.2988919909
0
LINE
5
4B8
100
AcDbEntity
8
Floor layout
6
ByLayer
62
256
370
-1
100
AcDbLine
10
54.8420305056
20
89.4972481736
11
54.8331585474
21
89.5676902659
0
LINE
5
4B9
100
AcDbEntity
8
Floor layout
6
ByLayer
62
256
370
-1
100
AcDbLine
10
54.8682365025
20
89.3022239831
11
54.8420305056
21
89.4972481736
0
LINE
5
4BA
100
AcDbEntity
8
Floor layout
6
ByLayer
62
256
370
-1
100
AcDbLine
10
55.6631364179
20
89.298521087
11
55.7005491363
21
89.5636496851
0
LINE
5
4BB
100
AcDbEntity
8
Floor layout
6
ByLayer
62
256
370
-1
100
AcDbLine
10
54.8682365025
20
89.3022239831
11
55.6631364179
21
89.298521087
0
LINE
5
4BC
100
AcDbEntity
8
Floor layout
6
ByLayer
62
256
370
-1
100
AcDbLine
10
54.8248781979
20
89.6363295827
11
54.8172700275
21
89.7024657411
0
LINE
5
4BD
100
AcDbEntity
8
Floor layout
6
ByLayer
62
256
370
-1
100
AcDbLine
10
55.7005491363
20
89.5636496851
11
55.7176906059
21
89.6982712962
0
LINE
5
4BE
100
AcDbEntity
8
Floor layout
6
ByLayer
62
256
370
-1
100
AcDbLine
10
54.8172700275
20
89.7024657411
11
55.7176906059
21
89.6982712962
0
LINE
5
4BF
100
AcDbEntity
8
Floor layout
6
ByLayer
62
256
370
-1
100
AcDbLine
10
54.8331585474
20
89.5676902659
11
54.8248781979
21
89.6363295827
0
LINE
5
4C0
100
AcDbEntity
8
Deck layout
6
ByLayer
62
256
370
-1
100
AcDbLine
10
60.5502586282
20
90.1589857577
11
60.549412072
21
90.8524731495
0
LINE
5
4C1
100
AcDbEntity
8
Deck layout
6
ByLayer
62
256
370
-1
100
AcDbLine
10
60.549412072
20
90.8524731495
11
60.6751438576
21
90.8787565144
0
LINE
5
4C2
100
AcDbEntity
8
Deck layout
6
ByLayer
62
256
370
-1
100
AcDbLine
10
60.6493373916
20
90.8734098804
11
60.7537630943
21
90.8946617218
0
LINE
5
4C3
100
AcDbEntity
8
Deck layout
6
ByLayer
62
256
370
-1
100
AcDbLine
10
60.7537630943
20
90.8946617218
11
60.9113001204
21
90.9252717757
0
LINE
5
4C4
100
AcDbEntity
8
Deck layout
6
ByLayer
62
256
370
-1
100
AcDbLine
10
60.9113001204
20
90.9252717757
11
61.0492323553
21
90.9506357621
0
LINE
5
4C5
100
AcDbEntity
8
Deck layout
6
ByLayer
62
256
370
-1
100
AcDbLine
10
61.0492323553
20
90.9506357621
11
61.1492522441
21
90.9683533921
0
LINE
5
4C6
100
AcDbEntity
8
Deck layout
6
ByLayer
62
256
370
-1
100
AcDbLine
10
61.1492522441
20
90.9683533921
11
61.1470781473
21
90.0450660209
0
LINE
5
4C7
100
AcDbEntity
8
Deck layout
6
ByLayer
62
256
370
-1
100
AcDbLine
10
61.1470781473
20
90.0450660209
11
60.990976684
21
90.0725967881
0
LINE
5
4C8
100
AcDbEntity
8
Deck layout
6
ByLayer
62
256
370
-1
100
AcDbLine
10
60.990976684
20
90.0725967881
11
60.833468664
21
90.1019224364
0
LINE
5
4C9
100
AcDbEntity
8
Deck layout
6
ByLayer
62
256
370
-1
100
AcDbLine
10
60.833468664
20
90.1019224364
11
60.6502349973
21
90.1382320404
0
LINE
5
4CA
100
AcDbEntity
8
Deck layout
6
ByLayer
62
256
370
-1
100
AcDbLine
10
60.6502349973
20
90.1382320404
11
60.5502586282
21
90.1589857577
0
LINE
5
4CB
100
AcDbEntity
8
Deck layout
6
ByLayer
62
256
370
-1
100
AcDbLine
10
61.0498771744
20
90.4563701084
11
61.049755229
21
90.5562486353
0
LINE
5
4CC
100
AcDbEntity
8
Deck layout
6
ByLayer
62
256
370
-1
100
AcDbLine
10
61.049755229
20
90.5562486353
11
60.6497543671
21
90.5557750361
0
LINE
5
4CD
100
AcDbEntity
8
Deck layout
6
ByLayer
62
256
370
-1
100
AcDbLine
10
60.6497543671
20
90.5557750361
11
60.6498763485
21
90.4558669558
0
LINE
5
4CE
100
AcDbEntity
8
Deck layout
6
ByLayer
62
256
370
-1
100
AcDbLine
10
60.6498763485
20
90.4558669558
11
61.0498771744
21
90.4563701084
0
LINE
5
4CF
100
AcDbEntity
8
Floor layout
6
ByLayer
62
256
370
-1
100
AcDbLine
10
60.305889218
20
90.0487332458
11
60.3763374098
21
90.0399098528
0
LINE
5
4D0
100
AcDbEntity
8
Floor layout
6
ByLayer
62
256
370
-1
100
AcDbLine
10
60.1108470073
20
90.0748047858
11
60.305889218
21
90.0487332458
0
LINE
5
4D1
100
AcDbEntity
8
Floor layout
6
ByLayer
62
256
370
-1
100
AcDbLine
10
60.106596104
20
90.8697019595
11
60.3716988466
21
90.90729745
0
LINE
5
4D2
100
AcDbEntity
8
Floor layout
6
ByLayer
62
256
370
-1
100
AcDbLine
10
60.1108470073
20
90.0748047858
11
60.106596104
21
90.8697019595
0
LINE
5
4D3
100
AcDbEntity
8
Floor layout
6
ByLayer
62
256
370
-1
100
AcDbLine
10
60.4449824188
20
90.0316768255
11
60.5111238067
21
90.0241142516
0
LINE
5
4D4
100
AcDbEntity
8
Floor layout
6
ByLayer
62
256
370
-1
100
AcDbLine
10
60.3716988466
20
90.90729745
11
60.5063086083
21
90.9245317243
0
LINE
5
4D5
100
AcDbEntity
8
Floor layout
6
ByLayer
62
256
370
-1
100
AcDbLine
10
60.5111238067
20
90.0241142516
11
60.5063086083
21
90.9245317243
0
LINE
5
4D6
100
AcDbEntity
8
Floor layout
6
ByLayer
62
256
370
-1
100
AcDbLine
10
60.3763374098
20
90.0399098528
11
60.4449824188
21
90.0316768255
0
LINE
5
4D7
100
AcDbEntity
8
Daggerboard box longitudinal
6
ByLayer
62
256
370
-1
100
AcDbLine
10
59.6536458503
20
90.875620332
11
59.6536458503
21
90.087335588
0
LINE
5
4D8
100
AcDbEntity
8
Daggerboard box longitudinal
6
ByLayer
62
256
370
-1
100
AcDbLine
10
59.6536458503
20
90.087335588
11
60.0536458503
21
90.0512961674
0
LINE
5
4D9
100
AcDbEntity
8
Daggerboard box longitudinal
6
ByLayer
62
256
370
-1
100
AcDbLine
10
60.0536458503
20
90.0512961674
11
60.0536458503
21
90.875620332
0
LINE
5
4DA
100
AcDbEntity
8
Daggerboard box longitudinal
6
ByLayer
62
256
370
-1
100
AcDbLine
10
60.0536458503
20
90.875620332
11
59.6536458503
21
90.875620332
0
LINE
5
4DB
100
AcDbEntity
8
grid
6
ByLayer
62
256
370
-1
100
AcDbLine
10
46.5
20
91
11
61.5
21
91
0
LINE
5
4DC
100
AcDbEntity
8
grid
6
ByLayer
62
256
370
-1
100
AcDbLine
10
46.5
20
91
11
46.5
21
86
0
LINE
5
4DD
100
AcDbEntity
8
grid
6
ByLayer
62
256
370
-1
100
AcDbLine
10
46.5
20
90.9
11
61.5
21
90.9
0
LINE
5
4DE
100
AcDbEntity
8
grid
6
ByLayer
62
256
370
-1
100
AcDbLine
10
46.5
20
90.8
11
61.5
21
90.8
0
LINE
5
4DF
100
AcDbEntity
8
grid
6
ByLayer
62
256
370
-1
100
AcDbLine
10
46.5
20
90.7
11
61.5
21
90.7
0
LINE
5
4E0
100
AcDbEntity
8
grid
6
ByLayer
62
256
370
-1
100
AcDbLine
10
46.5
20
90.6
11
61.5
21
90.6
0
LINE
5
4E1
100
AcDbEntity
8
grid
6
ByLayer
62
256
370
-1
100
AcDbLine
10
46.5
20
90.5
11
61.5
21
90.5
0
LINE
5
4E2
100
AcDbEntity
8
grid
6
ByLayer
62
256
370
-1
100
AcDbLine
10
46.5
20
90.4
11
61.5
21
90.4
0
LINE
5
4E3
100
AcDbEntity
8
grid
6
ByLayer
62
256
370
-1
100
AcDbLine
10
46.5
20
90.3
11
61.5
21
90.3
0
LINE
5
4E4
100
AcDbEntity
8
grid
6
ByLayer
62
256
370
-1
100
AcDbLine
10
46.5
20
90.2
11
61.5
21
90.2
0
LINE
5
4E5
100
AcDbEntity
8
grid
6
ByLayer
62
256
370
-1
100
AcDbLine
10
46.5
20
90.1
11
61.5
21
90.1
0
LINE
5
4E6
100
AcDbEntity
8
grid
6
ByLayer
62
256
370
-1
100
AcDbLine
10
46.5
20
90
11
61.5
21
90
0
LINE
5
4E7
100
AcDbEntity
8
grid
6
ByLayer
62
256
370
-1
100
AcDbLine
10
46.5
20
89.9
11
61.5
21
89.9
0
LINE
5
4E8
100
AcDbEntity
8
grid
6
ByLayer
62
256
370
-1
100
AcDbLine
10
46.5
20
89.8
11
61.5
21
89.8
0
LINE
5
4E9
100
AcDbEntity
8
grid
6
ByLayer
62
256
370
-1
100
AcDbLine
10
46.5
20
89.7
11
61.5
21
89.7
0
LINE
5
4EA
100
AcDbEntity
8
grid
6
ByLayer
62
256
370
-1
100
AcDbLine
10
46.5
20
89.6
11
61.5
21
89.6
0
LINE
5
4EB
100
AcDbEntity
8
grid
6
ByLayer
62
256
370
-1
100
AcDbLine
10
46.5
20
89.5
11
61.5
21
89.5
0
LINE
5
4EC
100
AcDbEntity
8
grid
6
ByLayer
62
256
370
-1
100
AcDbLine
10
46.5
20
89.4
11
61.5
21
89.4
0
LINE
5
4ED
100
AcDbEntity
8
grid
6
ByLayer
62
256
370
-1
100
AcDbLine
10
46.5
20
89.3
11
61.5
21
89.3
0
LINE
5
4EE
100
AcDbEntity
8
grid
6
ByLayer
62
256
370
-1
100
AcDbLine
10
46.5
20
89.2
11
61.5
21
89.2
0
LINE
5
4EF
100
AcDbEntity
8
grid
6
ByLayer
62
256
370
-1
100
AcDbLine
10
46.5
20
89.1
11
61.5
21
89.1
0
LINE
5
4F0
100
AcDbEntity
8
grid
6
ByLayer
62
256
370
-1
100
AcDbLine
10
46.5
20
89
11
61.5
21
89
0
LINE
5
4F1
100
AcDbEntity
8
grid
6
ByLayer
62
256
370
-1
100
AcDbLine
10
46.5
20
88.9
11
61.5
21
88.9
0
LINE
5
4F2
100
AcDbEntity
8
grid
6
ByLayer
62
256
370
-1
100
AcDbLine
10
46.5
20
88.8
11
61.5
21
88.8
0
LINE
5
4F3
100
AcDbEntity
8
grid
6
ByLayer
62
256
370
-1
100
AcDbLine
10
46.5
20
88.7
11
61.5
21
88.7
0
LINE
5
4F4
100
AcDbEntity
8
grid
6
ByLayer
62
256
370
-1
100
AcDbLine
10
46.5
20
88.6
11
61.5
21
88.6
0
LINE
5
4F5
100
AcDbEntity
8
grid
6
ByLayer
62
256
370
-1
100
AcDbLine
10
46.5
20
88.5
11
61.5
21
88.5
0
LINE
5
4F6
100
AcDbEntity
8
grid
6
ByLayer
62
256
370
-1
100
AcDbLine
10
46.5
20
88.4
11
61.5
21
88.4
0
LINE
5
4F7
100
AcDbEntity
8
grid
6
ByLayer
62
256
370
-1
100
AcDbLine
10
46.5
20
88.3
11
61.5
21
88.3
0
LINE
5
4F8
100
AcDbEntity
8
grid
6
ByLayer
62
256
370
-1
100
AcDbLine
10
46.5
20
88.2
11
61.5
21
88.2
0
LINE
5
4F9
100
AcDbEntity
8
grid
6
ByLayer
62
256
370
-1
100
AcDbLine
10
46.5
20
88.1
11
61.5
21
88.1
0
LINE
5
4FA
100
AcDbEntity
8
grid
6
ByLayer
62
256
370
-1
100
AcDbLine
10
46.5
20
88
11
61.5
21
88
0
LINE
5
4FB
100
AcDbEntity
8
grid
6
ByLayer
62
256
370
-1
100
AcDbLine
10
46.5
20
87.9
11
61.5
21
87.9
0
LINE
5
4FC
100
AcDbEntity
8
grid
6
ByLayer
62
256
370
-1
100
AcDbLine
10
46.5
20
87.8
11
61.5
21
87.8
0
LINE
5
4FD
100
AcDbEntity
8
grid
6
ByLayer
62
256
370
-1
100
AcDbLine
10
46.5
20
87.7
11
61.5
21
87.7
0
LINE
5
4FE
100
AcDbEntity
8
grid
6
ByLayer
62
256
370
-1
100
AcDbLine
10
46.5
20
87.6
11
61.5
21
87.6
0
LINE
5
4FF
100
AcDbEntity
8
grid
6
ByLayer
62
256
370
-1
100
AcDbLine
10
46.5
20
87.5
11
61.5
21
87.5
0
LINE
5
500
100
AcDbEntity
8
grid
6
ByLayer
62
256
370
-1
100
AcDbLine
10
46.5
20
87.4
11
61.5
21
87.4
0
LINE
5
501
100
AcDbEntity
8
grid
6
ByLayer
62
256
370
-1
100
AcDbLine
10
46.5
20
87.3
11
61.5
21
87.3
0
LINE
5
502
100
AcDbEntity
8
grid
6
ByLayer
62
256
370
-1
100
AcDbLine
10
46.5
20
87.2
11
61.5
21
87.2
0
LINE
5
503
100
AcDbEntity
8
grid
6
ByLayer
62
256
370
-1
100
AcDbLine
10
46.5
20
87.1
11
61.5
21
87.1
0
LINE
5
504
100
AcDbEntity
8
grid
6
ByLayer
62
256
370
-1
100
AcDbLine
10
46.5
20
87
11
61.5
21
87
0
LINE
5
505
100
AcDbEntity
8
grid
6
ByLayer
62
256
370
-1
100
AcDbLine
10
46.5
20
86.9
11
61.5
21
86.9
0
LINE
5
506
100
AcDbEntity
8
grid
6
ByLayer
62
256
370
-1
100
AcDbLine
10
46.5
20
86.8
11
61.5
21
86.8
0
LINE
5
507
100
AcDbEntity
8
grid
6
ByLayer
62
256
370
-1
100
AcDbLine
10
46.5
20
86.7
11
61.5
21
86.7
0
LINE
5
508
100
AcDbEntity
8
grid
6
ByLayer
62
256
370
-1
100
AcDbLine
10
46.5
20
86.6
11
61.5
21
86.6
0
LINE
5
509
100
AcDbEntity
8
grid
6
ByLayer
62
256
370
-1
100
AcDbLine
10
46.5
20
86.5
11
61.5
21
86.5
0
LINE
5
50A
100
AcDbEntity
8
grid
6
ByLayer
62
256
370
-1
100
AcDbLine
10
46.5
20
86.4
11
61.5
21
86.4
0
LINE
5
50B
100
AcDbEntity
8
grid
6
ByLayer
62
256
370
-1
100
AcDbLine
10
46.5
20
86.3
11
61.5
21
86.3
0
LINE
5
50C
100
AcDbEntity
8
grid
6
ByLayer
62
256
370
-1
100
AcDbLine
10
46.5
20
86.2
11
61.5
21
86.2
0
LINE
5
50D
100
AcDbEntity
8
grid
6
ByLayer
62
256
370
-1
100
AcDbLine
10
46.5
20
86.1
11
61.5
21
86.1
0
LINE
5
50E
100
AcDbEntity
8
grid
6
ByLayer
62
256
370
-1
100
AcDbLine
10
46.5
20
86
11
61.5
21
86
0
LINE
5
50F
100
AcDbEntity
8
grid
6
ByLayer
62
256
370
-1
100
AcDbLine
10
46.6
20
91
11
46.6
21
86
0
LINE
5
510
100
AcDbEntity
8
grid
6
ByLayer
62
256
370
-1
100
AcDbLine
10
46.7
20
91
11
46.7
21
86
0
LINE
5
511
100
AcDbEntity
8
grid
6
ByLayer
62
256
370
-1
100
AcDbLine
10
46.8
20
91
11
46.8
21
86
0
LINE
5
512
100
AcDbEntity
8
grid
6
ByLayer
62
256
370
-1
100
AcDbLine
10
46.9
20
91
11
46.9
21
86
0
LINE
5
513
100
AcDbEntity
8
grid
6
ByLayer
62
256
370
-1
100
AcDbLine
10
47
20
91
11
47
21
86
0
LINE
5
514
100
AcDbEntity
8
grid
6
ByLayer
62
256
370
-1
100
AcDbLine
10
47.1
20
91
11
47.1
21
86
0
LINE
5
515
100
AcDbEntity
8
grid
6
ByLayer
62
256
370
-1
100
AcDbLine
10
47.2
20
91
11
47.2
21
86
0
LINE
5
516
100
AcDbEntity
8
grid
6
ByLayer
62
256
370
-1
100
AcDbLine
10
47.3
20
91
11
47.3
21
86
0
LINE
5
517
100
AcDbEntity
8
grid
6
ByLayer
62
256
370
-1
100
AcDbLine
10
47.4
20
91
11
47.4
21
86
0
LINE
5
518
100
AcDbEntity
8
grid
6
ByLayer
62
256
370
-1
100
AcDbLine
10
47.5
20
91
11
47.5
21
86
0
LINE
5
519
100
AcDbEntity
8
grid
6
ByLayer
62
256
370
-1
100
AcDbLine
10
47.6
20
91
11
47.6
21
86
0
LINE
5
51A
100
AcDbEntity
8
grid
6
ByLayer
62
256
370
-1
100
AcDbLine
10
47.7
20
91
11
47.7
21
86
0
LINE
5
51B
100
AcDbEntity
8
grid
6
ByLayer
62
256
370
-1
100
AcDbLine
10
47.8
20
91
11
47.8
21
86
0
LINE
5
51C
100
AcDbEntity
8
grid
6
ByLayer
62
256
370
-1
100
AcDbLine
10
47.9
20
91
11
47.9
21
86
0
LINE
5
51D
100
AcDbEntity
8
grid
6
ByLayer
62
256
370
-1
100
AcDbLine
10
48
20
91
11
48
21
86
0
LINE
5
51E
100
AcDbEntity
8
grid
6
ByLayer
62
256
370
-1
100
AcDbLine
10
48.1
20
91
11
48.1
21
86
0
LINE
5
51F
100
AcDbEntity
8
grid
6
ByLayer
62
256
370
-1
100
AcDbLine
10
48.2
20
91
11
48.2
21
86
0
LINE
5
520
100
AcDbEntity
8
grid
6
ByLayer
62
256
370
-1
100
AcDbLine
10
48.3
20
91
11
48.3
21
86
0
LINE
5
521
100
AcDbEntity
8
grid
6
ByLayer
62
256
370
-1
100
AcDbLine
10
48.4
20
91
11
48.4
21
86
0
LINE
5
522
100
AcDbEntity
8
grid
6
ByLayer
62
256
370
-1
100
AcDbLine
10
48.5
20
91
11
48.5
21
86
0
LINE
5
523
100
AcDbEntity
8
grid
6
ByLayer
62
256
370
-1
100
AcDbLine
10
48.6
20
91
11
48.6
21
86
0
LINE
5
524
100
AcDbEntity
8
grid
6
ByLayer
62
256
370
-1
100
AcDbLine
10
48.7
20
91
11
48.7
21
86
0
LINE
5
525
100
AcDbEntity
8
grid
6
ByLayer
62
256
370
-1
100
AcDbLine
10
48.8
20
91
11
48.8
21
86
0
LINE
5
526
100
AcDbEntity
8
grid
6
ByLayer
62
256
370
-1
100
AcDbLine
10
48.9
20
91
11
48.9
21
86
0
LINE
5
527
100
AcDbEntity
8
grid
6
ByLayer
62
256
370
-1
100
AcDbLine
10
49
20
91
11
49
21
86
0
LINE
5
528
100
AcDbEntity
8
grid
6
ByLayer
62
256
370
-1
100
AcDbLine
10
49.1
20
91
11
49.1
21
86
0
LINE
5
529
100
AcDbEntity
8
grid
6
ByLayer
62
256
370
-1
100
AcDbLine
10
49.2
20
91
11
49.2
21
86
0
LINE
5
52A
100
AcDbEntity
8
grid
6
ByLayer
62
256
370
-1
100
AcDbLine
10
49.3
20
91
11
49.3
21
86
0
LINE
5
52B
100
AcDbEntity
8
grid
6
ByLayer
62
256
370
-1
100
AcDbLine
10
49.4
20
91
11
49.4
21
86
0
LINE
5
52C
100
AcDbEntity
8
grid
6
ByLayer
62
256
370
-1
100
AcDbLine
10
49.5
20
91
11
49.5
21
86
0
LINE
5
52D
100
AcDbEntity
8
grid
6
ByLayer
62
256
370
-1
100
AcDbLine
10
49.6
20
91
11
49.6
21
86
0
LINE
5
52E
100
AcDbEntity
8
grid
6
ByLayer
62
256
370
-1
100
AcDbLine
10
49.7
20
91
11
49.7
21
86
0
LINE
5
52F
100
AcDbEntity
8
grid
6
ByLayer
62
256
370
-1
100
AcDbLine
10
49.8
20
91
11
49.8
21
86
0
LINE
5
530
100
AcDbEntity
8
grid
6
ByLayer
62
256
370
-1
100
AcDbLine
10
49.9
20
91
11
49.9
21
86
0
LINE
5
531
100
AcDbEntity
8
grid
6
ByLayer
62
256
370
-1
100
AcDbLine
10
50
20
91
11
50
21
86
0
LINE
5
532
100
AcDbEntity
8
grid
6
ByLayer
62
256
370
-1
100
AcDbLine
10
50.1
20
91
11
50.1
21
86
0
LINE
5
533
100
AcDbEntity
8
grid
6
ByLayer
62
256
370
-1
100
AcDbLine
10
50.2
20
91
11
50.2
21
86
0
LINE
5
534
100
AcDbEntity
8
grid
6
ByLayer
62
256
370
-1
100
AcDbLine
10
50.3
20
91
11
50.3
21
86
0
LINE
5
535
100
AcDbEntity
8
grid
6
ByLayer
62
256
370
-1
100
AcDbLine
10
50.4
20
91
11
50.4
21
86
0
LINE
5
536
100
AcDbEntity
8
grid
6
ByLayer
62
256
370
-1
100
AcDbLine
10
50.5
20
91
11
50.5
21
86
0
LINE
5
537
100
AcDbEntity
8
grid
6
ByLayer
62
256
370
-1
100
AcDbLine
10
50.6
20
91
11
50.6
21
86
0
LINE
5
538
100
AcDbEntity
8
grid
6
ByLayer
62
256
370
-1
100
AcDbLine
10
50.7
20
91
11
50.7
21
86
0
LINE
5
539
100
AcDbEntity
8
grid
6
ByLayer
62
256
370
-1
100
AcDbLine
10
50.8
20
91
11
50.8
21
86
0
LINE
5
53A
100
AcDbEntity
8
grid
6
ByLayer
62
256
370
-1
100
AcDbLine
10
50.9
20
91
11
50.9
21
86
0
LINE
5
53B
100
AcDbEntity
8
grid
6
ByLayer
62
256
370
-1
100
AcDbLine
10
51
20
91
11
51
21
86
0
LINE
5
53C
100
AcDbEntity
8
grid
6
ByLayer
62
256
370
-1
100
AcDbLine
10
51.1
20
91
11
51.1
21
86
0
LINE
5
53D
100
AcDbEntity
8
grid
6
ByLayer
62
256
370
-1
100
AcDbLine
10
51.2
20
91
11
51.2
21
86
0
LINE
5
53E
100
AcDbEntity
8
grid
6
ByLayer
62
256
370
-1
100
AcDbLine
10
51.3
20
91
11
51.3
21
86
0
LINE
5
53F
100
AcDbEntity
8
grid
6
ByLayer
62
256
370
-1
100
AcDbLine
10
51.4
20
91
11
51.4
21
86
0
LINE
5
540
100
AcDbEntity
8
grid
6
ByLayer
62
256
370
-1
100
AcDbLine
10
51.5
20
91
11
51.5
21
86
0
LINE
5
541
100
AcDbEntity
8
grid
6
ByLayer
62
256
370
-1
100
AcDbLine
10
51.6
20
91
11
51.6
21
86
0
LINE
5
542
100
AcDbEntity
8
grid
6
ByLayer
62
256
370
-1
100
AcDbLine
10
51.7
20
91
11
51.7
21
86
0
LINE
5
543
100
AcDbEntity
8
grid
6
ByLayer
62
256
370
-1
100
AcDbLine
10
51.8
20
91
11
51.8
21
86
0
LINE
5
544
100
AcDbEntity
8
grid
6
ByLayer
62
256
370
-1
100
AcDbLine
10
51.9
20
91
11
51.9
21
86
0
LINE
5
545
100
AcDbEntity
8
grid
6
ByLayer
62
256
370
-1
100
AcDbLine
10
52
20
91
11
52
21
86
0
LINE
5
546
100
AcDbEntity
8
grid
6
ByLayer
62
256
370
-1
100
AcDbLine
10
52.1
20
91
11
52.1
21
86
0
LINE
5
547
100
AcDbEntity
8
grid
6
ByLayer
62
256
370
-1
100
AcDbLine
10
52.2
20
91
11
52.2
21
86
0
LINE
5
548
100
AcDbEntity
8
grid
6
ByLayer
62
256
370
-1
100
AcDbLine
10
52.3
20
91
11
52.3
21
86
0
LINE
5
549
100
AcDbEntity
8
grid
6
ByLayer
62
256
370
-1
100
AcDbLine
10
52.4
20
91
11
52.4
21
86
0
LINE
5
54A
100
AcDbEntity
8
grid
6
ByLayer
62
256
370
-1
100
AcDbLine
10
52.5
20
91
11
52.5
21
86
0
LINE
5
54B
100
AcDbEntity
8
grid
6
ByLayer
62
256
370
-1
100
AcDbLine
10
52.6
20
91
11
52.6
21
86
0
LINE
5
54C
100
AcDbEntity
8
grid
6
ByLayer
62
256
370
-1
100
AcDbLine
10
52.7
20
91
11
52.7
21
86
0
LINE
5
54D
100
AcDbEntity
8
grid
6
ByLayer
62
256
370
-1
100
AcDbLine
10
52.8
20
91
11
52.8
21
86
0
LINE
5
54E
100
AcDbEntity
8
grid
6
ByLayer
62
256
370
-1
100
AcDbLine
10
52.9
20
91
11
52.9
21
86
0
LINE
5
54F
100
AcDbEntity
8
grid
6
ByLayer
62
256
370
-1
100
AcDbLine
10
53
20
91
11
53
21
86
0
LINE
5
550
100
AcDbEntity
8
grid
6
ByLayer
62
256
370
-1
100
AcDbLine
10
53.1
20
91
11
53.1
21
86
0
LINE
5
551
100
AcDbEntity
8
grid
6
ByLayer
62
256
370
-1
100
AcDbLine
10
53.2
20
91
11
53.2
21
86
0
LINE
5
552
100
AcDbEntity
8
grid
6
ByLayer
62
256
370
-1
100
AcDbLine
10
53.3
20
91
11
53.3
21
86
0
LINE
5
553
100
AcDbEntity
8
grid
6
ByLayer
62
256
370
-1
100
AcDbLine
10
53.4
20
91
11
53.4
21
86
0
LINE
5
554
100
AcDbEntity
8
grid
6
ByLayer
62
256
370
-1
100
AcDbLine
10
53.5
20
91
11
53.5
21
86
0
LINE
5
555
100
AcDbEntity
8
grid
6
ByLayer
62
256
370
-1
100
AcDbLine
10
53.6
20
91
11
53.6
21
86
0
LINE
5
556
100
AcDbEntity
8
grid
6
ByLayer
62
256
370
-1
100
AcDbLine
10
53.7
20
91
11
53.7
21
86
0
LINE
5
557
100
AcDbEntity
8
grid
6
ByLayer
62
256
370
-1
100
AcDbLine
10
53.8
20
91
11
53.8
21
86
0
LINE
5
558
100
AcDbEntity
8
grid
6
ByLayer
62
256
370
-1
100
AcDbLine
10
53.9
20
91
11
53.9
21
86
0
LINE
5
559
100
AcDbEntity
8
grid
6
ByLayer
62
256
370
-1
100
AcDbLine
10
54
20
91
11
54
21
86
0
LINE
5
55A
100
AcDbEntity
8
grid
6
ByLayer
62
256
370
-1
100
AcDbLine
10
54.1
20
91
11
54.1
21
86
0
LINE
5
55B
100
AcDbEntity
8
grid
6
ByLayer
62
256
370
-1
100
AcDbLine
10
54.2
20
91
11
54.2
21
86
0
LINE
5
55C
100
AcDbEntity
8
grid
6
ByLayer
62
256
370
-1
100
AcDbLine
10
54.3
20
91
11
54.3
21
86
0
LINE
5
55D
100
AcDbEntity
8
grid
6
ByLayer
62
256
370
-1
100
AcDbLine
10
54.4
20
91
11
54.4
21
86
0
LINE
5
55E
100
AcDbEntity
8
grid
6
ByLayer
62
256
370
-1
100
AcDbLine
10
54.5
20
91
11
54.5
21
86
0
LINE
5
55F
100
AcDbEntity
8
grid
6
ByLayer
62
256
370
-1
100
AcDbLine
10
54.6
20
91
11
54.6
21
86
0
LINE
5
560
100
AcDbEntity
8
grid
6
ByLayer
62
256
370
-1
100
AcDbLine
10
54.7
20
91
11
54.7
21
86
0
LINE
5
561
100
AcDbEntity
8
grid
6
ByLayer
62
256
370
-1
100
AcDbLine
10
54.8
20
91
11
54.8
21
86
0
LINE
5
562
100
AcDbEntity
8
grid
6
ByLayer
62
256
370
-1
100
AcDbLine
10
54.9
20
91
11
54.9
21
86
0
LINE
5
563
100
AcDbEntity
8
grid
6
ByLayer
62
256
370
-1
100
AcDbLine
10
55
20
91
11
55
21
86
0
LINE
5
564
100
AcDbEntity
8
grid
6
ByLayer
62
256
370
-1
100
AcDbLine
10
55.1
20
91
11
55.1
21
86
0
LINE
5
565
100
AcDbEntity
8
grid
6
ByLayer
62
256
370
-1
100
AcDbLine
10
55.2
20
91
11
55.2
21
86
0
LINE
5
566
100
AcDbEntity
8
grid
6
ByLayer
62
256
370
-1
100
AcDbLine
10
55.3
20
91
11
55.3
21
86
0
LINE
5
567
100
AcDbEntity
8
grid
6
ByLayer
62
256
370
-1
100
AcDbLine
10
55.4
20
91
11
55.4
21
86
0
LINE
5
568
100
AcDbEntity
8
grid
6
ByLayer
62
256
370
-1
100
AcDbLine
10
55.5
20
91
11
55.5
21
86
0
LINE
5
569
100
AcDbEntity
8
grid
6
ByLayer
62
256
370
-1
100
AcDbLine
10
55.6
20
91
11
55.6
21
86
0
LINE
5
56A
100
AcDbEntity
8
grid
6
ByLayer
62
256
370
-1
100
AcDbLine
10
55.7
20
91
11
55.7
21
86
0
LINE
5
56B
100
AcDbEntity
8
grid
6
ByLayer
62
256
370
-1
100
AcDbLine
10
55.8
20
91
11
55.8
21
86
0
LINE
5
56C
100
AcDbEntity
8
grid
6
ByLayer
62
256
370
-1
100
AcDbLine
10
55.9
20
91
11
55.9
21
86
0
LINE
5
56D
100
AcDbEntity
8
grid
6
ByLayer
62
256
370
-1
100
AcDbLine
10
56
20
91
11
56
21
86
0
LINE
5
56E
100
AcDbEntity
8
grid
6
ByLayer
62
256
370
-1
100
AcDbLine
10
56.1
20
91
11
56.1
21
86
0
LINE
5
56F
100
AcDbEntity
8
grid
6
ByLayer
62
256
370
-1
100
AcDbLine
10
56.2
20
91
11
56.2
21
86
0
LINE
5
570
100
AcDbEntity
8
grid
6
ByLayer
62
256
370
-1
100
AcDbLine
10
56.3
20
91
11
56.3
21
86
0
LINE
5
571
100
AcDbEntity
8
grid
6
ByLayer
62
256
370
-1
100
AcDbLine
10
56.4
20
91
11
56.4
21
86
0
LINE
5
572
100
AcDbEntity
8
grid
6
ByLayer
62
256
370
-1
100
AcDbLine
10
56.5
20
91
11
56.5
21
86
0
LINE
5
573
100
AcDbEntity
8
grid
6
ByLayer
62
256
370
-1
100
AcDbLine
10
56.6
20
91
11
56.6
21
86
0
LINE
5
574
100
AcDbEntity
8
grid
6
ByLayer
62
256
370
-1
100
AcDbLine
10
56.7
20
91
11
56.7
21
86
0
LINE
5
575
100
AcDbEntity
8
grid
6
ByLayer
62
256
370
-1
100
AcDbLine
10
56.8
20
91
11
56.8
21
86
0
LINE
5
576
100
AcDbEntity
8
grid
6
ByLayer
62
256
370
-1
100
AcDbLine
10
56.9
20
91
11
56.9
21
86
0
LINE
5
577
100
AcDbEntity
8
grid
6
ByLayer
62
256
370
-1
100
AcDbLine
10
57
20
91
11
57
21
86
0
LINE
5
578
100
AcDbEntity
8
grid
6
ByLayer
62
256
370
-1
100
AcDbLine
10
57.1
20
91
11
57.1
21
86
0
LINE
5
579
100
AcDbEntity
8
grid
6
ByLayer
62
256
370
-1
100
AcDbLine
10
57.2
20
91
11
57.2
21
86
0
LINE
5
57A
100
AcDbEntity
8
grid
6
ByLayer
62
256
370
-1
100
AcDbLine
10
57.3
20
91
11
57.3
21
86
0
LINE
5
57B
100
AcDbEntity
8
grid
6
ByLayer
62
256
370
-1
100
AcDbLine
10
57.4
20
91
11
57.4
21
86
0
LINE
5
57C
100
AcDbEntity
8
grid
6
ByLayer
62
256
370
-1
100
AcDbLine
10
57.5
20
91
11
57.5
21
86
0
LINE
5
57D
100
AcDbEntity
8
grid
6
ByLayer
62
256
370
-1
100
AcDbLine
10
57.6
20
91
11
57.6
21
86
0
LINE
5
57E
100
AcDbEntity
8
grid
6
ByLayer
62
256
370
-1
100
AcDbLine
10
57.7
20
91
11
57.7
21
86
0
LINE
5
57F
100
AcDbEntity
8
grid
6
ByLayer
62
256
370
-1
100
AcDbLine
10
57.8
20
91
11
57.8
21
86
0
LINE
5
580
100
AcDbEntity
8
grid
6
ByLayer
62
256
370
-1
100
AcDbLine
10
57.9
20
91
11
57.9
21
86
0
LINE
5
581
100
AcDbEntity
8
grid
6
ByLayer
62
256
370
-1
100
AcDbLine
10
58
20
91
11
58
21
86
0
LINE
5
582
100
AcDbEntity
8
grid
6
ByLayer
62
256
370
-1
100
AcDbLine
10
58.1
20
91
11
58.1
21
86
0
LINE
5
583
100
AcDbEntity
8
grid
6
ByLayer
62
256
370
-1
100
AcDbLine
10
58.2
20
91
11
58.2
21
86
0
LINE
5
584
100
AcDbEntity
8
grid
6
ByLayer
62
256
370
-1
100
AcDbLine
10
58.3
20
91
11
58.3
21
86
0
LINE
5
585
100
AcDbEntity
8
grid
6
ByLayer
62
256
370
-1
100
AcDbLine
10
58.4
20
91
11
58.4
21
86
0
LINE
5
586
100
AcDbEntity
8
grid
6
ByLayer
62
256
370
-1
100
AcDbLine
10
58.5
20
91
11
58.5
21
86
0
LINE
5
587
100
AcDbEntity
8
grid
6
ByLayer
62
256
370
-1
100
AcDbLine
10
58.6
20
91
11
58.6
21
86
0
LINE
5
588
100
AcDbEntity
8
grid
6
ByLayer
62
256
370
-1
100
AcDbLine
10
58.7
20
91
11
58.7
21
86
0
LINE
5
589
100
AcDbEntity
8
grid
6
ByLayer
62
256
370
-1
100
AcDbLine
10
58.8
20
91
11
58.8
21
86
0
LINE
5
58A
100
AcDbEntity
8
grid
6
ByLayer
62
256
370
-1
100
AcDbLine
10
58.9
20
91
11
58.9
21
86
0
LINE
5
58B
100
AcDbEntity
8
grid
6
ByLayer
62
256
370
-1
100
AcDbLine
10
59
20
91
11
59
21
86
0
LINE
5
58C
100
AcDbEntity
8
grid
6
ByLayer
62
256
370
-1
100
AcDbLine
10
59.1
20
91
11
59.1
21
86
0
LINE
5
58D
100
AcDbEntity
8
grid
6
ByLayer
62
256
370
-1
100
AcDbLine
10
59.2
20
91
11
59.2
21
86
0
LINE
5
58E
100
AcDbEntity
8
grid
6
ByLayer
62
256
370
-1
100
AcDbLine
10
59.3
20
91
11
59.3
21
86
0
LINE
5
58F
100
AcDbEntity
8
grid
6
ByLayer
62
256
370
-1
100
AcDbLine
10
59.4
20
91
11
59.4
21
86
0
LINE
5
590
100
AcDbEntity
8
grid
6
ByLayer
62
256
370
-1
100
AcDbLine
10
59.5
20
91
11
59.5
21
86
0
LINE
5
591
100
AcDbEntity
8
grid
6
ByLayer
62
256
370
-1
100
AcDbLine
10
59.6
20
91
11
59.6
21
86
0
LINE
5
592
100
AcDbEntity
8
grid
6
ByLayer
62
256
370
-1
100
AcDbLine
10
59.7
20
91
11
59.7
21
86
0
LINE
5
593
100
AcDbEntity
8
grid
6
ByLayer
62
256
370
-1
100
AcDbLine
10
59.8
20
91
11
59.8
21
86
0
LINE
5
594
100
AcDbEntity
8
grid
6
ByLayer
62
256
370
-1
100
AcDbLine
10
59.9
20
91
11
59.9
21
86
0
LINE
5
595
100
AcDbEntity
8
grid
6
ByLayer
62
256
370
-1
100
AcDbLine
10
60
20
91
11
60
21
86
0
LINE
5
596
100
AcDbEntity
8
grid
6
ByLayer
62
256
370
-1
100
AcDbLine
10
60.1
20
91
11
60.1
21
86
0
LINE
5
597
100
AcDbEntity
8
grid
6
ByLayer
62
256
370
-1
100
AcDbLine
10
60.2
20
91
11
60.2
21
86
0
LINE
5
598
100
AcDbEntity
8
grid
6
ByLayer
62
256
370
-1
100
AcDbLine
10
60.3
20
91
11
60.3
21
86
0
LINE
5
599
100
AcDbEntity
8
grid
6
ByLayer
62
256
370
-1
100
AcDbLine
10
60.4
20
91
11
60.4
21
86
0
LINE
5
59A
100
AcDbEntity
8
grid
6
ByLayer
62
256
370
-1
100
AcDbLine
10
60.5
20
91
11
60.5
21
86
0
LINE
5
59B
100
AcDbEntity
8
grid
6
ByLayer
62
256
370
-1
100
AcDbLine
10
60.6
20
91
11
60.6
21
86
0
LINE
5
59C
100
AcDbEntity
8
grid
6
ByLayer
62
256
370
-1
100
AcDbLine
10
60.7
20
91
11
60.7
21
86
0
LINE
5
59D
100
AcDbEntity
8
grid
6
ByLayer
62
256
370
-1
100
AcDbLine
10
60.8
20
91
11
60.8
21
86
0
LINE
5
59E
100
AcDbEntity
8
grid
6
ByLayer
62
256
370
-1
100
AcDbLine
10
60.9
20
91
11
60.9
21
86
0
LINE
5
59F
100
AcDbEntity
8
grid
6
ByLayer
62
256
370
-1
100
AcDbLine
10
61
20
91
11
61
21
86
0
LINE
5
5A0
100
AcDbEntity
8
grid
6
ByLayer
62
256
370
-1
100
AcDbLine
10
61.1
20
91
11
61.1
21
86
0
LINE
5
5A1
100
AcDbEntity
8
grid
6
ByLayer
62
256
370
-1
100
AcDbLine
10
61.2
20
91
11
61.2
21
86
0
LINE
5
5A2
100
AcDbEntity
8
grid
6
ByLayer
62
256
370
-1
100
AcDbLine
10
61.3
20
91
11
61.3
21
86
0
LINE
5
5A3
100
AcDbEntity
8
grid
6
ByLayer
62
256
370
-1
100
AcDbLine
10
61.4
20
91
11
61.4
21
86
0
LINE
5
5A4
100
AcDbEntity
8
grid
6
ByLayer
62
256
370
-1
100
AcDbLine
10
61.5
20
91
11
61.5
21
86
0
ENDSEC
0
SECTION
2
OBJECTS
0
DICTIONARY
5
C
330
0
100
AcDbDictionary
281
1
3
ACAD_GROUP
350
D
0
DICTIONARY
5
D
330
C
100
AcDbDictionary
281
1
0
ENDSEC
0
EOF
